<svg width="111" height="13" viewBox="0 0 111 13" fill="none" xmlns="http://www.w3.org/2000/svg">
<path d="M11.0726 1.07446H1.31953V3.94301H6.51161L0 10.4546L1.83587 12.3192L8.4909 5.66414V11.1144H11.0726V1.07446Z" fill="#FBFEFC"/>
<path d="M22.2038 0.787109H17.4707V12.2613H22.2038C24.8429 12.2613 26.5927 11.2573 27.4246 9.47881C27.8262 8.67562 27.9696 7.70031 27.9696 6.52421C27.9696 5.3481 27.7975 4.37279 27.4246 3.5696C26.6214 1.7911 24.8429 0.787109 22.2038 0.787109ZM24.9576 8.58956C24.47 9.62224 23.4947 10.1959 21.8309 10.1959H19.995V2.85246H21.8309C23.4947 2.85246 24.4986 3.39749 24.9576 4.45885C25.2158 5.00388 25.3305 5.63496 25.3305 6.52421C25.3305 7.41346 25.2158 8.04454 24.9576 8.58956Z" fill="#FBFEFC"/>
<path d="M30.1484 12.2613H37.8075V10.2533H32.6728V7.41346H37.7788V5.46284H32.6728V2.79509H37.8075V0.787109H30.1484V12.2613Z" fill="#FBFEFC"/>
<path d="M45.5821 5.46173C44.1478 5.08882 42.7996 4.88803 42.4553 4.1422C42.398 3.97009 42.3693 3.82666 42.3693 3.62586C42.3693 3.42507 42.398 3.28164 42.484 3.10953C42.7135 2.59319 43.3733 2.30633 44.2338 2.30633C45.1518 2.30633 45.7542 2.62187 46.041 3.19558C46.1845 3.48244 46.2418 3.82666 46.2418 4.22826H48.8235C48.8235 3.56849 48.7088 3.05215 48.508 2.5645C47.8769 1.24497 46.3853 0.527832 44.3486 0.527832C42.2545 0.527832 40.6768 1.30234 40.1031 2.5645C39.9023 2.99478 39.7876 3.42507 39.7876 3.9414C39.7876 4.45774 39.9023 4.85934 40.0458 5.23225C40.5334 6.29361 41.7382 6.80995 43.1438 7.18286C44.6068 7.58446 46.0697 7.81394 46.4713 8.67451C46.5574 8.84662 46.6147 9.01873 46.6147 9.2769C46.6147 9.4777 46.5574 9.6785 46.4713 9.90799C46.2131 10.453 45.496 10.7399 44.5207 10.7399C43.4593 10.7399 42.7996 10.3956 42.484 9.76456C42.3406 9.4777 42.3119 9.10479 42.3119 8.70319H39.5581C39.5868 9.36296 39.6729 9.93667 39.9023 10.453C40.5334 11.7725 42.0537 12.6044 44.4346 12.6044C46.7008 12.6044 48.3932 11.8586 49.053 10.4817C49.2538 10.0514 49.3685 9.56376 49.3685 8.99005C49.3685 8.44503 49.2538 7.98606 49.1104 7.58446C48.508 6.35099 47.1311 5.86333 45.5821 5.46173Z" fill="#FBFEFC"/>
<path d="M53.8433 0.787109H51.3477V12.2613H53.8433V0.787109Z" fill="#FBFEFC"/>
<path d="M62.0183 7.84348H64.9729C64.9443 8.35982 64.8582 8.70405 64.7148 9.07696C64.2845 9.99489 63.3379 10.4539 62.0183 10.4539C60.6414 10.4539 59.6374 9.93752 59.1498 8.90484C58.8629 8.27376 58.7482 7.614 58.7482 6.52395C58.7482 5.4339 58.8629 4.74545 59.1498 4.14306C59.6374 3.11038 60.5841 2.59404 61.961 2.59404C62.8215 2.59404 63.5673 2.79484 64.055 3.25381C64.4853 3.59803 64.7148 4.11437 64.8008 4.74545H67.3825C67.2678 3.54066 66.7514 2.50798 65.9196 1.76216C64.9729 0.930282 63.6247 0.5 61.9897 0.5C59.3506 0.5 57.5721 1.56136 56.6542 3.4546C56.2526 4.28648 56.0518 5.29047 56.0518 6.52395C56.0518 7.75743 56.2526 8.76142 56.6542 9.5933C57.5434 11.4579 59.3506 12.5479 61.9323 12.5479C64.3419 12.5479 66.0056 11.63 66.8662 9.82278C67.2965 8.90484 67.4686 7.87217 67.4686 6.78212V6.00761H62.0183V7.84348Z" fill="#FBFEFC"/>
<path d="M77.5078 8.67562L72.2296 0.787109H69.6479V12.2613H72.1149V4.40148L77.3643 12.2613H79.946V0.787109H77.5078V8.67562Z" fill="#FBFEFC"/>
<path d="M93.7742 9.73672C93.2579 10.167 92.5408 10.4252 91.6515 10.4252C90.3607 10.4252 89.4141 9.90884 88.9264 8.90484C88.6395 8.30245 88.5248 7.55663 88.5248 6.52395C88.5248 5.49127 88.6395 4.77414 88.9264 4.17174C89.3854 3.19643 90.2746 2.62273 91.6515 2.62273C92.5408 2.62273 93.2005 2.85221 93.7169 3.28249C94.2045 3.71277 94.4627 4.28648 94.4914 5.06099H97.1591C97.1018 3.74146 96.6141 2.62273 95.6675 1.81953C94.6922 0.987653 93.344 0.5 91.7376 0.5C89.1272 0.5 87.32 1.59005 86.4881 3.42592C86.0865 4.31517 85.8857 5.31916 85.8857 6.52395C85.8857 7.72874 86.0865 8.73273 86.4881 9.62198C87.3774 11.4865 89.1846 12.5479 91.7663 12.5479C93.3726 12.5479 94.8069 12.0889 95.7535 11.2284C96.6428 10.4539 97.1878 9.36381 97.2165 8.04428H94.5488C94.5201 8.7901 94.2332 9.33513 93.7742 9.73672Z" fill="#FBFEFC"/>
<path d="M110.095 3.39723C109.234 1.59005 107.456 0.5 104.874 0.5C102.263 0.5 100.456 1.59005 99.6244 3.39723C99.2228 4.28648 99.022 5.34785 99.022 6.52395C99.022 7.70005 99.2228 8.76142 99.653 9.65067C100.514 11.4865 102.292 12.5479 104.874 12.5479C107.484 12.5479 109.234 11.4865 110.123 9.65067C110.554 8.76142 110.754 7.70005 110.754 6.52395C110.754 5.34785 110.496 4.28648 110.095 3.39723ZM107.628 8.7901C107.169 9.79409 106.279 10.3678 104.845 10.3678C103.411 10.3678 102.493 9.76541 102.063 8.7901C101.776 8.15902 101.661 7.47057 101.661 6.49526C101.661 5.51996 101.776 4.83151 102.063 4.20043C102.522 3.22512 103.411 2.62273 104.845 2.62273C106.279 2.62273 107.197 3.22512 107.628 4.20043C107.943 4.83151 108.029 5.51996 108.029 6.49526C108.029 7.47057 107.914 8.18771 107.628 8.7901Z" fill="#FBFEFC"/>
</svg>
