<svg width="261" height="61" viewBox="0 0 261 61" fill="none" xmlns="http://www.w3.org/2000/svg">
<path d="M16.6222 60.6842C15.1289 60.6842 13.6622 60.5776 12.2222 60.3643C10.7822 60.2043 9.39556 59.8843 8.06222 59.4043C6.72889 58.8709 5.47556 58.2043 4.30222 57.4043C3.18222 56.5509 2.24889 55.5109 1.50222 54.2842C0.808889 53.0576 0.355556 51.7242 0.142222 50.2842C-0.0711112 48.8442 -0.0444444 47.3776 0.222222 45.8843L0.382222 45.0843H8.94222L8.86222 45.4842C8.64889 46.6576 8.70222 47.8042 9.02222 48.9242C9.39556 49.9909 10.0089 50.8709 10.8622 51.5643C11.7156 52.2043 12.7022 52.6576 13.8222 52.9243C14.9422 53.1909 16.0889 53.3242 17.2622 53.3242C18.4356 53.3242 19.5822 53.1909 20.7022 52.9243C21.8756 52.6576 22.9689 52.2043 23.9822 51.5643C24.9956 50.8709 25.8222 49.9909 26.4622 48.9242C27.1556 47.8576 27.6089 46.7642 27.8222 45.6442C28.0356 44.2042 27.9022 42.8176 27.4222 41.4842C26.9422 40.1509 26.2222 39.0042 25.2622 38.0443C24.3022 37.0843 23.2089 36.3109 21.9822 35.7243C20.7556 35.0843 19.5289 34.4709 18.3022 33.8842C17.1289 33.2976 15.9556 32.6576 14.7822 31.9642C13.6089 31.2176 12.5422 30.3909 11.5822 29.4842C10.6222 28.5243 9.74222 27.4842 8.94222 26.3642C8.19556 25.2442 7.58222 24.0709 7.10222 22.8442C6.62222 21.5642 6.30222 20.2042 6.14222 18.7642C5.98222 17.3242 6.00889 15.8842 6.22222 14.4442C6.43556 13.1109 6.83556 11.7776 7.42222 10.4443C8.00889 9.11092 8.78222 7.88425 9.74222 6.76425C10.7022 5.64425 11.7956 4.68425 13.0222 3.88425C14.3022 3.03091 15.6089 2.36425 16.9422 1.88425C18.3289 1.40425 19.6889 1.08425 21.0222 0.924249C22.4089 0.710915 23.7956 0.604248 25.1822 0.604248C26.6756 0.604248 28.1422 0.710915 29.5822 0.924249C31.0222 1.08425 32.3556 1.43091 33.5822 1.96425C34.8622 2.44425 36.0356 3.13758 37.1022 4.04425C38.2222 4.89758 39.1022 5.93758 39.7422 7.16425C40.3822 8.33758 40.8089 9.64425 41.0222 11.0842C41.2356 12.5242 41.2089 13.9642 40.9422 15.4042L40.7822 16.2042H32.2222L32.3022 15.8042C32.5156 14.6309 32.4622 13.5376 32.1422 12.5242C31.8756 11.4576 31.3422 10.5776 30.5422 9.88425C29.7956 9.13758 28.8889 8.63091 27.8222 8.36425C26.7556 8.09758 25.6622 7.96425 24.5422 7.96425C23.4222 7.96425 22.3022 8.12425 21.1822 8.44425C20.1156 8.71091 19.1022 9.19091 18.1422 9.88425C17.1822 10.5776 16.4089 11.4309 15.8222 12.4442C15.2356 13.4576 14.8622 14.5242 14.7022 15.6442C14.4356 17.0843 14.5422 18.4709 15.0222 19.8042C15.5022 21.1376 16.1956 22.2842 17.1022 23.2442C18.0622 24.1509 19.1556 24.9242 20.3822 25.5642C21.6089 26.1509 22.8356 26.7642 24.0622 27.4042C25.2889 27.9909 26.4889 28.6576 27.6622 29.4042C28.8356 30.0976 29.9022 30.9242 30.8622 31.8842C31.8222 32.7909 32.6756 33.8042 33.4222 34.9242C34.2222 35.9909 34.8622 37.1642 35.3422 38.4442C35.8222 39.7242 36.1422 41.0843 36.3022 42.5243C36.5156 43.9109 36.4889 45.3243 36.2222 46.7643C36.0089 48.2043 35.5822 49.5909 34.9422 50.9243C34.3022 52.2576 33.4756 53.4843 32.4622 54.6043C31.4489 55.7243 30.3022 56.7109 29.0222 57.5643C27.7422 58.3643 26.4089 59.0042 25.0222 59.4842C23.6889 59.9109 22.3022 60.2043 20.8622 60.3643C19.4222 60.5776 18.0089 60.6842 16.6222 60.6842Z" fill="#FBFEFC"/>
<path d="M61.711 60.6842C60.1643 60.6842 58.671 60.4976 57.231 60.1243C55.791 59.7509 54.4843 59.1376 53.311 58.2843C52.191 57.4309 51.2576 56.3643 50.511 55.0843C49.8176 53.8043 49.311 52.4442 48.991 51.0042C48.7243 49.5109 48.6176 48.0176 48.671 46.5243C48.7243 44.9776 48.8843 43.4309 49.151 41.8843L51.871 25.8042H44.191V18.4442H53.071L55.871 1.24425H64.431L61.631 18.4442H76.351V25.8042H60.431L57.551 43.0843C57.391 43.8309 57.2843 44.5776 57.231 45.3242C57.231 46.0709 57.2576 46.8176 57.311 47.5643C57.3643 48.3109 57.4976 49.0309 57.711 49.7243C57.9243 50.4176 58.2176 51.0576 58.591 51.6442C59.0176 52.1776 59.5776 52.6043 60.271 52.9243C60.9643 53.1909 61.6843 53.3242 62.431 53.3242C63.071 53.3242 63.711 53.1909 64.351 52.9243C65.0443 52.6576 65.6576 52.2842 66.191 51.8042C66.7243 51.3242 67.2043 50.7909 67.631 50.2043C68.0576 49.5643 68.431 48.9243 68.751 48.2843C69.071 47.6443 69.3376 47.0042 69.551 46.3643C69.8176 45.7243 70.031 45.0576 70.191 44.3643L77.871 46.6842C77.6043 47.8576 77.1776 49.0309 76.591 50.2043C76.0576 51.3776 75.4176 52.4976 74.671 53.5643C73.9776 54.6309 73.151 55.6443 72.191 56.6043C71.231 57.5109 70.1643 58.2843 68.991 58.9243C67.871 59.5643 66.671 60.0176 65.391 60.2843C64.1643 60.5509 62.9376 60.6842 61.711 60.6842Z" fill="#FBFEFC"/>
<path d="M80.8797 60.0443L87.7597 18.4442H96.3997L95.1997 25.8042C95.8397 24.6309 96.6131 23.5376 97.5197 22.5243C98.4264 21.5109 99.4397 20.6309 100.56 19.8842C101.68 19.1376 102.853 18.6042 104.08 18.2842C105.36 17.9642 106.613 17.8043 107.84 17.8043C109.013 17.8043 110.106 17.9642 111.12 18.2842C112.186 18.6042 113.093 19.1376 113.84 19.8842C114.586 20.5776 115.173 21.4309 115.6 22.4442C116.026 23.4042 116.293 24.4442 116.4 25.5642C116.506 26.6309 116.506 27.7243 116.4 28.8442C116.346 29.9642 116.213 31.1109 116 32.2843H107.36C107.466 31.7509 107.546 31.2176 107.6 30.6842C107.653 30.1509 107.653 29.6442 107.6 29.1642C107.546 28.6309 107.466 28.1242 107.36 27.6442C107.253 27.1642 107.04 26.7376 106.72 26.3642C106.453 25.9376 106.08 25.6442 105.6 25.4842C105.173 25.2709 104.693 25.1642 104.16 25.1642C103.253 25.1642 102.32 25.2976 101.36 25.5642C100.453 25.7776 99.5997 26.1509 98.7997 26.6842C97.9997 27.2176 97.2797 27.8576 96.6397 28.6042C95.9997 29.3509 95.4664 30.1509 95.0397 31.0042C94.6131 31.8042 94.2664 32.6576 93.9997 33.5642C93.7864 34.4709 93.5997 35.3509 93.4397 36.2043L89.5197 60.0443H80.8797Z" fill="#FBFEFC"/>
<path d="M172.937 60.6842C171.391 60.6842 169.897 60.4709 168.457 60.0443C167.017 59.6709 165.737 59.0309 164.617 58.1243C163.551 57.2176 162.671 56.1242 161.977 54.8442C161.337 53.5109 160.884 52.1242 160.617 50.6842C160.351 49.1909 160.244 47.6709 160.297 46.1242C160.351 44.5776 160.511 43.0309 160.777 41.4842L162.137 33.4842C162.351 32.2043 162.644 30.9242 163.017 29.6442C163.391 28.3643 163.897 27.1109 164.537 25.8842C165.177 24.6576 165.977 23.5376 166.937 22.5243C167.897 21.4576 168.964 20.5509 170.137 19.8042C171.311 19.0576 172.564 18.5509 173.897 18.2842C175.231 17.9642 176.537 17.8043 177.817 17.8043C179.257 17.8043 180.671 17.9909 182.057 18.3642C183.444 18.6842 184.671 19.2442 185.737 20.0443C186.804 20.8442 187.684 21.8309 188.377 23.0042C189.124 24.1776 189.657 25.4309 189.977 26.7642L194.137 1.24425H202.777L193.097 60.0443H184.457L185.417 53.8843C184.724 54.9509 183.924 55.9376 183.017 56.8442C182.111 57.7509 181.097 58.4976 179.977 59.0843C178.857 59.6709 177.684 60.0709 176.457 60.2843C175.284 60.5509 174.111 60.6842 172.937 60.6842ZM176.457 53.3242C177.631 53.3242 178.831 53.1642 180.057 52.8442C181.284 52.5243 182.404 51.9642 183.417 51.1642C184.431 50.3643 185.231 49.4043 185.817 48.2843C186.404 47.1109 186.777 45.9376 186.937 44.7642L188.297 36.7643C188.457 35.8576 188.537 34.9509 188.537 34.0443C188.591 33.0843 188.537 32.1776 188.377 31.3242C188.271 30.4709 188.031 29.6442 187.657 28.8442C187.337 28.0442 186.831 27.3776 186.137 26.8442C185.497 26.2576 184.751 25.8309 183.897 25.5642C183.097 25.2976 182.217 25.1642 181.257 25.1642C180.031 25.1642 178.751 25.3776 177.417 25.8042C176.137 26.1776 174.991 26.8176 173.977 27.7242C173.017 28.6309 172.244 29.7242 171.657 31.0042C171.124 32.2309 170.751 33.4576 170.537 34.6842L169.257 42.6842C169.097 43.5376 168.991 44.4176 168.937 45.3242C168.937 46.1776 169.017 47.0309 169.177 47.8843C169.337 48.6842 169.631 49.4576 170.057 50.2043C170.484 50.8976 171.017 51.4842 171.657 51.9642C172.297 52.4442 173.017 52.7909 173.817 53.0042C174.671 53.2176 175.551 53.3242 176.457 53.3242Z" fill="#FBFEFC"/>
<path d="M217.226 60.6842C215.519 60.6842 213.839 60.5243 212.186 60.2043C210.586 59.9376 209.093 59.4043 207.706 58.6043C206.319 57.8043 205.119 56.7909 204.106 55.5643C203.146 54.3376 202.399 52.9509 201.866 51.4043C201.386 49.8576 201.146 48.2576 201.146 46.6042C201.146 44.8976 201.279 43.1909 201.546 41.4842L202.906 33.4842C203.119 32.0442 203.493 30.6042 204.026 29.1642C204.559 27.7242 205.279 26.3642 206.186 25.0842C207.146 23.8042 208.239 22.6842 209.466 21.7242C210.746 20.7642 212.106 19.9909 213.546 19.4042C214.986 18.7642 216.453 18.3376 217.946 18.1242C219.439 17.9109 220.906 17.8043 222.346 17.8043C224.053 17.8043 225.733 17.9642 227.386 18.2842C229.039 18.5509 230.559 19.0842 231.946 19.8842C233.386 20.6309 234.613 21.6442 235.626 22.9242C236.639 24.1509 237.386 25.5376 237.866 27.0842C238.399 28.5776 238.666 30.1776 238.666 31.8842C238.719 33.5909 238.586 35.2976 238.266 37.0042L237.306 42.9242H209.946C209.733 44.2576 209.706 45.5909 209.866 46.9243C210.026 48.2576 210.453 49.4309 211.146 50.4443C211.893 51.4043 212.853 52.1243 214.026 52.6043C215.253 53.0843 216.533 53.3242 217.866 53.3242C218.826 53.3242 219.786 53.2709 220.746 53.1642C221.759 53.0042 222.746 52.7109 223.706 52.2842C224.666 51.8576 225.519 51.2709 226.266 50.5243C227.066 49.7776 227.573 48.8976 227.786 47.8843H236.346C236.079 49.2176 235.599 50.5243 234.906 51.8042C234.266 53.0309 233.439 54.1776 232.426 55.2443C231.466 56.2576 230.346 57.1376 229.066 57.8843C227.839 58.5776 226.559 59.1376 225.226 59.5643C223.893 59.9909 222.559 60.2843 221.226 60.4443C219.893 60.6043 218.559 60.6842 217.226 60.6842ZM229.866 35.5642C230.133 34.2309 230.186 32.9242 230.026 31.6442C229.866 30.3643 229.466 29.2176 228.826 28.2042C228.186 27.1909 227.279 26.4442 226.106 25.9642C224.933 25.4309 223.679 25.1642 222.346 25.1642C221.493 25.1642 220.639 25.2442 219.786 25.4042C218.933 25.5642 218.079 25.8309 217.226 26.2043C216.426 26.5776 215.679 27.0842 214.986 27.7242C214.293 28.3109 213.679 29.0042 213.146 29.8042C212.613 30.5509 212.213 31.3509 211.946 32.2042C211.679 33.0042 211.466 33.8309 211.306 34.6842L211.146 35.5642H229.866Z" fill="#FBFEFC"/>
<path d="M252.715 60.6842C251.968 60.6842 251.195 60.6043 250.395 60.4443C249.648 60.2843 248.955 60.0176 248.315 59.6442C247.728 59.2176 247.221 58.7109 246.795 58.1243C246.368 57.5376 246.021 56.8976 245.755 56.2043C245.541 55.4576 245.408 54.6842 245.355 53.8843C245.355 53.0843 245.408 52.3109 245.515 51.5643C245.675 50.7643 245.968 49.9909 246.395 49.2443C246.821 48.4443 247.381 47.8042 248.075 47.3242C248.768 46.7909 249.515 46.4442 250.315 46.2842C251.115 46.0709 251.941 45.9642 252.795 45.9642C253.541 45.9642 254.288 46.0443 255.035 46.2043C255.835 46.3643 256.528 46.6576 257.115 47.0843C257.755 47.4576 258.288 47.9376 258.715 48.5243C259.195 49.1109 259.541 49.7776 259.755 50.5243C259.968 51.2176 260.075 51.9643 260.075 52.7643C260.128 53.5643 260.101 54.3376 259.995 55.0843C259.835 55.8843 259.541 56.6842 259.115 57.4842C258.741 58.2309 258.208 58.8709 257.515 59.4043C256.821 59.8843 256.048 60.2043 255.195 60.3643C254.395 60.5776 253.568 60.6842 252.715 60.6842Z" fill="#FBFEFC"/>
<path d="M140.502 15.0443C139.596 15.0443 138.689 14.8843 137.782 14.5643C136.876 14.1909 136.156 13.6576 135.622 12.9643C135.142 12.2176 134.822 11.3909 134.662 10.4843C134.502 9.52425 134.502 8.56425 134.662 7.60425C134.769 6.91092 134.982 6.27092 135.302 5.68425C135.676 5.04425 136.129 4.53759 136.662 4.16426C137.249 3.73759 137.862 3.44425 138.502 3.28425C139.196 3.12425 139.889 3.04425 140.582 3.04425C141.489 3.04425 142.396 3.23092 143.302 3.60425C144.209 3.92425 144.902 4.45758 145.382 5.20425C145.916 5.89759 146.262 6.72425 146.422 7.68425C146.636 8.59092 146.662 9.52425 146.502 10.4843C146.342 11.1776 146.102 11.8443 145.782 12.4843C145.462 13.0709 145.009 13.5776 144.422 14.0043C143.836 14.3776 143.196 14.6443 142.502 14.8043C141.862 14.9643 141.196 15.0443 140.502 15.0443Z" fill="#FBFEFC"/>
<path d="M143.982 20.1243L141.982 33.6443H139.302C134.982 33.6443 131.809 34.4977 129.782 36.2043C127.702 37.911 126.662 40.311 126.662 43.4043C126.662 46.391 127.622 48.711 129.542 50.3643C131.409 52.0177 133.889 52.8443 136.982 52.8443C139.116 52.8443 140.956 52.471 142.502 51.7243C143.996 50.9777 145.142 49.9377 145.942 48.6043C146.742 47.3243 147.142 45.8577 147.142 44.2043H156.022C156.076 45.8043 155.862 47.4043 155.382 49.0043C154.849 50.6043 154.076 52.1243 153.062 53.5643C151.996 55.0043 150.689 56.2577 149.142 57.3243C147.596 58.391 145.782 59.2177 143.702 59.8043C141.622 60.4443 139.276 60.7643 136.662 60.7643C133.516 60.7643 130.769 60.3377 128.422 59.4843C126.022 58.631 124.022 57.431 122.422 55.8843C120.822 54.3377 119.622 52.5243 118.822 50.4443C117.969 48.3643 117.542 46.071 117.542 43.5643C117.542 40.2043 118.289 37.3243 119.782 34.9243C121.276 32.5777 123.276 30.7643 125.782 29.4843C128.289 28.2043 131.089 27.431 134.182 27.1643L135.182 20.1243L143.982 20.1243Z" fill="#FBFEFC"/>
</svg>
