<svg width="48" height="48" viewBox="0 0 48 48" fill="none" xmlns="http://www.w3.org/2000/svg">
<rect width="48" height="48" fill="black"/>
<path fill-rule="evenodd" clip-rule="evenodd" d="M24.9726 25.463C25.2617 25.5143 25.564 25.5551 25.8801 25.5845C27.9957 25.7814 28.8333 25.2956 29.0952 25.0406C29.3188 24.8229 29.4078 24.4987 29.2473 24.086C29.079 23.6529 28.7025 23.3343 28.278 23.2514C27.9157 23.1807 27.118 23.2113 25.9739 24.2836C25.5825 24.6504 25.2509 25.0454 24.9726 25.463ZM23.7987 28.8171C24.3491 28.9362 24.9243 29.0246 25.5242 29.0804C28.203 29.3297 30.362 28.8202 31.7164 27.5015C33.1093 26.1454 33.2566 24.3174 32.6909 22.8623C32.1332 21.4277 30.8212 20.163 29.0129 19.81C27.1422 19.4449 25.1624 20.1257 23.4022 21.7754C22.6473 22.4829 22.0482 23.2452 21.5783 24.0389C21.4854 23.9674 21.3955 23.8942 21.3084 23.8194C20.2437 22.9048 19.5047 21.6629 19.0838 20.1906C18.2284 17.1989 18.7572 13.4702 20.2533 10.5414L16.9523 9C15.1291 12.569 14.4131 17.175 15.54 21.1167C16.1102 23.1111 17.1691 24.9855 18.8531 26.4321C19.2977 26.814 19.7789 27.1601 20.2966 27.4676C19.9228 29.3962 20.0399 31.3199 20.3218 32.9526C20.6148 34.6499 21.1023 36.1483 21.5127 37.2176C21.7188 37.7548 21.908 38.1901 22.0479 38.4957C22.118 38.6486 22.1759 38.7695 22.2177 38.8548C22.2386 38.8974 22.2554 38.9312 22.2678 38.9558C22.274 38.968 22.2791 38.978 22.2829 38.9856L22.2879 38.9951L22.2896 38.9986L22.2904 39C22.2907 39.0006 22.291 39.0011 23.9365 38.2208C25.5821 37.4404 25.5823 37.4409 25.5825 37.4413L25.5765 37.4295C25.5701 37.4168 25.5593 37.3952 25.5446 37.3652C25.5152 37.305 25.4701 37.2111 25.4132 37.0869C25.2993 36.8381 25.1388 36.4695 24.9616 36.0077C24.6052 35.0792 24.1916 33.8006 23.9464 32.3806C23.7415 31.1936 23.6645 29.981 23.7987 28.8171Z" fill="#FBFEFC"/>
</svg>
