<svg width="48" height="48" viewBox="0 0 48 48" fill="none" xmlns="http://www.w3.org/2000/svg">
<rect width="48" height="48" fill="black"/>
<path d="M15.0519 22.6554L16.1001 21.5824L15.2329 20.7353L14.2227 21.4054L15.0519 22.6554ZM8.41513 28.3875L9.5319 29.3889L9.53401 29.3866L8.41513 28.3875ZM15.0519 22.6555L14.0037 23.7284L14.8314 24.5371L15.8237 23.9417L15.0519 22.6555ZM15.0519 22.6555L16.1015 21.5838L15.2737 20.7731L14.2802 21.3692L15.0519 22.6555ZM15.0571 22.6605L14.0076 23.7322L14.874 24.5807L15.8852 23.9112L15.0571 22.6605ZM31.3696 18.4583L31.273 19.9552L31.2734 19.9552L31.3696 18.4583ZM39.4323 20.1574L40.1717 18.8523L40.1717 18.8523L39.4323 20.1574ZM39.9032 20.4587L40.7857 19.2458L40.7857 19.2458L39.9032 20.4587ZM7.0366 31.3046L8.52496 31.4911L8.52502 31.4906L7.0366 31.3046ZM14.2227 21.4054C11.4725 23.2297 9.12055 25.3454 7.29626 27.3885L9.53401 29.3866C11.1978 27.5233 13.3573 25.5795 15.881 23.9054L14.2227 21.4054ZM16.1001 21.5825L16.1001 21.5824L14.0037 23.7284L14.0037 23.7284L16.1001 21.5825ZM14.2802 21.3692C14.2458 21.3899 14.2184 21.4082 14.2007 21.4204C14.1919 21.4265 14.1848 21.4315 14.1805 21.4346C14.1783 21.4362 14.1765 21.4374 14.1754 21.4382C14.1748 21.4386 14.1744 21.4389 14.1741 21.4391C14.174 21.4392 14.1739 21.4393 14.1738 21.4394C14.1738 21.4394 14.1737 21.4394 14.1737 21.4394C14.1737 21.4394 14.1737 21.4394 14.1737 21.4394C14.1737 21.4394 14.1737 21.4394 14.1737 21.4394C14.1737 21.4395 14.1737 21.4395 14.1737 21.4395C14.1731 21.4399 14.1765 21.4374 14.1805 21.4346C14.1848 21.4315 14.1919 21.4265 14.2007 21.4204C14.2184 21.4082 14.2457 21.3899 14.2802 21.3692L15.8237 23.9417C15.8581 23.921 15.8855 23.9027 15.9031 23.8906C15.912 23.8845 15.919 23.8795 15.9234 23.8764C15.9256 23.8748 15.9274 23.8735 15.9285 23.8727C15.929 23.8723 15.9295 23.872 15.9298 23.8718C15.9299 23.8717 15.93 23.8716 15.9301 23.8716C15.9301 23.8715 15.9301 23.8715 15.9301 23.8715C15.9302 23.8715 15.9302 23.8715 15.9302 23.8715C15.9302 23.8715 15.9302 23.8715 15.9302 23.8715C15.9302 23.8715 15.9302 23.8715 15.9302 23.8715C15.9307 23.8711 15.9274 23.8735 15.9234 23.8764C15.919 23.8795 15.912 23.8845 15.9032 23.8906C15.8855 23.9027 15.8581 23.921 15.8237 23.9417L14.2802 21.3692ZM16.1066 21.5888L16.1015 21.5838L14.0024 23.7271L14.0076 23.7322L16.1066 21.5888ZM31.4663 16.9614C25.399 16.5696 19.3048 18.049 14.229 21.4098L15.8852 23.9112C20.3755 20.9381 25.8108 19.6025 31.273 19.9552L31.4663 16.9614ZM40.1717 18.8523C38.3839 17.8394 35.5046 17.2211 31.4659 16.9614L31.2734 19.9552C35.2265 20.2094 37.5274 20.8022 38.6929 21.4625L40.1717 18.8523ZM40.7857 19.2458C40.5932 19.1058 40.3881 18.9749 40.1717 18.8523L38.6929 21.4625C38.8203 21.5347 38.9288 21.6048 39.0206 21.6716L40.7857 19.2458ZM5.54825 31.118C5.4298 32.063 5.5236 32.9671 5.88532 33.7834C6.24939 34.6049 6.84084 35.2377 7.5559 35.7023C8.93094 36.5957 10.7984 36.8953 12.7328 36.9C16.6537 36.9095 21.785 35.6986 26.5823 33.969C31.3841 32.2377 36.0602 29.9112 39.0396 27.554C40.4953 26.4022 41.7498 25.0869 42.2575 23.6649C42.5263 22.912 42.602 22.0798 42.3284 21.2483C42.0574 20.4246 41.4969 19.7633 40.7857 19.2458L39.0206 21.6716C39.3604 21.9188 39.4514 22.1028 39.4787 22.1859C39.5035 22.2612 39.5245 22.3976 39.4322 22.6562C39.2176 23.2571 38.524 24.1365 37.1782 25.2013C34.5545 27.2771 30.2138 29.4706 25.5648 31.1468C20.9115 32.8245 16.1581 33.9083 12.7401 33.9C11.005 33.8958 9.83948 33.6084 9.19042 33.1866C8.89343 32.9937 8.72506 32.7868 8.62808 32.568C8.52877 32.3439 8.46031 32.0068 8.52496 31.4911L5.54825 31.118ZM7.29837 27.3861C6.38675 28.4027 5.72686 29.6889 5.54818 31.1185L8.52502 31.4906C8.61787 30.7477 8.97101 30.0144 9.5319 29.3889L7.29837 27.3861Z" fill="#FBFEFC"/>
<path d="M22.6145 14.9356C20.9929 15.2747 19.4031 14.2361 19.0639 12.6145C18.7248 10.9929 19.7635 9.40309 21.385 9.06394C23.0066 8.72478 24.5964 9.76344 24.9356 11.385C25.2747 13.0066 24.2361 14.5964 22.6145 14.9356Z" fill="#FBFEFC"/>
</svg>
