<svg width="48" height="48" viewBox="0 0 48 48" fill="none" xmlns="http://www.w3.org/2000/svg">
<rect width="48" height="48" fill="black"/>
<path d="M7.97917 28.3297C8.1631 28.544 9.74126 30.3463 12.3819 32.1473C15.0174 33.9448 18.8237 35.817 23.43 35.9896L23.4518 35.9903C23.4735 35.9909 23.4965 35.9915 23.5206 35.9922C23.6755 35.9966 23.8757 36.0022 24.0819 35.9991C29.759 36.0153 35.057 33.4174 39.8159 28.6405C41.3371 27.1132 41.3988 24.6512 39.9661 23.0541C39.926 23.0045 39.8834 22.9567 39.8383 22.9108C38.641 21.6912 36.856 21.3921 35.3735 22.0313C35.1513 15.9349 30.1929 11.0169 24.0564 11.0001C17.9156 10.9749 12.9271 15.8661 12.666 21.9606C11.2763 21.3462 9.59762 21.551 8.3804 22.6224C6.71744 24.0862 6.52431 26.6369 7.97917 28.3297ZM7.97917 28.3297L7.98109 28.3319" stroke="#FBFEFC" stroke-width="3"/>
</svg>
