<svg xmlns="http://www.w3.org/2000/svg" width="831" height="738" viewBox="0 0 831 738" fill="none">
<g clip-path="url(#clip0_7123_8272)">
<path d="M277.752 100.86L329.661 112.033L407.701 140.839L494.996 168.952L555.264 221.836L497.454 352.845L224.129 232.301L250.94 166.58L264.346 133.72L267.698 125.505L274.173 123.525L271.049 117.29L277.752 100.86Z" fill="black" stroke="#FBFEFC" stroke-width="5.29892"/>
<path d="M554.078 222.205L493.473 169.436L530.557 235.949L554.078 222.205Z" fill="#FBFEFC"/>
<path d="M329.324 161.264L318.172 162.459L324.805 171.51L335.94 170.296L329.324 161.264Z" fill="#FBFEFC"/>
<path d="M316.934 162.586L305.809 163.806L312.415 172.832L323.546 171.628L316.934 162.586Z" fill="#FBFEFC"/>
<path d="M336.674 171.292L325.539 172.507L332.156 181.538L343.286 180.334L336.674 171.292Z" fill="#FBFEFC"/>
<path d="M344.012 181.335L332.881 182.54L339.498 191.571L350.629 190.367L344.012 181.335Z" fill="#FBFEFC"/>
<path d="M304.566 163.938L293.446 165.147L300.052 174.174L311.183 172.97L304.566 163.938Z" fill="#FBFEFC"/>
<path d="M278.005 198.814L284.622 207.846L289.141 197.599L282.524 188.568L278.005 198.814Z" fill="#FBFEFC"/>
<path d="M285.352 208.843L291.955 217.906L296.483 207.639L289.867 198.607L285.352 208.843Z" fill="#FBFEFC"/>
<path d="M283.027 187.43L289.643 196.462L294.158 186.226L287.545 177.184L283.027 187.43Z" fill="#FBFEFC"/>
<path d="M288.045 176.05L294.661 185.081L299.189 174.814L292.573 165.783L288.045 176.05Z" fill="#FBFEFC"/>
<path d="M292.685 218.907L299.323 227.948L303.851 217.681L297.213 208.641L292.685 218.907Z" fill="#FBFEFC"/>
<path d="M336.201 224.481L325.039 225.672L329.558 215.426L340.72 214.235L336.201 224.481Z" fill="#FBFEFC"/>
<path d="M323.808 225.807L312.673 227.046L317.201 216.78L328.322 215.571L323.808 225.807Z" fill="#FBFEFC"/>
<path d="M341.22 213.097L330.058 214.288L334.572 204.052L345.739 202.851L341.22 213.097Z" fill="#FBFEFC"/>
<path d="M346.239 201.718L335.077 202.908L339.605 192.641L350.767 191.451L346.239 201.718Z" fill="#FBFEFC"/>
<path d="M311.432 227.18L300.312 228.389L304.84 218.122L315.96 216.913L311.432 227.18Z" fill="#FBFEFC"/>
<path d="M304.719 217.055L315.855 215.84L309.238 206.808L298.086 208.004L304.719 217.055Z" fill="#FBFEFC"/>
<path d="M317.088 215.707L328.219 214.502L321.602 205.471L310.471 206.675L317.088 215.707Z" fill="#FBFEFC"/>
<path d="M297.346 207.002L308.477 205.798L301.861 196.766L290.74 197.975L297.346 207.002Z" fill="#FBFEFC"/>
<path d="M338.625 192.205L332.019 183.178L327.491 193.445L334.097 202.472L338.625 192.205Z" fill="#FBFEFC"/>
<path d="M331.28 182.178L324.678 173.141L320.16 183.387L326.752 192.445L331.28 182.178Z" fill="#FBFEFC"/>
<path d="M333.592 203.62L326.99 194.583L322.471 204.829L329.078 213.856L333.592 203.62Z" fill="#FBFEFC"/>
<path d="M300.168 175.249L311.299 174.044L306.771 184.311L295.64 185.516L300.168 175.249Z" fill="#FBFEFC"/>
<path d="M312.531 173.91L323.687 172.704L319.168 182.95L308.003 184.176L312.531 173.91Z" fill="#FBFEFC"/>
<path d="M295.136 186.659L306.271 185.444L301.752 195.691L290.621 196.895L295.136 186.659Z" fill="#FBFEFC"/>
<path d="M321.482 204.393L326.001 194.147L314.876 195.366L310.361 205.602L321.482 204.393Z" fill="#FBFEFC"/>
<path d="M302.734 196.123L309.35 205.155L313.865 194.919L307.252 185.877L302.734 196.123Z" fill="#FBFEFC"/>
<path d="M319.287 184.025L308.121 185.251L314.759 194.292L325.89 193.088L319.287 184.025Z" fill="#FBFEFC"/>
<path d="M375.485 245.713L376.26 238.869L363.827 233.385L359.192 238.527L348.791 233.94L381.321 200.033L388.978 203.409L385.865 250.291L375.485 245.713ZM378.65 217.158L370.267 226.328L377.304 229.432L378.65 217.158Z" fill="#FBFEFC"/>
<path d="M410.884 257.062C407.13 258.4 403.006 258.25 399.36 256.642C395.713 255.034 392.821 252.09 391.279 248.415C389.954 244.516 390.428 241.261 393.081 235.246C395.734 229.23 397.803 226.691 401.59 225.034C405.344 223.695 409.468 223.845 413.114 225.453C416.761 227.062 419.653 230.005 421.195 233.68C422.52 237.58 422.013 240.881 419.383 246.845C416.752 252.809 414.661 255.4 410.884 257.062ZM411.527 235.788C411.049 234.926 410.303 234.244 409.401 233.846C408.499 233.448 407.492 233.357 406.533 233.586C404.813 234.244 403.696 236.328 402.368 239.341C401.039 242.354 400.268 244.578 400.926 246.298C401.404 247.16 402.151 247.843 403.053 248.24C403.954 248.638 404.962 248.729 405.92 248.501C407.641 247.842 408.757 245.758 410.086 242.745C411.415 239.732 412.19 237.498 411.517 235.784L411.527 235.788Z" fill="#FBFEFC"/>
<path d="M439.403 256.646L433.336 253.971L426.965 268.417L417.039 264.039L434.855 223.642L450.859 230.7C459.805 234.646 461.835 243.121 458.905 249.766C455.974 256.411 448.36 260.596 439.403 256.646ZM446.481 239.369L440.868 236.894L437.25 245.097L442.863 247.572C443.412 247.914 444.027 248.134 444.668 248.217C445.309 248.3 445.96 248.244 446.577 248.054C447.195 247.863 447.764 247.542 448.247 247.112C448.729 246.683 449.114 246.155 449.375 245.563C449.635 244.972 449.766 244.332 449.758 243.686C449.75 243.04 449.603 242.403 449.327 241.818C449.051 241.234 448.653 240.716 448.16 240.298C447.667 239.881 447.089 239.575 446.467 239.4L446.481 239.369Z" fill="#FBFEFC"/>
<path d="M463.237 284.822C457.046 282.092 452.501 278.731 450.267 272.73L459.426 269.177C460.58 272.15 463.963 274.567 467.193 275.991C471.104 277.716 473.555 277.244 474.583 274.912C475.018 274.068 475.11 273.089 474.84 272.178C474.363 271.223 473.588 270.449 472.633 269.972L468.053 267.139C464.71 265.048 462.509 262.66 461.517 259.992C460.525 257.323 460.794 254.114 462.318 250.658C465.572 243.28 473.509 240.346 482.703 244.401C488.491 246.954 492.255 250.241 494.198 255.227L485.276 258.687C483.852 255.015 480.425 253.701 478.671 252.927C475.215 251.403 472.917 252.756 472.139 254.52C471.837 255.227 471.826 256.024 472.11 256.738C472.566 257.778 473.364 258.63 474.372 259.154L478.953 261.987C482.357 264.105 484.415 266.368 485.423 268.834C486.67 271.849 486.184 275.271 484.532 279.016C480.809 287.235 471.749 288.576 463.237 284.822Z" fill="#FBFEFC"/>
<path d="M368.419 280.05L226.791 232.474L415.311 315.025L368.419 280.05Z" fill="#FBFEFC"/>
</g>
<path d="M527.514 277.212L565.524 304.606L595.116 347.005L632.674 390.824L658.32 416.181L664.732 422.521L662.093 434.062L671.144 428.86L683.967 441.538L725.917 500.538L690.955 531.598L623.924 609.94L551.305 528.2L483.748 452.156L449.969 414.134L441.525 404.629L439.267 394.6L433.08 395.124L416.191 376.113L527.514 277.212Z" fill="black" stroke="#FBFEFC" stroke-width="5.29892"/>
<path d="M532.866 296.027L527.739 279.298L565.338 305.989L532.866 296.027Z" fill="#FBFEFC"/>
<path d="M509.801 366.405L513.875 370.8L492.103 390.827L488.029 386.432L509.801 366.405Z" fill="#FBFEFC"/>
<path d="M532.827 365.742L537.092 370.285L502.215 402.166L498.021 397.698L532.827 365.742Z" fill="#FBFEFC"/>
<path d="M543.004 377.194L547.269 381.738L512.392 413.618L508.198 409.15L543.004 377.194Z" fill="#FBFEFC"/>
<path d="M535.097 439.221L531.304 434.991L534.62 431.893L534.555 431.822C531.312 432.875 527.152 431.492 524.067 428.05C520.146 423.676 519.226 417.554 525.027 412.134L538.979 399.1L542.836 403.402L530.058 415.339C525.983 419.145 526.649 423.003 529.027 425.656C532.241 429.24 536.83 429.829 541.803 425.183L552.923 414.795L556.779 419.097L535.161 439.292L535.097 439.221Z" fill="#FBFEFC"/>
<path d="M561.061 424.109L564.625 428.102L561.254 431.272L561.317 431.344C563.007 430.542 568.04 430.793 571.603 434.787C574.531 438.067 575.191 441.643 573.849 445.527C577.801 444.566 581.786 446.196 584.141 448.834C590.25 455.68 586.966 461.784 582.15 466.313L569.627 478.088L565.872 473.881L577.845 462.623C581.147 459.518 583.47 456.023 579.778 451.887C576.087 447.751 572.004 448.706 568.151 452.329L556.385 463.392L552.566 459.114L563.851 448.503C567.91 444.686 570.296 441.262 566.668 437.198C563.932 434.131 559.312 433.492 554.427 438.086L543.211 448.631L539.52 444.495L561.061 424.109Z" fill="#FBFEFC"/>
<path d="M596.042 463.482L600.18 467.949L578.411 487.979L574.273 483.512L596.042 463.482Z" fill="#FBFEFC"/>
<path d="M605.192 473.776L608.985 478.006L605.669 481.103L605.734 481.175C608.977 480.122 613.137 481.505 616.222 484.947C620.143 489.321 621.063 495.443 615.262 500.863L601.31 513.897L597.453 509.595L610.231 497.658C614.306 493.852 613.64 489.994 611.262 487.341C608.048 483.756 603.459 483.168 598.486 487.814L587.366 498.202L583.51 493.9L605.128 473.705L605.192 473.776Z" fill="#FBFEFC"/>
<path d="M629.249 523.753L627.868 525.043C624.966 527.752 620.101 529.263 615.855 524.529C613.217 521.588 612.581 518.755 615.068 516.433C618.522 513.207 623.652 517.512 627.255 521.529L629.249 523.753ZM624.644 506.304C627.234 506.785 629.962 507.138 632.857 510.366C636.138 514.024 635.333 517.939 633.123 520.004L632.225 520.842L629.394 517.686C623.282 510.871 616.394 507.154 610.867 512.315C606.653 516.25 607.59 521.966 611.322 526.126C614.41 529.57 617.698 531.113 622.267 530.404L622.332 530.476C621.226 531.508 620.185 532.613 619.144 533.716L622.554 537.518C623.6 536.278 624.779 535.045 626.299 533.626L637.352 523.304C641.082 519.82 642.092 513.869 636.108 507.197C633.278 504.041 629.218 501.637 624.953 501.27L624.644 506.304Z" fill="#FBFEFC"/>
<path d="M522.525 359.259C521.115 357.685 518.72 357.559 517.202 358.979C515.684 360.4 515.595 362.85 517.004 364.424C518.413 365.999 520.809 366.125 522.327 364.705C523.845 363.284 523.934 360.834 522.525 359.259Z" fill="#FBFEFC"/>
<path d="M567.108 490.083L515.263 470.105L421.708 427.011L408.304 428.68L399.439 418.487L343.831 401.451L292.723 379.337L283.063 404.576L271.662 424.042L255.074 453.238L239.274 508.668L518.423 625.722L528.587 594.718L525.49 585.022L532.653 580.104L558.484 521.054L567.108 490.083Z" fill="black" stroke="#FBFEFC" stroke-width="5.29892"/>
<path d="M295.711 407.929L266.775 435.79L294.399 380.114L295.711 407.929Z" fill="#FBFEFC"/>
<g clip-path="url(#clip1_7123_8272)">
<path d="M339.919 521.102C339.741 520.977 339.577 520.821 339.383 520.732C336.529 519.414 333.897 517.74 331.426 515.807C327.315 512.592 323.875 508.763 321.072 504.372C316.311 496.917 313.639 488.777 313.13 479.947C312.879 475.594 313.268 471.294 314.314 467.06C314.919 464.605 315.824 462.256 316.893 459.97C319.866 453.61 324.038 448.155 329.497 443.742C339.422 435.721 350.769 432.239 363.521 433.437C366.259 433.693 368.941 434.251 371.579 435.038C373.613 435.645 375.619 436.332 377.547 437.217C383.206 439.814 388.223 443.319 392.439 447.916C399.186 455.275 403.177 463.916 404.394 473.815C405.04 479.065 404.744 484.272 403.544 489.424C403.137 491.171 402.67 492.9 402.016 494.572C401.474 495.961 400.976 497.372 400.337 498.717C397.968 503.71 394.849 508.187 390.862 512.031C383.319 519.304 374.333 523.59 363.912 524.839C358.982 525.431 354.085 525.165 349.23 524.105C346.978 523.614 344.773 522.974 342.63 522.123C342.371 522.02 342.088 521.979 341.816 521.908L339.918 521.103L339.919 521.102ZM335.76 454.977C336.354 455.496 336.923 456.49 337.209 457.48C337.728 459.276 337.516 461.003 336.639 462.632C336.336 463.195 336.394 463.637 336.723 464.14C337.47 465.28 338.368 466.284 339.37 467.201C340.808 468.516 342.371 469.645 344.192 470.387C344.479 470.504 344.712 470.534 344.969 470.317C345.933 469.504 346.621 468.501 347.023 467.314C347.233 466.696 347.368 466.052 347.551 465.366C348 465.892 348.357 466.431 348.595 467.028C348.833 467.625 349.046 468.241 349.18 468.868C349.311 469.487 349.328 470.13 349.398 470.793C349.533 470.778 349.642 470.793 349.722 470.751C350.255 470.471 350.824 470.234 351.302 469.878C352.833 468.74 353.582 467.087 354.107 465.329C354.551 463.839 354.762 462.301 354.836 460.746C354.843 460.599 354.88 460.454 354.91 460.26C355.045 460.366 355.133 460.419 355.201 460.491C356.241 461.581 357.103 462.794 357.716 464.174C359.228 467.577 359.405 471.115 358.76 474.724C358.663 475.266 358.769 475.6 359.197 475.962C360.842 477.356 361.935 479.119 362.573 481.177C362.721 481.654 362.642 482.001 362.329 482.383C360.968 484.043 359.441 485.529 357.738 486.833C352.926 490.516 347.499 492.402 341.417 492.354C339.332 492.338 337.271 492.092 335.243 491.603C334.768 491.488 334.371 491.504 334.06 491.922C334.013 491.986 333.944 492.033 333.888 492.091C331.348 494.688 329.33 497.61 328.198 501.099C327.709 502.604 327.429 504.14 327.329 505.715C327.306 506.082 327.404 506.376 327.662 506.645C328.109 507.111 328.519 507.612 328.966 508.077C330.975 510.168 333.264 511.918 335.648 513.552C335.974 513.776 336.305 513.991 336.765 514.297C337.189 511.82 337.704 509.491 338.647 507.282C339.596 505.059 340.803 502.987 342.21 500.981C342.241 501.074 342.27 501.114 342.262 501.145C341.828 502.847 341.578 504.58 341.427 506.327C341.127 509.764 341.288 513.174 342.073 516.546C342.168 516.956 342.352 517.206 342.754 517.374C344.19 517.974 345.633 518.541 347.131 518.975C349.288 519.6 351.475 520.051 353.704 520.303C353.894 520.324 354.086 520.324 354.352 520.337C354.307 519.998 354.279 519.743 354.238 519.49C353.488 514.832 353.203 510.156 353.657 505.45C353.875 503.191 354.26 500.963 354.9 498.777C354.948 498.934 354.962 499.091 354.977 499.247C355.438 503.939 356.288 508.554 357.766 513.042C358.57 515.484 359.581 517.835 360.918 520.04C361.147 520.418 361.402 520.551 361.849 520.508C365.954 520.114 369.929 519.16 373.807 517.784C373.988 517.72 374.156 517.62 374.315 517.544C374.294 517.438 374.297 517.393 374.277 517.361C374.201 517.243 374.122 517.125 374.035 517.015C371.205 513.398 369.087 509.405 367.699 505.031C366.822 502.269 366.266 499.445 366.131 496.545C366.125 496.408 366.148 496.269 366.158 496.13C366.547 496.877 366.827 497.633 367.157 498.367C369.071 502.624 371.679 506.417 374.889 509.803C376.21 511.196 377.625 512.488 379.117 513.695C379.685 514.154 379.689 514.154 380.265 513.652C380.554 513.4 380.841 513.147 381.118 512.882C383.933 510.199 386.408 507.251 388.3 503.832C389.201 502.201 389.923 500.503 390.419 498.709C390.459 498.567 390.432 498.406 390.436 498.258C384.524 497.185 379.202 494.928 374.449 491.196C375.981 491.637 377.418 492.085 378.874 492.464C381.661 493.189 384.497 493.546 387.382 493.447C389.103 493.389 390.808 493.219 392.433 492.588C393.778 492.066 394.945 491.314 395.762 490.087C396.035 489.678 396.088 489.343 395.79 488.883C394.976 487.631 394.226 486.338 393.455 485.058C393.324 484.84 393.214 484.609 393.063 484.324C393.199 484.372 393.262 484.38 393.309 484.411C394.579 485.268 395.849 486.127 397.116 486.988C397.749 487.418 397.838 487.418 398.436 486.943C398.831 486.629 398.859 486.601 398.67 486.131C398.255 485.101 397.854 484.063 397.377 483.063C395.296 478.705 392.496 474.847 389.135 471.387C385.405 467.547 381.152 464.401 376.351 462.036C374.526 461.137 372.598 460.44 370.693 459.713C368.672 458.941 366.561 458.478 364.441 458.066C363.913 457.964 363.386 457.858 362.818 457.745C362.93 457.588 362.991 457.483 363.069 457.395C365.348 454.849 368.636 453.797 372.212 454.923C373.063 455.191 373.05 455.209 373.622 454.541C377.075 450.511 382.175 448.83 387.642 450.547C388.071 450.682 388.505 450.798 388.937 450.923C388.961 450.888 388.986 450.852 389.011 450.816C388.909 450.681 388.82 450.535 388.706 450.412C385.292 446.748 381.232 443.972 376.752 441.784C375.793 441.315 374.8 440.908 373.802 440.525C372.654 440.084 371.491 439.681 370.321 439.3C367.934 438.522 365.479 438.055 362.988 437.779C359.902 437.438 356.822 437.478 353.749 437.914C353.528 437.945 353.259 437.891 353.117 438.104C354.306 439.285 355.51 440.414 356.635 441.617C357.772 442.834 358.723 444.199 359.48 445.694C359.38 445.683 359.312 445.646 359.253 445.598C357.949 444.568 356.529 443.72 355.048 442.98C353.542 442.228 351.954 441.695 350.309 441.341C347.011 440.631 343.769 440.819 340.593 441.976C338.077 442.892 335.913 444.412 333.753 445.938C333.664 446.001 333.604 446.106 333.477 446.254C334.737 446.451 335.931 446.594 337.105 446.833C338.289 447.074 339.471 447.354 340.621 447.721C341.792 448.095 342.948 448.542 344.064 449.057C345.161 449.564 346.203 450.189 347.262 450.775C348.36 451.381 349.821 452.445 350.099 452.794C348.814 452.378 347.481 451.909 346.126 451.517C343.531 450.768 340.876 450.424 338.175 450.474C333.429 450.563 329.119 451.959 325.291 454.772C324.988 454.994 324.701 455.269 324.488 455.575C323.443 457.081 322.509 458.653 321.665 460.284C320.727 462.099 319.961 463.979 319.319 465.914C319.28 466.033 319.301 466.172 319.29 466.367C320.418 465.858 321.462 465.338 322.544 464.912C323.631 464.485 324.743 464.103 325.868 463.789C326.994 463.476 328.144 463.231 329.296 463.033C330.438 462.836 331.595 462.736 332.923 462.571C332.755 462.293 332.619 462.113 332.531 461.913C331.978 460.656 331.995 459.382 332.59 458.165C333.214 456.889 334.214 455.921 335.4 455.147C335.514 455.073 335.648 455.031 335.761 454.978L335.76 454.977ZM344.303 476.692C344.701 475.761 344.597 474.864 344.028 474.035C343.333 473.022 342.339 472.626 341.14 472.859C340.181 473.046 339.477 473.586 339.12 474.515C339.572 474.896 343.74 476.647 344.302 476.692L344.303 476.692ZM380.743 456.044L380.742 456.046C381.354 456.306 381.962 456.573 382.577 456.823C383.041 457.011 383.119 456.962 383.229 456.469C383.483 455.331 382.843 454.102 381.762 453.655C380.667 453.203 379.289 453.638 378.68 454.63C378.486 454.945 378.512 455.084 378.856 455.238C379.479 455.52 380.113 455.777 380.743 456.044Z" fill="#FBFEFC"/>
<path d="M413.718 499.581C415.12 496.277 416.522 492.974 417.925 489.67C418.27 488.857 418.308 488.843 419.131 489.192C421.643 490.256 424.16 491.308 426.662 492.393C428.696 493.275 430.581 494.391 432.069 496.08C434.687 499.054 435.483 502.456 434.456 506.27C433.899 508.341 432.971 510.232 431.504 511.816C429.241 514.26 426.4 515.329 423.091 515.231C421.315 515.179 419.613 514.763 417.981 514.086C415.257 512.956 412.548 511.787 409.832 510.634C409.721 510.587 409.61 510.537 409.498 510.49C409.264 510.391 409.22 510.218 409.306 509.997C409.379 509.809 409.455 509.622 409.534 509.437C410.928 506.152 412.323 502.866 413.717 499.581L413.718 499.581ZM419.301 501.958L419.302 501.958C418.538 503.757 417.772 505.554 417.014 507.355C416.784 507.9 416.818 507.998 417.366 508.225C418.427 508.666 419.479 509.14 420.569 509.496C422.351 510.078 424.051 509.809 425.567 508.706C426.989 507.672 427.814 506.231 428.296 504.552C429.299 501.051 427.411 498.475 424.915 497.32C424.11 496.947 423.286 496.612 422.469 496.267C421.864 496.01 421.836 496.026 421.569 496.619C421.527 496.71 421.489 496.804 421.45 496.896C420.733 498.583 420.017 500.271 419.301 501.958Z" fill="#FBFEFC"/>
<path d="M477.319 520.338C476.91 522.322 476.17 523.93 474.173 524.588C473.686 524.748 473.426 525.032 473.222 525.494C472.402 527.351 470.935 528.354 468.927 528.577C467.745 528.708 466.603 528.503 465.469 528.163C464.376 527.836 463.358 527.364 462.407 526.742C462.152 526.575 461.955 526.633 461.769 526.839C461.496 527.14 461.457 527.572 461.746 527.885C461.944 528.1 462.205 528.285 462.473 528.402C464.064 529.1 465.674 529.757 467.26 530.465C467.902 530.752 468.531 531.09 469.112 531.484C470.719 532.574 471.78 534.515 470.703 537.008C469.872 538.933 468.413 540.022 466.335 540.282C464.845 540.469 463.39 540.239 461.979 539.788C460.924 539.451 459.878 539.06 458.873 538.597C457.481 537.956 456.115 537.246 454.978 536.188C454.64 535.873 454.322 535.529 454.044 535.161C452.586 533.227 453.559 530.543 455.958 529.884C456.225 529.811 456.495 529.75 456.837 529.665C456.312 528.462 456.195 527.303 456.82 526.141C457.447 524.973 458.467 524.421 459.804 524.228C459.728 523.984 459.688 523.795 459.613 523.621C458.397 520.795 460.288 516.325 464.461 516.202C465.525 516.171 466.565 516.313 467.559 516.651C469.151 517.194 470.663 517.901 471.924 519.066C472.734 519.815 473.674 520.353 474.764 520.606C475.392 520.752 476.005 520.707 476.618 520.539C476.824 520.482 477.029 520.422 477.319 520.338ZM462.285 533.369L462.288 533.362C461.49 533.023 460.69 532.685 459.893 532.345C459.337 532.108 458.969 532.271 458.803 532.852C458.691 533.241 458.728 533.629 459.009 533.932C459.254 534.194 459.528 534.443 459.829 534.634C460.963 535.351 462.202 535.838 463.495 536.171C463.913 536.278 464.374 536.286 464.807 536.245C465.188 536.208 465.46 535.935 465.543 535.539C465.622 535.159 465.456 534.867 465.149 534.659C464.967 534.536 464.769 534.43 464.568 534.343C463.809 534.013 463.046 533.693 462.285 533.369ZM465.804 524.3C465.856 524.319 465.967 524.369 466.083 524.403C467.07 524.688 468.014 524.293 468.5 523.395C468.92 522.62 468.735 521.642 468.05 521.022C467.549 520.57 466.959 520.333 466.285 520.34C465.489 520.348 464.888 520.701 464.539 521.425C463.984 522.581 464.48 523.743 465.804 524.3Z" fill="#FBFEFC"/>
<path d="M423.062 477.439C423.217 477.738 423.311 477.91 423.397 478.086C424.46 480.266 426.029 481.993 428.122 483.217C428.83 483.63 429.582 484.009 430.428 484.088C431.24 484.164 431.78 483.862 432.112 483.185C432.374 482.65 432.361 482.129 432.008 481.644C431.807 481.369 431.582 481.106 431.339 480.867C430.287 479.837 429.227 478.815 428.165 477.796C427.203 476.873 426.424 475.829 426.039 474.538C425.49 472.697 425.753 470.946 426.719 469.306C428.2 466.791 430.507 465.808 433.332 465.849C434.635 465.867 435.881 466.166 437.093 466.66C438.543 467.252 439.928 467.951 441.06 469.046C441.695 469.659 442.235 470.369 442.812 471.041C442.999 471.258 443.025 471.49 442.905 471.767C442.202 473.396 441.513 475.031 440.817 476.662C440.796 476.711 440.747 476.748 440.681 476.825C440.592 476.689 440.514 476.58 440.446 476.464C439.345 474.568 437.815 473.112 435.908 472.045C435.406 471.765 434.857 471.634 434.28 471.652C433.195 471.685 432.701 472.828 433.157 473.614C433.306 473.872 433.497 474.115 433.708 474.327C434.759 475.387 435.844 476.414 436.872 477.495C437.382 478.032 437.863 478.621 438.242 479.254C439.251 480.936 439.321 482.725 438.659 484.547C438.286 485.574 437.811 486.546 437.073 487.375C435.517 489.126 433.535 489.838 431.234 489.769C429.932 489.731 428.691 489.416 427.463 488.98C425.723 488.363 424.185 487.436 422.856 486.167C422.048 485.396 421.384 484.507 420.896 483.497C420.781 483.26 420.681 483.032 420.803 482.75C421.544 481.029 422.272 479.303 423.064 477.438L423.062 477.439Z" fill="#FBFEFC"/>
<path d="M418.664 538.409L416.567 543.347C416.087 543.288 398.531 535.887 397.607 535.354C397.834 535.185 398.033 535.03 398.237 534.883C403.403 531.154 408.572 527.427 413.737 523.697C413.944 523.548 414.135 523.38 414.431 523.143C414.125 522.996 413.921 522.888 413.71 522.798C411.182 521.722 408.652 520.65 406.123 519.576C405.62 519.362 405.477 518.995 405.696 518.476C406.175 517.344 406.655 516.212 407.137 515.08C407.489 514.254 407.525 514.238 408.335 514.581C410.846 515.645 413.356 516.712 415.867 517.778C418.899 519.065 421.93 520.352 424.961 521.639L425.675 521.942C422.803 524.042 420.042 526.057 417.284 528.077C414.527 530.095 411.76 532.101 408.891 534.219C409.631 534.606 410.269 534.837 410.888 535.106C411.536 535.389 412.189 535.661 412.84 535.937L416.69 537.571C417.32 537.839 417.95 538.106 418.663 538.409L418.664 538.409Z" fill="#FBFEFC"/>
<path d="M432.043 531.434C434.517 532.5 436.21 533.818 437.318 535.797C438.418 537.763 438.588 539.835 437.998 541.996C437.637 543.318 437.045 544.513 436.202 545.588C434.899 547.248 433.197 548.245 431.116 548.584C427.31 549.207 422.962 547.259 420.926 543.986C419.551 541.776 419.345 539.413 420.168 536.961C420.561 535.791 421.072 534.674 421.873 533.717C423.783 531.437 426.258 530.53 429.19 530.772C430.324 530.866 431.415 531.144 432.042 531.433L432.043 531.434ZM426.13 538.381C425.892 539.008 425.749 539.631 425.793 540.288C425.875 541.528 426.481 542.393 427.636 542.892C428.812 543.401 429.89 543.269 430.845 542.431C431.697 541.684 432.153 540.718 432.257 539.585C432.357 538.497 431.985 537.21 430.38 536.512C428.964 535.896 427.739 536.305 426.916 537.252C426.617 537.596 426.391 538.003 426.131 538.381L426.13 538.381Z" fill="#FBFEFC"/>
<path d="M491.686 536.307C491.21 537.511 490.511 538.559 489.578 539.447C487.741 541.197 485.521 541.876 483.026 541.66C480.644 541.455 478.521 540.57 476.75 538.956C474.199 536.632 473.292 533.786 474.176 530.418C474.527 529.075 475.125 527.856 475.991 526.771C477.324 525.102 479.063 524.134 481.168 523.819C484.885 523.263 489.198 525.215 491.22 528.385C492.442 530.302 492.773 532.383 492.241 534.588C492.1 535.172 491.873 535.735 491.686 536.307L491.686 536.307ZM486.103 533.976C486.209 533.462 486.365 532.977 486.4 532.483C486.503 531.047 485.774 530.053 484.548 529.519C483.22 528.941 481.992 529.231 481.069 530.233C480.377 530.983 480.009 531.886 479.94 532.905C479.852 534.214 480.503 535.32 481.653 535.834C483.015 536.443 484.241 536.258 485.193 535.24C485.544 534.864 485.802 534.401 486.103 533.976Z" fill="#FBFEFC"/>
<path d="M438.577 543.717C439.528 541.456 441.07 539.784 443.401 538.915C445.075 538.291 446.801 538.241 448.526 538.637C450.696 539.135 452.628 540.114 454.147 541.774C456.283 544.106 456.893 546.802 456.018 549.849C455.563 551.436 454.783 552.825 453.633 553.988C451.986 555.654 449.942 556.428 447.616 556.362C444.688 556.278 442.133 555.213 440.113 553.076C437.804 550.631 437.207 547.764 438.267 544.57C438.362 544.283 438.474 544.002 438.577 543.718L438.577 543.717ZM445.616 550.519C447.021 551.19 448.432 550.609 449.203 549.654C449.722 549.012 450.073 548.301 450.183 547.484C450.397 545.888 449.753 544.74 448.314 544.127C446.742 543.459 445.458 544.06 444.66 545.12C444.277 545.629 444.018 546.195 443.864 546.798C443.431 548.487 444.17 549.982 445.616 550.519Z" fill="#FBFEFC"/>
<path d="M455.324 495.407C455.063 496.913 453.367 498.516 451.844 498.735C450.72 498.896 449.74 498.484 448.781 497.987C447.957 497.559 447.594 497.08 446.858 495.495C446.751 495.512 446.63 495.514 446.52 495.551C445.26 495.978 444.011 495.858 442.781 495.439C441.669 495.059 440.593 494.605 439.727 493.763C438.493 492.562 437.828 491.136 438.155 489.406C438.57 487.21 440.16 485.872 442.192 485.522C443.423 485.31 444.646 485.401 445.857 485.664C447 485.911 448.137 486.185 449.277 486.442C449.431 486.477 449.592 486.482 449.771 486.503C450.015 486.057 449.86 485.659 449.683 485.28C449.402 484.675 448.93 484.215 448.359 483.904C446.533 482.907 444.597 482.461 442.523 482.911C442.076 483.008 441.642 483.17 441.099 483.332C441.355 482.865 441.552 482.457 441.79 482.075C443.363 479.552 445.874 478.513 448.815 479.144C450.605 479.528 452.222 480.272 453.615 481.46C455.414 482.995 456.074 484.964 455.653 487.268C455.513 488.034 455.253 488.786 454.971 489.515C454.536 490.643 454.036 491.746 453.564 492.859C453.501 493.007 453.432 493.154 453.381 493.307C453.07 494.222 453.498 495.024 454.441 495.267C454.729 495.341 455.029 495.362 455.324 495.407ZM448.493 489.791C447.464 489.544 446.55 489.321 445.598 489.321C445.479 489.322 445.361 489.361 445.244 489.391C444.711 489.529 444.446 489.92 444.338 490.418C444.233 490.897 444.422 491.313 444.806 491.586C445.576 492.13 446.424 492.289 447.323 491.933C447.465 491.877 447.633 491.773 447.693 491.646C447.965 491.069 448.202 490.475 448.493 489.791Z" fill="#FBFEFC"/>
<path d="M466.822 487.075C466.597 487.682 466.411 488.181 466.174 488.818C466.468 488.711 466.611 488.668 466.746 488.608C468.684 487.744 470.552 487.964 472.375 488.967C473.109 489.371 473.758 489.875 474.264 490.546C475.328 491.957 475.488 493.54 475.09 495.203C474.955 495.767 474.756 496.322 474.531 496.858C473.266 499.869 471.984 502.873 470.708 505.88L470.437 506.517C469.922 506.507 465.678 504.75 465.053 504.297C465.127 504.094 465.197 503.869 465.288 503.653C466.35 501.147 467.416 498.642 468.476 496.136C468.586 495.877 468.703 495.613 468.756 495.34C469.029 493.925 468.137 492.779 466.641 492.603C465.563 492.475 464.236 493.133 463.806 494.224C462.836 496.68 461.761 499.094 460.729 501.525C460.666 501.674 460.608 501.825 460.536 501.969C460.356 502.327 460.287 502.373 459.926 502.222C458.416 501.591 456.912 500.944 455.405 500.307C455.13 500.19 455.046 500.004 455.161 499.728C455.223 499.578 455.281 499.428 455.345 499.28C457.275 494.733 459.205 490.186 461.135 485.639C461.37 485.086 461.76 484.925 462.306 485.157C463.589 485.701 464.872 486.246 466.155 486.791C466.355 486.875 466.554 486.96 466.823 487.074L466.822 487.075Z" fill="#FBFEFC"/>
<path d="M457.018 522.298C456.77 522.193 456.531 522.091 456.292 521.99C453.576 520.837 450.861 519.682 448.143 518.534C447.891 518.427 447.624 518.358 447.349 518.267C447.144 518.623 447.152 518.94 447.189 519.259C447.268 519.945 447.59 520.519 448.026 521.04C448.592 521.715 449.284 522.248 450.056 522.644C451.463 523.367 452.93 523.941 454.533 524.045C455.032 524.077 455.535 524.052 456.077 524.053C456.015 524.571 455.672 524.95 455.39 525.341C454.1 527.133 452.309 527.909 450.136 527.71C447.542 527.471 445.259 526.448 443.368 524.653C441.394 522.778 440.629 520.447 441.1 517.773C441.516 515.414 442.521 513.322 444.311 511.684C446.393 509.78 448.843 509.237 451.57 509.904C453.036 510.262 454.393 510.867 455.569 511.835C457.206 513.184 458.051 514.931 458.184 517.03C458.286 518.648 457.923 520.191 457.391 521.702C457.344 521.835 457.282 521.963 457.217 522.088C457.191 522.138 457.138 522.175 457.019 522.298L457.018 522.298ZM448.641 515.238C450.019 515.832 451.412 516.427 452.797 516.999C453.306 516.28 453.335 515.408 452.916 514.74C452.43 513.962 451.294 513.479 450.338 513.642C449.514 513.783 448.837 514.392 448.642 515.238L448.641 515.238Z" fill="#FBFEFC"/>
<path d="M436.627 521.975L431.457 519.78C431.434 519.722 431.425 519.704 431.419 519.685C431.414 519.667 431.404 519.644 431.41 519.627C431.466 519.456 431.513 519.282 431.584 519.116C433.625 514.31 435.669 509.504 437.715 504.699C437.737 504.648 437.794 504.612 437.83 504.573C438.292 504.635 442.472 506.377 443.06 506.749C443.071 506.772 443.081 506.79 443.087 506.809C443.093 506.828 443.102 506.85 443.097 506.867C443.041 507.038 442.993 507.213 442.923 507.379C440.881 512.185 438.837 516.991 436.791 521.795C436.77 521.846 436.713 521.883 436.627 521.975L436.627 521.975Z" fill="#FBFEFC"/>
<path d="M445.258 502.255C444.818 503.554 443.16 504.51 441.316 503.697C439.673 502.973 439.01 501.405 439.703 499.825C440.399 498.239 441.994 497.642 443.634 498.329C445.394 499.067 445.948 500.883 445.258 502.255Z" fill="#FBFEFC"/>
<path d="M379.745 473.12L373.016 470.264C373.137 470.013 373.209 469.762 373.357 469.569C374.387 468.219 376.253 467.708 377.86 468.464C379.396 469.187 380.276 470.816 379.958 472.49C379.922 472.681 379.834 472.862 379.745 473.121L379.745 473.12Z" fill="#FBFEFC"/>
</g>
<path d="M117.799 188.298L151.368 199.787L189.67 208.714L248.795 227.462L349.808 261.64L401.243 273.772L394.728 296.709L382.956 304.933L384.607 313.665L362.051 402.281L303.85 408.884L250.216 391.17L169.039 370.234L71.1918 342.44L87.0805 288.642L99.3816 282.221L95.1166 260.352L117.799 188.298Z" fill="black" stroke="#FBFEFC" stroke-width="5.29892"/>
<g clip-path="url(#clip2_7123_8272)">
<path d="M219.602 309.042C216.949 318.381 207.688 323.188 198.721 320.641C189.755 318.094 184.404 309.136 187.057 299.797C189.728 290.392 198.971 285.651 207.937 288.198C216.903 290.745 222.273 299.637 219.602 309.042ZM212.478 307.018C214.136 301.182 211.036 295.986 206.121 294.59C201.207 293.194 195.838 295.984 194.18 301.82C192.539 307.598 195.622 312.853 200.537 314.249C205.452 315.645 210.839 312.789 212.478 307.018Z" fill="#FBFEFC"/>
<path d="M254.707 319.013C252.054 328.352 242.793 333.159 233.826 330.612C224.86 328.065 219.509 319.107 222.162 309.768C224.831 300.37 234.076 295.622 243.042 298.169C252.008 300.716 257.378 309.608 254.707 319.013ZM247.583 316.989C249.241 311.153 246.141 305.957 241.226 304.561C236.312 303.165 230.943 305.955 229.285 311.792C227.644 317.569 230.727 322.824 235.642 324.22C240.557 325.616 245.944 322.76 247.583 316.989Z" fill="#FBFEFC"/>
<path d="M292.679 313.33L284.407 342.452C281.004 354.432 272.549 357.318 264.197 354.945C256.335 352.712 253.097 346.109 252.534 341.302L259.469 340.482C259.824 343.436 261.645 347.32 266.003 348.558C271.349 350.077 275.599 347.72 277.363 341.511L278.026 339.178L277.777 339.107C275.624 340.621 272.064 341.467 268.188 340.366C260.077 338.063 254.654 328.887 257.236 319.796C259.837 310.64 269.291 305.627 277.402 307.931C281.271 309.03 283.854 311.621 284.913 313.985L285.162 314.056L285.912 311.416L292.677 313.337L292.679 313.33ZM282.073 326.851C283.695 321.14 281.071 315.881 276.222 314.504C271.308 313.108 266.004 316.114 264.381 321.826C262.775 327.479 265.723 332.766 270.638 334.163C275.487 335.54 280.467 332.505 282.073 326.851Z" fill="#FBFEFC"/>
<path d="M308.681 299.426L295.177 346.964L288.23 344.99L301.733 297.453L308.681 299.426Z" fill="#FBFEFC"/>
<path d="M325.06 344.767L329.542 350.023C327.008 352.157 321.415 355.484 313.985 353.373C304.77 350.756 299.911 341.678 302.496 332.58C305.236 322.933 314.044 318.33 322.403 320.704C330.821 323.096 333.036 330.964 333.353 334.967L333.568 337.02L309.332 339.841C310.068 343.567 312.178 345.96 315.798 346.989C319.426 348.019 322.449 346.949 325.06 344.767ZM309.7 334.096L325.905 332.195C325.683 329.943 323.685 327.85 320.862 327.048C317.242 326.02 311.295 327.784 309.7 334.096Z" fill="#FBFEFC"/>
<path d="M161.957 288.107L163.912 281.225L187.103 287.813C186.989 289.077 186.703 290.529 186.266 292.065C184.8 297.228 181.574 303.212 175.733 306.468C170 309.819 163.649 310.67 156.16 308.543C142.279 304.6 133.818 289.978 137.761 276.097C141.704 262.216 156.588 254.225 170.469 258.168C178.148 260.349 182.763 264.916 185.757 270.011L179.522 273.488C177.36 269.886 173.977 266.602 168.507 265.048C158.371 262.168 148.122 268.086 145.243 278.222C142.363 288.358 147.971 298.78 158.107 301.659C164.682 303.527 169.176 301.95 172.257 300.233C174.755 298.84 176.824 296.424 178.407 292.772L161.957 288.107Z" fill="#FBFEFC"/>
</g>
<path d="M303.085 408.667L362.14 401.48L315.492 382.445L303.085 408.667Z" fill="#FBFEFC"/>
<path d="M207.16 222.773L142.248 198.219L189.562 210.338L252.348 229.495L207.16 222.773Z" fill="#FBFEFC"/>
<defs>
<clipPath id="clip0_7123_8272">
<rect width="302.039" height="171.685" fill="white" transform="translate(287.998 78.127) rotate(23.7987)"/>
</clipPath>
<clipPath id="clip1_7123_8272">
<rect width="190.761" height="91.9331" fill="white" transform="translate(334.314 418.849) rotate(23.0015)"/>
</clipPath>
<clipPath id="clip2_7123_8272">
<rect width="206.796" height="69.9458" fill="white" transform="translate(144.752 250.49) rotate(15.8579)"/>
>>>>>>> develop
</clipPath>
</defs>
</svg>