<svg width="271" height="192" viewBox="0 0 271 192" fill="none" xmlns="http://www.w3.org/2000/svg">
<path d="M241.199 164.158L252.011 19.0702L186.733 14.2052L182.069 3.16631L110.927 3.16265L105.872 8.17894L12.1969 1.1977L1.38403 146.286L241.199 164.158Z" stroke="#FBFEFC" stroke-width="2"/>
<rect x="32.2061" y="9.99561" width="240.48" height="146.693" transform="rotate(8.00997 32.2061 9.99561)" fill="black"/>
<rect x="78.2051" y="11.0034" width="150.901" height="6.61319" transform="rotate(8.00997 78.2051 11.0034)" fill="black"/>
<rect x="57.2617" y="159.839" width="150.901" height="6.61319" transform="rotate(8.00997 57.2617 159.839)" fill="black"/>
<path d="M226.796 37.991L244.953 40.5462L249.423 43.2996L252.99 41.6771L269.66 44.0228L249.386 188.093L206.522 182.061M77.3668 16.9637L32.7168 10.6802L12.4434 154.751L57.0934 161.034" stroke="#FBFEFC" stroke-width="2"/>
<path d="M83.3091 71.4749C83.25 70.8849 83.1971 70.2958 83.1506 69.7076C83.1059 69.1067 83.0676 68.5067 83.0355 67.9076C83.0035 67.3085 82.9715 66.7094 82.9394 66.1103C82.9201 65.513 82.9071 64.9165 82.9004 64.321C82.8937 63.7254 82.8997 63.1317 82.9184 62.5397C82.9388 61.9351 82.9901 61.3412 83.0721 60.7582L83.5644 57.2598L85.4847 57.53L84.9924 61.0284C84.798 62.41 84.648 63.7978 84.5423 65.1919C84.451 66.575 84.3652 67.9655 84.2849 69.3631L86.2001 63.3311L87.3409 63.4917L87.5171 69.8179C87.8256 68.4524 88.1205 67.0914 88.4018 65.735C88.6977 64.3677 88.9428 62.9932 89.1372 61.6116L89.6295 58.1133L91.5497 58.3835L91.0575 61.8818C90.9754 62.4649 90.8608 63.0498 90.7136 63.6366C90.5682 64.2108 90.4101 64.7831 90.2393 65.3537C90.0685 65.9243 89.8851 66.4931 89.689 67.0601C89.5055 67.6288 89.3157 68.1967 89.1196 68.7637C88.9235 69.3307 88.721 69.8969 88.5122 70.4621C88.3052 71.0146 88.0918 71.5663 87.8722 72.117L86.7314 71.9565L86.5377 65.0655L84.4499 71.6355L83.3091 71.4749ZM95.0756 73.2858C94.7333 73.2376 94.3956 73.1578 94.0623 73.0463C93.729 72.9347 93.4218 72.7752 93.1408 72.5676C92.8598 72.36 92.6167 72.1125 92.4115 71.8251C92.2208 71.5268 92.0717 71.2086 91.9642 70.8703C91.8694 70.5338 91.8143 70.19 91.7991 69.8388C91.7966 69.4895 91.8194 69.1437 91.8676 68.8014L92.1886 66.5199C92.2368 66.1777 92.3103 65.839 92.4091 65.5039C92.5207 65.1706 92.6684 64.8553 92.8525 64.5581C93.0491 64.2626 93.2794 64.0042 93.5432 63.7828C93.8215 63.5505 94.1243 63.3733 94.4517 63.2514C94.7791 63.1294 95.1184 63.0608 95.4695 63.0456C95.8207 63.0304 96.1674 63.0468 96.5096 63.095C96.8518 63.1432 97.1896 63.223 97.5229 63.3345C97.8562 63.4461 98.1634 63.6056 98.4444 63.8132C98.7254 64.0208 98.9613 64.2737 99.152 64.572C99.3571 64.8594 99.5071 65.1714 99.602 65.5078C99.7095 65.8461 99.7645 66.19 99.767 66.5393C99.7823 66.8905 99.7658 67.2371 99.7176 67.5794L99.4394 69.5567L93.8116 68.7648L93.7688 69.069C93.7296 69.3478 93.7157 69.6302 93.7272 69.9162C93.7513 70.204 93.8297 70.4736 93.9624 70.7249C94.0968 70.9636 94.2819 71.1641 94.5175 71.3265C94.7677 71.4781 95.0322 71.5734 95.311 71.6127C95.5265 71.643 95.7383 71.6534 95.9465 71.6439C96.1673 71.6362 96.3745 71.5878 96.568 71.4987C96.7632 71.3969 96.925 71.2581 97.0531 71.0823C97.1939 70.9082 97.2859 70.7143 97.3289 70.5006L99.2301 70.7682C99.1873 71.0724 99.101 71.364 98.9713 71.643C98.8415 71.9221 98.6701 72.1759 98.457 72.4044C98.2456 72.6202 98.0007 72.7991 97.7223 72.9408C97.4565 73.0844 97.1761 73.1936 96.8812 73.2684C96.5881 73.3306 96.2867 73.3593 95.9772 73.3545C95.6676 73.3497 95.3671 73.3268 95.0756 73.2858ZM97.7736 67.616L97.8164 67.3118C97.8556 67.033 97.8631 66.7497 97.839 66.4619C97.8149 66.1741 97.7356 65.9109 97.6011 65.6722C97.4811 65.4227 97.2961 65.2221 97.0459 65.0706C96.8103 64.9082 96.553 64.8074 96.2742 64.7681C95.9953 64.7289 95.7139 64.7539 95.4299 64.8432C95.1603 64.9216 94.9271 65.0633 94.7302 65.2683C94.5478 65.4623 94.4053 65.6943 94.3027 65.9643C94.2 66.2342 94.1291 66.5086 94.0899 66.7874L94.0471 67.0917L97.7736 67.616ZM103.726 74.5031C103.422 74.4603 103.125 74.3668 102.835 74.2226C102.543 74.0911 102.291 73.9133 102.076 73.6893C101.877 73.4544 101.713 73.1922 101.586 72.9029C101.473 72.6026 101.393 72.3005 101.345 71.9965C101.298 71.6925 101.276 71.3857 101.281 71.0761C101.3 70.7557 101.331 70.4433 101.374 70.1391L101.695 67.8576C101.738 67.5534 101.793 67.251 101.861 66.9504C101.944 66.6388 102.05 66.3436 102.18 66.0645C102.31 65.7855 102.469 65.5236 102.659 65.2788C102.863 65.0231 103.092 64.8163 103.347 64.6583C103.617 64.4893 103.91 64.3819 104.226 64.336C104.545 64.2774 104.856 64.2695 105.16 64.3123C105.439 64.3516 105.706 64.4279 105.962 64.5414C106.232 64.6441 106.469 64.7938 106.674 64.9907C106.879 65.1876 107.041 65.4171 107.159 65.6794C107.292 65.9307 107.397 66.1911 107.476 66.4607L108.281 60.7379L110.182 61.0054L108.216 74.9797L106.314 74.7122L106.545 73.0771C106.395 73.3146 106.221 73.5421 106.022 73.7597C105.838 73.9665 105.62 74.1362 105.369 74.2689C105.117 74.4016 104.848 74.48 104.56 74.5041C104.283 74.5427 104.005 74.5424 103.726 74.5031ZM104.741 72.9397C105.02 72.9789 105.288 72.9585 105.545 72.8783C105.816 72.7872 106.044 72.6383 106.228 72.4315C106.412 72.2248 106.549 71.9919 106.637 71.7329C106.739 71.4629 106.81 71.1885 106.85 70.9097L107.171 68.6281C107.21 68.3493 107.216 68.0723 107.191 67.7972C107.179 67.5112 107.113 67.2435 106.993 66.9939C106.873 66.7444 106.695 66.5447 106.457 66.395C106.234 66.2343 105.983 66.1344 105.704 66.0951C105.426 66.0559 105.151 66.0818 104.879 66.1729C104.622 66.2531 104.402 66.3965 104.218 66.6033C104.033 66.81 103.89 67.0484 103.787 67.3183C103.699 67.5774 103.635 67.8463 103.596 68.1252L103.275 70.4067C103.236 70.6855 103.222 70.968 103.233 71.2539C103.259 71.529 103.332 71.7914 103.452 72.0409C103.572 72.2905 103.744 72.4956 103.967 72.6562C104.204 72.806 104.462 72.9005 104.741 72.9397ZM114.088 75.9612C113.86 75.9291 113.631 75.8581 113.401 75.7482C113.182 75.6527 113.001 75.511 112.86 75.323C112.718 75.135 112.625 74.9216 112.581 74.6828C112.55 74.4457 112.551 74.2068 112.585 73.9659C112.617 73.7378 112.681 73.5141 112.777 73.2948C112.887 73.0647 113.035 72.8789 113.223 72.7373C113.411 72.5957 113.624 72.5093 113.861 72.478C114.113 72.4358 114.352 72.4308 114.581 72.4629C114.809 72.495 115.031 72.5651 115.249 72.6733C115.481 72.7706 115.668 72.9132 115.809 73.1011C115.951 73.2891 116.036 73.508 116.066 73.7577C116.11 73.9966 116.116 74.2301 116.084 74.4582C116.05 74.699 115.979 74.9282 115.87 75.1456C115.775 75.3649 115.633 75.5453 115.445 75.6869C115.257 75.8284 115.039 75.914 114.789 75.9435C114.55 75.9874 114.316 75.9933 114.088 75.9612ZM129.51 77.9762L131.476 64.0019L133.454 64.2802L135.625 75.7151C135.65 75.2662 135.662 74.8154 135.661 74.3629C135.672 73.9121 135.69 73.4622 135.715 73.0132C135.752 72.566 135.795 72.1197 135.845 71.6743C135.895 71.2289 135.951 70.7844 136.013 70.3408L136.8 64.751L138.701 65.0186L136.735 78.9929L134.757 78.7147L132.586 67.2797C132.561 67.7286 132.543 68.1785 132.531 68.6293C132.532 69.0818 132.514 69.5317 132.477 69.9789C132.453 70.4279 132.416 70.8751 132.366 71.3205C132.316 71.7659 132.26 72.2104 132.198 72.654L131.411 78.2438L129.51 77.9762ZM142.607 79.9744C142.265 79.9262 141.927 79.8464 141.594 79.7348C141.261 79.6233 140.953 79.4638 140.672 79.2562C140.391 79.0486 140.148 78.8011 139.943 78.5137C139.753 78.2154 139.603 77.8971 139.496 77.5589C139.401 77.2224 139.346 76.8785 139.331 76.5274C139.328 76.178 139.351 75.8322 139.399 75.49L139.72 73.2085C139.768 72.8663 139.842 72.5276 139.941 72.1925C140.052 71.8592 140.2 71.5439 140.384 71.2467C140.581 70.9512 140.811 70.6927 141.075 70.4713C141.353 70.2391 141.656 70.0619 141.983 69.94C142.311 69.818 142.65 69.7494 143.001 69.7342C143.352 69.719 143.699 69.7354 144.041 69.7836C144.384 69.8317 144.721 69.9116 145.055 70.0231C145.388 70.1347 145.695 70.2942 145.976 70.5018C146.257 70.7094 146.493 70.9623 146.684 71.2606C146.889 71.548 147.039 71.8599 147.134 72.1964C147.241 72.5347 147.296 72.8785 147.299 73.2279C147.314 73.579 147.297 73.9257 147.249 74.268L146.928 76.5495C146.88 76.8917 146.8 77.2295 146.689 77.5628C146.59 77.8979 146.442 78.2132 146.245 78.5086C146.061 78.8059 145.83 79.0707 145.552 79.303C145.288 79.5244 144.993 79.696 144.665 79.818C144.338 79.94 143.998 80.0086 143.647 80.0238C143.296 80.039 142.949 80.0225 142.607 79.9744ZM142.843 78.3013C143.122 78.3405 143.396 78.3209 143.665 78.2425C143.949 78.1532 144.183 78.0115 144.365 77.8175C144.562 77.6125 144.712 77.3751 144.814 77.1051C144.917 76.8352 144.988 76.5608 145.027 76.2819L145.348 74.0004C145.387 73.7216 145.395 73.4383 145.371 73.1505C145.347 72.8627 145.267 72.5995 145.133 72.3608C145.013 72.1113 144.828 71.9107 144.578 71.7592C144.342 71.5968 144.085 71.4959 143.806 71.4567C143.527 71.4175 143.246 71.4425 142.962 71.5318C142.692 71.6102 142.459 71.7519 142.262 71.9568C142.079 72.1509 141.937 72.3829 141.834 72.6529C141.732 72.9228 141.661 73.1972 141.622 73.476L141.301 75.7576C141.261 76.0364 141.254 76.3197 141.278 76.6075C141.302 76.8953 141.374 77.1639 141.494 77.4135C141.629 77.6521 141.814 77.8527 142.049 78.0151C142.299 78.1666 142.564 78.262 142.843 78.3013ZM151.032 81.0048C150.91 80.4964 150.788 79.988 150.665 79.4796C150.556 78.973 150.446 78.4663 150.336 77.9597C150.241 77.4422 150.145 76.931 150.048 76.4262C149.965 75.9105 149.889 75.3956 149.819 74.8817C149.764 74.3568 149.721 73.8338 149.691 73.3125C149.674 72.793 149.702 72.2734 149.775 71.7537L149.914 70.7651L151.815 71.0326L151.676 72.0213C151.585 72.6677 151.558 73.3167 151.596 73.9683C151.633 74.6199 151.685 75.2669 151.749 75.9094C151.827 76.5537 151.91 77.1989 152 77.8449C152.103 78.4927 152.213 79.1351 152.33 79.7721C152.619 79.1922 152.895 78.6042 153.16 78.0081C153.438 77.4138 153.696 76.8168 153.936 76.2171C154.188 75.6192 154.422 75.0123 154.638 74.3964C154.854 73.7805 155.007 73.1493 155.098 72.5029L155.237 71.5142L157.139 71.7817L157 72.7704C156.926 73.2901 156.803 73.7963 156.631 74.289C156.471 74.7835 156.285 75.2745 156.074 75.7619C155.878 76.2384 155.663 76.7122 155.428 77.1833C155.209 77.6436 154.975 78.1084 154.728 78.5777C154.496 79.0362 154.25 79.4929 153.992 79.9478C153.747 80.4045 153.496 80.8603 153.238 81.3152L151.032 81.0048ZM170.767 83.7819L172.456 71.7849L169.899 73.4222L169.003 72.2103L172.734 69.8076L174.635 70.0751L172.669 84.0495L170.767 83.7819ZM180.69 85.3333C180.36 85.2869 180.034 85.2152 179.712 85.1181C179.389 85.021 179.086 84.8814 178.801 84.6991C178.518 84.5042 178.265 84.2812 178.042 84.0301C177.834 83.768 177.667 83.4796 177.544 83.1649C177.432 82.852 177.355 82.5308 177.311 82.2015C177.281 81.8612 177.289 81.5263 177.336 81.1968L177.352 81.0827L179.253 81.3502L179.245 81.4073C179.208 81.6734 179.215 81.9395 179.268 82.2055C179.321 82.4715 179.423 82.712 179.574 82.9271C179.725 83.1422 179.921 83.312 180.162 83.4364C180.404 83.5481 180.659 83.6227 180.925 83.6602C181.204 83.6994 181.484 83.687 181.764 83.6231C182.046 83.5465 182.285 83.412 182.48 83.2197C182.69 83.0166 182.852 82.7809 182.967 82.5127C183.083 82.2446 183.16 81.9711 183.199 81.6922C183.233 81.4514 183.241 81.2133 183.222 80.9781C183.205 80.7301 183.155 80.4904 183.071 80.2588C182.987 80.0273 182.868 79.8167 182.714 79.6269C182.573 79.4389 182.401 79.2791 182.2 79.1474C181.999 79.0157 181.78 78.9202 181.542 78.8609C181.305 78.8017 181.066 78.7551 180.825 78.7212L181.061 77.0481C181.276 77.0785 181.493 77.0961 181.712 77.1011C181.931 77.106 182.142 77.0775 182.345 77.0156C182.56 76.9554 182.755 76.8599 182.928 76.7292C183.103 76.5859 183.249 76.4254 183.364 76.2477C183.494 76.0592 183.593 75.8599 183.662 75.6497C183.743 75.4414 183.798 75.2295 183.829 75.014C183.863 74.7732 183.865 74.5279 183.835 74.2781C183.82 74.0175 183.757 73.776 183.646 73.5536C183.537 73.3185 183.376 73.1342 183.162 73.0006C182.95 72.8545 182.717 72.7635 182.463 72.7279C182.223 72.694 181.981 72.7117 181.739 72.781C181.496 72.8503 181.292 72.9702 181.126 73.1407C180.96 73.3112 180.828 73.5124 180.731 73.7443C180.633 73.9762 180.569 74.2062 180.536 74.4344L180.523 74.5295L178.622 74.2619L178.643 74.1098C178.688 73.7929 178.763 73.4869 178.869 73.1916C178.99 72.8854 179.14 72.6027 179.318 72.3435C179.497 72.0842 179.71 71.8557 179.958 71.6579C180.22 71.4491 180.5 71.2947 180.798 71.1945C181.111 71.0834 181.424 71.0239 181.735 71.016C182.061 70.9973 182.382 71.0102 182.699 71.0548C183.016 71.0993 183.328 71.1756 183.636 71.2836C183.957 71.3933 184.246 71.5439 184.503 71.7352C184.761 71.9266 184.98 72.1578 185.162 72.429C185.356 72.7019 185.502 72.9939 185.601 73.3051C185.699 73.6162 185.758 73.9347 185.777 74.2605C185.795 74.5863 185.783 74.9076 185.738 75.2245C185.692 75.5541 185.607 75.8783 185.485 76.1971C185.364 76.5033 185.207 76.7914 185.014 77.0616C184.823 77.319 184.59 77.5512 184.315 77.7581C184.042 77.9524 183.749 78.1051 183.436 78.2162C183.759 78.4037 184.035 78.643 184.266 78.934C184.511 79.214 184.7 79.525 184.833 79.8668C184.98 80.1978 185.073 80.547 185.112 80.9144C185.151 81.2818 185.145 81.6429 185.095 81.9978C185.045 82.3527 184.958 82.6959 184.834 83.0274C184.711 83.3463 184.553 83.6471 184.358 83.9299C184.163 84.2127 183.927 84.4639 183.651 84.6835C183.374 84.9032 183.072 85.0739 182.745 85.1959C182.419 85.3052 182.081 85.3675 181.73 85.3827C181.379 85.3979 181.032 85.3814 180.69 85.3333ZM191.299 86.8262C190.995 86.7834 190.702 86.7034 190.421 86.5863C190.14 86.4693 189.892 86.3051 189.676 86.0937C189.46 85.8824 189.281 85.6438 189.137 85.378C189.008 85.1013 188.912 84.8164 188.85 84.5233C188.79 84.2175 188.761 83.9162 188.764 83.6193C188.782 83.3115 188.811 83.0119 188.852 82.7203L189.51 78.0432L187.894 77.8158L188.129 76.1427L189.745 76.3701L190.321 72.2824L192.222 72.5499L191.647 76.6376L194.784 77.0791L194.548 78.7522L191.411 78.3108L190.753 82.9879C190.733 83.1273 190.72 83.2676 190.713 83.4088C190.706 83.55 190.706 83.6921 190.711 83.8351C190.717 83.9781 190.729 84.122 190.748 84.2668C190.78 84.4007 190.827 84.53 190.887 84.6548C190.947 84.7796 191.035 84.8889 191.151 84.9828C191.267 85.0767 191.395 85.1334 191.534 85.1531C191.674 85.1727 191.805 85.1588 191.928 85.1115C192.065 85.0533 192.179 84.9788 192.269 84.8881C192.362 84.7848 192.436 84.6724 192.491 84.551C192.56 84.4313 192.616 84.3099 192.659 84.1868C192.717 84.0527 192.762 83.9168 192.794 83.7792C192.826 83.6415 192.851 83.5093 192.869 83.3826L192.885 83.2685L194.786 83.5361L194.76 83.7262C194.719 84.0177 194.652 84.3057 194.561 84.5901C194.471 84.8618 194.356 85.1236 194.217 85.3755C194.079 85.6274 193.903 85.8613 193.692 86.0772C193.493 86.2948 193.262 86.4691 192.998 86.6C192.734 86.7308 192.458 86.8084 192.17 86.8325C191.881 86.8693 191.59 86.8672 191.299 86.8262ZM196.054 87.3403L198.021 73.3659L199.922 73.6335L199.119 79.3373C199.256 79.098 199.417 78.8751 199.601 78.6683C199.798 78.4633 200.015 78.3 200.252 78.1782C200.491 78.0437 200.748 77.9572 201.025 77.9186C201.302 77.88 201.58 77.8803 201.859 77.9196C202.163 77.9624 202.454 78.055 202.731 78.1974C203.023 78.329 203.268 78.5122 203.468 78.7471C203.668 78.982 203.818 79.2487 203.918 79.5472C204.032 79.8347 204.114 80.1305 204.161 80.4345C204.209 80.7386 204.224 81.0445 204.207 81.3522C204.202 81.6618 204.178 81.9687 204.135 82.2729L203.279 88.3569L201.378 88.0894L202.234 82.0053C202.259 81.8279 202.271 81.6486 202.271 81.4676C202.283 81.2884 202.269 81.1119 202.229 80.9382C202.203 80.7536 202.15 80.5781 202.07 80.4118C202.005 80.2345 201.91 80.079 201.787 79.9453C201.676 79.8134 201.536 79.7096 201.366 79.634C201.195 79.5583 201.021 79.508 200.844 79.483C200.666 79.458 200.485 79.4584 200.301 79.4841C200.116 79.5099 199.946 79.57 199.791 79.6644C199.648 79.7607 199.514 79.884 199.39 80.0345C199.28 80.1742 199.18 80.3282 199.092 80.4968C199.018 80.6544 198.956 80.8202 198.906 80.9941C198.868 81.1697 198.837 81.3463 198.812 81.5237L197.956 87.6078L196.054 87.3403ZM67.7459 92.5115L69.4341 80.5145L66.877 82.1518L65.9812 80.9399L69.7124 78.5372L71.6136 78.8047L69.6472 92.779L67.7459 92.5115ZM77.6111 94.0548C77.2689 94.0067 76.9311 93.9268 76.5978 93.8153C76.2645 93.7038 75.9573 93.5442 75.6763 93.3366C75.3953 93.129 75.1522 92.8815 74.9471 92.5942C74.7564 92.2959 74.6073 91.9776 74.4998 91.6393C74.4049 91.3028 74.3499 90.959 74.3347 90.6078C74.3321 90.2585 74.3549 89.9127 74.4031 89.5705L75.2994 83.2012C75.3475 82.859 75.421 82.5203 75.5199 82.1852C75.6314 81.8519 75.7792 81.5366 75.9632 81.2394C76.1599 80.9439 76.3902 80.6855 76.654 80.4641C76.9323 80.2318 77.2351 80.0547 77.5625 79.9327C77.8899 79.8107 78.2292 79.7421 78.5803 79.7269C78.9315 79.7117 79.2781 79.7282 79.6204 79.7763C79.9626 79.8245 80.3004 79.9043 80.6337 80.0158C80.967 80.1274 81.2742 80.2869 81.5552 80.4945C81.8362 80.7021 82.072 80.955 82.2627 81.2533C82.4679 81.5407 82.6179 81.8527 82.7127 82.1892C82.8202 82.5274 82.8753 82.8713 82.8778 83.2206C82.893 83.5718 82.8766 83.9185 82.8284 84.2607L81.9321 90.6299C81.884 90.9722 81.8041 91.3099 81.6926 91.6432C81.5937 91.9783 81.446 92.2936 81.2493 92.5891C81.0652 92.8863 80.8341 93.1511 80.5558 93.3834C80.292 93.6048 79.9964 93.7765 79.669 93.8985C79.3416 94.0204 79.0023 94.089 78.6512 94.1042C78.3 94.1195 77.9534 94.103 77.6111 94.0548ZM76.6709 87.2333L80.8121 84.8107L80.9271 83.9931C80.9664 83.7143 80.9739 83.431 80.9498 83.1432C80.9256 82.8554 80.8463 82.5922 80.7119 82.3536C80.5919 82.104 80.4068 81.9035 80.1567 81.7519C79.921 81.5895 79.6638 81.4887 79.3849 81.4494C79.1061 81.4102 78.8246 81.4352 78.5406 81.5245C78.2711 81.6029 78.0379 81.7446 77.841 81.9496C77.6586 82.1436 77.516 82.3756 77.4134 82.6456C77.3108 82.9155 77.2399 83.1899 77.2006 83.4688L76.6709 87.2333ZM77.8466 92.3817C78.1254 92.421 78.3996 92.4014 78.6692 92.323C78.9532 92.2337 79.1864 92.092 79.3688 91.8979C79.5657 91.693 79.7155 91.4555 79.8181 91.1856C79.9207 90.9156 79.9916 90.6412 80.0309 90.3624L80.5606 86.5979L76.4194 89.0205L76.3044 89.838C76.2651 90.1169 76.2576 90.4002 76.2817 90.6879C76.3059 90.9757 76.3779 91.2444 76.4979 91.4939C76.6324 91.7326 76.8174 91.9331 77.0531 92.0956C77.3032 92.2471 77.5677 92.3425 77.8466 92.3817ZM87.1175 95.3925C86.8893 95.3604 86.6602 95.2894 86.43 95.1795C86.2108 95.084 86.0304 94.9423 85.8888 94.7543C85.7472 94.5664 85.6545 94.3529 85.6105 94.1141C85.5792 93.877 85.5805 93.6381 85.6144 93.3972C85.6465 93.1691 85.7103 92.9454 85.8058 92.7262C85.9158 92.496 86.0647 92.3102 86.2527 92.1686C86.4406 92.027 86.6532 91.9406 86.8902 91.9093C87.1418 91.8671 87.3816 91.8621 87.6097 91.8942C87.8379 91.9263 88.0607 91.9965 88.2781 92.1046C88.5101 92.2019 88.6968 92.3445 88.8384 92.5324C88.98 92.7204 89.0655 92.9393 89.095 93.189C89.139 93.4279 89.1449 93.6614 89.1128 93.8895C89.0789 94.1303 89.0079 94.3595 88.8997 94.5769C88.8042 94.7962 88.6625 94.9766 88.4745 95.1182C88.2866 95.2598 88.0677 95.3453 87.818 95.3748C87.5791 95.4187 87.3456 95.4247 87.1175 95.3925ZM88.0592 88.7001C87.8311 88.668 87.601 88.6033 87.3691 88.506C87.1517 88.3979 86.9722 88.2498 86.8306 88.0619C86.689 87.8739 86.5962 87.6605 86.5523 87.4216C86.5228 87.1719 86.5241 86.9329 86.5562 86.7048C86.5901 86.464 86.6548 86.2339 86.7502 86.0147C86.8584 85.7972 87.0065 85.6177 87.1944 85.4761C87.3824 85.3345 87.5949 85.2481 87.832 85.2168C88.0835 85.1747 88.3233 85.1696 88.5515 85.2018C88.7796 85.2339 89.0024 85.304 89.2199 85.4121C89.4518 85.5094 89.6386 85.652 89.7801 85.84C89.9217 86.028 90.0082 86.2405 90.0394 86.4775C90.0834 86.7164 90.0884 86.9562 90.0545 87.1971C90.0224 87.4252 89.9514 87.6544 89.8415 87.8845C89.746 88.1037 89.6043 88.2841 89.4163 88.4257C89.2283 88.5673 89.0086 88.6592 88.757 88.7013C88.52 88.7326 88.2874 88.7322 88.0592 88.7001ZM96.6238 96.7303C96.2816 96.6821 95.9438 96.6023 95.6105 96.4907C95.2772 96.3792 94.97 96.2196 94.689 96.0121C94.408 95.8045 94.1649 95.557 93.9598 95.2696C93.7691 94.9713 93.62 94.653 93.5124 94.3147C93.4176 93.9782 93.3626 93.6344 93.3474 93.2833C93.3448 92.9339 93.3676 92.5881 93.4158 92.2459L94.3121 85.8766C94.3602 85.5344 94.4337 85.1958 94.5326 84.8607C94.6441 84.5274 94.7919 84.2121 94.9759 83.9148C95.1726 83.6193 95.4029 83.3609 95.6667 83.1395C95.945 82.9072 96.2478 82.7301 96.5752 82.6081C96.9026 82.4861 97.2418 82.4176 97.593 82.4023C97.9441 82.3871 98.2908 82.4036 98.6331 82.4517C98.9753 82.4999 99.313 82.5797 99.6464 82.6913C99.9797 82.8028 100.287 82.9624 100.568 83.17C100.849 83.3775 101.085 83.6305 101.275 83.9288C101.481 84.2161 101.631 84.5281 101.725 84.8646C101.833 85.2029 101.888 85.5467 101.89 85.8961C101.906 86.2472 101.889 86.5939 101.841 86.9361L100.945 93.3054C100.897 93.6476 100.817 93.9854 100.705 94.3187C100.606 94.6538 100.459 94.969 100.262 95.2645C100.078 95.5618 99.8468 95.8266 99.5685 96.0588C99.3047 96.2802 99.0091 96.4519 98.6817 96.5739C98.3543 96.6959 98.015 96.7645 97.6639 96.7797C97.3127 96.7949 96.966 96.7784 96.6238 96.7303ZM95.6836 89.9087L99.8248 87.4861L99.9398 86.6686C99.979 86.3897 99.9866 86.1064 99.9625 85.8186C99.9383 85.5309 99.859 85.2676 99.7246 85.029C99.6046 84.7794 99.4195 84.5789 99.1694 84.4274C98.9337 84.2649 98.6765 84.1641 98.3976 84.1249C98.1188 84.0856 97.8373 84.1106 97.5533 84.1999C97.2838 84.2783 97.0505 84.42 96.8537 84.625C96.6712 84.8191 96.5287 85.0511 96.4261 85.321C96.3235 85.5909 96.2526 85.8653 96.2133 86.1442L95.6836 89.9087ZM96.8592 95.0571C97.1381 95.0964 97.4123 95.0768 97.6819 94.9984C97.9659 94.9091 98.1991 94.7674 98.3815 94.5734C98.5784 94.3684 98.7281 94.1309 98.8308 93.861C98.9334 93.5911 99.0043 93.3167 99.0435 93.0378L99.5733 89.2733L95.4321 91.6959L95.3171 92.5134C95.2778 92.7923 95.2703 93.0756 95.2944 93.3634C95.3185 93.6511 95.3906 93.9198 95.5106 94.1694C95.645 94.408 95.8301 94.6086 96.0658 94.771C96.3159 94.9225 96.5804 95.0179 96.8592 95.0571ZM106.13 98.068C105.788 98.0198 105.45 97.94 105.117 97.8284C104.784 97.7169 104.476 97.5574 104.195 97.3498C103.914 97.1422 103.671 96.8947 103.466 96.6073C103.275 96.309 103.126 95.9907 103.019 95.6525C102.924 95.316 102.869 94.9721 102.854 94.621C102.851 94.2716 102.874 93.9258 102.922 93.5836L103.818 87.2144C103.867 86.8721 103.94 86.5335 104.039 86.1984C104.15 85.8651 104.298 85.5498 104.482 85.2525C104.679 84.9571 104.909 84.6986 105.173 84.4772C105.451 84.2449 105.754 84.0678 106.082 83.9458C106.409 83.8239 106.748 83.7553 107.099 83.74C107.45 83.7248 107.797 83.7413 108.139 83.7895C108.482 83.8376 108.819 83.9175 109.153 84.029C109.486 84.1405 109.793 84.3001 110.074 84.5077C110.355 84.7153 110.591 84.9682 110.782 85.2665C110.987 85.5539 111.137 85.8658 111.232 86.2023C111.339 86.5406 111.394 86.8844 111.397 87.2338C111.412 87.5849 111.396 87.9316 111.347 88.2738L110.451 94.6431C110.403 94.9853 110.323 95.3231 110.212 95.6564C110.113 95.9915 109.965 96.3068 109.768 96.6022C109.584 96.8995 109.353 97.1643 109.075 97.3966C108.811 97.618 108.515 97.7896 108.188 97.9116C107.861 98.0336 107.521 98.1022 107.17 98.1174C106.819 98.1326 106.472 98.1161 106.13 98.068ZM105.19 91.2464L109.331 88.8238L109.446 88.0063C109.485 87.7274 109.493 87.4441 109.469 87.1564C109.445 86.8686 109.365 86.6054 109.231 86.3667C109.111 86.1171 108.926 85.9166 108.676 85.7651C108.44 85.6026 108.183 85.5018 107.904 85.4626C107.625 85.4233 107.344 85.4484 107.06 85.5377C106.79 85.6161 106.557 85.7577 106.36 85.9627C106.178 86.1568 106.035 86.3888 105.932 86.6587C105.83 86.9287 105.759 87.2031 105.72 87.4819L105.19 91.2464ZM106.366 96.3949C106.644 96.4341 106.919 96.4145 107.188 96.3361C107.472 96.2468 107.705 96.1051 107.888 95.9111C108.085 95.7061 108.234 95.4687 108.337 95.1987C108.44 94.9288 108.511 94.6544 108.55 94.3755L109.08 90.611L104.938 93.0336L104.823 93.8512C104.784 94.13 104.777 94.4133 104.801 94.7011C104.825 94.9889 104.897 95.2575 105.017 95.5071C105.151 95.7457 105.336 95.9463 105.572 96.1087C105.822 96.2602 106.087 96.3556 106.366 96.3949ZM112.045 98.7453L112.243 97.3383C112.343 96.6285 112.488 95.925 112.676 95.2276C112.877 94.5321 113.091 93.8447 113.315 93.1654C113.542 92.4734 113.78 91.7896 114.031 91.1138C114.294 90.4399 114.556 89.7723 114.817 89.111C115.092 88.4389 115.373 87.7739 115.66 87.1162C115.948 86.4458 116.235 85.7818 116.522 85.1241L118.727 85.4345C118.821 86.1457 118.914 86.8632 119.006 87.5871C119.1 88.2983 119.18 89.0141 119.247 89.7344C119.328 90.4438 119.395 91.1578 119.449 91.8763C119.516 92.5967 119.563 93.3206 119.59 94.0483C119.618 94.7632 119.627 95.4819 119.616 96.2042C119.617 96.9282 119.567 97.6515 119.466 98.374L119.27 99.7619L117.369 99.4944L117.567 98.0874C117.61 97.7832 117.641 97.4709 117.66 97.1505C117.692 96.8318 117.71 96.5177 117.715 96.2082L114.521 95.7587C114.44 96.0575 114.365 96.3636 114.295 96.6769C114.238 96.992 114.188 97.3017 114.145 97.6059L113.947 99.0128L112.045 98.7453ZM114.947 94.1123L117.76 94.5083C117.752 93.2792 117.712 92.0519 117.639 90.8266C117.567 89.5886 117.476 88.3542 117.365 87.1235C116.918 88.2757 116.49 89.437 116.08 90.6072C115.671 91.7648 115.293 92.9332 114.947 94.1123ZM121.172 100.029L123.138 86.0552L125.096 86.3307L126.079 94.089L129.165 86.9033L131.123 87.1788L129.157 101.153L127.237 100.883L127.63 98.0881C127.744 97.2769 127.871 96.4674 128.01 95.6598C128.164 94.8413 128.336 94.0317 128.527 93.2312L128.839 91.8404C128.912 91.5017 128.987 91.1567 129.062 90.8054C129.137 90.454 129.205 90.1081 129.266 89.7677L129.269 89.7487L126.383 96.4778L125.128 96.3012L124.211 89.037L124.209 89.056C124.173 89.4 124.143 89.7513 124.119 90.1097C124.094 90.4682 124.07 90.8204 124.047 91.1661L123.964 92.5891C123.925 93.411 123.861 94.2357 123.771 95.0632C123.694 95.8797 123.599 96.6936 123.485 97.5048L123.092 100.3L121.172 100.029ZM148.581 98.1473L141.356 97.1307L141.592 95.4575L148.817 96.4742L148.581 98.1473ZM159.577 105.434L159.58 105.415C159.626 105.085 159.68 104.75 159.741 104.41C159.801 104.069 159.874 103.737 159.959 103.413C160.056 103.09 160.177 102.778 160.323 102.475C160.471 102.16 160.636 101.86 160.818 101.576C161.013 101.293 161.224 101.032 161.452 100.792C161.681 100.54 161.927 100.31 162.189 100.101C162.453 99.8796 162.727 99.679 163.01 99.4992C163.294 99.3194 163.584 99.1468 163.878 98.9814C164.186 98.8179 164.481 98.6462 164.765 98.4664C165.062 98.2884 165.324 98.0796 165.551 97.8402C165.781 97.5881 165.969 97.3044 166.117 96.9891C166.265 96.6739 166.362 96.3514 166.408 96.0219C166.447 95.743 166.454 95.4661 166.428 95.191C166.415 94.9177 166.348 94.6562 166.228 94.4067C166.121 94.1589 165.949 93.9538 165.714 93.7914C165.478 93.6289 165.227 93.529 164.961 93.4915C164.707 93.4559 164.453 93.4718 164.198 93.5393C163.957 93.5959 163.741 93.7077 163.55 93.8747C163.371 94.0434 163.227 94.2428 163.117 94.4729C163.019 94.7048 162.953 94.9475 162.917 95.201L162.907 95.2771L161.005 95.0095L161.024 94.8765C161.07 94.5469 161.148 94.2281 161.256 93.9202C161.376 93.614 161.532 93.3322 161.723 93.0748C161.915 92.8173 162.141 92.5906 162.401 92.3945C162.674 92.2002 162.96 92.053 163.258 91.9528C163.571 91.8418 163.889 91.7832 164.213 91.7771C164.552 91.76 164.88 91.7738 165.196 91.8184C165.539 91.8666 165.869 91.9519 166.188 92.0743C166.521 92.1858 166.822 92.3445 167.091 92.5503C167.372 92.7579 167.607 93.0108 167.798 93.3091C167.991 93.5947 168.134 93.9058 168.229 94.2423C168.326 94.5661 168.375 94.9027 168.378 95.252C168.38 95.6014 168.358 95.9472 168.309 96.2894C168.249 96.7204 168.132 97.137 167.959 97.5392C167.786 97.9414 167.553 98.3094 167.261 98.6431C166.981 98.9785 166.661 99.2761 166.301 99.5357C165.944 99.7826 165.574 100.021 165.192 100.252C164.825 100.472 164.463 100.705 164.105 100.952C163.747 101.199 163.416 101.482 163.113 101.802C162.81 102.121 162.547 102.472 162.325 102.854C162.105 103.224 161.933 103.62 161.809 104.042L167.037 104.777L166.802 106.451L159.577 105.434ZM172.675 107.432C172.446 107.4 172.217 107.329 171.987 107.219C171.768 107.123 171.587 106.982 171.446 106.794C171.304 106.606 171.212 106.392 171.168 106.154C171.136 105.916 171.138 105.678 171.171 105.437C171.204 105.209 171.267 104.985 171.363 104.766C171.473 104.535 171.622 104.35 171.81 104.208C171.998 104.066 172.21 103.98 172.447 103.949C172.699 103.907 172.939 103.902 173.167 103.934C173.395 103.966 173.618 104.036 173.835 104.144C174.067 104.241 174.254 104.384 174.395 104.572C174.537 104.76 174.623 104.979 174.652 105.228C174.696 105.467 174.702 105.701 174.67 105.929C174.636 106.17 174.565 106.399 174.457 106.616C174.361 106.836 174.22 107.016 174.032 107.158C173.844 107.299 173.625 107.385 173.375 107.414C173.136 107.458 172.903 107.464 172.675 107.432ZM173.616 100.74C173.388 100.707 173.158 100.643 172.926 100.545C172.709 100.437 172.529 100.289 172.388 100.101C172.246 99.9133 172.153 99.6999 172.109 99.4611C172.08 99.2113 172.081 98.9724 172.113 98.7442C172.147 98.5034 172.212 98.2734 172.307 98.0541C172.415 97.8367 172.564 97.6572 172.751 97.5156C172.939 97.374 173.152 97.2876 173.389 97.2563C173.641 97.2141 173.88 97.2091 174.109 97.2412C174.337 97.2733 174.559 97.3434 174.777 97.4516C175.009 97.5489 175.196 97.6915 175.337 97.8794C175.479 98.0674 175.565 98.2799 175.596 98.517C175.64 98.7558 175.645 98.9957 175.612 99.2365C175.579 99.4647 175.508 99.6938 175.399 99.9239C175.303 100.143 175.161 100.324 174.973 100.465C174.785 100.607 174.566 100.699 174.314 100.741C174.077 100.772 173.844 100.772 173.616 100.74ZM182.181 108.77C181.839 108.722 181.501 108.642 181.168 108.53C180.834 108.419 180.527 108.259 180.246 108.052C179.965 107.844 179.722 107.596 179.517 107.309C179.326 107.011 179.177 106.692 179.069 106.354C178.975 106.018 178.92 105.674 178.904 105.323C178.902 104.973 178.925 104.628 178.973 104.285L179.869 97.9161C179.917 97.5739 179.991 97.2352 180.09 96.9001C180.201 96.5668 180.349 96.2515 180.533 95.9543C180.73 95.6588 180.96 95.4003 181.224 95.179C181.502 94.9467 181.805 94.7695 182.132 94.6476C182.46 94.5256 182.799 94.457 183.15 94.4418C183.501 94.4266 183.848 94.443 184.19 94.4912C184.532 94.5394 184.87 94.6192 185.203 94.7307C185.537 94.8423 185.844 95.0018 186.125 95.2094C186.406 95.417 186.642 95.6699 186.832 95.9682C187.038 96.2556 187.188 96.5675 187.282 96.904C187.39 97.2423 187.445 97.5861 187.448 97.9355C187.463 98.2866 187.446 98.6333 187.398 98.9756L186.502 105.345C186.454 105.687 186.374 106.025 186.262 106.358C186.163 106.693 186.016 107.008 185.819 107.304C185.635 107.601 185.404 107.866 185.126 108.098C184.862 108.32 184.566 108.491 184.239 108.613C183.911 108.735 183.572 108.804 183.221 108.819C182.87 108.834 182.523 108.818 182.181 108.77ZM181.241 101.948L185.382 99.5256L185.497 98.708C185.536 98.4292 185.544 98.1459 185.52 97.8581C185.495 97.5703 185.416 97.3071 185.282 97.0684C185.162 96.8189 184.977 96.6183 184.726 96.4668C184.491 96.3044 184.234 96.2035 183.955 96.1643C183.676 96.1251 183.394 96.1501 183.11 96.2394C182.841 96.3178 182.608 96.4595 182.411 96.6644C182.228 96.8585 182.086 97.0905 181.983 97.3605C181.881 97.6304 181.81 97.9048 181.77 98.1836L181.241 101.948ZM182.416 107.097C182.695 107.136 182.969 107.116 183.239 107.038C183.523 106.949 183.756 106.807 183.939 106.613C184.135 106.408 184.285 106.17 184.388 105.9C184.49 105.631 184.561 105.356 184.601 105.077L185.13 101.313L180.989 103.735L180.874 104.553C180.835 104.832 180.827 105.115 180.851 105.403C180.876 105.691 180.948 105.959 181.068 106.209C181.202 106.447 181.387 106.648 181.623 106.81C181.873 106.962 182.137 107.057 182.416 107.097ZM191.687 110.107C191.345 110.059 191.007 109.979 190.674 109.868C190.341 109.756 190.033 109.597 189.752 109.389C189.471 109.182 189.228 108.934 189.023 108.647C188.832 108.348 188.683 108.03 188.576 107.692C188.481 107.355 188.426 107.012 188.411 106.66C188.408 106.311 188.431 105.965 188.479 105.623L189.375 99.2538C189.424 98.9116 189.497 98.5729 189.596 98.2378C189.708 97.9045 189.855 97.5892 190.039 97.292C190.236 96.9965 190.466 96.7381 190.73 96.5167C191.008 96.2844 191.311 96.1072 191.639 95.9853C191.966 95.8633 192.305 95.7947 192.656 95.7795C193.008 95.7643 193.354 95.7808 193.696 95.8289C194.039 95.8771 194.376 95.9569 194.71 96.0684C195.043 96.18 195.35 96.3395 195.631 96.5471C195.912 96.7547 196.148 97.0076 196.339 97.3059C196.544 97.5933 196.694 97.9053 196.789 98.2418C196.896 98.58 196.951 98.9239 196.954 99.2732C196.969 99.6244 196.953 99.9711 196.904 100.313L196.008 106.683C195.96 107.025 195.88 107.363 195.769 107.696C195.67 108.031 195.522 108.346 195.325 108.642C195.141 108.939 194.91 109.204 194.632 109.436C194.368 109.657 194.072 109.829 193.745 109.951C193.418 110.073 193.078 110.142 192.727 110.157C192.376 110.172 192.029 110.156 191.687 110.107ZM190.747 103.286L194.888 100.863L195.003 100.046C195.042 99.7669 195.05 99.4836 195.026 99.1958C195.002 98.908 194.922 98.6448 194.788 98.4062C194.668 98.1566 194.483 97.9561 194.233 97.8045C193.997 97.6421 193.74 97.5413 193.461 97.502C193.182 97.4628 192.901 97.4878 192.617 97.5771C192.347 97.6555 192.114 97.7972 191.917 98.0022C191.735 98.1962 191.592 98.4282 191.489 98.6982C191.387 98.9681 191.316 99.2425 191.277 99.5214L190.747 103.286ZM191.923 108.434C192.201 108.474 192.476 108.454 192.745 108.376C193.029 108.286 193.262 108.145 193.445 107.951C193.642 107.746 193.792 107.508 193.894 107.238C193.997 106.968 194.068 106.694 194.107 106.415L194.637 102.65L190.495 105.073L190.38 105.891C190.341 106.169 190.334 106.453 190.358 106.741C190.382 107.028 190.454 107.297 190.574 107.547C190.708 107.785 190.894 107.986 191.129 108.148C191.379 108.3 191.644 108.395 191.923 108.434ZM197.888 110.825L199.854 96.8505L203.276 97.3321C203.644 97.3838 204 97.4727 204.344 97.5987C204.688 97.7247 205 97.8978 205.279 98.1181C205.558 98.3383 205.793 98.6039 205.981 98.9149C206.183 99.2276 206.329 99.5649 206.421 99.9268C206.526 100.278 206.58 100.634 206.58 100.996C206.581 101.358 206.557 101.717 206.507 102.072C206.455 102.439 206.379 102.797 206.278 103.145C206.178 103.492 206.028 103.82 205.829 104.129C205.644 104.438 205.411 104.716 205.131 104.961C204.863 105.208 204.564 105.405 204.233 105.552C203.904 105.687 203.557 105.767 203.191 105.793C202.825 105.819 202.459 105.806 202.091 105.755L200.57 105.541L199.789 111.092L197.888 110.825ZM200.806 103.868L202.327 104.082C202.529 104.11 202.729 104.112 202.927 104.088C203.138 104.054 203.329 103.984 203.499 103.878C203.669 103.773 203.816 103.645 203.941 103.494C204.08 103.333 204.188 103.161 204.266 102.978C204.358 102.784 204.43 102.594 204.482 102.407C204.536 102.208 204.577 102.007 204.605 101.804C204.632 101.614 204.647 101.416 204.65 101.209C204.654 101.003 204.637 100.8 204.6 100.601C204.576 100.404 204.519 100.215 204.428 100.034C204.352 99.8424 204.246 99.6725 204.112 99.5243C203.978 99.3762 203.813 99.2625 203.617 99.1832C203.436 99.0931 203.244 99.0338 203.041 99.0052L201.52 98.7912L200.806 103.868ZM206.729 112.069L208.695 98.0946L210.653 98.3702L211.636 106.128L214.722 98.9427L216.68 99.2183L214.714 113.193L212.794 112.922L213.187 110.128C213.301 109.316 213.428 108.507 213.567 107.699C213.721 106.881 213.893 106.071 214.084 105.271L214.396 103.88C214.469 103.541 214.544 103.196 214.619 102.845C214.694 102.493 214.762 102.148 214.823 101.807L214.826 101.788L211.94 108.517L210.685 108.341L209.768 101.076L209.766 101.095C209.73 101.439 209.7 101.791 209.676 102.149C209.651 102.508 209.627 102.86 209.605 103.206L209.521 104.629C209.483 105.45 209.418 106.275 209.328 107.103C209.251 107.919 209.156 108.733 209.042 109.544L208.649 112.339L206.729 112.069Z" fill="#FBFEFC"/>
<path d="M68.8309 121.705L70.3057 111.224L72.5873 111.545C72.8725 111.586 73.1543 111.649 73.4328 111.737C73.7113 111.825 73.9702 111.948 74.2095 112.108C74.4488 112.268 74.6589 112.462 74.84 112.691C75.0319 112.912 75.1763 113.16 75.2733 113.436C75.3716 113.702 75.4244 113.981 75.4318 114.272C75.4487 114.566 75.4371 114.855 75.397 115.14L74.8051 119.347C74.7649 119.632 74.6963 119.913 74.5991 120.19C74.5114 120.469 74.383 120.727 74.2138 120.965C74.0459 121.193 73.8386 121.392 73.5919 121.561C73.356 121.721 73.101 121.846 72.827 121.933C72.5529 122.02 72.2699 122.068 71.978 122.075C71.6862 122.083 71.3976 122.066 71.1124 122.026L68.8309 121.705ZM70.4334 120.651L71.289 120.771C71.4506 120.794 71.6142 120.803 71.7799 120.797C71.955 120.792 72.1192 120.762 72.2725 120.706C72.4366 120.642 72.5844 120.556 72.7159 120.449C72.8474 120.341 72.9564 120.221 73.043 120.087C73.1405 119.946 73.2148 119.797 73.2661 119.639C73.3187 119.472 73.3564 119.308 73.3791 119.146L73.971 114.939C73.9938 114.778 74.0023 114.614 73.9965 114.449C73.992 114.273 73.9618 114.109 73.9058 113.956C73.8607 113.794 73.7898 113.644 73.6931 113.504C73.5964 113.365 73.4774 113.246 73.336 113.149C73.2054 113.043 73.0566 112.964 72.8895 112.911C72.7319 112.86 72.5723 112.823 72.4107 112.8L71.5551 112.68L70.4334 120.651ZM78.6539 123.204C78.3973 123.168 78.1439 123.108 77.8939 123.024C77.644 122.94 77.4136 122.821 77.2028 122.665C76.9921 122.509 76.8098 122.324 76.6559 122.108C76.5129 121.885 76.401 121.646 76.3204 121.392C76.2493 121.14 76.208 120.882 76.1966 120.619C76.1947 120.356 76.2118 120.097 76.2479 119.84L76.4887 118.129C76.5248 117.873 76.5799 117.619 76.6541 117.367C76.7377 117.117 76.8486 116.881 76.9866 116.658C77.1341 116.436 77.3068 116.243 77.5047 116.076C77.7134 115.902 77.9405 115.769 78.186 115.678C78.4316 115.586 78.686 115.535 78.9494 115.524C79.2128 115.512 79.4728 115.525 79.7294 115.561C79.9861 115.597 80.2394 115.657 80.4894 115.74C80.7394 115.824 80.9698 115.944 81.1805 116.099C81.3913 116.255 81.5682 116.445 81.7112 116.668C81.8651 116.884 81.9776 117.118 82.0487 117.37C82.1293 117.624 82.1706 117.882 82.1725 118.144C82.1839 118.407 82.1716 118.667 82.1355 118.924L81.9268 120.407L77.706 119.813L77.6739 120.041C77.6444 120.25 77.634 120.462 77.6426 120.677C77.6607 120.892 77.7195 121.095 77.819 121.283C77.9199 121.462 78.0587 121.612 78.2354 121.734C78.423 121.848 78.6214 121.919 78.8305 121.949C78.9921 121.972 79.151 121.979 79.3071 121.972C79.4727 121.967 79.6281 121.93 79.7732 121.863C79.9197 121.787 80.041 121.683 80.1371 121.551C80.2427 121.421 80.3116 121.275 80.3439 121.115L81.7698 121.316C81.7377 121.544 81.673 121.762 81.5757 121.972C81.4784 122.181 81.3498 122.371 81.19 122.543C81.0315 122.705 80.8478 122.839 80.6389 122.945C80.4396 123.053 80.2293 123.135 80.0082 123.191C79.7883 123.237 79.5623 123.259 79.3301 123.255C79.098 123.252 78.8726 123.235 78.6539 123.204ZM80.6774 118.951L80.7095 118.723C80.7389 118.514 80.7446 118.302 80.7265 118.086C80.7084 117.87 80.6489 117.673 80.5481 117.494C80.4581 117.306 80.3193 117.156 80.1317 117.042C79.955 116.921 79.762 116.845 79.5529 116.815C79.3437 116.786 79.1327 116.805 78.9196 116.872C78.7175 116.931 78.5426 117.037 78.3949 117.191C78.2581 117.336 78.1512 117.51 78.0742 117.713C77.9973 117.915 77.9441 118.121 77.9147 118.33L77.8825 118.558L80.6774 118.951ZM85.7694 124.205C85.5603 124.176 85.3484 124.131 85.1338 124.072C84.9273 124.024 84.7289 123.952 84.5387 123.857C84.3484 123.763 84.1662 123.645 83.9921 123.504C83.8276 123.365 83.6901 123.205 83.5798 123.024C83.4708 122.835 83.3923 122.634 83.3443 122.424C83.3072 122.206 83.3034 121.992 83.3328 121.783L83.3468 121.683L84.7728 121.884L84.7668 121.926C84.7467 122.069 84.7708 122.208 84.8389 122.344C84.9166 122.481 85.0125 122.591 85.1268 122.675C85.2518 122.751 85.3836 122.813 85.5222 122.861C85.6621 122.901 85.8034 122.93 85.946 122.95C86.0886 122.97 86.2325 122.981 86.3778 122.982C86.5231 122.983 86.6615 122.964 86.7931 122.924C86.9356 122.876 87.0576 122.801 87.1592 122.699C87.2717 122.589 87.3379 122.463 87.358 122.32C87.3794 122.168 87.3472 122.018 87.2613 121.87C87.185 121.724 87.0809 121.602 86.949 121.506C86.8266 121.411 86.6927 121.33 86.5473 121.261C86.4114 121.193 86.2707 121.125 86.1253 121.056C85.9799 120.987 85.8345 120.918 85.6891 120.849C85.5545 120.772 85.4206 120.69 85.2874 120.604C85.1541 120.517 85.027 120.421 84.906 120.317C84.7849 120.213 84.6693 120.105 84.5591 119.992C84.4597 119.871 84.3658 119.747 84.2773 119.618C84.1996 119.481 84.1328 119.336 84.0768 119.183C84.0208 119.029 83.9845 118.874 83.9679 118.716C83.9512 118.559 83.9536 118.404 83.975 118.252C84.0045 118.043 84.0665 117.843 84.1611 117.653C84.2558 117.463 84.3762 117.295 84.5226 117.151C84.6702 116.998 84.8376 116.876 85.0248 116.786C85.2228 116.688 85.4216 116.619 85.6211 116.579C85.8314 116.531 86.0377 116.511 86.24 116.52C86.4532 116.521 86.6643 116.537 86.8735 116.566C87.0826 116.595 87.285 116.638 87.4806 116.695C87.6871 116.743 87.88 116.819 88.0594 116.922C88.2497 117.017 88.4224 117.133 88.5774 117.271C88.742 117.411 88.874 117.575 88.9735 117.763C89.0744 117.942 89.144 118.136 89.1825 118.345C89.2209 118.554 89.2254 118.763 89.196 118.972L89.182 119.072L87.756 118.871L87.762 118.829C87.7808 118.696 87.7608 118.562 87.7021 118.428C87.6435 118.293 87.5618 118.185 87.4571 118.102C87.3524 118.02 87.2301 117.959 87.0901 117.92C86.9611 117.873 86.83 117.84 86.6969 117.821C86.5638 117.802 86.4294 117.793 86.2936 117.793C86.1578 117.793 86.0235 117.818 85.8905 117.867C85.7671 117.918 85.6593 117.995 85.5672 118.098C85.4751 118.201 85.4197 118.32 85.401 118.453C85.3782 118.614 85.405 118.768 85.4814 118.915C85.5685 119.053 85.6727 119.174 85.7937 119.279C85.9161 119.374 86.05 119.455 86.1954 119.524C86.3408 119.593 86.4815 119.662 86.6174 119.729C86.7628 119.798 86.9075 119.872 87.0516 119.95C87.197 120.019 87.3316 120.096 87.4553 120.182C87.5886 120.268 87.7157 120.364 87.8368 120.468C87.9686 120.564 88.0843 120.672 88.1836 120.793C88.2925 120.915 88.3858 121.044 88.4634 121.181C88.552 121.31 88.6242 121.451 88.6802 121.604C88.7375 121.748 88.7745 121.899 88.7911 122.056C88.8077 122.214 88.8047 122.373 88.7819 122.535C88.7525 122.744 88.6851 122.948 88.5796 123.146C88.4836 123.346 88.3577 123.517 88.2019 123.66C88.046 123.803 87.8691 123.924 87.6711 124.022C87.4744 124.11 87.2668 124.173 87.0483 124.21C86.8393 124.249 86.6242 124.262 86.4029 124.251C86.1897 124.25 85.9786 124.234 85.7694 124.205ZM90.4341 124.745L90.6107 123.49L92.4929 123.755L93.1832 118.85L91.5005 118.613L91.6771 117.358L94.7857 117.796L93.9189 123.956L95.6015 124.193L95.4249 125.447L90.4341 124.745ZM94.1947 116.622C94.0521 116.602 93.9122 116.563 93.7749 116.505C93.639 116.437 93.5255 116.348 93.4343 116.239C93.3539 116.121 93.3 115.987 93.2726 115.838C93.2546 115.69 93.2557 115.545 93.2757 115.402C93.2958 115.259 93.3349 115.119 93.393 114.982C93.4606 114.846 93.5486 114.737 93.657 114.656C93.7763 114.566 93.9099 114.512 94.0579 114.494C94.2071 114.467 94.3531 114.463 94.4957 114.483C94.6383 114.503 94.7775 114.547 94.9134 114.614C95.0507 114.673 95.1595 114.761 95.2398 114.878C95.331 114.988 95.3856 115.117 95.4036 115.265C95.431 115.414 95.4347 115.56 95.4147 115.703C95.3946 115.845 95.3508 115.985 95.2832 116.121C95.2251 116.258 95.1364 116.371 95.0171 116.461C94.9087 116.543 94.7798 116.598 94.6305 116.625C94.4826 116.643 94.3373 116.642 94.1947 116.622ZM99.5833 129.275C99.3646 129.245 99.148 129.2 98.9333 129.14C98.7282 129.082 98.5312 129.001 98.3423 128.897C98.152 128.803 97.9752 128.681 97.812 128.532C97.6488 128.383 97.5127 128.213 97.4036 128.023C97.3041 127.835 97.2311 127.631 97.1845 127.411C97.1473 127.192 97.1442 126.974 97.1749 126.755L98.6009 126.956C98.589 127.109 98.6124 127.253 98.671 127.387C98.7392 127.523 98.8304 127.633 98.9446 127.717C99.0575 127.81 99.1839 127.876 99.3238 127.916C99.4719 127.965 99.6172 128 99.7598 128.021C99.8929 128.039 100.029 128.039 100.167 128.02C100.306 128 100.433 127.955 100.55 127.884C100.666 127.814 100.771 127.727 100.863 127.623C100.955 127.52 101.029 127.404 101.086 127.277C101.141 127.158 101.189 127.029 101.228 126.889C101.266 126.759 101.294 126.627 101.312 126.494L101.515 125.054C101.403 125.232 101.272 125.403 101.123 125.566C100.985 125.721 100.822 125.848 100.633 125.948C100.445 126.047 100.243 126.106 100.027 126.124C99.8191 126.153 99.6107 126.153 99.4015 126.123C99.1734 126.091 98.9506 126.021 98.7331 125.913C98.5143 125.814 98.3246 125.681 98.1641 125.513C98.0144 125.337 97.8918 125.14 97.7963 124.923C97.7116 124.698 97.6514 124.471 97.6157 124.243C97.5799 124.015 97.5638 123.785 97.5674 123.553C97.5818 123.313 97.6051 123.078 97.6372 122.85L97.878 121.139C97.9101 120.911 97.9517 120.684 98.0028 120.459C98.0648 120.225 98.1444 120.004 98.2417 119.794C98.339 119.585 98.4588 119.389 98.6009 119.205C98.7539 119.013 98.926 118.858 99.1172 118.74C99.3192 118.613 99.539 118.532 99.7765 118.498C100.015 118.454 100.249 118.448 100.477 118.48C100.686 118.51 100.887 118.567 101.078 118.652C101.281 118.729 101.459 118.841 101.612 118.989C101.766 119.137 101.887 119.309 101.976 119.505C102.075 119.694 102.155 119.889 102.213 120.092L102.386 118.865L103.812 119.066L102.738 126.695C102.702 126.951 102.648 127.201 102.575 127.442C102.501 127.694 102.396 127.926 102.259 128.14C102.121 128.362 101.952 128.562 101.753 128.737C101.554 128.913 101.336 129.047 101.1 129.14C100.864 129.233 100.614 129.285 100.351 129.296C100.096 129.318 99.8399 129.312 99.5833 129.275ZM100.163 124.951C100.372 124.98 100.573 124.965 100.765 124.905C100.969 124.836 101.14 124.725 101.278 124.57C101.416 124.415 101.518 124.24 101.584 124.046C101.661 123.843 101.714 123.637 101.744 123.428L101.985 121.717C102.014 121.508 102.019 121.3 102 121.094C101.991 120.879 101.942 120.679 101.852 120.491C101.762 120.304 101.628 120.155 101.45 120.042C101.282 119.922 101.094 119.847 100.885 119.817C100.676 119.788 100.47 119.807 100.266 119.876C100.073 119.936 99.9081 120.043 99.7699 120.198C99.6318 120.354 99.5242 120.532 99.4472 120.735C99.3811 120.929 99.3333 121.131 99.3039 121.34L99.0631 123.051C99.0337 123.26 99.0233 123.472 99.0319 123.686C99.0513 123.893 99.106 124.09 99.196 124.277C99.286 124.464 99.4146 124.618 99.5819 124.738C99.76 124.85 99.9536 124.921 100.163 124.951ZM104.48 126.722L105.523 119.307L106.949 119.507L106.779 120.719C106.881 120.54 107.002 120.373 107.14 120.218C107.288 120.064 107.45 119.941 107.628 119.85C107.807 119.749 108 119.684 108.208 119.655C108.416 119.626 108.624 119.627 108.833 119.656C109.061 119.688 109.279 119.758 109.487 119.864C109.706 119.963 109.89 120.101 110.04 120.277C110.19 120.453 110.302 120.653 110.377 120.877C110.463 121.092 110.524 121.314 110.56 121.542C110.596 121.77 110.607 122 110.594 122.231C110.59 122.463 110.573 122.693 110.54 122.921L109.898 127.484L108.472 127.283L109.114 122.72C109.133 122.587 109.142 122.453 109.142 122.317C109.151 122.183 109.141 122.05 109.111 121.92C109.091 121.782 109.052 121.65 108.992 121.525C108.943 121.392 108.872 121.276 108.779 121.175C108.696 121.076 108.591 120.999 108.463 120.942C108.335 120.885 108.205 120.847 108.072 120.829C107.939 120.81 107.803 120.81 107.665 120.829C107.526 120.849 107.399 120.894 107.282 120.965C107.175 121.037 107.075 121.129 106.981 121.242C106.899 121.347 106.824 121.463 106.758 121.589C106.703 121.707 106.656 121.832 106.618 121.962C106.59 122.094 106.566 122.226 106.548 122.359L105.906 126.922L104.48 126.722ZM121.005 129.163C120.777 129.131 120.548 129.07 120.318 128.979C120.098 128.89 119.902 128.766 119.731 128.606C119.57 128.438 119.432 128.249 119.316 128.039C119.21 127.83 119.129 127.61 119.074 127.379C119.02 127.149 118.985 126.916 118.969 126.681C118.963 126.448 118.977 126.212 119.01 125.974C119.048 125.708 119.119 125.447 119.223 125.19C119.328 124.923 119.459 124.68 119.616 124.46C119.784 124.231 119.973 124.025 120.183 123.842C120.393 123.658 120.611 123.485 120.838 123.323C120.744 123.096 120.645 122.869 120.541 122.641C120.448 122.405 120.37 122.171 120.305 121.939C120.241 121.707 120.192 121.468 120.159 121.221C120.137 120.966 120.143 120.719 120.176 120.482C120.219 120.177 120.308 119.885 120.445 119.603C120.581 119.322 120.765 119.086 120.995 118.895C121.227 118.695 121.492 118.568 121.791 118.513C122.1 118.45 122.407 118.44 122.711 118.482C123.015 118.525 123.303 118.619 123.573 118.764C123.853 118.91 124.077 119.111 124.245 119.367C124.423 119.615 124.534 119.893 124.578 120.199C124.633 120.498 124.639 120.799 124.596 121.104C124.555 121.398 124.471 121.682 124.346 121.955C124.231 122.22 124.08 122.466 123.893 122.691C123.706 122.917 123.498 123.121 123.269 123.302C123.04 123.483 122.803 123.653 122.557 123.812C122.579 123.864 122.597 123.91 122.611 123.951C122.634 123.993 122.656 124.039 122.678 124.091L123.399 125.894L124.001 124.815L125.484 125.024L124.279 127.181C124.241 127.244 124.203 127.311 124.164 127.383C124.135 127.447 124.102 127.51 124.064 127.572L124.871 129.591L123.274 129.366L122.885 128.41C122.781 128.531 122.668 128.641 122.547 128.741C122.427 128.84 122.293 128.928 122.147 129.004C122.011 129.072 121.864 129.119 121.705 129.146C121.555 129.182 121.398 129.194 121.235 129.181L121.005 129.163ZM122.007 122.557C122.148 122.451 122.279 122.343 122.401 122.234C122.534 122.117 122.653 121.993 122.759 121.863C122.866 121.723 122.955 121.575 123.025 121.42C123.097 121.256 123.144 121.088 123.168 120.917C123.186 120.794 123.189 120.668 123.178 120.54C123.167 120.413 123.135 120.292 123.083 120.178C123.042 120.056 122.969 119.958 122.863 119.885C122.768 119.804 122.658 119.755 122.535 119.737C122.411 119.72 122.288 119.736 122.164 119.787C122.05 119.839 121.953 119.912 121.871 120.008C121.79 120.103 121.726 120.21 121.681 120.33C121.644 120.451 121.617 120.578 121.598 120.711C121.576 120.863 121.573 121.022 121.589 121.189C121.605 121.347 121.631 121.506 121.667 121.666C121.714 121.818 121.765 121.97 121.821 122.124C121.888 122.269 121.95 122.413 122.007 122.557ZM121.438 127.945C121.542 127.959 121.644 127.959 121.743 127.944C121.844 127.919 121.941 127.884 122.034 127.839C122.129 127.785 122.211 127.724 122.278 127.656C122.356 127.589 122.429 127.512 122.5 127.425L121.382 124.621C121.141 124.82 120.934 125.052 120.76 125.319C120.588 125.576 120.481 125.856 120.438 126.161C120.42 126.294 120.411 126.423 120.413 126.55C120.414 126.676 120.425 126.804 120.446 126.932C120.478 127.053 120.519 127.175 120.569 127.299C120.621 127.413 120.688 127.519 120.771 127.618C120.856 127.708 120.957 127.78 121.075 127.835C121.193 127.891 121.314 127.927 121.438 127.945ZM133.213 130.765L133.389 129.51L135.172 129.761L136.293 121.79L134.511 121.539L134.687 120.284L139.678 120.986L139.502 122.241L137.719 121.99L136.598 129.961L138.38 130.212L138.203 131.467L133.213 130.765ZM140.128 131.738L141.172 124.323L142.598 124.524L142.427 125.736C142.53 125.556 142.651 125.389 142.789 125.234C142.936 125.08 143.099 124.958 143.277 124.866C143.456 124.766 143.649 124.701 143.857 124.672C144.064 124.643 144.273 124.643 144.482 124.673C144.71 124.705 144.928 124.774 145.136 124.881C145.355 124.98 145.539 125.117 145.689 125.293C145.838 125.469 145.951 125.669 146.026 125.893C146.112 126.109 146.173 126.331 146.209 126.559C146.244 126.787 146.256 127.016 146.243 127.247C146.239 127.479 146.221 127.709 146.189 127.937L145.547 132.501L144.121 132.3L144.763 127.737C144.782 127.604 144.791 127.469 144.791 127.334C144.8 127.199 144.79 127.067 144.76 126.936C144.74 126.798 144.701 126.666 144.641 126.542C144.591 126.409 144.521 126.292 144.428 126.192C144.345 126.093 144.24 126.015 144.112 125.958C143.984 125.902 143.854 125.864 143.721 125.845C143.588 125.826 143.452 125.827 143.313 125.846C143.175 125.865 143.047 125.91 142.931 125.981C142.824 126.053 142.723 126.146 142.63 126.259C142.547 126.363 142.473 126.479 142.407 126.605C142.351 126.724 142.305 126.848 142.267 126.978C142.239 127.11 142.215 127.243 142.197 127.376L141.554 131.939L140.128 131.738ZM147.258 132.741L148.302 125.326L149.728 125.527L149.557 126.739C149.66 126.56 149.78 126.392 149.918 126.237C150.066 126.084 150.229 125.961 150.406 125.87C150.585 125.769 150.779 125.704 150.986 125.675C151.194 125.646 151.402 125.646 151.612 125.676C151.84 125.708 152.058 125.777 152.266 125.884C152.485 125.983 152.669 126.12 152.819 126.296C152.968 126.473 153.081 126.673 153.156 126.896C153.242 127.112 153.303 127.334 153.338 127.562C153.374 127.79 153.386 128.019 153.372 128.25C153.369 128.482 153.351 128.713 153.319 128.941L152.677 133.504L151.251 133.303L151.893 128.74C151.912 128.607 151.921 128.473 151.921 128.337C151.93 128.202 151.919 128.07 151.889 127.94C151.87 127.801 151.83 127.67 151.77 127.545C151.721 127.412 151.65 127.295 151.558 127.195C151.475 127.096 151.369 127.018 151.242 126.962C151.114 126.905 150.984 126.867 150.85 126.848C150.717 126.83 150.582 126.83 150.443 126.849C150.305 126.869 150.177 126.914 150.061 126.984C149.953 127.057 149.853 127.149 149.76 127.262C149.677 127.367 149.603 127.482 149.536 127.609C149.481 127.727 149.434 127.851 149.397 127.982C149.368 128.113 149.345 128.246 149.326 128.379L148.684 132.942L147.258 132.741ZM157.081 134.24C156.825 134.204 156.571 134.144 156.321 134.06C156.071 133.977 155.841 133.857 155.63 133.701C155.419 133.546 155.237 133.36 155.083 133.144C154.94 132.921 154.828 132.682 154.748 132.428C154.677 132.176 154.635 131.918 154.624 131.655C154.622 131.393 154.639 131.133 154.675 130.877L154.916 129.165C154.952 128.909 155.007 128.655 155.081 128.404C155.165 128.154 155.276 127.917 155.414 127.694C155.561 127.473 155.734 127.279 155.932 127.113C156.141 126.938 156.368 126.806 156.613 126.714C156.859 126.623 157.113 126.571 157.377 126.56C157.64 126.548 157.9 126.561 158.157 126.597C158.413 126.633 158.667 126.693 158.917 126.776C159.167 126.86 159.397 126.98 159.608 127.135C159.819 127.291 159.995 127.481 160.139 127.705C160.292 127.92 160.405 128.154 160.476 128.406C160.557 128.66 160.598 128.918 160.6 129.18C160.611 129.443 160.599 129.703 160.563 129.96L160.322 131.671C160.286 131.928 160.226 132.181 160.142 132.431C160.068 132.683 159.957 132.919 159.81 133.141C159.672 133.364 159.498 133.562 159.29 133.736C159.092 133.902 158.87 134.031 158.625 134.123C158.379 134.214 158.125 134.266 157.861 134.277C157.598 134.288 157.338 134.276 157.081 134.24ZM157.258 132.985C157.467 133.015 157.673 133 157.875 132.941C158.088 132.874 158.263 132.768 158.4 132.622C158.547 132.469 158.659 132.29 158.736 132.088C158.813 131.886 158.867 131.68 158.896 131.471L159.137 129.759C159.166 129.55 159.172 129.338 159.154 129.122C159.136 128.906 159.076 128.709 158.975 128.53C158.885 128.343 158.747 128.192 158.559 128.079C158.382 127.957 158.189 127.881 157.98 127.852C157.771 127.822 157.56 127.841 157.347 127.908C157.145 127.967 156.97 128.073 156.822 128.227C156.685 128.372 156.578 128.546 156.502 128.749C156.425 128.951 156.371 129.157 156.342 129.366L156.101 131.077C156.072 131.286 156.066 131.499 156.084 131.715C156.102 131.931 156.156 132.132 156.246 132.319C156.347 132.498 156.486 132.649 156.663 132.77C156.85 132.884 157.049 132.956 157.258 132.985ZM163.4 135.013C163.308 134.631 163.216 134.25 163.125 133.869C163.042 133.489 162.96 133.109 162.878 132.729C162.807 132.341 162.734 131.957 162.662 131.579C162.6 131.192 162.543 130.806 162.49 130.42C162.449 130.027 162.417 129.634 162.394 129.243C162.381 128.854 162.402 128.464 162.457 128.074L162.561 127.333L163.987 127.534L163.883 128.275C163.815 128.76 163.795 129.247 163.823 129.735C163.851 130.224 163.889 130.709 163.938 131.191C163.996 131.674 164.059 132.158 164.126 132.643C164.203 133.129 164.286 133.61 164.374 134.088C164.59 133.653 164.797 133.212 164.996 132.765C165.204 132.319 165.398 131.872 165.578 131.422C165.767 130.974 165.942 130.518 166.104 130.056C166.266 129.594 166.381 129.121 166.449 128.636L166.554 127.895L167.98 128.095L167.875 128.837C167.821 129.227 167.728 129.606 167.599 129.976C167.479 130.347 167.34 130.715 167.182 131.081C167.034 131.438 166.873 131.793 166.697 132.147C166.532 132.492 166.357 132.84 166.172 133.192C165.997 133.536 165.814 133.879 165.62 134.22C165.436 134.562 165.248 134.904 165.054 135.246L163.4 135.013ZM170.699 136.156C170.404 136.115 170.12 136.031 169.847 135.905C169.574 135.78 169.348 135.598 169.168 135.359C168.998 135.122 168.885 134.859 168.828 134.57C168.783 134.272 168.781 133.976 168.822 133.682C168.857 133.435 168.92 133.196 169.01 132.967C169.112 132.729 169.252 132.525 169.431 132.357C169.611 132.179 169.815 132.038 170.043 131.934C170.281 131.822 170.52 131.744 170.759 131.7C171.007 131.658 171.257 131.639 171.508 131.646C171.759 131.652 172.009 131.673 172.256 131.707L173.268 131.85L173.35 131.265C173.375 131.094 173.369 130.924 173.335 130.754C173.301 130.584 173.23 130.434 173.122 130.302C173.015 130.171 172.879 130.069 172.714 129.998C172.56 129.927 172.397 129.88 172.225 129.856C172.073 129.835 171.919 129.828 171.763 129.835C171.607 129.842 171.456 129.879 171.311 129.946C171.176 130.014 171.06 130.114 170.964 130.246C170.869 130.368 170.811 130.505 170.789 130.658L170.783 130.7L169.357 130.5L169.367 130.428C169.398 130.21 169.462 130 169.558 129.801C169.655 129.591 169.778 129.405 169.927 129.242C170.076 129.079 170.249 128.948 170.448 128.85C170.656 128.744 170.866 128.666 171.076 128.618C171.296 128.572 171.517 128.55 171.74 128.552C171.963 128.554 172.183 128.571 172.402 128.601C172.63 128.633 172.856 128.685 173.078 128.755C173.312 128.817 173.527 128.91 173.723 129.034C173.928 129.16 174.11 129.312 174.269 129.489C174.428 129.667 174.551 129.864 174.637 130.079C174.733 130.296 174.787 130.527 174.801 130.771C174.817 131.006 174.809 131.238 174.776 131.466L174.066 136.514L172.64 136.313L172.795 135.215C172.684 135.384 172.55 135.539 172.394 135.682C172.248 135.826 172.081 135.944 171.894 136.034C171.708 136.114 171.513 136.159 171.308 136.169C171.102 136.189 170.899 136.184 170.699 136.156ZM171.46 134.984C171.641 135.009 171.826 135.006 172.014 134.974C172.204 134.933 172.37 134.855 172.513 134.739C172.656 134.614 172.765 134.464 172.838 134.29C172.92 134.118 172.975 133.936 173.001 133.746L173.092 133.105L172.079 132.962C171.956 132.945 171.831 132.932 171.706 132.924C171.591 132.918 171.47 132.92 171.342 132.931C171.224 132.944 171.104 132.966 170.984 132.997C170.863 133.029 170.75 133.076 170.644 133.138C170.538 133.201 170.453 133.291 170.388 133.408C170.324 133.515 170.284 133.63 170.266 133.754C170.245 133.906 170.262 134.064 170.316 134.226C170.372 134.38 170.455 134.513 170.566 134.625C170.687 134.729 170.825 134.812 170.981 134.873C171.139 134.924 171.299 134.961 171.46 134.984ZM179.34 137.372C179.112 137.34 178.893 137.28 178.682 137.192C178.472 137.105 178.285 136.981 178.123 136.823C177.962 136.664 177.827 136.485 177.719 136.286C177.622 136.079 177.55 135.865 177.504 135.645C177.459 135.416 177.437 135.19 177.439 134.967C177.452 134.736 177.474 134.511 177.505 134.293L177.999 130.785L176.787 130.614L176.963 129.36L178.175 129.53L178.607 126.464L180.033 126.665L179.601 129.731L181.954 130.062L181.778 131.317L179.425 130.986L178.931 134.493C178.916 134.598 178.906 134.703 178.901 134.809C178.896 134.915 178.896 135.022 178.9 135.129C178.904 135.236 178.913 135.344 178.927 135.453C178.952 135.553 178.986 135.65 179.031 135.744C179.076 135.837 179.142 135.919 179.229 135.99C179.317 136.06 179.412 136.103 179.517 136.117C179.621 136.132 179.72 136.122 179.812 136.086C179.915 136.043 180.001 135.987 180.068 135.919C180.137 135.841 180.193 135.757 180.235 135.666C180.286 135.576 180.328 135.485 180.361 135.393C180.404 135.292 180.437 135.19 180.462 135.087C180.486 134.984 180.505 134.885 180.518 134.789L180.53 134.704L181.956 134.905L181.936 135.047C181.905 135.266 181.855 135.482 181.787 135.695C181.719 135.899 181.633 136.095 181.529 136.284C181.425 136.473 181.294 136.649 181.135 136.81C180.986 136.974 180.813 137.104 180.615 137.203C180.417 137.301 180.21 137.359 179.994 137.377C179.777 137.405 179.559 137.403 179.34 137.372ZM183.121 137.788L183.297 136.533L185.18 136.798L185.87 131.893L184.187 131.656L184.364 130.401L187.473 130.838L186.606 136.999L188.288 137.235L188.112 138.49L183.121 137.788ZM186.882 129.665C186.739 129.645 186.599 129.605 186.462 129.547C186.326 129.48 186.212 129.391 186.121 129.281C186.041 129.163 185.987 129.03 185.959 128.88C185.941 128.733 185.942 128.587 185.963 128.445C185.983 128.302 186.022 128.162 186.08 128.025C186.147 127.889 186.235 127.78 186.344 127.699C186.463 127.609 186.597 127.555 186.745 127.537C186.894 127.509 187.04 127.506 187.183 127.526C187.325 127.546 187.464 127.59 187.6 127.657C187.737 127.715 187.846 127.803 187.927 127.921C188.018 128.031 188.072 128.16 188.09 128.308C188.118 128.457 188.122 128.603 188.101 128.746C188.081 128.888 188.038 129.027 187.97 129.163C187.912 129.301 187.823 129.414 187.704 129.504C187.595 129.586 187.467 129.64 187.317 129.668C187.169 129.686 187.024 129.685 186.882 129.665ZM192.73 139.256C192.473 139.22 192.22 139.16 191.97 139.077C191.72 138.993 191.49 138.873 191.279 138.718C191.068 138.562 190.886 138.376 190.732 138.161C190.589 137.937 190.477 137.698 190.396 137.445C190.325 137.192 190.284 136.934 190.273 136.671C190.271 136.409 190.288 136.15 190.324 135.893L190.565 134.182C190.601 133.925 190.656 133.671 190.73 133.42C190.814 133.17 190.925 132.933 191.063 132.711C191.21 132.489 191.383 132.295 191.581 132.129C191.789 131.955 192.017 131.822 192.262 131.731C192.508 131.639 192.762 131.588 193.025 131.576C193.289 131.565 193.549 131.577 193.806 131.613C194.062 131.649 194.316 131.709 194.565 131.793C194.815 131.877 195.046 131.996 195.257 132.152C195.467 132.308 195.644 132.497 195.787 132.721C195.941 132.937 196.054 133.171 196.125 133.423C196.205 133.677 196.247 133.934 196.249 134.196C196.26 134.46 196.248 134.72 196.212 134.977L195.971 136.688C195.935 136.944 195.875 137.198 195.791 137.448C195.717 137.699 195.606 137.935 195.459 138.157C195.321 138.38 195.147 138.579 194.939 138.753C194.741 138.919 194.519 139.048 194.273 139.139C194.028 139.231 193.773 139.282 193.51 139.293C193.247 139.305 192.987 139.292 192.73 139.256ZM192.907 138.002C193.116 138.031 193.321 138.016 193.524 137.957C193.737 137.89 193.911 137.784 194.048 137.639C194.196 137.485 194.308 137.307 194.385 137.104C194.462 136.902 194.515 136.696 194.545 136.487L194.786 134.776C194.815 134.567 194.821 134.354 194.803 134.138C194.784 133.923 194.725 133.725 194.624 133.546C194.534 133.359 194.395 133.209 194.208 133.095C194.031 132.973 193.838 132.898 193.629 132.868C193.42 132.839 193.209 132.857 192.996 132.924C192.794 132.983 192.619 133.089 192.471 133.243C192.334 133.389 192.227 133.563 192.15 133.765C192.073 133.968 192.02 134.173 191.991 134.383L191.75 136.094C191.72 136.303 191.715 136.515 191.733 136.731C191.751 136.947 191.805 137.149 191.895 137.336C191.996 137.515 192.135 137.665 192.311 137.787C192.499 137.901 192.697 137.972 192.907 138.002ZM197.167 139.764L198.21 132.349L199.636 132.55L199.465 133.762C199.568 133.583 199.689 133.415 199.827 133.26C199.974 133.107 200.137 132.984 200.315 132.893C200.494 132.792 200.687 132.727 200.895 132.698C201.102 132.669 201.311 132.669 201.52 132.699C201.748 132.731 201.966 132.8 202.174 132.907C202.393 133.006 202.577 133.143 202.727 133.319C202.877 133.496 202.989 133.696 203.064 133.919C203.15 134.135 203.211 134.357 203.247 134.585C203.283 134.813 203.294 135.042 203.281 135.273C203.277 135.505 203.259 135.736 203.227 135.964L202.585 140.527L201.159 140.326L201.801 135.763C201.82 135.63 201.829 135.496 201.829 135.36C201.838 135.225 201.828 135.093 201.798 134.963C201.778 134.824 201.739 134.693 201.679 134.568C201.629 134.435 201.559 134.318 201.466 134.218C201.383 134.119 201.278 134.041 201.15 133.985C201.022 133.928 200.892 133.89 200.759 133.871C200.626 133.853 200.49 133.853 200.351 133.872C200.213 133.892 200.085 133.937 199.969 134.007C199.862 134.08 199.761 134.172 199.668 134.285C199.585 134.39 199.511 134.505 199.445 134.632C199.389 134.75 199.343 134.874 199.305 135.005C199.277 135.136 199.253 135.269 199.235 135.402L198.592 139.965L197.167 139.764ZM91.4162 142.051L92.891 131.57L95.3864 131.921C95.6336 131.956 95.8774 132.015 96.1179 132.097C96.3597 132.17 96.5819 132.278 96.7845 132.423C96.9966 132.569 97.1748 132.75 97.3192 132.964C97.4744 133.17 97.5882 133.394 97.6607 133.637C97.744 133.872 97.7873 134.116 97.7905 134.368C97.8033 134.622 97.7923 134.872 97.7575 135.12C97.7267 135.338 97.6769 135.554 97.6081 135.768C97.5489 135.982 97.4529 136.182 97.3202 136.367C97.1984 136.544 97.0453 136.701 96.861 136.84C96.6861 136.98 96.4963 137.089 96.2914 137.167C96.5157 137.296 96.7156 137.46 96.8912 137.659C97.0776 137.85 97.2213 138.069 97.3223 138.316C97.4341 138.554 97.4957 138.805 97.5071 139.069C97.5281 139.334 97.5205 139.594 97.4843 139.851C97.4455 140.127 97.3782 140.398 97.2824 140.666C97.1974 140.925 97.071 141.169 96.9031 141.398C96.7366 141.617 96.5354 141.807 96.2995 141.967C96.0744 142.12 95.8249 142.24 95.5508 142.327C95.2876 142.407 95.0148 142.451 94.7324 142.459C94.4609 142.46 94.1873 142.441 93.9116 142.402L91.4162 142.051ZM93.6929 136.205L94.7624 136.356C94.962 136.384 95.1575 136.373 95.3488 136.322C95.551 136.263 95.7198 136.166 95.8553 136.03C96.0016 135.886 96.1072 135.721 96.1719 135.536C96.2476 135.343 96.2994 135.147 96.3275 134.947C96.3556 134.748 96.3593 134.55 96.3385 134.353C96.3286 134.148 96.2725 133.961 96.1703 133.791C96.079 133.613 95.9436 133.473 95.7642 133.37C95.5943 133.269 95.4095 133.204 95.2099 133.176L94.1404 133.026L93.6929 136.205ZM93.0187 140.997L94.0882 141.147C94.2403 141.169 94.3944 141.176 94.5505 141.169C94.7161 141.163 94.8702 141.136 95.0126 141.088C95.1659 141.032 95.3029 140.954 95.4235 140.855C95.5536 140.757 95.662 140.641 95.7486 140.508C95.8352 140.375 95.9035 140.234 95.9534 140.086C96.0033 139.938 96.0397 139.783 96.0624 139.622C96.0838 139.47 96.0909 139.316 96.0838 139.159C96.0781 138.994 96.0519 138.835 96.0054 138.683C95.959 138.531 95.8867 138.39 95.7887 138.26C95.7002 138.131 95.5893 138.023 95.4561 137.937C95.3337 137.842 95.1937 137.769 95.0361 137.718C94.888 137.668 94.7379 137.632 94.5858 137.611L93.5164 137.46L93.0187 140.997ZM100.655 143.467C100.426 143.435 100.204 143.365 99.9862 143.257C99.7769 143.159 99.5974 143.023 99.4477 142.847C99.298 142.67 99.1801 142.474 99.0941 142.259C99.019 142.035 98.9635 141.809 98.9278 141.581C98.892 141.353 98.8759 141.123 98.8795 140.891C98.8926 140.66 98.9152 140.43 98.9473 140.202L99.5894 135.639L101.015 135.84L100.373 140.403C100.354 140.536 100.341 140.67 100.331 140.804C100.332 140.94 100.341 141.077 100.361 141.215C100.391 141.346 100.43 141.477 100.48 141.61C100.54 141.735 100.611 141.847 100.694 141.946C100.787 142.046 100.897 142.125 101.025 142.181C101.152 142.238 101.283 142.276 101.416 142.295C101.549 142.313 101.685 142.313 101.823 142.294C101.962 142.274 102.084 142.229 102.191 142.156C102.308 142.086 102.408 141.998 102.49 141.893C102.584 141.78 102.658 141.665 102.713 141.546C102.78 141.42 102.827 141.291 102.855 141.159C102.893 141.029 102.921 140.897 102.94 140.764L103.582 136.201L105.008 136.402L103.965 143.817L102.539 143.616L102.709 142.404C102.606 142.583 102.481 142.75 102.333 142.904C102.195 143.059 102.037 143.187 101.858 143.287C101.68 143.379 101.487 143.439 101.28 143.468C101.072 143.497 100.864 143.497 100.655 143.467ZM105.89 144.087L106.066 142.833L107.948 143.097L108.639 138.192L106.956 137.955L107.133 136.701L110.241 137.138L109.374 143.298L111.057 143.535L110.88 144.79L105.89 144.087ZM109.65 135.964C109.508 135.944 109.368 135.905 109.23 135.847C109.095 135.779 108.981 135.691 108.89 135.581C108.809 135.463 108.756 135.329 108.728 135.18C108.71 135.032 108.711 134.887 108.731 134.744C108.751 134.602 108.79 134.462 108.848 134.325C108.916 134.189 109.004 134.08 109.113 133.998C109.232 133.908 109.365 133.854 109.513 133.836C109.663 133.809 109.809 133.805 109.951 133.825C110.094 133.845 110.233 133.889 110.369 133.957C110.506 134.015 110.615 134.103 110.695 134.221C110.787 134.331 110.841 134.46 110.859 134.607C110.887 134.757 110.89 134.903 110.87 135.045C110.85 135.188 110.806 135.327 110.739 135.463C110.681 135.6 110.592 135.714 110.473 135.804C110.364 135.885 110.235 135.94 110.086 135.967C109.938 135.985 109.793 135.984 109.65 135.964ZM113.019 145.091L113.196 143.836L115.078 144.101L116.2 136.13L114.517 135.893L114.694 134.638L117.802 135.076L116.504 144.301L118.187 144.538L118.01 145.793L113.019 145.091ZM121.987 146.469C121.759 146.437 121.536 146.367 121.318 146.259C121.1 146.16 120.91 146.027 120.749 145.859C120.6 145.682 120.477 145.486 120.382 145.269C120.297 145.044 120.237 144.817 120.201 144.589C120.165 144.361 120.149 144.131 120.153 143.899C120.167 143.658 120.19 143.424 120.222 143.196L120.463 141.485C120.495 141.257 120.537 141.03 120.588 140.804C120.65 140.571 120.73 140.349 120.827 140.14C120.924 139.931 121.044 139.734 121.186 139.551C121.339 139.359 121.511 139.204 121.702 139.085C121.905 138.959 122.124 138.878 122.362 138.844C122.601 138.8 122.834 138.794 123.062 138.826C123.271 138.855 123.472 138.913 123.663 138.998C123.866 139.075 124.044 139.187 124.198 139.335C124.351 139.482 124.473 139.654 124.561 139.851C124.661 140.04 124.74 140.235 124.799 140.437L125.403 136.145L126.829 136.346L125.354 146.826L123.928 146.626L124.1 145.399C123.988 145.578 123.857 145.748 123.708 145.911C123.57 146.067 123.407 146.194 123.218 146.293C123.03 146.393 122.828 146.452 122.612 146.47C122.404 146.499 122.196 146.498 121.987 146.469ZM122.748 145.296C122.957 145.326 123.158 145.31 123.351 145.25C123.554 145.182 123.725 145.07 123.863 144.915C124.001 144.76 124.103 144.586 124.17 144.391C124.247 144.189 124.3 143.983 124.329 143.774L124.57 142.063C124.599 141.854 124.604 141.646 124.585 141.44C124.576 141.225 124.527 141.024 124.437 140.837C124.347 140.65 124.213 140.5 124.035 140.388C123.868 140.267 123.68 140.192 123.47 140.163C123.261 140.134 123.055 140.153 122.851 140.221C122.659 140.281 122.493 140.389 122.355 140.544C122.217 140.699 122.109 140.878 122.033 141.08C121.966 141.275 121.919 141.476 121.889 141.686L121.648 143.397C121.619 143.606 121.609 143.818 121.617 144.032C121.637 144.238 121.691 144.435 121.781 144.622C121.871 144.809 122 144.963 122.167 145.084C122.345 145.196 122.539 145.267 122.748 145.296ZM127.279 147.097L127.455 145.842L129.338 146.107L130.028 141.202L128.345 140.965L128.522 139.71L131.63 140.148L130.764 146.308L132.446 146.545L132.27 147.8L127.279 147.097ZM131.039 138.974C130.897 138.954 130.757 138.915 130.62 138.857C130.484 138.789 130.37 138.701 130.279 138.591C130.199 138.473 130.145 138.339 130.117 138.19C130.099 138.042 130.1 137.897 130.121 137.754C130.141 137.612 130.18 137.472 130.238 137.334C130.305 137.198 130.393 137.09 130.502 137.008C130.621 136.918 130.755 136.864 130.903 136.846C131.052 136.819 131.198 136.815 131.34 136.835C131.483 136.855 131.622 136.899 131.758 136.967C131.895 137.025 132.004 137.113 132.085 137.231C132.176 137.341 132.23 137.469 132.248 137.617C132.276 137.767 132.28 137.913 132.259 138.055C132.239 138.198 132.196 138.337 132.128 138.473C132.07 138.61 131.981 138.724 131.862 138.814C131.753 138.895 131.625 138.95 131.475 138.977C131.327 138.995 131.182 138.994 131.039 138.974ZM134.195 148.071L135.238 140.656L136.664 140.856L136.494 142.068C136.596 141.889 136.717 141.722 136.855 141.567C137.003 141.413 137.165 141.29 137.343 141.199C137.522 141.098 137.715 141.033 137.923 141.004C138.131 140.975 138.339 140.976 138.548 141.005C138.776 141.037 138.994 141.107 139.202 141.213C139.421 141.312 139.605 141.449 139.755 141.626C139.905 141.802 140.017 142.002 140.092 142.226C140.178 142.441 140.239 142.663 140.275 142.891C140.311 143.119 140.322 143.349 140.309 143.579C140.305 143.812 140.288 144.042 140.255 144.27L139.613 148.833L138.187 148.632L138.829 144.069C138.848 143.936 138.857 143.802 138.857 143.666C138.866 143.532 138.856 143.399 138.826 143.269C138.806 143.131 138.767 142.999 138.707 142.874C138.658 142.741 138.587 142.625 138.494 142.524C138.411 142.425 138.306 142.348 138.178 142.291C138.05 142.234 137.92 142.196 137.787 142.178C137.654 142.159 137.518 142.159 137.38 142.178C137.241 142.198 137.114 142.243 136.997 142.314C136.89 142.386 136.79 142.478 136.696 142.591C136.614 142.696 136.539 142.812 136.473 142.938C136.418 143.056 136.371 143.18 136.333 143.311C136.305 143.443 136.282 143.575 136.263 143.708L135.621 148.271L134.195 148.071ZM143.558 152.631C143.339 152.6 143.123 152.555 142.908 152.496C142.703 152.438 142.506 152.357 142.317 152.253C142.127 152.158 141.95 152.036 141.787 151.887C141.623 151.738 141.487 151.569 141.378 151.379C141.279 151.19 141.206 150.986 141.159 150.766C141.122 150.548 141.119 150.329 141.149 150.111L142.575 150.311C142.564 150.465 142.587 150.609 142.646 150.743C142.714 150.879 142.805 150.988 142.919 151.072C143.032 151.166 143.158 151.232 143.298 151.271C143.446 151.321 143.592 151.356 143.734 151.376C143.867 151.395 144.003 151.395 144.142 151.375C144.28 151.356 144.408 151.311 144.524 151.24C144.641 151.169 144.745 151.082 144.837 150.979C144.929 150.875 145.004 150.76 145.061 150.632C145.116 150.514 145.163 150.385 145.202 150.245C145.24 150.114 145.268 149.983 145.287 149.85L145.49 148.409C145.377 148.587 145.247 148.758 145.098 148.921C144.96 149.076 144.796 149.204 144.608 149.303C144.419 149.403 144.217 149.461 144.001 149.48C143.794 149.509 143.585 149.508 143.376 149.479C143.148 149.447 142.925 149.377 142.708 149.268C142.489 149.17 142.299 149.036 142.139 148.868C141.989 148.692 141.866 148.496 141.771 148.279C141.686 148.053 141.626 147.827 141.59 147.599C141.554 147.371 141.538 147.141 141.542 146.909C141.556 146.668 141.58 146.434 141.612 146.206L141.852 144.495C141.885 144.267 141.926 144.04 141.977 143.814C142.039 143.581 142.119 143.359 142.216 143.15C142.314 142.941 142.433 142.744 142.575 142.561C142.728 142.369 142.901 142.214 143.092 142.095C143.294 141.968 143.514 141.888 143.751 141.853C143.99 141.81 144.223 141.804 144.452 141.836C144.661 141.865 144.861 141.922 145.053 142.008C145.255 142.085 145.433 142.197 145.587 142.345C145.741 142.492 145.862 142.664 145.951 142.861C146.05 143.05 146.129 143.245 146.188 143.447L146.361 142.221L147.787 142.421L146.713 150.05C146.677 150.307 146.622 150.556 146.55 150.798C146.475 151.049 146.37 151.282 146.233 151.495C146.095 151.718 145.927 151.917 145.728 152.093C145.528 152.268 145.311 152.403 145.075 152.495C144.839 152.588 144.589 152.64 144.326 152.652C144.07 152.674 143.814 152.667 143.558 152.631ZM144.137 148.306C144.346 148.336 144.547 148.32 144.74 148.26C144.943 148.192 145.114 148.08 145.252 147.925C145.391 147.77 145.493 147.595 145.559 147.401C145.636 147.199 145.689 146.993 145.718 146.784L145.959 145.073C145.989 144.863 145.994 144.656 145.974 144.449C145.966 144.235 145.916 144.034 145.826 143.847C145.736 143.66 145.602 143.51 145.424 143.398C145.257 143.277 145.069 143.202 144.86 143.173C144.65 143.143 144.444 143.163 144.241 143.231C144.048 143.291 143.883 143.399 143.744 143.554C143.606 143.709 143.499 143.888 143.422 144.09C143.356 144.285 143.308 144.486 143.278 144.695L143.038 146.407C143.008 146.616 142.998 146.827 143.006 147.042C143.026 147.248 143.081 147.445 143.171 147.632C143.261 147.819 143.389 147.973 143.556 148.094C143.735 148.206 143.928 148.277 144.137 148.306ZM155.584 151.08L155.586 151.066C155.621 150.819 155.661 150.568 155.707 150.312C155.752 150.057 155.807 149.808 155.87 149.565C155.943 149.323 156.034 149.088 156.143 148.861C156.254 148.625 156.378 148.4 156.515 148.187C156.661 147.975 156.819 147.779 156.99 147.599C157.162 147.41 157.346 147.237 157.543 147.081C157.741 146.915 157.946 146.764 158.159 146.629C158.372 146.495 158.589 146.365 158.81 146.241C159.04 146.118 159.262 145.99 159.475 145.855C159.697 145.721 159.894 145.565 160.064 145.385C160.237 145.196 160.378 144.983 160.489 144.747C160.6 144.51 160.672 144.269 160.707 144.021C160.737 143.812 160.742 143.605 160.722 143.398C160.712 143.193 160.662 142.997 160.572 142.81C160.492 142.624 160.363 142.47 160.186 142.349C160.01 142.227 159.821 142.152 159.622 142.124C159.432 142.097 159.241 142.109 159.05 142.159C158.869 142.202 158.707 142.286 158.563 142.411C158.429 142.538 158.321 142.687 158.239 142.86C158.166 143.034 158.116 143.216 158.089 143.406L158.081 143.463L156.655 143.262L156.669 143.162C156.704 142.915 156.762 142.676 156.843 142.445C156.933 142.215 157.05 142.004 157.194 141.811C157.337 141.618 157.507 141.448 157.702 141.301C157.906 141.155 158.121 141.045 158.345 140.97C158.579 140.886 158.818 140.842 159.061 140.838C159.315 140.825 159.561 140.835 159.798 140.869C160.055 140.905 160.303 140.969 160.542 141.061C160.792 141.144 161.018 141.263 161.219 141.418C161.43 141.573 161.607 141.763 161.75 141.987C161.894 142.201 162.002 142.434 162.073 142.687C162.145 142.93 162.183 143.182 162.184 143.444C162.186 143.706 162.169 143.965 162.133 144.222C162.088 144.545 162 144.858 161.87 145.159C161.741 145.461 161.566 145.737 161.347 145.987C161.137 146.239 160.897 146.462 160.627 146.657C160.359 146.842 160.082 147.021 159.795 147.194C159.52 147.359 159.248 147.534 158.98 147.719C158.711 147.904 158.463 148.117 158.236 148.356C158.008 148.596 157.811 148.859 157.645 149.145C157.48 149.423 157.351 149.72 157.258 150.036L161.179 150.588L161.003 151.843L155.584 151.08ZM165.407 152.579C165.15 152.543 164.897 152.483 164.647 152.399C164.397 152.316 164.167 152.196 163.956 152.04C163.745 151.885 163.563 151.699 163.409 151.483C163.266 151.26 163.154 151.021 163.073 150.767C163.002 150.515 162.961 150.257 162.95 149.994C162.948 149.732 162.965 149.472 163.001 149.216L163.673 144.439C163.709 144.182 163.764 143.928 163.839 143.677C163.922 143.427 164.033 143.19 164.171 142.967C164.319 142.746 164.491 142.552 164.689 142.386C164.898 142.212 165.125 142.079 165.371 141.987C165.616 141.896 165.871 141.844 166.134 141.833C166.397 141.822 166.657 141.834 166.914 141.87C167.171 141.906 167.424 141.966 167.674 142.05C167.924 142.133 168.154 142.253 168.365 142.409C168.576 142.564 168.753 142.754 168.896 142.978C169.05 143.193 169.162 143.427 169.233 143.68C169.314 143.933 169.355 144.191 169.357 144.453C169.368 144.717 169.356 144.977 169.32 145.233L168.648 150.01C168.612 150.267 168.552 150.52 168.468 150.77C168.394 151.022 168.283 151.258 168.136 151.48C167.998 151.703 167.824 151.901 167.616 152.075C167.418 152.241 167.196 152.37 166.95 152.462C166.705 152.553 166.45 152.605 166.187 152.616C165.924 152.627 165.664 152.615 165.407 152.579ZM164.702 147.463L167.808 145.646L167.894 145.033C167.923 144.824 167.929 144.611 167.911 144.395C167.893 144.179 167.833 143.982 167.733 143.803C167.643 143.616 167.504 143.465 167.316 143.352C167.139 143.23 166.946 143.154 166.737 143.125C166.528 143.096 166.317 143.114 166.104 143.181C165.902 143.24 165.727 143.346 165.579 143.5C165.443 143.646 165.336 143.82 165.259 144.022C165.182 144.224 165.129 144.43 165.099 144.639L164.702 147.463ZM165.584 151.324C165.793 151.354 165.998 151.339 166.201 151.28C166.414 151.213 166.588 151.107 166.725 150.961C166.873 150.808 166.985 150.629 167.062 150.427C167.139 150.225 167.192 150.019 167.222 149.81L167.619 146.986L164.513 148.803L164.427 149.416C164.398 149.626 164.392 149.838 164.41 150.054C164.428 150.27 164.482 150.471 164.572 150.658C164.673 150.837 164.812 150.988 164.988 151.11C165.176 151.223 165.374 151.295 165.584 151.324ZM172.537 153.582C172.299 153.549 172.064 153.496 171.832 153.425C171.599 153.353 171.381 153.255 171.175 153.129C170.97 153.003 170.784 152.846 170.616 152.658C170.459 152.471 170.332 152.269 170.236 152.052C170.152 151.826 170.092 151.595 170.058 151.358C170.034 151.112 170.04 150.865 170.075 150.618C170.116 150.324 170.199 150.044 170.323 149.781C170.458 149.509 170.624 149.261 170.821 149.036C171.018 148.802 171.236 148.6 171.473 148.43C171.712 148.25 171.963 148.082 172.228 147.926C172.043 147.725 171.869 147.512 171.707 147.285C171.554 147.06 171.423 146.824 171.312 146.575C171.213 146.319 171.143 146.057 171.103 145.79C171.064 145.513 171.064 145.241 171.101 144.975C171.133 144.747 171.189 144.527 171.267 144.315C171.356 144.095 171.466 143.897 171.598 143.722C171.74 143.538 171.902 143.382 172.085 143.252C172.279 143.115 172.483 143.012 172.696 142.945C172.909 142.878 173.127 142.841 173.351 142.834C173.585 142.828 173.816 142.841 174.044 142.873C174.272 142.905 174.493 142.956 174.706 143.025C174.929 143.095 175.133 143.192 175.319 143.315C175.506 143.438 175.668 143.592 175.807 143.776C175.957 143.952 176.07 144.147 176.146 144.362C176.234 144.568 176.285 144.788 176.301 145.023C176.327 145.25 176.324 145.477 176.292 145.705C176.254 145.972 176.179 146.232 176.065 146.488C175.953 146.734 175.809 146.966 175.633 147.183C175.468 147.393 175.276 147.584 175.058 147.757C174.849 147.931 174.628 148.089 174.395 148.231C174.606 148.454 174.801 148.685 174.981 148.924C175.162 149.153 175.315 149.407 175.441 149.687C175.568 149.956 175.654 150.24 175.699 150.537C175.755 150.826 175.763 151.118 175.721 151.413C175.687 151.66 175.619 151.898 175.519 152.126C175.43 152.346 175.309 152.552 175.156 152.744C175.014 152.927 174.836 153.087 174.623 153.222C174.42 153.358 174.202 153.458 173.97 153.522C173.738 153.587 173.501 153.621 173.258 153.626C173.015 153.63 172.774 153.616 172.537 153.582ZM173.424 147.28C173.593 147.177 173.754 147.069 173.906 146.955C174.068 146.832 174.213 146.698 174.341 146.551C174.477 146.405 174.592 146.247 174.684 146.075C174.777 145.895 174.837 145.709 174.864 145.519C174.887 145.357 174.885 145.197 174.859 145.038C174.834 144.87 174.773 144.721 174.675 144.591C174.587 144.453 174.471 144.349 174.326 144.28C174.182 144.202 174.029 144.151 173.867 144.128C173.705 144.105 173.545 144.112 173.385 144.148C173.226 144.174 173.081 144.241 172.949 144.348C172.828 144.447 172.733 144.575 172.663 144.729C172.594 144.875 172.548 145.028 172.525 145.19C172.499 145.38 172.505 145.575 172.545 145.774C172.586 145.964 172.647 146.148 172.729 146.324C172.821 146.502 172.923 146.671 173.036 146.832C173.16 146.986 173.289 147.135 173.424 147.28ZM172.713 152.327C172.894 152.353 173.078 152.355 173.265 152.332C173.454 152.301 173.619 152.232 173.76 152.126C173.91 152.021 174.031 151.888 174.121 151.726C174.213 151.555 174.272 151.379 174.297 151.198C174.328 150.979 174.315 150.764 174.257 150.552C174.211 150.333 174.133 150.128 174.024 149.938C173.916 149.739 173.787 149.556 173.636 149.389C173.494 149.224 173.347 149.062 173.195 148.905C173.005 149.014 172.815 149.128 172.623 149.246C172.442 149.366 172.272 149.507 172.113 149.669C171.956 149.821 171.82 149.996 171.705 150.193C171.601 150.382 171.533 150.586 171.503 150.805C171.477 150.985 171.485 151.171 171.526 151.361C171.569 151.541 171.643 151.702 171.749 151.843C171.865 151.985 172.009 152.097 172.181 152.18C172.355 152.253 172.533 152.302 172.713 152.327Z" fill="#FBFEFC"/>
<path d="M74.123 169.46L187.236 185.378" stroke="#FBFEFC" stroke-width="2"/>
<path d="M77.0562 16.8972L97.3411 13.0959L106.569 14.3944L110.066 19.7434L117.285 15.9023L206.818 28.5012L227.357 37.9393" stroke="#FBFEFC" stroke-width="2"/>
<rect x="11.9316" y="154.071" width="45.6911" height="3.6072" transform="rotate(8.00997 11.9316 154.071)" fill="#FBFEFC"/>
<path d="M57.156 160.456L69.0403 167.697L68.5384 171.204L55.5124 163.689L57.156 160.456Z" fill="#FBFEFC"/>
<path d="M206.815 181.727L192.786 185.305L192.285 188.742L207.816 185.305L206.815 181.727Z" fill="#FBFEFC"/>
<rect x="206.606" y="181.465" width="43.8875" height="3.6072" transform="rotate(8.00997 206.606 181.465)" fill="#FBFEFC"/>
<rect x="68.6289" y="167.692" width="125.649" height="3.6072" transform="rotate(8.00997 68.6289 167.692)" fill="#FBFEFC"/>
</svg>
