<svg width="270" height="192" viewBox="0 0 270 192" fill="none" xmlns="http://www.w3.org/2000/svg">
<path fill-rule="evenodd" clip-rule="evenodd" d="M181.925 2.73626L186.601 13.8041L252.113 18.6865L241.211 164.973L0.197266 147.012L11.0995 0.724609L105.1 7.73015L110.136 2.73257L181.925 2.73626ZM110.632 3.93499L105.558 8.96999L12.2092 2.01304L1.4857 145.902L240.101 163.685L250.825 19.7962L185.78 14.9486L181.128 3.93861L110.632 3.93499Z" fill="#FBFEFC"/>
<path d="M31.6636 10.1665L269.797 43.6763L249.356 188.938L11.2227 155.428L31.6636 10.1665Z" fill="black"/>
<path d="M77.6627 11.1744L227.091 32.2017L226.17 38.7504L76.7411 17.723L77.6627 11.1744Z" fill="black"/>
<path d="M56.7195 160.01L206.148 181.037L205.227 187.586L55.798 166.558L56.7195 160.01Z" fill="black"/>
<path fill-rule="evenodd" clip-rule="evenodd" d="M31.664 10.1732L76.9082 16.5403L76.7409 17.7286L32.6851 11.5287L12.5789 154.411L56.6348 160.611L56.4676 161.799L11.2234 155.432L31.664 10.1732ZM244.203 41.2936L226.17 38.7559L226.337 37.5676L244.619 40.1402L248.923 42.7919L252.359 41.2294L269.795 43.683L249.355 188.942L205.896 182.826L206.064 181.638L248.334 187.586L268.44 44.7041L252.537 42.4663L248.838 44.1489L244.203 41.2936Z" fill="#FBFEFC"/>
<path d="M206.186 112.24L208.153 98.2657L210.111 98.5413L211.094 106.3L214.18 99.1138L216.138 99.3894L214.172 113.364L212.251 113.093L212.645 110.299C212.759 109.487 212.886 108.678 213.025 107.87C213.179 107.052 213.351 106.242 213.541 105.442L213.853 104.051C213.927 103.712 214.001 103.367 214.077 103.016C214.152 102.665 214.22 102.319 214.281 101.978L214.284 101.959L211.398 108.688L210.143 108.512L209.226 101.248L209.223 101.267C209.188 101.611 209.158 101.962 209.133 102.32C209.109 102.679 209.085 103.031 209.062 103.377L208.978 104.8C208.94 105.622 208.876 106.446 208.785 107.274C208.709 108.09 208.614 108.904 208.5 109.715L208.107 112.51L206.186 112.24Z" fill="#FBFEFC"/>
<path d="M197.345 110.996L199.312 97.0216L202.734 97.5032C203.102 97.5549 203.458 97.6438 203.802 97.7698C204.146 97.8958 204.458 98.0689 204.737 98.2892C205.016 98.5094 205.25 98.775 205.439 99.086C205.641 99.3987 205.787 99.736 205.878 100.098C205.984 100.449 206.037 100.805 206.038 101.167C206.039 101.529 206.014 101.888 205.964 102.243C205.913 102.61 205.837 102.968 205.736 103.316C205.635 103.664 205.486 103.992 205.287 104.3C205.101 104.61 204.868 104.887 204.588 105.132C204.321 105.379 204.022 105.576 203.691 105.723C203.362 105.858 203.014 105.938 202.649 105.964C202.283 105.99 201.916 105.978 201.549 105.926L200.028 105.712L199.247 111.263L197.345 110.996ZM200.263 104.039L201.784 104.253C201.987 104.281 202.187 104.284 202.384 104.26C202.596 104.225 202.787 104.155 202.957 104.049C203.127 103.944 203.274 103.816 203.399 103.666C203.538 103.504 203.646 103.332 203.723 103.149C203.815 102.955 203.887 102.765 203.94 102.578C203.993 102.379 204.035 102.178 204.063 101.975C204.09 101.785 204.105 101.587 204.108 101.38C204.111 101.174 204.095 100.971 204.058 100.772C204.034 100.575 203.977 100.386 203.886 100.205C203.809 100.014 203.704 99.8436 203.57 99.6954C203.435 99.5473 203.27 99.4336 203.075 99.3543C202.893 99.2642 202.702 99.2049 202.499 99.1763L200.978 98.9623L200.263 104.039Z" fill="#FBFEFC"/>
<path d="M191.145 110.279C190.803 110.23 190.465 110.151 190.132 110.039C189.798 109.927 189.491 109.768 189.21 109.56C188.929 109.353 188.686 109.105 188.481 108.818C188.29 108.52 188.141 108.201 188.034 107.863C187.939 107.527 187.884 107.183 187.868 106.832C187.866 106.482 187.889 106.136 187.937 105.794L188.833 99.4249C188.881 99.0827 188.955 98.744 189.054 98.4089C189.165 98.0756 189.313 97.7603 189.497 97.4631C189.694 97.1676 189.924 96.9092 190.188 96.6878C190.466 96.4555 190.769 96.2784 191.096 96.1564C191.424 96.0344 191.763 95.9658 192.114 95.9506C192.465 95.9354 192.812 95.9519 193.154 96C193.496 96.0482 193.834 96.128 194.167 96.2396C194.501 96.3511 194.808 96.5106 195.089 96.7182C195.37 96.9258 195.606 97.1788 195.797 97.477C196.002 97.7644 196.152 98.0764 196.246 98.4129C196.354 98.7511 196.409 99.095 196.412 99.4443C196.427 99.7955 196.41 100.142 196.362 100.484L195.466 106.854C195.418 107.196 195.338 107.534 195.226 107.867C195.128 108.202 194.98 108.517 194.783 108.813C194.599 109.11 194.368 109.375 194.09 109.607C193.826 109.829 193.53 110 193.203 110.122C192.875 110.244 192.536 110.313 192.185 110.328C191.834 110.343 191.487 110.327 191.145 110.279ZM190.205 103.457L194.346 101.034L194.461 100.217C194.5 99.938 194.508 99.6547 194.484 99.3669C194.459 99.0791 194.38 98.8159 194.246 98.5773C194.126 98.3277 193.941 98.1272 193.69 97.9756C193.455 97.8132 193.198 97.7124 192.919 97.6731C192.64 97.6339 192.358 97.6589 192.074 97.7482C191.805 97.8266 191.572 97.9683 191.375 98.1733C191.192 98.3673 191.05 98.5994 190.947 98.8693C190.845 99.1392 190.774 99.4136 190.734 99.6925L190.205 103.457ZM191.38 108.605C191.659 108.645 191.933 108.625 192.203 108.547C192.487 108.457 192.72 108.316 192.903 108.122C193.099 107.917 193.249 107.679 193.352 107.409C193.454 107.139 193.525 106.865 193.565 106.586L194.094 102.822L189.953 105.244L189.838 106.062C189.799 106.341 189.791 106.624 189.815 106.912C189.84 107.199 189.912 107.468 190.032 107.718C190.166 107.956 190.351 108.157 190.587 108.319C190.837 108.471 191.101 108.566 191.38 108.605Z" fill="#FBFEFC"/>
<path d="M181.639 108.941C181.296 108.893 180.959 108.813 180.625 108.701C180.292 108.59 179.985 108.43 179.704 108.223C179.423 108.015 179.18 107.768 178.975 107.48C178.784 107.182 178.635 106.864 178.527 106.525C178.432 106.189 178.377 105.845 178.362 105.494C178.36 105.144 178.382 104.799 178.431 104.456L179.327 98.0872C179.375 97.745 179.448 97.4063 179.547 97.0712C179.659 96.7379 179.807 96.4226 179.991 96.1254C180.187 95.8299 180.418 95.5715 180.681 95.3501C180.96 95.1178 181.263 94.9406 181.59 94.8187C181.917 94.6967 182.257 94.6281 182.608 94.6129C182.959 94.5977 183.306 94.6141 183.648 94.6623C183.99 94.7105 184.328 94.7903 184.661 94.9018C184.994 95.0134 185.302 95.1729 185.583 95.3805C185.864 95.5881 186.099 95.841 186.29 96.1393C186.495 96.4267 186.645 96.7387 186.74 97.0751C186.848 97.4134 186.903 97.7572 186.905 98.1066C186.92 98.4578 186.904 98.8044 186.856 99.1467L185.96 105.516C185.911 105.858 185.832 106.196 185.72 106.529C185.621 106.864 185.473 107.18 185.277 107.475C185.093 107.772 184.862 108.037 184.583 108.269C184.319 108.491 184.024 108.662 183.696 108.784C183.369 108.906 183.03 108.975 182.679 108.99C182.327 109.005 181.981 108.989 181.639 108.941ZM180.698 102.119L184.84 99.6967L184.955 98.8791C184.994 98.6003 185.001 98.317 184.977 98.0292C184.953 97.7414 184.874 97.4782 184.739 97.2395C184.619 96.99 184.434 96.7894 184.184 96.6379C183.948 96.4755 183.691 96.3747 183.412 96.3354C183.134 96.2962 182.852 96.3212 182.568 96.4105C182.299 96.4889 182.065 96.6306 181.868 96.8356C181.686 97.0296 181.543 97.2616 181.441 97.5316C181.338 97.8015 181.267 98.0759 181.228 98.3548L180.698 102.119ZM181.874 107.268C182.153 107.307 182.427 107.287 182.697 107.209C182.981 107.12 183.214 106.978 183.396 106.784C183.593 106.579 183.743 106.341 183.846 106.072C183.948 105.802 184.019 105.527 184.058 105.248L184.588 101.484L180.447 103.906L180.332 104.724C180.293 105.003 180.285 105.286 180.309 105.574C180.333 105.862 180.405 106.13 180.525 106.38C180.66 106.619 180.845 106.819 181.081 106.982C181.331 107.133 181.595 107.228 181.874 107.268Z" fill="#FBFEFC"/>
<path d="M172.132 107.603C171.904 107.571 171.675 107.5 171.445 107.39C171.226 107.295 171.045 107.153 170.904 106.965C170.762 106.777 170.669 106.563 170.625 106.325C170.594 106.088 170.595 105.849 170.629 105.608C170.661 105.38 170.725 105.156 170.821 104.937C170.93 104.707 171.079 104.521 171.267 104.379C171.455 104.238 171.668 104.151 171.905 104.12C172.156 104.078 172.396 104.073 172.624 104.105C172.853 104.137 173.075 104.207 173.293 104.315C173.525 104.412 173.712 104.555 173.853 104.743C173.995 104.931 174.08 105.15 174.11 105.4C174.154 105.638 174.16 105.872 174.128 106.1C174.094 106.341 174.023 106.57 173.914 106.787C173.819 107.007 173.677 107.187 173.489 107.329C173.301 107.47 173.082 107.556 172.833 107.585C172.594 107.629 172.36 107.635 172.132 107.603ZM173.074 100.911C172.846 100.879 172.616 100.814 172.384 100.717C172.166 100.608 171.987 100.46 171.845 100.272C171.704 100.084 171.611 99.871 171.567 99.6322C171.538 99.3824 171.539 99.1435 171.571 98.9153C171.605 98.6745 171.67 98.4445 171.765 98.2252C171.873 98.0078 172.021 97.8283 172.209 97.6867C172.397 97.5451 172.61 97.4587 172.847 97.4274C173.098 97.3852 173.338 97.3802 173.566 97.4123C173.794 97.4444 174.017 97.5145 174.235 97.6227C174.467 97.72 174.653 97.8626 174.795 98.0505C174.936 98.2385 175.023 98.451 175.054 98.6881C175.098 98.9269 175.103 99.1668 175.069 99.4076C175.037 99.6358 174.966 99.8649 174.856 100.095C174.761 100.314 174.619 100.495 174.431 100.636C174.243 100.778 174.023 100.87 173.772 100.912C173.535 100.943 173.302 100.943 173.074 100.911Z" fill="#FBFEFC"/>
<path d="M159.035 105.605L159.038 105.586C159.084 105.256 159.138 104.921 159.198 104.581C159.259 104.241 159.332 103.908 159.416 103.584C159.513 103.262 159.635 102.949 159.781 102.646C159.929 102.331 160.094 102.031 160.276 101.747C160.471 101.464 160.682 101.203 160.91 100.963C161.139 100.711 161.385 100.481 161.647 100.272C161.91 100.051 162.184 99.8501 162.468 99.6703C162.752 99.4905 163.041 99.3179 163.336 99.1525C163.643 98.989 163.939 98.8173 164.223 98.6375C164.519 98.4595 164.781 98.2507 165.009 98.0113C165.238 97.7592 165.427 97.4755 165.575 97.1602C165.722 96.845 165.819 96.5225 165.866 96.193C165.905 95.9141 165.912 95.6372 165.886 95.3621C165.873 95.0888 165.806 94.8273 165.686 94.5778C165.579 94.33 165.407 94.1249 165.171 93.9625C164.936 93.8001 164.685 93.7001 164.419 93.6627C164.165 93.627 163.911 93.6429 163.656 93.7104C163.415 93.767 163.199 93.8788 163.008 94.0458C162.829 94.2145 162.684 94.4139 162.574 94.644C162.477 94.8759 162.411 95.1186 162.375 95.3721L162.364 95.4482L160.463 95.1807L160.482 95.0476C160.528 94.718 160.605 94.3993 160.713 94.0913C160.834 93.7851 160.99 93.5033 161.181 93.2459C161.373 92.9884 161.598 92.7617 161.859 92.5656C162.132 92.3714 162.417 92.2241 162.716 92.1239C163.029 92.0129 163.347 91.9543 163.671 91.9482C164.01 91.9312 164.337 91.9449 164.654 91.9895C164.996 92.0377 165.327 92.123 165.646 92.2454C165.979 92.3569 166.28 92.5156 166.548 92.7214C166.829 92.929 167.065 93.1819 167.256 93.4802C167.448 93.7658 167.592 94.0769 167.687 94.4134C167.783 94.7372 167.833 95.0738 167.835 95.4231C167.838 95.7725 167.815 96.1183 167.767 96.4605C167.706 96.8915 167.59 97.3081 167.417 97.7103C167.244 98.1125 167.011 98.4805 166.718 98.8142C166.439 99.1497 166.119 99.4472 165.759 99.7068C165.401 99.9537 165.032 100.193 164.65 100.423C164.283 100.643 163.921 100.876 163.563 101.123C163.205 101.37 162.874 101.653 162.571 101.973C162.267 102.292 162.005 102.643 161.783 103.025C161.563 103.395 161.391 103.791 161.267 104.213L166.495 104.949L166.26 106.622L159.035 105.605Z" fill="#FBFEFC"/>
<path d="M148.039 98.3184L140.814 97.3018L141.05 95.6287L148.274 96.6453L148.039 98.3184Z" fill="#FBFEFC"/>
<path d="M120.629 100.201L122.596 86.2263L124.554 86.5018L125.537 94.2601L128.623 87.0744L130.581 87.3499L128.615 101.324L126.694 101.054L127.088 98.2592C127.202 97.448 127.329 96.6385 127.468 95.8309C127.622 95.0124 127.794 94.2028 127.984 93.4023L128.296 92.0115C128.37 91.6728 128.444 91.3278 128.52 90.9765C128.595 90.6251 128.663 90.2792 128.724 89.9388L128.726 89.9198L125.841 96.6489L124.586 96.4723L123.669 89.2081L123.666 89.2271C123.631 89.5711 123.601 89.9224 123.576 90.2809C123.552 90.6393 123.528 90.9915 123.505 91.3372L123.421 92.7602C123.383 93.5821 123.319 94.4068 123.228 95.2343C123.152 96.0508 123.057 96.8647 122.943 97.6759L122.55 100.471L120.629 100.201Z" fill="#FBFEFC"/>
<path d="M111.503 98.9164L111.701 97.5094C111.801 96.7996 111.945 96.0961 112.134 95.3987C112.335 94.7032 112.548 94.0158 112.773 93.3365C113 92.6445 113.238 91.9607 113.488 91.2849C113.751 90.611 114.013 89.9434 114.274 89.2821C114.55 88.61 114.831 87.945 115.117 87.2873C115.406 86.6169 115.693 85.9529 115.979 85.2952L118.185 85.6056C118.279 86.3168 118.371 87.0343 118.464 87.7582C118.557 88.4694 118.638 89.1852 118.704 89.9055C118.785 90.6149 118.853 91.3289 118.907 92.0474C118.974 92.7678 119.02 93.4917 119.047 94.2194C119.076 94.9344 119.085 95.653 119.074 96.3753C119.075 97.0993 119.025 97.8226 118.923 98.5451L118.728 99.933L116.827 99.6655L117.025 98.2586C117.068 97.9543 117.099 97.642 117.118 97.3216C117.15 97.0029 117.168 96.6888 117.173 96.3793L113.979 95.9298C113.898 96.2286 113.822 96.5347 113.753 96.848C113.695 97.1631 113.645 97.4728 113.602 97.777L113.404 99.1839L111.503 98.9164ZM114.404 94.2834L117.218 94.6794C117.21 93.4503 117.17 92.2231 117.096 90.9977C117.025 89.7597 116.934 88.5253 116.822 87.2946C116.376 88.4468 115.948 89.6081 115.537 90.7783C115.129 91.9359 114.751 93.1043 114.404 94.2834Z" fill="#FBFEFC"/>
<path d="M105.588 98.2391C105.246 98.1909 104.908 98.1111 104.575 97.9995C104.241 97.888 103.934 97.7285 103.653 97.5209C103.372 97.3133 103.129 97.0658 102.924 96.7784C102.733 96.4801 102.584 96.1619 102.476 95.8236C102.382 95.4871 102.327 95.1433 102.311 94.7921C102.309 94.4427 102.332 94.0969 102.38 93.7547L103.276 87.3855C103.324 87.0432 103.398 86.7046 103.497 86.3695C103.608 86.0362 103.756 85.7209 103.94 85.4236C104.137 85.1282 104.367 84.8697 104.631 84.6483C104.909 84.416 105.212 84.2389 105.539 84.1169C105.867 83.995 106.206 83.9264 106.557 83.9112C106.908 83.8959 107.255 83.9124 107.597 83.9606C107.939 84.0087 108.277 84.0886 108.61 84.2001C108.944 84.3116 109.251 84.4712 109.532 84.6788C109.813 84.8864 110.049 85.1393 110.239 85.4376C110.445 85.725 110.595 86.0369 110.689 86.3734C110.797 86.7117 110.852 87.0555 110.855 87.4049C110.87 87.756 110.853 88.1027 110.805 88.4449L109.909 94.8142C109.861 95.1564 109.781 95.4942 109.669 95.8275C109.57 96.1626 109.423 96.4779 109.226 96.7734C109.042 97.0706 108.811 97.3354 108.533 97.5677C108.269 97.7891 107.973 97.9608 107.646 98.0827C107.318 98.2047 106.979 98.2733 106.628 98.2885C106.277 98.3037 105.93 98.2872 105.588 98.2391ZM104.648 91.4175L108.789 88.9949L108.904 88.1774C108.943 87.8985 108.951 87.6152 108.926 87.3275C108.902 87.0397 108.823 86.7765 108.689 86.5378C108.569 86.2883 108.384 86.0877 108.133 85.9362C107.898 85.7738 107.641 85.6729 107.362 85.6337C107.083 85.5944 106.801 85.6195 106.517 85.7088C106.248 85.7872 106.015 85.9289 105.818 86.1338C105.635 86.3279 105.493 86.5599 105.39 86.8298C105.288 87.0998 105.217 87.3742 105.177 87.653L104.648 91.4175ZM105.823 96.566C106.102 96.6052 106.376 96.5856 106.646 96.5072C106.93 96.4179 107.163 96.2762 107.346 96.0822C107.542 95.8772 107.692 95.6398 107.795 95.3698C107.897 95.0999 107.968 94.8255 108.008 94.5466L108.537 90.7821L104.396 93.2047L104.281 94.0223C104.242 94.3011 104.234 94.5844 104.258 94.8722C104.283 95.16 104.355 95.4286 104.475 95.6782C104.609 95.9168 104.794 96.1174 105.03 96.2798C105.28 96.4313 105.544 96.5267 105.823 96.566Z" fill="#FBFEFC"/>
<path d="M96.0815 96.9014C95.7393 96.8532 95.4015 96.7734 95.0682 96.6618C94.7349 96.5503 94.4277 96.3907 94.1467 96.1832C93.8657 95.9756 93.6226 95.7281 93.4174 95.4407C93.2267 95.1424 93.0776 94.8241 92.9701 94.4859C92.8753 94.1494 92.8203 93.8055 92.8051 93.4544C92.8025 93.105 92.8253 92.7592 92.8735 92.417L93.7697 86.0478C93.8179 85.7055 93.8914 85.3669 93.9903 85.0318C94.1018 84.6985 94.2496 84.3832 94.4336 84.0859C94.6303 83.7904 94.8605 83.532 95.1244 83.3106C95.4027 83.0783 95.7055 82.9012 96.0329 82.7792C96.3603 82.6573 96.6995 82.5887 97.0507 82.5734C97.4018 82.5582 97.7485 82.5747 98.0907 82.6228C98.433 82.671 98.7707 82.7509 99.1041 82.8624C99.4374 82.9739 99.7445 83.1335 100.026 83.3411C100.307 83.5486 100.542 83.8016 100.733 84.0999C100.938 84.3873 101.088 84.6992 101.183 85.0357C101.291 85.374 101.346 85.7178 101.348 86.0672C101.363 86.4183 101.347 86.765 101.299 87.1072L100.402 93.4765C100.354 93.8187 100.274 94.1565 100.163 94.4898C100.064 94.8249 99.9163 95.1402 99.7196 95.4356C99.5356 95.7329 99.3045 95.9977 99.0262 96.2299C98.7624 96.4513 98.4667 96.623 98.1394 96.745C97.812 96.867 97.4727 96.9356 97.1216 96.9508C96.7704 96.966 96.4237 96.9495 96.0815 96.9014ZM95.1413 90.0798L99.2825 87.6572L99.3975 86.8397C99.4367 86.5608 99.4443 86.2775 99.4202 85.9897C99.396 85.702 99.3167 85.4388 99.1823 85.2001C99.0623 84.9505 98.8772 84.75 98.6271 84.5985C98.3914 84.436 98.1342 84.3352 97.8553 84.296C97.5765 84.2567 97.295 84.2818 97.011 84.371C96.7415 84.4495 96.5082 84.5911 96.3114 84.7961C96.1289 84.9902 95.9864 85.2222 95.8838 85.4921C95.7812 85.7621 95.7103 86.0364 95.671 86.3153L95.1413 90.0798ZM96.3169 95.2283C96.5958 95.2675 96.87 95.2479 97.1395 95.1695C97.4236 95.0802 97.6568 94.9385 97.8392 94.7445C98.0361 94.5395 98.1858 94.302 98.2885 94.0321C98.3911 93.7622 98.462 93.4878 98.5012 93.2089L99.031 89.4444L94.8898 91.867L94.7747 92.6845C94.7355 92.9634 94.728 93.2467 94.7521 93.5345C94.7762 93.8222 94.8483 94.0909 94.9683 94.3405C95.1027 94.5791 95.2878 94.7797 95.5235 94.9421C95.7736 95.0936 96.0381 95.189 96.3169 95.2283Z" fill="#FBFEFC"/>
<path d="M86.5752 95.5637C86.347 95.5315 86.1179 95.4605 85.8877 95.3506C85.6685 95.2551 85.4881 95.1134 85.3465 94.9254C85.2049 94.7375 85.1121 94.524 85.0682 94.2852C85.0369 94.0481 85.0382 93.8092 85.0721 93.5684C85.1042 93.3402 85.168 93.1165 85.2635 92.8973C85.3734 92.6671 85.5224 92.4813 85.7104 92.3397C85.8983 92.1981 86.1108 92.1117 86.3479 92.0804C86.5994 92.0382 86.8393 92.0332 87.0674 92.0653C87.2956 92.0974 87.5184 92.1676 87.7358 92.2757C87.9677 92.373 88.1545 92.5156 88.2961 92.7036C88.4377 92.8915 88.5232 93.1104 88.5527 93.3601C88.5966 93.599 88.6026 93.8325 88.5705 94.0606C88.5366 94.3015 88.4655 94.5306 88.3574 94.748C88.2619 94.9673 88.1202 95.1477 87.9322 95.2893C87.7443 95.4309 87.5254 95.5164 87.2757 95.5459C87.0368 95.5898 86.8033 95.5958 86.5752 95.5637ZM87.5169 88.8712C87.2888 88.8391 87.0587 88.7744 86.8268 88.6771C86.6094 88.569 86.4298 88.4209 86.2883 88.233C86.1467 88.045 86.0539 87.8316 86.0099 87.5927C85.9805 87.343 85.9818 87.104 86.0139 86.8759C86.0478 86.6351 86.1125 86.405 86.2079 86.1858C86.3161 85.9683 86.4641 85.7888 86.6521 85.6472C86.8401 85.5056 87.0526 85.4192 87.2897 85.3879C87.5412 85.3458 87.781 85.3408 88.0092 85.3729C88.2373 85.405 88.4601 85.4751 88.6776 85.5833C88.9095 85.6805 89.0962 85.8231 89.2378 86.0111C89.3794 86.1991 89.4659 86.4116 89.4971 86.6486C89.5411 86.8875 89.5461 87.1273 89.5122 87.3682C89.4801 87.5963 89.4091 87.8255 89.2991 88.0556C89.2037 88.2748 89.0619 88.4552 88.874 88.5968C88.686 88.7384 88.4663 88.8303 88.2147 88.8724C87.9777 88.9037 87.7451 88.9033 87.5169 88.8712Z" fill="#FBFEFC"/>
<path d="M77.0688 94.2259C76.7266 94.1778 76.3888 94.0979 76.0555 93.9864C75.7222 93.8749 75.415 93.7153 75.134 93.5077C74.853 93.3001 74.6099 93.0527 74.4048 92.7653C74.2141 92.467 74.065 92.1487 73.9575 91.8104C73.8626 91.4739 73.8076 91.1301 73.7924 90.779C73.7898 90.4296 73.8126 90.0838 73.8608 89.7416L74.7571 83.3723C74.8052 83.0301 74.8787 82.6914 74.9776 82.3563C75.0891 82.023 75.2369 81.7077 75.4209 81.4105C75.6176 81.115 75.8479 80.8566 76.1117 80.6352C76.39 80.4029 76.6928 80.2258 77.0202 80.1038C77.3476 79.9818 77.6869 79.9132 78.038 79.898C78.3891 79.8828 78.7358 79.8993 79.0781 79.9474C79.4203 79.9956 79.7581 80.0754 80.0914 80.187C80.4247 80.2985 80.7318 80.4581 81.0129 80.6656C81.2939 80.8732 81.5297 81.1261 81.7204 81.4244C81.9256 81.7118 82.0756 82.0238 82.1704 82.3603C82.2779 82.6985 82.333 83.0424 82.3355 83.3917C82.3507 83.7429 82.3342 84.0896 82.2861 84.4318L81.3898 90.801C81.3417 91.1433 81.2618 91.481 81.1503 91.8143C81.0514 92.1494 80.9036 92.4647 80.707 92.7602C80.5229 93.0575 80.2918 93.3222 80.0135 93.5545C79.7497 93.7759 79.4541 93.9476 79.1267 94.0696C78.7993 94.1915 78.46 94.2601 78.1089 94.2754C77.7577 94.2906 77.411 94.2741 77.0688 94.2259ZM76.1286 87.4044L80.2698 84.9818L80.3848 84.1643C80.4241 83.8854 80.4316 83.6021 80.4075 83.3143C80.3833 83.0265 80.304 82.7633 80.1696 82.5247C80.0496 82.2751 79.8645 82.0746 79.6144 81.923C79.3787 81.7606 79.1215 81.6598 78.8426 81.6205C78.5638 81.5813 78.2823 81.6063 77.9983 81.6956C77.7288 81.774 77.4955 81.9157 77.2987 82.1207C77.1162 82.3147 76.9737 82.5467 76.8711 82.8167C76.7685 83.0866 76.6976 83.361 76.6583 83.6399L76.1286 87.4044ZM77.3043 92.5528C77.5831 92.5921 77.8573 92.5725 78.1269 92.4941C78.4109 92.4048 78.6441 92.2631 78.8265 92.069C79.0234 91.8641 79.1731 91.6266 79.2758 91.3567C79.3784 91.0867 79.4493 90.8123 79.4885 90.5335L80.0183 86.769L75.8771 89.1916L75.7621 90.0091C75.7228 90.288 75.7153 90.5713 75.7394 90.859C75.7635 91.1468 75.8356 91.4155 75.9556 91.665C76.0901 91.9037 76.2751 92.1042 76.5108 92.2667C76.7609 92.4182 77.0254 92.5136 77.3043 92.5528Z" fill="#FBFEFC"/>
<path d="M67.2036 92.6826L68.8918 80.6856L66.3347 82.3229L65.4389 81.111L69.1701 78.7083L71.0713 78.9758L69.1049 92.9501L67.2036 92.6826Z" fill="#FBFEFC"/>
<path d="M195.512 87.5114L197.478 73.537L199.38 73.8046L198.577 79.5084C198.714 79.2692 198.875 79.0462 199.059 78.8394C199.256 78.6344 199.473 78.4711 199.71 78.3493C199.948 78.2148 200.206 78.1283 200.483 78.0897C200.76 78.0511 201.038 78.0515 201.317 78.0907C201.621 78.1335 201.911 78.2261 202.189 78.3685C202.48 78.5001 202.726 78.6833 202.926 78.9182C203.125 79.1531 203.275 79.4198 203.375 79.7183C203.49 80.0058 203.571 80.3016 203.619 80.6057C203.667 80.9097 203.682 81.2156 203.664 81.5233C203.66 81.8329 203.636 82.1398 203.593 82.444L202.737 88.528L200.836 88.2605L201.692 82.1764C201.717 81.999 201.729 81.8197 201.729 81.6387C201.741 81.4595 201.727 81.283 201.687 81.1093C201.661 80.9247 201.608 80.7493 201.528 80.5829C201.463 80.4056 201.368 80.2501 201.245 80.1164C201.134 79.9845 200.994 79.8807 200.823 79.8051C200.653 79.7294 200.479 79.6791 200.302 79.6541C200.124 79.6291 199.943 79.6295 199.759 79.6552C199.574 79.681 199.404 79.7411 199.248 79.8355C199.106 79.9318 198.972 80.0551 198.847 80.2056C198.737 80.3453 198.638 80.4993 198.55 80.6679C198.476 80.8255 198.414 80.9913 198.363 81.1652C198.326 81.3408 198.294 81.5174 198.269 81.6948L197.413 87.7789L195.512 87.5114Z" fill="#FBFEFC"/>
<path d="M190.756 86.9973C190.452 86.9545 190.16 86.8745 189.879 86.7575C189.598 86.6404 189.35 86.4762 189.134 86.2648C188.918 86.0535 188.738 85.8149 188.595 85.5491C188.466 85.2724 188.37 84.9875 188.308 84.6944C188.247 84.3886 188.219 84.0873 188.222 83.7904C188.239 83.4826 188.268 83.183 188.309 82.8914L188.968 78.2143L187.352 77.9869L187.587 76.3138L189.203 76.5412L189.778 72.4535L191.68 72.721L191.104 76.8088L194.241 77.2502L194.006 78.9233L190.869 78.4819L190.211 83.159C190.191 83.2984 190.178 83.4387 190.171 83.5799C190.164 83.7212 190.163 83.8633 190.169 84.0062C190.175 84.1492 190.187 84.2931 190.205 84.4379C190.238 84.5718 190.285 84.7011 190.345 84.8259C190.405 84.9507 190.493 85.06 190.609 85.1539C190.725 85.2478 190.852 85.3045 190.992 85.3242C191.131 85.3438 191.263 85.3299 191.385 85.2826C191.523 85.2244 191.637 85.1499 191.727 85.0592C191.819 84.9559 191.893 84.8435 191.949 84.7221C192.018 84.6025 192.074 84.4811 192.117 84.3579C192.174 84.2238 192.219 84.0879 192.252 83.9503C192.284 83.8127 192.309 83.6805 192.327 83.5537L192.343 83.4396L194.244 83.7072L194.217 83.8973C194.176 84.1888 194.11 84.4768 194.018 84.7612C193.928 85.0329 193.814 85.2947 193.675 85.5466C193.536 85.7985 193.361 86.0324 193.15 86.2483C192.951 86.4659 192.72 86.6402 192.456 86.7711C192.192 86.9019 191.916 86.9795 191.628 87.0036C191.339 87.0404 191.048 87.0383 190.756 86.9973Z" fill="#FBFEFC"/>
<path d="M180.147 85.5044C179.818 85.458 179.492 85.3863 179.169 85.2892C178.847 85.1921 178.543 85.0525 178.259 84.8702C177.976 84.6753 177.723 84.4523 177.5 84.2012C177.291 83.9391 177.125 83.6507 177.001 83.336C176.89 83.0231 176.813 82.702 176.768 82.3726C176.739 82.0323 176.747 81.6974 176.793 81.3679L176.809 81.2538L178.711 81.5213L178.703 81.5784C178.665 81.8446 178.673 82.1106 178.726 82.3766C178.779 82.6426 178.881 82.8832 179.032 83.0983C179.182 83.3134 179.378 83.4831 179.619 83.6075C179.862 83.7192 180.117 83.7938 180.383 83.8313C180.662 83.8705 180.941 83.8582 181.222 83.7942C181.504 83.7176 181.743 83.5831 181.938 83.3908C182.147 83.1877 182.31 82.952 182.425 82.6838C182.54 82.4157 182.618 82.1422 182.657 81.8633C182.691 81.6225 182.698 81.3845 182.68 81.1492C182.663 80.9012 182.613 80.6615 182.529 80.4299C182.445 80.1984 182.326 79.9878 182.172 79.798C182.03 79.6101 181.859 79.4502 181.658 79.3185C181.456 79.1868 181.237 79.0913 181 79.0321C180.763 78.9728 180.524 78.9262 180.283 78.8924L180.518 77.2192C180.734 77.2496 180.951 77.2672 181.17 77.2722C181.389 77.2771 181.6 77.2486 181.803 77.1867C182.018 77.1265 182.212 77.031 182.386 76.9004C182.561 76.757 182.706 76.5965 182.822 76.4188C182.952 76.2303 183.051 76.031 183.119 75.8208C183.2 75.6125 183.256 75.4006 183.286 75.1851C183.32 74.9443 183.322 74.699 183.293 74.4492C183.278 74.1886 183.215 73.9471 183.104 73.7247C182.995 73.4896 182.833 73.3053 182.62 73.1718C182.407 73.0256 182.175 72.9347 181.921 72.899C181.68 72.8651 181.439 72.8828 181.196 72.9521C180.954 73.0214 180.75 73.1413 180.583 73.3118C180.417 73.4823 180.285 73.6835 180.188 73.9154C180.091 74.1473 180.026 74.3774 179.994 74.6055L179.981 74.7006L178.08 74.433L178.101 74.2809C178.146 73.9641 178.221 73.658 178.327 73.3627C178.448 73.0565 178.597 72.7738 178.776 72.5146C178.955 72.2553 179.168 72.0268 179.415 71.829C179.677 71.6202 179.958 71.4658 180.256 71.3656C180.569 71.2545 180.881 71.195 181.193 71.1872C181.518 71.1684 181.84 71.1813 182.157 71.2259C182.473 71.2705 182.786 71.3467 183.094 71.4547C183.414 71.5644 183.704 71.715 183.961 71.9063C184.218 72.0977 184.438 72.3289 184.62 72.6001C184.814 72.873 184.96 73.165 185.059 73.4762C185.157 73.7873 185.216 74.1058 185.234 74.4316C185.253 74.7574 185.24 75.0787 185.196 75.3956C185.149 75.7252 185.065 76.0494 184.942 76.3682C184.822 76.6744 184.665 76.9625 184.472 77.2327C184.28 77.4901 184.047 77.7223 183.773 77.9293C183.5 78.1235 183.207 78.2762 182.894 78.3873C183.216 78.5749 183.493 78.8141 183.724 79.1051C183.969 79.3851 184.157 79.6961 184.29 80.038C184.438 80.3689 184.531 80.7181 184.569 81.0855C184.608 81.4529 184.603 81.814 184.553 82.1689C184.503 82.5238 184.416 82.867 184.291 83.1986C184.169 83.5174 184.01 83.8182 183.815 84.101C183.621 84.3838 183.385 84.635 183.108 84.8547C182.832 85.0743 182.53 85.2451 182.203 85.367C181.877 85.4763 181.539 85.5386 181.187 85.5538C180.836 85.569 180.49 85.5525 180.147 85.5044Z" fill="#FBFEFC"/>
<path d="M170.225 83.953L171.913 71.956L169.356 73.5933L168.46 72.3814L172.192 69.9787L174.093 70.2463L172.126 84.2206L170.225 83.953Z" fill="#FBFEFC"/>
<path d="M150.49 81.1759C150.368 80.6675 150.245 80.1591 150.123 79.6507C150.013 79.1441 149.904 78.6375 149.794 78.1308C149.699 77.6133 149.603 77.1021 149.506 76.5973C149.423 76.0816 149.347 75.5667 149.277 75.0528C149.222 74.5279 149.179 74.0049 149.149 73.4836C149.131 72.9641 149.159 72.4445 149.232 71.9248L149.372 70.9362L151.273 71.2037L151.134 72.1924C151.043 72.8388 151.016 73.4878 151.054 74.1394C151.091 74.791 151.142 75.4381 151.207 76.0805C151.284 76.7248 151.368 77.37 151.458 78.016C151.561 78.6638 151.671 79.3062 151.788 79.9432C152.076 79.3633 152.353 78.7753 152.618 78.1792C152.895 77.5849 153.154 76.9879 153.393 76.3882C153.646 75.7903 153.88 75.1834 154.096 74.5675C154.312 73.9516 154.465 73.3204 154.556 72.674L154.695 71.6853L156.596 71.9528L156.457 72.9415C156.384 73.4612 156.261 73.9674 156.088 74.4601C155.928 74.9546 155.743 75.4456 155.532 75.933C155.336 76.4095 155.121 76.8833 154.886 77.3544C154.666 77.8147 154.433 78.2795 154.186 78.7489C153.953 79.2073 153.708 79.664 153.45 80.1189C153.205 80.5756 152.953 81.0314 152.695 81.4863L150.49 81.1759Z" fill="#FBFEFC"/>
<path d="M142.065 80.1455C141.723 80.0973 141.385 80.0175 141.052 79.906C140.718 79.7944 140.411 79.6349 140.13 79.4273C139.849 79.2197 139.606 78.9722 139.401 78.6848C139.21 78.3865 139.061 78.0683 138.954 77.73C138.859 77.3935 138.804 77.0496 138.789 76.6985C138.786 76.3491 138.809 76.0033 138.857 75.6611L139.178 73.3796C139.226 73.0374 139.3 72.6987 139.399 72.3636C139.51 72.0303 139.658 71.715 139.842 71.4178C140.039 71.1223 140.269 70.8639 140.533 70.6425C140.811 70.4102 141.114 70.233 141.441 70.1111C141.769 69.9891 142.108 69.9205 142.459 69.9053C142.81 69.8901 143.157 69.9065 143.499 69.9547C143.841 70.0029 144.179 70.0827 144.512 70.1942C144.846 70.3058 145.153 70.4653 145.434 70.6729C145.715 70.8805 145.951 71.1334 146.141 71.4317C146.347 71.7191 146.497 72.031 146.591 72.3675C146.699 72.7058 146.754 73.0496 146.756 73.399C146.772 73.7501 146.755 74.0968 146.707 74.4391L146.386 76.7206C146.338 77.0628 146.258 77.4006 146.146 77.7339C146.048 78.069 145.9 78.3843 145.703 78.6797C145.519 78.977 145.288 79.2418 145.01 79.4741C144.746 79.6955 144.45 79.8672 144.123 79.9891C143.795 80.1111 143.456 80.1797 143.105 80.1949C142.754 80.2101 142.407 80.1936 142.065 80.1455ZM142.3 78.4724C142.579 78.5116 142.853 78.492 143.123 78.4136C143.407 78.3243 143.64 78.1827 143.823 77.9886C144.02 77.7836 144.169 77.5462 144.272 77.2762C144.375 77.0063 144.445 76.7319 144.485 76.453L144.806 74.1715C144.845 73.8927 144.853 73.6094 144.828 73.3216C144.804 73.0338 144.725 72.7706 144.591 72.5319C144.471 72.2824 144.285 72.0818 144.035 71.9303C143.8 71.7679 143.542 71.667 143.264 71.6278C142.985 71.5886 142.703 71.6136 142.419 71.7029C142.15 71.7813 141.916 71.923 141.72 72.1279C141.537 72.322 141.395 72.554 141.292 72.824C141.189 73.0939 141.119 73.3683 141.079 73.6471L140.758 75.9287C140.719 76.2075 140.711 76.4908 140.736 76.7786C140.76 77.0664 140.832 77.335 140.952 77.5846C141.086 77.8233 141.271 78.0238 141.507 78.1862C141.757 78.3377 142.022 78.4331 142.3 78.4724Z" fill="#FBFEFC"/>
<path d="M128.968 78.1473L130.934 64.173L132.911 64.4513L135.083 75.8863C135.108 75.4373 135.119 74.9865 135.118 74.534C135.13 74.0832 135.148 73.6333 135.173 73.1843C135.21 72.7372 135.253 72.2908 135.303 71.8454C135.353 71.4 135.409 70.9555 135.471 70.5119L136.258 64.9221L138.159 65.1897L136.192 79.164L134.215 78.8858L132.043 67.4508C132.019 67.8998 132.001 68.3496 131.989 68.8004C131.99 69.2529 131.972 69.7028 131.935 70.15C131.911 70.599 131.873 71.0462 131.824 71.4916C131.774 71.937 131.718 72.3815 131.655 72.8252L130.869 78.4149L128.968 78.1473Z" fill="#FBFEFC"/>
<path d="M113.546 76.1323C113.318 76.1002 113.089 76.0292 112.859 75.9193C112.639 75.8238 112.459 75.6821 112.317 75.4941C112.176 75.3061 112.083 75.0927 112.039 74.8539C112.008 74.6168 112.009 74.3779 112.043 74.137C112.075 73.9089 112.139 73.6852 112.234 73.466C112.344 73.2358 112.493 73.05 112.681 72.9084C112.869 72.7668 113.082 72.6804 113.319 72.6491C113.57 72.6069 113.81 72.6019 114.038 72.634C114.266 72.6661 114.489 72.7362 114.707 72.8444C114.939 72.9417 115.125 73.0843 115.267 73.2722C115.408 73.4602 115.494 73.6791 115.523 73.9288C115.567 74.1677 115.573 74.4012 115.541 74.6293C115.507 74.8701 115.436 75.0993 115.328 75.3167C115.233 75.536 115.091 75.7164 114.903 75.858C114.715 75.9996 114.496 76.0851 114.246 76.1146C114.008 76.1585 113.774 76.1644 113.546 76.1323Z" fill="#FBFEFC"/>
<path d="M103.184 74.6742C102.88 74.6314 102.583 74.5379 102.293 74.3937C102.001 74.2622 101.748 74.0844 101.534 73.8604C101.335 73.6255 101.171 73.3633 101.044 73.074C100.931 72.7737 100.851 72.4716 100.803 72.1676C100.755 71.8636 100.734 71.5568 100.739 71.2472C100.758 70.9268 100.789 70.6145 100.832 70.3102L101.153 68.0287C101.195 67.7245 101.251 67.4221 101.319 67.1215C101.402 66.8099 101.508 66.5147 101.638 66.2356C101.767 65.9566 101.927 65.6947 102.117 65.4499C102.321 65.1942 102.55 64.9874 102.805 64.8294C103.074 64.6604 103.367 64.553 103.684 64.5071C104.003 64.4485 104.314 64.4406 104.618 64.4834C104.897 64.5227 105.164 64.599 105.42 64.7126C105.689 64.8152 105.927 64.9649 106.132 65.1618C106.337 65.3587 106.498 65.5882 106.617 65.8505C106.749 66.1018 106.855 66.3623 106.933 66.6318L107.739 60.909L109.64 61.1765L107.673 75.1509L105.772 74.8833L106.002 73.2482C105.852 73.4857 105.678 73.7132 105.48 73.9309C105.295 74.1376 105.078 74.3073 104.826 74.44C104.575 74.5727 104.305 74.6511 104.018 74.6752C103.741 74.7138 103.463 74.7135 103.184 74.6742ZM104.199 73.1108C104.478 73.15 104.746 73.1296 105.003 73.0494C105.274 72.9583 105.502 72.8094 105.686 72.6026C105.87 72.3959 106.006 72.163 106.094 71.904C106.197 71.634 106.268 71.3596 106.307 71.0808L106.628 68.7993C106.668 68.5204 106.674 68.2434 106.648 67.9683C106.637 67.6823 106.571 67.4146 106.451 67.165C106.331 66.9155 106.152 66.7158 105.915 66.5661C105.692 66.4054 105.441 66.3055 105.162 66.2662C104.883 66.227 104.608 66.2529 104.337 66.344C104.08 66.4242 103.859 66.5677 103.675 66.7744C103.491 66.9812 103.348 67.2195 103.245 67.4894C103.157 67.7485 103.093 68.0174 103.054 68.2963L102.733 70.5778C102.694 70.8566 102.68 71.1391 102.691 71.4251C102.717 71.7002 102.79 71.9625 102.91 72.212C103.03 72.4616 103.202 72.6667 103.425 72.8273C103.662 72.9771 103.92 73.0716 104.199 73.1108Z" fill="#FBFEFC"/>
<path d="M94.5333 73.4569C94.191 73.4088 93.8533 73.3289 93.52 73.2174C93.1866 73.1058 92.8795 72.9463 92.5985 72.7387C92.3175 72.5311 92.0744 72.2836 91.8692 71.9962C91.6785 71.6979 91.5294 71.3797 91.4219 71.0414C91.3271 70.7049 91.272 70.3611 91.2568 70.0099C91.2543 69.6606 91.2771 69.3148 91.3252 68.9725L91.6463 66.691C91.6945 66.3488 91.768 66.0101 91.8668 65.675C91.9784 65.3417 92.1261 65.0264 92.3102 64.7292C92.5068 64.4337 92.7371 64.1753 93.0009 63.9539C93.2792 63.7216 93.582 63.5445 93.9094 63.4225C94.2368 63.3005 94.5761 63.2319 94.9272 63.2167C95.2784 63.2015 95.6251 63.218 95.9673 63.2661C96.3095 63.3143 96.6473 63.3941 96.9806 63.5056C97.3139 63.6172 97.6211 63.7767 97.9021 63.9843C98.1831 64.1919 98.419 64.4448 98.6097 64.7431C98.8148 65.0305 98.9648 65.3425 99.0596 65.679C99.1672 66.0172 99.2222 66.3611 99.2247 66.7104C99.2399 67.0616 99.2235 67.4083 99.1753 67.7505L98.8971 69.7278L93.2693 68.9359L93.2265 69.2401C93.1873 69.5189 93.1734 69.8014 93.1848 70.0873C93.209 70.3751 93.2874 70.6447 93.4201 70.896C93.5545 71.1347 93.7396 71.3352 93.9752 71.4976C94.2254 71.6492 94.4899 71.7446 94.7687 71.7838C94.9842 71.8141 95.196 71.8245 95.4042 71.815C95.625 71.8073 95.8321 71.7589 96.0257 71.6698C96.2209 71.568 96.3827 71.4292 96.5108 71.2534C96.6516 71.0793 96.7436 70.8854 96.7866 70.6717L98.6878 70.9393C98.645 71.2435 98.5587 71.5351 98.429 71.8141C98.2992 72.0932 98.1278 72.347 97.9147 72.5755C97.7033 72.7913 97.4584 72.9702 97.18 73.1119C96.9142 73.2555 96.6338 73.3647 96.3389 73.4395C96.0458 73.5017 95.7444 73.5304 95.4349 73.5256C95.1253 73.5208 94.8248 73.4979 94.5333 73.4569ZM97.2312 67.7871L97.274 67.4829C97.3133 67.2041 97.3208 66.9208 97.2967 66.633C97.2726 66.3452 97.1933 66.082 97.0588 65.8434C96.9388 65.5938 96.7538 65.3933 96.5036 65.2417C96.268 65.0793 96.0107 64.9785 95.7319 64.9392C95.453 64.9 95.1716 64.925 94.8876 65.0143C94.618 65.0927 94.3848 65.2344 94.1879 65.4394C94.0055 65.6334 93.863 65.8654 93.7603 66.1354C93.6577 66.4053 93.5868 66.6797 93.5476 66.9586L93.5048 67.2628L97.2312 67.7871Z" fill="#FBFEFC"/>
<path d="M82.7668 71.646C82.7077 71.056 82.6548 70.4669 82.6083 69.8787C82.5636 69.2778 82.5253 68.6778 82.4932 68.0787C82.4612 67.4796 82.4292 66.8805 82.3971 66.2814C82.3778 65.6841 82.3648 65.0876 82.3581 64.4921C82.3514 63.8966 82.3574 63.3028 82.3761 62.7108C82.3965 62.1062 82.4478 61.5123 82.5298 60.9293L83.0221 57.4309L84.9424 57.7011L84.4501 61.1995C84.2557 62.5811 84.1057 63.9689 84 65.363C83.9087 66.7462 83.8229 68.1366 83.7426 69.5342L85.6578 63.5022L86.7986 63.6628L86.9748 69.989C87.2833 68.6235 87.5782 67.2625 87.8595 65.9061C88.1554 64.5388 88.4005 63.1643 88.5949 61.7827L89.0872 58.2844L91.0074 58.5546L90.5152 62.0529C90.4331 62.636 90.3185 63.2209 90.1713 63.8077C90.0259 64.3819 89.8678 64.9542 89.697 65.5248C89.5262 66.0954 89.3428 66.6642 89.1466 67.2312C88.9632 67.8 88.7734 68.3678 88.5773 68.9349C88.3812 69.5019 88.1787 70.068 87.9699 70.6332C87.7629 71.1857 87.5495 71.7374 87.3299 72.2881L86.1891 72.1276L85.9954 65.2366L83.9076 71.8066L82.7668 71.646Z" fill="#FBFEFC"/>
<path d="M171.994 153.753C171.757 153.72 171.522 153.667 171.289 153.596C171.057 153.524 170.838 153.426 170.633 153.3C170.428 153.174 170.242 153.017 170.074 152.829C169.916 152.642 169.79 152.44 169.694 152.223C169.609 151.997 169.55 151.766 169.515 151.529C169.492 151.283 169.497 151.036 169.532 150.789C169.574 150.495 169.657 150.215 169.781 149.952C169.916 149.68 170.082 149.432 170.278 149.207C170.476 148.973 170.694 148.771 170.931 148.601C171.169 148.421 171.421 148.253 171.685 148.097C171.5 147.896 171.327 147.683 171.165 147.456C171.012 147.231 170.881 146.995 170.77 146.746C170.67 146.49 170.601 146.228 170.561 145.961C170.522 145.684 170.522 145.412 170.559 145.146C170.591 144.918 170.646 144.698 170.725 144.486C170.814 144.266 170.924 144.068 171.055 143.893C171.197 143.709 171.36 143.553 171.543 143.423C171.737 143.286 171.94 143.183 172.153 143.116C172.366 143.049 172.585 143.012 172.809 143.005C173.042 142.999 173.273 143.012 173.501 143.044C173.73 143.076 173.95 143.127 174.164 143.196C174.386 143.266 174.591 143.363 174.777 143.486C174.963 143.609 175.126 143.763 175.265 143.947C175.415 144.123 175.528 144.318 175.604 144.533C175.691 144.739 175.743 144.959 175.758 145.194C175.784 145.421 175.782 145.648 175.749 145.876C175.712 146.143 175.637 146.403 175.523 146.659C175.411 146.905 175.267 147.137 175.091 147.354C174.926 147.564 174.734 147.755 174.516 147.928C174.307 148.102 174.086 148.26 173.853 148.402C174.064 148.625 174.259 148.856 174.439 149.095C174.62 149.324 174.773 149.578 174.898 149.858C175.025 150.127 175.111 150.411 175.157 150.708C175.213 150.997 175.22 151.289 175.179 151.584C175.144 151.831 175.077 152.069 174.977 152.297C174.888 152.517 174.767 152.723 174.614 152.915C174.471 153.098 174.294 153.258 174.081 153.393C173.878 153.529 173.66 153.629 173.428 153.693C173.196 153.758 172.958 153.792 172.715 153.797C172.472 153.801 172.232 153.787 171.994 153.753ZM172.881 147.451C173.051 147.348 173.211 147.24 173.363 147.126C173.526 147.003 173.671 146.869 173.798 146.722C173.935 146.576 174.049 146.418 174.141 146.246C174.235 146.066 174.295 145.88 174.322 145.69C174.344 145.528 174.343 145.368 174.316 145.209C174.292 145.041 174.23 144.892 174.132 144.762C174.045 144.624 173.929 144.52 173.783 144.451C173.639 144.373 173.486 144.322 173.325 144.299C173.163 144.276 173.002 144.283 172.842 144.319C172.683 144.345 172.538 144.412 172.407 144.519C172.286 144.618 172.191 144.746 172.12 144.9C172.052 145.046 172.006 145.199 171.983 145.361C171.956 145.551 171.963 145.746 172.003 145.945C172.044 146.135 172.105 146.319 172.187 146.495C172.278 146.673 172.38 146.842 172.493 147.003C172.617 147.157 172.747 147.306 172.881 147.451ZM172.171 152.498C172.352 152.524 172.536 152.526 172.723 152.503C172.912 152.472 173.076 152.403 173.217 152.297C173.368 152.192 173.488 152.059 173.579 151.897C173.671 151.726 173.73 151.55 173.755 151.369C173.786 151.15 173.772 150.935 173.715 150.723C173.668 150.504 173.591 150.299 173.482 150.109C173.374 149.91 173.245 149.727 173.093 149.56C172.952 149.395 172.805 149.233 172.653 149.076C172.463 149.185 172.272 149.299 172.081 149.417C171.899 149.537 171.729 149.678 171.571 149.84C171.414 149.992 171.278 150.167 171.163 150.364C171.058 150.553 170.991 150.757 170.96 150.976C170.935 151.156 170.943 151.342 170.984 151.532C171.026 151.712 171.101 151.873 171.207 152.014C171.322 152.156 171.467 152.268 171.639 152.351C171.813 152.424 171.99 152.473 172.171 152.498Z" fill="#FBFEFC"/>
<path d="M164.865 152.75C164.608 152.714 164.355 152.654 164.105 152.57C163.855 152.487 163.624 152.367 163.414 152.211C163.203 152.056 163.021 151.87 162.867 151.654C162.724 151.431 162.612 151.192 162.531 150.938C162.46 150.686 162.419 150.428 162.407 150.165C162.405 149.903 162.423 149.643 162.459 149.387L163.131 144.61C163.167 144.353 163.222 144.099 163.296 143.848C163.38 143.598 163.491 143.361 163.629 143.138C163.776 142.917 163.949 142.723 164.147 142.557C164.356 142.383 164.583 142.25 164.828 142.158C165.074 142.067 165.328 142.015 165.592 142.004C165.855 141.993 166.115 142.005 166.372 142.041C166.628 142.077 166.882 142.137 167.132 142.221C167.382 142.304 167.612 142.424 167.823 142.58C168.033 142.735 168.21 142.925 168.353 143.149C168.507 143.364 168.62 143.598 168.691 143.851C168.772 144.104 168.813 144.362 168.815 144.624C168.826 144.888 168.814 145.148 168.778 145.404L168.105 150.181C168.069 150.438 168.009 150.691 167.926 150.941C167.852 151.193 167.741 151.429 167.593 151.651C167.455 151.874 167.282 152.072 167.073 152.246C166.875 152.412 166.654 152.541 166.408 152.633C166.163 152.724 165.908 152.776 165.645 152.787C165.381 152.798 165.121 152.786 164.865 152.75ZM164.16 147.634L167.265 145.817L167.352 145.204C167.381 144.995 167.387 144.782 167.369 144.566C167.351 144.35 167.291 144.153 167.19 143.974C167.1 143.787 166.961 143.636 166.774 143.523C166.597 143.401 166.404 143.325 166.195 143.296C165.986 143.267 165.775 143.285 165.562 143.352C165.36 143.411 165.185 143.517 165.037 143.671C164.9 143.817 164.793 143.991 164.716 144.193C164.639 144.396 164.586 144.601 164.557 144.81L164.16 147.634ZM165.041 151.495C165.25 151.525 165.456 151.51 165.658 151.451C165.871 151.384 166.046 151.278 166.183 151.132C166.331 150.979 166.443 150.801 166.52 150.598C166.597 150.396 166.65 150.19 166.679 149.981L167.077 147.157L163.971 148.974L163.885 149.587C163.855 149.797 163.85 150.009 163.868 150.225C163.886 150.441 163.94 150.642 164.03 150.829C164.131 151.008 164.269 151.159 164.446 151.281C164.634 151.394 164.832 151.466 165.041 151.495Z" fill="#FBFEFC"/>
<path d="M155.042 151.251L155.044 151.237C155.078 150.99 155.119 150.739 155.164 150.483C155.21 150.228 155.264 149.979 155.328 149.736C155.4 149.494 155.492 149.259 155.601 149.032C155.712 148.796 155.836 148.571 155.972 148.358C156.119 148.146 156.277 147.95 156.448 147.77C156.62 147.581 156.804 147.408 157.001 147.252C157.198 147.086 157.404 146.935 157.617 146.8C157.829 146.666 158.046 146.536 158.267 146.412C158.498 146.289 158.72 146.161 158.933 146.026C159.155 145.892 159.351 145.736 159.522 145.556C159.694 145.367 159.836 145.154 159.946 144.918C160.057 144.681 160.13 144.44 160.165 144.192C160.194 143.983 160.199 143.776 160.18 143.569C160.17 143.364 160.12 143.168 160.03 142.981C159.949 142.795 159.821 142.641 159.644 142.52C159.467 142.398 159.279 142.323 159.08 142.295C158.889 142.268 158.699 142.28 158.507 142.33C158.327 142.373 158.165 142.457 158.021 142.582C157.887 142.709 157.779 142.858 157.696 143.031C157.623 143.205 157.573 143.387 157.547 143.577L157.539 143.634L156.113 143.433L156.127 143.333C156.162 143.086 156.219 142.847 156.3 142.616C156.391 142.387 156.508 142.175 156.651 141.982C156.795 141.789 156.964 141.619 157.159 141.472C157.364 141.326 157.578 141.216 157.802 141.141C158.037 141.057 158.276 141.013 158.519 141.009C158.773 140.996 159.018 141.006 159.256 141.04C159.513 141.076 159.761 141.14 160 141.232C160.25 141.315 160.475 141.434 160.677 141.589C160.887 141.744 161.064 141.934 161.207 142.158C161.352 142.372 161.459 142.605 161.531 142.858C161.603 143.101 161.64 143.353 161.642 143.615C161.644 143.877 161.627 144.136 161.591 144.393C161.545 144.716 161.458 145.029 161.328 145.33C161.198 145.632 161.024 145.908 160.804 146.158C160.594 146.41 160.355 146.633 160.085 146.828C159.816 147.013 159.539 147.192 159.253 147.365C158.978 147.53 158.706 147.705 158.438 147.89C158.169 148.075 157.921 148.288 157.694 148.527C157.466 148.767 157.269 149.03 157.103 149.316C156.938 149.594 156.809 149.891 156.716 150.207L160.637 150.759L160.46 152.014L155.042 151.251Z" fill="#FBFEFC"/>
<path d="M143.015 152.802C142.797 152.771 142.58 152.726 142.366 152.667C142.16 152.609 141.963 152.528 141.774 152.424C141.584 152.329 141.407 152.207 141.244 152.058C141.081 151.909 140.945 151.74 140.836 151.55C140.736 151.361 140.663 151.157 140.617 150.937C140.58 150.719 140.576 150.5 140.607 150.282L142.033 150.482C142.021 150.636 142.045 150.78 142.103 150.914C142.171 151.05 142.263 151.159 142.377 151.243C142.49 151.337 142.616 151.403 142.756 151.442C142.904 151.492 143.049 151.527 143.192 151.547C143.325 151.566 143.461 151.566 143.599 151.546C143.738 151.527 143.865 151.482 143.982 151.411C144.099 151.34 144.203 151.253 144.295 151.15C144.387 151.046 144.462 150.931 144.518 150.803C144.574 150.685 144.621 150.556 144.66 150.416C144.698 150.285 144.726 150.154 144.745 150.021L144.947 148.58C144.835 148.758 144.704 148.929 144.555 149.092C144.417 149.247 144.254 149.375 144.065 149.474C143.877 149.574 143.675 149.632 143.459 149.651C143.251 149.68 143.043 149.679 142.834 149.65C142.606 149.618 142.383 149.548 142.165 149.439C141.947 149.341 141.757 149.207 141.596 149.039C141.447 148.863 141.324 148.667 141.229 148.45C141.144 148.224 141.084 147.998 141.048 147.77C141.012 147.542 140.996 147.312 141 147.08C141.014 146.839 141.037 146.605 141.069 146.377L141.31 144.666C141.342 144.438 141.384 144.211 141.435 143.985C141.497 143.752 141.577 143.53 141.674 143.321C141.771 143.112 141.891 142.915 142.033 142.732C142.186 142.54 142.358 142.385 142.549 142.266C142.751 142.14 142.971 142.059 143.209 142.025C143.448 141.981 143.681 141.975 143.909 142.007C144.118 142.036 144.319 142.093 144.51 142.179C144.713 142.256 144.891 142.368 145.045 142.516C145.198 142.663 145.32 142.835 145.408 143.032C145.508 143.221 145.587 143.416 145.646 143.618L145.818 142.392L147.244 142.592L146.171 150.221C146.135 150.478 146.08 150.727 146.007 150.969C145.933 151.22 145.828 151.453 145.691 151.666C145.553 151.889 145.384 152.088 145.185 152.264C144.986 152.439 144.768 152.574 144.532 152.666C144.296 152.759 144.047 152.811 143.783 152.823C143.528 152.845 143.272 152.838 143.015 152.802ZM143.595 148.477C143.804 148.507 144.005 148.491 144.198 148.431C144.401 148.363 144.572 148.251 144.71 148.096C144.848 147.941 144.95 147.766 145.017 147.572C145.094 147.37 145.147 147.164 145.176 146.955L145.417 145.244C145.446 145.034 145.451 144.827 145.432 144.62C145.423 144.406 145.374 144.205 145.284 144.018C145.194 143.831 145.06 143.681 144.882 143.569C144.715 143.448 144.526 143.373 144.317 143.344C144.108 143.314 143.902 143.334 143.698 143.402C143.506 143.462 143.34 143.57 143.202 143.725C143.064 143.88 142.956 144.059 142.879 144.261C142.813 144.456 142.766 144.657 142.736 144.866L142.495 146.578C142.466 146.787 142.456 146.998 142.464 147.213C142.484 147.419 142.538 147.616 142.628 147.803C142.718 147.99 142.847 148.144 143.014 148.265C143.192 148.377 143.386 148.448 143.595 148.477Z" fill="#FBFEFC"/>
<path d="M133.652 148.242L134.696 140.827L136.122 141.027L135.951 142.239C136.054 142.06 136.175 141.893 136.313 141.738C136.46 141.584 136.623 141.461 136.801 141.37C136.98 141.269 137.173 141.204 137.381 141.175C137.588 141.146 137.797 141.147 138.006 141.176C138.234 141.208 138.452 141.278 138.66 141.384C138.879 141.483 139.063 141.62 139.213 141.797C139.362 141.973 139.475 142.173 139.55 142.397C139.636 142.612 139.697 142.834 139.733 143.062C139.768 143.29 139.78 143.52 139.767 143.751C139.763 143.983 139.745 144.213 139.713 144.441L139.071 149.004L137.645 148.803L138.287 144.24C138.306 144.107 138.315 143.973 138.315 143.837C138.324 143.703 138.314 143.57 138.283 143.44C138.264 143.302 138.225 143.17 138.165 143.045C138.115 142.912 138.045 142.796 137.952 142.695C137.869 142.596 137.764 142.519 137.636 142.462C137.508 142.405 137.378 142.367 137.245 142.349C137.112 142.33 136.976 142.33 136.837 142.349C136.699 142.369 136.571 142.414 136.455 142.485C136.348 142.557 136.247 142.649 136.154 142.762C136.071 142.867 135.997 142.983 135.931 143.109C135.875 143.227 135.829 143.351 135.791 143.482C135.763 143.614 135.739 143.746 135.72 143.879L135.078 148.442L133.652 148.242Z" fill="#FBFEFC"/>
<path d="M126.737 147.268L126.913 146.014L128.795 146.278L129.486 141.373L127.803 141.136L127.98 139.881L131.088 140.319L130.221 146.479L131.904 146.716L131.727 147.971L126.737 147.268ZM130.497 139.145C130.355 139.125 130.215 139.086 130.077 139.028C129.942 138.96 129.828 138.872 129.737 138.762C129.656 138.644 129.603 138.51 129.575 138.361C129.557 138.213 129.558 138.068 129.578 137.925C129.598 137.783 129.637 137.643 129.695 137.505C129.763 137.369 129.851 137.261 129.96 137.179C130.079 137.089 130.212 137.035 130.36 137.017C130.51 136.99 130.656 136.986 130.798 137.006C130.941 137.026 131.08 137.07 131.216 137.138C131.353 137.196 131.462 137.284 131.542 137.402C131.633 137.512 131.688 137.64 131.706 137.788C131.734 137.938 131.737 138.084 131.717 138.226C131.697 138.369 131.653 138.508 131.586 138.644C131.528 138.781 131.439 138.895 131.32 138.985C131.211 139.066 131.082 139.121 130.933 139.148C130.785 139.166 130.64 139.165 130.497 139.145Z" fill="#FBFEFC"/>
<path d="M121.444 146.64C121.216 146.608 120.994 146.538 120.776 146.43C120.557 146.331 120.368 146.198 120.207 146.03C120.057 145.853 119.935 145.657 119.839 145.44C119.755 145.215 119.694 144.988 119.659 144.76C119.623 144.532 119.607 144.302 119.61 144.07C119.625 143.829 119.648 143.595 119.68 143.367L119.921 141.656C119.953 141.428 119.995 141.201 120.046 140.975C120.108 140.742 120.187 140.52 120.285 140.311C120.382 140.102 120.502 139.905 120.644 139.722C120.797 139.53 120.969 139.375 121.16 139.256C121.362 139.13 121.582 139.049 121.82 139.015C122.058 138.971 122.292 138.965 122.52 138.997C122.729 139.026 122.93 139.084 123.121 139.169C123.324 139.246 123.502 139.358 123.655 139.506C123.809 139.653 123.93 139.825 124.019 140.022C124.118 140.211 124.198 140.406 124.256 140.608L124.86 136.316L126.286 136.517L124.812 146.997L123.386 146.797L123.558 145.57C123.446 145.749 123.315 145.919 123.166 146.082C123.028 146.238 122.865 146.365 122.676 146.464C122.488 146.564 122.286 146.623 122.07 146.641C121.862 146.67 121.654 146.669 121.444 146.64ZM122.206 145.467C122.415 145.497 122.616 145.481 122.808 145.421C123.012 145.353 123.183 145.241 123.321 145.086C123.459 144.931 123.561 144.757 123.627 144.562C123.704 144.36 123.757 144.154 123.787 143.945L124.028 142.234C124.057 142.025 124.062 141.817 124.043 141.611C124.034 141.396 123.985 141.195 123.895 141.008C123.805 140.821 123.671 140.671 123.493 140.559C123.325 140.438 123.137 140.363 122.928 140.334C122.719 140.305 122.513 140.324 122.309 140.392C122.116 140.452 121.951 140.56 121.813 140.715C121.675 140.87 121.567 141.049 121.49 141.251C121.424 141.446 121.376 141.647 121.347 141.857L121.106 143.568C121.077 143.777 121.066 143.989 121.075 144.203C121.094 144.409 121.149 144.606 121.239 144.793C121.329 144.981 121.458 145.134 121.625 145.255C121.803 145.367 121.997 145.438 122.206 145.467Z" fill="#FBFEFC"/>
<path d="M112.477 145.262L112.654 144.007L114.536 144.272L115.658 136.301L113.975 136.064L114.152 134.809L117.26 135.247L115.962 144.472L117.644 144.709L117.468 145.964L112.477 145.262Z" fill="#FBFEFC"/>
<path d="M105.347 144.258L105.524 143.004L107.406 143.269L108.096 138.363L106.414 138.126L106.59 136.872L109.699 137.309L108.832 143.469L110.515 143.706L110.338 144.961L105.347 144.258ZM109.108 136.135C108.965 136.115 108.825 136.076 108.688 136.018C108.552 135.95 108.439 135.862 108.348 135.752C108.267 135.634 108.213 135.5 108.186 135.351C108.168 135.203 108.169 135.058 108.189 134.915C108.209 134.773 108.248 134.633 108.306 134.496C108.374 134.36 108.462 134.251 108.57 134.169C108.69 134.079 108.823 134.025 108.971 134.007C109.12 133.98 109.266 133.976 109.409 133.996C109.551 134.016 109.691 134.06 109.827 134.128C109.964 134.186 110.073 134.274 110.153 134.392C110.244 134.502 110.299 134.631 110.317 134.778C110.344 134.928 110.348 135.074 110.328 135.216C110.308 135.359 110.264 135.498 110.196 135.634C110.138 135.771 110.05 135.885 109.93 135.975C109.822 136.056 109.693 136.111 109.544 136.138C109.396 136.156 109.251 136.155 109.108 136.135Z" fill="#FBFEFC"/>
<path d="M100.112 143.638C99.8841 143.606 99.6613 143.536 99.4439 143.428C99.2346 143.33 99.0551 143.194 98.9054 143.018C98.7557 142.841 98.6378 142.645 98.5518 142.43C98.4767 142.206 98.4212 141.98 98.3855 141.752C98.3497 141.524 98.3336 141.294 98.3372 141.062C98.3503 140.831 98.3729 140.601 98.405 140.373L99.0471 135.81L100.473 136.011L99.8309 140.574C99.8122 140.707 99.7982 140.841 99.789 140.975C99.7893 141.111 99.7991 141.248 99.8184 141.386C99.8485 141.517 99.8881 141.648 99.9373 141.781C99.9973 141.906 100.069 142.018 100.152 142.117C100.244 142.217 100.355 142.296 100.482 142.352C100.61 142.409 100.74 142.447 100.873 142.466C101.007 142.484 101.142 142.484 101.281 142.465C101.419 142.445 101.542 142.4 101.649 142.328C101.766 142.257 101.865 142.169 101.948 142.064C102.041 141.951 102.116 141.836 102.171 141.718C102.237 141.591 102.285 141.462 102.313 141.33C102.351 141.2 102.379 141.068 102.398 140.935L103.04 136.372L104.466 136.573L103.422 143.988L101.996 143.787L102.167 142.575C102.064 142.754 101.939 142.921 101.791 143.075C101.653 143.23 101.494 143.358 101.315 143.458C101.138 143.55 100.945 143.61 100.737 143.639C100.53 143.668 100.321 143.668 100.112 143.638Z" fill="#FBFEFC"/>
<path d="M90.8739 142.222L92.3487 131.741L94.8441 132.092C95.0913 132.127 95.3351 132.186 95.5756 132.268C95.8174 132.341 96.0396 132.449 96.2422 132.594C96.4543 132.741 96.6325 132.921 96.7769 133.135C96.9321 133.341 97.0459 133.565 97.1184 133.808C97.2017 134.043 97.245 134.287 97.2482 134.539C97.261 134.793 97.25 135.043 97.2152 135.291C97.1844 135.509 97.1346 135.725 97.0658 135.939C97.0066 136.153 96.9106 136.353 96.7779 136.538C96.6561 136.715 96.503 136.872 96.3187 137.011C96.1438 137.151 95.954 137.26 95.7491 137.338C95.9734 137.467 96.1733 137.631 96.3489 137.83C96.5353 138.021 96.679 138.24 96.78 138.487C96.8918 138.725 96.9534 138.976 96.9648 139.24C96.9857 139.505 96.9782 139.765 96.942 140.022C96.9032 140.298 96.8359 140.569 96.7401 140.837C96.6551 141.096 96.5287 141.34 96.3608 141.569C96.1943 141.788 95.9931 141.978 95.7572 142.138C95.5321 142.291 95.2826 142.411 95.0085 142.498C94.7453 142.578 94.4725 142.622 94.1901 142.63C93.9186 142.631 93.645 142.612 93.3693 142.573L90.8739 142.222ZM93.1506 136.376L94.2201 136.527C94.4197 136.555 94.6152 136.544 94.8065 136.493C95.0087 136.434 95.1775 136.337 95.313 136.201C95.4593 136.057 95.5649 135.892 95.6296 135.707C95.7053 135.514 95.7571 135.318 95.7852 135.118C95.8133 134.919 95.817 134.721 95.7962 134.524C95.7863 134.319 95.7302 134.132 95.628 133.962C95.5367 133.784 95.4013 133.644 95.2219 133.541C95.052 133.44 94.8672 133.375 94.6676 133.347L93.5981 133.197L93.1506 136.376ZM92.4764 141.168L93.5459 141.318C93.698 141.34 93.8521 141.347 94.0082 141.34C94.1738 141.334 94.3279 141.307 94.4703 141.259C94.6236 141.203 94.7606 141.125 94.8812 141.026C95.0113 140.928 95.1197 140.812 95.2063 140.679C95.2929 140.546 95.3612 140.405 95.4111 140.257C95.461 140.109 95.4974 139.954 95.5201 139.793C95.5415 139.641 95.5486 139.487 95.5415 139.33C95.5357 139.165 95.5096 139.006 95.4631 138.854C95.4167 138.702 95.3444 138.561 95.2464 138.431C95.1579 138.302 95.047 138.194 94.9138 138.108C94.7914 138.013 94.6514 137.94 94.4938 137.889C94.3457 137.839 94.1956 137.803 94.0435 137.782L92.974 137.631L92.4764 141.168Z" fill="#FBFEFC"/>
<path d="M196.624 139.935L197.668 132.52L199.094 132.721L198.923 133.933C199.026 133.754 199.146 133.586 199.284 133.431C199.432 133.278 199.595 133.155 199.772 133.064C199.951 132.963 200.145 132.898 200.352 132.869C200.56 132.84 200.768 132.84 200.978 132.87C201.206 132.902 201.424 132.971 201.632 133.078C201.851 133.177 202.035 133.314 202.185 133.49C202.334 133.667 202.447 133.867 202.522 134.09C202.608 134.306 202.669 134.528 202.704 134.756C202.74 134.984 202.752 135.213 202.738 135.444C202.735 135.676 202.717 135.907 202.685 136.135L202.043 140.698L200.617 140.497L201.259 135.934C201.278 135.801 201.287 135.667 201.287 135.531C201.296 135.396 201.285 135.264 201.255 135.134C201.236 134.995 201.196 134.864 201.136 134.739C201.087 134.606 201.016 134.489 200.924 134.389C200.841 134.29 200.735 134.212 200.608 134.156C200.48 134.099 200.35 134.061 200.216 134.042C200.083 134.024 199.948 134.024 199.809 134.043C199.671 134.063 199.543 134.108 199.427 134.178C199.319 134.251 199.219 134.343 199.126 134.456C199.043 134.561 198.969 134.676 198.902 134.803C198.847 134.921 198.8 135.045 198.763 135.176C198.734 135.307 198.711 135.44 198.692 135.573L198.05 140.136L196.624 139.935Z" fill="#FBFEFC"/>
<path d="M192.188 139.427C191.931 139.391 191.678 139.331 191.428 139.248C191.178 139.164 190.947 139.044 190.737 138.889C190.526 138.733 190.344 138.547 190.19 138.332C190.047 138.108 189.935 137.869 189.854 137.616C189.783 137.363 189.742 137.105 189.73 136.842C189.728 136.58 189.746 136.321 189.782 136.064L190.022 134.353C190.059 134.096 190.114 133.842 190.188 133.591C190.272 133.341 190.382 133.105 190.52 132.882C190.668 132.66 190.841 132.466 191.038 132.3C191.247 132.126 191.474 131.993 191.72 131.902C191.965 131.81 192.22 131.759 192.483 131.747C192.747 131.736 193.007 131.748 193.263 131.784C193.52 131.82 193.773 131.88 194.023 131.964C194.273 132.048 194.504 132.167 194.714 132.323C194.925 132.479 195.102 132.668 195.245 132.892C195.399 133.108 195.511 133.342 195.582 133.594C195.663 133.848 195.704 134.105 195.706 134.367C195.718 134.631 195.705 134.891 195.669 135.148L195.428 136.859C195.392 137.115 195.332 137.369 195.249 137.619C195.175 137.87 195.064 138.106 194.916 138.328C194.778 138.551 194.605 138.75 194.396 138.924C194.198 139.09 193.977 139.219 193.731 139.31C193.486 139.402 193.231 139.453 192.968 139.464C192.704 139.476 192.444 139.463 192.188 139.427ZM192.364 138.173C192.573 138.202 192.779 138.187 192.981 138.128C193.194 138.061 193.369 137.955 193.506 137.81C193.654 137.656 193.766 137.478 193.843 137.275C193.92 137.073 193.973 136.867 194.002 136.658L194.243 134.947C194.273 134.738 194.278 134.525 194.26 134.309C194.242 134.094 194.183 133.896 194.082 133.717C193.992 133.53 193.853 133.38 193.665 133.266C193.489 133.144 193.296 133.069 193.087 133.039C192.878 133.01 192.666 133.028 192.453 133.095C192.251 133.154 192.076 133.26 191.929 133.414C191.792 133.56 191.685 133.734 191.608 133.936C191.531 134.139 191.478 134.344 191.448 134.554L191.208 136.265C191.178 136.474 191.173 136.686 191.191 136.902C191.209 137.118 191.263 137.32 191.353 137.507C191.454 137.686 191.592 137.836 191.769 137.958C191.957 138.072 192.155 138.143 192.364 138.173Z" fill="#FBFEFC"/>
<path d="M182.579 137.959L182.755 136.704L184.637 136.969L185.328 132.064L183.645 131.827L183.822 130.572L186.93 131.009L186.063 137.17L187.746 137.406L187.569 138.661L182.579 137.959ZM186.339 129.836C186.197 129.816 186.057 129.776 185.919 129.718C185.784 129.651 185.67 129.562 185.579 129.452C185.498 129.334 185.445 129.201 185.417 129.051C185.399 128.904 185.4 128.758 185.42 128.616C185.44 128.473 185.479 128.333 185.537 128.196C185.605 128.06 185.693 127.951 185.802 127.87C185.921 127.78 186.054 127.726 186.202 127.708C186.352 127.68 186.498 127.677 186.64 127.697C186.783 127.717 186.922 127.761 187.058 127.828C187.195 127.886 187.304 127.974 187.384 128.092C187.476 128.202 187.53 128.331 187.548 128.479C187.576 128.628 187.579 128.774 187.559 128.917C187.539 129.059 187.495 129.199 187.428 129.334C187.37 129.472 187.281 129.585 187.162 129.675C187.053 129.757 186.924 129.811 186.775 129.839C186.627 129.857 186.482 129.856 186.339 129.836Z" fill="#FBFEFC"/>
<path d="M178.798 137.543C178.57 137.511 178.35 137.451 178.14 137.363C177.929 137.276 177.743 137.152 177.581 136.994C177.419 136.835 177.284 136.656 177.177 136.457C177.08 136.25 177.008 136.036 176.962 135.816C176.916 135.587 176.895 135.361 176.897 135.138C176.91 134.907 176.932 134.682 176.963 134.464L177.456 130.956L176.244 130.785L176.421 129.531L177.633 129.701L178.064 126.635L179.49 126.836L179.059 129.902L181.412 130.233L181.235 131.488L178.882 131.157L178.389 134.664C178.374 134.769 178.364 134.874 178.359 134.98C178.354 135.086 178.353 135.193 178.358 135.3C178.362 135.407 178.371 135.515 178.385 135.624C178.409 135.724 178.444 135.821 178.489 135.915C178.534 136.008 178.6 136.09 178.687 136.161C178.774 136.231 178.87 136.274 178.975 136.288C179.079 136.303 179.178 136.293 179.27 136.257C179.373 136.214 179.458 136.158 179.526 136.09C179.595 136.012 179.651 135.928 179.693 135.837C179.744 135.747 179.786 135.656 179.818 135.564C179.861 135.463 179.895 135.361 179.919 135.258C179.944 135.155 179.962 135.056 179.976 134.961L179.988 134.875L181.414 135.076L181.394 135.218C181.363 135.437 181.313 135.653 181.244 135.866C181.177 136.07 181.091 136.266 180.987 136.455C180.883 136.644 180.752 136.82 180.593 136.981C180.444 137.145 180.271 137.275 180.073 137.374C179.874 137.472 179.668 137.53 179.452 137.548C179.235 137.576 179.017 137.574 178.798 137.543Z" fill="#FBFEFC"/>
<path d="M170.157 136.327C169.862 136.286 169.578 136.202 169.305 136.076C169.032 135.951 168.805 135.769 168.626 135.53C168.455 135.293 168.342 135.03 168.286 134.741C168.241 134.443 168.239 134.147 168.28 133.853C168.315 133.606 168.377 133.367 168.468 133.138C168.569 132.9 168.709 132.696 168.888 132.528C169.068 132.35 169.272 132.209 169.5 132.105C169.739 131.993 169.978 131.915 170.217 131.871C170.465 131.829 170.715 131.81 170.966 131.817C171.217 131.823 171.466 131.844 171.713 131.878L172.726 132.021L172.808 131.436C172.832 131.265 172.827 131.095 172.793 130.925C172.759 130.755 172.688 130.605 172.58 130.473C172.473 130.342 172.337 130.24 172.172 130.169C172.017 130.098 171.854 130.051 171.683 130.027C171.531 130.006 171.377 129.999 171.221 130.006C171.065 130.013 170.914 130.05 170.769 130.117C170.633 130.185 170.517 130.285 170.421 130.417C170.327 130.539 170.268 130.676 170.247 130.829L170.241 130.871L168.815 130.671L168.825 130.599C168.856 130.381 168.919 130.171 169.015 129.972C169.113 129.762 169.236 129.576 169.385 129.413C169.534 129.25 169.707 129.119 169.905 129.021C170.114 128.915 170.324 128.837 170.534 128.789C170.754 128.743 170.975 128.721 171.198 128.723C171.42 128.725 171.641 128.742 171.86 128.772C172.088 128.804 172.313 128.856 172.536 128.926C172.77 128.988 172.984 129.081 173.18 129.205C173.386 129.331 173.568 129.483 173.727 129.66C173.886 129.838 174.009 130.035 174.095 130.25C174.19 130.467 174.245 130.698 174.259 130.942C174.275 131.177 174.266 131.409 174.234 131.637L173.524 136.685L172.098 136.484L172.252 135.386C172.141 135.555 172.008 135.71 171.852 135.853C171.706 135.997 171.539 136.115 171.352 136.205C171.166 136.285 170.971 136.33 170.766 136.34C170.559 136.36 170.356 136.355 170.157 136.327ZM170.918 135.155C171.099 135.18 171.283 135.177 171.472 135.145C171.662 135.104 171.828 135.026 171.97 134.91C172.114 134.785 172.222 134.635 172.295 134.461C172.378 134.289 172.432 134.107 172.459 133.917L172.549 133.276L171.537 133.133C171.413 133.116 171.289 133.103 171.164 133.095C171.049 133.089 170.927 133.091 170.8 133.102C170.682 133.115 170.562 133.137 170.441 133.168C170.321 133.2 170.207 133.247 170.102 133.309C169.996 133.372 169.91 133.462 169.846 133.579C169.782 133.686 169.741 133.801 169.724 133.925C169.703 134.077 169.719 134.235 169.774 134.397C169.83 134.551 169.913 134.684 170.023 134.796C170.144 134.9 170.283 134.983 170.439 135.044C170.597 135.095 170.756 135.132 170.918 135.155Z" fill="#FBFEFC"/>
<path d="M162.858 135.184C162.766 134.802 162.674 134.421 162.582 134.04C162.5 133.66 162.418 133.28 162.336 132.9C162.264 132.512 162.192 132.128 162.119 131.75C162.057 131.363 162 130.977 161.948 130.591C161.906 130.198 161.874 129.805 161.852 129.415C161.839 129.025 161.86 128.635 161.915 128.245L162.019 127.504L163.445 127.705L163.34 128.446C163.272 128.931 163.252 129.418 163.28 129.906C163.309 130.395 163.347 130.88 163.395 131.362C163.453 131.845 163.516 132.329 163.584 132.814C163.661 133.3 163.743 133.781 163.831 134.259C164.048 133.824 164.255 133.383 164.454 132.936C164.662 132.49 164.856 132.043 165.035 131.593C165.224 131.145 165.4 130.689 165.562 130.227C165.724 129.765 165.839 129.292 165.907 128.807L166.012 128.066L167.437 128.266L167.333 129.008C167.278 129.398 167.186 129.777 167.057 130.147C166.936 130.518 166.797 130.886 166.639 131.252C166.492 131.609 166.331 131.964 166.155 132.318C165.99 132.663 165.815 133.011 165.63 133.363C165.455 133.707 165.271 134.05 165.078 134.391C164.894 134.734 164.705 135.075 164.512 135.417L162.858 135.184Z" fill="#FBFEFC"/>
<path d="M156.539 134.411C156.282 134.375 156.029 134.315 155.779 134.231C155.529 134.148 155.299 134.028 155.088 133.872C154.877 133.717 154.695 133.531 154.541 133.315C154.398 133.092 154.286 132.853 154.205 132.599C154.134 132.347 154.093 132.089 154.082 131.826C154.08 131.564 154.097 131.304 154.133 131.048L154.374 129.337C154.41 129.08 154.465 128.826 154.539 128.575C154.623 128.325 154.734 128.088 154.872 127.865C155.019 127.644 155.192 127.45 155.39 127.284C155.598 127.109 155.825 126.977 156.071 126.885C156.317 126.794 156.571 126.742 156.834 126.731C157.098 126.719 157.358 126.732 157.614 126.768C157.871 126.804 158.124 126.864 158.374 126.947C158.624 127.031 158.855 127.151 159.066 127.306C159.276 127.462 159.453 127.652 159.596 127.876C159.75 128.091 159.863 128.325 159.934 128.577C160.014 128.831 160.056 129.089 160.058 129.351C160.069 129.614 160.057 129.874 160.02 130.131L159.78 131.842C159.744 132.099 159.684 132.352 159.6 132.602C159.526 132.854 159.415 133.09 159.268 133.312C159.13 133.535 158.956 133.733 158.747 133.907C158.55 134.073 158.328 134.202 158.082 134.294C157.837 134.385 157.582 134.437 157.319 134.448C157.056 134.459 156.796 134.447 156.539 134.411ZM156.715 133.156C156.925 133.186 157.13 133.171 157.332 133.112C157.545 133.045 157.72 132.939 157.857 132.793C158.005 132.64 158.117 132.461 158.194 132.259C158.271 132.057 158.324 131.851 158.354 131.642L158.594 129.93C158.624 129.721 158.63 129.509 158.611 129.293C158.593 129.077 158.534 128.88 158.433 128.701C158.343 128.514 158.204 128.363 158.017 128.25C157.84 128.128 157.647 128.052 157.438 128.023C157.229 127.993 157.018 128.012 156.805 128.079C156.602 128.138 156.428 128.244 156.28 128.398C156.143 128.543 156.036 128.717 155.959 128.92C155.882 129.122 155.829 129.328 155.8 129.537L155.559 131.248C155.529 131.457 155.524 131.67 155.542 131.886C155.56 132.102 155.614 132.303 155.704 132.49C155.805 132.669 155.944 132.82 156.12 132.941C156.308 133.055 156.506 133.127 156.715 133.156Z" fill="#FBFEFC"/>
<path d="M146.716 132.912L147.759 125.497L149.185 125.698L149.015 126.91C149.118 126.731 149.238 126.563 149.376 126.408C149.524 126.255 149.686 126.132 149.864 126.041C150.043 125.94 150.236 125.875 150.444 125.846C150.652 125.817 150.86 125.817 151.069 125.847C151.297 125.879 151.516 125.948 151.723 126.055C151.942 126.154 152.127 126.291 152.276 126.467C152.426 126.644 152.538 126.844 152.613 127.067C152.699 127.283 152.76 127.505 152.796 127.733C152.832 127.961 152.843 128.19 152.83 128.421C152.827 128.653 152.809 128.884 152.777 129.112L152.135 133.675L150.709 133.474L151.351 128.911C151.369 128.778 151.379 128.644 151.378 128.508C151.388 128.373 151.377 128.241 151.347 128.111C151.328 127.972 151.288 127.841 151.228 127.716C151.179 127.583 151.108 127.466 151.015 127.366C150.932 127.267 150.827 127.189 150.699 127.133C150.572 127.076 150.441 127.038 150.308 127.019C150.175 127.001 150.039 127.001 149.901 127.02C149.762 127.04 149.635 127.085 149.518 127.155C149.411 127.228 149.311 127.32 149.217 127.433C149.135 127.538 149.06 127.653 148.994 127.78C148.939 127.898 148.892 128.022 148.854 128.153C148.826 128.284 148.803 128.417 148.784 128.55L148.142 133.113L146.716 132.912Z" fill="#FBFEFC"/>
<path d="M139.586 131.909L140.63 124.494L142.056 124.695L141.885 125.907C141.988 125.727 142.108 125.56 142.246 125.405C142.394 125.251 142.557 125.129 142.734 125.037C142.913 124.937 143.107 124.872 143.314 124.843C143.522 124.814 143.73 124.814 143.94 124.844C144.168 124.876 144.386 124.945 144.594 125.052C144.813 125.151 144.997 125.288 145.146 125.464C145.296 125.64 145.409 125.84 145.484 126.064C145.57 126.28 145.631 126.502 145.666 126.73C145.702 126.958 145.714 127.187 145.7 127.418C145.697 127.65 145.679 127.88 145.647 128.108L145.005 132.672L143.579 132.471L144.221 127.908C144.24 127.775 144.249 127.64 144.249 127.505C144.258 127.37 144.247 127.238 144.217 127.107C144.198 126.969 144.158 126.837 144.098 126.713C144.049 126.58 143.978 126.463 143.886 126.363C143.803 126.264 143.697 126.186 143.57 126.129C143.442 126.073 143.311 126.035 143.178 126.016C143.045 125.997 142.91 125.998 142.771 126.017C142.633 126.036 142.505 126.081 142.388 126.152C142.281 126.224 142.181 126.317 142.088 126.43C142.005 126.534 141.931 126.65 141.864 126.776C141.809 126.895 141.762 127.019 141.725 127.149C141.696 127.281 141.673 127.414 141.654 127.547L141.012 132.11L139.586 131.909Z" fill="#FBFEFC"/>
<path d="M132.67 130.936L132.847 129.681L134.629 129.932L135.751 121.961L133.969 121.71L134.145 120.455L139.136 121.157L138.959 122.412L137.177 122.161L136.055 130.132L137.838 130.383L137.661 131.638L132.67 130.936Z" fill="#FBFEFC"/>
<path d="M120.462 129.334C120.234 129.302 120.005 129.241 119.776 129.15C119.556 129.061 119.36 128.937 119.188 128.777C119.028 128.609 118.89 128.42 118.774 128.21C118.667 128.001 118.587 127.781 118.532 127.55C118.477 127.32 118.442 127.087 118.427 126.852C118.421 126.619 118.435 126.383 118.468 126.145C118.506 125.879 118.576 125.618 118.68 125.361C118.786 125.094 118.917 124.851 119.074 124.631C119.242 124.402 119.431 124.196 119.641 124.013C119.851 123.829 120.069 123.656 120.295 123.494C120.201 123.268 120.102 123.04 119.999 122.812C119.906 122.576 119.827 122.342 119.763 122.11C119.699 121.878 119.65 121.639 119.617 121.392C119.595 121.137 119.6 120.89 119.634 120.653C119.676 120.348 119.766 120.056 119.903 119.774C120.039 119.493 120.223 119.257 120.453 119.066C120.685 118.866 120.95 118.739 121.249 118.684C121.558 118.621 121.865 118.611 122.169 118.653C122.473 118.696 122.76 118.79 123.031 118.935C123.311 119.081 123.535 119.282 123.702 119.538C123.881 119.786 123.992 120.064 124.036 120.37C124.091 120.669 124.097 120.97 124.054 121.275C124.013 121.569 123.929 121.853 123.803 122.126C123.689 122.391 123.538 122.637 123.351 122.862C123.164 123.088 122.956 123.292 122.727 123.473C122.498 123.654 122.261 123.824 122.015 123.983C122.037 124.035 122.055 124.081 122.068 124.122C122.092 124.164 122.114 124.21 122.136 124.262L122.857 126.065L123.459 124.986L124.942 125.195L123.737 127.352C123.699 127.415 123.66 127.482 123.621 127.554C123.593 127.618 123.56 127.681 123.522 127.743L124.328 129.762L122.731 129.537L122.342 128.581C122.238 128.702 122.126 128.812 122.005 128.912C121.885 129.011 121.751 129.099 121.604 129.175C121.469 129.243 121.322 129.29 121.163 129.317C121.012 129.354 120.855 129.365 120.693 129.352L120.462 129.334ZM121.465 122.728C121.606 122.622 121.737 122.514 121.859 122.405C121.992 122.288 122.111 122.164 122.217 122.034C122.324 121.894 122.412 121.746 122.483 121.591C122.554 121.427 122.602 121.259 122.626 121.088C122.644 120.965 122.647 120.839 122.636 120.711C122.624 120.584 122.593 120.463 122.541 120.349C122.5 120.227 122.427 120.129 122.321 120.056C122.225 119.975 122.116 119.926 121.992 119.908C121.869 119.891 121.745 119.907 121.622 119.958C121.508 120.01 121.41 120.083 121.329 120.179C121.248 120.274 121.184 120.381 121.138 120.501C121.102 120.622 121.074 120.749 121.056 120.882C121.034 121.034 121.031 121.193 121.046 121.36C121.063 121.518 121.089 121.677 121.125 121.837C121.171 121.989 121.223 122.141 121.278 122.295C121.345 122.44 121.407 122.584 121.465 122.728ZM120.896 128.116C121 128.13 121.102 128.13 121.201 128.115C121.302 128.09 121.398 128.055 121.492 128.01C121.587 127.956 121.668 127.895 121.736 127.827C121.813 127.76 121.887 127.683 121.958 127.596L120.84 124.792C120.599 124.991 120.391 125.223 120.218 125.49C120.046 125.747 119.939 126.027 119.896 126.332C119.877 126.465 119.869 126.594 119.87 126.721C119.872 126.847 119.883 126.975 119.904 127.103C119.935 127.224 119.976 127.346 120.027 127.47C120.079 127.584 120.146 127.69 120.229 127.789C120.313 127.879 120.415 127.951 120.533 128.006C120.651 128.062 120.772 128.098 120.896 128.116Z" fill="#FBFEFC"/>
<path d="M103.937 126.893L104.981 119.478L106.407 119.678L106.236 120.89C106.339 120.711 106.459 120.544 106.598 120.389C106.745 120.235 106.908 120.112 107.086 120.021C107.265 119.92 107.458 119.855 107.666 119.826C107.873 119.797 108.082 119.798 108.291 119.827C108.519 119.859 108.737 119.929 108.945 120.035C109.164 120.134 109.348 120.272 109.498 120.448C109.647 120.624 109.76 120.824 109.835 121.048C109.921 121.263 109.982 121.485 110.018 121.713C110.053 121.941 110.065 122.171 110.052 122.402C110.048 122.634 110.03 122.864 109.998 123.092L109.356 127.655L107.93 127.454L108.572 122.891C108.591 122.758 108.6 122.624 108.6 122.488C108.609 122.354 108.599 122.221 108.568 122.091C108.549 121.953 108.509 121.821 108.449 121.696C108.4 121.563 108.329 121.447 108.237 121.346C108.154 121.247 108.049 121.17 107.921 121.113C107.793 121.056 107.663 121.018 107.53 121C107.396 120.981 107.261 120.981 107.122 121.001C106.984 121.02 106.856 121.065 106.74 121.136C106.633 121.208 106.532 121.3 106.439 121.413C106.356 121.518 106.282 121.634 106.216 121.76C106.16 121.878 106.114 122.003 106.076 122.133C106.048 122.265 106.024 122.397 106.005 122.53L105.363 127.093L103.937 126.893Z" fill="#FBFEFC"/>
<path d="M99.041 129.446C98.8223 129.416 98.6057 129.371 98.391 129.311C98.1859 129.253 97.9889 129.172 97.8 129.068C97.6097 128.974 97.4329 128.852 97.2697 128.703C97.1065 128.554 96.9703 128.384 96.8613 128.194C96.7618 128.006 96.6888 127.802 96.6422 127.582C96.605 127.363 96.6019 127.145 96.6326 126.926L98.0586 127.127C98.0467 127.28 98.0701 127.424 98.1287 127.558C98.1969 127.694 98.2881 127.804 98.4023 127.888C98.5152 127.981 98.6416 128.048 98.7815 128.087C98.9296 128.137 99.0749 128.172 99.2175 128.192C99.3506 128.21 99.4864 128.21 99.6248 128.191C99.7633 128.171 99.8908 128.126 100.007 128.056C100.124 127.985 100.228 127.898 100.32 127.794C100.413 127.691 100.487 127.575 100.544 127.448C100.599 127.329 100.646 127.2 100.685 127.06C100.723 126.93 100.751 126.798 100.77 126.665L100.973 125.225C100.861 125.403 100.73 125.574 100.581 125.737C100.443 125.892 100.279 126.019 100.091 126.119C99.9024 126.218 99.7002 126.277 99.4844 126.295C99.2767 126.324 99.0683 126.324 98.8592 126.294C98.6311 126.262 98.4083 126.192 98.1908 126.084C97.972 125.985 97.7823 125.852 97.6218 125.684C97.4721 125.508 97.3495 125.311 97.254 125.094C97.1693 124.869 97.1091 124.642 97.0733 124.414C97.0376 124.186 97.0215 123.956 97.0251 123.724C97.0395 123.484 97.0628 123.249 97.0949 123.021L97.3357 121.31C97.3678 121.082 97.4094 120.855 97.4605 120.63C97.5225 120.396 97.6021 120.175 97.6994 119.965C97.7967 119.756 97.9165 119.56 98.0586 119.376C98.2116 119.184 98.3837 119.029 98.5749 118.911C98.7769 118.784 98.9967 118.703 99.2342 118.669C99.4731 118.625 99.7066 118.619 99.9347 118.651C100.144 118.681 100.344 118.738 100.536 118.823C100.738 118.9 100.916 119.012 101.07 119.16C101.224 119.308 101.345 119.48 101.434 119.677C101.533 119.865 101.612 120.06 101.671 120.263L101.844 119.036L103.27 119.237L102.196 126.866C102.16 127.122 102.106 127.372 102.033 127.613C101.959 127.865 101.853 128.097 101.717 128.311C101.579 128.533 101.41 128.733 101.211 128.908C101.011 129.084 100.794 129.218 100.558 129.311C100.322 129.404 100.072 129.456 99.8087 129.467C99.5536 129.489 99.2976 129.483 99.041 129.446ZM99.6204 125.122C99.8296 125.151 100.03 125.136 100.223 125.076C100.427 125.007 100.597 124.896 100.736 124.741C100.874 124.586 100.976 124.411 101.042 124.217C101.119 124.014 101.172 123.808 101.202 123.599L101.442 121.888C101.472 121.679 101.477 121.471 101.457 121.265C101.449 121.05 101.399 120.85 101.309 120.662C101.219 120.475 101.085 120.326 100.907 120.213C100.74 120.093 100.552 120.018 100.343 119.988C100.134 119.959 99.9273 119.978 99.7238 120.047C99.5312 120.107 99.3658 120.214 99.2276 120.369C99.0894 120.525 98.9819 120.703 98.9049 120.906C98.8388 121.1 98.791 121.302 98.7616 121.511L98.5208 123.222C98.4914 123.431 98.481 123.643 98.4896 123.857C98.509 124.064 98.5637 124.261 98.6537 124.448C98.7437 124.635 98.8723 124.789 99.0396 124.909C99.2177 125.021 99.4113 125.092 99.6204 125.122Z" fill="#FBFEFC"/>
<path d="M89.8918 124.916L90.0683 123.661L91.9506 123.926L92.6409 119.021L90.9582 118.784L91.1348 117.529L94.2434 117.967L93.3765 124.127L95.0592 124.364L94.8826 125.618L89.8918 124.916ZM93.6524 116.793C93.5098 116.773 93.3699 116.734 93.2326 116.676C93.0967 116.608 92.9832 116.519 92.892 116.41C92.8116 116.292 92.7577 116.158 92.7303 116.009C92.7123 115.861 92.7134 115.716 92.7334 115.573C92.7535 115.43 92.7926 115.29 92.8507 115.153C92.9183 115.017 93.0063 114.908 93.1147 114.827C93.234 114.737 93.3676 114.683 93.5156 114.665C93.6648 114.638 93.8108 114.634 93.9534 114.654C94.096 114.674 94.2352 114.718 94.3711 114.785C94.5084 114.844 94.6172 114.932 94.6975 115.05C94.7887 115.159 94.8433 115.288 94.8612 115.436C94.8887 115.585 94.8924 115.731 94.8723 115.874C94.8523 116.017 94.8085 116.156 94.7409 116.292C94.6828 116.429 94.5941 116.542 94.4748 116.632C94.3663 116.714 94.2375 116.769 94.0882 116.796C93.9403 116.814 93.795 116.813 93.6524 116.793Z" fill="#FBFEFC"/>
<path d="M85.2271 124.376C85.018 124.347 84.8061 124.302 84.5915 124.243C84.385 124.195 84.1866 124.123 83.9964 124.028C83.8061 123.934 83.6239 123.816 83.4498 123.675C83.2853 123.536 83.1478 123.376 83.0375 123.195C82.9285 123.006 82.85 122.805 82.802 122.595C82.7649 122.377 82.7611 122.163 82.7905 121.954L82.8045 121.854L84.2305 122.055L84.2245 122.097C84.2044 122.24 84.2284 122.379 84.2966 122.515C84.3743 122.652 84.4702 122.762 84.5845 122.846C84.7095 122.922 84.8413 122.984 84.9799 123.032C85.1198 123.072 85.2611 123.101 85.4037 123.121C85.5463 123.141 85.6902 123.152 85.8355 123.153C85.9808 123.154 86.1192 123.135 86.2508 123.095C86.3933 123.047 86.5153 122.972 86.6169 122.87C86.7294 122.76 86.7956 122.634 86.8157 122.491C86.8371 122.339 86.8049 122.189 86.719 122.041C86.6427 121.895 86.5386 121.773 86.4067 121.677C86.2843 121.582 86.1504 121.501 86.005 121.432C85.8691 121.364 85.7284 121.296 85.583 121.227C85.4376 121.158 85.2922 121.089 85.1468 121.02C85.0122 120.943 84.8783 120.861 84.7451 120.775C84.6118 120.688 84.4847 120.592 84.3636 120.488C84.2426 120.384 84.127 120.276 84.0168 120.163C83.9174 120.042 83.8235 119.918 83.7349 119.789C83.6573 119.652 83.5904 119.507 83.5345 119.354C83.4785 119.2 83.4422 119.045 83.4255 118.887C83.4089 118.73 83.4113 118.575 83.4327 118.423C83.4621 118.214 83.5242 118.014 83.6188 117.824C83.7135 117.634 83.8339 117.466 83.9803 117.322C84.1279 117.169 84.2953 117.047 84.4825 116.957C84.6805 116.859 84.8793 116.79 85.0788 116.75C85.2891 116.702 85.4954 116.682 85.6977 116.691C85.9109 116.692 86.122 116.708 86.3312 116.737C86.5403 116.766 86.7427 116.809 86.9383 116.866C87.1448 116.914 87.3377 116.99 87.5171 117.093C87.7074 117.188 87.8801 117.304 88.0351 117.442C88.1997 117.582 88.3317 117.746 88.4312 117.934C88.5321 118.113 88.6017 118.307 88.6402 118.516C88.6786 118.725 88.6831 118.934 88.6537 119.143L88.6397 119.243L87.2137 119.042L87.2197 119C87.2385 118.867 87.2185 118.733 87.1598 118.599C87.1012 118.464 87.0195 118.356 86.9148 118.273C86.8101 118.191 86.6877 118.13 86.5478 118.091C86.4188 118.044 86.2877 118.011 86.1546 117.992C86.0215 117.973 85.8871 117.964 85.7513 117.964C85.6155 117.964 85.4812 117.989 85.3482 118.038C85.2248 118.089 85.117 118.166 85.0249 118.269C84.9328 118.372 84.8774 118.491 84.8587 118.624C84.8359 118.785 84.8627 118.939 84.9391 119.086C85.0262 119.224 85.1304 119.345 85.2514 119.45C85.3738 119.545 85.5077 119.626 85.6531 119.695C85.7985 119.764 85.9392 119.833 86.0751 119.9C86.2205 119.969 86.3652 120.043 86.5093 120.121C86.6547 120.19 86.7893 120.267 86.913 120.353C87.0463 120.439 87.1734 120.535 87.2944 120.639C87.4263 120.735 87.542 120.843 87.6413 120.964C87.7502 121.086 87.8435 121.215 87.9211 121.352C88.0097 121.481 88.0819 121.622 88.1379 121.775C88.1952 121.919 88.2322 122.07 88.2488 122.227C88.2654 122.385 88.2624 122.544 88.2396 122.706C88.2102 122.915 88.1427 123.119 88.0373 123.317C87.9413 123.517 87.8154 123.688 87.6596 123.831C87.5037 123.974 87.3268 124.095 87.1288 124.193C86.9321 124.281 86.7245 124.344 86.506 124.381C86.297 124.42 86.0819 124.433 85.8606 124.422C85.6474 124.421 85.4363 124.405 85.2271 124.376Z" fill="#FBFEFC"/>
<path d="M78.1116 123.375C77.8549 123.339 77.6016 123.279 77.3516 123.195C77.1017 123.111 76.8713 122.992 76.6605 122.836C76.4498 122.68 76.2674 122.495 76.1136 122.279C75.9706 122.056 75.8587 121.817 75.7781 121.563C75.707 121.311 75.6657 121.053 75.6543 120.79C75.6524 120.527 75.6695 120.268 75.7056 120.011L75.9464 118.3C75.9825 118.044 76.0376 117.79 76.1118 117.538C76.1954 117.288 76.3063 117.052 76.4443 116.829C76.5918 116.607 76.7645 116.414 76.9624 116.247C77.1711 116.073 77.3982 115.94 77.6437 115.849C77.8893 115.757 78.1437 115.706 78.4071 115.695C78.6705 115.683 78.9305 115.696 79.1871 115.732C79.4438 115.768 79.6971 115.828 79.9471 115.911C80.1971 115.995 80.4275 116.115 80.6382 116.27C80.849 116.426 81.0259 116.616 81.1689 116.839C81.3228 117.055 81.4353 117.289 81.5064 117.541C81.587 117.795 81.6283 118.053 81.6302 118.315C81.6416 118.578 81.6293 118.838 81.5932 119.095L81.3845 120.578L77.1637 119.984L77.1316 120.212C77.1021 120.421 77.0917 120.633 77.1003 120.848C77.1184 121.063 77.1772 121.266 77.2767 121.454C77.3776 121.633 77.5164 121.783 77.6931 121.905C77.8807 122.019 78.0791 122.09 78.2882 122.12C78.4498 122.143 78.6087 122.15 78.7648 122.143C78.9304 122.138 79.0858 122.101 79.2309 122.034C79.3774 121.958 79.4987 121.854 79.5948 121.722C79.7004 121.592 79.7693 121.446 79.8016 121.286L81.2275 121.487C81.1954 121.715 81.1307 121.933 81.0334 122.143C80.9361 122.352 80.8075 122.542 80.6477 122.714C80.4892 122.876 80.3055 123.01 80.0966 123.116C79.8973 123.224 79.687 123.306 79.4658 123.362C79.246 123.408 79.02 123.43 78.7878 123.426C78.5557 123.423 78.3303 123.406 78.1116 123.375ZM80.1351 119.122L80.1672 118.894C80.1966 118.685 80.2023 118.473 80.1842 118.257C80.1661 118.041 80.1066 117.844 80.0058 117.665C79.9158 117.477 79.777 117.327 79.5894 117.213C79.4127 117.092 79.2197 117.016 79.0106 116.986C78.8014 116.957 78.5904 116.976 78.3773 117.043C78.1752 117.102 78.0003 117.208 77.8526 117.362C77.7158 117.507 77.6089 117.681 77.5319 117.884C77.455 118.086 77.4018 118.292 77.3723 118.501L77.3402 118.729L80.1351 119.122Z" fill="#FBFEFC"/>
<path d="M68.2886 121.876L69.7634 111.395L72.045 111.716C72.3302 111.757 72.612 111.82 72.8905 111.908C73.169 111.996 73.4279 112.119 73.6672 112.279C73.9065 112.439 74.1166 112.633 74.2977 112.862C74.4896 113.083 74.634 113.331 74.731 113.607C74.8293 113.873 74.8821 114.152 74.8895 114.443C74.9064 114.737 74.8948 115.026 74.8547 115.311L74.2627 119.518C74.2226 119.803 74.154 120.084 74.0568 120.361C73.9691 120.64 73.8407 120.898 73.6715 121.136C73.5036 121.364 73.2963 121.563 73.0496 121.732C72.8137 121.892 72.5587 122.017 72.2846 122.104C72.0106 122.191 71.7276 122.239 71.4357 122.246C71.1439 122.254 70.8553 122.237 70.5701 122.197L68.2886 121.876ZM69.8911 120.822L70.7467 120.942C70.9083 120.965 71.0719 120.974 71.2376 120.968C71.4127 120.963 71.5769 120.933 71.7302 120.877C71.8943 120.813 72.0421 120.727 72.1736 120.62C72.3051 120.512 72.4141 120.392 72.5007 120.259C72.5982 120.117 72.6725 119.968 72.7238 119.81C72.7764 119.643 72.8141 119.479 72.8368 119.317L73.4287 115.11C73.4515 114.949 73.46 114.785 73.4542 114.62C73.4497 114.444 73.4195 114.28 73.3635 114.127C73.3184 113.965 73.2475 113.815 73.1508 113.675C73.0541 113.536 72.9351 113.417 72.7937 113.32C72.6631 113.214 72.5143 113.135 72.3472 113.082C72.1896 113.031 72.03 112.994 71.8684 112.971L71.0128 112.851L69.8911 120.822Z" fill="#FBFEFC"/>
<path fill-rule="evenodd" clip-rule="evenodd" d="M186.61 186.142L73.4968 170.225L73.664 169.036L186.777 184.954L186.61 186.142Z" fill="#FBFEFC"/>
<path fill-rule="evenodd" clip-rule="evenodd" d="M206.446 28.0902L227.064 37.565L226.563 38.6554L206.105 29.254L116.852 16.6946L109.321 20.7016L105.673 15.1215L96.8121 13.8747L76.6239 17.6579L76.4029 16.4784L96.7845 12.659L106.379 14.0091L109.725 19.1271L116.632 15.4519L206.446 28.0902Z" fill="#FBFEFC"/>
<path d="M11.3896 154.242L56.635 160.608L56.1323 164.18L10.887 157.814L11.3896 154.242Z" fill="#FBFEFC"/>
<path d="M56.6139 160.626L68.4982 167.868L67.9964 171.374L54.9704 163.859L56.6139 160.626Z" fill="#FBFEFC"/>
<path d="M206.272 181.897L192.243 185.475L191.742 188.913L207.273 185.475L206.272 181.897Z" fill="#FBFEFC"/>
<path d="M206.064 181.635L249.524 187.751L249.021 191.323L205.562 185.207L206.064 181.635Z" fill="#FBFEFC"/>
<path d="M68.0861 167.863L192.509 185.372L192.006 188.944L67.5835 171.435L68.0861 167.863Z" fill="#FBFEFC"/>
</svg>
