<svg width="263" height="188" viewBox="0 0 263 188" fill="none" xmlns="http://www.w3.org/2000/svg">
<path d="M250.46 155.823L240.969 10.934L175.78 15.2042L169.636 4.94347L99.3272 14.8334L95.0294 20.4938L1.48263 26.6216L10.9736 171.511L250.46 155.823Z" stroke="#FBFEFC" stroke-width="1.2"/>
<rect x="22.4795" y="32.5352" width="240" height="146.4" fill="black"/>
<rect x="68.0791" y="27.1328" width="150.6" height="6.6" fill="black"/>
<rect x="68.0791" y="177.133" width="150.6" height="6.6" fill="black"/>
<path d="M218.679 33.1332L236.979 33.1332L241.779 35.2328L245.079 33.1332L261.879 33.1332L261.879 178.333L218.679 178.333M68.0791 33.1332L23.0791 33.1328L23.0791 178.333L68.0791 178.333" stroke="#FBFEFC" stroke-width="1.2"/>
<path d="M81.4133 85.4141C81.2725 84.8381 81.1381 84.2621 81.0101 83.6861C80.8821 83.0973 80.7605 82.5085 80.6453 81.9197C80.5301 81.3309 80.4149 80.7421 80.2997 80.1533C80.1973 79.5645 80.1013 78.9757 80.0117 78.3869C79.9221 77.7981 79.8453 77.2093 79.7813 76.6205C79.7173 76.0189 79.6853 75.4237 79.6853 74.8349L79.6853 71.3021L81.6245 71.3021L81.6245 74.8349C81.6245 76.2301 81.6693 77.6253 81.7589 79.0205C81.8613 80.4029 81.9701 81.7917 82.0853 83.1869L83.1413 76.9469L84.2933 76.9469L85.3493 83.1869C85.4645 81.7917 85.5669 80.4029 85.6565 79.0205C85.7589 77.6253 85.8101 76.2301 85.8101 74.8349L85.8101 71.3021L87.7493 71.3021L87.7493 74.8349C87.7493 75.4237 87.7173 76.0189 87.6533 76.6205C87.5893 77.2093 87.5125 77.7981 87.4229 78.3869C87.3333 78.9757 87.2309 79.5645 87.1157 80.1533C87.0133 80.7421 86.9045 81.3309 86.7893 81.9197C86.6741 82.5085 86.5525 83.0973 86.4245 83.6861C86.2965 84.2621 86.1621 84.8381 86.0213 85.4141L84.8693 85.4141L83.7173 78.6173L82.5653 85.4141L81.4133 85.4141ZM93.3173 85.5677C92.9717 85.5677 92.6261 85.5357 92.2805 85.4717C91.9349 85.4077 91.6085 85.2925 91.3013 85.1261C90.9941 84.9597 90.7189 84.7485 90.4757 84.4925C90.2453 84.2237 90.0533 83.9293 89.8997 83.6093C89.7589 83.2893 89.6565 82.9565 89.5925 82.6109C89.5413 82.2653 89.5157 81.9197 89.5157 81.5741L89.5157 79.2701C89.5157 78.9245 89.5413 78.5789 89.5925 78.2333C89.6565 77.8877 89.7589 77.5549 89.8997 77.2349C90.0533 76.9149 90.2453 76.6269 90.4757 76.3709C90.7189 76.1021 90.9941 75.8845 91.3013 75.7181C91.6085 75.5517 91.9349 75.4365 92.2805 75.3725C92.6261 75.3085 92.9717 75.2765 93.3173 75.2765C93.6629 75.2765 94.0085 75.3085 94.3541 75.3725C94.6997 75.4365 95.0261 75.5517 95.3333 75.7181C95.6405 75.8845 95.9093 76.1021 96.1397 76.3709C96.3829 76.6269 96.5749 76.9149 96.7157 77.2349C96.8693 77.5549 96.9717 77.8877 97.0229 78.2333C97.0869 78.5789 97.1189 78.9245 97.1189 79.2701L97.1189 81.2669L91.4357 81.2669L91.4357 81.5741C91.4357 81.8557 91.4613 82.1373 91.5125 82.4189C91.5765 82.7005 91.6917 82.9565 91.8581 83.1869C92.0245 83.4045 92.2357 83.5773 92.4917 83.7053C92.7605 83.8205 93.0357 83.8781 93.3173 83.8781C93.5349 83.8781 93.7461 83.8589 93.9509 83.8205C94.1685 83.7821 94.3669 83.7053 94.5461 83.5901C94.7253 83.4621 94.8661 83.3021 94.9685 83.1101C95.0837 82.9181 95.1477 82.7133 95.1605 82.4957L97.0805 82.4957C97.0805 82.8029 97.0357 83.1037 96.9461 83.3981C96.8565 83.6925 96.7221 83.9677 96.5429 84.2237C96.3637 84.4669 96.1461 84.6781 95.8901 84.8573C95.6469 85.0365 95.3845 85.1837 95.1029 85.2989C94.8213 85.4013 94.5269 85.4717 94.2197 85.5101C93.9125 85.5485 93.6117 85.5677 93.3173 85.5677ZM95.1989 79.5773L95.1989 79.2701C95.1989 78.9885 95.1669 78.7069 95.1029 78.4253C95.0389 78.1437 94.9237 77.8941 94.7573 77.6765C94.6037 77.4461 94.3925 77.2733 94.1237 77.1581C93.8677 77.0301 93.5989 76.9661 93.3173 76.9661C93.0357 76.9661 92.7605 77.0301 92.4917 77.1581C92.2357 77.2733 92.0245 77.4461 91.8581 77.6765C91.7045 77.8941 91.5957 78.1437 91.5317 78.4253C91.4677 78.7069 91.4357 78.9885 91.4357 79.2701L91.4357 79.5773L95.1989 79.5773ZM102.053 85.5677C101.746 85.5677 101.439 85.5165 101.132 85.4141C100.824 85.3245 100.549 85.1837 100.306 84.9917C100.076 84.7869 99.8773 84.5501 99.7109 84.2813C99.5573 83.9997 99.4357 83.7117 99.3461 83.4173C99.2565 83.1229 99.1925 82.8221 99.1541 82.5149C99.1285 82.1949 99.1157 81.8813 99.1157 81.5741L99.1157 79.2701C99.1157 78.9629 99.1285 78.6557 99.1541 78.3485C99.1925 78.0285 99.2565 77.7213 99.3461 77.4269C99.4357 77.1325 99.5573 76.8509 99.7109 76.5821C99.8773 76.3005 100.076 76.0637 100.306 75.8717C100.549 75.6669 100.824 75.5197 101.132 75.4301C101.439 75.3277 101.746 75.2765 102.053 75.2765C102.335 75.2765 102.61 75.3149 102.879 75.3917C103.16 75.4557 103.416 75.5709 103.647 75.7373C103.877 75.9037 104.069 76.1085 104.223 76.3517C104.389 76.5821 104.53 76.8253 104.645 77.0813L104.645 71.3021L106.565 71.3021L106.565 85.4141L104.645 85.4141L104.645 83.7629C104.53 84.0189 104.389 84.2685 104.223 84.5117C104.069 84.7421 103.877 84.9405 103.647 85.1069C103.416 85.2733 103.16 85.3885 102.879 85.4525C102.61 85.5293 102.335 85.5677 102.053 85.5677ZM102.84 83.8781C103.122 83.8781 103.384 83.8205 103.628 83.7053C103.884 83.5773 104.088 83.3981 104.242 83.1677C104.396 82.9373 104.498 82.6877 104.549 82.4189C104.613 82.1373 104.645 81.8557 104.645 81.5741L104.645 79.2701C104.645 78.9885 104.613 78.7133 104.549 78.4445C104.498 78.1629 104.396 77.9069 104.242 77.6765C104.088 77.4461 103.884 77.2733 103.628 77.1581C103.384 77.0301 103.122 76.9661 102.84 76.9661C102.559 76.9661 102.29 77.0301 102.034 77.1581C101.791 77.2733 101.592 77.4461 101.439 77.6765C101.285 77.9069 101.176 78.1629 101.112 78.4445C101.061 78.7133 101.036 78.9885 101.036 79.2701L101.036 81.5741C101.036 81.8557 101.061 82.1373 101.112 82.4189C101.176 82.6877 101.285 82.9373 101.439 83.1677C101.592 83.3981 101.791 83.5773 102.034 83.7053C102.29 83.8205 102.559 83.8781 102.84 83.8781ZM112.517 85.5677C112.287 85.5677 112.05 85.5293 111.807 85.4525C111.576 85.3885 111.378 85.2733 111.212 85.1069C111.045 84.9405 110.924 84.7421 110.847 84.5117C110.783 84.2813 110.751 84.0445 110.751 83.8013C110.751 83.5709 110.783 83.3405 110.847 83.1101C110.924 82.8669 111.045 82.6621 111.212 82.4957C111.378 82.3293 111.576 82.2141 111.807 82.1501C112.05 82.0733 112.287 82.0349 112.517 82.0349C112.748 82.0349 112.978 82.0733 113.208 82.1501C113.452 82.2141 113.656 82.3293 113.823 82.4957C113.989 82.6621 114.104 82.8669 114.168 83.1101C114.245 83.3405 114.284 83.5709 114.284 83.8013C114.284 84.0445 114.245 84.2813 114.168 84.5117C114.104 84.7421 113.989 84.9405 113.823 85.1069C113.656 85.2733 113.452 85.3885 113.208 85.4525C112.978 85.5293 112.748 85.5677 112.517 85.5677ZM128.069 85.4141L128.069 71.3021L130.066 71.3021L133.81 82.3229C133.772 81.8749 133.72 81.4269 133.656 80.9789C133.605 80.5309 133.56 80.0829 133.522 79.6349C133.496 79.1869 133.477 78.7389 133.464 78.2909C133.452 77.8429 133.445 77.3949 133.445 76.9469L133.445 71.3021L135.365 71.3021L135.365 85.4141L133.368 85.4141L129.624 74.3933C129.663 74.8413 129.708 75.2893 129.759 75.7373C129.823 76.1853 129.868 76.6333 129.893 77.0813C129.932 77.5293 129.957 77.9773 129.97 78.4253C129.983 78.8733 129.989 79.3213 129.989 79.7693L129.989 85.4141L128.069 85.4141ZM141.317 85.5677C140.972 85.5677 140.626 85.5357 140.28 85.4717C139.935 85.4077 139.608 85.2925 139.301 85.1261C138.994 84.9597 138.719 84.7485 138.476 84.4925C138.245 84.2237 138.053 83.9293 137.9 83.6093C137.759 83.2893 137.656 82.9565 137.592 82.6109C137.541 82.2653 137.516 81.9197 137.516 81.5741L137.516 79.2701C137.516 78.9245 137.541 78.5789 137.592 78.2333C137.656 77.8877 137.759 77.5549 137.9 77.2349C138.053 76.9149 138.245 76.6269 138.476 76.3709C138.719 76.1021 138.994 75.8845 139.301 75.7181C139.608 75.5517 139.935 75.4365 140.28 75.3725C140.626 75.3085 140.972 75.2765 141.317 75.2765C141.663 75.2765 142.008 75.3085 142.354 75.3725C142.7 75.4365 143.026 75.5517 143.333 75.7181C143.64 75.8845 143.909 76.1021 144.14 76.3709C144.383 76.6269 144.575 76.9149 144.716 77.2349C144.869 77.5549 144.972 77.8877 145.023 78.2333C145.087 78.5789 145.119 78.9245 145.119 79.2701L145.119 81.5741C145.119 81.9197 145.087 82.2653 145.023 82.6109C144.972 82.9565 144.869 83.2893 144.716 83.6093C144.575 83.9293 144.383 84.2237 144.14 84.4925C143.909 84.7485 143.64 84.9597 143.333 85.1261C143.026 85.2925 142.7 85.4077 142.354 85.4717C142.008 85.5357 141.663 85.5677 141.317 85.5677ZM141.317 83.8781C141.599 83.8781 141.868 83.8205 142.124 83.7053C142.392 83.5773 142.604 83.4045 142.757 83.1869C142.924 82.9565 143.039 82.7005 143.103 82.4189C143.167 82.1373 143.199 81.8557 143.199 81.5741L143.199 79.2701C143.199 78.9885 143.167 78.7069 143.103 78.4253C143.039 78.1437 142.924 77.8941 142.757 77.6765C142.604 77.4461 142.392 77.2733 142.124 77.1581C141.868 77.0301 141.599 76.9661 141.317 76.9661C141.036 76.9661 140.76 77.0301 140.492 77.1581C140.236 77.2733 140.024 77.4461 139.858 77.6765C139.704 77.8941 139.596 78.1437 139.532 78.4253C139.468 78.7069 139.436 78.9885 139.436 79.2701L139.436 81.5741C139.436 81.8557 139.468 82.1373 139.532 82.4189C139.596 82.7005 139.704 82.9565 139.858 83.1869C140.024 83.4045 140.236 83.5773 140.492 83.7053C140.76 83.8205 141.036 83.8781 141.317 83.8781ZM149.804 85.4141C149.612 84.9277 149.42 84.4413 149.228 83.9549C149.048 83.4685 148.869 82.9821 148.69 82.4957C148.524 81.9965 148.357 81.5037 148.191 81.0173C148.037 80.5181 147.89 80.0189 147.749 79.5197C147.621 79.0077 147.506 78.4957 147.404 77.9837C147.314 77.4717 147.269 76.9533 147.269 76.4285L147.269 75.4301L149.189 75.4301L149.189 76.4285C149.189 77.0813 149.253 77.7277 149.381 78.3677C149.509 79.0077 149.65 79.6413 149.804 80.2685C149.97 80.8957 150.143 81.5229 150.322 82.1501C150.514 82.7773 150.712 83.3981 150.917 84.0125C151.122 83.3981 151.314 82.7773 151.493 82.1501C151.685 81.5229 151.858 80.8957 152.012 80.2685C152.178 79.6413 152.325 79.0077 152.453 78.3677C152.581 77.7277 152.645 77.0813 152.645 76.4285L152.645 75.4301L154.565 75.4301L154.565 76.4285C154.565 76.9533 154.514 77.4717 154.412 77.9837C154.322 78.4957 154.207 79.0077 154.066 79.5197C153.938 80.0189 153.791 80.5181 153.624 81.0173C153.471 81.5037 153.304 81.9965 153.125 82.4957C152.959 82.9821 152.78 83.4685 152.588 83.9549C152.408 84.4413 152.223 84.9277 152.031 85.4141L149.804 85.4141ZM169.733 85.4141L169.733 73.2989L167.429 75.2765L166.373 74.2013L169.733 71.3021L171.653 71.3021L171.653 85.4141L169.733 85.4141ZM179.775 85.5677C179.442 85.5677 179.109 85.5421 178.776 85.4909C178.444 85.4397 178.124 85.3437 177.816 85.2029C177.509 85.0493 177.228 84.8637 176.972 84.6461C176.728 84.4157 176.524 84.1533 176.357 83.8589C176.204 83.5645 176.082 83.2573 175.992 82.9373C175.916 82.6045 175.877 82.2717 175.877 81.9389L175.877 81.8237L177.797 81.8237L177.797 81.8813C177.797 82.1501 177.842 82.4125 177.932 82.6685C178.021 82.9245 178.156 83.1485 178.335 83.3405C178.514 83.5325 178.732 83.6733 178.988 83.7629C179.244 83.8397 179.506 83.8781 179.775 83.8781C180.056 83.8781 180.332 83.8269 180.6 83.7245C180.869 83.6093 181.087 83.4429 181.253 83.2253C181.432 82.9949 181.56 82.7389 181.637 82.4573C181.714 82.1757 181.752 81.8941 181.752 81.6125C181.752 81.3693 181.727 81.1325 181.676 80.9021C181.624 80.6589 181.541 80.4285 181.426 80.2109C181.311 79.9933 181.164 79.8013 180.984 79.6349C180.818 79.4685 180.626 79.3341 180.408 79.2317C180.191 79.1293 179.96 79.0653 179.717 79.0397C179.474 79.0141 179.231 79.0013 178.988 79.0013L178.988 77.3117C179.205 77.3117 179.423 77.2989 179.64 77.2733C179.858 77.2477 180.063 77.1901 180.255 77.1005C180.46 77.0109 180.639 76.8893 180.792 76.7357C180.946 76.5693 181.068 76.3901 181.157 76.1981C181.26 75.9933 181.33 75.7821 181.368 75.5645C181.42 75.3469 181.445 75.1293 181.445 74.9117C181.445 74.6685 181.413 74.4253 181.349 74.1821C181.298 73.9261 181.202 73.6957 181.061 73.4909C180.92 73.2733 180.735 73.1133 180.504 73.0109C180.274 72.8957 180.031 72.8381 179.775 72.8381C179.532 72.8381 179.295 72.8893 179.064 72.9917C178.834 73.0941 178.648 73.2413 178.508 73.4333C178.367 73.6253 178.264 73.8429 178.2 74.0861C178.136 74.3293 178.104 74.5661 178.104 74.7965L178.104 74.8925L176.184 74.8925L176.184 74.7389C176.184 74.4189 176.216 74.1053 176.28 73.7981C176.357 73.4781 176.466 73.1773 176.607 72.8957C176.748 72.6141 176.927 72.3581 177.144 72.1277C177.375 71.8845 177.631 71.6925 177.912 71.5517C178.207 71.3981 178.508 71.2957 178.815 71.2445C179.135 71.1805 179.455 71.1485 179.775 71.1485C180.095 71.1485 180.415 71.1805 180.735 71.2445C181.068 71.3085 181.375 71.4173 181.656 71.5709C181.938 71.7245 182.188 71.9229 182.405 72.1661C182.636 72.4093 182.821 72.6781 182.962 72.9725C183.103 73.2669 183.205 73.5741 183.269 73.8941C183.333 74.2141 183.365 74.5341 183.365 74.8541C183.365 75.1869 183.327 75.5197 183.25 75.8525C183.173 76.1725 183.058 76.4797 182.904 76.7741C182.751 77.0557 182.552 77.3181 182.309 77.5613C182.066 77.7917 181.797 77.9837 181.503 78.1373C181.848 78.2781 182.156 78.4765 182.424 78.7325C182.706 78.9757 182.936 79.2573 183.116 79.5773C183.308 79.8845 183.448 80.2173 183.538 80.5757C183.628 80.9341 183.672 81.2925 183.672 81.6509C183.672 82.0093 183.634 82.3613 183.557 82.7069C183.48 83.0397 183.365 83.3597 183.212 83.6669C183.058 83.9741 182.86 84.2557 182.616 84.5117C182.373 84.7677 182.098 84.9789 181.791 85.1453C181.484 85.2989 181.157 85.4077 180.812 85.4717C180.466 85.5357 180.12 85.5677 179.775 85.5677ZM190.488 85.5677C190.181 85.5677 189.88 85.5293 189.586 85.4525C189.292 85.3757 189.023 85.2477 188.78 85.0685C188.536 84.8893 188.325 84.6781 188.146 84.4349C187.98 84.1789 187.845 83.9101 187.743 83.6285C187.64 83.3341 187.57 83.0397 187.532 82.7453C187.506 82.4381 187.493 82.1373 187.493 81.8429L187.493 77.1197L185.861 77.1197L185.861 75.4301L187.493 75.4301L187.493 71.3021L189.413 71.3021L189.413 75.4301L192.581 75.4301L192.581 77.1197L189.413 77.1197L189.413 81.8429C189.413 81.9837 189.42 82.1245 189.432 82.2653C189.445 82.4061 189.464 82.5469 189.49 82.6877C189.516 82.8285 189.548 82.9693 189.586 83.1101C189.637 83.2381 189.701 83.3597 189.778 83.4749C189.855 83.5901 189.957 83.6861 190.085 83.7629C190.213 83.8397 190.348 83.8781 190.488 83.8781C190.629 83.8781 190.757 83.8461 190.872 83.7821C191 83.7053 191.103 83.6157 191.18 83.5133C191.256 83.3981 191.314 83.2765 191.352 83.1485C191.404 83.0205 191.442 82.8925 191.468 82.7645C191.506 82.6237 191.532 82.4829 191.544 82.3421C191.557 82.2013 191.564 82.0669 191.564 81.9389L191.564 81.8237L193.484 81.8237L193.484 82.0157C193.484 82.3101 193.458 82.6045 193.407 82.8989C193.356 83.1805 193.279 83.4557 193.176 83.7245C193.074 83.9933 192.933 84.2493 192.754 84.4925C192.588 84.7357 192.383 84.9405 192.14 85.1069C191.896 85.2733 191.634 85.3885 191.352 85.4525C191.071 85.5293 190.783 85.5677 190.488 85.5677ZM195.269 85.4141L195.269 71.3021L197.189 71.3021L197.189 77.0621C197.292 76.8061 197.42 76.5629 197.573 76.3325C197.74 76.1021 197.932 75.9101 198.149 75.7565C198.367 75.5901 198.61 75.4685 198.879 75.3917C199.148 75.3149 199.423 75.2765 199.704 75.2765C200.012 75.2765 200.312 75.3277 200.607 75.4301C200.914 75.5197 201.183 75.6669 201.413 75.8717C201.644 76.0765 201.829 76.3197 201.97 76.6013C202.124 76.8701 202.245 77.1517 202.335 77.4461C202.424 77.7405 202.482 78.0413 202.508 78.3485C202.546 78.6557 202.565 78.9629 202.565 79.2701L202.565 85.4141L200.645 85.4141L200.645 79.2701C200.645 79.0909 200.632 78.9117 200.607 78.7325C200.594 78.5533 200.556 78.3805 200.492 78.2141C200.44 78.0349 200.364 77.8685 200.261 77.7149C200.172 77.5485 200.056 77.4077 199.916 77.2925C199.788 77.1773 199.634 77.0941 199.455 77.0429C199.276 76.9917 199.096 76.9661 198.917 76.9661C198.738 76.9661 198.559 76.9917 198.38 77.0429C198.2 77.0941 198.04 77.1773 197.9 77.2925C197.772 77.4077 197.656 77.5485 197.554 77.7149C197.464 77.8685 197.388 78.0349 197.324 78.2141C197.272 78.3805 197.234 78.5533 197.208 78.7325C197.196 78.9117 197.189 79.0909 197.189 79.2701L197.189 85.4141L195.269 85.4141ZM68.9333 109.414L68.9333 97.2989L66.6293 99.2765L65.5733 98.2013L68.9333 95.3021L70.8533 95.3021L70.8533 109.414L68.9333 109.414ZM78.9173 109.568C78.5717 109.568 78.2261 109.536 77.8805 109.472C77.5349 109.408 77.2085 109.292 76.9013 109.126C76.5941 108.96 76.3189 108.748 76.0757 108.492C75.8453 108.224 75.6533 107.929 75.4997 107.609C75.3589 107.289 75.2565 106.956 75.1925 106.611C75.1413 106.265 75.1157 105.92 75.1157 105.574L75.1157 99.1421C75.1157 98.7965 75.1413 98.4509 75.1925 98.1053C75.2565 97.7597 75.3589 97.4269 75.4997 97.1069C75.6533 96.7869 75.8453 96.4989 76.0757 96.2429C76.3189 95.9741 76.5941 95.7565 76.9013 95.5901C77.2085 95.4237 77.5349 95.3085 77.8805 95.2445C78.2261 95.1805 78.5717 95.1485 78.9173 95.1485C79.2629 95.1485 79.6085 95.1805 79.9541 95.2445C80.2997 95.3085 80.6261 95.4237 80.9333 95.5901C81.2405 95.7565 81.5093 95.9741 81.7397 96.2429C81.9829 96.4989 82.1749 96.7869 82.3157 97.1069C82.4693 97.4269 82.5717 97.7597 82.6229 98.1053C82.6869 98.4509 82.7189 98.7965 82.7189 99.1421L82.7189 105.574C82.7189 105.92 82.6869 106.265 82.6229 106.611C82.5717 106.956 82.4693 107.289 82.3157 107.609C82.1749 107.929 81.9829 108.224 81.7397 108.492C81.5093 108.748 81.2405 108.96 80.9333 109.126C80.6261 109.292 80.2997 109.408 79.9541 109.472C79.6085 109.536 79.2629 109.568 78.9173 109.568ZM77.0357 102.944L80.7989 99.9677L80.7989 99.1421C80.7989 98.8605 80.7669 98.5789 80.7029 98.2973C80.6389 98.0157 80.5237 97.7661 80.3573 97.5485C80.2037 97.3181 79.9925 97.1453 79.7237 97.0301C79.4677 96.9021 79.1989 96.8381 78.9173 96.8381C78.6357 96.8381 78.3605 96.9021 78.0917 97.0301C77.8357 97.1453 77.6245 97.3181 77.4581 97.5485C77.3045 97.7661 77.1957 98.0157 77.1317 98.2973C77.0677 98.5789 77.0357 98.8605 77.0357 99.1421L77.0357 102.944ZM78.9173 107.878C79.1989 107.878 79.4677 107.82 79.7237 107.705C79.9925 107.577 80.2037 107.404 80.3573 107.187C80.5237 106.956 80.6389 106.7 80.7029 106.419C80.7669 106.137 80.7989 105.856 80.7989 105.574L80.7989 101.772L77.0357 104.748L77.0357 105.574C77.0357 105.856 77.0677 106.137 77.1317 106.419C77.1957 106.7 77.3045 106.956 77.4581 107.187C77.6245 107.404 77.8357 107.577 78.0917 107.705C78.3605 107.82 78.6357 107.878 78.9173 107.878ZM88.5173 109.568C88.2869 109.568 88.0501 109.529 87.8069 109.452C87.5765 109.388 87.3781 109.273 87.2117 109.107C87.0453 108.94 86.9237 108.742 86.8469 108.512C86.7829 108.281 86.7509 108.044 86.7509 107.801C86.7509 107.571 86.7829 107.34 86.8469 107.11C86.9237 106.867 87.0453 106.662 87.2117 106.496C87.3781 106.329 87.5765 106.214 87.8069 106.15C88.0501 106.073 88.2869 106.035 88.5173 106.035C88.7477 106.035 88.9781 106.073 89.2085 106.15C89.4517 106.214 89.6565 106.329 89.8229 106.496C89.9893 106.662 90.1045 106.867 90.1685 107.11C90.2453 107.34 90.2837 107.571 90.2837 107.801C90.2837 108.044 90.2453 108.281 90.1685 108.512C90.1045 108.742 89.9893 108.94 89.8229 109.107C89.6565 109.273 89.4517 109.388 89.2085 109.452C88.9781 109.529 88.7477 109.568 88.5173 109.568ZM88.5173 102.809C88.2869 102.809 88.0501 102.777 87.8069 102.713C87.5765 102.636 87.3781 102.515 87.2117 102.348C87.0453 102.182 86.9237 101.984 86.8469 101.753C86.7829 101.51 86.7509 101.273 86.7509 101.043C86.7509 100.8 86.7829 100.563 86.8469 100.332C86.9237 100.102 87.0453 99.9037 87.2117 99.7373C87.3781 99.5709 87.5765 99.4557 87.8069 99.3917C88.0501 99.3149 88.2869 99.2765 88.5173 99.2765C88.7477 99.2765 88.9781 99.3149 89.2085 99.3917C89.4517 99.4557 89.6565 99.5709 89.8229 99.7373C89.9893 99.9037 90.1045 100.102 90.1685 100.332C90.2453 100.563 90.2837 100.8 90.2837 101.043C90.2837 101.273 90.2453 101.51 90.1685 101.753C90.1045 101.984 89.9893 102.182 89.8229 102.348C89.6565 102.515 89.4517 102.636 89.2085 102.713C88.9781 102.777 88.7477 102.809 88.5173 102.809ZM98.1173 109.568C97.7717 109.568 97.4261 109.536 97.0805 109.472C96.7349 109.408 96.4085 109.292 96.1013 109.126C95.7941 108.96 95.5189 108.748 95.2757 108.492C95.0453 108.224 94.8533 107.929 94.6997 107.609C94.5589 107.289 94.4565 106.956 94.3925 106.611C94.3413 106.265 94.3157 105.92 94.3157 105.574L94.3157 99.1421C94.3157 98.7965 94.3413 98.4509 94.3925 98.1053C94.4565 97.7597 94.5589 97.4269 94.6997 97.1069C94.8533 96.7869 95.0453 96.4989 95.2757 96.2429C95.5189 95.9741 95.7941 95.7565 96.1013 95.5901C96.4085 95.4237 96.7349 95.3085 97.0805 95.2445C97.4261 95.1805 97.7717 95.1485 98.1173 95.1485C98.4629 95.1485 98.8085 95.1805 99.1541 95.2445C99.4997 95.3085 99.8261 95.4237 100.133 95.5901C100.44 95.7565 100.709 95.9741 100.94 96.2429C101.183 96.4989 101.375 96.7869 101.516 97.1069C101.669 97.4269 101.772 97.7597 101.823 98.1053C101.887 98.4509 101.919 98.7965 101.919 99.1421L101.919 105.574C101.919 105.92 101.887 106.265 101.823 106.611C101.772 106.956 101.669 107.289 101.516 107.609C101.375 107.929 101.183 108.224 100.94 108.492C100.709 108.748 100.44 108.96 100.133 109.126C99.8261 109.292 99.4997 109.408 99.1541 109.472C98.8085 109.536 98.4629 109.568 98.1173 109.568ZM96.2357 102.944L99.9989 99.9677L99.9989 99.1421C99.9989 98.8605 99.9669 98.5789 99.9029 98.2973C99.8389 98.0157 99.7237 97.7661 99.5573 97.5485C99.4037 97.3181 99.1925 97.1453 98.9237 97.0301C98.6677 96.9021 98.3989 96.8381 98.1173 96.8381C97.8357 96.8381 97.5605 96.9021 97.2917 97.0301C97.0357 97.1453 96.8245 97.3181 96.6581 97.5485C96.5045 97.7661 96.3957 98.0157 96.3317 98.2973C96.2677 98.5789 96.2357 98.8605 96.2357 99.1421L96.2357 102.944ZM98.1173 107.878C98.3989 107.878 98.6677 107.82 98.9237 107.705C99.1925 107.577 99.4037 107.404 99.5573 107.187C99.7237 106.956 99.8389 106.7 99.9029 106.419C99.9669 106.137 99.9989 105.856 99.9989 105.574L99.9989 101.772L96.2357 104.748L96.2357 105.574C96.2357 105.856 96.2677 106.137 96.3317 106.419C96.3957 106.7 96.5045 106.956 96.6581 107.187C96.8245 107.404 97.0357 107.577 97.2917 107.705C97.5605 107.82 97.8357 107.878 98.1173 107.878ZM107.717 109.568C107.372 109.568 107.026 109.536 106.68 109.472C106.335 109.408 106.008 109.292 105.701 109.126C105.394 108.96 105.119 108.748 104.876 108.492C104.645 108.224 104.453 107.929 104.3 107.609C104.159 107.289 104.056 106.956 103.992 106.611C103.941 106.265 103.916 105.92 103.916 105.574L103.916 99.1421C103.916 98.7965 103.941 98.4509 103.992 98.1053C104.056 97.7597 104.159 97.4269 104.3 97.1069C104.453 96.7869 104.645 96.4989 104.876 96.2429C105.119 95.9741 105.394 95.7565 105.701 95.5901C106.008 95.4237 106.335 95.3085 106.68 95.2445C107.026 95.1805 107.372 95.1485 107.717 95.1485C108.063 95.1485 108.408 95.1805 108.754 95.2445C109.1 95.3085 109.426 95.4237 109.733 95.5901C110.04 95.7565 110.309 95.9741 110.54 96.2429C110.783 96.4989 110.975 96.7869 111.116 97.1069C111.269 97.4269 111.372 97.7597 111.423 98.1053C111.487 98.4509 111.519 98.7965 111.519 99.1421L111.519 105.574C111.519 105.92 111.487 106.265 111.423 106.611C111.372 106.956 111.269 107.289 111.116 107.609C110.975 107.929 110.783 108.224 110.54 108.492C110.309 108.748 110.04 108.96 109.733 109.126C109.426 109.292 109.1 109.408 108.754 109.472C108.408 109.536 108.063 109.568 107.717 109.568ZM105.836 102.944L109.599 99.9677L109.599 99.1421C109.599 98.8605 109.567 98.5789 109.503 98.2973C109.439 98.0157 109.324 97.7661 109.157 97.5485C109.004 97.3181 108.792 97.1453 108.524 97.0301C108.268 96.9021 107.999 96.8381 107.717 96.8381C107.436 96.8381 107.16 96.9021 106.892 97.0301C106.636 97.1453 106.424 97.3181 106.258 97.5485C106.104 97.7661 105.996 98.0157 105.932 98.2973C105.868 98.5789 105.836 98.8605 105.836 99.1421L105.836 102.944ZM107.717 107.878C107.999 107.878 108.268 107.82 108.524 107.705C108.792 107.577 109.004 107.404 109.157 107.187C109.324 106.956 109.439 106.7 109.503 106.419C109.567 106.137 109.599 105.856 109.599 105.574L109.599 101.772L105.836 104.748L105.836 105.574C105.836 105.856 105.868 106.137 105.932 106.419C105.996 106.7 106.104 106.956 106.258 107.187C106.424 107.404 106.636 107.577 106.892 107.705C107.16 107.82 107.436 107.878 107.717 107.878ZM116.453 109.568C116.056 109.568 115.666 109.51 115.282 109.395C114.898 109.28 114.565 109.081 114.284 108.8C114.015 108.518 113.816 108.192 113.688 107.82C113.573 107.436 113.516 107.046 113.516 106.649C113.516 106.316 113.554 105.99 113.631 105.67C113.72 105.337 113.868 105.043 114.072 104.787C114.277 104.518 114.52 104.294 114.802 104.115C115.096 103.923 115.397 103.776 115.704 103.673C116.024 103.571 116.351 103.5 116.684 103.462C117.016 103.424 117.349 103.404 117.682 103.404L119.045 103.404L119.045 102.617C119.045 102.387 119.007 102.163 118.93 101.945C118.853 101.728 118.732 101.542 118.565 101.388C118.399 101.235 118.2 101.126 117.97 101.062C117.752 100.998 117.528 100.966 117.298 100.966C117.093 100.966 116.888 100.985 116.684 101.024C116.479 101.062 116.287 101.139 116.108 101.254C115.941 101.369 115.807 101.523 115.704 101.715C115.602 101.894 115.551 102.086 115.551 102.291L115.551 102.348L113.631 102.348L113.631 102.252C113.631 101.958 113.676 101.67 113.765 101.388C113.855 101.094 113.983 100.825 114.149 100.582C114.316 100.339 114.52 100.134 114.764 99.9677C115.02 99.7885 115.282 99.6477 115.551 99.5453C115.832 99.4429 116.12 99.3725 116.415 99.3341C116.709 99.2957 117.004 99.2765 117.298 99.2765C117.605 99.2765 117.912 99.3021 118.22 99.3533C118.54 99.3917 118.84 99.4749 119.122 99.6029C119.416 99.7309 119.685 99.8973 119.928 100.102C120.172 100.307 120.37 100.544 120.524 100.812C120.69 101.081 120.805 101.376 120.869 101.696C120.933 102.003 120.965 102.31 120.965 102.617L120.965 109.414L119.045 109.414L119.045 107.936C118.93 108.179 118.783 108.409 118.604 108.627C118.437 108.844 118.239 109.03 118.008 109.184C117.778 109.324 117.528 109.42 117.26 109.472C116.991 109.536 116.722 109.568 116.453 109.568ZM117.24 107.878C117.484 107.878 117.727 107.84 117.97 107.763C118.213 107.673 118.418 107.539 118.584 107.36C118.751 107.168 118.866 106.95 118.93 106.707C119.007 106.464 119.045 106.214 119.045 105.958L119.045 105.094L117.682 105.094C117.516 105.094 117.349 105.1 117.183 105.113C117.029 105.126 116.869 105.152 116.703 105.19C116.549 105.228 116.396 105.28 116.242 105.344C116.088 105.408 115.948 105.491 115.82 105.593C115.692 105.696 115.596 105.83 115.532 105.996C115.468 106.15 115.436 106.31 115.436 106.476C115.436 106.681 115.487 106.886 115.589 107.091C115.692 107.283 115.826 107.443 115.992 107.571C116.172 107.686 116.37 107.769 116.588 107.82C116.805 107.859 117.023 107.878 117.24 107.878ZM122.885 109.414L122.885 99.4301L124.786 99.4301L124.786 100.236C124.85 100.096 124.92 99.9677 124.997 99.8525C125.087 99.7245 125.189 99.6157 125.304 99.5261C125.432 99.4365 125.567 99.3725 125.708 99.3341C125.861 99.2957 126.008 99.2765 126.149 99.2765C126.341 99.2765 126.527 99.3149 126.706 99.3917C126.885 99.4557 127.039 99.5581 127.167 99.6989C127.308 99.8269 127.416 99.9741 127.493 100.14C127.583 100.307 127.653 100.48 127.704 100.659C127.756 100.48 127.82 100.307 127.896 100.14C127.986 99.9741 128.095 99.8269 128.223 99.6989C128.351 99.5581 128.504 99.4557 128.684 99.3917C128.863 99.3149 129.042 99.2765 129.221 99.2765L129.24 99.2765C129.432 99.2765 129.624 99.3149 129.816 99.3917C130.008 99.4685 130.168 99.5837 130.296 99.7373C130.437 99.8781 130.546 100.044 130.623 100.236C130.712 100.416 130.776 100.601 130.815 100.793C130.866 100.985 130.898 101.184 130.911 101.388C130.936 101.58 130.949 101.779 130.949 101.984L130.949 109.414L129.048 109.414L129.048 101.984C129.048 101.868 129.042 101.76 129.029 101.657C129.016 101.542 128.991 101.433 128.952 101.331C128.914 101.228 128.85 101.139 128.76 101.062C128.671 100.972 128.568 100.928 128.453 100.928C128.351 100.928 128.255 100.972 128.165 101.062C128.076 101.139 128.005 101.228 127.954 101.331C127.916 101.433 127.89 101.542 127.877 101.657C127.864 101.76 127.858 101.868 127.858 101.984L127.858 109.414L125.976 109.414L125.976 101.984C125.976 101.868 125.97 101.76 125.957 101.657C125.944 101.542 125.912 101.433 125.861 101.331C125.823 101.228 125.759 101.139 125.669 101.062C125.58 100.972 125.484 100.928 125.381 100.928C125.266 100.928 125.164 100.972 125.074 101.062C124.984 101.139 124.92 101.228 124.882 101.331C124.844 101.433 124.818 101.542 124.805 101.657C124.792 101.76 124.786 101.868 124.786 101.984L124.786 109.414L122.885 109.414ZM149.765 103.731L142.469 103.731L142.469 102.041L149.765 102.041L149.765 103.731ZM161.669 109.414L161.669 109.395C161.669 109.062 161.676 108.723 161.688 108.377C161.701 108.032 161.727 107.692 161.765 107.36C161.816 107.027 161.893 106.7 161.996 106.38C162.098 106.048 162.22 105.728 162.36 105.42C162.514 105.113 162.687 104.825 162.879 104.556C163.071 104.275 163.282 104.012 163.512 103.769C163.743 103.513 163.986 103.276 164.242 103.059C164.498 102.841 164.76 102.63 165.029 102.425C165.311 102.22 165.58 102.009 165.836 101.792C166.104 101.574 166.335 101.331 166.527 101.062C166.719 100.78 166.866 100.473 166.968 100.14C167.071 99.8077 167.122 99.4749 167.122 99.1421C167.122 98.8605 167.09 98.5853 167.026 98.3165C166.975 98.0477 166.872 97.7981 166.719 97.5677C166.578 97.3373 166.38 97.1581 166.124 97.0301C165.868 96.9021 165.605 96.8381 165.336 96.8381C165.08 96.8381 164.831 96.8893 164.588 96.9917C164.357 97.0813 164.159 97.2221 163.992 97.4141C163.839 97.6061 163.724 97.8237 163.647 98.0669C163.583 98.3101 163.551 98.5597 163.551 98.8157L163.551 98.8925L161.631 98.8925L161.631 98.7581C161.631 98.4253 161.663 98.0989 161.727 97.7789C161.804 97.4589 161.919 97.1581 162.072 96.8765C162.226 96.5949 162.418 96.3389 162.648 96.1085C162.892 95.8781 163.154 95.6925 163.436 95.5517C163.73 95.3981 164.037 95.2957 164.357 95.2445C164.69 95.1805 165.016 95.1485 165.336 95.1485C165.682 95.1485 166.021 95.1869 166.354 95.2637C166.7 95.3277 167.02 95.4429 167.314 95.6093C167.621 95.7757 167.89 95.9933 168.12 96.2621C168.351 96.5181 168.536 96.8061 168.677 97.1261C168.818 97.4333 168.914 97.7597 168.965 98.1053C169.016 98.4509 169.042 98.7965 169.042 99.1421C169.042 99.5773 168.984 100.006 168.869 100.428C168.754 100.851 168.575 101.248 168.332 101.619C168.101 101.99 167.826 102.329 167.506 102.636C167.186 102.931 166.853 103.219 166.508 103.5C166.175 103.769 165.848 104.051 165.528 104.345C165.208 104.64 164.92 104.966 164.664 105.324C164.408 105.683 164.197 106.067 164.031 106.476C163.864 106.873 163.749 107.289 163.685 107.724L168.965 107.724L168.965 109.414L161.669 109.414ZM174.917 109.568C174.687 109.568 174.45 109.529 174.207 109.452C173.976 109.388 173.778 109.273 173.612 109.107C173.445 108.94 173.324 108.742 173.247 108.512C173.183 108.281 173.151 108.044 173.151 107.801C173.151 107.571 173.183 107.34 173.247 107.11C173.324 106.867 173.445 106.662 173.612 106.496C173.778 106.329 173.976 106.214 174.207 106.15C174.45 106.073 174.687 106.035 174.917 106.035C175.148 106.035 175.378 106.073 175.608 106.15C175.852 106.214 176.056 106.329 176.223 106.496C176.389 106.662 176.504 106.867 176.568 107.11C176.645 107.34 176.684 107.571 176.684 107.801C176.684 108.044 176.645 108.281 176.568 108.512C176.504 108.742 176.389 108.94 176.223 109.107C176.056 109.273 175.852 109.388 175.608 109.452C175.378 109.529 175.148 109.568 174.917 109.568ZM174.917 102.809C174.687 102.809 174.45 102.777 174.207 102.713C173.976 102.636 173.778 102.515 173.612 102.348C173.445 102.182 173.324 101.984 173.247 101.753C173.183 101.51 173.151 101.273 173.151 101.043C173.151 100.8 173.183 100.563 173.247 100.332C173.324 100.102 173.445 99.9037 173.612 99.7373C173.778 99.5709 173.976 99.4557 174.207 99.3917C174.45 99.3149 174.687 99.2765 174.917 99.2765C175.148 99.2765 175.378 99.3149 175.608 99.3917C175.852 99.4557 176.056 99.5709 176.223 99.7373C176.389 99.9037 176.504 100.102 176.568 100.332C176.645 100.563 176.684 100.8 176.684 101.043C176.684 101.273 176.645 101.51 176.568 101.753C176.504 101.984 176.389 102.182 176.223 102.348C176.056 102.515 175.852 102.636 175.608 102.713C175.378 102.777 175.148 102.809 174.917 102.809ZM184.517 109.568C184.172 109.568 183.826 109.536 183.48 109.472C183.135 109.408 182.808 109.292 182.501 109.126C182.194 108.96 181.919 108.748 181.676 108.492C181.445 108.224 181.253 107.929 181.1 107.609C180.959 107.289 180.856 106.956 180.792 106.611C180.741 106.265 180.716 105.92 180.716 105.574L180.716 99.1421C180.716 98.7965 180.741 98.4509 180.792 98.1053C180.856 97.7597 180.959 97.4269 181.1 97.1069C181.253 96.7869 181.445 96.4989 181.676 96.2429C181.919 95.9741 182.194 95.7565 182.501 95.5901C182.808 95.4237 183.135 95.3085 183.48 95.2445C183.826 95.1805 184.172 95.1485 184.517 95.1485C184.863 95.1485 185.208 95.1805 185.554 95.2445C185.9 95.3085 186.226 95.4237 186.533 95.5901C186.84 95.7565 187.109 95.9741 187.34 96.2429C187.583 96.4989 187.775 96.7869 187.916 97.1069C188.069 97.4269 188.172 97.7597 188.223 98.1053C188.287 98.4509 188.319 98.7965 188.319 99.1421L188.319 105.574C188.319 105.92 188.287 106.265 188.223 106.611C188.172 106.956 188.069 107.289 187.916 107.609C187.775 107.929 187.583 108.224 187.34 108.492C187.109 108.748 186.84 108.96 186.533 109.126C186.226 109.292 185.9 109.408 185.554 109.472C185.208 109.536 184.863 109.568 184.517 109.568ZM182.636 102.944L186.399 99.9677L186.399 99.1421C186.399 98.8605 186.367 98.5789 186.303 98.2973C186.239 98.0157 186.124 97.7661 185.957 97.5485C185.804 97.3181 185.592 97.1453 185.324 97.0301C185.068 96.9021 184.799 96.8381 184.517 96.8381C184.236 96.8381 183.96 96.9021 183.692 97.0301C183.436 97.1453 183.224 97.3181 183.058 97.5485C182.904 97.7661 182.796 98.0157 182.732 98.2973C182.668 98.5789 182.636 98.8605 182.636 99.1421L182.636 102.944ZM184.517 107.878C184.799 107.878 185.068 107.82 185.324 107.705C185.592 107.577 185.804 107.404 185.957 107.187C186.124 106.956 186.239 106.7 186.303 106.419C186.367 106.137 186.399 105.856 186.399 105.574L186.399 101.772L182.636 104.748L182.636 105.574C182.636 105.856 182.668 106.137 182.732 106.419C182.796 106.7 182.904 106.956 183.058 107.187C183.224 107.404 183.436 107.577 183.692 107.705C183.96 107.82 184.236 107.878 184.517 107.878ZM194.117 109.568C193.772 109.568 193.426 109.536 193.08 109.472C192.735 109.408 192.408 109.292 192.101 109.126C191.794 108.96 191.519 108.748 191.276 108.492C191.045 108.224 190.853 107.929 190.7 107.609C190.559 107.289 190.456 106.956 190.392 106.611C190.341 106.265 190.316 105.92 190.316 105.574L190.316 99.1421C190.316 98.7965 190.341 98.4509 190.392 98.1053C190.456 97.7597 190.559 97.4269 190.7 97.1069C190.853 96.7869 191.045 96.4989 191.276 96.2429C191.519 95.9741 191.794 95.7565 192.101 95.5901C192.408 95.4237 192.735 95.3085 193.08 95.2445C193.426 95.1805 193.772 95.1485 194.117 95.1485C194.463 95.1485 194.808 95.1805 195.154 95.2445C195.5 95.3085 195.826 95.4237 196.133 95.5901C196.44 95.7565 196.709 95.9741 196.94 96.2429C197.183 96.4989 197.375 96.7869 197.516 97.1069C197.669 97.4269 197.772 97.7597 197.823 98.1053C197.887 98.4509 197.919 98.7965 197.919 99.1421L197.919 105.574C197.919 105.92 197.887 106.265 197.823 106.611C197.772 106.956 197.669 107.289 197.516 107.609C197.375 107.929 197.183 108.224 196.94 108.492C196.709 108.748 196.44 108.96 196.133 109.126C195.826 109.292 195.5 109.408 195.154 109.472C194.808 109.536 194.463 109.568 194.117 109.568ZM192.236 102.944L195.999 99.9677L195.999 99.1421C195.999 98.8605 195.967 98.5789 195.903 98.2973C195.839 98.0157 195.724 97.7661 195.557 97.5485C195.404 97.3181 195.192 97.1453 194.924 97.0301C194.668 96.9021 194.399 96.8381 194.117 96.8381C193.836 96.8381 193.56 96.9021 193.292 97.0301C193.036 97.1453 192.824 97.3181 192.658 97.5485C192.504 97.7661 192.396 98.0157 192.332 98.2973C192.268 98.5789 192.236 98.8605 192.236 99.1421L192.236 102.944ZM194.117 107.878C194.399 107.878 194.668 107.82 194.924 107.705C195.192 107.577 195.404 107.404 195.557 107.187C195.724 106.956 195.839 106.7 195.903 106.419C195.967 106.137 195.999 105.856 195.999 105.574L195.999 101.772L192.236 104.748L192.236 105.574C192.236 105.856 192.268 106.137 192.332 106.419C192.396 106.7 192.504 106.956 192.658 107.187C192.824 107.404 193.036 107.577 193.292 107.705C193.56 107.82 193.836 107.878 194.117 107.878ZM200.069 113.542L200.069 99.4301L201.989 99.4301L201.989 101.081C202.104 100.825 202.239 100.582 202.392 100.352C202.559 100.108 202.757 99.9037 202.988 99.7373C203.218 99.5709 203.468 99.4557 203.736 99.3917C204.018 99.3149 204.3 99.2765 204.581 99.2765C204.888 99.2765 205.196 99.3277 205.503 99.4301C205.81 99.5197 206.079 99.6669 206.309 99.8717C206.552 100.064 206.751 100.3 206.904 100.582C207.071 100.851 207.199 101.132 207.288 101.427C207.378 101.721 207.436 102.028 207.461 102.348C207.5 102.656 207.519 102.963 207.519 103.27L207.519 105.574C207.519 105.881 207.5 106.195 207.461 106.515C207.436 106.822 207.378 107.123 207.288 107.417C207.199 107.712 207.071 108 206.904 108.281C206.751 108.55 206.552 108.787 206.309 108.992C206.079 109.184 205.81 109.324 205.503 109.414C205.196 109.516 204.888 109.568 204.581 109.568C204.3 109.568 204.018 109.529 203.736 109.452C203.468 109.388 203.218 109.273 202.988 109.107C202.757 108.94 202.559 108.742 202.392 108.512C202.239 108.268 202.104 108.019 201.989 107.763L201.989 113.542L200.069 113.542ZM203.794 107.878C204.076 107.878 204.338 107.82 204.581 107.705C204.837 107.577 205.042 107.398 205.196 107.168C205.349 106.937 205.452 106.688 205.503 106.419C205.567 106.137 205.599 105.856 205.599 105.574L205.599 103.27C205.599 102.988 205.567 102.713 205.503 102.444C205.452 102.163 205.349 101.907 205.196 101.676C205.042 101.446 204.837 101.273 204.581 101.158C204.338 101.03 204.076 100.966 203.794 100.966C203.512 100.966 203.244 101.03 202.988 101.158C202.744 101.273 202.546 101.446 202.392 101.676C202.239 101.907 202.13 102.163 202.066 102.444C202.015 102.713 201.989 102.988 201.989 103.27L201.989 105.574C201.989 105.856 202.015 106.137 202.066 106.419C202.13 106.688 202.239 106.937 202.392 107.168C202.546 107.398 202.744 107.577 202.988 107.705C203.244 107.82 203.512 107.878 203.794 107.878ZM209.285 109.414L209.285 99.4301L211.186 99.4301L211.186 100.236C211.25 100.096 211.32 99.9677 211.397 99.8525C211.487 99.7245 211.589 99.6157 211.704 99.5261C211.832 99.4365 211.967 99.3725 212.108 99.3341C212.261 99.2957 212.408 99.2765 212.549 99.2765C212.741 99.2765 212.927 99.3149 213.106 99.3917C213.285 99.4557 213.439 99.5581 213.567 99.6989C213.708 99.8269 213.816 99.9741 213.893 100.14C213.983 100.307 214.053 100.48 214.104 100.659C214.156 100.48 214.22 100.307 214.296 100.14C214.386 99.9741 214.495 99.8269 214.623 99.6989C214.751 99.5581 214.904 99.4557 215.084 99.3917C215.263 99.3149 215.442 99.2765 215.621 99.2765L215.64 99.2765C215.832 99.2765 216.024 99.3149 216.216 99.3917C216.408 99.4685 216.568 99.5837 216.696 99.7373C216.837 99.8781 216.946 100.044 217.023 100.236C217.112 100.416 217.176 100.601 217.215 100.793C217.266 100.985 217.298 101.184 217.311 101.388C217.336 101.58 217.349 101.779 217.349 101.984L217.349 109.414L215.448 109.414L215.448 101.984C215.448 101.868 215.442 101.76 215.429 101.657C215.416 101.542 215.391 101.433 215.352 101.331C215.314 101.228 215.25 101.139 215.16 101.062C215.071 100.972 214.968 100.928 214.853 100.928C214.751 100.928 214.655 100.972 214.565 101.062C214.476 101.139 214.405 101.228 214.354 101.331C214.316 101.433 214.29 101.542 214.277 101.657C214.264 101.76 214.258 101.868 214.258 101.984L214.258 109.414L212.376 109.414L212.376 101.984C212.376 101.868 212.37 101.76 212.357 101.657C212.344 101.542 212.312 101.433 212.261 101.331C212.223 101.228 212.159 101.139 212.069 101.062C211.98 100.972 211.884 100.928 211.781 100.928C211.666 100.928 211.564 100.972 211.474 101.062C211.384 101.139 211.32 101.228 211.282 101.331C211.244 101.433 211.218 101.542 211.205 101.657C211.192 101.76 211.186 101.868 211.186 101.984L211.186 109.414L209.285 109.414Z" fill="#FBFEFC"/>
<path d="M76.4074 138.457L74.1034 138.457L74.1034 127.873L76.4074 127.873C76.6858 127.873 76.9642 127.897 77.2426 127.945C77.5306 127.993 77.8042 128.079 78.0634 128.204C78.3226 128.319 78.553 128.478 78.7546 128.679C78.9658 128.871 79.1386 129.092 79.273 129.342C79.4074 129.591 79.4986 129.86 79.5466 130.148C79.6042 130.427 79.633 130.705 79.633 130.983L79.633 135.347C79.633 135.625 79.6042 135.908 79.5466 136.196C79.4986 136.475 79.4074 136.739 79.273 136.988C79.1386 137.238 78.9658 137.463 78.7546 137.665C78.553 137.857 78.3226 138.015 78.0634 138.14C77.8042 138.255 77.5306 138.337 77.2426 138.385C76.9642 138.433 76.6858 138.457 76.4074 138.457ZM75.3994 137.305L76.4074 137.305C76.5802 137.305 76.753 137.291 76.9258 137.262C77.0986 137.233 77.2618 137.18 77.4154 137.103C77.569 137.017 77.7082 136.911 77.833 136.787C77.9578 136.662 78.0586 136.523 78.1354 136.369C78.2122 136.206 78.265 136.038 78.2938 135.865C78.3226 135.692 78.337 135.519 78.337 135.347L78.337 130.983C78.337 130.811 78.3226 130.638 78.2938 130.465C78.265 130.292 78.2122 130.129 78.1354 129.975C78.0586 129.812 77.9578 129.668 77.833 129.543C77.7082 129.419 77.569 129.318 77.4154 129.241C77.2618 129.155 77.0986 129.097 76.9258 129.068C76.753 129.039 76.5802 129.025 76.4074 129.025L75.3994 129.025L75.3994 137.305ZM84.0106 138.572C83.7514 138.572 83.4922 138.548 83.233 138.5C82.9738 138.452 82.729 138.366 82.4986 138.241C82.2778 138.107 82.0762 137.943 81.8938 137.751C81.721 137.55 81.577 137.334 81.4618 137.103C81.3562 136.863 81.2842 136.614 81.2458 136.355C81.2074 136.095 81.1882 135.836 81.1882 135.577L81.1882 133.849C81.1882 133.59 81.2074 133.331 81.2458 133.071C81.2938 132.812 81.3706 132.567 81.4762 132.337C81.5818 132.097 81.721 131.881 81.8938 131.689C82.0762 131.487 82.2778 131.324 82.4986 131.199C82.729 131.065 82.9738 130.974 83.233 130.926C83.4922 130.878 83.7514 130.854 84.0106 130.854C84.2698 130.854 84.529 130.878 84.7882 130.926C85.0474 130.974 85.2874 131.065 85.5082 131.199C85.7386 131.324 85.9402 131.487 86.113 131.689C86.2954 131.881 86.4394 132.097 86.545 132.337C86.6506 132.567 86.7226 132.812 86.761 133.071C86.809 133.331 86.833 133.59 86.833 133.849L86.833 135.289L82.4842 135.289L82.4842 135.577C82.4842 135.807 82.5082 136.033 82.5562 136.254C82.6042 136.475 82.6954 136.681 82.8298 136.873C82.9642 137.055 83.137 137.195 83.3482 137.291C83.5594 137.377 83.7802 137.42 84.0106 137.42C84.1834 137.42 84.3562 137.406 84.529 137.377C84.7018 137.339 84.8602 137.276 85.0042 137.19C85.1578 137.094 85.2778 136.969 85.3642 136.815C85.4602 136.662 85.5082 136.494 85.5082 136.311L86.8042 136.311C86.8042 136.542 86.7658 136.767 86.689 136.988C86.6218 137.199 86.521 137.396 86.3866 137.579C86.2618 137.761 86.1082 137.919 85.9258 138.054C85.7434 138.188 85.5466 138.294 85.3354 138.371C85.1242 138.447 84.9034 138.5 84.673 138.529C84.4522 138.558 84.2314 138.572 84.0106 138.572ZM82.4842 134.137L85.537 134.137L85.537 133.849C85.537 133.619 85.513 133.393 85.465 133.172C85.417 132.942 85.3258 132.735 85.1914 132.553C85.057 132.371 84.8842 132.236 84.673 132.15C84.4618 132.054 84.241 132.006 84.0106 132.006C83.7802 132.006 83.5594 132.054 83.3482 132.15C83.137 132.236 82.9642 132.371 82.8298 132.553C82.6954 132.735 82.6042 132.942 82.5562 133.172C82.5082 133.393 82.4842 133.619 82.4842 133.849L82.4842 134.137ZM91.1962 138.572C90.985 138.572 90.7738 138.558 90.5626 138.529C90.3514 138.51 90.145 138.467 89.9434 138.399C89.7418 138.332 89.5498 138.246 89.3674 138.14C89.185 138.025 89.0266 137.886 88.8922 137.723C88.7578 137.559 88.6522 137.377 88.5754 137.175C88.5082 136.974 88.4746 136.767 88.4746 136.556L88.4746 136.455L89.7706 136.455L89.7706 136.499C89.7706 136.652 89.8186 136.796 89.9146 136.931C90.0106 137.065 90.1306 137.171 90.2746 137.247C90.4186 137.315 90.5674 137.363 90.721 137.391C90.8842 137.411 91.0426 137.42 91.1962 137.42C91.3498 137.42 91.5034 137.411 91.657 137.391C91.8202 137.363 91.9738 137.315 92.1178 137.247C92.2618 137.18 92.3818 137.079 92.4778 136.945C92.5738 136.811 92.6218 136.667 92.6218 136.513C92.6218 136.35 92.5738 136.201 92.4778 136.067C92.3818 135.932 92.2618 135.822 92.1178 135.735C91.9834 135.649 91.8394 135.582 91.6858 135.534C91.5322 135.476 91.3786 135.423 91.225 135.375C91.0714 135.327 90.9178 135.279 90.7642 135.231C90.6106 135.183 90.4618 135.126 90.3178 135.059C90.1738 134.991 90.0298 134.919 89.8858 134.843C89.7418 134.756 89.6074 134.665 89.4826 134.569C89.3578 134.463 89.2426 134.348 89.137 134.223C89.0314 134.099 88.9402 133.969 88.8634 133.835C88.7866 133.691 88.7242 133.542 88.6762 133.388C88.6378 133.225 88.6186 133.062 88.6186 132.899C88.6186 132.697 88.6522 132.495 88.7194 132.294C88.7866 132.092 88.8778 131.91 88.993 131.747C89.1178 131.574 89.2666 131.43 89.4394 131.315C89.6218 131.199 89.809 131.108 90.001 131.041C90.193 130.964 90.3898 130.916 90.5914 130.897C90.8026 130.868 91.0138 130.854 91.225 130.854C91.4266 130.854 91.6282 130.868 91.8298 130.897C92.041 130.916 92.2426 130.959 92.4346 131.027C92.6362 131.094 92.8234 131.185 92.9962 131.3C93.169 131.415 93.3178 131.555 93.4426 131.718C93.5674 131.881 93.6634 132.063 93.7306 132.265C93.7978 132.467 93.8314 132.668 93.8314 132.87L93.8314 132.971L92.5354 132.971L92.5354 132.927C92.5354 132.774 92.4922 132.635 92.4058 132.51C92.329 132.375 92.2234 132.27 92.089 132.193C91.9642 132.116 91.825 132.068 91.6714 132.049C91.5274 132.02 91.3786 132.006 91.225 132.006C91.0714 132.006 90.9226 132.02 90.7786 132.049C90.6346 132.068 90.4954 132.116 90.361 132.193C90.2266 132.26 90.1162 132.361 90.0298 132.495C89.953 132.62 89.9146 132.759 89.9146 132.913C89.9146 133.067 89.9626 133.215 90.0586 133.359C90.1546 133.494 90.2698 133.604 90.4042 133.691C90.5386 133.777 90.6826 133.849 90.8362 133.907C90.9898 133.955 91.1434 134.003 91.297 134.051C91.4506 134.089 91.6042 134.137 91.7578 134.195C91.9114 134.243 92.0602 134.3 92.2042 134.367C92.3578 134.435 92.5018 134.511 92.6362 134.598C92.7802 134.675 92.9146 134.766 93.0394 134.871C93.1738 134.967 93.2938 135.078 93.3994 135.203C93.505 135.318 93.5962 135.447 93.673 135.591C93.7498 135.735 93.8074 135.884 93.8458 136.038C93.8938 136.191 93.9178 136.35 93.9178 136.513C93.9178 136.724 93.8794 136.935 93.8026 137.147C93.7354 137.348 93.6346 137.535 93.5002 137.708C93.3754 137.871 93.2218 138.011 93.0394 138.126C92.857 138.241 92.6602 138.332 92.449 138.399C92.2474 138.467 92.041 138.51 91.8298 138.529C91.6186 138.558 91.4074 138.572 91.1962 138.572ZM95.8906 138.457L95.8906 137.305L97.8634 137.305L97.8634 132.121L96.0922 132.121L96.0922 130.969L99.1594 130.969L99.1594 137.305L100.931 137.305L100.931 138.457L95.8906 138.457ZM98.4826 129.803C98.3482 129.803 98.2138 129.783 98.0794 129.745C97.9546 129.707 97.8442 129.639 97.7482 129.543C97.6522 129.447 97.585 129.337 97.5466 129.212C97.5082 129.078 97.489 128.943 97.489 128.809C97.489 128.675 97.5082 128.545 97.5466 128.42C97.585 128.286 97.6522 128.171 97.7482 128.075C97.8442 127.979 97.9546 127.911 98.0794 127.873C98.2138 127.835 98.3482 127.815 98.4826 127.815C98.617 127.815 98.7466 127.835 98.8714 127.873C99.0058 127.911 99.121 127.979 99.217 128.075C99.313 128.171 99.3802 128.286 99.4186 128.42C99.457 128.545 99.4762 128.675 99.4762 128.809C99.4762 128.943 99.457 129.078 99.4186 129.212C99.3802 129.337 99.313 129.447 99.217 129.543C99.121 129.639 99.0058 129.707 98.8714 129.745C98.7466 129.783 98.617 129.803 98.4826 129.803ZM105.582 141.668C105.361 141.668 105.145 141.654 104.934 141.625C104.723 141.596 104.516 141.543 104.315 141.467C104.113 141.399 103.921 141.303 103.739 141.179C103.566 141.063 103.412 140.919 103.278 140.747C103.153 140.583 103.057 140.396 102.99 140.185C102.923 139.983 102.884 139.772 102.875 139.551L104.171 139.551C104.171 139.715 104.219 139.863 104.315 139.998C104.411 140.132 104.526 140.238 104.66 140.315C104.795 140.391 104.939 140.444 105.092 140.473C105.255 140.502 105.419 140.516 105.582 140.516C105.726 140.516 105.87 140.497 106.014 140.459C106.158 140.42 106.287 140.353 106.403 140.257C106.527 140.171 106.628 140.065 106.705 139.94C106.791 139.815 106.859 139.681 106.907 139.537C106.955 139.403 106.983 139.259 106.993 139.105C107.012 138.961 107.022 138.817 107.022 138.673L107.022 137.175C106.945 137.377 106.844 137.569 106.719 137.751C106.595 137.934 106.441 138.087 106.259 138.212C106.086 138.337 105.894 138.428 105.683 138.486C105.471 138.543 105.255 138.572 105.035 138.572C104.795 138.572 104.559 138.539 104.329 138.471C104.108 138.404 103.907 138.299 103.724 138.155C103.542 138.001 103.388 137.823 103.263 137.622C103.139 137.411 103.038 137.195 102.961 136.974C102.894 136.743 102.846 136.513 102.817 136.283C102.798 136.052 102.788 135.817 102.788 135.577L102.788 133.849C102.788 133.609 102.798 133.374 102.817 133.143C102.846 132.913 102.894 132.687 102.961 132.467C103.038 132.236 103.139 132.02 103.263 131.819C103.388 131.607 103.542 131.43 103.724 131.286C103.907 131.132 104.108 131.022 104.329 130.955C104.559 130.887 104.795 130.854 105.035 130.854C105.255 130.854 105.471 130.883 105.683 130.94C105.894 130.998 106.086 131.089 106.259 131.214C106.441 131.339 106.595 131.492 106.719 131.675C106.844 131.857 106.945 132.049 107.022 132.251L107.022 130.969L108.318 130.969L108.318 138.673C108.318 138.932 108.299 139.187 108.26 139.436C108.222 139.695 108.15 139.94 108.044 140.171C107.948 140.411 107.814 140.627 107.641 140.819C107.478 141.02 107.281 141.183 107.051 141.308C106.83 141.443 106.59 141.534 106.331 141.582C106.081 141.639 105.831 141.668 105.582 141.668ZM105.553 137.42C105.697 137.42 105.841 137.401 105.985 137.363C106.139 137.324 106.273 137.262 106.388 137.175C106.513 137.089 106.614 136.983 106.691 136.859C106.777 136.734 106.844 136.599 106.892 136.455C106.94 136.311 106.974 136.167 106.993 136.023C107.012 135.87 107.022 135.721 107.022 135.577L107.022 133.849C107.022 133.705 107.012 133.561 106.993 133.417C106.974 133.263 106.94 133.115 106.892 132.971C106.844 132.827 106.777 132.692 106.691 132.567C106.614 132.443 106.513 132.337 106.388 132.251C106.273 132.164 106.139 132.102 105.985 132.063C105.841 132.025 105.697 132.006 105.553 132.006C105.409 132.006 105.26 132.025 105.107 132.063C104.963 132.102 104.828 132.164 104.703 132.251C104.588 132.337 104.487 132.443 104.401 132.567C104.324 132.692 104.262 132.827 104.214 132.971C104.166 133.115 104.132 133.263 104.113 133.417C104.094 133.561 104.084 133.705 104.084 133.849L104.084 135.577C104.084 135.721 104.094 135.87 104.113 136.023C104.132 136.167 104.166 136.311 104.214 136.455C104.262 136.599 104.324 136.734 104.401 136.859C104.487 136.983 104.588 137.089 104.703 137.175C104.828 137.262 104.963 137.324 105.107 137.363C105.26 137.401 105.409 137.42 105.553 137.42ZM110.103 138.457L110.103 130.969L111.399 130.969L111.399 132.236C111.476 132.035 111.572 131.847 111.687 131.675C111.812 131.492 111.961 131.339 112.134 131.214C112.307 131.089 112.494 130.998 112.695 130.94C112.907 130.883 113.118 130.854 113.329 130.854C113.559 130.854 113.79 130.892 114.02 130.969C114.251 131.036 114.452 131.147 114.625 131.3C114.798 131.444 114.942 131.622 115.057 131.833C115.182 132.035 115.278 132.246 115.345 132.467C115.412 132.687 115.455 132.918 115.475 133.158C115.503 133.388 115.518 133.619 115.518 133.849L115.518 138.457L114.222 138.457L114.222 133.849C114.222 133.705 114.212 133.561 114.193 133.417C114.183 133.263 114.155 133.119 114.107 132.985C114.059 132.841 113.996 132.707 113.919 132.582C113.843 132.457 113.747 132.351 113.631 132.265C113.516 132.169 113.387 132.102 113.243 132.063C113.099 132.025 112.955 132.006 112.811 132.006C112.667 132.006 112.523 132.025 112.379 132.063C112.235 132.102 112.105 132.169 111.99 132.265C111.875 132.351 111.779 132.457 111.702 132.582C111.625 132.707 111.563 132.841 111.515 132.985C111.467 133.119 111.433 133.263 111.414 133.417C111.404 133.561 111.399 133.705 111.399 133.849L111.399 138.457L110.103 138.457ZM126.822 138.572C126.582 138.572 126.347 138.543 126.116 138.486C125.886 138.428 125.675 138.332 125.483 138.198C125.291 138.063 125.123 137.9 124.979 137.708C124.844 137.516 124.734 137.31 124.647 137.089C124.561 136.868 124.494 136.643 124.446 136.412C124.407 136.172 124.388 135.937 124.388 135.707C124.388 135.428 124.422 135.15 124.489 134.871C124.566 134.593 124.671 134.334 124.806 134.094C124.94 133.844 125.099 133.614 125.281 133.403C125.473 133.182 125.67 132.98 125.871 132.798C125.747 132.577 125.617 132.361 125.483 132.15C125.348 131.929 125.228 131.708 125.123 131.487C125.017 131.257 124.931 131.017 124.863 130.767C124.806 130.518 124.777 130.268 124.777 130.019C124.777 129.721 124.82 129.428 124.907 129.14C125.003 128.852 125.151 128.603 125.353 128.391C125.555 128.171 125.799 128.012 126.087 127.916C126.375 127.811 126.663 127.758 126.951 127.758C127.249 127.758 127.542 127.811 127.83 127.916C128.118 128.012 128.363 128.171 128.564 128.391C128.766 128.603 128.91 128.857 128.996 129.155C129.092 129.443 129.14 129.735 129.14 130.033C129.14 130.321 129.097 130.609 129.011 130.897C128.924 131.185 128.804 131.454 128.651 131.703C128.497 131.953 128.319 132.188 128.118 132.409C127.916 132.62 127.7 132.822 127.47 133.014C127.508 133.062 127.542 133.11 127.571 133.158C127.599 133.206 127.628 133.259 127.657 133.316L128.737 135.188L129.227 133.907L130.595 133.907L129.716 136.182C129.687 136.249 129.659 136.321 129.63 136.398C129.601 136.465 129.572 136.532 129.543 136.599L130.623 138.457L129.169 138.457L128.636 137.535C128.473 137.795 128.262 138.02 128.003 138.212C127.753 138.395 127.475 138.505 127.167 138.543L127.081 138.558L126.822 138.572ZM126.822 131.963C126.956 131.828 127.086 131.694 127.211 131.559C127.335 131.415 127.441 131.262 127.527 131.099C127.623 130.935 127.7 130.767 127.758 130.595C127.815 130.412 127.844 130.225 127.844 130.033C127.844 129.899 127.83 129.769 127.801 129.644C127.772 129.51 127.719 129.385 127.643 129.27C127.566 129.155 127.465 129.068 127.34 129.011C127.215 128.943 127.086 128.91 126.951 128.91C126.817 128.91 126.687 128.943 126.563 129.011C126.438 129.068 126.337 129.155 126.26 129.27C126.193 129.385 126.145 129.51 126.116 129.644C126.087 129.779 126.073 129.913 126.073 130.047C126.073 130.22 126.092 130.393 126.131 130.566C126.179 130.729 126.236 130.892 126.303 131.055C126.38 131.209 126.462 131.363 126.548 131.516C126.635 131.67 126.726 131.819 126.822 131.963ZM127.023 137.42C127.148 137.42 127.263 137.401 127.369 137.363C127.484 137.324 127.585 137.271 127.671 137.204C127.767 137.127 127.854 137.041 127.931 136.945C128.007 136.849 128.075 136.753 128.132 136.657L126.534 133.892C126.534 133.883 126.534 133.873 126.534 133.863L126.519 133.863C126.395 133.988 126.279 134.123 126.174 134.267C126.078 134.401 125.991 134.545 125.915 134.699C125.838 134.852 125.775 135.015 125.727 135.188C125.689 135.351 125.67 135.519 125.67 135.692C125.67 135.827 125.679 135.966 125.699 136.11C125.727 136.244 125.766 136.379 125.814 136.513C125.862 136.638 125.919 136.758 125.987 136.873C126.063 136.988 126.155 137.089 126.26 137.175C126.366 137.262 126.486 137.324 126.62 137.363C126.755 137.401 126.889 137.42 127.023 137.42ZM139.091 138.457L139.091 137.305L140.963 137.305L140.963 129.025L139.091 129.025L139.091 127.873L144.131 127.873L144.131 129.025L142.259 129.025L142.259 137.305L144.131 137.305L144.131 138.457L139.091 138.457ZM146.103 138.457L146.103 130.969L147.399 130.969L147.399 132.236C147.476 132.035 147.572 131.847 147.687 131.675C147.812 131.492 147.961 131.339 148.134 131.214C148.307 131.089 148.494 130.998 148.695 130.94C148.907 130.883 149.118 130.854 149.329 130.854C149.559 130.854 149.79 130.892 150.02 130.969C150.251 131.036 150.452 131.147 150.625 131.3C150.798 131.444 150.942 131.622 151.057 131.833C151.182 132.035 151.278 132.246 151.345 132.467C151.412 132.687 151.455 132.918 151.475 133.158C151.503 133.388 151.518 133.619 151.518 133.849L151.518 138.457L150.222 138.457L150.222 133.849C150.222 133.705 150.212 133.561 150.193 133.417C150.183 133.263 150.155 133.119 150.107 132.985C150.059 132.841 149.996 132.707 149.919 132.582C149.843 132.457 149.747 132.351 149.631 132.265C149.516 132.169 149.387 132.102 149.243 132.063C149.099 132.025 148.955 132.006 148.811 132.006C148.667 132.006 148.523 132.025 148.379 132.063C148.235 132.102 148.105 132.169 147.99 132.265C147.875 132.351 147.779 132.457 147.702 132.582C147.625 132.707 147.563 132.841 147.515 132.985C147.467 133.119 147.433 133.263 147.414 133.417C147.404 133.561 147.399 133.705 147.399 133.849L147.399 138.457L146.103 138.457ZM153.303 138.457L153.303 130.969L154.599 130.969L154.599 132.236C154.676 132.035 154.772 131.847 154.887 131.675C155.012 131.492 155.161 131.339 155.334 131.214C155.507 131.089 155.694 130.998 155.895 130.94C156.107 130.883 156.318 130.854 156.529 130.854C156.759 130.854 156.99 130.892 157.22 130.969C157.451 131.036 157.652 131.147 157.825 131.3C157.998 131.444 158.142 131.622 158.257 131.833C158.382 132.035 158.478 132.246 158.545 132.467C158.612 132.687 158.655 132.918 158.675 133.158C158.703 133.388 158.718 133.619 158.718 133.849L158.718 138.457L157.422 138.457L157.422 133.849C157.422 133.705 157.412 133.561 157.393 133.417C157.383 133.263 157.355 133.119 157.307 132.985C157.259 132.841 157.196 132.707 157.119 132.582C157.043 132.457 156.947 132.351 156.831 132.265C156.716 132.169 156.587 132.102 156.443 132.063C156.299 132.025 156.155 132.006 156.011 132.006C155.867 132.006 155.723 132.025 155.579 132.063C155.435 132.102 155.305 132.169 155.19 132.265C155.075 132.351 154.979 132.457 154.902 132.582C154.825 132.707 154.763 132.841 154.715 132.985C154.667 133.119 154.633 133.263 154.614 133.417C154.604 133.561 154.599 133.705 154.599 133.849L154.599 138.457L153.303 138.457ZM163.211 138.572C162.951 138.572 162.692 138.548 162.433 138.5C162.174 138.452 161.929 138.366 161.699 138.241C161.478 138.107 161.276 137.943 161.094 137.751C160.921 137.55 160.782 137.334 160.676 137.103C160.571 136.863 160.494 136.614 160.446 136.355C160.407 136.095 160.388 135.836 160.388 135.577L160.388 133.849C160.388 133.59 160.407 133.331 160.446 133.071C160.494 132.812 160.571 132.567 160.676 132.337C160.782 132.097 160.921 131.881 161.094 131.689C161.276 131.487 161.478 131.324 161.699 131.199C161.929 131.065 162.174 130.974 162.433 130.926C162.692 130.878 162.951 130.854 163.211 130.854C163.47 130.854 163.729 130.878 163.988 130.926C164.247 130.974 164.487 131.065 164.708 131.199C164.939 131.324 165.14 131.487 165.313 131.689C165.495 131.881 165.639 132.097 165.745 132.337C165.851 132.567 165.923 132.812 165.961 133.071C166.009 133.331 166.033 133.59 166.033 133.849L166.033 135.577C166.033 135.836 166.009 136.095 165.961 136.355C165.923 136.614 165.851 136.863 165.745 137.103C165.639 137.334 165.495 137.55 165.313 137.751C165.14 137.943 164.939 138.107 164.708 138.241C164.487 138.366 164.247 138.452 163.988 138.5C163.729 138.548 163.47 138.572 163.211 138.572ZM163.211 137.42C163.441 137.42 163.662 137.377 163.873 137.291C164.084 137.195 164.257 137.055 164.391 136.873C164.526 136.691 164.617 136.489 164.665 136.268C164.713 136.038 164.737 135.807 164.737 135.577L164.737 133.849C164.737 133.619 164.713 133.393 164.665 133.172C164.617 132.942 164.526 132.735 164.391 132.553C164.257 132.371 164.084 132.236 163.873 132.15C163.662 132.054 163.441 132.006 163.211 132.006C162.98 132.006 162.759 132.054 162.548 132.15C162.337 132.236 162.164 132.371 162.03 132.553C161.895 132.735 161.804 132.942 161.756 133.172C161.708 133.393 161.684 133.619 161.684 133.849L161.684 135.577C161.684 135.807 161.708 136.038 161.756 136.268C161.804 136.489 161.895 136.691 162.03 136.873C162.164 137.055 162.337 137.195 162.548 137.291C162.759 137.377 162.98 137.42 163.211 137.42ZM171.159 138.457L169.662 138.457C169.518 138.092 169.374 137.727 169.23 137.363C169.086 136.998 168.947 136.633 168.812 136.268C168.678 135.903 168.548 135.534 168.423 135.159C168.299 134.785 168.183 134.411 168.078 134.036C167.982 133.652 167.895 133.268 167.819 132.884C167.742 132.5 167.703 132.111 167.703 131.718L167.703 130.969L168.999 130.969L168.999 131.718C168.999 132.054 169.023 132.39 169.071 132.726C169.129 133.052 169.191 133.383 169.259 133.719C169.335 134.046 169.417 134.372 169.503 134.699C169.59 135.015 169.681 135.337 169.777 135.663C169.873 135.98 169.974 136.297 170.079 136.614C170.185 136.931 170.295 137.252 170.411 137.579C170.526 137.252 170.636 136.931 170.742 136.614C170.847 136.297 170.948 135.98 171.044 135.663C171.14 135.337 171.231 135.015 171.318 134.699C171.404 134.372 171.481 134.046 171.548 133.719C171.625 133.383 171.687 133.052 171.735 132.726C171.793 132.39 171.822 132.054 171.822 131.718L171.822 130.969L173.118 130.969L173.118 131.718C173.118 132.111 173.079 132.5 173.003 132.884C172.926 133.268 172.835 133.652 172.729 134.036C172.633 134.411 172.523 134.785 172.398 135.159C172.273 135.534 172.143 135.903 172.009 136.268C171.875 136.633 171.735 136.998 171.591 137.363C171.447 137.727 171.303 138.092 171.159 138.457ZM177.035 138.572C176.737 138.572 176.439 138.529 176.142 138.443C175.854 138.356 175.604 138.212 175.393 138.011C175.182 137.799 175.028 137.55 174.932 137.262C174.836 136.974 174.788 136.686 174.788 136.398C174.788 136.148 174.817 135.903 174.875 135.663C174.942 135.414 175.052 135.193 175.206 135.001C175.359 134.809 175.542 134.646 175.753 134.511C175.964 134.377 176.185 134.271 176.415 134.195C176.655 134.118 176.895 134.065 177.135 134.036C177.385 134.007 177.635 133.993 177.884 133.993L179.022 133.993L179.022 133.345C179.022 133.153 178.988 132.971 178.921 132.798C178.863 132.615 178.763 132.462 178.619 132.337C178.484 132.212 178.326 132.126 178.143 132.078C177.961 132.03 177.779 132.006 177.596 132.006C177.423 132.006 177.255 132.025 177.092 132.063C176.929 132.092 176.775 132.155 176.631 132.251C176.497 132.337 176.387 132.457 176.3 132.611C176.214 132.755 176.171 132.908 176.171 133.071L176.171 133.115L174.875 133.115L174.875 133.043C174.875 132.822 174.908 132.606 174.975 132.395C175.043 132.183 175.139 131.991 175.263 131.819C175.388 131.636 175.542 131.483 175.724 131.358C175.907 131.233 176.099 131.132 176.3 131.055C176.511 130.979 176.723 130.926 176.934 130.897C177.155 130.868 177.375 130.854 177.596 130.854C177.827 130.854 178.057 130.873 178.287 130.911C178.527 130.94 178.753 131.003 178.964 131.099C179.175 131.185 179.372 131.305 179.555 131.459C179.737 131.612 179.886 131.79 180.001 131.991C180.116 132.193 180.198 132.409 180.246 132.639C180.294 132.87 180.318 133.105 180.318 133.345L180.318 138.457L179.022 138.457L179.022 137.305C178.935 137.497 178.825 137.679 178.691 137.852C178.566 138.015 178.412 138.155 178.23 138.27C178.057 138.375 177.865 138.452 177.654 138.5C177.443 138.548 177.236 138.572 177.035 138.572ZM177.553 137.42C177.755 137.42 177.951 137.387 178.143 137.319C178.345 137.252 178.513 137.147 178.647 137.003C178.791 136.849 178.887 136.671 178.935 136.47C178.993 136.268 179.022 136.067 179.022 135.865L179.022 135.145L177.884 135.145C177.75 135.145 177.615 135.15 177.481 135.159C177.347 135.169 177.217 135.193 177.092 135.231C176.967 135.26 176.843 135.303 176.718 135.361C176.593 135.409 176.478 135.476 176.372 135.563C176.276 135.649 176.204 135.755 176.156 135.879C176.108 136.004 176.084 136.134 176.084 136.268C176.084 136.441 176.123 136.609 176.199 136.772C176.286 136.935 176.401 137.07 176.545 137.175C176.689 137.271 176.847 137.339 177.02 137.377C177.193 137.406 177.371 137.42 177.553 137.42ZM185.718 138.572C185.497 138.572 185.276 138.543 185.055 138.486C184.844 138.428 184.647 138.337 184.465 138.212C184.283 138.078 184.129 137.919 184.004 137.737C183.879 137.545 183.779 137.348 183.702 137.147C183.635 136.935 183.587 136.719 183.558 136.499C183.529 136.268 183.515 136.043 183.515 135.822L183.515 132.121L182.219 132.121L182.219 130.969L183.515 130.969L183.515 127.873L184.811 127.873L184.811 130.969L187.259 130.969L187.259 132.121L184.811 132.121L184.811 135.822C184.811 135.937 184.815 136.052 184.825 136.167C184.835 136.283 184.849 136.398 184.868 136.513C184.897 136.619 184.931 136.724 184.969 136.83C185.007 136.935 185.06 137.036 185.127 137.132C185.204 137.219 185.291 137.291 185.387 137.348C185.492 137.396 185.603 137.42 185.718 137.42C185.833 137.42 185.939 137.396 186.035 137.348C186.14 137.3 186.227 137.233 186.294 137.147C186.361 137.06 186.414 136.969 186.452 136.873C186.5 136.767 186.534 136.662 186.553 136.556C186.582 136.441 186.601 136.331 186.611 136.225C186.63 136.11 186.639 135.999 186.639 135.894L186.639 135.807L187.935 135.807L187.935 135.951C187.935 136.163 187.916 136.379 187.878 136.599C187.839 136.811 187.782 137.017 187.705 137.219C187.628 137.42 187.523 137.607 187.388 137.78C187.263 137.953 187.115 138.102 186.942 138.227C186.769 138.351 186.577 138.438 186.366 138.486C186.155 138.543 185.939 138.572 185.718 138.572ZM189.491 138.457L189.491 137.305L191.463 137.305L191.463 132.121L189.692 132.121L189.692 130.969L192.759 130.969L192.759 137.305L194.531 137.305L194.531 138.457L189.491 138.457ZM192.083 129.803C191.948 129.803 191.814 129.783 191.679 129.745C191.555 129.707 191.444 129.639 191.348 129.543C191.252 129.447 191.185 129.337 191.147 129.212C191.108 129.078 191.089 128.943 191.089 128.809C191.089 128.675 191.108 128.545 191.147 128.42C191.185 128.286 191.252 128.171 191.348 128.075C191.444 127.979 191.555 127.911 191.679 127.873C191.814 127.835 191.948 127.815 192.083 127.815C192.217 127.815 192.347 127.835 192.471 127.873C192.606 127.911 192.721 127.979 192.817 128.075C192.913 128.171 192.98 128.286 193.019 128.42C193.057 128.545 193.076 128.675 193.076 128.809C193.076 128.943 193.057 129.078 193.019 129.212C192.98 129.337 192.913 129.447 192.817 129.543C192.721 129.639 192.606 129.707 192.471 129.745C192.347 129.783 192.217 129.803 192.083 129.803ZM199.211 138.572C198.951 138.572 198.692 138.548 198.433 138.5C198.174 138.452 197.929 138.366 197.699 138.241C197.478 138.107 197.276 137.943 197.094 137.751C196.921 137.55 196.782 137.334 196.676 137.103C196.571 136.863 196.494 136.614 196.446 136.355C196.407 136.095 196.388 135.836 196.388 135.577L196.388 133.849C196.388 133.59 196.407 133.331 196.446 133.071C196.494 132.812 196.571 132.567 196.676 132.337C196.782 132.097 196.921 131.881 197.094 131.689C197.276 131.487 197.478 131.324 197.699 131.199C197.929 131.065 198.174 130.974 198.433 130.926C198.692 130.878 198.951 130.854 199.211 130.854C199.47 130.854 199.729 130.878 199.988 130.926C200.247 130.974 200.487 131.065 200.708 131.199C200.939 131.324 201.14 131.487 201.313 131.689C201.495 131.881 201.639 132.097 201.745 132.337C201.851 132.567 201.923 132.812 201.961 133.071C202.009 133.331 202.033 133.59 202.033 133.849L202.033 135.577C202.033 135.836 202.009 136.095 201.961 136.355C201.923 136.614 201.851 136.863 201.745 137.103C201.639 137.334 201.495 137.55 201.313 137.751C201.14 137.943 200.939 138.107 200.708 138.241C200.487 138.366 200.247 138.452 199.988 138.5C199.729 138.548 199.47 138.572 199.211 138.572ZM199.211 137.42C199.441 137.42 199.662 137.377 199.873 137.291C200.084 137.195 200.257 137.055 200.391 136.873C200.526 136.691 200.617 136.489 200.665 136.268C200.713 136.038 200.737 135.807 200.737 135.577L200.737 133.849C200.737 133.619 200.713 133.393 200.665 133.172C200.617 132.942 200.526 132.735 200.391 132.553C200.257 132.371 200.084 132.236 199.873 132.15C199.662 132.054 199.441 132.006 199.211 132.006C198.98 132.006 198.759 132.054 198.548 132.15C198.337 132.236 198.164 132.371 198.03 132.553C197.895 132.735 197.804 132.942 197.756 133.172C197.708 133.393 197.684 133.619 197.684 133.849L197.684 135.577C197.684 135.807 197.708 136.038 197.756 136.268C197.804 136.489 197.895 136.691 198.03 136.873C198.164 137.055 198.337 137.195 198.548 137.291C198.759 137.377 198.98 137.42 199.211 137.42ZM203.703 138.457L203.703 130.969L204.999 130.969L204.999 132.236C205.076 132.035 205.172 131.847 205.287 131.675C205.412 131.492 205.561 131.339 205.734 131.214C205.907 131.089 206.094 130.998 206.295 130.94C206.507 130.883 206.718 130.854 206.929 130.854C207.159 130.854 207.39 130.892 207.62 130.969C207.851 131.036 208.052 131.147 208.225 131.3C208.398 131.444 208.542 131.622 208.657 131.833C208.782 132.035 208.878 132.246 208.945 132.467C209.012 132.687 209.055 132.918 209.075 133.158C209.103 133.388 209.118 133.619 209.118 133.849L209.118 138.457L207.822 138.457L207.822 133.849C207.822 133.705 207.812 133.561 207.793 133.417C207.783 133.263 207.755 133.119 207.707 132.985C207.659 132.841 207.596 132.707 207.519 132.582C207.443 132.457 207.347 132.351 207.231 132.265C207.116 132.169 206.987 132.102 206.843 132.063C206.699 132.025 206.555 132.006 206.411 132.006C206.267 132.006 206.123 132.025 205.979 132.063C205.835 132.102 205.705 132.169 205.59 132.265C205.475 132.351 205.379 132.457 205.302 132.582C205.225 132.707 205.163 132.841 205.115 132.985C205.067 133.119 205.033 133.263 205.014 133.417C205.004 133.561 204.999 133.705 204.999 133.849L204.999 138.457L203.703 138.457ZM99.3034 156.457L99.3034 145.873L101.78 145.873C102.03 145.873 102.275 145.897 102.515 145.945C102.764 145.983 102.999 146.06 103.22 146.175C103.451 146.291 103.652 146.439 103.825 146.622C104.007 146.804 104.151 147.006 104.257 147.227C104.372 147.447 104.454 147.683 104.502 147.932C104.55 148.182 104.574 148.431 104.574 148.681C104.574 148.911 104.55 149.142 104.502 149.372C104.463 149.593 104.391 149.804 104.286 150.006C104.18 150.207 104.046 150.39 103.883 150.553C103.719 150.707 103.537 150.836 103.335 150.942C103.585 151.038 103.815 151.172 104.027 151.345C104.238 151.508 104.415 151.705 104.559 151.935C104.703 152.156 104.804 152.401 104.862 152.67C104.919 152.929 104.948 153.193 104.948 153.462C104.948 153.731 104.919 154.004 104.862 154.283C104.814 154.551 104.723 154.811 104.588 155.06C104.454 155.3 104.281 155.516 104.07 155.708C103.868 155.891 103.638 156.039 103.379 156.155C103.129 156.27 102.865 156.351 102.587 156.399C102.318 156.438 102.049 156.457 101.78 156.457L99.3034 156.457ZM100.599 150.395L101.78 150.395C101.991 150.395 102.198 150.356 102.399 150.279C102.611 150.203 102.783 150.083 102.918 149.919C103.052 149.747 103.143 149.555 103.191 149.343C103.249 149.132 103.278 148.921 103.278 148.71C103.278 148.499 103.249 148.287 103.191 148.076C103.143 147.865 103.052 147.678 102.918 147.515C102.783 147.342 102.611 147.217 102.399 147.14C102.198 147.063 101.991 147.025 101.78 147.025L100.599 147.025L100.599 150.395ZM100.599 155.305L101.78 155.305C101.943 155.305 102.107 155.291 102.27 155.262C102.443 155.233 102.601 155.18 102.745 155.103C102.899 155.027 103.033 154.931 103.148 154.815C103.273 154.691 103.374 154.556 103.451 154.412C103.527 154.259 103.58 154.1 103.609 153.937C103.638 153.764 103.652 153.596 103.652 153.433C103.652 153.26 103.638 153.092 103.609 152.929C103.58 152.766 103.527 152.607 103.451 152.454C103.374 152.3 103.273 152.166 103.148 152.051C103.033 151.926 102.899 151.825 102.745 151.748C102.601 151.671 102.443 151.619 102.27 151.59C102.107 151.561 101.943 151.547 101.78 151.547L100.599 151.547L100.599 155.305ZM108.692 156.572C108.462 156.572 108.231 156.534 108.001 156.457C107.771 156.39 107.569 156.284 107.396 156.14C107.223 155.987 107.075 155.809 106.95 155.607C106.835 155.396 106.743 155.18 106.676 154.959C106.609 154.739 106.561 154.513 106.532 154.283C106.513 154.043 106.503 153.807 106.503 153.577L106.503 148.969L107.799 148.969L107.799 153.577C107.799 153.721 107.804 153.87 107.814 154.023C107.833 154.167 107.867 154.311 107.915 154.455C107.963 154.59 108.025 154.719 108.102 154.844C108.179 154.969 108.275 155.079 108.39 155.175C108.505 155.262 108.635 155.324 108.779 155.363C108.923 155.401 109.067 155.42 109.211 155.42C109.355 155.42 109.499 155.401 109.643 155.363C109.787 155.324 109.916 155.262 110.031 155.175C110.147 155.079 110.243 154.969 110.319 154.844C110.396 154.719 110.459 154.59 110.507 154.455C110.555 154.311 110.583 154.167 110.593 154.023C110.612 153.87 110.622 153.721 110.622 153.577L110.622 148.969L111.918 148.969L111.918 156.457L110.622 156.457L110.622 155.19C110.545 155.391 110.444 155.583 110.319 155.766C110.204 155.939 110.06 156.087 109.887 156.212C109.715 156.337 109.523 156.428 109.311 156.486C109.11 156.543 108.903 156.572 108.692 156.572ZM113.891 156.457L113.891 155.305L115.863 155.305L115.863 150.121L114.092 150.121L114.092 148.969L117.159 148.969L117.159 155.305L118.931 155.305L118.931 156.457L113.891 156.457ZM116.483 147.803C116.348 147.803 116.214 147.783 116.079 147.745C115.955 147.707 115.844 147.639 115.748 147.543C115.652 147.447 115.585 147.337 115.547 147.212C115.508 147.078 115.489 146.943 115.489 146.809C115.489 146.675 115.508 146.545 115.547 146.42C115.585 146.286 115.652 146.171 115.748 146.075C115.844 145.979 115.955 145.911 116.079 145.873C116.214 145.835 116.348 145.815 116.483 145.815C116.617 145.815 116.747 145.835 116.871 145.873C117.006 145.911 117.121 145.979 117.217 146.075C117.313 146.171 117.38 146.286 117.419 146.42C117.457 146.545 117.476 146.675 117.476 146.809C117.476 146.943 117.457 147.078 117.419 147.212C117.38 147.337 117.313 147.447 117.217 147.543C117.121 147.639 117.006 147.707 116.871 147.745C116.747 147.783 116.617 147.803 116.483 147.803ZM121.091 156.457L121.091 155.305L123.063 155.305L123.063 147.025L121.292 147.025L121.292 145.873L124.359 145.873L124.359 155.305L126.131 155.305L126.131 156.457L121.091 156.457ZM130.235 156.572C129.995 156.572 129.759 156.539 129.529 156.471C129.308 156.404 129.107 156.299 128.924 156.155C128.742 156.001 128.588 155.823 128.463 155.622C128.339 155.411 128.238 155.195 128.161 154.974C128.094 154.743 128.046 154.513 128.017 154.283C127.998 154.052 127.988 153.817 127.988 153.577L127.988 151.849C127.988 151.609 127.998 151.374 128.017 151.143C128.046 150.913 128.094 150.687 128.161 150.467C128.238 150.236 128.339 150.02 128.463 149.819C128.588 149.607 128.742 149.43 128.924 149.286C129.107 149.132 129.308 149.022 129.529 148.955C129.759 148.887 129.995 148.854 130.235 148.854C130.455 148.854 130.671 148.883 130.883 148.94C131.094 148.998 131.286 149.089 131.459 149.214C131.641 149.339 131.795 149.492 131.919 149.675C132.044 149.857 132.145 150.049 132.222 150.251L132.222 145.873L133.518 145.873L133.518 156.457L132.222 156.457L132.222 155.175C132.145 155.377 132.044 155.569 131.919 155.751C131.795 155.934 131.641 156.087 131.459 156.212C131.286 156.337 131.094 156.428 130.883 156.486C130.671 156.543 130.455 156.572 130.235 156.572ZM130.753 155.42C130.897 155.42 131.041 155.401 131.185 155.363C131.339 155.324 131.473 155.262 131.588 155.175C131.713 155.089 131.814 154.983 131.891 154.859C131.977 154.734 132.044 154.599 132.092 154.455C132.14 154.311 132.174 154.167 132.193 154.023C132.212 153.87 132.222 153.721 132.222 153.577L132.222 151.849C132.222 151.705 132.212 151.561 132.193 151.417C132.174 151.263 132.14 151.115 132.092 150.971C132.044 150.827 131.977 150.692 131.891 150.567C131.814 150.443 131.713 150.337 131.588 150.251C131.473 150.164 131.339 150.102 131.185 150.063C131.041 150.025 130.897 150.006 130.753 150.006C130.609 150.006 130.46 150.025 130.307 150.063C130.163 150.102 130.028 150.164 129.903 150.251C129.788 150.337 129.687 150.443 129.601 150.567C129.524 150.692 129.462 150.827 129.414 150.971C129.366 151.115 129.332 151.263 129.313 151.417C129.294 151.561 129.284 151.705 129.284 151.849L129.284 153.577C129.284 153.721 129.294 153.87 129.313 154.023C129.332 154.167 129.366 154.311 129.414 154.455C129.462 154.599 129.524 154.734 129.601 154.859C129.687 154.983 129.788 155.089 129.903 155.175C130.028 155.262 130.163 155.324 130.307 155.363C130.46 155.401 130.609 155.42 130.753 155.42ZM135.491 156.457L135.491 155.305L137.463 155.305L137.463 150.121L135.692 150.121L135.692 148.969L138.759 148.969L138.759 155.305L140.531 155.305L140.531 156.457L135.491 156.457ZM138.083 147.803C137.948 147.803 137.814 147.783 137.679 147.745C137.555 147.707 137.444 147.639 137.348 147.543C137.252 147.447 137.185 147.337 137.147 147.212C137.108 147.078 137.089 146.943 137.089 146.809C137.089 146.675 137.108 146.545 137.147 146.42C137.185 146.286 137.252 146.171 137.348 146.075C137.444 145.979 137.555 145.911 137.679 145.873C137.814 145.835 137.948 145.815 138.083 145.815C138.217 145.815 138.347 145.835 138.471 145.873C138.606 145.911 138.721 145.979 138.817 146.075C138.913 146.171 138.98 146.286 139.019 146.42C139.057 146.545 139.076 146.675 139.076 146.809C139.076 146.943 139.057 147.078 139.019 147.212C138.98 147.337 138.913 147.447 138.817 147.543C138.721 147.639 138.606 147.707 138.471 147.745C138.347 147.783 138.217 147.803 138.083 147.803ZM142.503 156.457L142.503 148.969L143.799 148.969L143.799 150.236C143.876 150.035 143.972 149.847 144.087 149.675C144.212 149.492 144.361 149.339 144.534 149.214C144.707 149.089 144.894 148.998 145.095 148.94C145.307 148.883 145.518 148.854 145.729 148.854C145.959 148.854 146.19 148.892 146.42 148.969C146.651 149.036 146.852 149.147 147.025 149.3C147.198 149.444 147.342 149.622 147.457 149.833C147.582 150.035 147.678 150.246 147.745 150.467C147.812 150.687 147.855 150.918 147.875 151.158C147.903 151.388 147.918 151.619 147.918 151.849L147.918 156.457L146.622 156.457L146.622 151.849C146.622 151.705 146.612 151.561 146.593 151.417C146.583 151.263 146.555 151.119 146.507 150.985C146.459 150.841 146.396 150.707 146.319 150.582C146.243 150.457 146.147 150.351 146.031 150.265C145.916 150.169 145.787 150.102 145.643 150.063C145.499 150.025 145.355 150.006 145.211 150.006C145.067 150.006 144.923 150.025 144.779 150.063C144.635 150.102 144.505 150.169 144.39 150.265C144.275 150.351 144.179 150.457 144.102 150.582C144.025 150.707 143.963 150.841 143.915 150.985C143.867 151.119 143.833 151.263 143.814 151.417C143.804 151.561 143.799 151.705 143.799 151.849L143.799 156.457L142.503 156.457ZM152.382 159.668C152.161 159.668 151.945 159.654 151.734 159.625C151.523 159.596 151.316 159.543 151.115 159.467C150.913 159.399 150.721 159.303 150.539 159.179C150.366 159.063 150.212 158.919 150.078 158.747C149.953 158.583 149.857 158.396 149.79 158.185C149.723 157.983 149.684 157.772 149.675 157.551L150.971 157.551C150.971 157.715 151.019 157.863 151.115 157.998C151.211 158.132 151.326 158.238 151.46 158.315C151.595 158.391 151.739 158.444 151.892 158.473C152.055 158.502 152.219 158.516 152.382 158.516C152.526 158.516 152.67 158.497 152.814 158.459C152.958 158.42 153.087 158.353 153.203 158.257C153.327 158.171 153.428 158.065 153.505 157.94C153.591 157.815 153.659 157.681 153.707 157.537C153.755 157.403 153.783 157.259 153.793 157.105C153.812 156.961 153.822 156.817 153.822 156.673L153.822 155.175C153.745 155.377 153.644 155.569 153.519 155.751C153.395 155.934 153.241 156.087 153.059 156.212C152.886 156.337 152.694 156.428 152.483 156.486C152.271 156.543 152.055 156.572 151.835 156.572C151.595 156.572 151.359 156.539 151.129 156.471C150.908 156.404 150.707 156.299 150.524 156.155C150.342 156.001 150.188 155.823 150.063 155.622C149.939 155.411 149.838 155.195 149.761 154.974C149.694 154.743 149.646 154.513 149.617 154.283C149.598 154.052 149.588 153.817 149.588 153.577L149.588 151.849C149.588 151.609 149.598 151.374 149.617 151.143C149.646 150.913 149.694 150.687 149.761 150.467C149.838 150.236 149.939 150.02 150.063 149.819C150.188 149.607 150.342 149.43 150.524 149.286C150.707 149.132 150.908 149.022 151.129 148.955C151.359 148.887 151.595 148.854 151.835 148.854C152.055 148.854 152.271 148.883 152.483 148.94C152.694 148.998 152.886 149.089 153.059 149.214C153.241 149.339 153.395 149.492 153.519 149.675C153.644 149.857 153.745 150.049 153.822 150.251L153.822 148.969L155.118 148.969L155.118 156.673C155.118 156.932 155.099 157.187 155.06 157.436C155.022 157.695 154.95 157.94 154.844 158.171C154.748 158.411 154.614 158.627 154.441 158.819C154.278 159.02 154.081 159.183 153.851 159.308C153.63 159.443 153.39 159.534 153.131 159.582C152.881 159.639 152.631 159.668 152.382 159.668ZM152.353 155.42C152.497 155.42 152.641 155.401 152.785 155.363C152.939 155.324 153.073 155.262 153.188 155.175C153.313 155.089 153.414 154.983 153.491 154.859C153.577 154.734 153.644 154.599 153.692 154.455C153.74 154.311 153.774 154.167 153.793 154.023C153.812 153.87 153.822 153.721 153.822 153.577L153.822 151.849C153.822 151.705 153.812 151.561 153.793 151.417C153.774 151.263 153.74 151.115 153.692 150.971C153.644 150.827 153.577 150.692 153.491 150.567C153.414 150.443 153.313 150.337 153.188 150.251C153.073 150.164 152.939 150.102 152.785 150.063C152.641 150.025 152.497 150.006 152.353 150.006C152.209 150.006 152.06 150.025 151.907 150.063C151.763 150.102 151.628 150.164 151.503 150.251C151.388 150.337 151.287 150.443 151.201 150.567C151.124 150.692 151.062 150.827 151.014 150.971C150.966 151.115 150.932 151.263 150.913 151.417C150.894 151.561 150.884 151.705 150.884 151.849L150.884 153.577C150.884 153.721 150.894 153.87 150.913 154.023C150.932 154.167 150.966 154.311 151.014 154.455C151.062 154.599 151.124 154.734 151.201 154.859C151.287 154.983 151.388 155.089 151.503 155.175C151.628 155.262 151.763 155.324 151.907 155.363C152.06 155.401 152.209 155.42 152.353 155.42ZM164.103 156.457L164.103 156.443C164.103 156.183 164.108 155.929 164.118 155.679C164.127 155.42 164.151 155.166 164.19 154.916C164.228 154.657 164.286 154.403 164.363 154.153C164.439 153.903 164.535 153.668 164.651 153.447C164.766 153.217 164.895 152.996 165.039 152.785C165.193 152.574 165.361 152.377 165.543 152.195C165.726 152.012 165.913 151.839 166.105 151.676C166.307 151.513 166.508 151.355 166.71 151.201C166.921 151.047 167.127 150.889 167.329 150.726C167.531 150.563 167.703 150.375 167.847 150.164C167.991 149.953 168.097 149.723 168.164 149.473C168.241 149.223 168.279 148.969 168.279 148.71C168.279 148.489 168.255 148.273 168.207 148.062C168.169 147.841 168.083 147.639 167.948 147.457C167.823 147.275 167.66 147.14 167.459 147.054C167.257 146.958 167.046 146.91 166.825 146.91C166.623 146.91 166.427 146.948 166.235 147.025C166.043 147.092 165.879 147.203 165.745 147.356C165.611 147.5 165.515 147.673 165.457 147.875C165.399 148.067 165.371 148.263 165.371 148.465L165.371 148.523L164.075 148.523L164.075 148.422C164.075 148.182 164.099 147.947 164.147 147.716C164.204 147.476 164.291 147.251 164.406 147.039C164.521 146.819 164.665 146.627 164.838 146.463C165.011 146.291 165.203 146.151 165.414 146.046C165.635 145.94 165.865 145.868 166.105 145.83C166.345 145.782 166.585 145.758 166.825 145.758C167.084 145.758 167.339 145.782 167.588 145.83C167.838 145.878 168.073 145.964 168.294 146.089C168.515 146.214 168.711 146.377 168.884 146.579C169.057 146.771 169.196 146.982 169.302 147.212C169.407 147.443 169.479 147.687 169.518 147.947C169.556 148.196 169.575 148.451 169.575 148.71C169.575 149.046 169.527 149.377 169.431 149.703C169.345 150.03 169.206 150.332 169.014 150.611C168.831 150.889 168.615 151.143 168.366 151.374C168.116 151.595 167.857 151.811 167.588 152.022C167.329 152.233 167.075 152.454 166.825 152.684C166.575 152.915 166.355 153.169 166.163 153.447C165.971 153.716 165.812 154.009 165.687 154.326C165.572 154.643 165.491 154.969 165.443 155.305L169.518 155.305L169.518 156.457L164.103 156.457ZM174.011 156.572C173.751 156.572 173.492 156.548 173.233 156.5C172.974 156.452 172.729 156.366 172.499 156.241C172.278 156.107 172.076 155.943 171.894 155.751C171.721 155.55 171.582 155.334 171.476 155.103C171.371 154.863 171.294 154.614 171.246 154.355C171.207 154.095 171.188 153.836 171.188 153.577L171.188 148.753C171.188 148.494 171.207 148.235 171.246 147.975C171.294 147.716 171.371 147.471 171.476 147.241C171.582 147.001 171.721 146.785 171.894 146.593C172.076 146.391 172.278 146.228 172.499 146.103C172.729 145.969 172.974 145.878 173.233 145.83C173.492 145.782 173.751 145.758 174.011 145.758C174.27 145.758 174.529 145.782 174.788 145.83C175.047 145.878 175.287 145.969 175.508 146.103C175.739 146.228 175.94 146.391 176.113 146.593C176.295 146.785 176.439 147.001 176.545 147.241C176.651 147.471 176.723 147.716 176.761 147.975C176.809 148.235 176.833 148.494 176.833 148.753L176.833 153.577C176.833 153.836 176.809 154.095 176.761 154.355C176.723 154.614 176.651 154.863 176.545 155.103C176.439 155.334 176.295 155.55 176.113 155.751C175.94 155.943 175.739 156.107 175.508 156.241C175.287 156.366 175.047 156.452 174.788 156.5C174.529 156.548 174.27 156.572 174.011 156.572ZM172.484 151.734L175.537 149.3L175.537 148.753C175.537 148.523 175.513 148.297 175.465 148.076C175.417 147.846 175.326 147.639 175.191 147.457C175.057 147.275 174.884 147.14 174.673 147.054C174.462 146.958 174.241 146.91 174.011 146.91C173.78 146.91 173.559 146.958 173.348 147.054C173.137 147.14 172.964 147.275 172.83 147.457C172.695 147.639 172.604 147.846 172.556 148.076C172.508 148.297 172.484 148.523 172.484 148.753L172.484 151.734ZM174.011 155.42C174.241 155.42 174.462 155.377 174.673 155.291C174.884 155.195 175.057 155.055 175.191 154.873C175.326 154.691 175.417 154.489 175.465 154.268C175.513 154.038 175.537 153.807 175.537 153.577L175.537 150.596L172.484 153.03L172.484 153.577C172.484 153.807 172.508 154.038 172.556 154.268C172.604 154.489 172.695 154.691 172.83 154.873C172.964 155.055 173.137 155.195 173.348 155.291C173.559 155.377 173.78 155.42 174.011 155.42ZM181.211 156.572C180.971 156.572 180.731 156.553 180.491 156.515C180.26 156.486 180.035 156.423 179.814 156.327C179.593 156.231 179.391 156.107 179.209 155.953C179.027 155.79 178.873 155.607 178.748 155.406C178.633 155.204 178.542 154.988 178.475 154.758C178.417 154.518 178.388 154.278 178.388 154.038C178.388 153.74 178.436 153.447 178.532 153.159C178.628 152.862 178.763 152.588 178.935 152.339C179.108 152.079 179.305 151.844 179.526 151.633C179.747 151.412 179.977 151.211 180.217 151.028C179.996 150.846 179.79 150.654 179.598 150.452C179.406 150.241 179.233 150.02 179.079 149.79C178.935 149.55 178.82 149.295 178.734 149.027C178.647 148.748 178.604 148.47 178.604 148.191C178.604 147.961 178.633 147.74 178.691 147.529C178.748 147.308 178.83 147.102 178.935 146.91C179.041 146.708 179.175 146.531 179.339 146.377C179.511 146.223 179.699 146.103 179.9 146.017C180.102 145.921 180.313 145.854 180.534 145.815C180.764 145.777 180.99 145.758 181.211 145.758C181.431 145.758 181.652 145.777 181.873 145.815C182.103 145.854 182.319 145.921 182.521 146.017C182.723 146.103 182.905 146.223 183.068 146.377C183.241 146.531 183.38 146.708 183.486 146.91C183.591 147.102 183.673 147.308 183.731 147.529C183.788 147.74 183.817 147.961 183.817 148.191C183.817 148.47 183.774 148.748 183.687 149.027C183.601 149.295 183.481 149.55 183.327 149.79C183.183 150.02 183.015 150.241 182.823 150.452C182.631 150.654 182.425 150.846 182.204 151.028C182.444 151.211 182.675 151.412 182.895 151.633C183.116 151.844 183.313 152.079 183.486 152.339C183.659 152.588 183.793 152.862 183.889 153.159C183.985 153.447 184.033 153.74 184.033 154.038C184.033 154.278 183.999 154.518 183.932 154.758C183.875 154.988 183.783 155.204 183.659 155.406C183.543 155.607 183.395 155.79 183.212 155.953C183.03 156.107 182.828 156.231 182.607 156.327C182.387 156.423 182.156 156.486 181.916 156.515C181.686 156.553 181.451 156.572 181.211 156.572ZM181.211 150.279C181.374 150.155 181.532 150.02 181.686 149.876C181.849 149.723 181.988 149.559 182.103 149.387C182.228 149.214 182.329 149.027 182.406 148.825C182.483 148.623 182.521 148.417 182.521 148.206C182.521 148.033 182.492 147.865 182.435 147.702C182.377 147.529 182.286 147.38 182.161 147.255C182.036 147.131 181.887 147.044 181.715 146.996C181.551 146.939 181.383 146.91 181.211 146.91C181.038 146.91 180.865 146.939 180.692 146.996C180.529 147.044 180.385 147.131 180.26 147.255C180.135 147.38 180.044 147.529 179.987 147.702C179.929 147.865 179.9 148.033 179.9 148.206C179.9 148.417 179.939 148.623 180.015 148.825C180.092 149.027 180.188 149.214 180.303 149.387C180.428 149.559 180.567 149.723 180.721 149.876C180.884 150.02 181.047 150.155 181.211 150.279ZM181.211 155.42C181.403 155.42 181.595 155.396 181.787 155.348C181.979 155.291 182.147 155.199 182.291 155.075C182.444 154.94 182.555 154.782 182.622 154.599C182.699 154.407 182.737 154.215 182.737 154.023C182.737 153.783 182.689 153.553 182.593 153.332C182.507 153.111 182.391 152.91 182.247 152.727C182.103 152.535 181.94 152.363 181.758 152.209C181.585 152.055 181.403 151.911 181.211 151.777C181.019 151.911 180.831 152.055 180.649 152.209C180.476 152.363 180.318 152.535 180.174 152.727C180.03 152.91 179.91 153.111 179.814 153.332C179.727 153.553 179.684 153.783 179.684 154.023C179.684 154.215 179.718 154.407 179.785 154.599C179.862 154.782 179.972 154.94 180.116 155.075C180.27 155.199 180.443 155.291 180.635 155.348C180.827 155.396 181.019 155.42 181.211 155.42Z" fill="#FBFEFC"/>
<path d="M86.0811 184.297L200.081 184.297" stroke="#FBFEFC" stroke-width="1.2812"/>
<path d="M67.7627 33.1129L87.281 26.5352L96.581 26.5352L100.781 31.3351L107.381 26.5352L197.616 26.5351L219.226 33.0062" stroke="#FBFEFC" stroke-width="1.2"/>
<rect x="22.4795" y="177.734" width="45.6" height="3.6" fill="#FBFEFC"/>
<path d="M68.0605 177.757L80.8124 183.261L80.804 186.796L66.8858 181.181L68.0605 177.757Z" fill="#FBFEFC"/>
<path d="M218.921 177.964L205.555 183.451L205.538 186.917L220.409 181.361L218.921 177.964Z" fill="#FBFEFC"/>
<rect x="218.68" y="177.734" width="43.8" height="3.6" fill="#FBFEFC"/>
<rect x="80.4043" y="183.312" width="125.398" height="3.6" fill="#FBFEFC"/>
</svg>
