<svg width="265" height="256" viewBox="0 0 265 256" fill="none" xmlns="http://www.w3.org/2000/svg">
<g clip-path="url(#clip0_6317_8286)">
<path d="M88.3115 8.86125L108.061 12.2667L137.939 21.9148L171.297 31.1576L194.849 50.1626L175.087 100.468L70.1357 59.2644L79.2236 34.0628L83.7676 21.462L84.9036 18.3118L87.3145 17.4643L86.0395 15.1616L88.3115 8.86125Z" fill="black" stroke="#FBFEFC" stroke-width="2"/>
<path d="M194.407 50.3196L170.731 31.3633L185.751 55.8687L194.407 50.3196Z" fill="#FBFEFC"/>
<path d="M108.7 30.8369L104.514 31.4613L107.156 34.7713L111.336 34.1398L108.7 30.8369Z" fill="#FBFEFC"/>
<path d="M104.048 31.5285L99.8719 32.1615L102.504 35.4629L106.683 34.8354L104.048 31.5285Z" fill="#FBFEFC"/>
<path d="M111.628 34.5047L107.448 35.1361L110.083 38.439L114.262 37.8116L111.628 34.5047Z" fill="#FBFEFC"/>
<path d="M114.552 38.1776L110.373 38.805L113.009 42.1079L117.188 41.4805L114.552 38.1776Z" fill="#FBFEFC"/>
<path d="M99.4054 32.2307L95.2304 32.8597L97.8623 36.1611L102.041 35.5336L99.4054 32.2307Z" fill="#FBFEFC"/>
<path d="M89.932 45.7966L92.5678 49.0995L94.1124 45.1652L91.4766 41.8623L89.932 45.7966Z" fill="#FBFEFC"/>
<path d="M92.8588 49.4646L95.49 52.7793L97.0377 48.8371L94.4019 45.5342L92.8588 49.4646Z" fill="#FBFEFC"/>
<path d="M91.6483 41.4256L94.2841 44.7285L95.8272 40.7981L93.1929 37.4912L91.6483 41.4256Z" fill="#FBFEFC"/>
<path d="M93.3634 37.0555L95.9993 40.3584L97.547 36.4162L94.9111 33.1133L93.3634 37.0555Z" fill="#FBFEFC"/>
<path d="M95.7809 53.1454L98.4247 56.4514L99.9724 52.5091L97.3286 49.2031L95.7809 53.1454Z" fill="#FBFEFC"/>
<path d="M112.278 54.5697L108.087 55.1925L109.632 51.2582L113.823 50.6353L112.278 54.5697Z" fill="#FBFEFC"/>
<path d="M107.625 55.2626L103.445 55.9036L104.993 51.9613L109.168 51.3323L107.625 55.2626Z" fill="#FBFEFC"/>
<path d="M113.993 50.1986L109.803 50.8214L111.346 46.891L115.538 46.2643L113.993 50.1986Z" fill="#FBFEFC"/>
<path d="M115.709 45.8296L111.518 46.4524L113.066 42.5101L117.257 41.8873L115.709 45.8296Z" fill="#FBFEFC"/>
<path d="M102.979 55.9728L98.8043 56.6018L100.352 52.6595L104.527 52.0305L102.979 55.9728Z" fill="#FBFEFC"/>
<path d="M100.29 52.2595L104.471 51.6281L101.835 48.3252L97.6479 48.9496L100.29 52.2595Z" fill="#FBFEFC"/>
<path d="M104.934 51.5581L109.113 50.9307L106.477 47.6278L102.298 48.2552L104.934 51.5581Z" fill="#FBFEFC"/>
<path d="M97.3535 48.5839L101.532 47.9564L98.8966 44.6535L94.7216 45.2826L97.3535 48.5839Z" fill="#FBFEFC"/>
<path d="M112.69 42.3609L110.058 39.0596L108.51 43.0018L111.142 46.3032L112.69 42.3609Z" fill="#FBFEFC"/>
<path d="M109.764 38.694L107.133 35.3887L105.589 39.323L108.216 42.6362L109.764 38.694Z" fill="#FBFEFC"/>
<path d="M110.97 46.7438L108.339 43.4385L106.795 47.3728L109.427 50.6742L110.97 46.7438Z" fill="#FBFEFC"/>
<path d="M97.9233 36.5648L102.102 35.9373L100.554 39.8796L96.3756 40.5071L97.9233 36.5648Z" fill="#FBFEFC"/>
<path d="M102.564 35.8676L106.753 35.2393L105.208 39.1736L101.017 39.8099L102.564 35.8676Z" fill="#FBFEFC"/>
<path d="M96.203 40.9457L100.383 40.3143L98.8388 44.2486L94.66 44.8761L96.203 40.9457Z" fill="#FBFEFC"/>
<path d="M106.414 47.2236L107.959 43.2893L103.783 43.9223L102.24 47.8527L106.414 47.2236Z" fill="#FBFEFC"/>
<path d="M99.2152 44.3972L101.851 47.7001L103.394 43.7698L100.76 40.4629L99.2152 44.3972Z" fill="#FBFEFC"/>
<path d="M105.269 39.5762L101.078 40.2124L103.722 43.5184L107.9 42.891L105.269 39.5762Z" fill="#FBFEFC"/>
<path d="M127.423 61.9652L127.609 59.3723L122.835 57.4979L121.167 59.5091L117.173 57.9412L128.913 44.6478L131.853 45.802L131.409 63.5301L127.423 61.9652ZM128.172 51.1475L125.154 54.7363L127.856 55.7972L128.172 51.1475Z" fill="#FBFEFC"/>
<path d="M140.949 65.6937C139.554 66.2569 137.997 66.2645 136.597 65.7148C135.196 65.1651 134.06 64.1 133.421 62.7383C132.861 61.2883 132.989 60.0536 133.896 57.7437C134.803 55.4338 135.543 54.4442 136.946 53.7602C138.341 53.197 139.898 53.1894 141.298 53.7391C142.698 54.2888 143.835 55.3539 144.474 56.7156C145.034 58.1656 144.894 59.4186 143.995 61.7086C143.096 63.9987 142.348 65.0081 140.949 65.6937ZM140.86 57.6612C140.667 57.3434 140.375 57.0978 140.028 56.9618C139.682 56.8259 139.301 56.8071 138.943 56.9083C138.304 57.1835 137.916 57.9867 137.462 59.1437C137.007 60.3006 136.751 61.1511 137.026 61.7896C137.22 62.1074 137.512 62.353 137.858 62.489C138.205 62.6249 138.586 62.6437 138.944 62.5425C139.583 62.2673 139.971 61.4641 140.425 60.3072C140.879 59.1502 141.137 58.2957 140.856 57.6596L140.86 57.6612Z" fill="#FBFEFC"/>
<path d="M151.698 65.0934L149.368 64.1788L147.191 69.7257L143.379 68.2293L149.469 52.7178L155.614 55.1303C159.049 56.4789 159.947 59.6436 158.945 62.1951C157.943 64.7467 155.137 66.4435 151.698 65.0934ZM154.098 58.4677L151.943 57.6215L150.706 60.7714L152.861 61.6176C153.073 61.7378 153.309 61.8111 153.552 61.8324C153.795 61.8537 154.04 61.8226 154.269 61.7412C154.499 61.6597 154.709 61.5298 154.884 61.3603C155.06 61.1908 155.197 60.9856 155.286 60.7585C155.375 60.5315 155.414 60.288 155.401 60.0445C155.388 59.801 155.322 59.5631 155.209 59.347C155.096 59.1309 154.938 58.9416 154.746 58.792C154.553 58.6423 154.331 58.5358 154.093 58.4796L154.098 58.4677Z" fill="#FBFEFC"/>
<path d="M161.124 75.3483C158.747 74.415 156.981 73.2185 156.045 70.99L159.444 69.5075C159.925 70.611 161.239 71.4697 162.479 71.9566C163.98 72.5461 164.897 72.33 165.249 71.4345C165.4 71.1094 165.419 70.7387 165.303 70.3995C165.108 70.0468 164.804 69.767 164.437 69.602L162.665 68.6048C161.372 67.8685 160.505 67.0022 160.089 66.0113C159.673 65.0204 159.725 63.806 160.246 62.4787C161.358 59.6458 164.306 58.416 167.836 59.8019C170.059 60.6745 171.529 61.8555 172.339 63.7054L169.029 65.1494C168.434 63.7866 167.122 63.3444 166.448 63.08C165.121 62.5589 164.276 63.105 164.01 63.7825C163.907 64.0536 163.915 64.3545 164.033 64.6194C164.221 65.0044 164.536 65.3134 164.924 65.495L166.695 66.4923C168.012 67.2379 168.824 68.0595 169.242 68.9737C169.759 70.0912 169.629 71.3891 169.065 72.8273C167.788 75.9846 164.393 76.6315 161.124 75.3483Z" fill="#FBFEFC"/>
<path d="M125.293 75.0237L71.1424 59.287L143.521 87.4832L125.293 75.0237Z" fill="#FBFEFC"/>
</g>
<path d="M188.167 65.0171L202.403 75.5075L213.402 91.6279L227.402 108.316L236.98 117.988L239.374 120.406L238.332 124.752L241.769 122.825L246.558 127.661L262.155 150.095L248.836 161.679L223.225 190.978L196.144 159.838L170.95 130.869L158.354 116.384L155.204 112.763L154.392 108.969L152.055 109.141L145.757 101.899L188.167 65.0171Z" fill="black" stroke="#FBFEFC" stroke-width="2"/>
<path d="M190.112 72.1387L188.244 65.8047L202.327 76.0281L190.112 72.1387Z" fill="#FBFEFC"/>
<path d="M181.126 98.6084L182.646 100.284L174.349 107.755L172.829 106.08L181.126 98.6084Z" fill="#FBFEFC"/>
<path d="M189.819 98.4502L191.41 100.182L178.12 112.075L176.555 110.372L189.819 98.4502Z" fill="#FBFEFC"/>
<path d="M193.614 102.813L195.205 104.545L181.915 116.438L180.35 114.735L193.614 102.813Z" fill="#FBFEFC"/>
<path d="M190.382 126.192L188.967 124.58L190.231 123.425L190.207 123.397C188.979 123.782 187.414 123.243 186.264 121.932C184.801 120.266 184.478 117.951 186.69 115.929L192.007 111.065L193.446 112.704L188.576 117.158C187.022 118.579 187.258 120.037 188.145 121.048C189.344 122.414 191.073 122.654 192.969 120.921L197.207 117.045L198.645 118.684L190.406 126.219L190.382 126.192Z" fill="#FBFEFC"/>
<path d="M200.242 120.592L201.571 122.113L200.286 123.296L200.31 123.323C200.95 123.027 202.849 123.142 204.178 124.664C205.27 125.913 205.505 127.265 204.983 128.726C206.478 128.379 207.975 129.01 208.854 130.015C211.132 132.623 209.868 134.914 208.032 136.604L203.259 140.998L201.859 139.395L206.422 135.195C207.681 134.036 208.572 132.726 207.195 131.15C205.818 129.574 204.273 129.918 202.805 131.27L198.32 135.399L196.896 133.769L201.197 129.809C202.744 128.385 203.659 127.102 202.306 125.554C201.285 124.386 199.544 124.126 197.682 125.84L193.407 129.775L192.03 128.2L200.242 120.592Z" fill="#FBFEFC"/>
<path d="M213.287 135.592L214.83 137.294L206.534 144.767L204.99 143.064L213.287 135.592Z" fill="#FBFEFC"/>
<path d="M216.699 139.513L218.113 141.125L216.85 142.28L216.874 142.308C218.102 141.923 219.667 142.462 220.817 143.773C222.28 145.439 222.603 147.754 220.391 149.776L215.074 154.639L213.635 153L218.505 148.546C220.059 147.126 219.823 145.667 218.936 144.657C217.737 143.291 216.008 143.051 214.112 144.784L209.874 148.66L208.435 147.021L216.675 139.486L216.699 139.513Z" fill="#FBFEFC"/>
<path d="M225.579 158.472L225.052 158.953C223.946 159.964 222.104 160.515 220.521 158.711C219.537 157.591 219.308 156.519 220.256 155.653C221.572 154.449 223.491 156.094 224.835 157.625L225.579 158.472ZM223.91 151.868C224.886 152.06 225.914 152.204 226.994 153.434C228.218 154.828 227.898 156.302 227.056 157.072L226.714 157.385L225.658 156.183C223.378 153.586 220.793 152.156 218.687 154.082C217.081 155.55 217.412 157.711 218.803 159.296C219.955 160.608 221.19 161.203 222.917 160.954L222.941 160.982C222.52 161.367 222.123 161.779 221.725 162.192L222.997 163.64C223.397 163.177 223.847 162.716 224.426 162.186L228.639 158.335C230.061 157.035 230.465 154.793 228.234 152.251C227.178 151.048 225.655 150.125 224.047 149.969L223.91 151.868Z" fill="#FBFEFC"/>
<path d="M185.956 95.9627C185.431 95.3629 184.527 95.3057 183.948 95.8358C183.37 96.3658 183.326 97.2903 183.852 97.8901C184.378 98.49 185.281 98.5472 185.86 98.0171C186.438 97.4871 186.482 96.5626 185.956 95.9627Z" fill="#FBFEFC"/>
<g clip-path="url(#clip1_6317_8286)">
<path d="M113.725 104.941L131.771 115.623L158.36 128.456L177.4 140.457L191.18 144.834L212.572 159.179L207.719 168.064L203.318 169.454L205.498 171.798L199.054 183.816L185.536 208.453L86.6882 154.215L93.4474 141.896L96.827 135.737L98.5168 132.658L101.191 131.356L100.207 129.578L113.725 104.941Z" fill="black" stroke="#FBFEFC" stroke-width="2"/>
<path d="M164.084 191.826L130.204 177.564L185.711 207.967L164.084 191.826Z" fill="#FBFEFC"/>
<path d="M141.117 149.101C140.942 147.399 139.936 145.901 138.433 145.101C135.863 143.69 132.901 144.701 131.377 147.478C129.853 150.256 130.592 153.296 133.162 154.707C134.632 155.535 136.42 155.578 137.934 154.822L138.544 156.547C136.546 157.551 134.182 157.477 132.26 156.352C128.544 154.313 127.48 150.197 129.52 146.479C131.245 142.995 135.455 141.561 138.924 143.276C139.056 143.344 139.189 143.414 139.318 143.488C141.318 144.521 142.669 146.491 142.912 148.738L141.117 149.101Z" fill="#FBFEFC"/>
<path d="M140.563 155.043C141.927 152.548 145.047 151.625 147.531 152.983C150.014 154.341 150.923 157.465 149.559 159.96C148.194 162.457 145.075 163.378 142.59 162.022L142.575 162.014C140.132 160.769 139.164 157.772 140.413 155.317C140.459 155.224 140.51 155.132 140.563 155.043ZM147.756 158.971C148.699 157.539 148.307 155.615 146.88 154.678C145.456 153.739 143.537 154.14 142.593 155.574C142.504 155.711 142.424 155.856 142.356 156.007C141.415 157.44 141.806 159.364 143.233 160.301C144.658 161.24 146.576 160.839 147.517 159.406C147.61 159.268 147.69 159.123 147.756 158.971Z" fill="#FBFEFC"/>
<path d="M156.846 169.502L155.995 157.157L155.929 157.121L150.92 166.25L149.168 165.289L155.937 152.952L157.851 154.003L158.67 166.33L158.736 166.366L163.745 157.237L165.495 158.197L158.726 170.534L156.846 169.502Z" fill="#FBFEFC"/>
<path d="M162.876 167.288C164.239 164.791 167.359 163.868 169.842 165.226C172.326 166.584 173.235 169.708 171.871 172.203C170.508 174.701 167.389 175.623 164.904 174.267L164.887 174.257C162.444 173.013 161.476 170.015 162.727 167.561C162.772 167.468 162.823 167.376 162.876 167.288ZM170.071 171.216C171.012 169.783 170.621 167.86 169.196 166.923C167.769 165.984 165.85 166.384 164.909 167.819C164.819 167.956 164.739 168.101 164.671 168.253C163.73 169.685 164.121 171.609 165.547 172.545C166.973 173.485 168.892 173.084 169.833 171.651C169.923 171.512 170.003 171.367 170.071 171.216Z" fill="#FBFEFC"/>
<path d="M175.372 170.633L174.473 170.139L175.324 168.589L176.223 169.082L177.43 166.883L179.199 167.854L177.989 170.058L180.281 171.316L179.432 172.863L177.14 171.605L174.189 176.985L176.235 178.108L175.378 179.67L171.56 177.575L175.371 170.63L175.372 170.633Z" fill="#FBFEFC"/>
<path d="M180.831 183.007C178.383 181.769 177.404 178.771 178.65 176.309C178.699 176.215 178.749 176.12 178.804 176.028C180.033 173.579 183.007 172.585 185.444 173.81C185.547 173.859 185.647 173.913 185.744 173.974C188.216 175.33 188.856 178.163 187.429 180.763C187.313 180.979 187.178 181.184 187.029 181.377L180.3 177.685C179.715 179.117 180.339 180.751 181.723 181.422C182.642 181.981 183.78 182.043 184.759 181.59L185.209 183.227C183.799 183.88 182.162 183.798 180.831 183.007ZM181.004 176.401L186.033 179.161C186.695 177.825 186.173 176.207 184.859 175.519C183.547 174.757 181.865 175.141 181.006 176.402L181.004 176.401Z" fill="#FBFEFC"/>
<path d="M121.33 149.44C121.35 149.422 121.37 149.404 121.389 149.382C121.409 149.364 121.427 149.349 121.446 149.328C121.476 149.29 121.505 149.252 121.527 149.208L125.048 142.79C125.073 142.749 125.09 142.705 125.105 142.659L125.108 142.653C125.119 142.611 125.13 142.565 125.134 142.521C125.136 142.504 125.136 142.49 125.138 142.479C125.142 142.444 125.142 142.408 125.142 142.373C125.141 142.357 125.141 142.343 125.138 142.331C125.135 142.283 125.126 142.237 125.113 142.188L122.256 132.307C122.243 132.26 122.223 132.215 122.203 132.172C122.195 132.158 122.186 132.148 122.183 132.137C122.166 132.105 122.145 132.077 122.124 132.048C122.115 132.036 122.106 132.026 122.098 132.014C122.068 131.98 122.035 131.946 122.002 131.917C121.965 131.885 121.926 131.859 121.885 131.836L115.493 128.329C115.45 128.305 115.406 128.286 115.361 128.274C115.336 128.262 115.309 128.257 115.284 128.254C115.259 128.247 115.233 128.24 115.207 128.238C115.175 128.233 115.145 128.236 115.115 128.236C115.094 128.235 115.072 128.235 115.048 128.237C114.943 128.245 114.838 128.276 114.742 128.326C114.724 128.336 114.706 128.351 114.687 128.36C114.666 128.37 114.635 128.392 114.609 128.412C114.59 128.429 114.571 128.45 114.553 128.47C114.532 128.485 114.514 128.505 114.496 128.524C114.466 128.562 114.437 128.6 114.414 128.642L107.387 141.449C107.364 141.491 107.344 141.536 107.329 141.582C107.322 141.607 107.317 141.634 107.313 141.659C107.31 141.684 107.3 141.71 107.297 141.738C107.294 141.766 107.296 141.801 107.295 141.83C107.295 141.862 107.292 141.873 107.294 141.896C107.304 142.002 107.335 142.107 107.383 142.202C107.394 142.223 107.409 142.241 107.42 142.259C107.435 142.287 107.453 142.312 107.472 142.334C107.492 142.357 107.513 142.376 107.533 142.397C107.548 142.415 107.566 142.432 107.584 142.447C107.624 142.482 107.668 142.513 107.714 142.538L120.433 149.517C120.48 149.543 120.53 149.563 120.58 149.578C120.603 149.591 120.628 149.59 120.652 149.595C120.676 149.601 120.706 149.608 120.736 149.612C120.765 149.616 120.794 149.612 120.828 149.614C120.851 149.616 120.873 149.616 120.896 149.614C121.003 149.604 121.108 149.573 121.201 149.524C121.221 149.513 121.238 149.5 121.26 149.488C121.285 149.474 121.308 149.458 121.33 149.44ZM114.883 131.157L116.968 138.375L109.759 140.495L114.883 131.157ZM121.242 134.646L123.008 140.761L119.072 138.601L121.242 134.646ZM118.206 136.815L116.438 130.699L120.375 132.858L118.205 136.813L118.206 136.815ZM117.416 139.935L119.5 147.154L110.207 142.055L117.416 139.935ZM119.293 140.58L123.229 142.74L121.059 146.695L119.293 140.58Z" fill="#FBFEFC"/>
</g>
<path d="M216.9 198.358L196.471 193.624L159.235 182.448L154.313 183.778L150.462 180.436L128.782 176.999L108.515 171.428L106.235 181.37L103 189.246L98.3393 201.032L95.3553 222.581L205.853 251.617L208.018 239.494L206.349 236.033L208.767 233.818L215.309 210.387L216.9 198.358Z" fill="black" stroke="#FBFEFC" stroke-width="2"/>
<path d="M111.14 181.956L101.793 193.894L109.183 171.63L111.14 181.956Z" fill="#FBFEFC"/>
<g clip-path="url(#clip2_6317_8286)">
<path d="M133.626 221.924C133.553 221.887 133.483 221.837 133.406 221.814C132.27 221.472 131.198 220.985 130.173 220.393C128.467 219.408 126.979 218.158 125.7 216.665C123.528 214.13 122.101 211.228 121.445 207.955C121.122 206.341 121.041 204.714 121.208 203.076C121.305 202.127 121.52 201.201 121.799 200.291C122.575 197.757 123.846 195.498 125.654 193.561C128.94 190.04 132.998 188.141 137.827 187.917C138.864 187.868 139.896 187.935 140.923 188.09C141.715 188.21 142.501 188.361 143.268 188.59C145.52 189.263 147.58 190.308 149.398 191.804C152.307 194.199 154.254 197.218 155.231 200.853C155.749 202.782 155.913 204.743 155.735 206.732C155.675 207.406 155.592 208.077 155.436 208.736C155.306 209.284 155.195 209.838 155.027 210.374C154.405 212.365 153.475 214.203 152.187 215.849C149.751 218.965 146.619 221.041 142.79 222.057C140.979 222.537 139.134 222.696 137.264 222.556C136.397 222.491 135.539 222.368 134.693 222.163C134.591 222.138 134.483 222.138 134.377 222.126L133.626 221.925L133.626 221.924ZM128.587 197.43C128.836 197.593 129.101 197.934 129.26 198.289C129.549 198.933 129.561 199.59 129.319 200.245C129.235 200.471 129.28 200.633 129.43 200.804C129.769 201.19 130.157 201.519 130.58 201.808C131.187 202.224 131.83 202.563 132.55 202.745C132.664 202.774 132.752 202.773 132.837 202.678C133.154 202.323 133.359 201.912 133.446 201.447C133.492 201.205 133.509 200.957 133.541 200.691C133.737 200.864 133.898 201.047 134.019 201.258C134.139 201.468 134.251 201.687 134.334 201.914C134.416 202.139 134.456 202.378 134.517 202.622C134.567 202.609 134.609 202.609 134.636 202.59C134.821 202.457 135.021 202.338 135.181 202.18C135.693 201.674 135.886 201.017 135.989 200.332C136.077 199.752 136.075 199.166 136.02 198.581C136.015 198.525 136.021 198.469 136.022 198.395C136.078 198.428 136.114 198.443 136.143 198.466C136.589 198.819 136.975 199.227 137.277 199.71C138.022 200.902 138.274 202.215 138.223 203.598C138.216 203.806 138.273 203.925 138.452 204.038C139.14 204.472 139.642 205.073 139.989 205.809C140.069 205.979 140.058 206.113 139.961 206.272C139.54 206.965 139.048 207.601 138.48 208.178C136.875 209.807 134.946 210.799 132.671 211.101C131.891 211.205 131.107 211.222 130.324 211.146C130.14 211.128 129.993 211.155 129.899 211.328C129.884 211.354 129.861 211.375 129.843 211.4C129.031 212.504 128.43 213.702 128.191 215.066C128.088 215.654 128.064 216.243 128.11 216.837C128.12 216.976 128.173 217.08 128.283 217.167C128.475 217.318 128.654 217.483 128.846 217.634C129.707 218.309 130.655 218.843 131.632 219.328C131.766 219.394 131.901 219.457 132.089 219.547C132.117 218.599 132.186 217.701 132.422 216.826C132.66 215.945 133.002 215.107 133.422 214.283C133.438 214.317 133.451 214.33 133.45 214.342C133.378 215.001 133.375 215.662 133.411 216.323C133.48 217.623 133.72 218.889 134.191 220.108C134.248 220.256 134.33 220.34 134.489 220.382C135.057 220.53 135.626 220.666 136.209 220.749C137.048 220.869 137.89 220.922 138.736 220.899C138.808 220.897 138.88 220.887 138.98 220.878C138.945 220.753 138.921 220.66 138.892 220.567C138.367 218.866 138.014 217.133 137.936 215.351C137.898 214.495 137.924 213.642 138.048 212.791C138.075 212.847 138.088 212.905 138.102 212.963C138.522 214.692 139.083 216.372 139.871 217.971C140.301 218.842 140.802 219.667 141.418 220.421C141.524 220.55 141.626 220.586 141.791 220.547C143.304 220.183 144.739 219.617 146.116 218.898C146.181 218.865 146.238 218.819 146.293 218.782C146.28 218.743 146.279 218.726 146.27 218.715C146.235 218.675 146.199 218.635 146.161 218.599C144.913 217.396 143.911 216.015 143.161 214.454C142.688 213.468 142.332 212.442 142.128 211.365C142.119 211.314 142.12 211.261 142.116 211.209C142.301 211.467 142.446 211.735 142.608 211.992C143.547 213.482 144.722 214.762 146.1 215.858C146.667 216.309 147.264 216.718 147.886 217.09C148.122 217.232 148.124 217.232 148.312 217.014C148.407 216.904 148.501 216.794 148.591 216.681C149.501 215.53 150.271 214.298 150.797 212.92C151.049 212.263 151.229 211.591 151.32 210.894C151.327 210.839 151.309 210.78 151.302 210.724C149.036 210.635 146.928 210.072 144.955 208.927C145.551 209.012 146.112 209.103 146.676 209.168C147.756 209.292 148.834 209.276 149.907 209.087C150.548 208.975 151.176 208.821 151.75 208.5C152.225 208.234 152.621 207.891 152.862 207.39C152.943 207.223 152.945 207.094 152.809 206.939C152.439 206.513 152.091 206.069 151.735 205.632C151.674 205.557 151.621 205.477 151.55 205.378C151.603 205.389 151.627 205.389 151.646 205.398C152.166 205.651 152.686 205.905 153.205 206.16C153.464 206.288 153.497 206.283 153.696 206.074C153.827 205.936 153.836 205.924 153.741 205.758C153.531 205.395 153.327 205.028 153.095 204.68C152.088 203.161 150.838 201.866 149.4 200.75C147.803 199.511 146.048 198.56 144.129 197.929C143.4 197.689 142.642 197.53 141.892 197.359C141.096 197.177 140.283 197.115 139.469 197.073C139.266 197.063 139.064 197.051 138.845 197.039C138.879 196.974 138.896 196.932 138.921 196.895C139.638 195.823 140.811 195.256 142.208 195.489C142.54 195.544 142.536 195.552 142.714 195.272C143.792 193.584 145.61 192.687 147.743 193.04C147.911 193.068 148.079 193.089 148.247 193.113C148.255 193.098 148.262 193.083 148.269 193.069C148.224 193.023 148.183 192.974 148.134 192.934C146.665 191.744 145.001 190.921 143.212 190.339C142.829 190.214 142.436 190.114 142.043 190.024C141.591 189.92 141.135 189.83 140.677 189.75C139.744 189.585 138.802 189.539 137.856 189.568C136.685 189.603 135.536 189.78 134.411 190.105C134.33 190.128 134.226 190.122 134.185 190.209C134.691 190.588 135.201 190.946 135.684 191.337C136.174 191.732 136.601 192.192 136.962 192.711C136.925 192.712 136.897 192.701 136.873 192.687C136.331 192.37 135.756 192.128 135.163 191.93C134.561 191.728 133.939 191.613 133.306 191.567C132.036 191.475 130.834 191.717 129.708 192.316C128.816 192.791 128.087 193.473 127.36 194.157C127.33 194.186 127.314 194.228 127.274 194.29C127.755 194.298 128.209 194.288 128.66 194.315C129.115 194.343 129.572 194.385 130.021 194.462C130.479 194.54 130.934 194.646 131.378 194.78C131.815 194.911 132.237 195.09 132.664 195.253C133.106 195.422 133.709 195.743 133.831 195.858C133.329 195.771 132.806 195.666 132.279 195.591C131.269 195.447 130.259 195.459 129.252 195.62C127.483 195.903 125.946 196.652 124.663 197.905C124.562 198.004 124.469 198.122 124.406 198.248C124.094 198.866 123.828 199.502 123.599 200.156C123.344 200.884 123.157 201.627 123.019 202.384C123.01 202.43 123.025 202.481 123.032 202.555C123.426 202.305 123.789 202.056 124.171 201.84C124.555 201.623 124.95 201.421 125.354 201.245C125.759 201.068 126.175 200.916 126.596 200.781C127.012 200.648 127.439 200.549 127.927 200.418C127.849 200.323 127.789 200.262 127.745 200.192C127.472 199.752 127.412 199.275 127.57 198.789C127.736 198.279 128.059 197.864 128.461 197.513C128.5 197.479 128.548 197.456 128.587 197.431L128.587 197.43ZM132.924 205.095C133.024 204.727 132.938 204.397 132.681 204.117C132.368 203.775 131.976 203.679 131.54 203.83C131.191 203.95 130.956 204.189 130.872 204.555C131.061 204.673 132.711 205.109 132.924 205.096L132.924 205.095ZM145.455 195.458L145.455 195.459C145.697 195.524 145.938 195.592 146.181 195.653C146.365 195.699 146.391 195.676 146.407 195.486C146.441 195.047 146.137 194.622 145.71 194.512C145.277 194.4 144.785 194.636 144.609 195.038C144.553 195.166 144.57 195.217 144.707 195.257C144.955 195.329 145.205 195.392 145.455 195.458Z" fill="white"/>
<path d="M160.073 209.99C160.423 208.682 160.773 207.373 161.123 206.065C161.209 205.742 161.222 205.735 161.549 205.822C162.543 206.087 163.539 206.348 164.532 206.622C165.339 206.844 166.102 207.162 166.747 207.715C167.882 208.688 168.359 209.918 168.176 211.397C168.077 212.201 167.83 212.956 167.365 213.626C166.648 214.658 165.643 215.207 164.401 215.346C163.734 215.42 163.076 215.354 162.431 215.187C161.353 214.908 160.279 214.614 159.203 214.326C159.159 214.314 159.115 214.301 159.071 214.29C158.978 214.265 158.952 214.203 158.973 214.116C158.99 214.042 159.009 213.968 159.028 213.894C159.377 212.593 159.725 211.292 160.073 209.99L160.073 209.99ZM162.285 210.584L162.285 210.585C162.095 211.297 161.903 212.009 161.714 212.722C161.657 212.938 161.675 212.973 161.892 213.029C162.312 213.138 162.73 213.259 163.156 213.335C163.853 213.458 164.474 213.268 164.982 212.776C165.459 212.315 165.692 211.733 165.783 211.08C165.974 209.719 165.132 208.855 164.139 208.555C163.818 208.458 163.493 208.377 163.169 208.29C162.929 208.227 162.919 208.234 162.851 208.47C162.84 208.506 162.831 208.543 162.821 208.579C162.642 209.248 162.463 209.916 162.285 210.584Z" fill="white"/>
<path d="M184.937 214.397C184.889 215.16 184.697 215.8 183.986 216.151C183.812 216.237 183.73 216.356 183.678 216.54C183.469 217.277 182.974 217.729 182.235 217.918C181.8 218.029 181.363 218.013 180.921 217.946C180.495 217.881 180.09 217.758 179.701 217.576C179.597 217.527 179.527 217.559 179.468 217.646C179.382 217.773 179.39 217.936 179.515 218.038C179.6 218.108 179.707 218.163 179.814 218.193C180.445 218.37 181.081 218.531 181.712 218.712C181.966 218.785 182.219 218.879 182.457 218.995C183.116 219.318 183.614 219.987 183.343 220.976C183.134 221.739 182.646 222.223 181.883 222.43C181.336 222.578 180.78 222.568 180.229 222.474C179.817 222.404 179.406 222.313 179.005 222.193C178.451 222.027 177.904 221.834 177.423 221.498C177.28 221.398 177.143 221.286 177.02 221.163C176.373 220.517 176.595 219.463 177.457 219.09C177.553 219.049 177.65 219.012 177.774 218.962C177.514 218.54 177.41 218.113 177.582 217.646C177.754 217.176 178.107 216.916 178.596 216.774C178.555 216.687 178.53 216.618 178.493 216.557C177.889 215.565 178.361 213.795 179.914 213.529C180.31 213.461 180.706 213.459 181.095 213.533C181.719 213.652 182.321 213.837 182.854 214.206C183.196 214.443 183.576 214.594 183.996 214.632C184.239 214.653 184.466 214.604 184.686 214.509C184.76 214.477 184.833 214.443 184.937 214.397ZM180.005 220.059L180.006 220.056C179.69 219.972 179.373 219.888 179.057 219.803C178.837 219.743 178.708 219.824 178.676 220.05C178.655 220.201 178.689 220.344 178.811 220.442C178.916 220.527 179.031 220.606 179.154 220.662C179.615 220.87 180.104 220.986 180.605 221.043C180.767 221.061 180.94 221.039 181.099 221.001C181.24 220.967 181.327 220.851 181.337 220.699C181.347 220.552 181.269 220.452 181.144 220.391C181.069 220.354 180.99 220.325 180.91 220.303C180.609 220.22 180.307 220.14 180.005 220.059ZM180.842 216.484C180.863 216.489 180.907 216.502 180.952 216.508C181.336 216.563 181.668 216.365 181.803 216.004C181.918 215.692 181.798 215.336 181.509 215.141C181.298 214.998 181.065 214.941 180.814 214.979C180.516 215.024 180.31 215.187 180.218 215.477C180.072 215.938 180.318 216.346 180.842 216.484Z" fill="white"/>
<path d="M162.398 201.224C162.472 201.327 162.516 201.386 162.557 201.448C163.07 202.206 163.747 202.769 164.594 203.116C164.88 203.233 165.181 203.335 165.502 203.32C165.809 203.306 165.995 203.165 166.083 202.894C166.153 202.68 166.121 202.486 165.963 202.324C165.874 202.232 165.776 202.145 165.672 202.069C165.225 201.739 164.775 201.413 164.324 201.088C163.916 200.794 163.57 200.445 163.358 199.982C163.056 199.323 163.062 198.655 163.336 197.991C163.757 196.973 164.568 196.484 165.626 196.351C166.114 196.289 166.595 196.335 167.074 196.456C167.647 196.6 168.202 196.789 168.682 197.138C168.952 197.334 169.191 197.571 169.442 197.791C169.524 197.863 169.545 197.948 169.515 198.058C169.338 198.704 169.167 199.351 168.993 199.998C168.988 200.017 168.971 200.033 168.951 200.066C168.91 200.019 168.875 199.983 168.844 199.943C168.333 199.293 167.684 198.829 166.915 198.531C166.713 198.452 166.5 198.433 166.286 198.469C165.882 198.539 165.758 198.992 165.969 199.262C166.039 199.35 166.123 199.431 166.213 199.499C166.662 199.84 167.121 200.167 167.562 200.517C167.782 200.691 167.992 200.885 168.167 201.102C168.633 201.677 168.754 202.342 168.602 203.058C168.517 203.462 168.39 203.85 168.158 204.199C167.669 204.935 166.966 205.305 166.102 205.401C165.614 205.455 165.133 205.403 164.651 205.305C163.968 205.166 163.345 204.901 162.781 204.497C162.438 204.251 162.143 203.954 161.908 203.602C161.853 203.519 161.803 203.439 161.834 203.328C162.02 202.645 162.201 201.962 162.399 201.223L162.398 201.224Z" fill="white"/>
<path d="M163.968 224.242L163.444 226.198C163.262 226.201 156.31 224.36 155.937 224.21C156.013 224.134 156.079 224.066 156.148 224C157.882 222.335 159.617 220.669 161.351 219.003C161.421 218.936 161.483 218.864 161.581 218.759C161.459 218.72 161.377 218.691 161.294 218.668C160.292 218.4 159.29 218.132 158.288 217.864C158.089 217.811 158.016 217.681 158.071 217.476C158.19 217.027 158.31 216.579 158.43 216.13C158.519 215.803 158.531 215.795 158.852 215.881C159.846 216.146 160.841 216.413 161.835 216.679C163.036 217 164.237 217.321 165.438 217.642L165.72 217.718C164.758 218.654 163.832 219.553 162.908 220.453C161.984 221.352 161.055 222.248 160.095 223.191C160.391 223.297 160.642 223.349 160.888 223.417C161.145 223.489 161.403 223.556 161.661 223.625L163.186 224.033C163.436 224.099 163.685 224.166 163.967 224.242L163.968 224.242Z" fill="white"/>
<path d="M168.601 220.93C169.581 221.198 170.284 221.602 170.802 222.283C171.317 222.959 171.49 223.725 171.383 224.564C171.318 225.077 171.16 225.555 170.901 226.001C170.502 226.69 169.918 227.152 169.158 227.389C167.768 227.822 166.041 227.323 165.107 226.207C164.477 225.454 164.276 224.581 164.454 223.622C164.539 223.163 164.671 222.719 164.92 222.319C165.514 221.367 166.391 220.897 167.5 220.833C167.928 220.808 168.351 220.855 168.601 220.93L168.601 220.93ZM166.757 223.838C166.701 224.085 166.68 224.325 166.732 224.568C166.828 225.027 167.1 225.319 167.558 225.445C168.024 225.573 168.42 225.467 168.733 225.103C169.012 224.779 169.131 224.394 169.11 223.965C169.09 223.553 168.883 223.092 168.247 222.916C167.685 222.76 167.249 222.977 166.991 223.375C166.898 223.519 166.834 223.683 166.757 223.838L166.757 223.838Z" fill="white"/>
<path d="M191.148 219.608C191.034 220.083 190.828 220.512 190.526 220.893C189.932 221.643 189.138 222.014 188.194 222.065C187.293 222.114 186.453 221.895 185.706 221.385C184.63 220.651 184.141 219.635 184.294 218.33C184.355 217.81 184.514 217.322 184.78 216.871C185.19 216.177 185.789 215.724 186.559 215.495C187.919 215.091 189.634 215.594 190.557 216.672C191.115 217.324 191.348 218.084 191.265 218.936C191.243 219.162 191.188 219.384 191.149 219.608L191.148 219.608ZM188.939 219.031C188.951 218.833 188.984 218.644 188.971 218.457C188.934 217.915 188.609 217.582 188.123 217.447C187.596 217.301 187.152 217.474 186.86 217.897C186.641 218.214 186.551 218.571 186.579 218.955C186.615 219.449 186.917 219.828 187.374 219.96C187.915 220.116 188.363 219.982 188.666 219.551C188.777 219.393 188.849 219.206 188.939 219.031Z" fill="white"/>
<path d="M171.69 225.176C171.926 224.281 172.414 223.575 173.24 223.127C173.832 222.806 174.475 222.697 175.141 222.754C175.978 222.825 176.751 223.089 177.407 223.629C178.328 224.389 178.698 225.364 178.531 226.549C178.445 227.166 178.227 227.726 177.858 228.222C177.331 228.931 176.607 229.328 175.734 229.426C174.636 229.549 173.625 229.286 172.757 228.593C171.765 227.801 171.391 226.761 171.619 225.511C171.639 225.399 171.666 225.288 171.69 225.177L171.69 225.176ZM174.679 227.348C175.239 227.524 175.736 227.233 175.974 226.835C176.134 226.568 176.228 226.284 176.226 225.972C176.222 225.365 175.921 224.97 175.351 224.817C174.728 224.65 174.28 224.942 174.037 225.38C173.921 225.59 173.854 225.816 173.828 226.049C173.755 226.703 174.11 227.223 174.679 227.348Z" fill="white"/>
<path d="M175.403 206.238C175.385 206.815 174.835 207.503 174.278 207.665C173.866 207.785 173.478 207.683 173.093 207.547C172.763 207.431 172.602 207.271 172.244 206.717C172.204 206.729 172.159 206.736 172.12 206.756C171.671 206.982 171.198 207.003 170.717 206.911C170.281 206.828 169.855 206.715 169.487 206.446C168.962 206.062 168.639 205.564 168.67 204.9C168.709 204.058 169.233 203.474 169.974 203.236C170.423 203.092 170.885 203.061 171.351 203.096C171.791 203.128 172.231 203.17 172.67 203.206C172.73 203.211 172.79 203.204 172.858 203.203C172.926 203.024 172.847 202.883 172.761 202.751C172.624 202.539 172.423 202.392 172.194 202.306C171.458 202.03 170.712 201.965 169.96 202.243C169.798 202.303 169.645 202.386 169.45 202.475C169.521 202.287 169.573 202.124 169.642 201.969C170.097 200.943 170.981 200.422 172.113 200.503C172.802 200.552 173.446 200.745 174.029 201.116C174.782 201.595 175.133 202.296 175.097 203.179C175.085 203.472 175.027 203.767 174.961 204.055C174.857 204.499 174.728 204.938 174.611 205.379C174.595 205.437 174.577 205.496 174.566 205.556C174.498 205.914 174.7 206.191 175.066 206.232C175.177 206.245 175.29 206.237 175.403 206.238ZM172.554 204.499C172.156 204.461 171.803 204.426 171.447 204.476C171.403 204.483 171.36 204.504 171.318 204.521C171.126 204.601 171.048 204.761 171.034 204.953C171.02 205.137 171.113 205.283 171.271 205.364C171.587 205.527 171.912 205.542 172.23 205.361C172.28 205.333 172.337 205.285 172.353 205.235C172.424 205.005 172.481 204.77 172.554 204.499Z" fill="white"/>
<path d="M179.261 202.518C179.209 202.757 179.166 202.953 179.111 203.204C179.215 203.148 179.266 203.124 179.313 203.095C179.992 202.67 180.702 202.654 181.436 202.932C181.732 203.045 182.001 203.199 182.225 203.423C182.697 203.894 182.841 204.477 182.779 205.12C182.759 205.338 182.714 205.556 182.658 205.768C182.344 206.96 182.023 208.15 181.704 209.341L181.637 209.594C181.444 209.617 179.765 209.184 179.508 209.048C179.524 208.968 179.539 208.88 179.562 208.795C179.826 207.802 180.092 206.81 180.357 205.817C180.384 205.715 180.414 205.61 180.419 205.505C180.447 204.962 180.053 204.581 179.485 204.593C179.075 204.602 178.614 204.918 178.51 205.349C178.278 206.318 178.003 207.277 177.745 208.24C177.73 208.299 177.716 208.358 177.697 208.416C177.648 208.559 177.625 208.58 177.482 208.542C176.884 208.386 176.288 208.224 175.692 208.065C175.582 208.036 175.541 207.971 175.57 207.861C175.585 207.802 175.599 207.743 175.615 207.684C176.096 205.883 176.578 204.082 177.06 202.281C177.119 202.062 177.256 201.981 177.472 202.039C177.98 202.175 178.489 202.311 178.997 202.447C179.076 202.468 179.155 202.489 179.261 202.518L179.261 202.518Z" fill="white"/>
<path d="M177.453 216.199C177.355 216.173 177.26 216.148 177.165 216.122C176.09 215.835 175.014 215.546 173.938 215.26C173.838 215.234 173.735 215.222 173.627 215.202C173.569 215.346 173.589 215.464 173.62 215.581C173.685 215.834 173.836 216.031 174.026 216.203C174.273 216.426 174.56 216.588 174.869 216.696C175.433 216.892 176.012 217.029 176.616 216.983C176.805 216.969 176.991 216.933 177.194 216.905C177.198 217.102 177.09 217.261 177.005 217.423C176.618 218.16 175.989 218.545 175.166 218.585C174.184 218.632 173.277 218.37 172.476 217.799C171.639 217.202 171.23 216.371 171.266 215.347C171.297 214.444 171.562 213.609 172.145 212.902C172.823 212.081 173.71 211.749 174.764 211.854C175.33 211.911 175.87 212.065 176.36 212.365C177.043 212.783 177.451 213.391 177.611 214.169C177.735 214.768 177.68 215.364 177.561 215.957C177.551 216.009 177.534 216.06 177.517 216.11C177.509 216.13 177.491 216.147 177.453 216.199L177.453 216.199ZM173.95 214.002C174.497 214.152 175.049 214.3 175.596 214.441C175.749 214.146 175.713 213.818 175.522 213.591C175.299 213.326 174.849 213.205 174.5 213.316C174.2 213.412 173.979 213.676 173.95 214.002L173.95 214.002Z" fill="white"/>
<path d="M169.815 217.153L167.767 216.605C167.755 216.585 167.751 216.579 167.748 216.572C167.745 216.565 167.74 216.557 167.741 216.551C167.753 216.484 167.762 216.416 167.78 216.351C168.289 214.446 168.8 212.543 169.311 210.639C169.317 210.619 169.336 210.602 169.347 210.586C169.524 210.585 171.177 211.016 171.417 211.124C171.422 211.132 171.427 211.138 171.43 211.145C171.433 211.151 171.438 211.159 171.437 211.166C171.425 211.233 171.416 211.301 171.399 211.366C170.889 213.27 170.378 215.174 169.867 217.077C169.862 217.098 169.842 217.114 169.815 217.153L169.815 217.153Z" fill="white"/>
<path d="M172.002 209.328C171.906 209.837 171.337 210.281 170.605 210.075C169.952 209.89 169.622 209.34 169.798 208.712C169.974 208.083 170.539 207.776 171.188 207.946C171.885 208.129 172.187 208.779 172.002 209.328Z" fill="white"/>
<path d="M145.981 201.892L143.316 201.179C143.348 201.079 143.362 200.981 143.407 200.901C143.721 200.342 144.391 200.053 145.032 200.251C145.644 200.44 146.058 201.003 146.028 201.645C146.025 201.719 146.001 201.791 145.981 201.892L145.981 201.892Z" fill="white"/>
</g>
<g clip-path="url(#clip3_6317_8286)">
<path d="M2.63525 137.513L23.4469 155.467L27.6929 159.638L32.6553 160.554L31.9389 163.809L40.4309 172.151L73.9389 198.927L91.1402 209.342L118.113 176.179L128.733 167.028L40.0546 97.395L14.8756 125.006L2.63525 137.513Z" fill="black" stroke="#FBFEFC" stroke-width="2"/>
<path d="M64.9302 121.331L40.1689 98.2324L99.0416 144.516L78.69 133.153L64.9302 121.331Z" fill="#FBFEFC"/>
<path d="M92.1903 180.922C92.9498 179.955 94.351 179.786 95.3177 180.545C96.2848 181.305 96.4529 182.705 95.6934 183.673C94.934 184.64 93.534 184.808 92.5669 184.049C91.6003 183.29 91.4309 181.889 92.1903 180.922Z" fill="#FBFEFC"/>
<path d="M39.9642 132.412C40.8355 131.302 41.2675 130.311 41.2598 129.438C41.2512 128.565 40.8109 127.786 39.9366 127.1L39.0064 126.369L33.6784 133.155L34.39 133.713C35.3612 134.476 36.299 134.747 37.2059 134.525C38.1115 134.304 39.0316 133.599 39.9642 132.412ZM43.372 134.901C41.7847 136.922 40.0182 138.053 38.0728 138.293C36.1271 138.534 34.1699 137.881 32.2006 136.335L28.374 133.33L37.8857 121.217L41.9794 124.431C43.8782 125.922 44.9537 127.571 45.2062 129.376C45.4578 131.181 44.8471 133.022 43.372 134.901Z" fill="#FBFEFC"/>
<path d="M49.0134 149.538L52.0584 151.929L61.6099 139.765L58.5649 137.374L49.0134 149.538Z" fill="#FBFEFC"/>
<path d="M59.8994 150.75C59.2904 151.525 58.9273 152.197 58.8103 152.762C58.6935 153.328 58.8734 153.798 59.3509 154.173C59.8234 154.544 60.317 154.603 60.8313 154.349C61.3451 154.095 61.9065 153.58 62.5154 152.804C63.1212 152.033 63.4798 151.373 63.5911 150.826C63.7027 150.277 63.5205 149.815 63.0425 149.44C62.5752 149.073 62.0871 149.006 61.5778 149.238C61.0687 149.469 60.5092 149.973 59.8994 150.75ZM65.6146 155.238C64.4544 156.715 63.1619 157.564 61.7366 157.78C60.3114 157.998 58.9003 157.558 57.5038 156.462C56.1646 155.41 55.4305 154.15 55.3032 152.683C55.1749 151.216 55.6761 149.762 56.8073 148.322C57.964 146.849 59.2506 146.009 60.668 145.803C62.0853 145.596 63.4945 146.043 64.8966 147.144C65.7629 147.824 66.3809 148.615 66.7483 149.514C67.1163 150.414 67.2046 151.357 67.0118 152.345C66.8202 153.332 66.3538 154.296 65.6146 155.238Z" fill="#FBFEFC"/>
<path d="M63.2601 160.726L66.3055 163.117L69.961 158.462L73.4004 154.082L70.355 151.69L63.2601 160.726Z" fill="#FBFEFC"/>
<path d="M71.2141 150.596L74.2595 152.987L75.8584 150.951L72.813 148.56L71.2141 150.596Z" fill="#FBFEFC"/>
<path d="M74.2856 165.656C74.6967 165.979 75.2683 166.259 76.0024 166.5L74.2172 168.774C73.665 168.632 73.1732 168.455 72.742 168.24C72.3101 168.026 71.8444 167.723 71.3461 167.331C70.3237 166.529 69.7885 165.693 69.7386 164.824C69.6908 163.958 70.0833 162.992 70.918 161.929L73.8427 158.205L72.7762 157.367L74.6103 155.032L75.6768 155.869L77.4886 153.562L80.9765 155.438L78.7456 158.279L80.6885 159.804L78.8544 162.14L76.9115 160.614L74.1499 164.131C73.6906 164.716 73.7362 165.225 74.2856 165.656Z" fill="#FBFEFC"/>
<path d="M81.334 171.19C81.7451 171.513 82.3168 171.793 83.0508 172.034L81.2657 174.307C80.7139 174.166 80.2215 173.988 79.7904 173.773C79.358 173.559 78.8938 173.257 78.3945 172.865C77.3721 172.062 76.8369 171.226 76.7881 170.359C76.7393 169.491 77.1317 168.526 77.9664 167.463L80.8911 163.738L79.8241 162.901L81.6582 160.565L82.7252 161.403L84.5645 159.06L88.0244 160.971L85.7934 163.812L87.7373 165.338L85.9032 167.674L83.9593 166.148L81.1978 169.664C80.7385 170.249 80.784 170.758 81.334 171.19Z" fill="#FBFEFC"/>
<path d="M89.2661 172.029C89.6962 171.567 90.1223 171.316 90.5454 171.274C90.9692 171.233 91.359 171.352 91.7169 171.633C92.1072 171.94 92.3155 172.313 92.3403 172.755C92.3677 173.197 92.2149 173.64 91.8823 174.084L89.2661 172.029ZM95.5173 172.91C95.3506 171.631 94.6027 170.47 93.2741 169.427C91.8776 168.33 90.4827 167.894 89.0886 168.119C87.695 168.344 86.3989 169.219 85.2008 170.745C84.0406 172.222 83.5529 173.681 83.7368 175.119C83.9213 176.557 84.7478 177.853 86.2173 179.007C86.9229 179.561 87.568 179.99 88.1522 180.294C88.7325 180.596 89.3567 180.809 90.0259 180.935L91.1569 178.531C90.7011 178.401 90.2874 178.252 89.921 178.08C89.3913 177.832 88.8587 177.498 88.3234 177.078C87.7365 176.617 87.3858 176.109 87.2714 175.556C87.1575 175.002 87.2878 174.463 87.6635 173.942L93.1064 178.216L94.1958 176.829C95.2438 175.494 95.6847 174.187 95.5173 172.91Z" fill="#FBFEFC"/>
<path d="M46.8838 138.75C47.3138 138.288 47.7398 138.037 48.163 137.994C48.5863 137.953 48.9767 138.073 49.3351 138.354C49.7244 138.66 49.9327 139.033 49.9579 139.476C49.9854 139.918 49.8321 140.36 49.5004 140.805L46.8838 138.75ZM53.1354 139.631C52.9683 138.352 52.2209 137.191 50.8918 136.147C49.4948 135.05 48.1002 134.615 46.7067 134.84C45.3131 135.065 44.0166 135.94 42.8185 137.465C41.6582 138.943 41.17 140.402 41.355 141.84C41.539 143.278 42.3655 144.574 43.835 145.728C44.5406 146.282 45.1856 146.711 45.7698 147.014C46.3501 147.317 46.9744 147.53 47.6441 147.656L48.7746 145.252C48.3187 145.122 47.905 144.972 47.5392 144.801C47.0085 144.552 46.4763 144.219 45.941 143.798C45.3545 143.338 45.0035 142.83 44.8891 142.276C44.7747 141.722 44.9055 141.184 45.2811 140.663L50.7241 144.937L51.8135 143.549C52.8615 142.215 53.3024 140.908 53.1354 139.631Z" fill="#FBFEFC"/>
</g>
<path d="M29.3524 44.3249L42.1906 48.1348L56.7739 50.9051L79.3625 57.0547L117.988 68.3711L137.574 72.1455L135.474 80.897L131.163 84.1817L131.921 87.4489L124.795 121.218L102.949 124.614L82.4472 118.769L51.5083 112.138L14.1761 103.179L19.3304 82.6442L23.8693 80.0312L21.9204 71.8506L29.3524 44.3249Z" fill="black" stroke="#FBFEFC" stroke-width="2"/>
<g clip-path="url(#clip4_6317_8286)">
<path d="M69.6238 88.2741C68.7687 91.8374 65.3511 93.7942 61.9301 92.9733C58.5092 92.1524 56.3517 88.8577 57.2067 85.2945C58.0678 81.7061 61.4795 79.7744 64.9004 80.5953C68.3214 81.4162 70.4849 84.6857 69.6238 88.2741ZM66.906 87.622C67.4403 85.3953 66.1903 83.484 64.3152 83.0341C62.4401 82.5841 60.4589 83.7199 59.9246 85.9466C59.3956 88.151 60.6402 90.0846 62.5154 90.5345C64.3905 90.9845 66.3777 89.8235 66.906 87.622Z" fill="white"/>
<path d="M83.0174 91.488C82.1623 95.0513 78.7447 97.0081 75.3237 96.1872C71.9027 95.3663 69.7452 92.0716 70.6003 88.5083C71.4607 84.9227 74.873 82.9883 78.294 83.8092C81.715 84.6301 83.8785 87.8996 83.0174 91.488ZM80.2996 90.8358C80.8339 88.6091 79.5839 86.6979 77.7088 86.2479C75.8336 85.798 73.8524 86.9338 73.3181 89.1605C72.7891 91.3649 74.0338 93.2984 75.9089 93.7484C77.784 94.1984 79.7713 93.0374 80.2996 90.8358Z" fill="white"/>
<path d="M97.249 88.7532L94.5827 99.8644C93.4859 104.435 90.3425 105.655 87.1559 104.89C84.1562 104.17 82.8323 101.731 82.5452 99.9268L85.1478 99.5097C85.3274 100.618 86.0746 102.055 87.7376 102.454C89.7774 102.943 91.3434 101.988 91.9119 99.6189L92.1255 98.7288L92.0306 98.706C91.2422 99.3107 89.9129 99.6852 88.434 99.3303C85.3395 98.5877 83.1513 95.212 83.9836 91.7435C84.8219 88.25 88.3091 86.2125 91.4036 86.9551C92.8797 87.3093 93.8943 88.2463 94.3306 89.1212L94.4255 89.144L94.6672 88.1366L97.2483 88.756L97.249 88.7532ZM93.4597 94.0175C93.9826 91.8382 92.9112 89.8961 91.0612 89.4521C89.186 89.0022 87.2327 90.2185 86.7098 92.3977C86.1922 94.5547 87.3862 96.5026 89.2613 96.9526C91.1113 97.3965 92.9421 96.1744 93.4597 94.0175Z" fill="white"/>
<path d="M103.067 83.2611L98.7145 101.398L96.0637 100.762L100.416 82.625L103.067 83.2611Z" fill="white"/>
<path d="M109.95 100.105L111.722 102.017C110.799 102.861 108.742 104.203 105.907 103.523C102.391 102.679 100.418 99.3311 101.251 95.8599C102.134 92.1794 105.384 90.3063 108.573 91.0717C111.785 91.8424 112.743 94.7753 112.925 96.2797L113.038 97.0505L103.942 98.4918C104.277 99.8855 105.11 100.755 106.492 101.087C107.876 101.419 108.999 100.968 109.95 100.105ZM103.991 96.3198L110.073 95.3504C109.954 94.5045 109.168 93.7464 108.091 93.4879C106.71 93.1564 104.494 93.9145 103.991 96.3198Z" fill="white"/>
<path d="M47.5586 81.2762L48.1887 78.6505L57.0369 80.7738C57.0136 81.2522 56.9283 81.8042 56.7877 82.3902C56.315 84.3602 55.1919 86.6669 53.0398 87.986C50.9298 89.3388 48.5479 89.7588 45.6906 89.0731C40.3945 87.8023 36.9763 82.4197 38.2472 77.1236C39.518 71.8276 45.0066 68.5823 50.3027 69.8532C53.2326 70.5563 55.0439 72.2068 56.2525 74.0815L53.9551 75.4897C53.0837 74.1651 51.757 72.9791 49.6698 72.4783C45.8024 71.5502 42.0297 73.9412 41.1017 77.8086C40.1736 81.6761 42.4505 85.5187 46.3179 86.4468C48.8264 87.0487 50.4968 86.3842 51.6316 85.6886C52.552 85.1245 53.2947 84.1813 53.8348 82.7794L47.5586 81.2762Z" fill="white"/>
</g>
<path d="M102.658 124.545L124.816 120.915L106.928 114.463L102.658 124.545Z" fill="white"/>
<path d="M63.5884 55.9344L38.7269 47.6855L56.7584 51.5188L80.7343 57.7658L63.5884 55.9344Z" fill="white"/>
<defs>
<clipPath id="clip0_6317_8286">
<rect width="114" height="64.8" fill="white" transform="translate(91.8218 0.12793) rotate(21.4347)"/>
</clipPath>
<clipPath id="clip1_6317_8286">
<rect width="112.77" height="58.4893" fill="white" transform="translate(114.824 102.938) rotate(28.7537)"/>
</clipPath>
<clipPath id="clip2_6317_8286">
<rect width="72" height="34.6988" fill="white" transform="translate(126.142 184.003) rotate(14.9751)"/>
</clipPath>
<clipPath id="clip3_6317_8286">
<rect width="117.404" height="58.9287" fill="white" transform="translate(36.394 94.5205) rotate(38.1402)"/>
</clipPath>
<clipPath id="clip4_6317_8286">
<rect width="78.0522" height="26.4" fill="white" transform="translate(40.4849 67.3584) rotate(13.4939)"/>
</clipPath>
</defs>
</svg>
