<svg width="262" height="214" viewBox="0 0 262 214" fill="none" xmlns="http://www.w3.org/2000/svg">
<path d="M114.08 56.9426L132.444 67.0678L159.413 79.0802L178.812 90.4937L192.72 94.4468L214.541 108.13L209.962 117.16L205.605 118.683L207.856 120.96L201.783 133.169L189.025 158.208L88.5636 107.021L99.7268 85.1115L102.36 83.7291L101.322 81.9816L114.08 56.9426Z" fill="black"/>
<path fill-rule="evenodd" clip-rule="evenodd" d="M192.978 93.8653L215.363 107.902L210.409 117.671L206.754 118.949L208.62 120.837L202.344 133.455L189.3 159.055L87.7162 107.296L99.2565 84.6469L101.479 83.48L100.603 82.0049L113.814 56.0766L132.725 66.5031L159.702 78.5191L179.062 89.9098L192.978 93.8653ZM192.461 95.0282L178.562 91.0776L159.125 79.6412L132.163 67.6324L114.345 57.8086L102.041 81.9583L103.24 83.9782L100.197 85.5761L89.4109 106.745L188.749 157.361L201.221 132.883L207.091 121.082L204.457 118.417L209.514 116.649L213.719 108.358L192.461 95.0282Z" fill="#FBFEFC"/>
<path d="M167.074 142.245L132.774 129.027L189.185 157.718L167.074 142.245Z" fill="#FBFEFC"/>
<path d="M142.81 100.243C142.584 98.5479 141.532 97.0807 140.005 96.3271C137.393 94.9962 134.464 96.0966 133.026 98.9194C131.587 101.742 132.419 104.759 135.031 106.09C136.525 106.873 138.314 106.861 139.804 106.059L140.466 107.764C138.5 108.83 136.135 108.828 134.179 107.762C130.403 105.838 129.214 101.756 131.139 97.9775C132.757 94.4429 136.92 92.8808 140.44 94.4887C140.574 94.5522 140.71 94.6186 140.841 94.6878C142.871 95.6597 144.282 97.587 144.594 99.8252L142.81 100.243Z" fill="#FBFEFC"/>
<path d="M142.439 106.2C143.726 103.664 146.816 102.646 149.34 103.927C151.864 105.208 152.868 108.303 151.581 110.839C150.293 113.376 147.204 114.393 144.679 113.114L144.663 113.106C142.184 111.936 141.124 108.97 142.297 106.478C142.34 106.384 142.388 106.29 142.439 106.2ZM149.749 109.905C150.647 108.445 150.197 106.535 148.742 105.641C147.29 104.747 145.384 105.206 144.485 106.668C144.399 106.808 144.324 106.955 144.26 107.109C143.364 108.57 143.813 110.48 145.269 111.374C146.721 112.268 148.627 111.809 149.523 110.348C149.612 110.207 149.687 110.059 149.749 109.905Z" fill="#FBFEFC"/>
<path d="M159.157 120.153L157.928 107.84L157.861 107.806L153.134 117.085L151.353 116.177L157.741 103.639L159.687 104.631L160.882 116.927L160.949 116.961L165.677 107.683L167.456 108.589L161.068 121.127L159.157 120.153Z" fill="#FBFEFC"/>
<path d="M165.117 117.755C166.402 115.218 169.492 114.2 172.016 115.481C174.54 116.762 175.544 119.858 174.257 122.393C172.971 124.932 169.882 125.948 167.357 124.669L167.339 124.66C164.86 123.491 163.8 120.524 164.975 118.033C165.018 117.939 165.066 117.845 165.117 117.755ZM172.428 121.461C173.325 120 172.875 118.09 171.422 117.197C169.967 116.302 168.062 116.761 167.164 118.224C167.079 118.364 167.003 118.511 166.94 118.665C166.043 120.126 166.493 122.036 167.947 122.929C169.401 123.824 171.307 123.365 172.203 121.904C172.29 121.762 172.365 121.615 172.428 121.461Z" fill="#FBFEFC"/>
<path d="M177.709 120.717L176.795 120.251L177.598 118.675L178.512 119.141L179.65 116.906L181.449 117.822L180.307 120.063L182.636 121.249L181.835 122.821L179.506 121.635L176.72 127.102L178.8 128.162L177.991 129.75L174.111 127.773L177.708 120.714L177.709 120.717Z" fill="#FBFEFC"/>
<path d="M183.544 132.918C181.058 131.755 179.989 128.788 181.158 126.289C181.204 126.194 181.251 126.098 181.304 126.004C182.457 123.518 185.4 122.434 187.873 123.583C187.977 123.629 188.079 123.681 188.177 123.738C190.69 125.019 191.416 127.83 190.07 130.473C189.961 130.692 189.832 130.902 189.688 131.098L182.85 127.614C182.309 129.063 182.982 130.677 184.387 131.306C185.323 131.836 186.462 131.864 187.426 131.381L187.926 133.004C186.537 133.7 184.898 133.668 183.544 132.918ZM183.514 126.31L188.626 128.914C189.246 127.559 188.675 125.958 187.341 125.309C186.005 124.588 184.336 125.023 183.516 126.311L183.514 126.31Z" fill="#FBFEFC"/>
<path d="M123.043 101.188C123.063 101.169 123.082 101.15 123.1 101.128C123.12 101.109 123.137 101.094 123.156 101.072C123.185 101.033 123.212 100.994 123.232 100.949L126.556 94.4266C126.579 94.3854 126.595 94.3403 126.609 94.2943L126.612 94.2886C126.622 94.2454 126.631 94.1993 126.634 94.1551C126.635 94.1388 126.635 94.1244 126.636 94.1128C126.639 94.0783 126.639 94.0417 126.637 94.0071C126.635 93.9917 126.635 93.9773 126.632 93.9657C126.627 93.9176 126.617 93.8714 126.603 93.8233L123.445 84.0342C123.429 83.988 123.409 83.9436 123.387 83.9011C123.379 83.8876 123.37 83.8779 123.366 83.8664C123.348 83.8355 123.326 83.8074 123.304 83.7794C123.296 83.7678 123.286 83.7581 123.278 83.7465C123.246 83.7136 123.213 83.6797 123.178 83.6525C123.141 83.6215 123.101 83.5962 123.059 83.5747L116.563 80.2649C116.519 80.2425 116.475 80.2248 116.43 80.2139C116.404 80.2032 116.377 80.1991 116.352 80.196C116.326 80.1901 116.3 80.1841 116.274 80.183C116.242 80.1789 116.212 80.1825 116.182 80.1842C116.161 80.1831 116.139 80.1838 116.116 80.1866C116.011 80.1983 115.907 80.2321 115.812 80.2852C115.795 80.2956 115.777 80.3109 115.758 80.3203C115.738 80.3317 115.707 80.3545 115.682 80.3755C115.663 80.3927 115.645 80.4146 115.627 80.4347C115.607 80.4509 115.59 80.4709 115.572 80.491C115.543 80.5292 115.516 80.5684 115.494 80.6105L108.862 93.6271C108.841 93.6692 108.822 93.7152 108.808 93.7612C108.802 93.7871 108.798 93.814 108.795 93.839C108.792 93.864 108.783 93.8908 108.781 93.9187C108.779 93.9465 108.782 93.9821 108.782 94.0109C108.783 94.0427 108.78 94.0532 108.783 94.0763C108.796 94.1822 108.83 94.2862 108.881 94.3799C108.893 94.4001 108.908 94.4175 108.92 94.4359C108.935 94.4629 108.954 94.4871 108.975 94.5094C108.995 94.5316 109.016 94.5501 109.037 94.5704C109.053 94.5878 109.071 94.6043 109.09 94.6189C109.131 94.6519 109.176 94.682 109.222 94.7054L122.148 101.292C122.196 101.316 122.247 101.335 122.298 101.349C122.321 101.36 122.346 101.359 122.37 101.364C122.394 101.369 122.425 101.375 122.454 101.378C122.484 101.381 122.513 101.376 122.547 101.377C122.57 101.379 122.592 101.378 122.615 101.375C122.721 101.362 122.825 101.328 122.917 101.276C122.937 101.264 122.953 101.251 122.975 101.238C122.999 101.223 123.022 101.206 123.043 101.188ZM116.04 83.11L118.344 90.2617L111.204 92.601L116.04 83.11ZM122.503 86.4032L124.455 92.4613L120.455 90.4229L122.503 86.4032ZM119.535 88.6636L117.58 82.6046L121.581 84.6429L119.533 88.6626L119.535 88.6636ZM118.84 91.8073L121.144 98.959L111.699 94.1465L118.84 91.8073ZM120.736 92.3946L124.736 94.4329L122.688 98.4526L120.736 92.3946Z" fill="#FBFEFC"/>
<path d="M25.9371 1.22449L45.9768 0.996678L77.1084 5.07386L111.589 8.12215L138.193 22.5474L127.869 75.5997L17.1906 54.086L24.2971 11.136L26.5147 9.86588L24.8438 7.83218L25.9371 1.22449Z" fill="black"/>
<path fill-rule="evenodd" clip-rule="evenodd" d="M111.774 7.50609L138.899 22.2139L128.367 76.3383L16.4691 54.5875L23.7244 10.738L25.5547 9.68976L24.1756 8.0113L25.4018 0.600536L46.0143 0.366211L77.1771 4.44747L111.774 7.50609ZM111.403 8.7382L77.0397 5.70025L45.9392 1.62714L26.4724 1.84845L25.512 7.65306L27.4748 10.042L24.8699 11.534L17.9122 53.5844L127.371 74.8611L137.486 22.8808L111.403 8.7382Z" fill="#FBFEFC"/>
<path d="M137.787 22.7823L111.069 8.42762L130.279 29.8073L137.787 22.7823Z" fill="#FBFEFC"/>
<path d="M49.9692 19.1444L45.9647 20.5167L49.1627 23.2934L53.1596 21.9153L49.9692 19.1444Z" fill="#FBFEFC"/>
<path d="M45.5194 20.6672L41.5266 22.0461L44.7129 24.8162L48.7091 23.4423L45.5194 20.6672Z" fill="#FBFEFC"/>
<path d="M53.5128 22.2208L49.5158 23.5989L52.7063 26.3698L56.7024 24.9959L53.5128 22.2208Z" fill="#FBFEFC"/>
<path d="M57.0536 25.3038L53.0575 26.6778L56.248 29.4487L60.2441 28.0747L57.0536 25.3038Z" fill="#FBFEFC"/>
<path d="M41.0804 22.199L37.0884 23.5737L40.2747 26.3438L44.2708 24.9698L41.0804 22.199Z" fill="#FBFEFC"/>
<path d="M34.2205 37.2564L37.4109 40.0273L38.2174 35.8783L35.027 33.1074L34.2205 37.2564Z" fill="#FBFEFC"/>
<path d="M37.7632 40.3329L40.9512 43.1164L41.7593 38.959L38.5689 36.1881L37.7632 40.3329Z" fill="#FBFEFC"/>
<path d="M35.1166 32.6459L38.3071 35.4168L39.1128 31.2719L35.9231 28.4969L35.1166 32.6459Z" fill="#FBFEFC"/>
<path d="M36.0124 28.0376L39.2029 30.8085L40.011 26.6512L36.8205 23.8803L36.0124 28.0376Z" fill="#FBFEFC"/>
<path d="M41.3036 43.4241L44.5024 46.1966L45.3105 42.0393L42.1117 39.2667L41.3036 43.4241Z" fill="#FBFEFC"/>
<path d="M57.7859 41.8369L53.7773 43.2084L54.5838 39.0594L58.5924 37.6879L57.7859 41.8369Z" fill="#FBFEFC"/>
<path d="M53.3352 43.3612L49.3408 44.7485L50.149 40.5911L54.1409 39.2163L53.3352 43.3612Z" fill="#FBFEFC"/>
<path d="M58.6814 37.2274L54.6727 38.5989L55.4784 34.454L59.4879 33.0783L58.6814 37.2274Z" fill="#FBFEFC"/>
<path d="M59.577 32.6196L55.5683 33.9911L56.3764 29.8337L60.3851 28.4622L59.577 32.6196Z" fill="#FBFEFC"/>
<path d="M48.8952 44.901L44.9032 46.2757L45.7113 42.1184L49.7033 40.7436L48.8952 44.901Z" fill="#FBFEFC"/>
<path d="M45.5779 41.7357L49.5748 40.3576L46.3844 37.5867L42.3799 38.959L45.5779 41.7357Z" fill="#FBFEFC"/>
<path d="M50.0175 40.2056L54.0137 38.8316L50.8232 36.0607L46.8271 37.4347L50.0175 40.2056Z" fill="#FBFEFC"/>
<path d="M42.0239 38.6531L46.02 37.2792L42.8296 34.5083L38.8376 35.8831L42.0239 38.6531Z" fill="#FBFEFC"/>
<path d="M55.9799 29.7554L52.7936 26.9853L51.9855 31.1427L55.1717 33.9128L55.9799 29.7554Z" fill="#FBFEFC"/>
<path d="M52.4377 26.6788L49.2523 23.9046L48.4458 28.0536L51.6296 30.8362L52.4377 26.6788Z" fill="#FBFEFC"/>
<path d="M55.0816 34.3769L51.8961 31.6027L51.0896 35.7517L54.2759 38.5218L55.0816 34.3769Z" fill="#FBFEFC"/>
<path d="M40.4073 26.7296L44.4035 25.3557L43.5954 29.5131L39.5992 30.887L40.4073 26.7296Z" fill="#FBFEFC"/>
<path d="M44.8455 25.2029L48.8508 23.8264L48.0443 27.9754L44.0374 29.3603L44.8455 25.2029Z" fill="#FBFEFC"/>
<path d="M39.5093 31.35L43.5063 29.9718L42.6998 34.1209L38.7036 35.4948L39.5093 31.35Z" fill="#FBFEFC"/>
<path d="M50.6887 35.6738L51.4952 31.5247L47.5025 32.9037L46.6968 37.0485L50.6887 35.6738Z" fill="#FBFEFC"/>
<path d="M43.097 34.1981L46.2874 36.969L47.0931 32.8241L43.9035 30.049L43.097 34.1981Z" fill="#FBFEFC"/>
<path d="M48.1776 28.3612L44.1707 29.746L47.3695 32.5185L51.3656 31.1446L48.1776 28.3612Z" fill="#FBFEFC"/>
<path d="M74.0203 46.3671L73.7333 43.7833L68.6985 42.8046L67.4228 45.0846L63.2111 44.266L72.349 29.0662L75.4492 29.6688L78.2236 47.1841L74.0203 46.3671ZM72.7975 35.5925L70.4788 39.6688L73.3284 40.2227L72.7975 35.5925Z" fill="#FBFEFC"/>
<path d="M87.9975 47.584C86.7278 48.3905 85.1974 48.68 83.7209 48.393C82.2444 48.106 80.9339 47.2643 80.0588 46.0409C79.2452 44.7163 79.1476 43.4789 79.6211 41.0429C80.0946 38.607 80.6437 37.4996 81.8992 36.5729C83.1688 35.7663 84.6992 35.4768 86.1758 35.7638C87.6523 36.0508 88.9628 36.8926 89.8379 38.116C90.6514 39.4406 90.7409 40.6981 90.2714 43.1131C89.802 45.5282 89.2488 46.6565 87.9975 47.584ZM86.4556 39.7004C86.2078 39.4229 85.8759 39.2342 85.5107 39.1632C85.1454 39.0923 84.7671 39.1428 84.4333 39.3073C83.8552 39.6936 83.6186 40.5538 83.3815 41.7739C83.1443 42.9939 83.0464 43.8768 83.4327 44.4549C83.6806 44.7324 84.0125 44.921 84.3777 44.992C84.7429 45.063 85.1213 45.0124 85.455 44.848C86.0331 44.4617 86.2697 43.6014 86.5068 42.3814C86.744 41.1613 86.8427 40.2743 86.4514 39.6995L86.4556 39.7004Z" fill="#FBFEFC"/>
<path d="M98.4598 45.047L96.003 44.5694L94.866 50.419L90.8465 49.6377L94.0262 33.2798L100.507 34.5394C104.129 35.2436 105.585 38.1933 105.062 40.8841C104.539 43.5749 102.087 45.752 98.4598 45.047ZM99.6201 38.0962L97.3472 37.6544L96.7015 40.9761L98.9745 41.4179C99.2049 41.4978 99.4498 41.5272 99.6926 41.5042C99.9354 41.4811 100.17 41.4062 100.382 41.2845C100.593 41.1627 100.776 40.997 100.917 40.7985C101.059 40.6001 101.157 40.3734 101.203 40.134C101.25 39.8946 101.244 39.648 101.187 39.4109C101.13 39.1738 101.023 38.9517 100.872 38.7597C100.722 38.5676 100.532 38.4101 100.316 38.2978C100.099 38.1855 99.8613 38.121 99.6177 38.1087L99.6201 38.0962Z" fill="#FBFEFC"/>
<path d="M109.588 53.4246C107.081 52.9373 105.127 52.0805 103.803 50.0583L106.877 47.9848C107.55 48.9829 108.998 49.5895 110.305 49.8437C111.889 50.1515 112.752 49.7728 112.935 48.8285C113.025 48.4815 112.977 48.1134 112.801 47.8008C112.546 47.4893 112.196 47.2691 111.804 47.1735L109.882 46.5135C108.477 46.0236 107.467 45.3287 106.879 44.4295C106.29 43.5303 106.121 42.3266 106.393 40.9269C106.974 37.9394 109.65 36.1961 113.373 36.9198C115.717 37.3754 117.377 38.2705 118.509 39.9431L115.514 41.9628C114.683 40.7301 113.312 40.533 112.602 40.3949C111.202 40.1229 110.469 40.813 110.331 41.5275C110.278 41.8128 110.341 42.1072 110.505 42.3463C110.76 42.6909 111.125 42.9378 111.54 43.0461L113.463 43.706C114.893 44.2008 115.84 44.8618 116.417 45.6851C117.128 46.6905 117.235 47.9905 116.94 49.5073C116.257 52.8434 113.035 54.0946 109.588 53.4246Z" fill="#FBFEFC"/>
<path d="M74.2902 59.5955L18.1849 53.9266L94.4733 68.5476L74.2902 59.5955Z" fill="#FBFEFC"/>
<path d="M1.44723 93.7393L23.2111 110.526L27.6792 114.458L32.6844 115.101L32.1473 118.391L41.0836 126.255L76.0081 151.155L93.7541 160.613L118.87 126.022L128.972 116.303L36.6128 51.632L12.984 80.5807L1.44723 93.7393Z" fill="black"/>
<path fill-rule="evenodd" clip-rule="evenodd" d="M75.6757 151.692L93.9417 161.427L119.346 126.437L129.961 116.226L36.4948 50.7802L12.503 80.1738L0.53125 93.8284L22.8102 111.013L27.4077 115.059L31.9576 115.643L31.4694 118.633L40.6916 126.749L75.6757 151.692ZM41.4756 125.761L32.8253 118.148L33.4112 114.56L27.9507 113.858L23.612 110.04L2.36322 93.6502L13.4651 80.9877L36.7308 52.4837L127.984 116.38L118.393 125.606L93.5665 159.799L76.3405 150.619L41.4756 125.761Z" fill="#FBFEFC"/>
<path d="M62.7623 74.1688L36.7729 52.4615L98.0925 95.4505L77.1491 85.2199L62.7623 74.1688Z" fill="#FBFEFC"/>
<path d="M93.2458 132.177C93.9511 131.17 95.341 130.925 96.3478 131.63C97.3551 132.335 97.5996 133.724 96.8943 134.732C96.189 135.739 94.8004 135.984 93.7931 135.278C92.7863 134.574 92.5404 133.184 93.2458 132.177Z" fill="#FBFEFC"/>
<path d="M38.4407 86.6006C39.2499 85.445 39.627 84.4312 39.5715 83.56C39.515 82.6888 39.0328 81.9357 38.1221 81.2981L37.1534 80.6198L32.2051 87.6867L32.9462 88.2057C33.9578 88.914 34.909 89.1331 35.8024 88.8618C36.6945 88.5911 37.5746 87.8376 38.4407 86.6006ZM41.9798 88.8993C40.5056 91.0047 38.8037 92.2308 36.8744 92.577C34.9448 92.9237 32.9547 92.3792 30.9037 90.943L26.9183 88.1524L35.7521 75.5364L40.0157 78.5218C41.9934 79.9065 43.1575 81.4935 43.5086 83.2822C43.8587 85.071 43.3498 86.9428 41.9798 88.8993Z" fill="#FBFEFC"/>
<path d="M48.4149 103.206L51.5863 105.426L60.4571 92.7576L57.2858 90.537L48.4149 103.206Z" fill="#FBFEFC"/>
<path d="M59.3504 103.82C58.7848 104.628 58.459 105.318 58.3732 105.889C58.2875 106.46 58.493 106.92 58.9903 107.268C59.4823 107.612 59.9784 107.644 60.478 107.362C60.9772 107.081 61.5094 106.535 62.075 105.728C62.6377 104.924 62.9596 104.246 63.0407 103.693C63.1221 103.139 62.9149 102.688 62.417 102.339C61.9303 101.998 61.4393 101.959 60.9435 102.218C60.4478 102.477 59.9167 103.011 59.3504 103.82ZM65.3029 107.988C64.2253 109.527 62.9813 110.445 61.5699 110.739C60.1588 111.034 58.7258 110.673 57.2713 109.654C55.8765 108.678 55.0745 107.46 54.867 106.002C54.6585 104.544 55.0794 103.065 56.13 101.565C57.2042 100.031 58.4428 99.1214 59.8468 98.8378C61.2507 98.5541 62.6823 98.9231 64.1426 99.9456C65.0448 100.577 65.7052 101.333 66.1214 102.211C66.5381 103.089 66.6779 104.026 66.5395 105.023C66.4022 106.019 65.9893 107.007 65.3029 107.988Z" fill="#FBFEFC"/>
<path d="M63.2529 113.596L66.4248 115.817L73.0141 106.407L69.8422 104.186L63.2529 113.596Z" fill="#FBFEFC"/>
<path d="M70.6401 103.046L73.8119 105.267L75.2969 103.146L72.125 100.925L70.6401 103.046Z" fill="#FBFEFC"/>
<path d="M74.5318 117.915C74.96 118.215 75.5461 118.464 76.2922 118.664L74.6343 121.032C74.0751 120.921 73.5743 120.771 73.1321 120.58C72.6891 120.39 72.2074 120.112 71.6885 119.749C70.6236 119.003 70.0434 118.198 69.9461 117.334C69.8509 116.471 70.1899 115.486 70.965 114.379L73.6813 110.499L72.5706 109.722L74.274 107.289L75.3848 108.067L77.0675 105.663L80.6529 107.346L78.5809 110.305L80.6045 111.722L78.9011 114.154L76.8775 112.737L74.3128 116.4C73.8862 117.009 73.9595 117.515 74.5318 117.915Z" fill="#FBFEFC"/>
<path d="M81.8725 123.055C82.3007 123.355 82.8869 123.603 83.633 123.804L81.9751 126.172C81.4164 126.061 80.915 125.91 80.4728 125.719C80.0292 125.529 79.5492 125.253 79.0292 124.889C77.9644 124.143 77.3842 123.338 77.2879 122.474C77.1916 121.611 77.5306 120.625 78.3058 119.518L81.0221 115.639L79.9108 114.861L81.6142 112.428L82.7255 113.206L84.4338 110.767L87.9931 112.485L85.9211 115.444L87.9457 116.861L86.2423 119.294L84.2177 117.877L81.653 121.539C81.2264 122.149 81.2997 122.654 81.8725 123.055Z" fill="#FBFEFC"/>
<path d="M89.8392 123.459C90.2432 122.974 90.655 122.699 91.0751 122.634C91.4961 122.57 91.8918 122.668 92.2646 122.929C92.6711 123.213 92.8995 123.575 92.9484 124.015C93 124.455 92.8718 124.905 92.5639 125.366L89.8392 123.459ZM96.1291 123.995C95.8928 122.728 95.0823 121.609 93.6986 120.64C92.2441 119.622 90.8274 119.263 89.4477 119.564C88.0685 119.865 86.8223 120.81 85.7096 122.399C84.632 123.938 84.225 125.421 84.4874 126.847C84.7504 128.272 85.6467 129.521 87.1772 130.593C87.9121 131.108 88.5797 131.5 89.1796 131.772C89.7756 132.042 90.4105 132.22 91.0856 132.309L92.0833 129.847C91.621 129.742 91.1998 129.616 90.8245 129.464C90.2821 129.245 89.7319 128.941 89.1744 128.551C88.5631 128.123 88.1851 127.636 88.0407 127.089C87.8965 126.542 87.9971 125.997 88.3437 125.456L94.0126 129.426L95.0244 127.981C95.9977 126.591 96.3664 125.262 96.1291 123.995Z" fill="#FBFEFC"/>
<path d="M45.6971 92.5504C46.1012 92.0655 46.5128 91.7911 46.933 91.7258C47.3534 91.6614 47.7497 91.7596 48.123 92.0209C48.5285 92.3048 48.7569 92.6662 48.8064 93.1068C48.858 93.5465 48.7292 93.9969 48.4224 94.4587L45.6971 92.5504ZM51.9876 93.0873C51.7507 91.8199 50.9407 90.7012 49.5565 89.732C48.1015 88.7132 46.6852 88.3548 45.306 88.6559C43.9269 88.9569 42.6802 89.9014 41.5675 91.4905C40.49 93.0294 40.0824 94.5127 40.3459 95.9387C40.6083 97.364 41.5046 98.6132 43.0351 99.6849C43.77 100.199 44.4375 100.592 45.0375 100.863C45.6335 101.134 46.2685 101.312 46.9441 101.401L47.9412 98.9392C47.4789 98.8342 47.0577 98.7076 46.683 98.5562C46.1395 98.3369 45.5898 98.0331 45.0322 97.6427C44.4214 97.215 44.0431 96.7274 43.8986 96.1809C43.7539 95.6335 43.8551 95.0891 44.2016 94.5481L49.8705 98.5175L50.8823 97.0726C51.8556 95.6825 52.2243 94.3538 51.9876 93.0873Z" fill="#FBFEFC"/>
<path d="M178.023 14.668L193.276 23.616L205.897 38.5009L221.561 53.6373L234.73 64.4129L234.147 68.8434L237.364 66.5681L242.631 70.8783L260.483 91.5634L248.445 104.473L226.03 136.285L150.221 65.5917L149.018 61.9032L146.712 62.3188L139.692 55.773L178.023 14.668Z" fill="black"/>
<path fill-rule="evenodd" clip-rule="evenodd" d="M193.687 23.1269L206.357 38.0696L221.98 53.1662L235.4 64.1475L234.959 67.4969L237.391 65.7768L243.072 70.4253L261.33 91.5797L248.935 104.871L226.129 137.238L149.673 65.9416L148.589 62.6206L146.513 62.9948L138.802 55.804L177.907 13.8692L193.687 23.1269ZM192.865 24.1052L178.14 15.4668L140.583 55.7419L146.911 61.6428L149.447 61.1858L150.77 65.2418L225.931 135.331L247.955 104.075L259.637 91.5471L242.19 71.3313L237.336 67.3594L233.334 70.1899L234.059 64.6784L221.142 54.1084L205.436 38.9322L192.865 24.1052Z" fill="#FBFEFC"/>
<path d="M180.7 21.5485L178.182 15.4439L193.255 24.1423L180.7 21.5485Z" fill="#FBFEFC"/>
<path d="M174.479 48.802L176.188 50.3891L168.785 58.6238L167.076 57.0367L174.479 48.802Z" fill="#FBFEFC"/>
<path d="M183.104 47.7385L184.891 49.3797L172.988 62.5243L171.231 60.9105L183.104 47.7385Z" fill="#FBFEFC"/>
<path d="M187.334 51.6821L189.121 53.3232L177.218 66.4679L175.461 64.8541L187.334 51.6821Z" fill="#FBFEFC"/>
<path d="M185.138 73.8033L186.245 72.5518L186.218 72.5262C185.054 73.0022 183.45 72.5769 182.16 71.3469C180.522 69.7839 179.929 67.4873 181.867 65.2973L186.526 60.031L188.137 61.5684L183.87 66.3915C182.509 67.9297 182.915 69.3745 183.909 70.3225C185.251 71.6037 186.983 71.7175 188.644 69.8404L192.358 65.643L193.969 67.1804L186.749 75.3406L185.138 73.8033Z" fill="#FBFEFC"/>
<path d="M195.699 68.6337L197.184 70.0515L196.066 71.318L196.092 71.3434C196.685 71.0042 198.559 70.984 200.044 72.4019C201.263 73.5665 201.655 74.8937 201.318 76.3823C202.742 75.9317 204.285 76.4528 205.266 77.3896C207.81 79.8201 206.845 82.186 205.248 83.9954L201.095 88.6999L199.531 87.2061L203.501 82.7084C204.597 81.4677 205.313 80.103 203.776 78.6345C202.238 77.1661 200.765 77.6172 199.487 79.0647L195.585 83.4848L193.994 81.9657L197.737 77.7265C199.083 76.2015 199.826 74.8621 198.315 73.419C197.175 72.3303 195.438 72.1953 193.817 74.0306L190.098 78.2439L188.56 76.7755L195.699 68.6337Z" fill="#FBFEFC"/>
<path d="M210.321 82.2272L212.058 83.8402L204.657 92.0749L202.921 90.462L210.321 82.2272Z" fill="#FBFEFC"/>
<path d="M215.64 87.2553L214.533 88.5068L214.56 88.5324C215.724 88.0564 217.329 88.4817 218.618 89.7117C220.256 91.2747 220.849 93.5713 218.912 95.7613L214.252 101.028L212.641 99.4902L216.908 94.6671C218.269 93.1289 217.863 91.6841 216.87 90.736C215.527 89.4549 213.795 89.3411 212.134 91.2182L208.421 95.4157L206.809 93.8783L214.029 85.718L215.64 87.2553Z" fill="#FBFEFC"/>
<path d="M224.997 103.783L224.536 104.305C223.566 105.4 221.817 106.088 220.042 104.396C218.94 103.344 218.587 102.286 219.418 101.347C220.572 100.043 222.658 101.552 224.164 102.988L224.997 103.783ZM222.569 97.282C223.553 97.4028 224.583 97.4714 225.793 98.6255C227.164 99.9334 227.025 101.436 226.286 102.27L225.986 102.61L224.803 101.481C222.249 99.0447 219.532 97.8003 217.686 99.887C216.278 101.478 216.86 103.621 218.42 105.109C219.71 106.34 220.998 106.846 222.67 106.469L222.697 106.495C222.328 106.912 221.985 107.355 221.643 107.798L223.068 109.157C223.406 108.663 223.795 108.167 224.303 107.594L227.996 103.42C229.242 102.012 229.375 99.7329 226.874 97.3478C225.691 96.2193 224.081 95.4052 222.478 95.3675L222.569 97.282Z" fill="#FBFEFC"/>
<path d="M179.027 45.7028C178.438 45.141 177.543 45.1497 177.037 45.7221C176.531 46.2944 176.598 47.2223 177.187 47.784C177.775 48.3458 178.67 48.3371 179.176 47.7647C179.682 47.1924 179.615 46.2645 179.027 45.7028Z" fill="#FBFEFC"/>
<path d="M212.414 159.206L192.071 154.116L155.036 142.293L150.091 143.537L146.3 140.128L124.683 136.313L104.516 130.389L102.063 140.29L98.691 148.108L93.8255 159.811L90.4658 181.305L200.44 212.264L202.816 200.181L201.208 196.692L203.664 194.519L210.614 171.206L212.414 159.206Z" fill="black"/>
<path fill-rule="evenodd" clip-rule="evenodd" d="M155.056 141.638L150.263 142.844L146.587 139.539L124.827 135.699L104.063 129.6L101.464 140.088L98.1092 147.866L93.2147 159.639L89.7571 181.759L200.926 213.056L203.473 200.103L201.976 196.854L204.216 194.872L211.23 171.344L213.122 158.734L192.243 153.51L155.056 141.638ZM155.015 142.947L191.899 154.723L211.707 159.679L209.997 171.069L203.112 194.166L200.44 196.53L202.158 200.26L199.953 211.473L91.1746 180.85L94.4362 159.983L99.2695 148.358L99.2727 148.35L102.662 140.492L104.97 131.179L124.539 136.928L146.013 140.717L149.92 144.23L155.015 142.947Z" fill="#FBFEFC"/>
<path d="M106.956 140.962L97.4031 152.734L105.18 130.603L106.956 140.962Z" fill="#FBFEFC"/>
<path d="M128.742 181.316C128.669 181.277 128.601 181.226 128.524 181.202C127.394 180.84 126.33 180.334 125.316 179.724C123.627 178.71 122.162 177.434 120.909 175.919C118.781 173.346 117.405 170.42 116.806 167.136C116.511 165.517 116.459 163.888 116.655 162.254C116.768 161.306 116.999 160.385 117.293 159.479C118.114 156.959 119.424 154.723 121.266 152.818C124.613 149.355 128.703 147.527 133.535 147.386C134.573 147.356 135.603 147.441 136.628 147.614C137.418 147.748 138.201 147.912 138.964 148.155C141.204 148.867 143.245 149.948 145.036 151.475C147.904 153.921 149.798 156.973 150.711 160.625C151.195 162.562 151.325 164.526 151.113 166.512C151.041 167.185 150.946 167.854 150.778 168.51C150.639 169.056 150.518 169.608 150.341 170.141C149.684 172.12 148.722 173.942 147.406 175.566C144.916 178.638 141.748 180.659 137.902 181.608C136.083 182.057 134.236 182.183 132.368 182.011C131.502 181.931 130.646 181.793 129.804 181.573C129.702 181.546 129.594 181.544 129.489 181.53L128.742 181.316ZM124.131 156.737C124.377 156.904 124.636 157.25 124.789 157.608C125.066 158.257 125.067 158.914 124.813 159.564C124.726 159.789 124.768 159.952 124.914 160.125C125.247 160.518 125.63 160.853 126.047 161.15C126.647 161.576 127.284 161.926 128.001 162.12C128.114 162.151 128.202 162.152 128.289 162.058C128.612 161.709 128.823 161.302 128.919 160.839C128.969 160.597 128.99 160.35 129.027 160.084C129.22 160.261 129.378 160.446 129.495 160.659C129.612 160.872 129.72 161.092 129.799 161.321C129.877 161.547 129.913 161.787 129.97 162.032C130.019 162.02 130.061 162.021 130.089 162.002C130.276 161.872 130.478 161.757 130.641 161.602C131.161 161.105 131.366 160.451 131.481 159.768C131.579 159.189 131.587 158.603 131.543 158.017C131.539 157.962 131.546 157.906 131.548 157.832C131.604 157.866 131.639 157.881 131.668 157.905C132.108 158.266 132.487 158.68 132.78 159.169C133.503 160.374 133.733 161.691 133.658 163.072C133.647 163.28 133.702 163.4 133.879 163.516C134.559 163.962 135.05 164.572 135.384 165.314C135.462 165.486 135.448 165.619 135.349 165.777C134.916 166.462 134.412 167.089 133.834 167.656C132.202 169.257 130.256 170.215 127.976 170.478C127.194 170.568 126.41 170.571 125.628 170.481C125.445 170.46 125.297 170.484 125.2 170.655C125.185 170.682 125.161 170.702 125.143 170.727C124.311 171.817 123.69 173.004 123.427 174.364C123.314 174.95 123.28 175.538 123.315 176.133C123.323 176.272 123.374 176.377 123.483 176.466C123.671 176.62 123.848 176.789 124.037 176.942C124.886 177.633 125.825 178.183 126.793 178.685C126.926 178.753 127.06 178.819 127.246 178.912C127.29 177.965 127.376 177.068 127.627 176.197C127.88 175.321 128.236 174.489 128.671 173.672C128.687 173.706 128.699 173.72 128.698 173.731C128.614 174.389 128.6 175.05 128.624 175.711C128.671 177.013 128.888 178.283 129.338 179.509C129.393 179.659 129.473 179.744 129.632 179.788C130.197 179.947 130.764 180.092 131.345 180.186C132.182 180.321 133.022 180.388 133.869 180.38C133.941 180.379 134.013 180.37 134.113 180.363C134.08 180.238 134.058 180.144 134.031 180.051C133.535 178.341 133.213 176.602 133.165 174.818C133.143 173.962 133.184 173.11 133.323 172.261C133.348 172.318 133.36 172.376 133.373 172.434C133.763 174.17 134.294 175.86 135.055 177.472C135.469 178.35 135.956 179.184 136.559 179.948C136.662 180.079 136.764 180.118 136.929 180.081C138.449 179.744 139.894 179.203 141.283 178.508C141.348 178.476 141.406 178.431 141.462 178.395C141.449 178.356 141.448 178.339 141.439 178.328C141.405 178.287 141.37 178.247 141.333 178.209C140.106 176.985 139.128 175.587 138.406 174.013C137.95 173.019 137.611 171.986 137.427 170.906C137.418 170.855 137.421 170.802 137.418 170.75C137.598 171.011 137.738 171.282 137.895 171.541C138.809 173.048 139.961 174.348 141.32 175.468C141.879 175.929 142.468 176.348 143.083 176.731C143.317 176.877 143.319 176.877 143.511 176.662C143.608 176.555 143.704 176.446 143.795 176.334C144.726 175.199 145.517 173.981 146.068 172.612C146.33 171.96 146.522 171.291 146.625 170.596C146.633 170.541 146.616 170.481 146.611 170.426C144.346 170.297 142.249 169.697 140.296 168.519C140.89 168.613 141.449 168.714 142.012 168.789C143.089 168.932 144.168 168.935 145.244 168.765C145.886 168.663 146.517 168.521 147.097 168.21C147.576 167.952 147.979 167.616 148.229 167.119C148.312 166.953 148.316 166.825 148.183 166.667C147.82 166.236 147.48 165.786 147.132 165.342C147.073 165.266 147.021 165.185 146.951 165.085C147.005 165.096 147.029 165.097 147.048 165.106C147.563 165.369 148.078 165.632 148.593 165.896C148.849 166.028 148.883 166.024 149.085 165.818C149.218 165.682 149.228 165.67 149.135 165.503C148.932 165.136 148.734 164.766 148.509 164.413C147.528 162.877 146.301 161.561 144.883 160.42C143.308 159.154 141.569 158.172 139.662 157.507C138.937 157.255 138.182 157.083 137.435 156.898C136.642 156.702 135.83 156.627 135.017 156.57C134.815 156.556 134.612 156.541 134.394 156.525C134.429 156.461 134.447 156.419 134.472 156.382C135.208 155.323 136.391 154.777 137.783 155.034C138.114 155.095 138.11 155.103 138.294 154.826C139.401 153.157 141.234 152.292 143.361 152.682C143.528 152.713 143.696 152.737 143.864 152.763C143.871 152.749 143.879 152.735 143.886 152.72C143.842 152.674 143.802 152.623 143.753 152.583C142.305 151.368 140.656 150.515 138.877 149.902C138.496 149.771 138.105 149.664 137.714 149.567C137.264 149.455 136.809 149.358 136.353 149.269C135.423 149.088 134.482 149.026 133.536 149.038C132.365 149.053 131.212 149.21 130.081 149.515C130 149.537 129.897 149.529 129.854 149.615C130.353 150.003 130.857 150.37 131.333 150.769C131.816 151.172 132.235 151.639 132.587 152.165C132.55 152.165 132.522 152.154 132.498 152.139C131.962 151.813 131.391 151.562 130.802 151.353C130.203 151.141 129.583 151.014 128.951 150.957C127.683 150.844 126.477 151.064 125.341 151.644C124.44 152.103 123.7 152.772 122.962 153.444C122.931 153.472 122.913 153.514 122.873 153.575C123.354 153.591 123.807 153.589 124.258 153.624C124.713 153.66 125.169 153.71 125.617 153.795C126.072 153.881 126.526 153.995 126.968 154.136C127.402 154.275 127.822 154.461 128.245 154.632C128.685 154.808 129.281 155.14 129.401 155.257C128.901 155.161 128.38 155.047 127.854 154.963C126.847 154.802 125.837 154.795 124.827 154.939C123.054 155.191 121.504 155.913 120.199 157.144C120.096 157.241 120.001 157.357 119.936 157.482C119.614 158.094 119.336 158.726 119.096 159.376C118.828 160.099 118.628 160.839 118.477 161.593C118.468 161.64 118.482 161.691 118.487 161.764C118.886 161.521 119.253 161.279 119.638 161.069C120.026 160.859 120.425 160.664 120.832 160.495C121.239 160.325 121.659 160.181 122.081 160.053C122.5 159.927 122.929 159.836 123.419 159.713C123.343 159.616 123.283 159.555 123.241 159.484C122.976 159.039 122.923 158.561 123.09 158.078C123.265 157.571 123.595 157.162 124.004 156.818C124.043 156.784 124.091 156.762 124.131 156.737ZM128.333 164.477C128.44 164.11 128.359 163.779 128.108 163.495C127.8 163.147 127.41 163.045 126.971 163.187C126.621 163.302 126.382 163.537 126.291 163.901C126.478 164.023 128.121 164.486 128.333 164.477ZM141.031 155.06C141.272 155.129 141.511 155.202 141.754 155.267C141.936 155.316 141.963 155.294 141.982 155.105C142.024 154.666 141.727 154.236 141.302 154.118C140.871 153.999 140.375 154.226 140.192 154.626C140.134 154.753 140.15 154.803 140.286 154.845C140.533 154.922 140.782 154.989 141.031 155.06Z" fill="white"/>
<path d="M155.393 169.846C155.766 168.544 156.138 167.241 156.511 165.939C156.603 165.619 156.616 165.611 156.941 165.704C157.931 165.987 158.922 166.265 159.91 166.556C160.713 166.792 161.47 167.123 162.105 167.687C163.224 168.68 163.679 169.918 163.47 171.394C163.357 172.196 163.097 172.947 162.621 173.608C161.886 174.628 160.871 175.159 159.627 175.276C158.959 175.338 158.302 175.261 157.66 175.083C156.587 174.785 155.518 174.472 154.448 174.166C154.404 174.153 154.36 174.14 154.316 174.127C154.224 174.101 154.199 174.038 154.221 173.951C154.24 173.878 154.26 173.804 154.28 173.731C154.651 172.436 155.022 171.141 155.393 169.846ZM157.594 170.479C157.391 171.188 157.187 171.896 156.986 172.606C156.926 172.821 156.943 172.856 157.158 172.916C157.576 173.032 157.992 173.161 158.417 173.244C159.112 173.38 159.736 173.2 160.253 172.717C160.738 172.264 160.98 171.686 161.083 171.035C161.298 169.677 160.471 168.799 159.483 168.482C159.164 168.379 158.84 168.292 158.518 168.2C158.279 168.132 158.27 168.139 158.197 168.374C158.186 168.41 158.176 168.447 158.165 168.483C157.975 169.148 157.784 169.814 157.594 170.479Z" fill="white"/>
<path d="M180.177 174.685C180.115 175.448 179.912 176.084 179.194 176.423C179.019 176.505 178.935 176.624 178.88 176.806C178.658 177.54 178.155 177.983 177.413 178.159C176.977 178.263 176.539 178.239 176.099 178.164C175.674 178.092 175.271 177.962 174.886 177.773C174.783 177.722 174.712 177.753 174.652 177.839C174.563 177.964 174.569 178.128 174.691 178.231C174.776 178.303 174.882 178.36 174.988 178.392C175.616 178.58 176.249 178.751 176.876 178.944C177.13 179.021 177.381 179.119 177.617 179.24C178.269 179.574 178.756 180.252 178.468 181.236C178.245 181.995 177.749 182.47 176.983 182.664C176.433 182.802 175.878 182.783 175.328 182.68C174.917 182.602 174.508 182.504 174.11 182.377C173.559 182.201 173.014 181.998 172.539 181.654C172.398 181.552 172.263 181.438 172.142 181.313C171.507 180.655 171.747 179.605 172.616 179.248C172.712 179.208 172.81 179.173 172.934 179.125C172.683 178.698 172.585 178.27 172.765 177.806C172.946 177.339 173.303 177.085 173.795 176.951C173.755 176.863 173.732 176.794 173.696 176.733C173.109 175.73 173.612 173.969 175.169 173.73C175.566 173.669 175.962 173.674 176.35 173.755C176.972 173.885 177.571 174.08 178.097 174.458C178.435 174.701 178.812 174.859 179.232 174.904C179.474 174.929 179.701 174.884 179.923 174.793C179.998 174.762 180.072 174.73 180.177 174.685ZM175.146 180.261L175.147 180.258C174.833 180.168 174.518 180.078 174.203 179.988C173.984 179.925 173.854 180.003 173.818 180.228C173.794 180.379 173.826 180.523 173.945 180.623C174.049 180.71 174.163 180.791 174.285 180.848C174.743 181.065 175.229 181.19 175.729 181.255C175.891 181.276 176.064 181.257 176.224 181.222C176.365 181.191 176.454 181.076 176.467 180.924C176.479 180.777 176.404 180.676 176.279 180.612C176.205 180.574 176.126 180.544 176.047 180.52C175.747 180.432 175.447 180.347 175.146 180.261ZM176.046 176.701C176.066 176.706 176.11 176.72 176.155 176.727C176.538 176.788 176.874 176.597 177.014 176.238C177.136 175.928 177.021 175.57 176.736 175.37C176.527 175.223 176.295 175.162 176.043 175.196C175.745 175.235 175.536 175.395 175.439 175.683C175.285 176.141 175.524 176.554 176.046 176.701Z" fill="white"/>
<path d="M157.871 161.121C157.943 161.225 157.986 161.286 158.026 161.347C158.525 162.115 159.193 162.69 160.033 163.051C160.318 163.174 160.617 163.281 160.937 163.271C161.245 163.262 161.433 163.124 161.526 162.855C161.6 162.643 161.571 162.448 161.416 162.283C161.328 162.189 161.232 162.101 161.13 162.023C160.688 161.685 160.244 161.352 159.799 161.019C159.396 160.717 159.056 160.363 158.852 159.897C158.562 159.232 158.579 158.564 158.865 157.905C159.304 156.895 160.123 156.42 161.183 156.305C161.672 156.252 162.153 156.306 162.629 156.435C163.2 156.59 163.751 156.788 164.226 157.146C164.492 157.346 164.727 157.587 164.974 157.812C165.054 157.885 165.074 157.971 165.042 158.08C164.854 158.723 164.672 159.367 164.486 160.01C164.481 160.029 164.464 160.045 164.443 160.077C164.403 160.03 164.369 159.993 164.338 159.953C163.838 159.294 163.198 158.819 162.434 158.507C162.233 158.425 162.021 158.402 161.806 158.435C161.401 158.497 161.269 158.948 161.476 159.222C161.544 159.311 161.627 159.394 161.715 159.463C162.158 159.812 162.612 160.147 163.047 160.504C163.263 160.682 163.47 160.88 163.641 161.1C164.097 161.683 164.206 162.35 164.042 163.063C163.949 163.465 163.816 163.851 163.578 164.196C163.076 164.923 162.367 165.282 161.502 165.362C161.012 165.408 160.533 165.347 160.052 165.241C159.372 165.09 158.753 164.814 158.197 164.4C157.858 164.148 157.569 163.846 157.339 163.49C157.285 163.407 157.237 163.326 157.27 163.215C157.468 162.536 157.661 161.856 157.871 161.121Z" fill="white"/>
<path d="M159.038 184.163L158.481 186.11C158.299 186.11 151.38 184.148 151.01 183.991C151.087 183.917 151.154 183.85 151.224 183.786C152.987 182.15 154.751 180.515 156.514 178.88C156.584 178.814 156.648 178.743 156.748 178.64C156.627 178.599 156.546 178.568 156.462 178.544C155.466 178.258 154.468 177.973 153.471 177.687C153.273 177.63 153.203 177.5 153.26 177.295C153.388 176.849 153.515 176.403 153.644 175.956C153.737 175.631 153.75 175.623 154.069 175.714C155.059 175.997 156.049 176.281 157.038 176.564C158.234 176.906 159.428 177.248 160.623 177.59L160.905 177.671C159.926 178.59 158.985 179.473 158.045 180.356C157.105 181.24 156.161 182.119 155.184 183.045C155.479 183.156 155.729 183.213 155.973 183.285C156.229 183.361 156.486 183.433 156.743 183.506L158.26 183.941C158.509 184.012 158.757 184.083 159.038 184.163Z" fill="white"/>
<path d="M163.728 180.933C164.704 181.218 165.399 181.633 165.906 182.324C166.409 183.009 166.568 183.778 166.447 184.614C166.373 185.126 166.206 185.601 165.94 186.043C165.528 186.725 164.937 187.177 164.173 187.4C162.776 187.809 161.057 187.28 160.143 186.148C159.526 185.384 159.34 184.508 159.535 183.551C159.628 183.095 159.768 182.653 160.024 182.258C160.634 181.315 161.52 180.861 162.629 180.816C163.058 180.799 163.48 180.853 163.728 180.933ZM161.834 183.808C161.774 184.054 161.749 184.294 161.796 184.538C161.884 184.999 162.151 185.295 162.607 185.428C163.07 185.565 163.468 185.465 163.787 185.107C164.072 184.788 164.198 184.406 164.185 183.976C164.172 183.564 163.973 183.099 163.34 182.912C162.781 182.746 162.341 182.956 162.077 183.349C161.98 183.492 161.914 183.654 161.834 183.808Z" fill="white"/>
<path d="M186.296 180.004C186.173 180.477 185.96 180.902 185.651 181.278C185.044 182.018 184.244 182.375 183.299 182.41C182.397 182.443 181.561 182.209 180.823 181.686C179.76 180.934 179.289 179.909 179.465 178.607C179.534 178.088 179.702 177.603 179.976 177.157C180.398 176.47 181.005 176.027 181.779 175.812C183.146 175.432 184.852 175.964 185.755 177.058C186.302 177.72 186.522 178.484 186.424 179.335C186.399 179.56 186.339 179.781 186.296 180.004ZM184.097 179.389C184.113 179.191 184.149 179.003 184.139 178.816C184.111 178.273 183.792 177.935 183.308 177.791C182.784 177.636 182.338 177.801 182.038 178.219C181.814 178.532 181.717 178.887 181.739 179.272C181.766 179.767 182.061 180.151 182.516 180.29C183.054 180.456 183.505 180.33 183.814 179.904C183.928 179.748 184.004 179.562 184.097 179.389Z" fill="white"/>
<path d="M166.743 185.232C166.995 184.341 167.496 183.644 168.329 183.211C168.927 182.9 169.571 182.801 170.236 182.87C171.071 182.956 171.84 183.234 172.486 183.785C173.394 184.561 173.747 185.542 173.56 186.724C173.462 187.339 173.234 187.896 172.857 188.385C172.317 189.085 171.587 189.469 170.713 189.552C169.612 189.655 168.606 189.375 167.751 188.667C166.773 187.858 166.417 186.811 166.666 185.566C166.689 185.454 166.718 185.344 166.743 185.232ZM169.694 187.455C170.251 187.642 170.753 187.359 170.998 186.966C171.162 186.701 171.261 186.419 171.264 186.107C171.271 185.5 170.977 185.099 170.41 184.936C169.79 184.759 169.337 185.043 169.087 185.477C168.967 185.685 168.896 185.909 168.866 186.142C168.782 186.795 169.127 187.321 169.694 187.455Z" fill="white"/>
<path d="M170.786 166.362C170.758 166.938 170.197 167.617 169.636 167.769C169.222 167.881 168.836 167.772 168.454 167.63C168.126 167.508 167.968 167.345 167.619 166.786C167.579 166.797 167.534 166.803 167.495 166.822C167.042 167.041 166.569 167.053 166.089 166.953C165.655 166.862 165.23 166.741 164.868 166.466C164.35 166.073 164.035 165.57 164.077 164.906C164.131 164.065 164.665 163.49 165.41 163.265C165.862 163.129 166.324 163.107 166.79 163.149C167.229 163.189 167.668 163.239 168.107 163.283C168.166 163.289 168.226 163.283 168.295 163.283C168.366 163.105 168.289 162.963 168.205 162.829C168.072 162.615 167.874 162.464 167.646 162.374C166.916 162.085 166.17 162.007 165.414 162.272C165.251 162.329 165.096 162.409 164.9 162.495C164.974 162.308 165.029 162.146 165.101 161.993C165.573 160.975 166.466 160.47 167.597 160.57C168.285 160.631 168.925 160.835 169.502 161.216C170.247 161.708 170.585 162.415 170.533 163.298C170.516 163.591 170.454 163.885 170.382 164.171C170.271 164.613 170.134 165.05 170.009 165.489C169.992 165.547 169.973 165.605 169.961 165.665C169.887 166.022 170.084 166.303 170.449 166.35C170.56 166.365 170.674 166.359 170.786 166.362ZM167.968 164.573C167.571 164.528 167.218 164.487 166.862 164.531C166.817 164.537 166.774 164.557 166.732 164.574C166.539 164.65 166.458 164.809 166.44 165C166.423 165.185 166.513 165.332 166.67 165.416C166.983 165.584 167.308 165.605 167.629 165.43C167.679 165.402 167.737 165.355 167.754 165.305C167.829 165.076 167.89 164.843 167.968 164.573Z" fill="white"/>
<path d="M174.708 162.709C174.652 162.947 174.606 163.143 174.546 163.392C174.651 163.339 174.703 163.316 174.751 163.287C175.437 162.874 176.147 162.87 176.876 163.162C177.169 163.279 177.436 163.438 177.656 163.666C178.12 164.146 178.253 164.731 178.181 165.372C178.156 165.59 178.108 165.807 178.048 166.018C177.713 167.205 177.372 168.389 177.032 169.574L176.96 169.826C176.767 169.846 175.096 169.383 174.841 169.243C174.859 169.163 174.875 169.076 174.899 168.991C175.181 168.003 175.465 167.015 175.746 166.027C175.776 165.925 175.807 165.821 175.814 165.716C175.851 165.173 175.464 164.786 174.896 164.789C174.486 164.79 174.019 165.098 173.909 165.527C173.659 166.492 173.368 167.446 173.093 168.404C173.076 168.462 173.062 168.522 173.041 168.579C172.99 168.722 172.967 168.742 172.824 168.702C172.23 168.535 171.637 168.362 171.043 168.193C170.934 168.162 170.894 168.096 170.924 167.988C170.941 167.929 170.956 167.87 170.972 167.811C171.486 166.019 171.999 164.227 172.512 162.434C172.574 162.216 172.713 162.138 172.928 162.199C173.434 162.344 173.94 162.489 174.446 162.634C174.524 162.656 174.603 162.679 174.708 162.709Z" fill="white"/>
<path d="M172.662 176.357C172.564 176.329 172.47 176.302 172.376 176.275C171.305 175.968 170.235 175.661 169.164 175.357C169.064 175.328 168.961 175.315 168.854 175.293C168.793 175.436 168.811 175.555 168.84 175.672C168.901 175.926 169.048 176.126 169.236 176.301C169.479 176.528 169.762 176.695 170.07 176.808C170.63 177.014 171.206 177.161 171.812 177.126C172 177.115 172.188 177.082 172.39 177.058C172.391 177.255 172.28 177.413 172.193 177.572C171.792 178.303 171.157 178.676 170.334 178.702C169.351 178.732 168.449 178.454 167.658 177.869C166.831 177.258 166.437 176.42 166.49 175.397C166.537 174.494 166.817 173.664 167.412 172.968C168.104 172.158 168.997 171.842 170.049 171.965C170.614 172.032 171.151 172.196 171.636 172.504C172.312 172.934 172.709 173.549 172.856 174.33C172.968 174.931 172.904 175.526 172.774 176.117C172.763 176.168 172.745 176.219 172.727 176.269C172.72 176.289 172.701 176.305 172.662 176.357ZM169.198 174.099C169.742 174.258 170.291 174.416 170.836 174.567C170.993 174.274 170.964 173.946 170.777 173.715C170.558 173.446 170.111 173.318 169.76 173.423C169.458 173.514 169.232 173.773 169.198 174.099Z" fill="white"/>
<path d="M165.009 177.178L162.971 176.594C162.959 176.574 162.955 176.567 162.952 176.56C162.949 176.554 162.945 176.546 162.946 176.539C162.959 176.472 162.969 176.405 162.988 176.34C163.531 174.445 164.074 172.55 164.619 170.656C164.625 170.636 164.644 170.619 164.656 170.603C164.832 170.605 166.478 171.065 166.716 171.177C166.721 171.185 166.725 171.191 166.729 171.198C166.732 171.205 166.736 171.213 166.735 171.219C166.722 171.286 166.712 171.354 166.693 171.419C166.15 173.314 165.607 175.209 165.062 177.103C165.056 177.123 165.037 177.139 165.009 177.178Z" fill="white"/>
<path d="M167.331 169.392C167.227 169.899 166.65 170.333 165.921 170.114C165.272 169.918 164.952 169.362 165.138 168.738C165.326 168.111 165.896 167.814 166.542 167.996C167.235 168.191 167.527 168.846 167.331 169.392Z" fill="white"/>
<path d="M141.445 161.503L138.793 160.744C138.826 160.644 138.842 160.547 138.888 160.468C139.212 159.914 139.887 159.637 140.524 159.846C141.133 160.046 141.538 160.615 141.496 161.257C141.491 161.33 141.467 161.402 141.445 161.503Z" fill="white"/>
</svg>
