<svg width="309" height="278" viewBox="0 0 309 278" fill="none" xmlns="http://www.w3.org/2000/svg">
<g clip-path="url(#clip0_7124_8373)">
<path d="M102.744 35.1703L122.493 38.5758L152.371 48.2239L185.729 57.4666L209.281 76.4717L189.52 126.777L84.5678 85.5735L93.6557 60.3719L98.1997 47.7711L99.3357 44.6209L101.747 43.7734L100.472 41.4707L102.744 35.1703Z" fill="black" stroke="#FBFEFC" stroke-width="2"/>
<path d="M208.839 76.6296L185.162 57.6733L200.183 82.1787L208.839 76.6296Z" fill="#FBFEFC"/>
<path d="M123.132 57.1465L118.945 57.7709L121.587 61.0808L125.768 60.4494L123.132 57.1465Z" fill="#FBFEFC"/>
<path d="M118.481 57.8381L114.304 58.4711L116.936 61.7725L121.115 61.145L118.481 57.8381Z" fill="#FBFEFC"/>
<path d="M126.06 60.8138L121.88 61.4452L124.516 64.7481L128.694 64.1207L126.06 60.8138Z" fill="#FBFEFC"/>
<path d="M128.984 64.4871L124.805 65.1146L127.441 68.4175L131.62 67.79L128.984 64.4871Z" fill="#FBFEFC"/>
<path d="M113.837 58.5407L109.663 59.1698L112.294 62.4711L116.473 61.8436L113.837 58.5407Z" fill="#FBFEFC"/>
<path d="M104.364 72.1062L106.999 75.4091L108.544 71.4748L105.908 68.1719L104.364 72.1062Z" fill="#FBFEFC"/>
<path d="M107.29 75.7741L109.922 79.0889L111.469 75.1467L108.833 71.8438L107.29 75.7741Z" fill="#FBFEFC"/>
<path d="M106.08 67.7346L108.716 71.0375L110.259 67.1072L107.625 63.8003L106.08 67.7346Z" fill="#FBFEFC"/>
<path d="M107.796 63.3651L110.431 66.668L111.979 62.7258L109.343 59.4229L107.796 63.3651Z" fill="#FBFEFC"/>
<path d="M110.213 79.455L112.856 82.761L114.404 78.8187L111.76 75.5127L110.213 79.455Z" fill="#FBFEFC"/>
<path d="M126.71 80.8793L122.519 81.5021L124.064 77.5677L128.255 76.9449L126.71 80.8793Z" fill="#FBFEFC"/>
<path d="M122.057 81.5722L117.877 82.2131L119.425 78.2709L123.6 77.6418L122.057 81.5722Z" fill="#FBFEFC"/>
<path d="M128.425 76.5082L124.235 77.131L125.778 73.2006L129.97 72.5738L128.425 76.5082Z" fill="#FBFEFC"/>
<path d="M130.141 72.1386L125.95 72.7615L127.498 68.8192L131.688 68.1964L130.141 72.1386Z" fill="#FBFEFC"/>
<path d="M117.411 82.2823L113.236 82.9114L114.784 78.9691L118.959 78.3401L117.411 82.2823Z" fill="#FBFEFC"/>
<path d="M114.722 78.5691L118.903 77.9377L116.267 74.6348L112.08 75.2591L114.722 78.5691Z" fill="#FBFEFC"/>
<path d="M119.365 77.8677L123.544 77.2402L120.908 73.9373L116.729 74.5648L119.365 77.8677Z" fill="#FBFEFC"/>
<path d="M111.785 74.8935L115.964 74.266L113.328 70.9631L109.153 71.5921L111.785 74.8935Z" fill="#FBFEFC"/>
<path d="M127.122 68.6705L124.49 65.3691L122.942 69.3114L125.574 72.6128L127.122 68.6705Z" fill="#FBFEFC"/>
<path d="M124.196 65.0031L121.565 61.6978L120.021 65.6321L122.648 68.9453L124.196 65.0031Z" fill="#FBFEFC"/>
<path d="M125.401 73.0529L122.771 69.7476L121.226 73.6819L123.858 76.9832L125.401 73.0529Z" fill="#FBFEFC"/>
<path d="M112.355 62.8744L116.534 62.2469L114.986 66.1892L110.807 66.8166L112.355 62.8744Z" fill="#FBFEFC"/>
<path d="M116.996 62.1767L121.184 61.5483L119.64 65.4827L115.448 66.1189L116.996 62.1767Z" fill="#FBFEFC"/>
<path d="M110.635 67.2558L114.815 66.6243L113.27 70.5587L109.092 71.1862L110.635 67.2558Z" fill="#FBFEFC"/>
<path d="M120.846 73.5327L122.391 69.5984L118.214 70.2314L116.671 74.1617L120.846 73.5327Z" fill="#FBFEFC"/>
<path d="M113.647 70.7068L116.283 74.0097L117.826 70.0793L115.192 66.7725L113.647 70.7068Z" fill="#FBFEFC"/>
<path d="M119.701 65.8862L115.51 66.5225L118.154 69.8285L122.333 69.201L119.701 65.8862Z" fill="#FBFEFC"/>
<path d="M141.855 88.2753L142.041 85.6823L137.267 83.808L135.599 85.8192L131.606 84.2513L143.345 70.9579L146.285 72.112L145.841 89.8401L141.855 88.2753ZM142.604 77.4575L139.586 81.0464L142.288 82.1072L142.604 77.4575Z" fill="#FBFEFC"/>
<path d="M155.381 92.0033C153.986 92.5665 152.429 92.5741 151.029 92.0244C149.629 91.4747 148.492 90.4095 147.853 89.0479C147.293 87.5979 147.421 86.3632 148.328 84.0533C149.235 81.7434 149.975 80.7538 151.378 80.0698C152.773 79.5065 154.33 79.499 155.73 80.0487C157.13 80.5984 158.267 81.6635 158.906 83.0252C159.466 84.4752 159.326 85.7281 158.427 88.0182C157.528 90.3083 156.78 91.3177 155.381 92.0033ZM155.293 83.9708C155.099 83.653 154.807 83.4073 154.461 83.2714C154.114 83.1354 153.733 83.1166 153.375 83.2179C152.736 83.4931 152.348 84.2963 151.894 85.4532C151.44 86.6102 151.183 87.4607 151.459 88.0992C151.652 88.417 151.944 88.6626 152.291 88.7986C152.637 88.9345 153.018 88.9533 153.376 88.852C154.015 88.5768 154.403 87.7736 154.857 86.6167C155.312 85.4598 155.569 84.6053 155.289 83.9692L155.293 83.9708Z" fill="#FBFEFC"/>
<path d="M166.13 91.4034L163.8 90.4888L161.623 96.0357L157.811 94.5394L163.901 79.0278L170.046 81.4404C173.481 82.789 174.379 85.9536 173.377 88.5052C172.375 91.0568 169.569 92.7536 166.13 91.4034ZM168.53 84.7778L166.375 83.9316L165.138 87.0814L167.293 87.9276C167.506 88.0479 167.741 88.1211 167.984 88.1425C168.227 88.1638 168.472 88.1327 168.702 88.0512C168.931 87.9698 169.141 87.8399 169.316 87.6704C169.492 87.5008 169.629 87.2956 169.718 87.0686C169.807 86.8416 169.846 86.5981 169.833 86.3545C169.82 86.111 169.755 85.8732 169.641 85.6571C169.528 85.441 169.37 85.2517 169.178 85.1021C168.985 84.9524 168.763 84.8459 168.525 84.7897L168.53 84.7778Z" fill="#FBFEFC"/>
<path d="M175.556 101.658C173.179 100.725 171.413 99.5281 170.477 97.2995L173.876 95.8171C174.357 96.9206 175.671 97.7793 176.911 98.2661C178.412 98.8557 179.33 98.6395 179.681 97.7441C179.832 97.419 179.851 97.0482 179.735 96.7091C179.54 96.3564 179.236 96.0765 178.869 95.9116L177.097 94.9143C175.804 94.178 174.937 93.3118 174.521 92.3209C174.106 91.33 174.157 90.1155 174.678 88.7882C175.79 85.9554 178.738 84.7256 182.268 86.1115C184.491 86.9841 185.961 88.1651 186.772 90.015L183.461 91.459C182.867 90.0961 181.554 89.654 180.88 89.3896C179.553 88.8685 178.708 89.4145 178.442 90.0921C178.339 90.3632 178.347 90.6641 178.465 90.929C178.654 91.314 178.968 91.623 179.356 91.8046L181.128 92.8018C182.444 93.5475 183.256 94.369 183.674 95.2833C184.191 96.4008 184.061 97.6987 183.497 99.1369C182.221 102.294 178.825 102.941 175.556 101.658Z" fill="#FBFEFC"/>
<path d="M139.725 101.334L85.5745 85.5971L157.953 113.793L139.725 101.334Z" fill="#FBFEFC"/>
</g>
<path d="M191.352 100.976L205.588 111.467L216.587 127.587L230.587 144.275L240.165 153.947L242.56 156.365L241.517 160.711L244.954 158.784L249.743 163.62L265.34 186.054L252.021 197.638L226.41 226.937L199.329 195.797L174.135 166.828L161.539 152.343L158.389 148.722L157.577 144.928L155.24 145.1L148.942 137.858L191.352 100.976Z" fill="black" stroke="#FBFEFC" stroke-width="2"/>
<path d="M193.297 108.098L191.429 101.764L205.513 111.988L193.297 108.098Z" fill="#FBFEFC"/>
<path d="M184.311 134.568L185.831 136.243L177.534 143.715L176.014 142.04L184.311 134.568Z" fill="#FBFEFC"/>
<path d="M193.003 134.409L194.595 136.141L181.305 148.033L179.739 146.33L193.003 134.409Z" fill="#FBFEFC"/>
<path d="M196.799 138.772L198.39 140.504L185.1 152.397L183.535 150.694L196.799 138.772Z" fill="#FBFEFC"/>
<path d="M193.567 162.151L192.152 160.539L193.416 159.383L193.392 159.356C192.164 159.741 190.599 159.202 189.449 157.89C187.986 156.224 187.663 153.91 189.875 151.887L195.192 147.024L196.631 148.663L191.761 153.117C190.207 154.537 190.443 155.996 191.33 157.007C192.529 158.372 194.258 158.613 196.154 156.879L200.392 153.003L201.831 154.642L193.591 162.178L193.567 162.151Z" fill="#FBFEFC"/>
<path d="M203.427 156.551L204.756 158.072L203.471 159.255L203.495 159.282C204.135 158.986 206.034 159.101 207.363 160.623C208.455 161.872 208.69 163.224 208.168 164.685C209.663 164.338 211.16 164.969 212.039 165.974C214.317 168.582 213.053 170.873 211.218 172.563L206.444 176.957L205.044 175.354L209.607 171.153C210.866 169.995 211.757 168.685 210.38 167.109C209.003 165.533 207.458 165.877 205.99 167.229L201.505 171.358L200.081 169.728L204.382 165.768C205.93 164.344 206.844 163.061 205.491 161.513C204.47 160.345 202.729 160.085 200.867 161.799L196.592 165.734L195.216 164.159L203.427 156.551Z" fill="#FBFEFC"/>
<path d="M216.472 171.55L218.016 173.253L209.719 180.725L208.175 179.023L216.472 171.55Z" fill="#FBFEFC"/>
<path d="M219.884 175.472L221.298 177.083L220.034 178.239L220.058 178.267C221.287 177.882 222.851 178.421 224.002 179.732C225.464 181.398 225.787 183.713 223.576 185.735L218.258 190.598L216.82 188.959L221.69 184.505C223.243 183.085 223.007 181.626 222.12 180.616C220.921 179.25 219.192 179.01 217.297 180.743L213.058 184.619L211.62 182.98L219.86 175.445L219.884 175.472Z" fill="#FBFEFC"/>
<path d="M228.764 194.43L228.237 194.912C227.131 195.923 225.289 196.474 223.705 194.67C222.722 193.549 222.493 192.478 223.44 191.611C224.757 190.407 226.676 192.053 228.02 193.583L228.764 194.43ZM227.095 187.827C228.071 188.019 229.099 188.162 230.179 189.392C231.402 190.786 231.083 192.26 230.24 193.031L229.898 193.344L228.842 192.141C226.563 189.545 223.978 188.114 221.871 190.04C220.265 191.509 220.596 193.669 221.988 195.255C223.14 196.566 224.374 197.162 226.102 196.913L226.126 196.94C225.705 197.325 225.307 197.738 224.91 198.15L226.182 199.599C226.581 199.135 227.031 198.674 227.611 198.145L231.823 194.293C233.245 192.993 233.65 190.751 231.418 188.21C230.363 187.007 228.84 186.084 227.232 185.928L227.095 187.827Z" fill="#FBFEFC"/>
<path d="M189.141 131.922C188.616 131.322 187.712 131.265 187.133 131.795C186.555 132.325 186.511 133.249 187.037 133.849C187.563 134.449 188.466 134.506 189.045 133.976C189.623 133.446 189.667 132.522 189.141 131.922Z" fill="#FBFEFC"/>
<path d="M228.472 205.08L209.075 197.11L174.132 180.069L169.06 180.587L165.799 176.668L144.958 169.776L125.857 161.006L122.002 170.449L117.537 177.699L111.035 188.578L104.611 209.363L208.972 255.857L213.065 244.243L211.977 240.558L214.721 238.762L224.96 216.695L228.472 205.08Z" fill="black" stroke="#FBFEFC" stroke-width="2"/>
<path d="M126.747 171.819L115.596 182.091L126.483 161.312L126.747 171.819Z" fill="#FBFEFC"/>
<g clip-path="url(#clip1_7124_8373)">
<path d="M142.485 214.893C142.419 214.844 142.359 214.784 142.286 214.749C141.22 214.228 140.241 213.574 139.325 212.824C137.8 211.577 136.534 210.103 135.513 208.423C133.778 205.57 132.838 202.476 132.72 199.14C132.661 197.495 132.844 195.876 133.273 194.287C133.522 193.366 133.883 192.487 134.306 191.633C135.481 189.258 137.1 187.234 139.197 185.615C143.009 182.671 147.32 181.452 152.122 182.009C153.152 182.129 154.16 182.362 155.149 182.681C155.911 182.927 156.662 183.203 157.383 183.553C159.497 184.58 161.361 185.944 162.913 187.714C165.398 190.547 166.832 193.841 167.209 197.586C167.408 199.573 167.254 201.535 166.758 203.469C166.589 204.125 166.399 204.774 166.138 205.399C165.922 205.919 165.722 206.447 165.47 206.949C164.535 208.814 163.32 210.477 161.784 211.894C158.877 214.576 155.451 216.118 151.508 216.503C149.643 216.685 147.797 216.544 145.974 216.104C145.128 215.9 144.301 215.64 143.5 215.301C143.403 215.26 143.297 215.242 143.194 215.213L142.485 214.893L142.485 214.893ZM141.467 189.907C141.687 190.107 141.893 190.487 141.993 190.863C142.174 191.545 142.079 192.195 141.735 192.802C141.616 193.012 141.634 193.179 141.754 193.372C142.026 193.808 142.357 194.195 142.727 194.549C143.259 195.057 143.839 195.496 144.52 195.791C144.628 195.838 144.715 195.851 144.814 195.771C145.184 195.473 145.452 195.1 145.614 194.655C145.698 194.424 145.755 194.182 145.83 193.925C145.995 194.127 146.125 194.333 146.209 194.561C146.294 194.788 146.37 195.022 146.415 195.26C146.459 195.494 146.46 195.737 146.481 195.988C146.532 195.983 146.573 195.99 146.604 195.975C146.807 195.874 147.024 195.789 147.207 195.659C147.794 195.242 148.091 194.625 148.304 193.965C148.484 193.407 148.576 192.828 148.617 192.242C148.621 192.187 148.636 192.132 148.649 192.059C148.699 192.101 148.732 192.121 148.757 192.149C149.14 192.569 149.455 193.034 149.675 193.559C150.217 194.856 150.255 196.193 149.981 197.549C149.94 197.753 149.977 197.88 150.136 198.02C150.745 198.56 151.143 199.234 151.366 200.016C151.418 200.197 151.385 200.328 151.264 200.469C150.737 201.084 150.148 201.632 149.495 202.11C147.648 203.46 145.585 204.126 143.29 204.058C142.503 204.034 141.728 203.924 140.967 203.723C140.788 203.675 140.639 203.678 140.518 203.833C140.499 203.857 140.473 203.874 140.451 203.896C139.471 204.854 138.685 205.94 138.229 207.247C138.032 207.811 137.914 208.388 137.863 208.982C137.851 209.12 137.886 209.232 137.981 209.335C138.145 209.515 138.296 209.708 138.461 209.887C139.201 210.692 140.051 211.372 140.937 212.008C141.058 212.095 141.181 212.179 141.352 212.299C141.533 211.368 141.746 210.493 142.121 209.667C142.497 208.836 142.97 208.064 143.518 207.319C143.528 207.355 143.539 207.37 143.536 207.382C143.358 208.02 143.249 208.672 143.177 209.33C143.036 210.625 143.068 211.913 143.336 213.192C143.369 213.347 143.436 213.443 143.586 213.51C144.123 213.748 144.663 213.974 145.225 214.15C146.033 214.404 146.855 214.592 147.694 214.706C147.765 214.716 147.838 214.717 147.938 214.724C147.924 214.596 147.915 214.5 147.902 214.404C147.658 212.64 147.589 210.873 147.8 209.101C147.901 208.251 148.065 207.413 148.324 206.594C148.341 206.653 148.345 206.712 148.35 206.772C148.484 208.546 148.767 210.294 149.287 212C149.57 212.928 149.932 213.824 150.418 214.667C150.501 214.811 150.596 214.864 150.765 214.852C152.318 214.737 153.826 214.41 155.3 213.923C155.369 213.9 155.433 213.864 155.494 213.837C155.487 213.797 155.488 213.779 155.481 213.767C155.454 213.722 155.425 213.677 155.393 213.635C154.355 212.246 153.589 210.722 153.102 209.06C152.794 208.01 152.608 206.94 152.581 205.845C152.58 205.793 152.59 205.741 152.594 205.689C152.735 205.973 152.834 206.261 152.953 206.541C153.64 208.163 154.592 209.616 155.775 210.92C156.262 211.457 156.785 211.956 157.338 212.424C157.549 212.602 157.55 212.602 157.772 212.418C157.883 212.325 157.993 212.232 158.1 212.134C159.185 211.145 160.143 210.053 160.885 208.779C161.239 208.171 161.526 207.537 161.728 206.864C161.744 206.81 161.735 206.749 161.738 206.694C159.516 206.24 157.527 205.343 155.764 203.896C156.338 204.075 156.877 204.256 157.423 204.411C158.469 204.708 159.536 204.866 160.625 204.853C161.276 204.845 161.92 204.795 162.539 204.571C163.05 204.385 163.497 204.111 163.816 203.655C163.922 203.503 163.945 203.376 163.836 203.201C163.539 202.721 163.267 202.227 162.987 201.738C162.939 201.654 162.9 201.566 162.845 201.458C162.896 201.477 162.92 201.48 162.937 201.492C163.41 201.826 163.881 202.161 164.352 202.497C164.588 202.664 164.621 202.665 164.851 202.49C165.003 202.375 165.013 202.365 164.946 202.186C164.798 201.794 164.655 201.399 164.484 201.018C163.735 199.356 162.71 197.877 161.471 196.543C160.095 195.063 158.516 193.841 156.725 192.908C156.044 192.554 155.322 192.275 154.609 191.984C153.853 191.676 153.06 191.484 152.263 191.311C152.065 191.268 151.867 191.224 151.654 191.176C151.698 191.118 151.721 191.079 151.752 191.046C152.633 190.104 153.882 189.735 155.222 190.19C155.541 190.298 155.536 190.305 155.758 190.057C157.094 188.565 159.033 187.973 161.081 188.667C161.242 188.721 161.404 188.769 161.566 188.82C161.576 188.806 161.586 188.793 161.595 188.78C161.558 188.728 161.526 188.672 161.483 188.625C160.226 187.214 158.717 186.132 157.045 185.269C156.687 185.085 156.315 184.923 155.942 184.77C155.513 184.594 155.077 184.432 154.639 184.279C153.744 183.965 152.822 183.768 151.884 183.644C150.723 183.489 149.56 183.479 148.397 183.618C148.313 183.628 148.212 183.605 148.157 183.684C148.596 184.14 149.041 184.576 149.455 185.039C149.874 185.508 150.221 186.03 150.494 186.601C150.457 186.596 150.432 186.581 150.41 186.563C149.926 186.163 149.398 185.832 148.845 185.54C148.283 185.244 147.688 185.029 147.07 184.882C145.832 184.587 144.607 184.631 143.399 185.041C142.442 185.366 141.613 185.921 140.785 186.479C140.751 186.502 140.727 186.541 140.678 186.596C141.152 186.681 141.601 186.744 142.042 186.844C142.487 186.945 142.931 187.061 143.362 187.209C143.8 187.36 144.233 187.538 144.65 187.742C145.059 187.942 145.447 188.187 145.842 188.416C146.251 188.654 146.794 189.068 146.896 189.202C146.414 189.035 145.915 188.846 145.407 188.687C144.434 188.383 143.435 188.231 142.415 188.227C140.624 188.221 138.986 188.712 137.518 189.742C137.402 189.823 137.291 189.924 137.208 190.038C136.802 190.598 136.436 191.183 136.104 191.792C135.735 192.469 135.43 193.172 135.172 193.896C135.156 193.941 135.163 193.994 135.157 194.067C135.587 193.884 135.985 193.697 136.397 193.545C136.811 193.393 137.234 193.258 137.661 193.149C138.088 193.04 138.524 192.958 138.961 192.892C139.393 192.828 139.831 192.799 140.333 192.748C140.272 192.642 140.222 192.573 140.19 192.497C139.992 192.018 140.009 191.537 140.244 191.083C140.49 190.607 140.876 190.25 141.329 189.968C141.373 189.94 141.424 189.926 141.467 189.907L141.467 189.907ZM144.509 198.171C144.668 197.824 144.636 197.484 144.428 197.167C144.174 196.778 143.802 196.621 143.348 196.699C142.984 196.761 142.714 196.959 142.572 197.307C142.739 197.454 144.298 198.15 144.509 198.172L144.509 198.171ZM158.432 190.684L158.432 190.685C158.66 190.788 158.887 190.893 159.118 190.993C159.291 191.068 159.321 191.05 159.367 190.865C159.472 190.437 159.24 189.968 158.836 189.791C158.427 189.611 157.903 189.764 157.665 190.133C157.589 190.25 157.598 190.303 157.726 190.364C157.959 190.475 158.197 190.578 158.432 190.684Z" fill="#FBFEFC"/>
<path d="M170.512 207.386C171.069 206.151 171.625 204.916 172.182 203.681C172.319 203.377 172.334 203.372 172.641 203.51C173.58 203.933 174.521 204.351 175.457 204.781C176.217 205.131 176.919 205.568 177.466 206.217C178.429 207.361 178.701 208.652 178.282 210.083C178.054 210.859 177.689 211.565 177.122 212.151C176.248 213.054 175.167 213.434 173.919 213.369C173.249 213.335 172.61 213.164 172 212.895C170.982 212.445 169.969 211.982 168.954 211.524C168.912 211.505 168.871 211.486 168.829 211.467C168.742 211.428 168.726 211.362 168.761 211.279C168.79 211.209 168.82 211.139 168.851 211.07C169.405 209.842 169.958 208.614 170.512 207.386L170.512 207.386ZM172.599 208.329L172.6 208.329C172.296 209.002 171.992 209.673 171.691 210.347C171.6 210.55 171.612 210.588 171.817 210.678C172.214 210.853 172.607 211.041 173.015 211.184C173.683 211.419 174.326 211.331 174.908 210.928C175.453 210.549 175.776 210.012 175.972 209.383C176.379 208.07 175.688 207.082 174.756 206.626C174.456 206.478 174.148 206.345 173.842 206.208C173.616 206.106 173.605 206.112 173.499 206.333C173.483 206.368 173.468 206.402 173.452 206.437C173.168 207.068 172.883 207.699 172.599 208.329Z" fill="#FBFEFC"/>
<path d="M194.339 215.748C194.169 216.494 193.876 217.094 193.117 217.326C192.932 217.382 192.831 217.487 192.75 217.66C192.425 218.354 191.864 218.72 191.104 218.787C190.657 218.827 190.228 218.74 189.803 218.603C189.393 218.47 189.013 218.283 188.659 218.041C188.564 217.976 188.489 217.996 188.417 218.072C188.312 218.183 188.294 218.346 188.4 218.466C188.473 218.549 188.57 218.621 188.67 218.668C189.265 218.944 189.867 219.205 190.459 219.486C190.699 219.6 190.934 219.732 191.15 219.886C191.747 220.311 192.131 221.052 191.704 221.984C191.374 222.703 190.815 223.102 190.028 223.183C189.465 223.241 188.918 223.142 188.389 222.96C187.993 222.824 187.602 222.668 187.227 222.485C186.707 222.231 186.197 221.952 185.777 221.543C185.652 221.422 185.535 221.289 185.433 221.148C184.899 220.406 185.289 219.401 186.199 219.173C186.301 219.147 186.403 219.127 186.533 219.097C186.345 218.639 186.31 218.201 186.556 217.767C186.802 217.332 187.192 217.132 187.698 217.07C187.671 216.978 187.658 216.906 187.631 216.84C187.195 215.763 187.946 214.092 189.522 214.081C189.924 214.078 190.315 214.14 190.687 214.276C191.283 214.494 191.848 214.774 192.314 215.223C192.614 215.513 192.964 215.724 193.373 215.828C193.609 215.888 193.841 215.877 194.073 215.818C194.151 215.799 194.229 215.777 194.339 215.748ZM188.558 220.54L188.559 220.538C188.261 220.403 187.962 220.269 187.664 220.134C187.456 220.04 187.316 220.098 187.248 220.316C187.203 220.462 187.213 220.609 187.317 220.725C187.407 220.826 187.509 220.923 187.621 220.997C188.042 221.277 188.506 221.471 188.991 221.608C189.148 221.652 189.322 221.658 189.486 221.646C189.629 221.636 189.735 221.535 189.769 221.386C189.802 221.244 189.742 221.132 189.628 221.051C189.56 221.003 189.486 220.961 189.411 220.927C189.128 220.796 188.842 220.669 188.558 220.54ZM189.961 217.147C189.981 217.155 190.022 217.175 190.066 217.189C190.436 217.305 190.795 217.163 190.986 216.828C191.151 216.539 191.089 216.169 190.836 215.929C190.651 215.754 190.43 215.66 190.176 215.657C189.875 215.653 189.645 215.782 189.508 216.052C189.289 216.484 189.466 216.926 189.961 217.147Z" fill="#FBFEFC"/>
<path d="M174.222 199.109C174.278 199.223 174.312 199.289 174.343 199.356C174.726 200.187 175.304 200.852 176.084 201.331C176.347 201.493 176.628 201.643 176.946 201.679C177.252 201.715 177.459 201.606 177.589 201.353C177.693 201.153 177.692 200.956 177.563 200.77C177.489 200.665 177.407 200.564 177.317 200.472C176.929 200.074 176.537 199.68 176.145 199.286C175.79 198.93 175.504 198.53 175.37 198.039C175.178 197.34 175.292 196.682 175.67 196.071C176.25 195.134 177.128 194.782 178.194 194.821C178.686 194.839 179.154 194.962 179.606 195.159C180.149 195.394 180.666 195.67 181.084 196.092C181.318 196.329 181.516 196.601 181.728 196.859C181.797 196.943 181.805 197.031 181.757 197.134C181.478 197.743 181.205 198.354 180.929 198.964C180.92 198.982 180.901 198.996 180.876 199.024C180.843 198.972 180.815 198.93 180.79 198.886C180.391 198.162 179.825 197.599 179.115 197.181C178.928 197.071 178.721 197.017 178.504 197.019C178.094 197.022 177.898 197.449 178.063 197.75C178.118 197.848 178.188 197.942 178.265 198.023C178.653 198.432 179.054 198.829 179.433 199.245C179.621 199.452 179.797 199.678 179.935 199.92C180.302 200.564 180.314 201.239 180.049 201.921C179.899 202.306 179.712 202.669 179.427 202.975C178.825 203.623 178.071 203.875 177.203 203.83C176.712 203.805 176.247 203.675 175.787 203.501C175.135 203.253 174.563 202.891 174.072 202.401C173.773 202.103 173.53 201.762 173.354 201.377C173.313 201.287 173.277 201.2 173.326 201.094C173.619 200.451 173.909 199.806 174.223 199.109L174.222 199.109Z" fill="#FBFEFC"/>
<path d="M172.055 222.079L171.223 223.925C171.042 223.899 164.479 220.96 164.135 220.751C164.222 220.689 164.298 220.632 164.377 220.579C166.357 219.215 168.338 217.851 170.319 216.487C170.398 216.432 170.472 216.371 170.585 216.283C170.471 216.225 170.395 216.183 170.316 216.147C169.371 215.72 168.425 215.295 167.48 214.868C167.292 214.783 167.241 214.644 167.328 214.45C167.518 214.026 167.709 213.603 167.9 213.18C168.04 212.871 168.053 212.866 168.356 213.002C169.295 213.424 170.233 213.848 171.172 214.271C172.305 214.782 173.438 215.293 174.571 215.804L174.838 215.924C173.737 216.692 172.678 217.43 171.621 218.169C170.563 218.908 169.503 219.642 168.403 220.417C168.678 220.569 168.917 220.662 169.149 220.768C169.391 220.88 169.635 220.988 169.878 221.098L171.317 221.747C171.553 221.853 171.788 221.959 172.055 222.079L172.055 222.079Z" fill="#FBFEFC"/>
<path d="M177.162 219.558C178.086 219.981 178.714 220.493 179.116 221.249C179.515 221.999 179.562 222.783 179.321 223.593C179.174 224.089 178.94 224.535 178.613 224.934C178.108 225.549 177.457 225.911 176.669 226.022C175.228 226.225 173.603 225.454 172.862 224.202C172.362 223.357 172.304 222.464 172.635 221.545C172.793 221.107 172.995 220.689 173.305 220.335C174.045 219.491 174.987 219.169 176.091 219.285C176.518 219.329 176.927 219.444 177.162 219.558L177.162 219.558ZM174.873 222.131C174.778 222.365 174.719 222.599 174.73 222.847C174.751 223.316 174.972 223.647 175.403 223.845C175.843 224.047 176.251 224.006 176.618 223.698C176.946 223.423 177.126 223.063 177.175 222.636C177.221 222.226 177.092 221.738 176.492 221.461C175.963 221.216 175.497 221.36 175.179 221.711C175.063 221.838 174.974 221.99 174.873 222.13L174.873 222.131Z" fill="#FBFEFC"/>
<path d="M199.627 221.894C199.438 222.344 199.165 222.734 198.806 223.062C198.098 223.706 197.255 223.944 196.315 223.842C195.418 223.745 194.624 223.393 193.969 222.769C193.026 221.871 192.708 220.789 193.069 219.526C193.213 219.022 193.449 218.567 193.785 218.165C194.301 217.546 194.966 217.196 195.763 217.094C197.17 216.915 198.781 217.688 199.517 218.901C199.963 219.634 200.07 220.423 199.851 221.25C199.793 221.469 199.703 221.68 199.628 221.894L199.627 221.894ZM197.54 220.968C197.584 220.775 197.647 220.593 197.664 220.407C197.715 219.866 197.449 219.485 196.99 219.273C196.494 219.044 196.028 219.143 195.672 219.514C195.404 219.791 195.258 220.129 195.223 220.512C195.179 221.006 195.416 221.428 195.846 221.632C196.354 221.873 196.819 221.813 197.186 221.437C197.322 221.299 197.423 221.126 197.54 220.968Z" fill="#FBFEFC"/>
<path d="M179.525 224.248C179.903 223.403 180.499 222.784 181.385 222.476C182.022 222.255 182.674 222.25 183.322 222.414C184.136 222.62 184.857 223.005 185.416 223.644C186.203 224.542 186.411 225.564 186.055 226.707C185.87 227.302 185.564 227.819 185.121 228.249C184.486 228.864 183.708 229.139 182.83 229.095C181.726 229.038 180.771 228.616 180.027 227.792C179.176 226.851 178.975 225.764 179.401 224.567C179.439 224.46 179.484 224.355 179.525 224.248L179.525 224.248ZM182.125 226.873C182.649 227.138 183.186 226.931 183.485 226.577C183.686 226.339 183.825 226.073 183.873 225.766C183.967 225.166 183.734 224.727 183.196 224.484C182.608 224.218 182.119 224.434 181.809 224.828C181.66 225.017 181.558 225.228 181.494 225.454C181.317 226.088 181.583 226.658 182.125 226.873Z" fill="#FBFEFC"/>
<path d="M186.247 206.158C186.136 206.724 185.483 207.315 184.906 207.384C184.481 207.436 184.114 207.272 183.756 207.077C183.449 206.908 183.316 206.725 183.052 206.12C183.011 206.126 182.965 206.126 182.924 206.139C182.444 206.29 181.974 206.234 181.513 206.065C181.097 205.913 180.695 205.732 180.375 205.408C179.919 204.944 179.68 204.401 179.818 203.75C179.993 202.925 180.604 202.433 181.374 202.318C181.84 202.249 182.301 202.293 182.756 202.402C183.185 202.505 183.612 202.618 184.04 202.725C184.098 202.739 184.158 202.742 184.226 202.751C184.322 202.586 184.266 202.434 184.203 202.289C184.102 202.059 183.927 201.881 183.715 201.759C183.034 201.368 182.307 201.183 181.521 201.336C181.351 201.369 181.186 201.426 180.98 201.483C181.08 201.309 181.158 201.156 181.251 201.014C181.865 200.075 182.822 199.704 183.926 199.967C184.598 200.127 185.203 200.421 185.718 200.881C186.384 201.475 186.617 202.224 186.439 203.089C186.38 203.377 186.275 203.659 186.163 203.931C185.989 204.353 185.791 204.765 185.604 205.182C185.579 205.237 185.552 205.292 185.531 205.349C185.406 205.692 185.561 205.998 185.915 206.097C186.023 206.128 186.136 206.138 186.247 206.158ZM183.716 203.982C183.33 203.88 182.987 203.788 182.628 203.78C182.583 203.779 182.538 203.793 182.493 203.804C182.291 203.851 182.188 203.997 182.143 204.184C182.099 204.364 182.167 204.522 182.31 204.628C182.596 204.84 182.914 204.907 183.257 204.78C183.311 204.76 183.375 204.722 183.399 204.675C183.506 204.459 183.6 204.237 183.716 203.982Z" fill="#FBFEFC"/>
<path d="M190.655 203.109C190.565 203.336 190.491 203.523 190.396 203.761C190.508 203.723 190.562 203.709 190.613 203.687C191.352 203.377 192.055 203.476 192.734 203.869C193.008 204.028 193.249 204.223 193.434 204.481C193.824 205.022 193.871 205.621 193.707 206.245C193.651 206.457 193.572 206.665 193.482 206.865C192.98 207.99 192.471 209.113 191.965 210.237L191.857 210.476C191.663 210.468 190.076 209.769 189.844 209.593C189.873 209.517 189.902 209.433 189.938 209.352C190.359 208.415 190.782 207.479 191.203 206.542C191.247 206.445 191.293 206.346 191.316 206.244C191.431 205.712 191.103 205.273 190.541 205.193C190.135 205.136 189.629 205.373 189.457 205.782C189.071 206.7 188.645 207.602 188.235 208.511C188.21 208.567 188.187 208.623 188.159 208.677C188.088 208.811 188.062 208.827 187.926 208.767C187.362 208.517 186.8 208.26 186.237 208.007C186.134 207.96 186.103 207.89 186.149 207.786C186.174 207.731 186.197 207.674 186.222 207.619C186.989 205.919 187.755 204.22 188.521 202.52C188.614 202.313 188.763 202.256 188.967 202.348C189.446 202.564 189.926 202.78 190.406 202.996C190.48 203.03 190.555 203.063 190.655 203.109L190.655 203.109Z" fill="#FBFEFC"/>
<path d="M186.662 216.318C186.57 216.276 186.48 216.236 186.391 216.196C185.376 215.738 184.361 215.28 183.345 214.824C183.251 214.782 183.15 214.753 183.047 214.717C182.967 214.849 182.968 214.969 182.979 215.09C183.003 215.349 183.12 215.568 183.28 215.769C183.488 216.028 183.744 216.235 184.032 216.391C184.557 216.676 185.106 216.904 185.71 216.957C185.898 216.973 186.088 216.968 186.293 216.973C186.265 217.168 186.132 217.308 186.023 217.453C185.521 218.119 184.839 218.396 184.02 218.303C183.044 218.191 182.191 217.786 181.492 217.093C180.763 216.369 180.493 215.483 180.694 214.478C180.87 213.592 181.267 212.811 181.956 212.207C182.758 211.506 183.687 211.322 184.71 211.596C185.26 211.744 185.767 211.983 186.203 212.358C186.809 212.881 187.114 213.547 187.146 214.34C187.171 214.952 187.021 215.531 186.808 216.097C186.789 216.146 186.765 216.194 186.739 216.241C186.729 216.26 186.709 216.273 186.663 216.318L186.662 216.318ZM183.56 213.585C184.075 213.82 184.596 214.056 185.114 214.284C185.312 214.017 185.33 213.688 185.178 213.432C185 213.135 184.576 212.943 184.214 212.996C183.902 213.043 183.641 213.267 183.56 213.585L183.56 213.585Z" fill="#FBFEFC"/>
<path d="M178.97 216.027L177.038 215.156C177.03 215.134 177.026 215.127 177.024 215.12C177.023 215.113 177.019 215.104 177.021 215.098C177.044 215.034 177.063 214.968 177.091 214.907C177.902 213.11 178.713 211.313 179.525 209.517C179.533 209.498 179.555 209.485 179.569 209.471C179.743 209.498 181.306 210.19 181.525 210.335C181.528 210.344 181.532 210.351 181.534 210.358C181.536 210.366 181.54 210.374 181.538 210.38C181.515 210.445 181.496 210.51 181.468 210.572C180.657 212.369 179.846 214.165 179.034 215.961C179.025 215.98 179.004 215.993 178.97 216.027L178.97 216.027Z" fill="#FBFEFC"/>
<path d="M182.392 208.658C182.215 209.144 181.582 209.491 180.892 209.169C180.278 208.882 180.041 208.285 180.316 207.694C180.592 207.101 181.199 206.89 181.812 207.163C182.47 207.455 182.664 208.145 182.392 208.658Z" fill="#FBFEFC"/>
<path d="M157.913 197.119L155.398 195.985C155.446 195.891 155.475 195.797 155.533 195.726C155.933 195.225 156.641 195.047 157.241 195.346C157.815 195.632 158.133 196.254 157.999 196.883C157.984 196.955 157.949 197.022 157.913 197.119L157.913 197.119Z" fill="#FBFEFC"/>
</g>
<path d="M45.2723 75.5036L58.1105 79.3135L72.6938 82.0839L95.2825 88.2335L133.908 99.5498L153.494 103.324L151.394 112.076L147.083 115.36L147.841 118.628L140.715 152.397L118.869 155.793L98.3671 149.948L67.4282 143.317L30.096 134.358L35.2503 113.823L39.7892 111.21L37.8404 103.029L45.2723 75.5036Z" fill="black" stroke="#FBFEFC" stroke-width="2"/>
<g clip-path="url(#clip2_7124_8373)">
<path d="M85.5432 119.452C84.6882 123.016 81.2705 124.972 77.8496 124.152C74.4286 123.331 72.2711 120.036 73.1262 116.473C73.9873 112.884 77.3989 110.953 80.8199 111.774C84.2408 112.594 86.4043 115.864 85.5432 119.452ZM82.8254 118.8C83.3598 116.573 82.1098 114.662 80.2346 114.212C78.3595 113.762 76.3783 114.898 75.844 117.125C75.315 119.329 76.5597 121.263 78.4348 121.713C80.3099 122.163 82.2971 121.002 82.8254 118.8Z" fill="#FBFEFC"/>
<path d="M98.9368 122.667C98.0817 126.23 94.6641 128.187 91.2431 127.366C87.8222 126.545 85.6647 123.25 86.5197 119.687C87.3802 116.101 90.7924 114.167 94.2134 114.988C97.6344 115.809 99.7979 119.078 98.9368 122.667ZM96.219 122.015C96.7533 119.788 95.5033 117.877 93.6282 117.427C91.7531 116.977 89.7719 118.113 89.2375 120.339C88.7086 122.544 89.9532 124.477 91.8283 124.927C93.7035 125.377 95.6907 124.216 96.219 122.015Z" fill="#FBFEFC"/>
<path d="M113.168 119.931L110.502 131.043C109.405 135.613 106.262 136.833 103.075 136.068C100.076 135.349 98.7518 132.909 98.4646 131.105L101.067 130.688C101.247 131.796 101.994 133.233 103.657 133.632C105.697 134.121 107.263 133.166 107.831 130.797L108.045 129.907L107.95 129.884C107.162 130.489 105.832 130.863 104.353 130.509C101.259 129.766 99.0708 126.39 99.9031 122.922C100.741 119.428 104.229 117.391 107.323 118.133C108.799 118.488 109.814 119.424 110.25 120.299L110.345 120.322L110.587 119.315L113.168 119.934L113.168 119.931ZM109.379 125.196C109.902 123.016 108.831 121.074 106.981 120.63C105.105 120.18 103.152 121.397 102.629 123.576C102.112 125.733 103.306 127.681 105.181 128.131C107.031 128.575 108.861 127.353 109.379 125.196Z" fill="#FBFEFC"/>
<path d="M118.987 114.44L114.634 132.577L111.984 131.941L116.336 113.804L118.987 114.44Z" fill="#FBFEFC"/>
<path d="M125.869 131.283L127.641 133.196C126.719 134.04 124.662 135.382 121.827 134.701C118.311 133.858 116.337 130.51 117.17 127.039C118.053 123.358 121.303 121.485 124.493 122.25C127.704 123.021 128.662 125.954 128.844 127.458L128.957 128.229L119.861 129.67C120.197 131.064 121.03 131.934 122.411 132.265C123.795 132.598 124.918 132.147 125.869 131.283ZM119.91 127.498L125.992 126.529C125.873 125.683 125.087 124.925 124.01 124.667C122.629 124.335 120.414 125.093 119.91 127.498Z" fill="#FBFEFC"/>
<path d="M63.4785 112.455L64.1086 109.829L72.9568 111.952C72.9335 112.431 72.8483 112.983 72.7077 113.569C72.2349 115.539 71.1118 117.846 68.9598 119.165C66.8498 120.518 64.4678 120.938 61.6105 120.252C56.3144 118.981 52.8962 113.598 54.1671 108.302C55.438 103.006 60.9265 99.761 66.2226 101.032C69.1525 101.735 70.9638 103.385 72.1724 105.26L69.875 106.668C69.0036 105.344 67.6769 104.158 65.5898 103.657C61.7223 102.729 57.9497 105.12 57.0216 108.987C56.0936 112.855 58.3704 116.697 62.2378 117.625C64.7463 118.227 66.4167 117.563 67.5516 116.867C68.4719 116.303 69.2147 115.36 69.7547 113.958L63.4785 112.455Z" fill="#FBFEFC"/>
</g>
<path d="M118.578 155.723L140.736 152.093L122.848 145.641L118.578 155.723Z" fill="#FBFEFC"/>
<path d="M79.5083 87.1131L54.6468 78.8642L72.6783 82.6975L96.6542 88.9445L79.5083 87.1131Z" fill="#FBFEFC"/>
<defs>
<clipPath id="clip0_7124_8373">
<rect width="114" height="64.8" fill="white" transform="translate(106.254 26.4375) rotate(21.4347)"/>
</clipPath>
<clipPath id="clip1_7124_8373">
<rect width="72" height="34.6988" fill="white" transform="translate(141.222 176.261) rotate(24.2658)"/>
</clipPath>
<clipPath id="clip2_7124_8373">
<rect width="78.0522" height="26.4" fill="white" transform="translate(56.4048 98.5371) rotate(13.4939)"/>
</clipPath>
</defs>
</svg>
