<svg width="264" height="179" viewBox="0 0 264 179" fill="none" xmlns="http://www.w3.org/2000/svg">
<path d="M148.343 5.02871L166.021 5.46016L184.276 12.3601L205.315 18.0044L218.708 20.4366L222.056 21.0447L223.694 25.2024L225.405 21.6527L232.102 22.8688L257.744 32.3054L253.474 49.4325L249.292 88.1226L209.249 78.1389L171.998 68.851L153.372 64.207L148.715 63.0461L145.875 60.4034L144.059 61.8851L134.746 59.5631L148.343 5.02871Z" fill="black" stroke="#FBFEFC" stroke-width="1.26"/>
<path d="M153.748 9.76514L148.724 5.53906L165.987 6.45065L153.748 9.76514Z" fill="#FBFEFC"/>
<path d="M162.013 36.6016L164.056 37.1111L161.353 47.9523L159.31 47.4427L162.013 36.6016Z" fill="#FBFEFC"/>
<path d="M169.1 31.4883L171.178 32.0064L166.86 49.3246L164.816 48.8151L169.1 31.4883Z" fill="#FBFEFC"/>
<path d="M174.712 32.8867L176.79 33.4049L172.472 50.7231L170.429 50.2135L174.712 32.8867Z" fill="#FBFEFC"/>
<path d="M185.01 53.85L182.966 53.3405L183.381 51.6779L183.346 51.6692C182.541 52.6827 180.957 53.1339 179.295 52.7194C177.182 52.1926 175.657 50.488 176.383 47.5786L178.127 40.582L180.205 41.1002L178.608 47.5079C178.098 49.5514 179.086 50.607 180.367 50.9266C182.099 51.3583 183.657 50.5695 184.279 48.0757L185.669 42.4993L187.747 43.0174L185.044 53.8586L185.01 53.85Z" fill="#FBFEFC"/>
<path d="M190.346 43.6638L192.286 44.1474L191.862 45.8446L191.897 45.8532C192.269 45.247 193.913 44.2589 195.853 44.7426C197.446 45.1398 198.382 46.1089 198.746 47.5977C199.802 46.4629 201.395 46.1243 202.676 46.4438C206.001 47.2728 206.202 49.8614 205.598 52.2859L204.026 58.5897L201.982 58.0802L203.485 52.0535C203.9 50.3909 203.925 48.8152 201.916 48.3143C199.907 47.8135 198.808 48.9743 198.324 50.9139L196.848 56.8367L194.769 56.3186L196.186 50.6382C196.695 48.5947 196.755 47.0276 194.781 46.5354C193.291 46.164 191.699 46.9442 191.086 49.4034L189.678 55.0491L187.669 54.5482L190.346 43.6638Z" fill="#FBFEFC"/>
<path d="M209.567 48.457L211.646 48.9752L208.943 59.8164L206.864 59.2982L209.567 48.457Z" fill="#FBFEFC"/>
<path d="M214.661 49.7271L216.704 50.2366L216.29 51.8992L216.325 51.9078C217.129 50.8943 218.713 50.4432 220.376 50.8577C222.488 51.3845 224.013 53.089 223.288 55.9985L221.543 62.995L219.465 62.4769L221.063 56.0692C221.572 54.0256 220.585 52.97 219.303 52.6505C217.571 52.2187 216.014 53.0076 215.392 55.5014L214.001 61.0778L211.923 60.5597L214.626 49.7185L214.661 49.7271Z" fill="#FBFEFC"/>
<path d="M232.519 60.1366L232.346 60.8293C231.983 62.2841 230.764 63.7826 228.478 63.2127C227.058 62.8586 226.287 62.1145 226.597 60.8676C227.029 59.1358 229.505 59.3853 231.445 59.8689L232.519 60.1366ZM227.555 55.6984C228.464 55.2995 229.39 54.8314 230.949 55.22C232.715 55.6604 233.253 57.0453 232.976 58.1537L232.864 58.604L231.34 58.224C228.05 57.4036 225.141 57.7085 224.45 60.4794C223.923 62.5922 225.37 64.167 227.379 64.6678C229.042 65.0823 230.383 64.8651 231.673 63.6781L231.707 63.6868C231.569 64.241 231.466 64.8038 231.362 65.3666L233.198 65.8243C233.275 65.2182 233.396 64.5861 233.586 63.8241L234.968 58.2823C235.434 56.412 234.55 54.352 231.329 53.5489C229.805 53.1689 228.047 53.2825 226.636 54.0713L227.555 55.6984Z" fill="#FBFEFC"/>
<path d="M164.312 31.654C163.55 31.464 162.771 31.932 162.581 32.694C162.391 33.456 162.859 34.2349 163.621 34.4249C164.383 34.6149 165.162 34.1469 165.352 33.3849C165.542 32.6229 165.074 31.844 164.312 31.654Z" fill="#FBFEFC"/>
<g clip-path="url(#clip0_4574_385)">
<path d="M112.914 73.0027L133.884 72.9552L163.296 70.3864L185.796 70.9642L199.876 67.6792L225.595 69.0678L225.968 79.1854L222.896 82.6297L225.968 83.5297L226.576 97.1526L227.557 125.237L114.875 129.172L114.385 115.13L114.14 108.109L114.017 104.598L115.649 102.113L113.894 101.088L112.914 73.0027Z" fill="black" stroke="#FBFEFC" stroke-width="1.26"/>
<path d="M200.62 121.919L164.212 126.988L226.934 124.329L200.62 121.919Z" fill="#FBFEFC"/>
<path d="M159.034 96.9453C158.014 95.5723 156.382 94.7991 154.682 94.88C151.752 94.9823 149.723 97.3651 149.834 100.531C149.944 103.697 152.134 105.933 155.064 105.83C156.751 105.791 158.31 104.913 159.223 103.489L160.63 104.66C159.427 106.545 157.357 107.69 155.13 107.706C150.894 107.854 147.875 104.86 147.727 100.622C147.428 96.7463 150.313 93.3616 154.171 93.0613C154.319 93.0518 154.469 93.0444 154.618 93.0414C156.865 92.907 159.033 93.9087 160.391 95.7151L159.034 96.9453Z" fill="#FBFEFC"/>
<path d="M161.596 102.339C161.493 99.497 163.702 97.108 166.531 97.0049C169.359 96.9018 171.738 99.122 171.842 101.964C171.945 104.807 169.736 107.194 166.907 107.3L166.89 107.3C164.154 107.48 161.789 105.399 161.607 102.65C161.599 102.547 161.596 102.442 161.596 102.339ZM169.786 102.035C169.864 100.323 168.544 98.8701 166.838 98.7942C165.134 98.7161 163.69 100.042 163.613 101.756C163.605 101.92 163.611 102.085 163.63 102.25C163.554 103.963 164.874 105.416 166.58 105.492C168.284 105.57 169.728 104.244 169.803 102.532C169.813 102.366 169.807 102.2 169.786 102.035Z" fill="#FBFEFC"/>
<path d="M182.982 106.437L175.939 96.2632L175.864 96.2658L176.227 106.673L174.229 106.743L173.738 92.6797L175.921 92.6035L182.928 102.778L183.003 102.776L182.64 92.3688L184.635 92.2992L185.126 106.362L182.982 106.437Z" fill="#FBFEFC"/>
<path d="M187.033 101.448C186.927 98.6065 189.136 96.2174 191.965 96.1143C194.794 96.0113 197.172 98.2315 197.276 101.073C197.382 103.917 195.173 106.304 192.344 106.409L192.325 106.41C189.589 106.589 187.224 104.508 187.044 101.759C187.036 101.657 187.032 101.551 187.033 101.448ZM195.225 101.145C195.3 99.4324 193.981 97.9795 192.277 97.9035C190.571 97.8254 189.127 99.1512 189.051 100.866C189.044 101.029 189.05 101.195 189.069 101.36C188.993 103.072 190.312 104.525 192.016 104.601C193.722 104.679 195.166 103.353 195.242 101.641C195.249 101.475 195.243 101.31 195.225 101.145Z" fill="#FBFEFC"/>
<path d="M199.481 97.934L198.457 97.9698L198.395 96.202L199.42 96.1662L199.332 93.6595L201.349 93.5891L201.437 96.1022L204.049 96.011L204.11 97.7745L201.499 97.8657L201.713 103.998L204.045 103.917L204.108 105.697L199.756 105.849L199.479 97.932L199.481 97.934Z" fill="#FBFEFC"/>
<path d="M210.501 105.777C207.763 105.965 205.39 103.889 205.201 101.136C205.195 101.031 205.189 100.924 205.19 100.816C204.993 98.0833 207.042 95.7085 209.762 95.5146C209.875 95.5042 209.989 95.5002 210.103 95.5026C212.921 95.4042 214.92 97.5109 215.023 100.475C215.034 100.72 215.023 100.965 214.993 101.207L207.323 101.475C207.552 103.005 208.924 104.09 210.457 103.959C211.532 103.969 212.542 103.441 213.152 102.551L214.376 103.728C213.498 105.01 212.049 105.777 210.501 105.777ZM207.271 100.012L213.004 99.8122C212.89 98.3259 211.614 97.2026 210.133 97.2823C208.615 97.2987 207.367 98.4886 207.274 100.012L207.271 100.012Z" fill="#FBFEFC"/>
<path d="M142.203 107.357C142.211 107.331 142.218 107.305 142.224 107.277C142.232 107.25 142.239 107.229 142.245 107.201C142.252 107.153 142.257 107.106 142.253 107.056L141.997 99.7401C141.998 99.6928 141.99 99.6458 141.979 99.5988L141.979 99.5924C141.967 99.5498 141.952 99.5051 141.934 99.4649C141.927 99.4501 141.92 99.4374 141.915 99.4269C141.901 99.3951 141.883 99.3635 141.865 99.334C141.856 99.3214 141.849 99.3087 141.84 99.3004C141.813 99.2605 141.781 99.2251 141.746 99.1898L134.238 92.1592C134.202 92.1261 134.162 92.0973 134.123 92.0708C134.11 92.0626 134.096 92.0588 134.088 92.0505C134.057 92.0322 134.024 92.0183 133.991 92.0044C133.978 91.9984 133.965 91.9945 133.952 91.9886C133.909 91.975 133.863 91.9616 133.82 91.9545C133.772 91.9454 133.725 91.9427 133.677 91.9444L126.391 92.1988C126.342 92.2005 126.295 92.2065 126.25 92.2188C126.222 92.2219 126.197 92.2314 126.174 92.2408C126.148 92.2482 126.122 92.2555 126.099 92.2671C126.069 92.2789 126.044 92.297 126.019 92.3129C126 92.3222 125.981 92.3336 125.962 92.3471C125.876 92.4082 125.802 92.4882 125.745 92.5806C125.734 92.5981 125.727 92.6199 125.714 92.6375C125.702 92.6573 125.686 92.6923 125.674 92.7228C125.666 92.7467 125.661 92.7749 125.655 92.8009C125.646 92.8249 125.64 92.8509 125.634 92.8769C125.628 92.9244 125.623 92.9719 125.624 93.0192L126.134 107.619C126.136 107.666 126.142 107.716 126.152 107.763C126.159 107.788 126.169 107.814 126.178 107.837C126.188 107.86 126.193 107.888 126.205 107.913C126.216 107.939 126.237 107.968 126.251 107.994C126.267 108.021 126.269 108.032 126.283 108.05C126.346 108.136 126.426 108.211 126.516 108.268C126.536 108.28 126.558 108.288 126.577 108.298C126.604 108.315 126.632 108.326 126.66 108.336C126.689 108.346 126.717 108.351 126.745 108.359C126.767 108.367 126.791 108.373 126.814 108.376C126.866 108.385 126.92 108.389 126.972 108.388L141.471 107.881C141.524 107.879 141.578 107.871 141.629 107.859C141.655 107.858 141.676 107.844 141.699 107.837C141.723 107.83 141.752 107.82 141.78 107.808C141.808 107.796 141.831 107.778 141.86 107.762C141.881 107.753 141.9 107.742 141.919 107.728C142.005 107.665 142.08 107.585 142.135 107.495C142.147 107.475 142.155 107.455 142.167 107.433C142.181 107.409 142.193 107.383 142.203 107.357ZM127.313 94.9409L132.796 100.079L127.685 105.586L127.313 94.9409ZM134.562 94.6878L139.207 99.0397L134.72 99.1964L134.562 94.6878ZM133.062 98.1037L128.416 93.7518L132.903 93.5951L133.06 98.1038L133.062 98.1037ZM133.979 101.19L139.462 106.328L128.868 106.698L133.979 101.19ZM135.922 100.785L140.409 100.628L140.566 105.137L135.922 100.785Z" fill="#FBFEFC"/>
</g>
<g clip-path="url(#clip1_4574_385)">
<path d="M8.80854 67.0021L26.2251 57.0874L55.4301 45.5605L87.065 31.5103L117.327 31.229L134.018 82.6345L26.7864 117.476L17.7975 92.2391L13.303 79.6206L12.1794 76.466L13.5032 74.28L11.0558 73.3113L8.80854 67.0021Z" fill="black" stroke="#FBFEFC" stroke-width="1.26"/>
<path d="M117.085 31.6312L87.0732 31.9102L113.925 41.4153L117.085 31.6312Z" fill="#FBFEFC"/>
<path d="M38.5139 71.0264L35.6768 74.168L39.82 75.0462L42.6477 71.9031L38.5139 71.0264Z" fill="#FBFEFC"/>
<path d="M35.3602 74.5147L32.5365 77.6565L36.6663 78.5345L39.4953 75.3954L35.3602 74.5147Z" fill="#FBFEFC"/>
<path d="M43.1044 71.9977L40.2768 75.1408L44.4105 76.0175L47.2395 72.8785L43.1044 71.9977Z" fill="#FBFEFC"/>
<path d="M47.6962 72.9782L44.8672 76.1173L49.001 76.994L51.83 73.8549L47.6962 72.9782Z" fill="#FBFEFC"/>
<path d="M32.2205 78.0069L29.3956 81.1446L33.5253 82.0226L36.3543 78.8836L32.2205 78.0069Z" fill="#FBFEFC"/>
<path d="M33.521 94.5003L37.6547 95.377L36.3486 91.3572L32.2148 90.4805L33.521 94.5003Z" fill="#FBFEFC"/>
<path d="M38.1105 95.4767L42.2482 96.3656L40.9395 92.3376L36.8057 91.4609L38.1105 95.4767Z" fill="#FBFEFC"/>
<path d="M32.0698 90.0354L36.2036 90.9121L34.8988 86.8964L30.7637 86.0156L32.0698 90.0354Z" fill="#FBFEFC"/>
<path d="M30.6183 85.5709L34.7521 86.4476L33.4434 82.4197L29.3096 81.543L30.6183 85.5709Z" fill="#FBFEFC"/>
<path d="M42.7062 96.4615L46.8481 97.3356L45.5393 93.3077L41.3975 92.4336L42.7062 96.4615Z" fill="#FBFEFC"/>
<path d="M56.3524 87.0839L53.5112 90.2269L52.2051 86.2071L55.0463 83.0641L56.3524 87.0839Z" fill="#FBFEFC"/>
<path d="M53.1991 90.5734L50.3781 93.7233L49.0694 89.6954L51.8943 86.5576L53.1991 90.5734Z" fill="#FBFEFC"/>
<path d="M54.9002 82.6191L52.0591 85.7621L50.7543 81.7463L53.5941 78.5993L54.9002 82.6191Z" fill="#FBFEFC"/>
<path d="M53.4497 78.1506L50.6086 81.2936L49.2999 77.2657L52.141 74.1227L53.4497 78.1506Z" fill="#FBFEFC"/>
<path d="M50.0615 94.0738L47.2365 97.2116L45.9278 93.1837L48.7527 90.0459L50.0615 94.0738Z" fill="#FBFEFC"/>
<path d="M45.6257 92.9134L48.4533 89.7703L44.3196 88.8935L41.4825 92.0352L45.6257 92.9134Z" fill="#FBFEFC"/>
<path d="M48.7676 89.4237L51.5966 86.2846L47.4628 85.4079L44.6338 88.5469L48.7676 89.4237Z" fill="#FBFEFC"/>
<path d="M41.0233 91.9406L43.8523 88.8015L39.7185 87.9248L36.8936 91.0626L41.0233 91.9406Z" fill="#FBFEFC"/>
<path d="M48.9149 77.3897L44.7852 76.5117L46.0939 80.5396L50.2236 81.4177L48.9149 77.3897Z" fill="#FBFEFC"/>
<path d="M44.3264 76.4172L40.1953 75.5352L41.5014 79.555L45.6351 80.4451L44.3264 76.4172Z" fill="#FBFEFC"/>
<path d="M50.3703 81.8704L46.2393 80.9883L47.5454 85.0081L51.6751 85.8861L50.3703 81.8704Z" fill="#FBFEFC"/>
<path d="M33.8292 82.293L36.6581 79.154L37.9669 83.1819L35.1379 86.3209L33.8292 82.293Z" fill="#FBFEFC"/>
<path d="M36.9701 78.8088L39.8059 75.6631L41.112 79.6829L38.2789 82.8367L36.9701 78.8088Z" fill="#FBFEFC"/>
<path d="M35.2836 86.7736L38.1113 83.6305L39.4174 87.6504L36.5884 90.7894L35.2836 86.7736Z" fill="#FBFEFC"/>
<path d="M47.1575 85.1321L45.8514 81.1123L43.0277 84.2541L44.3325 88.2699L47.1575 85.1321Z" fill="#FBFEFC"/>
<path d="M39.8022 87.5237L43.936 88.4004L42.6312 84.3847L38.4961 83.5039L39.8022 87.5237Z" fill="#FBFEFC"/>
<path d="M41.4162 79.956L38.5831 83.1099L42.725 83.9839L45.554 80.8449L41.4162 79.956Z" fill="#FBFEFC"/>
<path d="M72.748 83.1762L71.2444 81.0556L66.3664 82.6405L66.356 85.2531L62.2755 86.579L62.8986 68.8548L65.9023 67.8789L76.8204 81.853L72.748 83.1762ZM66.4549 74.3455L66.4032 79.0347L69.164 78.1377L66.4549 74.3455Z" fill="#FBFEFC"/>
<path d="M85.5623 77.4615C84.8429 78.7825 83.6447 79.7776 82.2142 80.2425C80.7836 80.7073 79.2294 80.6064 77.8709 79.9606C76.5172 79.1965 75.8318 78.1616 75.065 75.8015C74.2982 73.4415 74.2416 72.2067 74.8904 70.7875C75.6098 69.4665 76.808 68.4714 78.2385 68.0066C79.6691 67.5418 81.2233 67.6426 82.5818 68.2884C83.9355 69.0525 84.6234 70.109 85.3837 72.4488C86.1439 74.7886 86.2071 76.0436 85.5623 77.4615ZM80.3917 71.3139C80.0404 71.1913 79.6587 71.1872 79.3048 71.3022C78.951 71.4172 78.6446 71.6449 78.4324 71.9505C78.1141 72.5686 78.3242 73.4357 78.7083 74.6178C79.0924 75.7998 79.4348 76.6195 80.0529 76.9378C80.4042 77.0603 80.7859 77.0644 81.1397 76.9494C81.4936 76.8345 81.8 76.6068 82.0122 76.3012C82.3305 75.6831 82.1204 74.816 81.7363 73.6339C81.3522 72.4518 81.0085 71.6281 80.3877 71.3152L80.3917 71.3139Z" fill="#FBFEFC"/>
<path d="M93.483 70.1697L91.1027 70.9431L92.9442 76.6105L89.0499 77.8758L83.9004 62.0273L90.179 59.9873C93.6888 58.8469 96.3922 60.721 97.2393 63.328C98.0863 65.935 96.9968 69.028 93.483 70.1697ZM91.128 63.5279L88.9259 64.2434L89.9715 67.4617L92.1737 66.7462C92.414 66.7043 92.6424 66.6113 92.8436 66.4734C93.0448 66.3356 93.214 66.1561 93.3398 65.9472C93.4656 65.7382 93.5451 65.5047 93.5728 65.2624C93.6005 65.0201 93.5759 64.7747 93.5005 64.5428C93.4252 64.3108 93.3009 64.0978 93.136 63.918C92.9712 63.7383 92.7696 63.5961 92.545 63.501C92.3204 63.4059 92.0781 63.3602 91.8343 63.3669C91.5905 63.3737 91.351 63.4327 91.132 63.54L91.128 63.5279Z" fill="#FBFEFC"/>
<path d="M107.278 72.1031C104.849 72.8923 102.725 73.0902 100.587 71.9635L102.27 68.6596C103.343 69.2062 104.903 69.0349 106.17 68.6232C107.704 68.1247 108.275 67.3753 107.978 66.4604C107.888 66.1136 107.667 65.8149 107.362 65.6266C106.988 65.4779 106.575 65.455 106.186 65.5611L104.185 65.9161C102.719 66.1688 101.499 66.0505 100.548 65.5492C99.5975 65.048 98.8658 64.0773 98.4252 62.7212C97.4848 59.8268 98.9801 57.0047 102.587 55.8328C104.858 55.0949 106.744 55.0728 108.545 55.987L106.905 59.2051C105.58 58.5301 104.286 59.0223 103.598 59.2459C102.241 59.6866 101.935 60.6453 102.16 61.3376C102.253 61.6124 102.451 61.8394 102.71 61.969C103.1 62.1468 103.539 62.1857 103.954 62.0794L105.956 61.7244C107.447 61.4639 108.595 61.583 109.499 62.0232C110.608 62.558 111.332 63.643 111.81 65.1125C112.83 68.3615 110.618 71.018 107.278 72.1031Z" fill="#FBFEFC"/>
<path d="M79.3988 94.6117L27.5798 116.854L101.391 92.6564L79.3988 94.6117Z" fill="#FBFEFC"/>
</g>
<g clip-path="url(#clip2_4574_385)">
<path d="M34.1735 159.359L61.347 163.489L67.1613 164.763L71.8507 162.898L72.9756 166.036L84.6042 168.582L127.222 173.428L147.328 173.096L152.524 130.666L156.648 117.268L44.5159 105.482L37.8844 142.257L34.1735 159.359Z" fill="black" stroke="#FBFEFC" stroke-width="1.26"/>
<path d="M78.3125 112.518L44.8576 106.35L119.531 114.003L96.2531 115.208L78.3125 112.518Z" fill="#FBFEFC"/>
<path d="M133.096 148.473C133.225 147.25 134.322 146.362 135.544 146.491C136.767 146.619 137.654 147.716 137.526 148.939C137.397 150.161 136.302 151.049 135.079 150.92C133.856 150.792 132.968 149.696 133.096 148.473Z" fill="#FBFEFC"/>
<path d="M63.0671 135.182C63.2146 133.779 63.0529 132.71 62.5819 131.975C62.1102 131.24 61.3234 130.815 60.2177 130.699L59.0416 130.575L58.1398 139.155L59.0397 139.25C60.2678 139.379 61.206 139.109 61.8558 138.439C62.5048 137.77 62.9093 136.684 63.0671 135.182ZM67.2769 135.477C67.0082 138.033 66.1141 139.93 64.5945 141.169C63.0749 142.407 61.0705 142.896 58.5803 142.634L53.7417 142.126L55.3516 126.809L60.5279 127.353C62.929 127.605 64.7165 128.429 65.8907 129.823C67.0642 131.218 67.5265 133.101 67.2769 135.477Z" fill="#FBFEFC"/>
<path d="M79.8404 144.869L83.6907 145.274L85.3073 129.893L81.457 129.488L79.8404 144.869Z" fill="#FBFEFC"/>
<path d="M89.7029 140.102C89.5998 141.082 89.6494 141.844 89.8512 142.385C90.0534 142.926 90.4558 143.228 91.0596 143.292C91.657 143.355 92.1064 143.142 92.4066 142.653C92.7068 142.165 92.9078 141.43 93.0109 140.449C93.1134 139.474 93.0664 138.725 92.8693 138.202C92.6716 137.677 92.2717 137.383 91.6673 137.32C91.0763 137.258 90.6278 137.461 90.3196 137.928C90.0118 138.395 89.8061 139.12 89.7029 140.102ZM96.9297 140.861C96.7334 142.729 96.0904 144.136 94.9987 145.077C93.9075 146.019 92.479 146.398 90.7131 146.212C89.0197 146.034 87.7279 145.358 86.8398 144.184C85.9503 143.009 85.6016 141.512 85.7931 139.691C85.9888 137.828 86.6313 136.432 87.7217 135.503C88.8121 134.575 90.2431 134.203 92.016 134.39C93.1114 134.505 94.0554 134.846 94.8449 135.412C95.635 135.977 96.2118 136.73 96.5738 137.668C96.9367 138.606 97.0548 139.671 96.9297 140.861Z" fill="#FBFEFC"/>
<path d="M97.8558 146.761L101.707 147.166L102.325 141.279L102.908 135.741L99.0566 135.336L97.8558 146.761Z" fill="#FBFEFC"/>
<path d="M99.202 133.954L103.053 134.358L103.324 131.784L99.4727 131.379L99.202 133.954Z" fill="#FBFEFC"/>
<path d="M109.815 145.07C110.335 145.125 110.968 145.058 111.718 144.872L111.416 147.747C110.873 147.92 110.362 148.032 109.883 148.079C109.403 148.128 108.847 148.119 108.217 148.053C106.924 147.917 106.027 147.494 105.522 146.785C105.021 146.076 104.84 145.05 104.981 143.706L105.476 138.996L104.127 138.855L104.438 135.901L105.786 136.043L106.093 133.125L110.044 132.858L109.667 136.451L112.124 136.709L111.813 139.663L109.356 139.404L108.889 143.851C108.811 144.591 109.12 144.997 109.815 145.07Z" fill="#FBFEFC"/>
<path d="M118.727 146.008C119.247 146.063 119.88 145.996 120.63 145.809L120.328 148.684C119.785 148.858 119.274 148.969 118.794 149.017C118.314 149.065 117.76 149.056 117.129 148.99C115.836 148.854 114.939 148.431 114.436 147.723C113.933 147.014 113.752 145.988 113.893 144.644L114.388 139.934L113.039 139.792L113.349 136.839L114.698 136.981L115.01 134.019L118.956 133.796L118.578 137.388L121.036 137.647L120.726 140.6L118.267 140.342L117.8 144.789C117.722 145.528 118.031 145.935 118.727 146.008Z" fill="#FBFEFC"/>
<path d="M125.891 142.497C126.009 141.877 126.236 141.437 126.572 141.176C126.909 140.916 127.303 140.81 127.755 140.857C128.249 140.909 128.624 141.115 128.88 141.476C129.138 141.836 129.244 142.292 129.199 142.844L125.891 142.497ZM131.652 139.917C130.831 138.923 129.58 138.337 127.9 138.161C126.134 137.975 124.721 138.348 123.66 139.28C122.6 140.212 121.968 141.643 121.765 143.572C121.569 145.44 121.932 146.935 122.852 148.055C123.774 149.174 125.163 149.832 127.021 150.027C127.913 150.121 128.688 150.141 129.344 150.087C129.996 150.035 130.638 149.883 131.272 149.633L130.951 146.997C130.496 147.129 130.066 147.222 129.664 147.272C129.084 147.343 128.455 147.344 127.778 147.273C127.036 147.195 126.469 146.952 126.078 146.544C125.686 146.135 125.51 145.61 125.551 144.969L132.434 145.692L132.618 143.938C132.795 142.25 132.474 140.91 131.652 139.917Z" fill="#FBFEFC"/>
<path d="M72.2988 136.868C72.4171 136.248 72.6441 135.808 72.98 135.547C73.3164 135.287 73.7107 135.181 74.1639 135.229C74.6561 135.28 75.0311 135.486 75.288 135.847C75.5463 136.207 75.652 136.663 75.6075 137.216L72.2988 136.868ZM78.0609 134.288C77.2393 133.294 75.9885 132.708 74.308 132.532C72.5414 132.346 71.129 132.719 70.0687 133.651C69.0084 134.583 68.376 136.014 68.1732 137.943C67.9768 139.811 68.3395 141.306 69.2612 142.426C70.1818 143.545 71.5713 144.203 73.4294 144.398C74.3217 144.492 75.0959 144.512 75.7521 144.458C76.4044 144.406 77.0465 144.254 77.6806 144.005L77.3589 141.368C76.9037 141.5 76.4739 141.593 76.0728 141.643C75.4911 141.714 74.863 141.715 74.1861 141.644C73.4445 141.566 72.8772 141.323 72.4859 140.915C72.094 140.506 71.9185 139.981 71.9594 139.34L78.8419 140.064L79.0263 138.309C79.2037 136.622 78.8819 135.281 78.0609 134.288Z" fill="#FBFEFC"/>
</g>
<defs>
<clipPath id="clip0_4574_385">
<rect width="112.77" height="58.4893" fill="white" transform="translate(112.833 70.7188) rotate(-2)"/>
</clipPath>
<clipPath id="clip1_4574_385">
<rect width="114" height="64.8" fill="white" transform="translate(5.97266 58.0273) rotate(-18)"/>
</clipPath>
<clipPath id="clip2_4574_385">
<rect width="117.404" height="58.9287" fill="white" transform="translate(39.8867 104.996) rotate(6)"/>
</clipPath>
</defs>
</svg>
