<svg width="196" height="227" viewBox="0 0 196 227" fill="none" xmlns="http://www.w3.org/2000/svg">
<path d="M9.75961 210.371C7.99347 215.226 3.61802 225.346 2.474 226.343C2.07752 226.172 0.588906 220.269 0.588906 220.269L3.48769 205.406L6.59099 200.097L8.67037 200.828L8.10331 197.564L16.4798 183.627L20.4946 179.984L21.6785 177.333C21.6785 177.333 24.9052 173.119 26.8523 170.332C35.7065 139.765 29.6234 116.623 58.0795 81.9904C58.0795 81.9904 56.1462 90.5993 57.1352 99.5018C61.7737 78.4828 73.7817 61.1577 84.6507 49.0729L87.6671 48.5111L86.8867 46.6413C96.8651 36.0253 105.333 30.0851 105.333 30.0851C105.333 30.0851 100.215 38.0728 100.395 45.0373C105.38 31.9589 118.909 19.5199 135.788 11.1467L138.83 12.2035L138.498 9.85074C153.848 2.77917 171.64 -0.917246 188.196 1.18863L185.579 5.04463L194.508 2.29282C194.508 2.29282 172.429 49.8676 145.17 54.9568C151.805 56.8571 161.853 52.8698 161.853 52.8698C161.853 52.8698 149.806 74.6342 139.202 86.4952L139.105 86.6033C133.961 92.3566 129.712 97.1097 123.73 100.646L122.058 98.1982L120.534 102.335C114.677 105.086 107.128 106.862 96.0857 107.516C107.719 109.866 114.96 106.906 118.429 106.46C118.429 106.46 109.437 122.066 97.488 131.783C85.5392 141.499 70.4262 139.436 58.591 137.592C67.9083 141.751 77.638 142.256 90.5815 139.277C84.5758 146.364 76.7696 151.263 68.8901 154.625L63.6675 153.016L64.4185 156.373C60.1335 157.904 55.9241 159.013 52.0718 159.806C49.8875 160.284 44.6975 161.454 41.4119 162.305C38.1263 163.156 30.3884 175.856 30.3884 175.856L24.0551 183.001L17.4799 195.735L15.2259 196.374L15.4729 199.363L9.75961 210.371Z" fill="black"/>
<path fill-rule="evenodd" clip-rule="evenodd" d="M138.247 9.30582C153.676 2.19766 171.582 -1.52945 188.272 0.593445L189.241 0.716777L187.035 3.96822L194.332 1.71946L195.053 2.54543L194.508 2.29282C195.053 2.5454 195.053 2.54495 195.053 2.54543L195.051 2.54806L195.036 2.58178L194.987 2.68581C194.943 2.77727 194.879 2.91247 194.794 3.08866C194.625 3.44105 194.373 3.95745 194.043 4.61585C193.383 5.93261 192.41 7.81769 191.158 10.095C188.655 14.6486 185.031 20.7755 180.55 27.0646C176.071 33.3514 170.725 39.8152 164.775 45.0322C159.667 49.5104 154.087 53.0943 148.202 54.8398C150.735 54.9869 153.486 54.5818 155.867 54.0409C157.515 53.6664 158.959 53.233 159.992 52.8932C160.508 52.7235 160.92 52.5773 161.202 52.474C161.343 52.4224 161.452 52.3815 161.525 52.3537C161.561 52.3398 161.589 52.3292 161.607 52.3222L161.626 52.3144L161.632 52.3121L162.378 53.1604L161.853 52.8698C162.378 53.1604 162.378 53.1602 162.378 53.1604L162.376 53.1647L162.343 53.2244L162.239 53.4102C162.148 53.5733 162.013 53.8138 161.837 54.1239C161.486 54.744 160.973 55.6425 160.324 56.7576C159.026 58.9876 157.185 62.0846 155.012 65.5532C150.672 72.4823 144.987 80.9247 139.649 86.8951L139.519 87.0398C134.401 92.7658 130.098 97.5788 124.036 101.163L123.552 101.449L122.219 99.4975L121.012 102.774L120.789 102.878C115.854 105.196 109.761 106.82 101.499 107.681C107.788 108.189 112.4 107.141 115.589 106.417C116.67 106.172 117.588 105.963 118.353 105.865L118.949 106.76L118.429 106.46C118.949 106.76 118.949 106.759 118.949 106.76L118.948 106.761L118.947 106.763L118.942 106.772L118.921 106.807C118.911 106.825 118.897 106.848 118.881 106.876C118.869 106.896 118.856 106.918 118.842 106.942C118.772 107.061 118.669 107.235 118.533 107.46C118.261 107.909 117.861 108.561 117.343 109.373C116.308 110.996 114.803 113.262 112.924 115.832C109.169 120.966 103.898 127.343 97.8666 132.248C87.5685 140.622 74.9825 140.395 64.2085 139.014C71.8236 141.205 80.0716 141.08 90.4469 138.692L91.0393 139.665C84.9565 146.843 77.0634 151.79 69.1255 155.176L68.9234 155.263L64.4787 153.894L65.1199 156.76L64.6204 156.938C60.3064 158.479 56.0708 159.595 52.1964 160.393C50.0107 160.871 44.8343 162.038 41.5624 162.886C41.2785 162.959 40.8795 163.185 40.374 163.597C39.88 163.999 39.3307 164.541 38.7479 165.184C37.5831 166.469 36.3233 168.115 35.1562 169.748C33.9909 171.379 32.9265 172.984 32.1529 174.183C31.7663 174.783 31.4528 175.28 31.2361 175.626C31.1278 175.8 31.0437 175.936 30.9868 176.028L30.9223 176.133L30.902 176.166L30.901 176.168L30.8374 176.254L24.5538 183.343L18.013 196.01L17.6434 196.312L15.8645 196.816L16.0708 199.314L16.0054 199.64L10.3101 210.613C9.41884 213.058 7.88567 216.794 6.43129 220.048C5.70035 221.684 4.986 223.205 4.38029 224.384C4.07778 224.972 3.79868 225.483 3.55544 225.882C3.32594 226.259 3.08999 226.602 2.86834 226.796L2.23631 226.894C2.10768 226.839 2.02508 226.754 1.98604 226.71C1.94051 226.659 1.90463 226.607 1.87776 226.563C1.82385 226.477 1.77458 226.376 1.73046 226.276C1.64083 226.073 1.54336 225.809 1.44382 225.514C1.24345 224.922 1.01687 224.156 0.805244 223.405C0.593057 222.651 0.393587 221.904 0.247299 221.346C0.17412 221.067 0.11415 220.835 0.0724472 220.672L0.024212 220.483L0.0071452 220.416C0.00713026 220.416 0.00711781 220.416 0.588906 220.269L0.0071452 220.416L0 220.154L2.89879 205.291L2.9697 205.103L6.07301 199.794L6.79006 199.531L7.90409 199.923L7.51216 197.667L7.58905 197.255L15.9655 183.318L16.0766 183.183L19.9982 179.624L21.1307 177.089L21.2021 176.968L21.3439 176.783C21.4356 176.662 21.569 176.487 21.7352 176.268C22.0675 175.831 22.5309 175.218 23.055 174.518C24.0839 173.144 25.3428 171.441 26.3036 170.069C28.4896 162.5 29.759 155.382 30.8728 148.409C31.0788 147.119 31.2795 145.834 31.4798 144.551C32.3659 138.878 33.2437 133.257 34.5299 127.554C37.6914 113.537 43.3226 99.0052 57.616 81.6096L58.6646 82.1218L58.6648 82.1227L58.6639 82.1267L58.6601 82.1438L58.6449 82.2145C58.6314 82.2776 58.6116 82.3722 58.5866 82.4963C58.5366 82.7444 58.4659 83.1105 58.3839 83.5783C58.22 84.5139 58.0112 85.8555 57.8329 87.4734C57.5814 89.7565 57.3917 92.5815 57.4724 95.5881C62.6705 76.1337 73.956 60.0668 84.2046 48.6717L84.3408 48.5204L86.8275 48.0572L86.1832 46.5137L86.4495 46.2304C91.4581 40.9018 96.0878 36.7464 99.4669 33.9219C101.157 32.5095 102.534 31.4295 103.491 30.7017C103.969 30.3378 104.342 30.0619 104.596 29.8764C104.723 29.7837 104.82 29.7136 104.886 29.6664L104.962 29.6129L104.981 29.5991L104.986 29.5954L104.988 29.5944C104.988 29.5943 104.988 29.5939 105.333 30.0851L104.988 29.5944L105.838 30.4087L105.835 30.413L105.826 30.4287L105.811 30.4513C105.804 30.463 105.795 30.477 105.785 30.4935C105.749 30.5513 105.696 30.638 105.627 30.7513C105.491 30.9781 105.295 31.3114 105.06 31.7337C104.59 32.5788 103.965 33.7777 103.346 35.1905C102.539 37.0307 101.755 39.2064 101.326 41.4211C107.268 29.4268 120.027 18.2956 135.522 10.6093L135.747 10.4973L138.099 11.3142L137.842 9.49259L138.247 9.30582ZM103.405 32.282C102.55 32.9479 101.479 33.8041 100.237 34.8426C96.947 37.5921 92.4577 41.6177 87.5903 46.7695L88.5067 48.9651L84.961 49.6255C74.1651 61.6621 62.3095 78.8393 57.7211 99.6311L56.5389 99.5681C56.0378 95.0578 56.2776 90.6325 56.6401 87.342C56.7742 86.1247 56.9254 85.0604 57.0628 84.2016C43.9879 100.63 38.7138 114.458 35.7005 127.818C34.424 133.478 33.5536 139.051 32.6678 144.722C32.4669 146.008 32.2652 147.299 32.0578 148.598C30.9373 155.613 29.6527 162.82 27.4286 170.499L27.3441 170.675C26.3646 172.077 25.0663 173.834 24.0155 175.237C23.4895 175.939 23.0246 176.554 22.691 176.994C22.5243 177.214 22.3903 177.389 22.2981 177.51L22.1978 177.642L21.0425 180.229L20.8978 180.429L16.9484 184.012L8.73271 197.681L9.26152 200.726L8.47131 201.394L6.85908 200.827L4.0571 205.621L1.2036 220.252L1.23484 220.374C1.27609 220.535 1.33552 220.765 1.40809 221.042C1.55331 221.596 1.75077 222.335 1.9603 223.079C2.17039 223.825 2.3903 224.567 2.58056 225.13C2.58382 225.139 2.58708 225.149 2.59031 225.159C2.79941 224.808 3.04292 224.361 3.31299 223.835C3.90464 222.684 4.60903 221.185 5.33573 219.559C6.78932 216.306 8.31887 212.576 9.19576 210.166L9.22707 210.095L14.8607 199.24L14.6279 196.423L15.0624 195.796L17.0661 195.229L23.522 182.726L23.6061 182.603L29.9043 175.497L29.9653 175.398C30.0026 175.338 30.0512 175.259 30.1102 175.164C30.143 175.111 30.1792 175.053 30.2184 174.99C30.4378 174.639 30.7544 174.138 31.1446 173.533C31.9246 172.324 33 170.701 34.1799 169.051C35.3579 167.402 36.6486 165.714 37.8588 164.378C38.4635 163.711 39.0578 163.121 39.6158 162.666C40.1624 162.221 40.7239 161.863 41.2614 161.724C44.5589 160.87 49.7583 159.698 51.9434 159.22L51.9508 159.218C55.6299 158.461 59.6347 157.414 63.7169 155.985L62.8564 152.138L68.8563 153.986C76.088 150.876 83.22 146.466 88.9166 140.257C76.7665 142.807 67.3739 142.17 58.3464 138.14L58.6833 136.999C70.555 138.849 85.3951 140.843 97.1095 131.317C103.027 126.505 108.227 120.221 111.955 115.123C113.817 112.578 115.307 110.334 116.331 108.728C116.692 108.162 116.995 107.676 117.235 107.284C116.844 107.367 116.417 107.464 115.955 107.57C111.962 108.482 105.331 109.996 95.9669 108.104L96.0502 106.917C106.906 106.274 114.323 104.544 120.057 101.896L121.898 96.8989L123.907 99.8404C129.545 96.3903 133.646 91.8098 138.658 86.2034L138.754 86.0953C144.021 80.2047 149.661 71.8344 153.995 64.9161C156.16 61.461 157.994 58.3756 159.287 56.1541C159.792 55.2859 160.214 54.5498 160.541 53.9754C160.485 53.9943 160.427 54.0136 160.367 54.0331C159.308 54.3816 157.826 54.8262 156.133 55.211C152.772 55.9747 148.475 56.5276 145.005 55.5336L145.06 54.367C151.728 53.1221 158.123 49.2682 163.984 44.1299C169.84 38.9954 175.125 32.6112 179.573 26.3682C184.019 20.1275 187.619 14.0426 190.107 9.51686C191.351 7.25451 192.316 5.38305 192.97 4.07818C193.12 3.77863 193.254 3.50896 193.371 3.2713L184.124 6.1211L187.146 1.66687C171.147 -0.142499 154.03 3.43408 139.155 10.2099L139.561 13.0928L135.83 11.7963C119.128 20.1323 105.844 32.4259 100.955 45.2511L99.795 45.0529C99.7015 41.4379 100.978 37.6025 102.247 34.7087C102.644 33.8024 103.043 32.9821 103.405 32.282Z" fill="#FBFEFC"/>
<path d="M135.565 40.1484C87.7651 78.053 59.6588 120.514 27.4109 170.516L27.4387 168.246C56.4471 111.406 111.231 54.5802 134.594 39.3264L135.565 40.1484Z" fill="#FBFEFC"/>
</svg>
