<svg width="266" height="150" viewBox="0 0 266 150" fill="none" xmlns="http://www.w3.org/2000/svg">
<path d="M14.1692 136.607C10.6694 140.407 2.73362 148.06 1.29362 148.54C0.993624 148.23 1.89362 142.209 1.89362 142.209L10.2937 129.609L15.2023 125.905L16.8395 127.381L17.5736 124.15L30.6718 114.514L35.78 112.699L37.8936 110.709C37.8936 110.709 42.4947 108.062 45.365 106.24C65.3093 81.4426 68.6093 57.7426 108.209 36.7426C108.209 36.7426 103.109 43.9426 100.593 52.5391C112.97 34.9285 130.724 23.5652 145.409 16.5992L148.409 17.2426L148.409 15.2164C161.707 9.26289 171.809 7.04258 171.809 7.04258C171.809 7.04258 164.009 12.4426 161.493 18.9391C171.131 8.78996 188.408 2.52177 207.209 1.29578L209.609 3.44258L210.209 1.14356C227.098 0.529808 244.942 3.97174 259.409 12.2919L255.509 14.8426L264.809 15.7423C264.809 15.7423 226.109 51.1423 198.993 45.3393C204.384 49.6485 215.193 49.8393 215.193 49.8393C215.193 49.8393 195.692 65.284 181.337 72.1455L181.207 72.208C174.244 75.5364 168.492 78.286 161.609 79.2459L161.009 76.3426L158.009 79.5735C151.545 79.8555 143.894 78.5868 133.452 74.9373C143.282 81.587 151.105 81.6444 154.478 82.569C154.478 82.569 140.168 93.5075 125.399 97.872C110.629 102.237 97.477 94.5118 87.2652 88.2512C94.2616 95.6784 103.046 99.8914 116.139 102.128C107.867 106.355 98.7757 107.869 90.2093 107.937L86.0093 104.44L85.4093 107.828C80.8652 107.59 76.5535 106.992 72.693 106.24C70.493 105.84 65.253 104.92 61.893 104.44C58.533 103.96 46.5006 112.7 46.5006 112.7L37.9037 116.855L26.9311 126.074L24.6051 125.795L23.6814 128.649L14.1692 136.607Z" fill="black"/>
<path d="M1.29362 148.54L0.862075 148.957L1.48336 149.11L1.29362 148.54ZM14.1692 136.607L13.7842 136.146L13.7278 136.2L14.1692 136.607ZM46.5006 112.7L46.7617 113.24L46.8532 113.185L46.5006 112.7ZM61.893 104.44L61.8082 105.034L61.8082 105.034L61.893 104.44ZM72.693 106.24L72.8078 105.651L72.8003 105.65L72.693 106.24ZM1.89362 142.209L1.3944 141.876L1.30022 142.12L1.89362 142.209ZM10.2937 129.609L9.93226 129.13L9.79442 129.276L10.2937 129.609ZM37.8936 110.709L37.5945 110.189L37.4823 110.272L37.8936 110.709ZM45.365 106.24L45.6866 106.747L45.8326 106.616L45.365 106.24ZM23.6814 128.649L24.0664 129.109L24.2523 128.834L23.6814 128.649ZM24.6051 125.795L24.6766 125.199L24.0343 125.61L24.6051 125.795ZM26.9311 126.074L26.8597 126.669L27.3171 126.533L26.9311 126.074ZM15.2023 125.905L15.604 125.459L14.8409 125.426L15.2023 125.905ZM16.8395 127.381L16.4378 127.826L17.4246 127.514L16.8395 127.381ZM17.5736 124.15L17.218 123.666L16.9885 124.017L17.5736 124.15ZM30.6718 114.514L30.4709 113.949L30.3163 114.031L30.6718 114.514ZM35.78 112.699L35.981 113.264L36.1914 113.136L35.78 112.699ZM37.9037 116.855L37.6426 116.315L37.5177 116.395L37.9037 116.855ZM154.478 82.569L154.842 83.0457L154.636 81.9903L154.478 82.569ZM215.193 49.8393L215.565 50.3096L215.204 49.2394L215.193 49.8393ZM198.993 45.3393L199.118 44.7526L198.618 45.808L198.993 45.3393ZM181.337 72.1455L181.596 72.6868L181.596 72.6868L181.337 72.1455ZM87.2652 88.2512L87.5789 87.7397L86.8285 88.6626L87.2652 88.2512ZM116.139 102.128L116.412 102.662L116.24 101.536L116.139 102.128ZM133.452 74.9373L133.65 74.3709L133.115 75.4342L133.452 74.9373ZM264.809 15.7423L265.214 16.185L264.867 15.145L264.809 15.7423ZM161.493 18.9391L160.933 18.7224L161.928 19.3523L161.493 18.9391ZM171.809 7.04258L172.151 7.53589L171.68 6.45657L171.809 7.04258ZM100.593 52.5391L100.017 52.3706L101.084 52.8841L100.593 52.5391ZM108.209 36.7426L108.699 37.0894L107.928 36.2125L108.209 36.7426ZM148.409 15.2164L148.164 14.6688L147.809 14.8277L147.809 15.2164L148.409 15.2164ZM145.409 16.5992L145.535 16.0126L145.336 15.9699L145.152 16.0571L145.409 16.5992ZM148.409 17.2426L148.283 17.8292L149.009 17.9849L149.009 17.2426L148.409 17.2426ZM207.209 1.29578L207.609 0.848585L207.422 0.680666L207.17 0.697055L207.209 1.29578ZM210.209 1.14356L210.187 0.543961L209.741 0.560171L209.629 0.992053L210.209 1.14356ZM209.609 3.44258L209.209 3.88978L209.942 4.54493L210.19 3.59409L209.609 3.44258ZM158.009 79.5735L158.035 80.1729L158.281 80.1622L158.449 79.9817L158.009 79.5735ZM161.609 79.2459L161.022 79.3673L161.135 79.9178L161.692 79.8402L161.609 79.2459ZM181.207 72.208L180.948 71.6667L180.948 71.6667L181.207 72.208ZM161.009 76.3426L161.597 76.2211L161.361 75.0816L160.57 75.9343L161.009 76.3426ZM259.409 12.2919L259.738 12.7941L260.556 12.2591L259.708 11.7718L259.409 12.2919ZM255.509 14.8426L255.181 14.3404L253.751 15.2753L255.451 15.4398L255.509 14.8426ZM90.2093 107.937L89.8255 108.398L89.9943 108.538L90.214 108.537L90.2093 107.937ZM85.4093 107.828L85.378 108.427L85.9076 108.455L86.0001 107.932L85.4093 107.828ZM86.0093 104.44L86.3932 103.979L85.5988 103.318L85.4185 104.336L86.0093 104.44ZM1.48336 149.11C1.76236 149.017 2.11249 148.79 2.46934 148.531C2.84756 148.256 3.30171 147.893 3.80761 147.466C4.82053 146.612 6.0657 145.483 7.37019 144.255C9.97881 141.8 12.8484 138.926 14.6105 137.013L13.7278 136.2C11.9902 138.087 9.14194 140.94 6.54774 143.382C5.25082 144.602 4.02332 145.714 3.03393 146.549C2.53866 146.967 2.10924 147.31 1.76418 147.56C1.39775 147.826 1.18489 147.944 1.10389 147.971L1.48336 149.11ZM46.5006 112.7C46.8532 113.185 46.8532 113.185 46.8532 113.185C46.8533 113.185 46.8534 113.185 46.8536 113.185C46.8539 113.185 46.8544 113.185 46.8551 113.184C46.8564 113.183 46.8585 113.182 46.8613 113.18C46.8669 113.175 46.8753 113.169 46.8865 113.161C46.909 113.145 46.9425 113.121 46.9866 113.089C47.0746 113.026 47.2045 112.933 47.3713 112.815C47.7048 112.578 48.1856 112.24 48.7731 111.836C49.9488 111.028 51.5495 109.956 53.2529 108.9C54.959 107.843 56.7555 106.809 58.3256 106.072C59.111 105.703 59.8267 105.414 60.4376 105.233C61.0628 105.047 61.5179 104.993 61.8082 105.034L61.9779 103.846C61.4281 103.768 60.7722 103.882 60.0963 104.082C59.406 104.287 58.6304 104.603 57.8154 104.985C56.1843 105.752 54.3427 106.813 52.6207 107.88C50.896 108.949 49.2786 110.032 48.0932 110.847C47.5002 111.255 47.0146 111.596 46.677 111.836C46.5082 111.956 46.3763 112.05 46.2865 112.115C46.2415 112.147 46.2071 112.172 46.1838 112.189C46.1722 112.197 46.1633 112.203 46.1573 112.208C46.1543 112.21 46.152 112.212 46.1505 112.213C46.1497 112.213 46.1491 112.214 46.1487 112.214C46.1485 112.214 46.1483 112.214 46.1482 112.214C46.148 112.214 46.148 112.214 46.5006 112.7ZM61.8082 105.034C65.1561 105.513 70.3865 106.431 72.5857 106.83L72.8003 105.65C70.5995 105.25 65.3499 104.328 61.9779 103.846L61.8082 105.034ZM1.72517 148.124C1.80375 148.205 1.83096 148.284 1.83595 148.299C1.84413 148.322 1.84499 148.333 1.84323 148.322C1.83977 148.301 1.83494 148.252 1.83314 148.166C1.82961 147.999 1.83869 147.76 1.85937 147.462C1.90047 146.869 1.98334 146.1 2.07675 145.33C2.16991 144.563 2.2725 143.805 2.35189 143.237C2.39157 142.954 2.4254 142.719 2.4493 142.554C2.46124 142.472 2.4707 142.408 2.47716 142.364C2.48039 142.342 2.48287 142.325 2.48454 142.314C2.48537 142.308 2.486 142.304 2.48642 142.301C2.48663 142.3 2.48679 142.299 2.48689 142.298C2.48694 142.298 2.48698 142.298 2.487 142.298C2.48701 142.297 2.48702 142.297 2.48703 142.297C2.48703 142.297 2.48703 142.297 1.89362 142.209C1.30022 142.12 1.30021 142.12 1.3002 142.12C1.30019 142.12 1.30018 142.12 1.30017 142.12C1.30014 142.12 1.30009 142.121 1.30003 142.121C1.29992 142.122 1.29975 142.123 1.29953 142.125C1.29908 142.128 1.29843 142.132 1.29756 142.138C1.29584 142.149 1.29331 142.166 1.29002 142.189C1.28344 142.233 1.27386 142.299 1.26178 142.382C1.23763 142.548 1.20349 142.785 1.16348 143.071C1.0835 143.643 0.979843 144.409 0.8855 145.186C0.791409 145.961 0.70553 146.755 0.66225 147.378C0.640748 147.688 0.628733 147.97 0.633406 148.192C0.635707 148.301 0.642305 148.413 0.658615 148.514C0.666743 148.564 0.679584 148.627 0.701949 148.691C0.721128 148.747 0.764752 148.856 0.862075 148.957L1.72517 148.124ZM2.39285 142.541L10.7929 129.941L9.79442 129.276L1.3944 141.876L2.39285 142.541ZM37.8936 110.709C38.1928 111.229 38.1928 111.229 38.1929 111.229C38.1929 111.229 38.193 111.229 38.193 111.229C38.1932 111.229 38.1934 111.228 38.1937 111.228C38.1943 111.228 38.1951 111.227 38.1963 111.227C38.1985 111.225 38.2019 111.223 38.2063 111.221C38.2152 111.216 38.2284 111.208 38.2457 111.198C38.2802 111.178 38.3312 111.149 38.3971 111.111C38.5289 111.035 38.7202 110.924 38.9588 110.785C39.4358 110.508 40.1017 110.12 40.8576 109.674C42.3677 108.784 44.2426 107.663 45.6866 106.747L45.0435 105.733C43.6171 106.639 41.7563 107.752 40.2483 108.641C39.4951 109.085 38.8314 109.472 38.3561 109.748C38.1184 109.886 37.9278 109.996 37.7968 110.072C37.7313 110.11 37.6806 110.139 37.6464 110.159C37.6293 110.169 37.6162 110.176 37.6075 110.181C37.6032 110.184 37.5999 110.185 37.5977 110.187C37.5966 110.187 37.5958 110.188 37.5953 110.188C37.595 110.188 37.5948 110.188 37.5947 110.188C37.5946 110.188 37.5945 110.188 37.5945 110.189C37.5945 110.189 37.5945 110.189 37.8936 110.709ZM14.5542 137.067L24.0664 129.109L23.2964 128.189L13.7842 136.146L14.5542 137.067ZM24.2523 128.834L25.176 125.979L24.0343 125.61L23.1106 128.464L24.2523 128.834ZM24.5337 126.39L26.8597 126.669L27.0025 125.478L24.6766 125.199L24.5337 126.39ZM10.655 130.088L15.5637 126.384L14.8409 125.426L9.93226 129.13L10.655 130.088ZM14.8006 126.35L16.4378 127.826L17.2413 126.935L15.604 125.459L14.8006 126.35ZM17.4246 127.514L18.1587 124.283L16.9885 124.017L16.2544 127.248L17.4246 127.514ZM17.9291 124.633L31.0273 114.998L30.3163 114.031L17.218 123.666L17.9291 124.633ZM30.8727 115.08L35.981 113.264L35.5791 112.134L30.4709 113.949L30.8727 115.08ZM36.1914 113.136L38.305 111.145L37.4823 110.272L35.3687 112.262L36.1914 113.136ZM27.3171 126.533L38.2896 117.314L37.5177 116.395L26.5451 125.614L27.3171 126.533ZM38.1647 117.395L46.7617 113.24L46.2395 112.16L37.6426 116.315L38.1647 117.395ZM125.569 98.4474C133.024 96.2443 140.344 92.3892 145.787 89.0972C148.512 87.4493 150.773 85.9384 152.354 84.8389C153.144 84.289 153.765 83.8419 154.188 83.5316C154.4 83.3765 154.563 83.2556 154.673 83.1732C154.728 83.1319 154.77 83.1004 154.798 83.0789C154.812 83.0682 154.823 83.06 154.831 83.0545C154.834 83.0517 154.837 83.0496 154.839 83.0481C154.84 83.0473 154.841 83.0468 154.841 83.0464C154.841 83.0462 154.842 83.046 154.842 83.0459C154.842 83.0457 154.842 83.0457 154.478 82.569C154.113 82.0923 154.113 82.0923 154.113 82.0923C154.113 82.0924 154.113 82.0924 154.113 82.0926C154.113 82.0928 154.112 82.0933 154.111 82.0939C154.11 82.095 154.107 82.0969 154.104 82.0994C154.098 82.1043 154.088 82.1119 154.074 82.122C154.047 82.1423 154.007 82.1726 153.954 82.2126C153.847 82.2926 153.688 82.4109 153.48 82.5634C153.063 82.8684 152.45 83.3099 151.668 83.8538C150.105 84.9416 147.865 86.4381 145.166 88.0704C139.762 91.3387 132.543 95.1352 125.229 97.2966L125.569 98.4474ZM215.193 49.8393C215.204 49.2394 215.204 49.2394 215.204 49.2394C215.204 49.2394 215.204 49.2394 215.203 49.2394C215.203 49.2394 215.203 49.2394 215.202 49.2394C215.201 49.2393 215.2 49.2393 215.198 49.2393C215.193 49.2392 215.186 49.239 215.176 49.2388C215.157 49.2383 215.127 49.2376 215.088 49.2364C215.011 49.234 214.895 49.23 214.745 49.2233C214.444 49.2099 214.008 49.186 213.466 49.1439C212.382 49.0598 210.882 48.9033 209.217 48.6141C205.86 48.0311 201.939 46.9258 199.368 44.8706L198.618 45.808C201.438 48.062 205.616 49.2066 209.012 49.7964C210.723 50.0935 212.262 50.254 213.373 50.3403C213.929 50.3835 214.379 50.4082 214.691 50.4221C214.847 50.429 214.969 50.4333 215.052 50.4358C215.094 50.4371 215.126 50.4379 215.147 50.4384C215.158 50.4387 215.167 50.4389 215.173 50.439C215.176 50.4391 215.178 50.4391 215.179 50.4391C215.18 50.4392 215.181 50.4392 215.181 50.4392C215.182 50.4392 215.182 50.4392 215.182 50.4392C215.182 50.4392 215.182 50.4392 215.193 49.8393ZM181.596 72.6868C188.822 69.233 197.32 63.6316 203.995 58.9091C207.336 56.5451 210.227 54.3961 212.284 52.838C213.312 52.0588 214.132 51.4273 214.695 50.9903C214.976 50.7718 215.194 50.6019 215.341 50.4865C215.414 50.4288 215.47 50.3847 215.508 50.355C215.527 50.3401 215.541 50.3289 215.551 50.3213C215.556 50.3175 215.559 50.3146 215.562 50.3127C215.563 50.3117 215.564 50.311 215.564 50.3105C215.565 50.3102 215.565 50.31 215.565 50.3099C215.565 50.3097 215.565 50.3096 215.193 49.8393C214.82 49.3689 214.82 49.369 214.82 49.3691C214.82 49.3692 214.82 49.3693 214.82 49.3695C214.819 49.37 214.818 49.3706 214.817 49.3715C214.815 49.3733 214.811 49.3761 214.807 49.3797C214.798 49.387 214.784 49.398 214.765 49.4126C214.728 49.4418 214.673 49.4852 214.6 49.5423C214.455 49.6565 214.239 49.8252 213.959 50.0424C213.399 50.4768 212.583 51.1055 211.559 51.8815C209.511 53.4337 206.63 55.5747 203.301 57.9295C196.637 62.6447 188.208 68.1965 181.079 71.6042L181.596 72.6868ZM86.9516 88.7627C97.1321 95.0041 110.51 102.898 125.569 98.4474L125.229 97.2966C110.749 101.576 97.822 94.0195 87.5789 87.7397L86.9516 88.7627ZM116.24 101.536C103.237 99.3152 94.585 95.1467 87.702 87.8398L86.8285 88.6626C93.9382 96.2102 102.856 100.468 116.038 102.719L116.24 101.536ZM154.636 81.9903C151.125 81.0278 143.509 81.0161 133.788 74.4403L133.115 75.4342C143.055 82.1579 151.085 82.261 154.319 83.1476L154.636 81.9903ZM198.867 45.926C205.792 47.408 213.412 46.2524 220.908 43.7316C228.408 41.2089 235.831 37.3029 242.387 33.2264C248.944 29.1484 254.648 24.8901 258.713 21.6521C260.745 20.0328 262.369 18.6677 263.485 17.7067C264.043 17.2262 264.474 16.8467 264.767 16.5868C264.913 16.4569 265.024 16.3569 265.099 16.2891C265.137 16.2553 265.165 16.2294 265.185 16.212C265.194 16.2033 265.201 16.1966 265.206 16.1921C265.209 16.1899 265.211 16.1881 265.212 16.1869C265.213 16.1863 265.213 16.1859 265.214 16.1856C265.214 16.1852 265.214 16.185 264.809 15.7423C264.404 15.2995 264.404 15.2996 264.404 15.2998C264.404 15.3 264.403 15.3003 264.403 15.3008C264.402 15.3018 264.4 15.3033 264.398 15.3053C264.393 15.3094 264.387 15.3155 264.378 15.3238C264.359 15.3403 264.332 15.3652 264.295 15.3981C264.222 15.464 264.113 15.562 263.969 15.69C263.682 15.9458 263.255 16.3212 262.702 16.7973C261.596 17.7496 259.984 19.1048 257.965 20.7136C253.925 23.9318 248.26 28.1607 241.753 32.2074C235.243 36.2555 227.907 40.1114 220.525 42.5942C213.138 45.0788 205.752 46.1721 199.118 44.7526L198.867 45.926ZM162.052 19.1558C163.263 16.0314 165.765 13.1309 168.009 10.9886C169.125 9.9234 170.164 9.05779 170.923 8.45894C171.302 8.15969 171.611 7.9275 171.825 7.77079C171.931 7.69244 172.014 7.63299 172.069 7.59348C172.097 7.57373 172.118 7.55897 172.132 7.54932C172.138 7.5445 172.144 7.54096 172.147 7.53872C172.148 7.5376 172.15 7.5368 172.15 7.53633C172.151 7.53609 172.151 7.53594 172.151 7.53587C172.151 7.53583 172.151 7.53584 172.151 7.53582C172.151 7.53585 172.151 7.53589 171.809 7.04258C171.468 6.54926 171.468 6.54935 171.467 6.54946C171.467 6.54953 171.467 6.54966 171.467 6.54979C171.467 6.55004 171.466 6.55038 171.466 6.5508C171.464 6.55165 171.463 6.55282 171.46 6.55432C171.456 6.55731 171.45 6.56162 171.442 6.56721C171.426 6.5784 171.403 6.59475 171.373 6.61614C171.313 6.6589 171.225 6.72181 171.114 6.80381C170.891 6.96778 170.571 7.20823 170.18 7.51673C169.398 8.1334 168.329 9.02382 167.18 10.1207C164.895 12.3026 162.24 15.3503 160.933 18.7224L162.052 19.1558ZM101.169 52.7077C102.41 48.4664 104.293 44.5596 105.87 41.7075C106.658 40.283 107.367 39.1254 107.879 38.3251C108.134 37.925 108.341 37.6144 108.482 37.4047C108.553 37.2998 108.608 37.2201 108.645 37.1671C108.663 37.1406 108.677 37.1207 108.686 37.1077C108.691 37.1012 108.694 37.0964 108.696 37.0934C108.697 37.0918 108.698 37.0907 108.698 37.0901C108.699 37.0897 108.699 37.0895 108.699 37.0894C108.699 37.0893 108.699 37.0893 108.699 37.0893C108.699 37.0893 108.699 37.0894 108.209 36.7426C107.72 36.3958 107.72 36.3959 107.72 36.396C107.719 36.3961 107.719 36.3962 107.719 36.3964C107.719 36.3967 107.719 36.3972 107.718 36.3977C107.718 36.3988 107.716 36.4003 107.715 36.4023C107.712 36.4062 107.708 36.4119 107.703 36.4193C107.693 36.434 107.678 36.4556 107.658 36.484C107.619 36.5406 107.562 36.624 107.488 36.7328C107.341 36.9504 107.129 37.2695 106.868 37.6787C106.344 38.497 105.622 39.6767 104.82 41.1268C103.218 44.0238 101.292 48.0153 100.017 52.3706L101.169 52.7077ZM107.928 36.2125C88.0374 46.7607 77.2436 58.0018 68.927 69.72C64.7786 75.5651 61.2442 81.533 57.5194 87.5572C53.7899 93.5889 49.8597 99.6942 44.8975 105.864L45.8326 106.616C50.8425 100.387 54.8039 94.2308 58.54 88.1883C62.2808 82.1382 65.7859 76.2191 69.9056 70.4145C78.125 58.8333 88.7813 47.7245 108.49 37.2726L107.928 36.2125ZM171.809 7.04258C171.68 6.45657 171.68 6.45659 171.68 6.45663C171.68 6.45665 171.68 6.45669 171.68 6.45674C171.679 6.45683 171.679 6.45696 171.678 6.45712C171.677 6.45744 171.674 6.45789 171.672 6.45849C171.666 6.45968 171.659 6.46141 171.648 6.4637C171.628 6.46829 171.598 6.47509 171.558 6.48415C171.479 6.50228 171.363 6.52948 171.21 6.5661C170.904 6.63934 170.453 6.7503 169.872 6.90195C168.709 7.20523 167.021 7.6713 164.918 8.32387C160.712 9.62888 154.839 11.6805 148.164 14.6688L148.654 15.764C155.277 12.7988 161.104 10.7635 165.274 9.46998C167.358 8.82328 169.028 8.36218 170.174 8.06311C170.748 7.91358 171.19 7.80457 171.489 7.73313C171.638 7.69741 171.751 7.67108 171.827 7.65378C171.864 7.64513 171.893 7.63874 171.911 7.63456C171.921 7.63246 171.928 7.63093 171.932 7.62993C171.934 7.62944 171.936 7.62908 171.937 7.62886C171.937 7.62874 171.938 7.62867 171.938 7.62862C171.938 7.6286 171.938 7.62859 171.938 7.62858C171.938 7.62858 171.938 7.62859 171.809 7.04258ZM145.152 16.0571C130.417 23.0468 112.561 34.4663 100.102 52.1941L101.084 52.8841C113.378 35.3906 131.031 24.0837 145.666 17.1413L145.152 16.0571ZM147.809 15.2164L147.809 17.2426L149.009 17.2426L149.009 15.2164L147.809 15.2164ZM148.535 16.6559L145.535 16.0126L145.283 17.1859L148.283 17.8292L148.535 16.6559ZM207.17 0.697055C188.289 1.92825 170.84 8.22492 161.058 18.526L161.928 19.3523C171.422 9.355 188.527 3.11529 207.248 1.89451L207.17 0.697055ZM209.629 0.992053L209.029 3.29107L210.19 3.59409L210.79 1.29508L209.629 0.992053ZM210.009 2.99538L207.609 0.848585L206.809 1.74298L209.209 3.88978L210.009 2.99538ZM133.254 75.5037C143.738 79.1681 151.469 80.4594 158.035 80.1729L157.983 78.974C151.621 79.2516 144.049 78.0056 133.65 74.3709L133.254 75.5037ZM161.692 79.8402C168.682 78.8654 174.516 76.0711 181.465 72.7494L180.948 71.6667C173.971 75.0016 168.302 77.7067 161.526 78.6517L161.692 79.8402ZM181.465 72.7494L181.596 72.6868L181.079 71.6042L180.948 71.6667L181.465 72.7494ZM158.449 79.9817L161.449 76.7508L160.57 75.9343L157.57 79.1652L158.449 79.9817ZM160.422 76.464L161.022 79.3673L162.197 79.1245L161.597 76.2211L160.422 76.464ZM259.708 11.7718C245.124 3.38436 227.164 -0.0729723 210.187 0.543961L210.231 1.74317C227.033 1.13259 244.76 4.55912 259.11 12.8121L259.708 11.7718ZM255.838 15.3447L259.738 12.7941L259.081 11.7898L255.181 14.3404L255.838 15.3447ZM264.867 15.145L255.567 14.2454L255.451 15.4398L264.751 16.3395L264.867 15.145ZM90.214 108.537C98.8438 108.469 108.034 106.943 116.412 102.662L115.866 101.593C107.7 105.766 98.7076 107.27 90.2046 107.337L90.214 108.537ZM72.5783 106.829C76.4619 107.585 80.8018 108.188 85.378 108.427L85.4407 107.229C80.9287 106.993 76.6451 106.399 72.8077 105.651L72.5783 106.829ZM86.0001 107.932L86.6001 104.545L85.4185 104.336L84.8185 107.723L86.0001 107.932ZM85.6255 104.902L89.8255 108.398L90.5932 107.475L86.3932 103.979L85.6255 104.902Z" fill="#FBFEFC"/>
<path d="M195.833 27.9724C137.121 44.5414 94.8286 72.9009 45.8096 106.624L46.7096 104.54C95.3727 63.2587 167.817 31.9178 195.254 26.8398L195.833 27.9724Z" fill="#FBFEFC"/>
</svg>
