<svg width="202" height="229" viewBox="0 0 202 229" fill="none" xmlns="http://www.w3.org/2000/svg">
<path d="M13.1416 211.615C11.3755 216.469 7.00002 226.589 5.856 227.587C5.45953 227.416 3.97091 221.513 3.97091 221.513L6.8697 206.649L9.973 201.341L12.0524 202.072L11.4853 198.807L19.8618 184.871L23.8767 181.228L25.0605 178.577C25.0605 178.577 28.2872 174.362 30.2343 171.575C39.0886 141.009 33.0054 117.867 61.4615 83.2341C61.4615 83.2341 59.5282 91.8429 60.5172 100.745C65.1557 79.7265 77.1637 62.4014 88.0328 50.3166L91.0491 49.7548L90.2687 47.8849C100.247 37.269 108.715 31.3288 108.715 31.3288C108.715 31.3288 103.597 39.3165 103.777 46.281C108.762 33.2025 122.291 20.7636 139.17 12.3904L142.212 13.4471L141.88 11.0944C157.23 4.02282 175.022 0.326396 191.578 2.43227L188.961 6.28827L197.89 3.53646C197.89 3.53646 175.811 51.1113 148.552 56.2004C155.187 58.1007 165.235 54.1135 165.235 54.1135C165.235 54.1135 153.188 75.8778 142.584 87.7388L142.487 87.8469C137.343 93.6003 133.094 98.3533 127.112 101.89L125.44 99.4418L123.916 103.579C118.059 106.329 110.51 108.105 99.4677 108.759C111.101 111.11 118.342 108.149 121.811 107.704C121.811 107.704 112.819 123.31 100.87 133.026C88.9212 142.743 73.8082 140.68 61.973 138.836C71.2903 142.995 81.02 143.499 93.9635 140.52C87.9579 147.607 80.1517 152.507 72.2721 155.868L67.0495 154.259L67.8005 157.617C63.5155 159.147 59.3061 160.256 55.4538 161.049C53.2695 161.528 48.0795 162.697 44.7939 163.548C41.5083 164.4 33.7704 177.099 33.7704 177.099L27.4371 184.245L20.8619 196.979L18.6079 197.617L18.8549 200.607L13.1416 211.615Z" fill="black"/>
<path d="M5.856 227.587L5.45985 228.505L6.51324 228.341L5.856 227.587ZM13.1416 211.615L12.254 211.154L12.2019 211.273L13.1416 211.615ZM33.7704 177.099L34.5187 177.763L34.6244 177.62L33.7704 177.099ZM44.7939 163.548L45.0447 164.516L45.0447 164.516L44.7939 163.548ZM55.4538 161.049L55.2522 160.07L55.2399 160.072L55.4538 161.049ZM3.97091 221.513L2.9894 221.321L3.00126 221.757L3.97091 221.513ZM6.8697 206.649L6.00638 206.145L5.88819 206.458L6.8697 206.649ZM25.0605 178.577L24.2665 177.969L24.1474 178.169L25.0605 178.577ZM30.2343 171.575L31.0541 172.148L31.1948 171.853L30.2343 171.575ZM18.8549 200.607L19.7424 201.068L19.8515 200.525L18.8549 200.607ZM18.6079 197.617L18.3354 196.655L17.6113 197.699L18.6079 197.617ZM20.8619 196.979L21.1344 197.941L21.7504 197.437L20.8619 196.979ZM9.973 201.341L10.3048 200.397L9.10969 200.836L9.973 201.341ZM12.0524 202.072L11.7206 203.015L13.0376 201.901L12.0524 202.072ZM11.4853 198.807L10.6282 198.292L10.5001 198.979L11.4853 198.807ZM19.8618 184.871L19.1898 184.13L19.0047 184.356L19.8618 184.871ZM23.8767 181.228L24.5486 181.968L24.7897 181.636L23.8767 181.228ZM27.4371 184.245L26.6887 183.582L26.5486 183.786L27.4371 184.245ZM121.811 107.704L122.678 108.203L121.684 106.712L121.811 107.704ZM165.235 54.1135L166.11 54.5978L164.867 53.184L165.235 54.1135ZM148.552 56.2004L148.368 55.2174L148.277 57.1617L148.552 56.2004ZM142.584 87.7388L143.329 88.4053L143.329 88.4053L142.584 87.7388ZM61.973 138.836L62.1269 137.848L61.5653 139.749L61.973 138.836ZM93.9635 140.52L94.7264 141.167L93.7392 139.546L93.9635 140.52ZM99.4677 108.759L99.4086 107.761L99.2696 109.74L99.4677 108.759ZM197.89 3.53646L198.797 3.95743L197.596 2.58082L197.89 3.53646ZM103.777 46.281L102.777 46.3068L104.711 46.6372L103.777 46.281ZM108.715 31.3288L109.557 31.8683L108.141 30.5101L108.715 31.3288ZM60.5172 100.745L59.5233 100.856L61.4937 100.961L60.5172 100.745ZM61.4615 83.2341L62.4372 83.4532L60.6889 82.5992L61.4615 83.2341ZM90.2687 47.8849L89.54 47.2L89.0963 47.6722L89.3458 48.2701L90.2687 47.8849ZM88.0328 50.3166L87.8497 49.3335L87.5161 49.3956L87.2892 49.6478L88.0328 50.3166ZM91.0491 49.7548L91.2322 50.7379L92.4485 50.5113L91.972 49.3696L91.0491 49.7548ZM139.17 12.3904L139.498 11.4457L139.102 11.308L138.726 11.4945L139.17 12.3904ZM141.88 11.0944L141.462 10.1861L140.786 10.4974L140.89 11.234L141.88 11.0944ZM142.212 13.4471L141.884 14.3917L143.431 14.9292L143.202 13.3075L142.212 13.4471ZM123.916 103.579L124.341 104.484L124.713 104.31L124.855 103.925L123.916 103.579ZM127.112 101.89L126.287 102.454L126.815 103.228L127.621 102.751L127.112 101.89ZM142.487 87.8469L141.741 87.1804L141.741 87.1804L142.487 87.8469ZM125.44 99.4418L126.266 98.8778L125.173 97.2763L124.502 99.0961L125.44 99.4418ZM191.578 2.43227L192.406 2.99378L193.32 1.64581L191.704 1.44026L191.578 2.43227ZM188.961 6.28827L188.134 5.72676L186.535 8.08233L189.256 7.24392L188.961 6.28827ZM72.2721 155.868L71.9777 156.824L72.3277 156.932L72.6645 156.788L72.2721 155.868ZM67.8005 157.617L68.137 158.558L68.9694 158.261L68.7764 157.398L67.8005 157.617ZM67.0495 154.259L67.3439 153.304L65.6976 152.797L66.0737 154.478L67.0495 154.259ZM6.51324 228.341C6.78733 228.102 7.05158 227.707 7.27902 227.334C7.52937 226.923 7.81343 226.403 8.11806 225.81C8.72846 224.622 9.44613 223.094 10.1785 221.455C11.6429 218.179 13.188 214.412 14.0814 211.956L12.2019 211.273C11.3291 213.672 9.80344 217.393 8.35254 220.639C7.62726 222.262 6.92618 223.754 6.33923 224.896C6.0452 225.468 5.78594 225.94 5.57113 226.293C5.46365 226.469 5.37324 226.606 5.30028 226.705C5.22041 226.814 5.1875 226.843 5.19877 226.833L6.51324 228.341ZM33.7704 177.099C34.6244 177.62 34.6243 177.62 34.6244 177.62C34.6244 177.62 34.6245 177.62 34.6245 177.619C34.6247 177.619 34.625 177.619 34.6254 177.618C34.6263 177.617 34.6276 177.614 34.6293 177.612C34.6328 177.606 34.6382 177.597 34.6453 177.585C34.6596 177.562 34.6811 177.527 34.7093 177.481C34.7658 177.39 34.8495 177.255 34.9574 177.082C35.1732 176.736 35.4856 176.241 35.871 175.644C36.6425 174.448 37.7032 172.848 38.8636 171.225C40.0271 169.597 41.2766 167.965 42.4263 166.696C43.0018 166.061 43.5361 165.535 44.0087 165.15C44.5005 164.749 44.8454 164.568 45.0447 164.516L44.5431 162.58C43.921 162.741 43.3054 163.143 42.7451 163.6C42.1657 164.072 41.5564 164.678 40.9444 165.353C39.7192 166.705 38.4181 168.408 37.2365 170.062C36.0517 171.719 34.9726 173.347 34.1905 174.56C33.7991 175.166 33.4814 175.67 33.2612 176.022C33.1511 176.198 33.0653 176.337 33.0069 176.432C32.9776 176.479 32.9552 176.516 32.94 176.54C32.9324 176.553 32.9266 176.562 32.9227 176.569C32.9207 176.572 32.9192 176.574 32.9181 176.576C32.9176 176.577 32.9172 176.578 32.9169 176.578C32.9168 176.578 32.9166 176.579 32.9166 176.579C32.9165 176.579 32.9164 176.579 33.7704 177.099ZM45.0447 164.516C48.3107 163.67 53.4848 162.504 55.6677 162.026L55.2399 160.072C53.0542 160.551 47.8484 161.724 44.5431 162.58L45.0447 164.516ZM6.25216 226.669C6.43349 226.747 6.53528 226.859 6.56183 226.889C6.59919 226.93 6.61784 226.961 6.61904 226.963C6.62174 226.967 6.60702 226.943 6.57569 226.872C6.51533 226.736 6.43598 226.525 6.34148 226.245C6.15459 225.693 5.9369 224.959 5.72732 224.214C5.51869 223.474 5.32189 222.737 5.17703 222.184C5.10466 221.908 5.04541 221.678 5.00431 221.518C4.98376 221.438 4.96775 221.375 4.95691 221.333C4.95149 221.311 4.94737 221.295 4.94462 221.284C4.94324 221.279 4.94221 221.275 4.94153 221.272C4.94119 221.271 4.94094 221.27 4.94077 221.269C4.94069 221.269 4.94063 221.268 4.9406 221.268C4.94058 221.268 4.94057 221.268 4.94056 221.268C4.94055 221.268 4.94056 221.268 3.97091 221.513C3.00126 221.757 3.00128 221.757 3.00129 221.757C3.00131 221.757 3.00133 221.757 3.00136 221.757C3.00141 221.758 3.00149 221.758 3.00159 221.758C3.00179 221.759 3.00208 221.76 3.00245 221.762C3.00321 221.765 3.00432 221.769 3.00577 221.775C3.00867 221.786 3.01296 221.803 3.01854 221.825C3.0297 221.869 3.04606 221.933 3.06699 222.015C3.10884 222.178 3.16899 222.411 3.24237 222.691C3.38902 223.251 3.58915 224 3.80223 224.757C4.01437 225.51 4.24317 226.284 4.44691 226.886C4.54772 227.184 4.64972 227.462 4.74666 227.681C4.79397 227.788 4.85189 227.908 4.91995 228.018C4.95383 228.073 5.00334 228.146 5.0696 228.22C5.12504 228.282 5.25374 228.416 5.45985 228.505L6.25216 226.669ZM4.95242 221.704L7.8512 206.841L5.88819 206.458L2.9894 221.321L4.95242 221.704ZM25.0605 178.577C25.8545 179.185 25.8546 179.185 25.8546 179.185C25.8546 179.185 25.8547 179.185 25.8547 179.184C25.8548 179.184 25.855 179.184 25.8552 179.184C25.8556 179.183 25.8562 179.183 25.857 179.181C25.8586 179.179 25.861 179.176 25.8641 179.172C25.8704 179.164 25.8796 179.152 25.8918 179.136C25.9161 179.104 25.9519 179.057 25.9981 178.997C26.0906 178.875 26.2247 178.699 26.3917 178.479C26.7256 178.039 27.1911 177.424 27.7176 176.721C28.7689 175.317 30.0706 173.556 31.0541 172.148L29.4145 171.002C28.4509 172.382 27.1657 174.121 26.1168 175.522C25.5934 176.221 25.1305 176.833 24.7985 177.27C24.6326 177.489 24.4994 177.664 24.4078 177.784C24.362 177.844 24.3266 177.89 24.3027 177.922C24.2907 177.937 24.2816 177.949 24.2755 177.957C24.2725 177.961 24.2702 177.964 24.2687 177.966C24.268 177.967 24.2674 177.968 24.267 177.968C24.2668 177.968 24.2667 177.969 24.2666 177.969C24.2666 177.969 24.2665 177.969 24.2665 177.969C24.2665 177.969 24.2665 177.969 25.0605 178.577ZM14.0292 212.075L19.7424 201.068L17.9673 200.146L12.254 211.154L14.0292 212.075ZM19.8515 200.525L19.6045 197.535L17.6113 197.699L17.8583 200.689L19.8515 200.525ZM18.8805 198.579L21.1344 197.941L20.5893 196.017L18.3354 196.655L18.8805 198.579ZM7.73301 207.154L10.8363 201.845L9.10969 200.836L6.00638 206.145L7.73301 207.154ZM9.64123 202.284L11.7206 203.015L12.3842 201.129L10.3048 200.397L9.64123 202.284ZM13.0376 201.901L12.4706 198.636L10.5001 198.979L11.0671 202.243L13.0376 201.901ZM12.3424 199.323L20.7189 185.386L19.0047 184.356L10.6282 198.292L12.3424 199.323ZM20.5337 185.611L24.5486 181.968L23.2047 180.487L19.1898 184.13L20.5337 185.611ZM24.7897 181.636L25.9736 178.985L24.1474 178.169L22.9636 180.82L24.7897 181.636ZM21.7504 197.437L28.3256 184.704L26.5486 183.786L19.9733 196.52L21.7504 197.437ZM28.1855 184.908L34.5187 177.763L33.022 176.436L26.6887 183.582L28.1855 184.908ZM101.501 133.802C107.571 128.866 112.864 122.458 116.629 117.312C118.514 114.733 120.024 112.461 121.063 110.831C121.582 110.017 121.984 109.362 122.257 108.91C122.394 108.684 122.498 108.509 122.569 108.389C122.604 108.329 122.631 108.283 122.649 108.252C122.658 108.236 122.665 108.225 122.67 108.216C122.672 108.212 122.674 108.209 122.675 108.207C122.676 108.206 122.676 108.205 122.677 108.204C122.677 108.204 122.677 108.203 122.677 108.203C122.677 108.203 122.678 108.203 121.811 107.704C120.945 107.204 120.945 107.204 120.945 107.204C120.945 107.204 120.945 107.204 120.945 107.205C120.944 107.205 120.944 107.205 120.944 107.206C120.943 107.208 120.941 107.21 120.939 107.214C120.935 107.22 120.929 107.231 120.921 107.245C120.904 107.274 120.879 107.317 120.846 107.373C120.779 107.487 120.678 107.656 120.545 107.876C120.28 108.315 119.886 108.956 119.376 109.756C118.356 111.357 116.87 113.593 115.014 116.131C111.295 121.216 106.118 127.47 100.239 132.25L101.501 133.802ZM165.235 54.1135C164.867 53.184 164.867 53.1839 164.867 53.1839C164.867 53.1839 164.867 53.1838 164.867 53.1839C164.867 53.1839 164.867 53.184 164.866 53.1841C164.865 53.1844 164.864 53.1849 164.862 53.1857C164.858 53.1872 164.852 53.1897 164.843 53.1931C164.826 53.1998 164.8 53.2101 164.764 53.2236C164.693 53.2508 164.586 53.291 164.447 53.342C164.168 53.444 163.76 53.5886 163.249 53.7569C162.225 54.0938 160.793 54.5234 159.16 54.8944C155.851 55.6464 151.89 56.1161 148.827 55.2391L148.277 57.1617C151.849 58.185 156.23 57.6113 159.603 56.8447C161.312 56.4564 162.806 56.008 163.874 55.6567C164.409 55.4808 164.837 55.3288 165.134 55.2201C165.283 55.1658 165.398 55.1222 165.478 55.0919C165.518 55.0767 165.548 55.0649 165.569 55.0566C165.58 55.0525 165.588 55.0493 165.594 55.047C165.597 55.0458 165.599 55.0449 165.601 55.0443C165.602 55.0439 165.602 55.0436 165.603 55.0434C165.603 55.0433 165.604 55.0432 165.604 55.0431C165.604 55.043 165.604 55.043 165.235 54.1135ZM143.329 88.4053C148.691 82.4083 154.39 73.9418 158.733 67.0091C160.909 63.5361 162.752 60.4353 164.052 58.2024C164.701 57.0858 165.215 56.1859 165.567 55.5646C165.743 55.2539 165.879 55.0128 165.97 54.8491C166.016 54.7673 166.051 54.7048 166.074 54.6625C166.086 54.6414 166.095 54.6254 166.101 54.6146C166.104 54.6092 166.106 54.605 166.108 54.6022C166.109 54.6008 166.109 54.5997 166.11 54.599C166.11 54.5986 166.11 54.5983 166.11 54.5981C166.11 54.5979 166.11 54.5978 165.235 54.1135C164.36 53.6292 164.36 53.6292 164.36 53.6293C164.36 53.6294 164.36 53.6296 164.36 53.6299C164.36 53.6305 164.359 53.6314 164.359 53.6326C164.357 53.6351 164.355 53.6389 164.352 53.644C164.347 53.6542 164.338 53.6695 164.327 53.69C164.304 53.7308 164.27 53.792 164.225 53.8724C164.135 54.0333 164.001 54.2714 163.827 54.579C163.478 55.1943 162.968 56.0874 162.323 57.1965C161.032 59.4151 159.2 62.4967 157.039 65.9474C152.707 72.8621 147.081 81.2083 141.838 87.0723L143.329 88.4053ZM61.819 139.824C73.5937 141.659 89.1613 143.836 101.501 133.802L100.239 132.25C88.6811 141.649 74.0228 139.701 62.1269 137.848L61.819 139.824ZM93.7392 139.546C80.9426 142.491 71.4463 141.97 62.3806 137.922L61.5653 139.749C71.1342 144.02 81.0974 144.508 94.1878 141.495L93.7392 139.546ZM121.684 106.712C117.978 107.188 111.083 110.086 99.6657 107.779L99.2696 109.74C111.118 112.133 118.707 109.111 121.939 108.695L121.684 106.712ZM148.736 57.1834C155.795 55.8655 162.446 51.8149 168.42 46.5766C174.402 41.332 179.768 34.8417 184.258 28.5403C188.75 22.2351 192.382 16.0942 194.891 11.5313C196.146 9.24903 197.121 7.35941 197.782 6.0387C198.113 5.37829 198.366 4.85999 198.537 4.5058C198.622 4.32871 198.687 4.19263 198.73 4.10032C198.752 4.05416 198.769 4.01895 198.78 3.99502C198.786 3.98306 198.79 3.97391 198.793 3.96763C198.794 3.96449 198.795 3.96207 198.796 3.96037C198.797 3.95952 198.797 3.95878 198.797 3.95835C198.797 3.9578 198.797 3.95743 197.89 3.53646C196.983 3.1155 196.983 3.11549 196.983 3.11566C196.983 3.11596 196.983 3.11631 196.983 3.1169C196.982 3.11809 196.981 3.12 196.98 3.12263C196.978 3.12788 196.974 3.13599 196.969 3.14691C196.958 3.16875 196.943 3.20185 196.922 3.24587C196.88 3.3339 196.818 3.46559 196.735 3.63818C196.569 3.98338 196.32 4.49216 195.994 5.14257C195.342 6.44348 194.379 8.3104 193.138 10.5678C190.655 15.0842 187.064 21.1551 182.629 27.3797C178.191 33.6081 172.927 39.9657 167.102 45.0728C161.27 50.1861 154.939 53.9907 148.368 55.2174L148.736 57.1834ZM104.776 46.2551C104.692 42.9941 105.856 39.4183 107.094 36.5947C107.707 35.1959 108.327 34.0084 108.792 33.1717C109.024 32.7538 109.218 32.4244 109.352 32.2012C109.419 32.0896 109.472 32.0045 109.507 31.9483C109.524 31.9202 109.537 31.8993 109.546 31.8859C109.55 31.8791 109.553 31.8743 109.555 31.8714C109.556 31.8699 109.557 31.8689 109.557 31.8684C109.557 31.8681 109.557 31.868 109.557 31.868C109.557 31.868 109.557 31.868 109.557 31.868C109.557 31.8682 109.557 31.8683 108.715 31.3288C107.873 30.7893 107.873 30.7895 107.873 30.7897C107.873 30.7898 107.872 30.7901 107.872 30.7903C107.872 30.7908 107.872 30.7914 107.871 30.7921C107.87 30.7935 107.869 30.7954 107.868 30.7978C107.864 30.8026 107.86 30.8093 107.855 30.8179C107.844 30.8352 107.828 30.86 107.808 30.892C107.768 30.9562 107.711 31.0496 107.639 31.17C107.494 31.4108 107.289 31.7599 107.044 32.1996C106.555 33.0782 105.906 34.323 105.262 35.7917C103.986 38.703 102.681 42.6034 102.777 46.3068L104.776 46.2551ZM61.5111 100.635C61.0275 96.2821 61.2575 91.9833 61.6125 88.7608C61.7897 87.1526 61.9972 85.8196 62.1599 84.8909C62.2412 84.4267 62.3113 84.064 62.3607 83.8189C62.3854 83.6964 62.4049 83.6033 62.4181 83.5416C62.4246 83.5108 62.4296 83.4879 62.4329 83.473C62.4345 83.4656 62.4357 83.4602 62.4364 83.4569C62.4368 83.4553 62.437 83.4541 62.4372 83.4535C62.4372 83.4532 62.4373 83.453 62.4373 83.453C62.4373 83.4529 62.4373 83.453 62.4373 83.453C62.4373 83.4531 62.4372 83.4532 61.4615 83.2341C60.4858 83.015 60.4858 83.0152 60.4858 83.0154C60.4857 83.0155 60.4857 83.0158 60.4856 83.016C60.4855 83.0165 60.4854 83.0171 60.4852 83.0178C60.4849 83.0193 60.4844 83.0213 60.4839 83.0238C60.4828 83.0288 60.4812 83.0359 60.4792 83.0451C60.4752 83.0634 60.4694 83.0898 60.4621 83.1242C60.4474 83.1931 60.4263 83.2936 60.4001 83.4239C60.3476 83.6843 60.2744 84.0637 60.1899 84.5457C60.0211 85.5094 59.8071 86.885 59.6245 88.5418C59.2601 91.8494 59.0179 96.3062 59.5233 100.856L61.5111 100.635ZM60.6889 82.5992C46.352 100.048 40.6955 114.638 37.5217 128.709C35.9411 135.718 34.9753 142.605 33.8598 149.589C32.742 156.588 31.4697 163.716 29.2738 171.297L31.1948 171.853C33.426 164.151 34.7136 156.924 35.8348 149.905C36.9582 142.871 37.9103 136.077 39.4727 129.15C42.585 115.351 48.1149 101.053 62.2342 83.8689L60.6889 82.5992ZM108.715 31.3288C108.141 30.5101 108.141 30.5102 108.14 30.5103C108.14 30.5104 108.14 30.5106 108.14 30.5107C108.139 30.511 108.139 30.5114 108.138 30.5119C108.137 30.5128 108.135 30.5141 108.133 30.5158C108.128 30.5191 108.121 30.5239 108.112 30.5301C108.095 30.5425 108.069 30.5607 108.036 30.5847C107.969 30.6326 107.87 30.7034 107.742 30.7969C107.486 30.9839 107.111 31.2614 106.63 31.627C105.67 32.3582 104.287 33.442 102.592 34.8586C99.2034 37.6913 94.5615 41.8577 89.54 47.2L90.9973 48.5698C95.9543 43.2962 100.536 39.1845 103.875 36.3931C105.545 34.9977 106.903 33.9329 107.842 33.2186C108.311 32.8614 108.675 32.5919 108.921 32.4126C109.044 32.3229 109.137 32.2558 109.199 32.2115C109.23 32.1893 109.253 32.1729 109.268 32.1622C109.276 32.1569 109.281 32.1529 109.285 32.1505C109.287 32.1493 109.288 32.1484 109.289 32.1479C109.289 32.1476 109.289 32.1475 109.289 32.1474C109.289 32.1473 109.289 32.1474 109.289 32.1473C109.289 32.1474 109.289 32.1474 108.715 31.3288ZM87.2892 49.6478C76.3587 61.801 64.2306 79.2779 59.5407 100.53L61.4937 100.961C66.0808 80.175 77.9687 63.0017 88.7763 50.9853L87.2892 49.6478ZM89.3458 48.2701L90.1263 50.1399L91.972 49.3696L91.1915 47.4998L89.3458 48.2701ZM90.866 48.7717L87.8497 49.3335L88.2159 51.2997L91.2322 50.7379L90.866 48.7717ZM138.726 11.4945C121.728 19.927 107.952 32.5202 102.842 45.9248L104.711 46.6372C109.572 33.8849 122.855 21.6001 139.615 13.2862L138.726 11.4945ZM140.89 11.234L141.222 13.5868L143.202 13.3075L142.87 10.9547L140.89 11.234ZM142.54 12.5025L139.498 11.4457L138.842 13.335L141.884 14.3917L142.54 12.5025ZM99.5268 109.758C110.644 109.099 118.33 107.307 124.341 104.484L123.491 102.674C117.788 105.352 110.376 107.112 99.4086 107.761L99.5268 109.758ZM127.621 102.751C133.758 99.1225 138.106 94.2478 143.232 88.5134L141.741 87.1804C136.581 92.9527 132.43 97.5842 126.604 101.029L127.621 102.751ZM143.232 88.5134L143.329 88.4053L141.838 87.0723L141.741 87.1804L143.232 88.5134ZM124.855 103.925L126.379 99.7875L124.502 99.0961L122.978 103.233L124.855 103.925ZM124.615 100.006L126.287 102.454L127.938 101.326L126.266 98.8778L124.615 100.006ZM191.704 1.44026C174.925 -0.693986 156.944 3.05356 141.462 10.1861L142.299 12.0026C157.516 4.99207 175.119 1.34678 191.452 3.42427L191.704 1.44026ZM189.789 6.84979L192.406 2.99378L190.751 1.87075L188.134 5.72676L189.789 6.84979ZM197.596 2.58082L188.667 5.33263L189.256 7.24392L198.185 4.49211L197.596 2.58082ZM72.6645 156.788C80.6412 153.385 88.5923 148.405 94.7264 141.167L93.2006 139.874C87.3234 146.809 79.6621 151.628 71.8797 154.948L72.6645 156.788ZM55.6554 162.029C59.5462 161.228 63.8014 160.107 68.137 158.558L67.4641 156.675C63.2295 158.188 59.066 159.285 55.2522 160.07L55.6554 162.029ZM68.7764 157.398L68.0254 154.041L66.0737 154.478L66.8247 157.835L68.7764 157.398ZM66.7552 155.215L71.9777 156.824L72.5665 154.913L67.3439 153.304L66.7552 155.215Z" fill="#FBFEFC"/>
<path d="M138.947 41.392C91.1471 79.2966 63.0408 121.758 30.7929 171.76L30.8207 169.49C59.8291 112.65 114.613 55.8239 137.976 40.57L138.947 41.392Z" fill="#FBFEFC"/>
</svg>
