<svg width="223" height="471" viewBox="0 0 223 471" fill="none" xmlns="http://www.w3.org/2000/svg">
<path fill-rule="evenodd" clip-rule="evenodd" d="M32.6252 93.3394C33.7355 94.0634 34.0486 95.5504 33.3246 96.6606C30.6958 100.692 29.062 107.605 28.7149 114.952C28.3686 122.28 29.33 129.448 31.3869 133.889C31.9439 135.092 31.4205 136.518 30.2177 137.075C29.015 137.632 27.5884 137.109 27.0313 135.906C24.5145 130.472 23.5565 122.424 23.9202 114.725C24.2831 107.046 25.9888 99.1226 29.3039 94.0388C30.028 92.9285 31.5149 92.6154 32.6252 93.3394Z" fill="#FBFEFC"/>
<path fill-rule="evenodd" clip-rule="evenodd" d="M32.097 144.83C33.4113 144.658 34.6162 145.584 34.7883 146.898C34.868 147.507 35.2343 148.67 35.8417 150.051C36.431 151.391 37.1388 152.692 37.748 153.554C38.5131 154.636 38.256 156.134 37.1736 156.899C36.0913 157.664 34.5936 157.407 33.8285 156.325C32.9774 155.121 32.1207 153.514 31.4478 151.984C30.7931 150.495 30.1996 148.826 30.0289 147.521C29.8568 146.207 30.7827 145.002 32.097 144.83Z" fill="#FBFEFC"/>
<path fill-rule="evenodd" clip-rule="evenodd" d="M111.193 219.926C171.246 219.926 219.929 171.243 219.929 111.19C219.929 51.1373 171.246 2.45474 111.193 2.45473C51.1402 2.45471 2.45758 51.1373 2.45761 111.19C2.45764 171.243 51.1403 219.926 111.193 219.926ZM111.421 209.313C165.696 209.313 209.694 165.315 209.694 111.04C209.694 56.7655 165.695 12.7672 111.421 12.7672C57.1462 12.7672 13.148 56.7655 13.148 111.04C13.1481 165.315 57.1463 209.313 111.421 209.313Z" fill="black"/>
<path fill-rule="evenodd" clip-rule="evenodd" d="M111.206 4.925C52.4784 4.925 4.87029 52.5331 4.87031 111.261C4.87033 169.988 52.4784 217.596 111.206 217.596C169.934 217.596 217.542 169.988 217.542 111.261C217.542 52.5331 169.933 4.925 111.206 4.925ZM0.0703125 111.261C0.070292 49.8821 49.8274 0.125 111.206 0.125C172.584 0.125 222.342 49.8821 222.342 111.261C222.342 172.639 172.584 222.396 111.206 222.396C49.8275 222.396 0.070333 172.639 0.0703125 111.261Z" fill="#FBFEFC"/>
<path fill-rule="evenodd" clip-rule="evenodd" d="M111.433 14.0375C57.8207 14.0375 14.3597 57.4985 14.3598 111.11C14.3598 164.722 57.8208 208.183 111.433 208.183C165.045 208.183 208.506 164.722 208.506 111.11C208.505 57.4985 165.044 14.0375 111.433 14.0375ZM11.9598 111.11C11.9597 56.173 56.4952 11.6375 111.433 11.6375C166.37 11.6375 210.905 56.173 210.906 111.11C210.906 166.048 166.37 210.583 111.433 210.583C56.4953 210.583 11.9598 166.048 11.9598 111.11Z" fill="#FBFEFC"/>
<path d="M93.9908 220.492H128.657L131.991 257.092H89.9908L93.9908 220.492Z" fill="black"/>
<path fill-rule="evenodd" clip-rule="evenodd" d="M92.9148 219.292H129.753L133.305 258.292H88.6525L92.9148 219.292ZM95.0668 221.692L91.3291 255.892H130.677L127.562 221.692H95.0668Z" fill="#FBFEFC"/>
<path d="M92.6684 237.892H129.401L130.292 247.939H91.7779L92.6684 237.892Z" fill="#FBFEFC"/>
<path fill-rule="evenodd" clip-rule="evenodd" d="M91.57 236.692H130.5L131.603 249.139H90.4668L91.57 236.692ZM93.7667 239.092L93.089 246.739H128.981L128.303 239.092H93.7667Z" fill="#FBFEFC"/>
<path d="M90.1031 257.427H131.966L131.966 461.341C131.966 465.557 128.549 468.974 124.333 468.974H97.7364C93.5207 468.974 90.1032 465.557 90.1032 461.341L90.1031 257.427Z" fill="black"/>
<path fill-rule="evenodd" clip-rule="evenodd" d="M88.9031 256.227H133.166L133.166 461.341C133.166 466.22 129.211 470.174 124.333 470.174H97.7364C92.8579 470.174 88.9032 466.22 88.9032 461.341L88.9031 256.227ZM91.3031 258.627L91.3032 461.341C91.3032 464.894 94.1834 467.774 97.7364 467.774H124.333C127.886 467.774 130.766 464.894 130.766 461.341L130.766 258.627H91.3031Z" fill="#FBFEFC"/>
<path d="M84.5201 258.823C84.5201 257.128 85.8945 255.754 87.59 255.754H134.476C136.172 255.754 137.546 257.128 137.546 258.823C137.546 260.519 136.172 261.893 134.476 261.893H87.59C85.8945 261.893 84.5201 260.519 84.5201 258.823Z" fill="#FBFEFC"/>
<path fill-rule="evenodd" clip-rule="evenodd" d="M83.3201 258.823C83.3201 256.465 85.2318 254.554 87.59 254.554H134.476C136.835 254.554 138.746 256.465 138.746 258.823C138.746 261.182 136.835 263.093 134.476 263.093H87.59C85.2318 263.093 83.3201 261.182 83.3201 258.823ZM87.59 256.953C86.5573 256.953 85.7201 257.791 85.7201 258.823C85.7201 259.856 86.5573 260.693 87.59 260.693H134.476C135.509 260.693 136.346 259.856 136.346 258.823C136.346 257.791 135.509 256.953 134.476 256.953H87.59Z" fill="#FBFEFC"/>
<path d="M83.4039 464.943C83.4039 462.477 85.4031 460.478 87.8692 460.478H134.197C136.664 460.478 138.663 462.477 138.663 464.943C138.663 467.41 136.664 469.409 134.197 469.409H87.8692C85.4031 469.409 83.4039 467.41 83.4039 464.943Z" fill="#FBFEFC"/>
<path fill-rule="evenodd" clip-rule="evenodd" d="M82.2039 464.943C82.2039 461.815 84.7403 459.278 87.8692 459.278H134.197C137.326 459.278 139.863 461.815 139.863 464.943C139.863 468.072 137.326 470.609 134.197 470.609H87.8692C84.7403 470.609 82.2039 468.072 82.2039 464.943ZM87.8692 461.678C86.0658 461.678 84.6039 463.14 84.6039 464.943C84.6039 466.747 86.0658 468.209 87.8692 468.209H134.197C136.001 468.209 137.463 466.747 137.463 464.943C137.463 463.14 136.001 461.678 134.197 461.678H87.8692Z" fill="#FBFEFC"/>
</svg>
