<svg width="245" height="240" viewBox="0 0 245 240" fill="none" xmlns="http://www.w3.org/2000/svg">
<path d="M67.851 95.3403L53.1716 96.6163L68.9585 119.859L91.5689 123.579L191.521 150.578L221.324 143.424L218.27 139.893L197.921 134.967L188.697 136.884L176.688 128.739L165.4 124.995L154.859 118.297L144.104 117.723L129.515 110.786L123.642 114.776L111.155 108.313L107.042 108.933L86.7313 98.8186L67.851 95.3403Z" fill="#FBFEFC"/>
<path d="M70.77 98.8116L56.2208 100.021L71.9685 123.206L83.1516 136.977L83.7912 140.612L92.2491 153.064L97.303 153.819L94.8258 156.858L111.023 183.503L115.642 186.809L116.067 190.93L128.277 206.108L140.005 196.715L151.231 190.517L162.469 184.849L168.446 178.824L168.758 174.134L174.184 174.927L185.494 165.818L190.468 165.153L199.85 157.494L220.091 143.746L199.895 138.762L190.758 140.632L178.817 132.481L167.61 128.71L157.131 122.004L146.466 121.389L131.972 114.429L126.165 118.373L113.759 111.893L109.683 112.493L89.5038 102.349L70.77 98.8116Z" fill="black" stroke="white" stroke-width="2"/>
<path d="M132.751 169.632L101.381 146.365L115.955 124.546L127.796 114.487L141.373 107.036L146.746 91.618L164.738 69.9039L169.742 59.6342L183.015 39.8538L196.875 51.3385L195.133 60.0243L207.501 60.1434L222.16 82.4195L236.271 87.4888L226.284 101.421L209.856 119.367L207.546 117.453L197.797 133.92L176.55 159.561L155.62 188.582L142.915 178.054L141.279 169.685L132.751 169.632Z" fill="black" stroke="#FBFEFC" stroke-width="2"/>
<path d="M146.003 141.564C148.088 143.292 149.418 144.911 146.797 148.073C144.177 151.236 142.267 150.448 140.117 148.667L135.046 144.465C133.91 143.523 133.393 143.919 132.7 144.756L132.399 144.507L135.718 140.502L136.024 140.756C135.341 141.58 135.032 142.169 136.175 143.115L141.24 147.312C142.794 148.601 144.617 149.495 146.256 147.516C148.072 145.325 147.098 143.922 145.29 142.424L140.219 138.222C139.077 137.275 138.556 137.688 137.873 138.513L137.572 138.264L140.486 134.748L140.792 135.002C140.099 135.838 139.8 136.415 140.943 137.361L146.008 141.558L146.003 141.564Z" fill="#FBFEFC"/>
<path d="M156.235 135.847C155.892 136.824 155.324 137.785 154.392 138.91C151.869 141.955 148.344 141.497 145.105 138.813C142.29 136.48 140.979 133.855 143.678 130.598C144.688 129.379 145.784 128.548 146.522 128.028L149.026 129.874L148.709 130.257C147.689 129.749 145.82 129.224 144.258 131.108C142.228 133.558 144.665 135.916 146.232 137.214C148.193 138.839 151.571 140.923 154.334 137.59C155.178 136.571 155.402 135.833 155.576 135.311L156.23 135.853L156.235 135.847Z" fill="#FBFEFC"/>
<path d="M155.322 121.303C154.403 120.77 152.953 120.602 151.606 122.227C150.762 123.246 150.669 124.689 151.676 125.523C153.031 126.646 154.97 125.204 156.846 124.523C158.542 123.902 159.835 123.612 161.278 124.808C163.21 126.409 162.737 128.838 161.009 130.923C160.15 131.959 158.925 132.97 158.554 133.299L156.322 131.628L156.639 131.245C157.549 131.79 159.082 131.858 160.433 130.227C161.541 128.89 161.398 127.301 160.349 126.432C158.706 125.071 156.112 127.183 153.857 127.698C152.782 127.94 151.971 127.804 150.999 126.999C149.163 125.487 149.664 123.36 151.25 121.446C152.095 120.427 152.76 119.876 153.466 119.299L155.639 120.92L155.322 121.303Z" fill="#FBFEFC"/>
<path d="M169.14 120.823C169.045 121.022 168.849 121.426 168.444 121.915C167.795 122.698 167.198 122.591 166.615 122.108L166.591 122.138C166.857 123.063 166.751 123.959 165.989 124.877C165.228 125.796 163.995 125.966 163.111 125.234C161.15 123.609 163.258 121.065 164.018 119.956L163.506 119.531C162.558 118.746 161.547 117.928 160.605 119.065C159.907 119.907 160.172 120.306 160.602 120.662C161.156 121.121 160.972 121.654 160.782 121.883C160.479 122.249 160.004 122.331 159.639 122.029C158.761 121.302 159.402 119.617 160.173 118.687C161.71 116.832 162.883 117.238 164.138 118.277L167.495 121.059C167.966 121.449 168.268 121.421 168.614 121.003C168.717 120.879 168.785 120.737 168.864 120.594L169.146 120.828L169.14 120.823ZM164.46 120.322C163.945 120.968 162.633 122.802 163.894 123.846C164.601 124.432 165.452 124.363 165.833 123.903C166.56 123.026 166.18 121.747 165.261 120.986L164.46 120.322Z" fill="#FBFEFC"/>
<path d="M169.143 120.329C169.616 119.758 169.873 119.196 168.995 118.469L165.297 115.404C164.484 114.731 163.916 115.333 163.565 115.708L163.336 115.517L164.739 113.164L166.524 114.643L166.548 114.613C166.204 114.01 165.427 112.334 166.535 110.997C167.726 109.56 168.622 110.073 169.882 111.118L172.968 113.675C173.845 114.402 174.35 114.045 174.823 113.474L175.053 113.664L172.471 116.78L172.242 116.589C172.715 116.018 172.972 115.456 172.094 114.729L169.309 112.421C168.143 111.454 167.609 111.032 166.867 111.927C166.203 112.728 166.929 114.969 168.213 116.033L169.88 117.414C170.757 118.141 171.262 117.784 171.735 117.213L171.965 117.403L169.383 120.519L169.153 120.328L169.143 120.329Z" fill="#FBFEFC"/>
<path d="M176.025 111.866C176.708 111.041 177.017 110.453 175.874 109.506L168.842 103.679C167.7 102.732 167.179 103.145 166.496 103.97L166.195 103.721L169.143 100.163C171.237 97.6368 174.005 95.4109 178.54 99.1686C183.075 102.926 181.26 106.171 179.279 108.562L176.331 112.119L176.025 111.866ZM176.679 107.888C177.792 108.81 178.059 108.823 178.689 108.063C180.86 105.442 180.352 103.203 177.295 100.67C174.498 98.3523 172.139 97.7586 169.743 100.65C169.113 101.41 169.099 101.607 170.289 102.593L176.679 107.888Z" fill="#FBFEFC"/>
<path d="M183.827 102.606C184.295 102.041 184.557 101.473 183.68 100.746L179.987 97.6861C179.174 97.0127 178.616 97.6028 178.255 97.9897L178.026 97.7994L179.429 95.446L184.559 99.6966C185.437 100.424 185.941 100.067 186.414 99.4956L186.644 99.6859L184.062 102.801L183.833 102.611L183.827 102.606ZM176.291 95.1101C175.861 94.7539 175.797 94.1351 176.159 93.6993C176.52 93.2634 177.139 93.2108 177.569 93.567C177.999 93.9233 178.058 94.5479 177.702 94.9779C177.345 95.4078 176.727 95.4712 176.291 95.1101Z" fill="#FBFEFC"/>
<path d="M190.582 94.6948C190.437 95.1212 190.174 95.6782 189.491 96.5027C187.753 98.5994 185.629 98.8257 183.35 96.9371C181.377 95.3022 180.939 93.5887 182.554 91.6392C183.565 90.4201 185.15 89.8858 186.722 91.1888L187.023 91.4377L183.758 95.3778C184.894 96.3197 187.668 97.684 189.542 95.4224C189.8 95.1102 190.062 94.7109 190.151 94.3277L190.586 94.6889L190.582 94.6948ZM185.575 92.2849C184.857 91.6896 183.726 91.16 182.863 92.2024C181.999 93.2449 182.81 94.6029 183.311 95.0177L185.575 92.2849Z" fill="#FBFEFC"/>
<path d="M193.403 89.3131C193.94 88.6653 195.214 87.1878 196.716 88.4323C198.217 89.6767 197.87 91.9419 196.377 93.7441C195.279 95.0692 193.631 96.0385 192.412 95.0283C191.57 94.3304 191.722 93.4036 191.866 92.7979C191.541 92.9154 190.989 93.054 190.423 92.5856C189.923 92.1707 189.766 91.3162 189.728 91.0265C189.211 91.1239 188.414 91.2583 187.265 90.3067C185.516 88.8573 186.193 87.2728 187.257 85.9889C187.775 85.3646 188.159 85.1167 188.75 84.8712C188.418 84.2288 187.75 83.1289 188.433 82.3043C188.745 81.9274 189.211 81.8566 189.618 82.1933C189.983 82.4959 190.034 82.9257 189.697 83.332C189.404 83.6854 189.148 83.6117 189.001 83.7884C188.757 84.0829 189.049 84.5335 189.203 84.7799C189.516 84.7614 190.383 84.7345 191.331 85.5202C192.697 86.6523 192.761 88.1456 191.414 89.7712C190.965 90.313 190.574 90.6539 190.194 90.8362C190.232 91.0064 190.306 91.3363 190.601 91.5803C191.142 92.0292 191.704 91.3519 192.06 90.922L193.382 89.3259L193.403 89.3131ZM192.421 92.4527C192.402 92.8944 192.32 93.4616 192.926 93.9643C193.721 94.6231 195.012 94.4804 195.988 93.3025C196.964 92.1246 197.314 90.4078 196.342 89.6026C195.653 89.0317 194.95 89.4126 194.393 90.084L192.431 92.4516L192.421 92.4527ZM191.041 89.3227C191.983 88.186 191.21 87.297 190.497 86.7065C189.484 85.8671 188.378 85.547 187.573 86.5188C186.685 87.5907 187.302 88.44 188.092 89.094C189.122 89.948 190.237 90.3052 191.047 89.3276" fill="#FBFEFC"/>
<path d="M193.166 85.4624C191.134 83.7787 190.823 81.6731 192.258 79.9416C193.692 78.21 195.819 78.1247 197.851 79.8084C199.883 81.492 200.194 83.5977 198.76 85.3292C197.325 87.0607 195.198 87.146 193.166 85.4624ZM198.312 84.9583C199.434 83.6037 197.98 81.942 196.855 81.0099C195.731 80.0778 193.828 78.9578 192.705 80.3124C191.583 81.667 193.037 83.3288 194.162 84.2609C195.286 85.193 197.189 86.3129 198.312 84.9583Z" fill="#FBFEFC"/>
<path d="M193.276 96.4301L144.732 155.014L145.074 155.297L193.886 96.3892C193.677 96.425 193.467 96.4393 193.271 96.436" fill="#FBFEFC"/>
<path d="M203.074 84.604L198.282 90.3876C198.303 90.6138 198.314 90.8409 198.292 91.0711L203.421 84.8812L203.079 84.5981L203.074 84.604Z" fill="#FBFEFC"/>
<path d="M150.617 156.363L151.227 155.627L154.461 158.306L155.827 156.657L156.41 157.14L154.434 159.526L150.617 156.363Z" fill="#FBFEFC"/>
<path d="M153.658 152.694L153.053 153.425L156.869 156.587L157.474 155.857L153.658 152.694Z" fill="#FBFEFC"/>
<path d="M154.409 151.896C154.552 151.628 154.868 151.174 155.209 150.762C155.658 150.22 156.001 149.938 156.403 149.814C156.749 149.683 157.138 149.718 157.462 149.986C157.809 150.274 157.943 150.772 157.735 151.335L157.747 151.345C158.198 151.003 158.838 150.878 159.362 151.313C159.704 151.596 159.842 151.968 159.824 152.35C159.825 152.828 159.558 153.402 158.948 154.138C158.611 154.545 158.328 154.826 158.148 154.995L154.397 151.887L154.409 151.896ZM156.511 152.416L156.823 152.04C157.243 151.533 157.247 151.06 156.929 150.796C156.57 150.499 156.171 150.645 155.785 151.11C155.61 151.322 155.514 151.461 155.468 151.553L156.511 152.416ZM158.266 153.871C158.356 153.786 158.469 153.662 158.606 153.497C158.996 153.025 159.172 152.466 158.7 152.075C158.259 151.709 157.739 151.964 157.32 152.471L157.017 152.836L158.26 153.866L158.266 153.871Z" fill="#FBFEFC"/>
<path d="M157.249 148.469C157.427 148.159 157.733 147.717 158.084 147.293C158.563 146.716 158.978 146.395 159.416 146.31C159.773 146.239 160.145 146.329 160.469 146.597C160.964 147.007 161.006 147.628 160.823 148.112L160.841 148.127C161.175 147.927 161.586 147.97 162.04 148.177C162.62 148.449 163.15 148.709 163.37 148.742L162.745 149.496C162.585 149.462 162.194 149.298 161.62 149.021C161.026 148.718 160.706 148.78 160.359 149.188L160.051 149.559L161.618 150.857L161.018 151.581L157.254 148.463L157.249 148.469ZM159.534 149.14L159.895 148.704C160.305 148.209 160.312 147.698 159.929 147.381C159.511 147.035 159.058 147.186 158.662 147.663C158.472 147.892 158.363 148.06 158.322 148.145L159.529 149.146L159.534 149.14Z" fill="#FBFEFC"/>
<path d="M163.437 146.455L164.233 147.7L163.608 148.454L160.856 144.008L161.632 143.072L166.527 144.932L165.873 145.722L164.487 145.189L163.432 146.461L163.437 146.455ZM163.865 144.872L162.665 144.414C162.372 144.301 162.053 144.146 161.786 144.024L161.777 144.036C161.952 144.28 162.168 144.559 162.333 144.815L163.011 145.903L163.865 144.872Z" fill="#FBFEFC"/>
<path d="M163.227 141.254C163.404 140.944 163.711 140.502 164.062 140.078C164.54 139.501 164.956 139.18 165.393 139.095C165.75 139.024 166.123 139.114 166.447 139.382C166.941 139.792 166.983 140.413 166.8 140.897L166.818 140.912C167.153 140.712 167.564 140.755 168.018 140.962C168.597 141.234 169.127 141.494 169.347 141.528L168.723 142.281C168.562 142.248 168.172 142.083 167.597 141.806C167.004 141.503 166.684 141.565 166.336 141.973L166.029 142.344L167.595 143.642L166.995 144.366L163.232 141.248L163.227 141.254ZM165.512 141.925L165.873 141.489C166.283 140.995 166.289 140.483 165.906 140.166C165.488 139.82 165.035 139.971 164.64 140.448C164.45 140.678 164.34 140.845 164.299 140.931L165.507 141.931L165.512 141.925Z" fill="#FBFEFC"/>
<path d="M170.475 140.167L168.885 138.849L165.609 138.271L166.302 137.434L167.68 137.761C168.075 137.86 168.37 137.936 168.728 138.043L168.738 138.032C168.579 137.731 168.43 137.419 168.271 137.049L167.693 135.756L168.376 134.931L169.482 138.092L171.09 139.424L170.485 140.155L170.475 140.167Z" fill="#FBFEFC"/>
<path d="M135.88 212.884L109.109 237.982L99.4229 221.993L87.0485 211.601L87.8804 208.642L83.4807 207.449L46.0071 169.969L66.1516 175.704L72.5162 169.341L86.8442 169.013L92.3089 171.189L97.1884 166.31L116.493 159.312L123.589 158.328L123.282 152.524L132.045 156.197L134.583 151.947L144.831 159.228L149.709 170.047L156.921 173.018L159.254 179.594L163.285 173.655L173.255 173.655L180.479 182.798L159.417 194.416L152.815 202.624L141.074 212.193L135.88 212.884Z" fill="black" stroke="#FBFEFC" stroke-width="2" stroke-linecap="round"/>
<path fill-rule="evenodd" clip-rule="evenodd" d="M106.165 198.384C105.876 200.642 107.472 202.707 109.73 202.996L131.652 205.8C133.91 206.088 135.975 204.492 136.264 202.234L139.068 180.312C139.356 178.054 137.76 175.989 135.502 175.701L113.58 172.897C111.322 172.608 109.257 174.204 108.969 176.462L106.165 198.384ZM108.415 197.676C108.207 199.302 109.356 200.788 110.982 200.996L130.944 203.55C132.57 203.758 134.056 202.608 134.264 200.982L136.818 181.02C137.025 179.394 135.876 177.908 134.25 177.7L114.288 175.147C112.662 174.939 111.176 176.088 110.968 177.714L108.415 197.676Z" fill="white"/>
<path d="M124.183 185.098C124.142 185.144 124.074 185.236 124.031 185.301C123.986 185.365 123.928 185.47 123.901 185.534C123.872 185.596 123.841 185.685 123.829 185.731C123.817 185.776 123.796 185.879 123.785 185.959C123.774 186.04 123.766 186.157 123.77 186.218C123.773 186.28 123.782 186.367 123.791 186.411C123.8 186.453 123.8 186.494 123.793 186.499C123.785 186.506 123.695 186.4 123.547 186.209L123.315 185.908L122.406 186.611L125.383 190.461L126.345 189.717C124.744 187.646 124.591 187.444 124.532 187.331C124.493 187.259 124.443 187.136 124.418 187.059C124.393 186.98 124.368 186.867 124.362 186.807C124.355 186.748 124.356 186.647 124.364 186.583C124.371 186.52 124.395 186.416 124.418 186.354C124.44 186.292 124.482 186.202 124.509 186.155C124.546 186.095 124.603 186.036 124.703 185.95C124.785 185.882 124.881 185.812 124.931 185.789C124.977 185.766 125.065 185.736 125.125 185.722C125.189 185.708 125.287 185.705 125.362 185.716C125.442 185.726 125.541 185.757 125.625 185.799C125.699 185.835 125.796 185.891 125.839 185.922C125.912 185.972 126.017 186.102 126.908 187.248L127.896 188.518L128.858 187.774C127.535 186.063 127.16 185.567 127.119 185.498C127.081 185.434 127.025 185.323 126.994 185.253C126.963 185.182 126.924 185.055 126.907 184.968C126.883 184.843 126.88 184.768 126.901 184.607C126.919 184.462 126.941 184.375 126.981 184.297C127.012 184.237 127.066 184.152 127.104 184.11C127.142 184.066 127.237 183.986 127.323 183.924C127.46 183.827 127.487 183.812 127.602 183.787C127.686 183.769 127.781 183.764 127.878 183.777C127.983 183.788 128.064 183.813 128.16 183.86C128.235 183.896 128.334 183.958 128.382 183.998C128.43 184.038 128.532 184.136 128.607 184.219C128.69 184.307 129.093 184.818 129.591 185.462L130.436 186.554L131.398 185.81C129.827 183.778 129.445 183.296 129.363 183.208C129.292 183.134 129.166 183.018 129.083 182.954C129.001 182.889 128.876 182.802 128.805 182.763C128.735 182.723 128.614 182.668 128.534 182.642C128.455 182.615 128.3 182.579 128.187 182.566C128.057 182.549 127.927 182.547 127.828 182.56C127.743 182.572 127.617 182.597 127.55 182.614C127.482 182.632 127.354 182.682 127.267 182.726C127.154 182.782 127.058 182.843 126.924 182.946C126.821 183.026 126.696 183.135 126.639 183.199C126.583 183.259 126.51 183.35 126.475 183.402C126.441 183.452 126.392 183.54 126.363 183.594C126.335 183.649 126.294 183.75 126.269 183.818C126.246 183.887 126.215 184.033 126.201 184.144C126.187 184.256 126.182 184.418 126.19 184.503L126.203 184.658C126.074 184.599 125.994 184.569 125.939 184.552C125.886 184.535 125.77 184.509 125.683 184.496C125.596 184.484 125.448 184.477 125.353 184.484C125.257 184.49 125.115 184.516 125.035 184.542C124.954 184.568 124.831 184.618 124.759 184.655C124.674 184.697 124.563 184.772 124.443 184.867C124.34 184.947 124.224 185.051 124.183 185.098Z" fill="#FBFEFC"/>
<path d="M119.694 188.656C119.749 188.584 119.841 188.474 119.9 188.412C119.958 188.349 120.106 188.223 120.228 188.126C120.397 187.993 120.495 187.928 120.628 187.857C120.727 187.804 120.895 187.732 121.001 187.695C121.107 187.658 121.274 187.612 121.371 187.593C121.467 187.574 121.612 187.554 121.69 187.551C121.768 187.546 121.906 187.553 122.155 187.585L121.943 188.667L121.785 188.648C121.658 188.633 121.585 188.638 121.416 188.673C121.285 188.701 121.158 188.74 121.079 188.777C120.984 188.823 120.917 188.868 120.8 188.968C120.675 189.075 120.632 189.121 120.573 189.213C120.534 189.276 120.478 189.386 120.45 189.454C120.418 189.527 120.388 189.66 120.374 189.771C120.353 189.937 120.355 189.993 120.394 190.175C120.422 190.313 120.463 190.45 120.512 190.563C120.581 190.722 120.606 190.762 120.761 190.959C120.9 191.139 120.955 191.199 121.059 191.284C121.13 191.34 121.248 191.418 121.321 191.455C121.393 191.493 121.501 191.54 121.557 191.561C121.615 191.58 121.722 191.608 121.798 191.62C121.872 191.634 122.001 191.64 122.086 191.637C122.17 191.632 122.276 191.618 122.325 191.604C122.372 191.59 122.472 191.55 122.544 191.513C122.645 191.465 122.714 191.416 122.844 191.309C122.98 191.193 123.03 191.142 123.098 191.042C123.145 190.974 123.211 190.86 123.243 190.789C123.277 190.718 123.314 190.598 123.348 190.385L124.417 190.524L124.405 190.619C124.399 190.673 124.371 190.791 124.342 190.883C124.314 190.977 124.264 191.111 124.23 191.181C124.197 191.252 124.123 191.379 124.066 191.466C124.009 191.553 123.908 191.689 123.84 191.767C123.733 191.891 123.673 191.943 123.401 192.153C123.125 192.367 123.065 192.407 122.91 192.484C122.812 192.532 122.656 192.598 122.563 192.63C122.471 192.663 122.316 192.706 122.22 192.725C122.124 192.744 121.967 192.765 121.872 192.772C121.777 192.779 121.608 192.775 121.494 192.763C121.381 192.75 121.218 192.722 121.136 192.698C121.052 192.675 120.91 192.627 120.818 192.591C120.728 192.554 120.6 192.491 120.531 192.45C120.463 192.409 120.338 192.321 120.256 192.257C120.173 192.193 120.041 192.073 119.965 191.991C119.88 191.903 119.768 191.763 119.682 191.644C119.603 191.534 119.509 191.387 119.472 191.314C119.434 191.243 119.379 191.119 119.346 191.038C119.313 190.957 119.27 190.804 119.246 190.699C119.223 190.592 119.2 190.463 119.195 190.407C119.19 190.353 119.185 190.231 119.184 190.138C119.184 190.044 119.197 189.884 119.214 189.784C119.229 189.685 119.267 189.525 119.299 189.428C119.33 189.333 119.375 189.211 119.397 189.157C119.42 189.103 119.473 188.998 119.516 188.924C119.559 188.85 119.639 188.729 119.694 188.656Z" fill="#FBFEFC"/>
<path fill-rule="evenodd" clip-rule="evenodd" d="M115.02 192.253C115.072 192.19 115.16 192.089 115.22 192.028C115.294 191.95 115.42 191.845 115.644 191.679C115.899 191.486 115.991 191.426 116.11 191.37C116.191 191.331 116.316 191.279 116.386 191.257C116.455 191.233 116.571 191.203 116.643 191.189C116.716 191.175 116.836 191.159 116.915 191.153C116.991 191.148 117.12 191.151 117.198 191.161C117.276 191.171 117.415 191.204 117.504 191.234C117.594 191.265 117.719 191.318 117.78 191.352C117.84 191.386 117.943 191.456 118.008 191.507C118.074 191.556 118.171 191.635 118.225 191.68C118.309 191.752 118.47 191.952 120.343 194.358L119.447 195.05L119.261 194.81C119.147 194.663 119.068 194.571 119.057 194.573C119.047 194.574 119.042 194.618 119.049 194.671C119.054 194.722 119.048 194.836 119.035 194.923C119.022 195.009 118.989 195.146 118.961 195.223C118.934 195.302 118.884 195.416 118.847 195.476C118.812 195.538 118.733 195.652 118.671 195.732C118.568 195.863 118.537 195.893 118.297 196.077C118.08 196.244 118.009 196.29 117.88 196.352C117.795 196.394 117.664 196.449 117.59 196.474C117.515 196.499 117.393 196.534 117.316 196.549C117.24 196.563 117.11 196.575 117.027 196.575C116.944 196.576 116.811 196.559 116.731 196.54C116.65 196.521 116.549 196.493 116.504 196.476C116.462 196.46 116.368 196.408 116.296 196.359C116.218 196.308 116.118 196.223 116.046 196.146C115.961 196.058 115.899 195.978 115.835 195.874C115.784 195.791 115.721 195.665 115.696 195.591C115.669 195.517 115.643 195.392 115.638 195.315C115.634 195.237 115.638 195.118 115.649 195.052C115.661 194.985 115.689 194.87 115.713 194.793C115.737 194.715 115.784 194.595 115.819 194.521C115.854 194.45 115.932 194.314 115.993 194.221C116.052 194.129 116.16 193.984 116.229 193.899C116.299 193.815 116.412 193.689 116.48 193.617C116.55 193.546 116.704 193.397 116.824 193.287C116.944 193.177 117.158 192.99 117.557 192.656L117.444 192.52C117.341 192.398 117.316 192.377 117.206 192.321C117.122 192.277 117.048 192.253 116.958 192.246C116.888 192.238 116.775 192.24 116.706 192.251C116.638 192.262 116.516 192.295 116.433 192.327C116.298 192.378 116.267 192.398 116.071 192.549C115.882 192.696 115.846 192.73 115.752 192.854C115.693 192.929 115.612 193.06 115.569 193.142C115.527 193.226 115.47 193.357 115.444 193.436C115.416 193.513 115.386 193.626 115.356 193.792L115.284 193.779C115.269 193.776 115.229 193.768 115.173 193.756C115.082 193.737 114.948 193.708 114.811 193.679C114.591 193.632 114.41 193.588 114.408 193.583C114.407 193.576 114.418 193.513 114.433 193.442C114.45 193.371 114.487 193.24 114.517 193.149C114.547 193.059 114.61 192.91 114.655 192.817C114.702 192.725 114.782 192.586 114.833 192.509C114.885 192.432 114.969 192.316 115.02 192.253ZM117.367 193.893C117.279 193.976 117.175 194.079 117.139 194.123C117.102 194.166 117.034 194.253 116.99 194.317C116.945 194.381 116.88 194.495 116.846 194.571C116.81 194.646 116.774 194.757 116.766 194.817C116.757 194.877 116.759 194.971 116.771 195.026C116.79 195.108 116.809 195.146 116.881 195.24C116.932 195.306 116.997 195.373 117.036 195.398C117.079 195.429 117.143 195.448 117.224 195.457C117.292 195.465 117.381 195.464 117.422 195.456C117.464 195.449 117.538 195.426 117.587 195.407C117.637 195.388 117.733 195.339 117.801 195.298C117.871 195.255 117.978 195.172 118.049 195.106C118.117 195.043 118.205 194.952 118.243 194.902C118.282 194.853 118.342 194.756 118.377 194.688C118.425 194.593 118.446 194.517 118.464 194.37C118.483 194.224 118.482 194.145 118.46 194.041C118.443 193.967 118.412 193.86 118.39 193.807C118.368 193.751 118.291 193.624 118.211 193.512L118.073 193.315C117.65 193.646 117.454 193.81 117.367 193.893Z" fill="#FBFEFC"/>
<path d="M112.271 31.421L117.134 25.6785L115.899 14.1806L119.817 1.97791L140.615 10.0192L162.964 11.9529L173.775 19.4266L182.126 21.4435L187.674 25.0676L197.033 22.91L205.295 26.005L208.421 23.5051L215.233 26.9827L227.131 26.4506L230.189 28.8706L241.223 24.5943L231.358 37.0633L227.07 50.1206L221.787 52.0607L224.758 55.5587L216.074 72.7217L209.144 69.8754L204.764 78.3107L201.549 72.7045L196.531 71.7962L195.275 64.6815L189.776 61.4781L189.853 54.6122L184.902 50.6946L172.34 60.305L167.198 71.1552L164.873 66.9737L161.357 74.1849L140.597 71.4134L133.025 76.6321L128.111 69.8032L126.615 78.4467L111.074 84.5802L113.58 71.2606L113.293 59.1466L111.569 48.4439L114.472 46.3002L111.048 42.9913L112.271 31.421Z" fill="black" stroke="#FBFEFC" stroke-width="2" stroke-linecap="round"/>
<path d="M124.978 45.4806L133.906 28.2918C134.978 26.1656 135.415 25.7188 137.122 25.0185L144.056 22.0514C145.226 21.5781 145.577 21.3968 146.269 21.8238L166.544 34.3318C167.815 35.1157 168.282 36.0408 167.4 37.7269L156.779 57.531C156.089 58.7786 155.559 59.249 154.359 59.3848L146.949 60.1491C145.597 60.2717 144.727 60.132 143.918 59.6327L125.896 48.5146C124.857 47.8737 124.275 46.8778 124.978 45.4806Z" fill="black"/>
<path fill-rule="evenodd" clip-rule="evenodd" d="M133.145 42.3556C132.288 43.9792 132.093 44.3475 130.827 44.7887L127.648 45.9351C127.276 46.0209 127.057 45.7276 127.355 45.1157L135.95 28.5994C136.653 27.2007 137.542 26.795 138.266 26.5253L141.902 25.0263C142.032 24.9465 142.555 24.8715 142.341 25.2182L133.256 42.1452L133.145 42.3556ZM152.457 56.7788L135.245 46.1606C134.494 45.6969 134.289 45.2521 134.657 44.5251L145.124 25.1026C145.459 24.4314 146.04 24.3934 146.791 24.8563L163.888 35.4039C164.64 35.8676 165.204 36.3757 164.621 37.4488L154.595 56.0286C154.012 57.1018 153.382 57.3491 152.458 56.7785L152.457 56.7788ZM147.092 29.0224C147.683 29.2282 148.132 29.6639 147.87 30.2205L147.509 31.1909L160.217 39.0305C160.157 40.0306 159.962 40.8641 159.606 41.4416C159.036 42.3647 158.605 42.4169 157.313 42.5742L144.929 42.7405L153.536 48.0498L155.044 46.511C155.044 46.511 156.084 47.1525 155.194 48.5955L152.97 52.7162C152.667 52.6891 152.161 52.2171 152.295 51.743L152.648 50.5262L141.269 43.5064L140.262 44.8762C139.671 44.6713 139.098 43.92 139.538 43.0759L141.884 38.6302L154.524 38.306L146.552 33.3885L145.455 34.7817C144.747 34.5048 144.569 33.758 144.868 33.1468L147.092 29.0224Z" fill="#FBFEFC"/>
<path fill-rule="evenodd" clip-rule="evenodd" d="M124.979 45.4809L133.907 28.2922L133.906 28.292C134.408 27.2978 134.77 26.6708 135.189 26.2133C135.189 26.213 135.189 26.2127 135.189 26.2124C135.666 25.692 136.214 25.3912 137.122 25.0187L144.233 21.9793L144.238 21.9773C145.265 21.561 145.614 21.4195 146.27 21.8239L166.545 34.3318C167.815 35.1156 168.282 36.0419 167.401 37.727L156.779 57.531C156.089 58.7787 155.56 59.249 154.359 59.3848L146.95 60.1493C145.597 60.2717 144.728 60.1319 143.919 59.6329L125.896 48.5148C124.858 47.874 124.276 46.878 124.979 45.4809ZM136.178 22.7648C135.252 23.1456 134.342 23.5839 133.533 24.4085C132.779 25.1759 132.256 26.1388 131.725 27.1914L131.718 27.2048L122.803 44.3682L122.797 44.3819C122.203 45.5602 122.024 46.8705 122.494 48.1335C122.936 49.3202 123.817 50.1035 124.613 50.5945L142.636 61.7126C144.065 62.5942 145.533 62.7311 147.17 62.583L147.185 62.5816L154.622 61.8143L154.634 61.8129C155.527 61.7119 156.439 61.4511 157.273 60.7944C158.036 60.1929 158.532 59.4101 158.918 58.7137L158.925 58.6999L169.561 38.8705L169.567 38.859C170.151 37.7403 170.548 36.3876 170.116 34.9764C169.694 33.5956 168.657 32.7634 167.828 32.2521L147.553 19.7442C146.883 19.3309 146.076 19.0449 145.089 19.1682C144.456 19.2473 143.82 19.5078 143.421 19.6712C143.384 19.6866 143.348 19.7011 143.315 19.7145L143.293 19.7232L136.178 22.7648Z" fill="#FBFEFC"/>
<path d="M10.1245 108.605L2.3435 98.7313L22.8658 79.6707L56.9788 56.448L82.6351 34.2578L104.429 18.9284L107.967 28.471L104.389 33.4335L110.065 33.5292L116.381 49.1762L121.604 56.1286L114.223 66.0627L100.073 73.7509L100.704 81.4843L92.8698 92.4456L83.198 101.429L77.0153 111.523L70.8605 117.24L70.0266 130.449L61.517 142.446L63.826 148.9L57.3003 167.653L31.668 137.283L21.2268 128.813L19.4803 119.25L12.3034 115.125L10.1245 108.605Z" fill="black" stroke="#FBFEFC" stroke-width="2" stroke-linecap="round"/>
<g clip-path="url(#clip0_6317_8446)">
<path d="M32.8907 100.87C34.5916 102.995 35.6125 104.85 32.3552 107.458C29.1688 110.01 27.4258 108.849 25.6682 106.654L21.5292 101.484C20.6221 100.352 20.013 100.607 19.1633 101.287L18.9365 101.004L22.9726 97.7721L23.1994 98.0554C22.3497 98.7357 21.9675 99.2743 22.8746 100.407L27.0135 105.576C28.2609 107.134 29.8623 108.408 31.9158 106.764C34.1108 105.007 33.4443 103.448 31.9702 101.607L27.8313 96.4384C26.9241 95.3054 26.315 95.5607 25.4653 96.2411L25.2385 95.9578L28.779 93.1229L29.0058 93.4062C28.1561 94.0865 27.7738 94.625 28.681 95.758L32.8199 100.927L32.8907 100.87Z" fill="#FBFEFC"/>
<path d="M44.1238 97.3381C43.5717 98.245 42.8354 99.067 41.7025 99.9741C38.5869 102.469 35.2288 101.323 32.5641 97.9947C30.2961 95.1624 29.5157 92.301 32.8438 89.6362C34.0475 88.6724 35.2798 88.0343 36.1579 87.6798L38.2273 89.9739L37.8732 90.2574C36.9804 89.5778 35.2092 88.6719 33.2973 90.2027C30.819 92.1871 32.7044 94.9772 34.0085 96.6058C35.596 98.5884 38.5155 101.364 41.9144 98.6424C42.9765 97.7919 43.3021 97.1826 43.6136 96.7008L44.1238 97.3381Z" fill="#FBFEFC"/>
<path d="M46.1716 82.9155C45.3496 82.1792 43.9752 81.769 42.3466 83.073C41.2845 83.9235 40.8742 85.2978 41.7247 86.36C42.802 87.7054 45.0399 86.7269 47.0089 86.4285C48.7797 86.1728 50.1397 86.1297 51.3303 87.6167C52.9178 89.5993 51.9555 91.8806 49.8312 93.5815C48.7691 94.432 47.3952 95.1834 46.9137 95.4528L45.0144 93.3711L45.3685 93.0876C46.1905 93.8239 47.6356 94.1775 49.2642 92.8734C50.6096 91.7962 50.8498 90.2094 49.9426 89.0764C48.5819 87.377 45.6358 88.9225 43.2984 89.051C42.1934 89.1223 41.4566 88.7826 40.6628 87.7913C39.2736 85.766 40.1369 83.7965 42.1196 82.2089C43.1817 81.3585 43.9324 80.9898 44.7539 80.5645L46.5964 82.5753L46.1716 82.9155Z" fill="#FBFEFC"/>
<path d="M59.7872 85.2609C59.7023 85.4451 59.4049 85.7994 58.9092 86.1962C58.1303 86.8199 57.5069 86.6219 57.0533 86.0554C57.1388 87.0329 56.8558 87.8405 55.8644 88.6342C54.8872 89.3005 53.6689 89.2302 52.9885 88.3805C51.4009 86.3978 54.0209 84.3 54.8988 83.3646L54.5019 82.869C53.7082 81.8776 52.9144 80.8863 51.7815 81.7935C50.9317 82.4738 51.0736 82.9413 51.4138 83.3661C51.8674 83.9326 51.5559 84.4144 51.3435 84.5845C50.9894 84.868 50.4794 84.8116 50.1959 84.4575C49.4589 83.537 50.4641 82.0349 51.3846 81.2978C53.2964 79.767 54.3167 80.4607 55.3373 81.7353L58.0588 85.1341C58.4557 85.6298 58.7107 85.658 59.1355 85.3178C59.2771 85.2044 59.348 85.1477 59.4329 84.9635L59.7164 85.3176L59.7872 85.2609ZM55.239 83.7895C54.6017 84.2998 52.9449 85.8588 53.9654 87.1334C54.5324 87.8415 55.425 87.9403 55.8498 87.6001C56.7703 86.863 56.6564 85.5597 55.9194 84.6392L55.239 83.7895Z" fill="#FBFEFC"/>
<path d="M59.8434 84.7517C60.4099 84.2981 60.7921 83.7596 60.1118 82.9099L57.1068 79.157C56.4264 78.3073 55.7891 78.8176 55.3076 79.087L55.1375 78.8746L56.9783 76.8196L58.4524 78.6606C58.268 77.9949 57.7572 76.1959 59.1734 75.062C60.6604 73.8713 61.4257 74.5368 62.4462 75.8114L64.9976 78.9978C65.7347 79.9183 66.287 79.5922 66.8535 79.1387L67.0236 79.3511L63.8372 81.9025L63.6671 81.69C64.2336 81.2365 64.6158 80.698 63.9355 79.8483L61.6676 77.0159C60.7037 75.8121 60.3068 75.3165 59.3863 76.0535C58.6074 76.6772 58.8634 79.0288 59.884 80.3033L61.2447 82.0028C61.9818 82.9233 62.5341 82.5972 63.1006 82.1436L63.2707 82.3561L60.0843 84.9075L59.9142 84.695L59.8434 84.7517Z" fill="#FBFEFC"/>
<path d="M68.3547 77.8191C69.2044 77.1387 69.5867 76.6002 68.6795 75.4672L62.9531 68.3155C62.0459 67.1826 61.4369 67.4378 60.5871 68.1182L60.3604 67.835L63.9716 64.9434C66.5208 62.9023 69.7359 61.2575 73.4212 65.8601C77.1066 70.4627 74.6711 73.2263 72.1928 75.2107L68.5815 78.1023L68.3547 77.8191V77.8191ZM69.7981 74.1067C70.7053 75.2397 70.9603 75.2679 71.7392 74.6442C74.4299 72.4897 74.3581 70.2231 71.8634 67.1075C69.5955 64.2751 67.3851 63.2561 64.4819 65.5807C63.703 66.2043 63.6181 66.3885 64.5819 67.5923L69.7981 74.1067Z" fill="#FBFEFC"/>
<path d="M77.8989 70.2931C78.4654 69.8395 78.8476 69.301 78.1673 68.4513L75.1623 64.6984C74.4819 63.8487 73.8446 64.359 73.3631 64.6283L73.193 64.4159L75.0338 62.3609L79.2294 67.6008C79.9665 68.5213 80.5188 68.1953 81.0853 67.7417L81.2554 67.9541L78.069 70.5055L77.8989 70.2931ZM71.9734 61.4414C71.6332 61.0166 71.7037 60.379 72.1286 60.0388C72.5534 59.6987 73.191 59.7692 73.5312 60.1941C73.8714 60.6189 73.8008 61.2565 73.3759 61.5966C72.9511 61.9368 72.3703 61.9371 71.9734 61.4414Z" fill="#FBFEFC"/>
<path d="M86.1556 63.9142C85.9149 64.3393 85.6035 64.8212 84.7537 65.5015C82.6295 67.2025 80.4619 66.9626 78.6475 64.6967C77.06 62.714 76.9317 60.9574 78.9144 59.3698C80.1181 58.406 81.8181 58.2069 83.0654 59.7647L83.2922 60.048L79.3269 63.223C80.2341 64.356 82.7283 66.3099 84.9941 64.4956C85.2774 64.2688 85.6455 63.8578 85.8154 63.4894L86.1556 63.9142ZM81.6916 60.5162C81.1246 59.8081 80.0476 59.0435 79.0563 59.8373C77.9941 60.6878 78.4764 62.1609 78.93 62.7274L81.6916 60.5162Z" fill="#FBFEFC"/>
<path d="M89.9646 59.2383C90.6019 58.728 92.1597 57.4807 93.4071 59.0385C94.6544 60.5963 93.8337 62.7641 91.9927 64.2383C90.6473 65.3155 88.8342 65.9538 87.8137 64.6793C87.1333 63.8295 87.4871 62.9652 87.7418 62.4126C87.416 62.4411 86.8352 62.4413 86.3816 61.8749C85.9847 61.3792 85.956 60.4725 85.9842 60.2175C85.4742 60.1611 84.6383 60.1331 83.7312 59.0002C82.3137 57.2299 83.3048 55.8553 84.6502 54.7781C85.2875 54.2678 85.7549 54.1259 86.3499 53.9982C86.1654 53.3324 85.7257 52.0576 86.5754 51.3772C86.9294 51.0937 87.3828 51.0794 87.723 51.5042C88.0064 51.8583 88.0208 52.3116 87.5959 52.6518C87.2419 52.9353 87.001 52.7795 86.7886 52.9496C86.5053 53.1764 86.7039 53.7147 86.8032 53.9838C87.1149 54.0828 88.0074 54.1816 88.7445 55.1021C89.8785 56.5183 89.6524 57.9776 88.0238 59.2816C87.4573 59.7352 87.0466 59.9479 86.5792 60.0898C86.565 60.2173 86.5227 60.5998 86.7495 60.883C87.2031 61.4495 87.9112 60.8825 88.336 60.5423L89.9646 59.2383V59.2383ZM88.4217 62.1007C88.3086 62.5399 88.1246 63.0358 88.6349 63.6731C89.2586 64.452 90.5336 64.5931 91.7374 63.6292C93.012 62.6087 93.6346 61.0642 92.8409 60.0729C92.2739 59.3648 91.5373 59.606 90.8292 60.1729L88.4217 62.1007V62.1007ZM87.6269 58.786C88.7599 57.8788 88.1644 56.8449 87.5975 56.1368C86.747 55.0747 85.7693 54.5793 84.7779 55.373C83.7158 56.2235 84.1271 57.1725 84.8074 58.0222C85.672 58.9568 86.6356 59.5797 87.6269 58.786Z" fill="#FBFEFC"/>
<path d="M90.5159 55.4267C88.8716 53.3732 88.984 51.1915 90.7543 49.774C92.5245 48.3566 94.6213 48.6532 96.3222 50.7775C97.9664 52.8309 97.8541 55.0127 96.0838 56.4301C94.2569 57.7767 92.1601 57.4801 90.5159 55.4267ZM95.6869 55.9344C97.0323 54.8572 95.9548 52.931 95.0477 51.798C94.1405 50.6651 92.4965 49.1924 91.1511 50.2697C89.8058 51.347 90.8833 53.2732 91.7904 54.4061C92.6976 55.5391 94.2708 57.0684 95.6869 55.9344Z" fill="#FBFEFC"/>
<path d="M88.1403 66.3929L29.0854 113.679L29.3689 114.033L88.7071 66.5201C88.5229 66.4352 88.3246 66.4778 88.1403 66.3929Z" fill="#FBFEFC"/>
<path d="M100.603 56.4142L95.1504 60.7799C95.1222 61.0349 95.0373 61.2191 95.0091 61.4742L100.815 56.825L100.532 56.4709L100.603 56.4142Z" fill="#FBFEFC"/>
<path d="M35.404 116.636L34.3419 117.486L33.7749 116.778L36.7489 114.397L37.3159 115.105L36.2537 115.956L38.8051 119.142L37.9554 119.822L35.404 116.636Z" fill="#FBFEFC"/>
<path d="M38.1651 113.263L39.3558 114.75L40.8428 113.559L39.6521 112.072L40.5019 111.392L43.6202 115.286L42.7705 115.967L41.4665 114.338L39.9795 115.529L41.2835 117.157L40.363 117.895L37.2446 114L38.1651 113.263Z" fill="#FBFEFC"/>
<path d="M45.4318 111.162L44.0156 112.296L44.7527 113.217L46.3105 111.97L46.8775 112.678L44.3991 114.662L41.2808 110.768L43.6883 108.84L44.2553 109.548L42.6974 110.795L43.3211 111.574L44.7373 110.44L45.361 111.219L45.4318 111.162Z" fill="#FBFEFC"/>
<path d="M45.7271 107.324C46.0245 106.969 46.4493 106.629 46.8742 106.289C47.5823 105.722 48.1913 105.467 48.843 105.41C49.4946 105.353 50.1039 105.679 50.6709 106.387C51.2946 107.165 51.4082 107.888 51.281 108.455C51.1396 109.149 50.6157 109.801 49.9076 110.368C49.4828 110.708 49.1287 110.991 48.8596 111.091L45.7979 107.267L45.7271 107.324ZM49.199 109.773C49.2698 109.716 49.4114 109.603 49.4823 109.546C50.2612 108.923 50.4874 108.044 49.7504 107.124C49.1267 106.345 48.2342 106.246 47.5261 106.813C47.3136 106.983 47.172 107.096 47.1012 107.153L49.199 109.773V109.773Z" fill="#FBFEFC"/>
<path d="M53.9289 104.359L52.5127 105.493L53.2497 106.413L54.8075 105.166L55.3745 105.874L52.8962 107.858L49.7778 103.964L52.1853 102.036L52.7523 102.744L51.1945 103.992L51.8182 104.77L53.2344 103.637L53.8581 104.415L53.9289 104.359Z" fill="#FBFEFC"/>
<path d="M55.2745 104.445C55.6003 104.416 56.0819 104.147 56.4359 103.863C56.8608 103.523 56.9598 103.211 56.733 102.928C56.5629 102.716 56.2371 102.744 55.6422 102.872C54.8348 103.17 54.1264 103.156 53.6729 102.589C53.1626 101.952 53.2755 100.932 54.196 100.195C54.6208 99.8548 55.0316 99.6421 55.3574 99.6136L55.712 100.492C55.5137 100.534 55.117 100.62 54.6922 100.96C54.3381 101.243 54.2391 101.555 54.4092 101.767C54.636 102.051 54.9051 101.951 55.5709 101.767C56.5057 101.483 57.0725 101.61 57.4693 102.106C57.9796 102.743 57.9375 103.707 56.8754 104.557C56.4505 104.897 55.8415 105.153 55.5724 105.252L55.2745 104.445Z" fill="#FBFEFC"/>
<path d="M56.9293 98.2385L60.0477 102.133L59.1272 102.87L56.0088 98.9756L56.9293 98.2385Z" fill="#FBFEFC"/>
<path d="M63.9707 98.7589C63.7442 99.0565 63.3619 99.595 62.8662 99.9919C62.1581 100.559 61.4924 100.743 60.9116 100.744C60.274 100.673 59.6647 100.347 59.2111 99.781C58.1906 98.5064 58.4874 96.9905 59.8328 95.9132C60.3285 95.5163 60.81 95.247 61.065 95.2752L61.4196 96.1534C61.1504 96.2526 60.8105 96.4086 60.3857 96.7488C59.6776 97.3158 59.4513 98.1942 60.1316 99.0439C60.7553 99.8228 61.6479 99.9216 62.356 99.3546C62.5684 99.1846 62.71 99.0712 62.7241 98.9436L62.0437 98.0939L61.4065 98.6042L60.8395 97.8961L62.3265 96.7055L63.9707 98.7589V98.7589Z" fill="#FBFEFC"/>
<path d="M64.863 98.2763L61.7446 94.3818L62.8068 93.5314L64.7196 94.3239C65.2722 94.5786 65.9524 94.8475 66.4342 95.159C65.9665 94.72 65.5129 94.1535 65.0593 93.5871L64.1521 92.4541L65.0019 91.7737L68.1202 95.6683L67.1997 96.4053L65.1593 95.5987C64.6067 95.3439 63.9266 95.0751 63.374 94.8203C63.7709 95.316 64.2245 95.8824 64.7347 96.5197L65.6986 97.7235L64.9197 98.3472L64.863 98.2763Z" fill="#FBFEFC"/>
<path d="M67.0552 90.1299L67.9757 89.3928L70.5271 92.5792L72.0849 91.3319L72.6519 92.04L70.2444 93.9677L67.126 90.0732L67.0552 90.1299Z" fill="#FBFEFC"/>
<path d="M73.3448 89.8583L73.8553 91.0764L72.9348 91.8135L71.0202 86.9551L72.1531 86.0479L76.4752 88.9786L75.5547 89.7156L74.4777 88.9511L73.3448 89.8583ZM73.8258 88.4272L72.933 87.7476C72.6921 87.5919 72.3945 87.3653 72.0969 87.1388C72.1962 87.4079 72.3522 87.7478 72.5082 88.0878L72.9761 89.1076L73.8258 88.4272Z" fill="#FBFEFC"/>
<path d="M73.9805 84.7016C74.1363 84.4607 74.6319 84.0638 75.0568 83.7236C75.6233 83.2701 75.9632 83.1141 76.3598 83.0289C76.7565 82.9437 77.1957 83.0569 77.4792 83.4109C77.7627 83.765 77.777 84.2183 77.5223 84.7709C78.0605 84.5723 78.6413 84.5721 79.0949 85.1386C79.3784 85.4926 79.4636 85.8892 79.3504 86.3285C79.2373 86.7677 78.855 87.3062 78.0761 87.9299C77.6513 88.27 77.2972 88.5535 77.0281 88.6528L73.9097 84.7583L73.9805 84.7016ZM76.0209 85.5082L76.3041 85.2814C76.7998 84.8846 76.8421 84.502 76.6153 84.2188C76.3886 83.9356 76.0627 83.964 75.6379 84.3042C75.4254 84.4743 75.3546 84.531 75.2838 84.5877L76.0209 85.5082ZM77.3816 87.2077C77.4524 87.151 77.5941 87.0376 77.7357 86.9242C78.1605 86.584 78.4012 86.1589 78.061 85.734C77.7208 85.3092 77.2534 85.451 76.8285 85.7912L76.5453 86.018L77.4524 87.151L77.3816 87.2077Z" fill="#FBFEFC"/>
</g>
<defs>
<clipPath id="clip0_6317_8446">
<rect width="91.7998" height="26.94" fill="white" transform="translate(18.8232 100.862) rotate(-38.6846)"/>
</clipPath>
</defs>
</svg>
