<svg width="268" height="301" viewBox="0 0 268 301" fill="none" xmlns="http://www.w3.org/2000/svg">
<path d="M79.3027 147.186L64.6233 148.462L80.4102 171.705L103.021 175.425L202.973 202.425L232.775 195.27L229.722 191.739L209.373 186.813L200.149 188.731L188.139 180.586L176.851 176.841L166.31 170.144L155.556 169.569L140.967 162.633L135.093 166.622L122.607 160.159L118.494 160.779L98.183 150.665L79.3027 147.186Z" fill="#FBFEFC"/>
<path d="M82.2221 150.658L67.6729 151.867L83.4206 175.052L94.6037 188.823L95.2434 192.459L103.701 204.911L108.755 205.665L106.278 208.705L122.475 235.35L127.094 238.656L127.519 242.776L139.73 257.955L151.457 248.562L162.683 242.364L173.921 236.695L179.898 230.671L180.21 225.98L185.637 226.774L196.946 217.665L201.92 217L211.302 209.341L231.544 195.592L211.347 190.609L202.21 192.479L190.269 184.327L179.062 180.556L168.583 173.851L157.918 173.235L143.424 166.276L137.618 170.22L125.211 163.74L121.135 164.34L100.956 154.196L82.2221 150.658Z" fill="black" stroke="white" stroke-width="1.2"/>
<path d="M144.203 221.478L112.833 198.212L127.407 176.392L139.248 166.333L152.824 158.882L158.197 143.464L176.19 121.75L181.193 111.48L194.467 91.7L208.327 103.185L206.584 111.87L218.953 111.99L233.611 134.266L247.722 139.335L237.736 153.268L221.308 171.213L218.998 169.299L209.249 185.766L188.002 211.407L167.072 240.428L154.367 229.9L152.73 221.531L144.203 221.478Z" fill="black" stroke="#FBFEFC" stroke-width="1.2"/>
<path d="M157.454 193.411C159.539 195.138 160.869 196.757 158.249 199.92C155.628 203.083 153.718 202.295 151.568 200.514L146.498 196.312C145.361 195.37 144.844 195.766 144.151 196.602L143.851 196.354L147.169 192.349L147.475 192.602C146.792 193.427 146.483 194.015 147.626 194.962L152.691 199.159C154.246 200.447 156.068 201.341 157.707 199.362C159.523 197.171 158.549 195.769 156.741 194.271L151.671 190.069C150.528 189.122 150.007 189.535 149.324 190.359L149.024 190.111L151.937 186.594L152.243 186.848C151.55 187.685 151.251 188.261 152.394 189.208L157.459 193.405L157.454 193.411Z" fill="#FBFEFC"/>
<path d="M167.685 187.694C167.342 188.671 166.775 189.631 165.843 190.756C163.32 193.801 159.795 193.344 156.556 190.66C153.741 188.327 152.43 185.701 155.129 182.444C156.139 181.225 157.234 180.395 157.973 179.875L160.477 181.72L160.159 182.103C159.139 181.596 157.27 181.07 155.709 182.955C153.679 185.405 156.116 187.762 157.682 189.06C159.644 190.686 163.022 192.77 165.784 189.436C166.629 188.417 166.853 187.679 167.027 187.158L167.68 187.7L167.685 187.694Z" fill="#FBFEFC"/>
<path d="M166.774 173.15C165.855 172.617 164.405 172.448 163.058 174.074C162.213 175.093 162.121 176.536 163.128 177.37C164.482 178.492 166.422 177.05 168.298 176.369C169.994 175.749 171.287 175.459 172.73 176.655C174.662 178.255 174.188 180.684 172.461 182.769C171.602 183.806 170.377 184.817 170.005 185.145L167.774 183.475L168.091 183.092C169 183.637 170.533 183.705 171.885 182.074C172.993 180.737 172.849 179.148 171.801 178.279C170.158 176.918 167.564 179.029 165.309 179.545C164.234 179.787 163.423 179.651 162.451 178.846C160.615 177.334 161.116 175.206 162.702 173.292C163.546 172.273 164.212 171.722 164.918 171.145L167.091 172.767L166.774 173.15Z" fill="#FBFEFC"/>
<path d="M180.591 172.669C180.496 172.868 180.3 173.272 179.895 173.761C179.246 174.544 178.649 174.437 178.066 173.954L178.042 173.984C178.308 174.909 178.201 175.805 177.44 176.724C176.679 177.642 175.445 177.812 174.562 177.08C172.601 175.455 174.709 172.911 175.469 171.802L174.956 171.378C174.008 170.592 172.997 169.774 172.055 170.911C171.358 171.753 171.623 172.152 172.053 172.508C172.607 172.967 172.423 173.5 172.233 173.73C171.93 174.095 171.454 174.177 171.089 173.875C170.212 173.148 170.852 171.463 171.623 170.533C173.161 168.678 174.334 169.084 175.589 170.123L178.946 172.905C179.417 173.295 179.718 173.267 180.065 172.849C180.167 172.725 180.235 172.583 180.314 172.44L180.597 172.674L180.591 172.669ZM175.911 172.168C175.395 172.814 174.084 174.648 175.344 175.692C176.051 176.278 176.903 176.209 177.284 175.75C178.011 174.872 177.63 173.593 176.711 172.832L175.911 172.168Z" fill="#FBFEFC"/>
<path d="M180.593 172.175C181.067 171.604 181.324 171.042 180.446 170.315L176.748 167.25C175.935 166.577 175.367 167.179 175.016 167.554L174.786 167.364L176.19 165.01L177.975 166.489L177.999 166.46C177.654 165.856 176.878 164.18 177.986 162.843C179.177 161.406 180.072 161.919 181.333 162.964L184.419 165.521C185.296 166.248 185.801 165.891 186.274 165.32L186.504 165.51L183.922 168.626L183.692 168.436C184.166 167.864 184.423 167.302 183.545 166.575L180.759 164.267C179.593 163.301 179.059 162.878 178.318 163.773C177.654 164.574 178.38 166.815 179.664 167.879L181.33 169.26C182.208 169.987 182.712 169.63 183.186 169.059L183.415 169.249L180.834 172.365L180.604 172.174L180.593 172.175Z" fill="#FBFEFC"/>
<path d="M187.476 163.712C188.159 162.888 188.468 162.299 187.325 161.353L180.293 155.526C179.151 154.579 178.63 154.992 177.947 155.816L177.646 155.567L180.594 152.01C182.688 149.483 185.456 147.258 189.991 151.015C194.526 154.773 192.711 158.018 190.73 160.409L187.782 163.966L187.476 163.712ZM188.13 159.734C189.243 160.657 189.51 160.67 190.14 159.91C192.312 157.289 191.803 155.05 188.746 152.517C185.949 150.199 183.59 149.605 181.194 152.497C180.564 153.257 180.55 153.454 181.74 154.44L188.13 159.734Z" fill="#FBFEFC"/>
<path d="M195.278 154.453C195.747 153.888 196.008 153.32 195.131 152.593L191.438 149.533C190.625 148.859 190.067 149.449 189.707 149.836L189.477 149.646L190.881 147.293L196.01 151.543C196.888 152.27 197.392 151.914 197.866 151.342L198.095 151.533L195.514 154.648L195.284 154.458L195.278 154.453ZM187.742 146.957C187.312 146.601 187.249 145.982 187.61 145.546C187.971 145.11 188.591 145.057 189.021 145.414C189.45 145.77 189.509 146.395 189.153 146.825C188.796 147.254 188.178 147.318 187.742 146.957Z" fill="#FBFEFC"/>
<path d="M202.033 146.541C201.888 146.967 201.625 147.524 200.942 148.349C199.205 150.446 197.08 150.672 194.801 148.783C192.828 147.148 192.39 145.435 194.006 143.485C195.016 142.266 196.601 141.732 198.173 143.035L198.474 143.284L195.209 147.224C196.345 148.166 199.119 149.53 200.993 147.269C201.251 146.956 201.513 146.557 201.602 146.174L202.038 146.535L202.033 146.541ZM197.027 144.131C196.308 143.536 195.178 143.006 194.314 144.049C193.45 145.091 194.262 146.449 194.762 146.864L197.027 144.131Z" fill="#FBFEFC"/>
<path d="M204.854 141.16C205.391 140.512 206.664 139.035 208.166 140.279C209.668 141.523 209.321 143.789 207.827 145.591C206.729 146.916 205.082 147.885 203.863 146.875C203.021 146.177 203.173 145.25 203.317 144.645C202.991 144.762 202.439 144.901 201.874 144.432C201.373 144.017 201.217 143.163 201.179 142.873C200.661 142.971 199.865 143.105 198.716 142.153C196.967 140.704 197.644 139.12 198.708 137.836C199.225 137.211 199.61 136.963 200.2 136.718C199.869 136.075 199.201 134.976 199.884 134.151C200.196 133.774 200.662 133.703 201.068 134.04C201.434 134.343 201.485 134.772 201.148 135.179C200.855 135.532 200.598 135.458 200.452 135.635C200.208 135.93 200.5 136.38 200.654 136.627C200.967 136.608 201.833 136.581 202.782 137.367C204.148 138.499 204.212 139.992 202.865 141.618C202.416 142.16 202.024 142.501 201.645 142.683C201.682 142.853 201.757 143.183 202.051 143.427C202.593 143.876 203.154 143.199 203.511 142.769L204.833 141.173L204.854 141.16ZM203.871 144.299C203.853 144.741 203.77 145.308 204.377 145.811C205.172 146.47 206.462 146.327 207.438 145.149C208.414 143.971 208.764 142.255 207.792 141.449C207.103 140.878 206.4 141.259 205.844 141.931L203.882 144.298L203.871 144.299ZM202.492 141.169C203.433 140.033 202.66 139.144 201.948 138.553C200.935 137.714 199.829 137.394 199.024 138.365C198.136 139.437 198.753 140.287 199.542 140.941C200.573 141.795 201.687 142.152 202.497 141.174" fill="#FBFEFC"/>
<path d="M204.617 137.309C202.585 135.625 202.273 133.52 203.708 131.788C205.143 130.057 207.27 129.971 209.302 131.655C211.334 133.339 211.645 135.444 210.21 137.176C208.775 138.907 206.649 138.993 204.617 137.309ZM209.763 136.805C210.885 135.45 209.431 133.789 208.306 132.857C207.181 131.924 205.278 130.805 204.156 132.159C203.033 133.514 204.487 135.175 205.612 136.108C206.737 137.04 208.64 138.16 209.763 136.805Z" fill="#FBFEFC"/>
<path d="M204.727 148.277L156.184 206.86L156.525 207.143L205.337 148.236C205.129 148.272 204.918 148.286 204.722 148.283" fill="#FBFEFC"/>
<path d="M214.526 136.45L209.734 142.234C209.755 142.46 209.765 142.687 209.743 142.917L214.873 136.727L214.531 136.444L214.526 136.45Z" fill="#FBFEFC"/>
<path d="M162.069 208.21L162.679 207.474L165.912 210.153L167.279 208.504L167.862 208.987L165.885 211.372L162.069 208.21Z" fill="#FBFEFC"/>
<path d="M165.109 204.541L164.504 205.271L168.32 208.434L168.925 207.703L165.109 204.541Z" fill="#FBFEFC"/>
<path d="M165.859 203.743C166.003 203.474 166.319 203.021 166.66 202.609C167.109 202.067 167.452 201.785 167.853 201.66C168.2 201.53 168.588 201.564 168.912 201.833C169.26 202.121 169.393 202.619 169.185 203.181L169.197 203.191C169.649 202.85 170.289 202.725 170.813 203.159C171.155 203.442 171.293 203.815 171.274 204.197C171.276 204.675 171.009 205.249 170.399 205.985C170.062 206.391 169.779 206.673 169.599 206.842L165.848 203.733L165.859 203.743ZM167.961 204.263L168.274 203.886C168.693 203.38 168.698 202.907 168.38 202.643C168.021 202.345 167.622 202.492 167.236 202.957C167.06 203.169 166.965 203.308 166.919 203.399L167.961 204.263ZM169.716 205.717C169.806 205.633 169.92 205.508 170.056 205.343C170.447 204.872 170.622 204.312 170.151 203.922C169.709 203.556 169.19 203.811 168.77 204.318L168.468 204.683L169.711 205.713L169.716 205.717Z" fill="#FBFEFC"/>
<path d="M168.7 200.315C168.878 200.005 169.184 199.563 169.535 199.139C170.013 198.562 170.429 198.241 170.866 198.156C171.224 198.085 171.596 198.175 171.92 198.443C172.415 198.853 172.456 199.474 172.274 199.958L172.291 199.973C172.626 199.773 173.037 199.816 173.491 200.023C174.071 200.295 174.6 200.555 174.821 200.589L174.196 201.342C174.035 201.309 173.645 201.144 173.07 200.867C172.477 200.564 172.157 200.626 171.809 201.034L171.502 201.405L173.069 202.703L172.468 203.427L168.705 200.309L168.7 200.315ZM170.985 200.986L171.346 200.55C171.756 200.056 171.762 199.544 171.379 199.227C170.961 198.881 170.508 199.032 170.113 199.509C169.923 199.739 169.813 199.906 169.773 199.992L170.98 200.992L170.985 200.986Z" fill="#FBFEFC"/>
<path d="M174.888 198.301L175.684 199.547L175.06 200.3L172.307 195.854L173.083 194.918L177.978 196.779L177.324 197.568L175.938 197.035L174.884 198.307L174.888 198.301ZM175.316 196.718L174.116 196.261C173.823 196.147 173.504 195.992 173.237 195.87L173.228 195.882C173.403 196.126 173.619 196.405 173.784 196.661L174.462 197.749L175.316 196.718Z" fill="#FBFEFC"/>
<path d="M174.679 193.1C174.856 192.79 175.162 192.349 175.514 191.924C175.992 191.347 176.407 191.026 176.845 190.941C177.202 190.87 177.574 190.96 177.898 191.228C178.393 191.638 178.435 192.259 178.252 192.743L178.27 192.758C178.604 192.558 179.016 192.601 179.47 192.809C180.049 193.08 180.579 193.34 180.799 193.374L180.174 194.128C180.014 194.094 179.624 193.929 179.049 193.652C178.456 193.349 178.136 193.412 177.788 193.819L177.481 194.19L179.047 195.488L178.447 196.213L174.684 193.094L174.679 193.1ZM176.963 193.771L177.324 193.336C177.734 192.841 177.741 192.33 177.358 192.012C176.94 191.666 176.487 191.817 176.092 192.294C175.901 192.524 175.792 192.692 175.751 192.777L176.958 193.777L176.963 193.771Z" fill="#FBFEFC"/>
<path d="M181.926 192.013L180.336 190.696L177.061 190.117L177.754 189.281L179.131 189.608C179.526 189.707 179.821 189.782 180.179 189.89L180.189 189.878C180.03 189.578 179.882 189.266 179.722 188.895L179.144 187.602L179.828 186.778L180.933 189.939L182.541 191.271L181.936 192.001L181.926 192.013Z" fill="#FBFEFC"/>
<path d="M147.333 264.731L120.562 289.829L110.876 273.84L98.5011 263.448L99.333 260.489L94.9333 259.296L57.4597 221.816L77.6043 227.551L83.9688 221.188L98.2969 220.86L103.762 223.036L108.641 218.157L127.946 211.159L135.042 210.175L134.734 204.371L143.498 208.044L146.036 203.794L156.284 211.075L161.162 221.894L168.374 224.865L170.707 231.441L174.738 225.502L184.708 225.503L191.932 234.645L170.869 246.263L164.267 254.472L152.526 264.04L147.333 264.731Z" fill="black" stroke="#FBFEFC" stroke-width="1.2" stroke-linecap="round"/>
<path fill-rule="evenodd" clip-rule="evenodd" d="M117.617 250.231C117.328 252.489 118.924 254.554 121.182 254.842L143.104 257.646C145.362 257.935 147.427 256.339 147.716 254.081L150.52 232.159C150.809 229.901 149.212 227.836 146.954 227.547L125.032 224.743C122.774 224.455 120.71 226.051 120.421 228.309L117.617 250.231ZM119.867 249.523C119.659 251.149 120.808 252.635 122.434 252.843L142.396 255.396C144.022 255.604 145.508 254.455 145.716 252.829L148.27 232.867C148.478 231.241 147.328 229.755 145.702 229.547L125.74 226.993C124.115 226.785 122.628 227.935 122.42 229.561L119.867 249.523Z" fill="white"/>
<path d="M135.635 236.944C135.594 236.991 135.526 237.082 135.483 237.147C135.438 237.212 135.381 237.316 135.353 237.38C135.325 237.443 135.293 237.531 135.281 237.577C135.269 237.622 135.249 237.726 135.237 237.805C135.226 237.887 135.218 238.004 135.222 238.064C135.225 238.126 135.235 238.213 135.243 238.257C135.252 238.3 135.252 238.34 135.245 238.346C135.237 238.352 135.147 238.246 134.999 238.055L134.767 237.754L133.858 238.457L136.835 242.307L137.797 241.563C136.196 239.492 136.044 239.29 135.985 239.177C135.946 239.105 135.895 238.982 135.87 238.905C135.845 238.826 135.82 238.713 135.814 238.653C135.807 238.595 135.808 238.494 135.816 238.43C135.823 238.367 135.847 238.262 135.87 238.2C135.892 238.138 135.934 238.048 135.961 238.001C135.998 237.941 136.055 237.882 136.155 237.796C136.237 237.728 136.333 237.658 136.383 237.635C136.429 237.612 136.517 237.582 136.577 237.568C136.641 237.555 136.739 237.551 136.814 237.562C136.894 237.572 136.993 237.603 137.077 237.645C137.152 237.681 137.248 237.737 137.291 237.768C137.364 237.818 137.469 237.948 138.36 239.095L139.348 240.364L140.31 239.62C138.987 237.909 138.612 237.413 138.572 237.344C138.533 237.28 138.477 237.169 138.446 237.099C138.416 237.029 138.376 236.901 138.359 236.814C138.335 236.689 138.332 236.614 138.353 236.453C138.371 236.309 138.394 236.221 138.434 236.143C138.464 236.083 138.518 235.999 138.556 235.956C138.594 235.912 138.689 235.832 138.775 235.77C138.912 235.673 138.939 235.658 139.054 235.633C139.138 235.615 139.233 235.611 139.33 235.623C139.435 235.634 139.516 235.659 139.612 235.706C139.687 235.742 139.786 235.804 139.834 235.844C139.882 235.884 139.984 235.983 140.059 236.066C140.142 236.153 140.545 236.664 141.043 237.308L141.888 238.4L142.85 237.656C141.279 235.624 140.897 235.142 140.815 235.054C140.745 234.98 140.619 234.864 140.535 234.8C140.453 234.736 140.328 234.648 140.257 234.609C140.188 234.569 140.066 234.514 139.986 234.488C139.908 234.461 139.752 234.425 139.639 234.412C139.509 234.395 139.379 234.393 139.28 234.406C139.195 234.418 139.069 234.443 139.002 234.461C138.934 234.479 138.806 234.528 138.719 234.573C138.606 234.628 138.51 234.689 138.376 234.793C138.273 234.872 138.148 234.982 138.091 235.045C138.035 235.106 137.962 235.196 137.928 235.248C137.894 235.298 137.844 235.386 137.815 235.44C137.788 235.496 137.746 235.596 137.722 235.664C137.698 235.733 137.668 235.879 137.653 235.99C137.639 236.102 137.634 236.264 137.642 236.349L137.655 236.504C137.526 236.445 137.446 236.416 137.392 236.398C137.338 236.381 137.222 236.356 137.135 236.342C137.049 236.33 136.9 236.323 136.805 236.33C136.709 236.336 136.567 236.362 136.487 236.388C136.407 236.414 136.283 236.464 136.211 236.501C136.126 236.543 136.015 236.618 135.895 236.713C135.792 236.793 135.676 236.897 135.635 236.944Z" fill="#FBFEFC"/>
<path d="M131.146 240.503C131.201 240.43 131.293 240.32 131.352 240.258C131.411 240.196 131.558 240.069 131.68 239.972C131.849 239.84 131.947 239.774 132.081 239.703C132.179 239.651 132.347 239.578 132.453 239.541C132.559 239.504 132.726 239.458 132.823 239.439C132.919 239.42 133.064 239.4 133.142 239.397C133.22 239.392 133.358 239.399 133.607 239.431L133.395 240.513L133.237 240.494C133.11 240.479 133.037 240.484 132.868 240.519C132.738 240.547 132.61 240.586 132.532 240.623C132.437 240.669 132.369 240.715 132.252 240.814C132.127 240.921 132.084 240.967 132.025 241.06C131.986 241.122 131.93 241.232 131.902 241.3C131.871 241.374 131.84 241.506 131.826 241.617C131.805 241.783 131.808 241.839 131.846 242.021C131.874 242.159 131.915 242.296 131.965 242.41C132.034 242.568 132.058 242.608 132.213 242.805C132.352 242.986 132.407 243.046 132.511 243.13C132.582 243.186 132.7 243.264 132.773 243.301C132.846 243.339 132.953 243.386 133.009 243.407C133.067 243.426 133.174 243.455 133.25 243.467C133.324 243.48 133.453 243.487 133.538 243.483C133.622 243.478 133.728 243.464 133.777 243.45C133.825 243.437 133.924 243.396 133.996 243.36C134.097 243.311 134.166 243.262 134.297 243.155C134.432 243.04 134.482 242.988 134.55 242.888C134.597 242.82 134.664 242.707 134.696 242.635C134.729 242.564 134.766 242.444 134.8 242.231L135.869 242.371L135.857 242.465C135.851 242.519 135.823 242.637 135.794 242.73C135.766 242.824 135.716 242.957 135.683 243.027C135.649 243.098 135.575 243.226 135.518 243.312C135.462 243.399 135.36 243.535 135.292 243.613C135.185 243.737 135.125 243.79 134.854 243.999C134.577 244.213 134.518 244.253 134.362 244.33C134.264 244.378 134.108 244.444 134.016 244.476C133.923 244.509 133.769 244.552 133.672 244.571C133.576 244.59 133.419 244.611 133.324 244.618C133.229 244.625 133.06 244.622 132.946 244.609C132.833 244.596 132.67 244.568 132.588 244.544C132.504 244.522 132.362 244.473 132.27 244.437C132.18 244.401 132.052 244.337 131.984 244.296C131.915 244.255 131.79 244.168 131.708 244.103C131.625 244.039 131.493 243.919 131.417 243.837C131.332 243.749 131.22 243.609 131.134 243.49C131.055 243.38 130.961 243.233 130.924 243.161C130.886 243.09 130.831 242.966 130.798 242.884C130.765 242.803 130.722 242.65 130.698 242.545C130.676 242.439 130.652 242.309 130.648 242.253C130.642 242.199 130.637 242.077 130.636 241.984C130.636 241.89 130.649 241.73 130.666 241.63C130.681 241.531 130.719 241.371 130.751 241.274C130.782 241.179 130.827 241.057 130.849 241.003C130.872 240.949 130.925 240.844 130.968 240.77C131.012 240.696 131.091 240.575 131.146 240.503Z" fill="#FBFEFC"/>
<path fill-rule="evenodd" clip-rule="evenodd" d="M126.472 244.099C126.524 244.036 126.613 243.935 126.672 243.874C126.746 243.796 126.873 243.691 127.096 243.525C127.351 243.332 127.443 243.272 127.562 243.216C127.643 243.177 127.768 243.125 127.838 243.103C127.907 243.079 128.023 243.05 128.095 243.035C128.168 243.021 128.288 243.005 128.367 243C128.444 242.994 128.572 242.997 128.65 243.007C128.728 243.017 128.868 243.05 128.957 243.08C129.047 243.111 129.171 243.164 129.232 243.198C129.292 243.233 129.395 243.302 129.46 243.353C129.526 243.402 129.623 243.481 129.678 243.526C129.761 243.598 129.922 243.799 131.795 246.204L130.899 246.897L130.713 246.656C130.6 246.509 130.52 246.417 130.509 246.419C130.499 246.42 130.495 246.464 130.501 246.517C130.507 246.568 130.5 246.682 130.487 246.769C130.475 246.856 130.441 246.992 130.414 247.069C130.387 247.148 130.336 247.262 130.299 247.322C130.264 247.384 130.185 247.498 130.123 247.578C130.02 247.709 129.989 247.739 129.749 247.923C129.533 248.09 129.462 248.137 129.332 248.198C129.247 248.24 129.116 248.295 129.042 248.32C128.967 248.346 128.845 248.38 128.768 248.395C128.692 248.409 128.563 248.421 128.479 248.422C128.396 248.422 128.264 248.405 128.183 248.386C128.102 248.367 128.001 248.339 127.956 248.322C127.914 248.306 127.82 248.254 127.748 248.205C127.67 248.154 127.57 248.069 127.498 247.993C127.413 247.905 127.351 247.824 127.288 247.72C127.237 247.637 127.173 247.511 127.148 247.437C127.121 247.364 127.095 247.239 127.09 247.161C127.086 247.083 127.09 246.965 127.101 246.899C127.113 246.831 127.141 246.716 127.165 246.639C127.189 246.562 127.237 246.441 127.271 246.367C127.306 246.296 127.385 246.16 127.445 246.067C127.505 245.976 127.612 245.83 127.681 245.745C127.751 245.661 127.864 245.535 127.933 245.463C128.002 245.392 128.156 245.243 128.276 245.133C128.396 245.024 128.61 244.837 129.01 244.502L128.896 244.366C128.793 244.244 128.768 244.223 128.659 244.167C128.574 244.124 128.5 244.1 128.41 244.092C128.34 244.084 128.227 244.086 128.158 244.097C128.09 244.109 127.968 244.141 127.886 244.173C127.75 244.224 127.719 244.244 127.523 244.395C127.334 244.542 127.298 244.576 127.204 244.7C127.145 244.776 127.064 244.906 127.021 244.989C126.979 245.072 126.923 245.204 126.896 245.282C126.868 245.359 126.838 245.472 126.808 245.638L126.736 245.626C126.721 245.622 126.681 245.614 126.625 245.602C126.534 245.583 126.4 245.555 126.264 245.525C126.043 245.478 125.862 245.434 125.86 245.429C125.859 245.422 125.87 245.359 125.886 245.288C125.902 245.218 125.939 245.086 125.969 244.995C126 244.905 126.062 244.756 126.108 244.663C126.154 244.572 126.235 244.433 126.285 244.355C126.337 244.278 126.421 244.163 126.472 244.099ZM128.819 245.739C128.731 245.822 128.628 245.925 128.591 245.969C128.554 246.012 128.486 246.099 128.442 246.163C128.398 246.227 128.332 246.342 128.299 246.417C128.262 246.492 128.227 246.603 128.218 246.663C128.209 246.723 128.211 246.818 128.223 246.872C128.242 246.954 128.261 246.993 128.333 247.086C128.384 247.152 128.449 247.219 128.488 247.245C128.531 247.275 128.595 247.294 128.677 247.304C128.744 247.311 128.834 247.31 128.874 247.302C128.916 247.296 128.99 247.273 129.04 247.254C129.089 247.235 129.186 247.186 129.254 247.144C129.323 247.101 129.43 247.018 129.501 246.952C129.569 246.889 129.657 246.798 129.696 246.749C129.734 246.699 129.794 246.602 129.829 246.534C129.877 246.439 129.898 246.364 129.917 246.217C129.935 246.07 129.935 245.991 129.912 245.887C129.895 245.813 129.864 245.706 129.842 245.653C129.82 245.597 129.743 245.471 129.663 245.358L129.525 245.161C129.102 245.492 128.907 245.656 128.819 245.739Z" fill="#FBFEFC"/>
<path d="M123.722 83.2676L128.585 77.5252L127.351 66.0273L131.268 53.8246L152.067 61.8659L174.415 63.7996L185.227 71.2733L193.577 73.2902L199.126 76.9143L208.484 74.7567L216.747 77.8517L219.873 75.3518L226.685 78.8294L238.583 78.2973L241.641 80.7173L252.675 76.441L242.809 88.91L238.522 101.967L233.239 103.907L236.21 107.405L227.526 124.568L220.596 121.722L216.215 130.157L213 124.551L207.983 123.643L206.726 116.528L201.227 113.325L201.304 106.459L196.353 102.541L183.792 112.152L178.65 123.002L176.325 118.82L172.809 126.032L152.049 123.26L144.476 128.479L139.562 121.65L138.067 130.293L122.526 136.427L125.032 123.107L124.744 110.993L123.02 100.291L125.923 98.1469L122.5 94.838L123.722 83.2676Z" fill="black" stroke="#FBFEFC" stroke-width="1.2" stroke-linecap="round"/>
<path d="M136.43 97.3273L145.358 80.1385C146.431 78.0122 146.867 77.5655 148.574 76.8652L155.508 73.898C156.678 73.4248 157.029 73.2435 157.721 73.6705L177.996 86.1785C179.267 86.9624 179.734 87.8875 178.852 89.5736L168.231 109.378C167.541 110.625 167.012 111.096 165.811 111.231L158.402 111.996C157.049 112.118 156.18 111.979 155.37 111.479L137.348 100.361C136.309 99.7203 135.727 98.7245 136.43 97.3273Z" fill="black"/>
<path fill-rule="evenodd" clip-rule="evenodd" d="M144.597 94.2018C143.74 95.8254 143.546 96.1937 142.28 96.6349L139.101 97.7813C138.728 97.8671 138.51 97.5738 138.808 96.9619L147.402 80.4456C148.105 79.0469 148.994 78.6412 149.718 78.3715L153.354 76.8725C153.484 76.7927 154.008 76.7177 153.794 77.0644L144.708 93.9914L144.597 94.2018ZM163.91 108.625L146.697 98.0068C145.946 97.5431 145.741 97.0983 146.11 96.3713L156.576 76.9488C156.911 76.2776 157.492 76.2396 158.243 76.7025L175.34 87.2501C176.092 87.7138 176.656 88.2219 176.073 89.295L166.047 107.875C165.464 108.948 164.835 109.195 163.91 108.625L163.91 108.625ZM158.544 80.8686C159.135 81.0744 159.584 81.5101 159.323 82.0667L158.961 83.0371L171.669 90.8767C171.61 91.8768 171.414 92.7102 171.058 93.2878C170.488 94.2109 170.057 94.2631 168.765 94.4204L156.382 94.5867L164.988 99.896L166.496 98.3572C166.496 98.3572 167.536 98.9987 166.646 100.442L164.422 104.562C164.119 104.535 163.613 104.063 163.747 103.589L164.1 102.372L152.721 95.3526L151.715 96.7224C151.123 96.5175 150.55 95.7662 150.99 94.9221L153.336 90.4764L165.976 90.1522L158.004 85.2347L156.907 86.6279C156.199 86.351 156.021 85.6042 156.32 84.993L158.544 80.8686Z" fill="#FBFEFC"/>
<path fill-rule="evenodd" clip-rule="evenodd" d="M136.431 97.3276L145.359 80.1389L145.358 80.1387C145.86 79.1445 146.222 78.5174 146.641 78.06C146.641 78.0597 146.641 78.0594 146.642 78.0591C147.118 77.5387 147.666 77.2379 148.574 76.8653L155.685 73.826L155.69 73.824C156.717 73.4077 157.066 73.2662 157.722 73.6706L177.997 86.1785C179.268 86.9622 179.734 87.8885 178.853 89.5736L168.231 109.378C167.541 110.625 167.012 111.096 165.811 111.231L158.402 111.996C157.049 112.118 156.18 111.979 155.371 111.48L137.348 100.361C136.31 99.7207 135.728 98.7246 136.431 97.3276ZM147.63 74.6115C146.704 74.9922 145.795 75.4306 144.985 76.2552C144.232 77.0226 143.708 77.9855 143.177 79.0381L143.17 79.0515L134.256 96.2149L134.249 96.2286C133.655 97.4069 133.476 98.7171 133.946 99.9802C134.388 101.167 135.269 101.95 136.065 102.441L154.088 113.559C155.517 114.441 156.986 114.578 158.622 114.43L158.638 114.428L166.074 113.661L166.086 113.66C166.979 113.559 167.891 113.298 168.725 112.641C169.488 112.04 169.985 111.257 170.37 110.56L170.377 110.547L181.013 90.7172L181.019 90.7056C181.603 89.587 182 88.2342 181.569 86.8231C181.146 85.4422 180.109 84.6101 179.28 84.0988L159.005 71.5908C158.335 71.1776 157.528 70.8916 156.541 71.0149C155.908 71.094 155.272 71.3545 154.873 71.5178C154.836 71.5332 154.8 71.5478 154.767 71.5612L154.746 71.5699L147.63 74.6115Z" fill="#FBFEFC"/>
<path d="M21.5766 160.452L13.7956 150.578L34.3179 131.517L68.4309 108.295L94.0873 86.1045L115.881 70.7751L119.419 80.3176L115.841 85.2802L121.517 85.3759L127.833 101.023L133.056 107.975L125.675 117.909L111.525 125.598L112.156 133.331L104.322 144.292L94.6501 153.275L88.4675 163.37L82.3127 169.087L81.4787 182.295L72.9691 194.293L75.2781 200.747L68.7525 219.5L43.1201 189.13L32.679 180.66L30.9325 171.096L23.7555 166.972L21.5766 160.452Z" fill="black" stroke="#FBFEFC" stroke-width="1.2" stroke-linecap="round"/>
<g clip-path="url(#clip0_5342_8444)">
<path d="M44.3429 152.717C46.0438 154.841 47.0646 156.696 43.8074 159.304C40.621 161.856 38.8779 160.695 37.1203 158.5L32.9814 153.331C32.0742 152.198 31.4652 152.453 30.6155 153.133L30.3887 152.85L34.4248 149.618L34.6516 149.902C33.8019 150.582 33.4196 151.12 34.3268 152.253L38.4657 157.422C39.713 158.98 41.3144 160.255 43.3679 158.61C45.563 156.853 44.8965 155.295 43.4223 153.454L39.2834 148.285C38.3763 147.152 37.7672 147.407 36.9175 148.087L36.6907 147.804L40.2312 144.969L40.4579 145.252C39.6082 145.933 39.226 146.471 40.1331 147.604L44.2721 152.773L44.3429 152.717Z" fill="#FBFEFC"/>
<path d="M55.576 149.184C55.0239 150.091 54.2876 150.913 53.1546 151.82C50.039 154.315 46.681 153.169 44.0162 149.841C41.7483 147.009 40.9679 144.147 44.2959 141.482C45.4997 140.519 46.7319 139.881 47.6101 139.526L49.6794 141.82L49.3254 142.104C48.4326 141.424 46.6613 140.518 44.7495 142.049C42.2712 144.033 44.1566 146.823 45.4606 148.452C47.0481 150.435 49.9677 153.21 53.3665 150.489C54.4287 149.638 54.7542 149.029 55.0657 148.547L55.576 149.184Z" fill="#FBFEFC"/>
<path d="M57.6237 134.762C56.8017 134.025 55.4274 133.615 53.7988 134.919C52.7366 135.77 52.3264 137.144 53.1769 138.206C54.2541 139.552 56.492 138.573 58.4611 138.275C60.2318 138.019 61.5918 137.976 62.7825 139.463C64.37 141.446 63.4076 143.727 61.2834 145.428C60.2212 146.278 58.8474 147.03 58.3658 147.299L56.4666 145.217L56.8206 144.934C57.6426 145.67 59.0878 146.024 60.7164 144.72C62.0618 143.642 62.3019 142.056 61.3947 140.923C60.034 139.223 57.088 140.769 54.7505 140.897C53.6456 140.968 52.9087 140.629 52.115 139.637C50.7257 137.612 51.5891 135.643 53.5717 134.055C54.6339 133.205 55.3845 132.836 56.206 132.411L58.0486 134.422L57.6237 134.762Z" fill="#FBFEFC"/>
<path d="M71.2393 137.108C71.1544 137.292 70.857 137.646 70.3614 138.043C69.5825 138.667 68.9591 138.469 68.5055 137.902C68.5909 138.88 68.3079 139.687 67.3166 140.481C66.3394 141.147 65.121 141.077 64.4406 140.227C62.8531 138.245 65.473 136.147 66.351 135.211L65.9541 134.716C65.1603 133.724 64.3666 132.733 63.2336 133.64C62.3839 134.321 62.5258 134.788 62.8659 135.213C63.3195 135.779 63.0081 136.261 62.7956 136.431C62.4416 136.715 61.9316 136.658 61.6481 136.304C60.911 135.384 61.9162 133.882 62.8367 133.144C64.7486 131.614 65.7689 132.307 66.7894 133.582L69.5109 136.981C69.9078 137.476 70.1628 137.505 70.5877 137.164C70.7293 137.051 70.8001 136.994 70.885 136.81L71.1685 137.164L71.2393 137.108ZM66.6912 135.636C66.0539 136.146 64.397 137.706 65.4176 138.98C65.9846 139.688 66.8771 139.787 67.302 139.447C68.2225 138.71 68.1086 137.406 67.3715 136.486L66.6912 135.636Z" fill="#FBFEFC"/>
<path d="M71.2955 136.597C71.862 136.144 72.2443 135.605 71.5639 134.756L68.5589 131.003C67.8786 130.153 67.2413 130.663 66.7597 130.933L66.5896 130.72L68.4304 128.665L69.9046 130.506C69.7201 129.841 69.2093 128.042 70.6255 126.908C72.1125 125.717 72.8778 126.383 73.8984 127.657L76.4498 130.843C77.1868 131.764 77.7392 131.438 78.3057 130.984L78.4758 131.197L75.2893 133.748L75.1192 133.536C75.6857 133.082 76.068 132.544 75.3876 131.694L73.1197 128.862C72.1558 127.658 71.759 127.162 70.8384 127.899C70.0595 128.523 70.3156 130.874 71.3361 132.149L72.6969 133.848C73.4339 134.769 73.9863 134.443 74.5528 133.989L74.7229 134.202L71.5364 136.753L71.3664 136.541L71.2955 136.597Z" fill="#FBFEFC"/>
<path d="M79.8069 129.666C80.6566 128.985 81.0388 128.447 80.1317 127.314L74.4052 120.162C73.4981 119.029 72.889 119.285 72.0393 119.965L71.8125 119.682L75.4238 116.79C77.9729 114.749 81.188 113.104 84.8734 117.707C88.5587 122.309 86.1233 125.073 83.6449 127.057L80.0337 129.949L79.8069 129.666ZM81.2503 125.953C82.1574 127.086 82.4124 127.115 83.1913 126.491C85.8821 124.336 85.8103 122.07 83.3156 118.954C81.0477 116.122 78.8372 115.103 75.934 117.427C75.1551 118.051 75.0702 118.235 76.0341 119.439L81.2503 125.953Z" fill="#FBFEFC"/>
<path d="M89.351 122.139C89.9175 121.686 90.2998 121.147 89.6194 120.297L86.6144 116.545C85.9341 115.695 85.2968 116.205 84.8152 116.475L84.6451 116.262L86.4859 114.207L90.6816 119.447C91.4186 120.368 91.971 120.041 92.5375 119.588L92.7076 119.8L89.5211 122.352L89.351 122.139ZM83.4255 113.288C83.0853 112.863 83.1559 112.225 83.5807 111.885C84.0056 111.545 84.6431 111.615 84.9833 112.04C85.3235 112.465 85.2529 113.103 84.8281 113.443C84.4032 113.783 83.8224 113.783 83.4255 113.288Z" fill="#FBFEFC"/>
<path d="M97.6077 115.76C97.3671 116.186 97.0556 116.667 96.2059 117.348C94.0816 119.049 91.914 118.809 90.0997 116.543C88.5121 114.56 88.3839 112.804 90.3665 111.216C91.5703 110.252 93.2702 110.053 94.5176 111.611L94.7444 111.894L90.779 115.069C91.6862 116.202 94.1804 118.156 96.4463 116.342C96.7295 116.115 97.0977 115.704 97.2675 115.336L97.6077 115.76ZM93.1437 112.362C92.5767 111.654 91.4997 110.89 90.5084 111.683C89.4463 112.534 89.9286 114.007 90.3822 114.574L93.1437 112.362Z" fill="#FBFEFC"/>
<path d="M101.417 111.084C102.054 110.574 103.612 109.326 104.859 110.884C106.107 112.442 105.286 114.61 103.445 116.084C102.099 117.161 100.286 117.8 99.2658 116.525C98.5854 115.675 98.9392 114.811 99.194 114.258C98.8682 114.287 98.2873 114.287 97.8337 113.721C97.4369 113.225 97.4081 112.318 97.4364 112.063C96.9263 112.007 96.0905 111.979 95.1833 110.846C93.7659 109.076 94.757 107.701 96.1023 106.624C96.7396 106.113 97.2071 105.972 97.802 105.844C97.6175 105.178 97.1778 103.903 98.0275 103.223C98.3816 102.939 98.8349 102.925 99.1751 103.35C99.4586 103.704 99.473 104.157 99.0481 104.497C98.6941 104.781 98.4531 104.625 98.2407 104.795C97.9575 105.022 98.1561 105.56 98.2553 105.83C98.567 105.929 99.4596 106.027 100.197 106.948C101.331 108.364 101.105 109.823 99.476 111.127C98.9095 111.581 98.4987 111.794 98.0313 111.935C98.0172 112.063 97.9749 112.445 98.2017 112.729C98.6552 113.295 99.3633 112.728 99.7882 112.388L101.417 111.084ZM99.8739 113.946C99.7607 114.386 99.5768 114.881 100.087 115.519C100.711 116.298 101.986 116.439 103.19 115.475C104.464 114.454 105.087 112.91 104.293 111.919C103.726 111.211 102.989 111.452 102.281 112.019L99.8739 113.946ZM99.0791 110.632C100.212 109.725 99.6166 108.691 99.0496 107.983C98.1991 106.92 97.2214 106.425 96.2301 107.219C95.1679 108.069 95.5792 109.018 96.2596 109.868C97.1241 110.803 98.0878 111.425 99.0791 110.632Z" fill="#FBFEFC"/>
<path d="M101.968 107.273C100.324 105.22 100.436 103.038 102.206 101.621C103.977 100.203 106.073 100.5 107.774 102.624C109.419 104.678 109.306 106.859 107.536 108.277C105.709 109.623 103.612 109.327 101.968 107.273ZM107.139 107.781C108.484 106.704 107.407 104.778 106.5 103.645C105.593 102.512 103.949 101.039 102.603 102.116C101.258 103.194 102.335 105.12 103.243 106.253C104.15 107.386 105.723 108.915 107.139 107.781Z" fill="#FBFEFC"/>
<path d="M99.5925 118.239L40.5376 165.525L40.8211 165.879L100.159 118.366C99.975 118.281 99.7767 118.324 99.5925 118.239Z" fill="#FBFEFC"/>
<path d="M112.055 108.26L106.603 112.626C106.574 112.881 106.489 113.065 106.461 113.32L112.268 108.671L111.984 108.317L112.055 108.26Z" fill="#FBFEFC"/>
<path d="M46.8562 168.482L45.794 169.333L45.2271 168.625L48.201 166.243L48.768 166.951L47.7059 167.802L50.2573 170.988L49.4076 171.669L46.8562 168.482Z" fill="#FBFEFC"/>
<path d="M49.6173 165.109L50.8079 166.596L52.2949 165.405L51.1043 163.918L51.954 163.238L55.0724 167.133L54.2227 167.813L52.9186 166.184L51.4316 167.375L52.7357 169.004L51.8151 169.741L48.6968 165.846L49.6173 165.109Z" fill="#FBFEFC"/>
<path d="M56.8839 163.009L55.4678 164.143L56.2048 165.064L57.7626 163.816L58.3296 164.524L55.8513 166.509L52.7329 162.614L55.1404 160.687L55.7074 161.395L54.1496 162.642L54.7733 163.421L56.1895 162.287L56.8131 163.066L56.8839 163.009Z" fill="#FBFEFC"/>
<path d="M57.1793 159.17C57.4766 158.816 57.9015 158.476 58.3263 158.136C59.0344 157.569 59.6435 157.314 60.2951 157.257C60.9468 157.2 61.5561 157.525 62.123 158.233C62.7467 159.012 62.8604 159.735 62.7331 160.301C62.5917 160.996 62.0679 161.647 61.3598 162.214C60.9349 162.555 60.5809 162.838 60.3117 162.937L57.2501 159.114L57.1793 159.17ZM60.6512 161.62C60.722 161.563 60.8636 161.45 60.9344 161.393C61.7133 160.769 61.9396 159.891 61.2025 158.97C60.5789 158.191 59.6863 158.093 58.9782 158.66C58.7658 158.83 58.6242 158.943 58.5534 159L60.6512 161.62Z" fill="#FBFEFC"/>
<path d="M65.381 156.205L63.9648 157.339L64.7019 158.259L66.2597 157.012L66.8267 157.72L64.3484 159.705L61.23 155.81L63.6375 153.882L64.2045 154.59L62.6467 155.838L63.2703 156.617L64.6865 155.483L65.3102 156.262L65.381 156.205Z" fill="#FBFEFC"/>
<path d="M66.7267 156.291C67.0525 156.262 67.534 155.993 67.8881 155.709C68.3129 155.369 68.412 155.057 68.1852 154.774C68.0151 154.562 67.6893 154.59 67.0943 154.718C66.2869 155.016 65.5786 155.002 65.125 154.436C64.6147 153.798 64.7276 152.778 65.6481 152.041C66.073 151.701 66.4837 151.488 66.8096 151.46L67.1641 152.338C66.9658 152.381 66.5692 152.466 66.1443 152.806C65.7903 153.089 65.6912 153.401 65.8613 153.614C66.0881 153.897 66.3572 153.798 67.023 153.613C67.9579 153.329 68.5246 153.457 68.9215 153.952C69.4318 154.59 69.3897 155.553 68.3275 156.403C67.9027 156.744 67.2936 156.999 67.0245 157.098L66.7267 156.291Z" fill="#FBFEFC"/>
<path d="M68.3815 150.085L71.4998 153.979L70.5793 154.716L67.4609 150.822L68.3815 150.085Z" fill="#FBFEFC"/>
<path d="M75.4229 150.605C75.1963 150.903 74.8141 151.441 74.3184 151.838C73.6103 152.405 72.9445 152.59 72.3637 152.59C71.7262 152.519 71.1169 152.194 70.6633 151.627C69.6427 150.353 69.9396 148.837 71.2849 147.759C71.7806 147.363 72.2622 147.093 72.5172 147.121L72.8717 148C72.6026 148.099 72.2627 148.255 71.8378 148.595C71.1297 149.162 70.9034 150.04 71.5838 150.89C72.2075 151.669 73.1 151.768 73.8081 151.201C74.0205 151.031 74.1622 150.917 74.1763 150.79L73.4959 149.94L72.8586 150.45L72.2916 149.742L73.7786 148.552L75.4229 150.605Z" fill="#FBFEFC"/>
<path d="M76.3151 150.123L73.1968 146.229L74.2589 145.378L76.1718 146.171C76.7244 146.425 77.4045 146.694 77.8863 147.006C77.4186 146.567 76.965 146 76.5115 145.434L75.6043 144.301L76.454 143.62L79.5724 147.515L78.6519 148.252L76.6115 147.445C76.0589 147.191 75.3788 146.922 74.8261 146.667C75.223 147.163 75.6766 147.729 76.1869 148.366L77.1507 149.57L76.3718 150.194L76.3151 150.123Z" fill="#FBFEFC"/>
<path d="M78.5073 141.977L79.4278 141.239L81.9792 144.426L83.537 143.179L84.104 143.887L81.6965 145.814L78.5781 141.92L78.5073 141.977Z" fill="#FBFEFC"/>
<path d="M84.7969 141.705L85.3074 142.923L84.3869 143.66L82.4723 138.802L83.6053 137.895L87.9274 140.825L87.0069 141.562L85.9299 140.798L84.7969 141.705ZM85.278 140.274L84.3852 139.594C84.1443 139.439 83.8467 139.212 83.5491 138.985C83.6483 139.255 83.8043 139.595 83.9603 139.934L84.4283 140.954L85.278 140.274Z" fill="#FBFEFC"/>
<path d="M85.4327 136.548C85.5884 136.307 86.0841 135.91 86.5089 135.57C87.0754 135.116 87.4153 134.96 87.812 134.875C88.2086 134.79 88.6478 134.903 88.9313 135.257C89.2148 135.611 89.2292 136.064 88.9744 136.617C89.5127 136.419 90.0935 136.418 90.5471 136.985C90.8306 137.339 90.9157 137.735 90.8026 138.175C90.6894 138.614 90.3072 139.152 89.5283 139.776C89.1034 140.116 88.7494 140.4 88.4802 140.499L85.3619 136.605L85.4327 136.548ZM87.473 137.354L87.7563 137.128C88.2519 136.731 88.2943 136.348 88.0675 136.065C87.8407 135.782 87.5149 135.81 87.09 136.15C86.8776 136.321 86.8068 136.377 86.736 136.434L87.473 137.354ZM88.8338 139.054C88.9046 138.997 89.0462 138.884 89.1878 138.77C89.6127 138.43 89.8533 138.005 89.5132 137.58C89.173 137.155 88.7055 137.297 88.2807 137.637L87.9974 137.864L88.9046 138.997L88.8338 139.054Z" fill="#FBFEFC"/>
</g>
<defs>
<clipPath id="clip0_5342_8444">
<rect width="91.7998" height="26.94" fill="white" transform="translate(30.2754 152.708) rotate(-38.6846)"/>
</clipPath>
</defs>
</svg>
