<svg width="259" height="208" viewBox="0 0 259 208" fill="none" xmlns="http://www.w3.org/2000/svg">
<g clip-path="url(#clip0_4574_462)">
<path d="M127.944 183.596L139.059 193.269L144.811 165.767L131.781 146.918L81.7701 56.2633L55.9208 39.795L55.502 44.4444L66.0944 62.5043L73.881 67.8071L76.3647 82.1042L81.5124 92.8253L84.0169 105.06L91.0741 113.195L96.2193 128.509L103.169 129.962L107.194 143.434L110.497 145.962L117.33 167.598L127.944 183.596Z" fill="#FBFEFC"/>
<path d="M128.413 179.084L139.39 188.71L145.128 161.277L147.266 143.666L149.436 140.681L152.518 125.947L149.55 121.787L153.457 121.458L161.373 91.2977L160.542 85.6779L163.211 82.5101L165.647 63.1829L150.744 61.2712L138.488 57.5016L126.603 53.3552L118.118 53.2406L114.527 56.2751L111.328 51.8203L96.9197 50.0123L92.9855 46.8963L80.9592 45.4678L57.0086 40.4578L67.4534 58.4475L75.1455 63.7214L77.5768 77.9734L82.6494 88.6548L85.1049 100.85L92.0707 108.95L97.1326 124.21L104.004 125.648L107.961 139.074L111.224 141.588L117.944 163.151L128.413 179.084Z" fill="black" stroke="white" stroke-width="1.2"/>
<path d="M40.7903 193.224L4.14019 191.401L8.91254 173.327L7.79189 157.207L10.4985 155.749L8.30029 151.756L9.22978 98.7639L19.0978 117.239L28.0964 117.397L38.2855 127.475L40.5163 132.918L47.4152 133.039L65.8597 142.064L71.4965 146.485L75.4582 142.232L78.9034 151.087L83.7239 149.961L85.605 162.39L81.2109 173.415L84.0842 180.667L80.9741 186.913L88.0467 185.687L94.9719 192.859L93.4135 204.407L70.4252 197.326L59.9342 198.279L44.8951 196.48L40.7903 193.224Z" fill="black" stroke="#FBFEFC" stroke-width="1.2" stroke-linecap="round"/>
<path fill-rule="evenodd" clip-rule="evenodd" d="M30.5782 161.774C28.7533 163.135 28.3771 165.718 29.7379 167.543L42.9492 185.26C44.31 187.085 46.8925 187.461 48.7174 186.1L66.4345 172.889C68.2594 171.528 68.6357 168.945 67.2749 167.12L54.0636 149.403C52.7028 147.578 50.1203 147.202 48.2954 148.563L30.5782 161.774ZM32.6506 162.901C31.3367 163.881 31.0658 165.74 32.0455 167.054L44.0758 183.187C45.0555 184.501 46.915 184.772 48.2289 183.792L64.3621 171.762C65.676 170.782 65.9469 168.923 64.9672 167.609L52.9369 151.476C51.9572 150.162 50.0978 149.891 48.7838 150.871L32.6506 162.901Z" fill="white"/>
<path d="M52.6518 165.507C52.5899 165.51 52.4768 165.524 52.3996 165.539C52.3226 165.551 52.2071 165.582 52.142 165.607C52.0772 165.63 51.9913 165.669 51.9504 165.692C51.9094 165.715 51.8209 165.772 51.756 165.819C51.6892 165.867 51.5996 165.943 51.5588 165.988C51.5164 166.033 51.4605 166.1 51.4346 166.137C51.4106 166.173 51.3809 166.201 51.3726 166.2C51.3625 166.199 51.3758 166.061 51.4107 165.821L51.4655 165.445L50.3284 165.279L49.6268 170.096L50.8307 170.271C51.2081 167.681 51.248 167.43 51.2877 167.31C51.3128 167.231 51.3664 167.109 51.4042 167.038C51.4438 166.965 51.5074 166.869 51.5465 166.823C51.5839 166.777 51.6572 166.708 51.7089 166.669C51.759 166.63 51.8506 166.575 51.9109 166.548C51.9712 166.521 52.0648 166.489 52.1179 166.476C52.1867 166.46 52.2687 166.46 52.4001 166.473C52.5059 166.485 52.6225 166.505 52.6743 166.525C52.723 166.542 52.8055 166.585 52.8571 166.618C52.9115 166.655 52.9818 166.723 53.0258 166.784C53.0744 166.849 53.1207 166.941 53.1487 167.031C53.1747 167.11 53.2017 167.218 53.2094 167.27C53.224 167.358 53.2032 167.524 52.9973 168.961L52.7704 170.554L53.9743 170.729C54.2861 168.588 54.3825 167.974 54.4039 167.897C54.423 167.825 54.464 167.708 54.4931 167.637C54.5222 167.566 54.5871 167.449 54.637 167.376C54.7101 167.272 54.7624 167.218 54.8926 167.121C55.0095 167.034 55.0878 166.989 55.1717 166.964C55.2361 166.944 55.3346 166.924 55.3912 166.922C55.4498 166.919 55.5726 166.932 55.6774 166.95C55.842 166.981 55.8714 166.99 55.9694 167.056C56.0409 167.104 56.1101 167.169 56.1686 167.247C56.2334 167.33 56.2719 167.406 56.3048 167.508C56.3309 167.587 56.3552 167.701 56.3598 167.763C56.3644 167.826 56.3643 167.967 56.3565 168.079C56.3509 168.199 56.2638 168.844 56.1464 169.65L55.9474 171.016L57.1513 171.192C57.5216 168.65 57.6036 168.04 57.6092 167.92C57.6138 167.818 57.6097 167.647 57.5976 167.542C57.5871 167.438 57.5629 167.288 57.5419 167.21C57.5225 167.132 57.4777 167.006 57.4408 166.93C57.4057 166.855 57.3231 166.719 57.2543 166.628C57.1758 166.523 57.0871 166.428 57.0092 166.365C56.9417 166.313 56.8363 166.24 56.7766 166.204C56.717 166.168 56.5921 166.11 56.4995 166.078C56.3811 166.035 56.2705 166.009 56.1033 165.984C55.9746 165.965 55.8092 165.952 55.7234 165.954C55.6412 165.956 55.5253 165.967 55.4639 165.978C55.4043 165.988 55.3068 166.013 55.2479 166.03C55.1888 166.049 55.0874 166.089 55.0216 166.119C54.9556 166.15 54.8297 166.229 54.7396 166.296C54.6496 166.363 54.5295 166.472 54.4739 166.537L54.3716 166.654C54.3244 166.521 54.2897 166.442 54.2648 166.391C54.2396 166.341 54.1775 166.24 54.1265 166.168C54.0754 166.097 53.9772 165.985 53.9062 165.922C53.8354 165.857 53.7178 165.773 53.6434 165.733C53.5689 165.694 53.4469 165.64 53.3705 165.613C53.2813 165.582 53.1504 165.554 52.998 165.533C52.8692 165.515 52.7137 165.504 52.6518 165.507Z" fill="#FBFEFC"/>
<path d="M46.9733 164.75C47.0637 164.739 47.2069 164.729 47.2924 164.728C47.378 164.727 47.5717 164.745 47.7258 164.765C47.9384 164.795 48.0542 164.82 48.1977 164.867C48.3037 164.901 48.4727 164.972 48.573 165.022C48.6732 165.072 48.8225 165.161 48.9032 165.217C48.9838 165.273 49.0987 165.363 49.1557 165.418C49.2129 165.47 49.3036 165.574 49.4536 165.775L48.5279 166.375L48.4319 166.248C48.3545 166.146 48.3002 166.097 48.1573 166C48.0469 165.926 47.9299 165.861 47.849 165.83C47.7502 165.794 47.6707 165.777 47.5175 165.761C47.3541 165.746 47.2908 165.747 47.1834 165.769C47.1112 165.784 46.9933 165.82 46.9244 165.847C46.8502 165.876 46.7341 165.946 46.6441 166.013C46.51 166.113 46.4717 166.154 46.3673 166.308C46.2871 166.424 46.2177 166.549 46.1703 166.663C46.1044 166.823 46.0926 166.869 46.0582 167.117C46.0253 167.342 46.0203 167.424 46.0316 167.557C46.0407 167.647 46.0666 167.785 46.091 167.864C46.1137 167.943 46.154 168.053 46.1785 168.107C46.2046 168.162 46.2589 168.259 46.3026 168.322C46.3448 168.384 46.4296 168.482 46.4911 168.541C46.5528 168.597 46.637 168.664 46.6811 168.69C46.7236 168.715 46.8214 168.758 46.8978 168.784C47.0031 168.824 47.0862 168.839 47.2542 168.858C47.431 168.876 47.5026 168.876 47.6217 168.856C47.704 168.842 47.8314 168.811 47.9053 168.784C47.979 168.759 48.0915 168.702 48.2682 168.579L48.9105 169.445L48.8339 169.502C48.7915 169.535 48.6869 169.597 48.6003 169.64C48.5134 169.686 48.3823 169.742 48.3086 169.767C48.2349 169.792 48.0915 169.827 47.9896 169.847C47.8877 169.866 47.719 169.888 47.6157 169.893C47.4522 169.902 47.3729 169.895 47.0335 169.846C46.6874 169.795 46.6179 169.78 46.4538 169.722C46.3517 169.685 46.1958 169.618 46.1082 169.574C46.0206 169.531 45.8823 169.449 45.8017 169.393C45.721 169.337 45.597 169.239 45.526 169.175C45.455 169.112 45.3399 168.988 45.2694 168.897C45.2006 168.807 45.1078 168.67 45.0676 168.595C45.0258 168.518 44.9619 168.383 44.9239 168.292C44.8876 168.201 44.8442 168.065 44.8265 167.987C44.8088 167.91 44.7846 167.759 44.7741 167.655C44.762 167.551 44.7572 167.373 44.7633 167.261C44.7675 167.139 44.7899 166.961 44.8161 166.816C44.8407 166.683 44.8808 166.513 44.9073 166.437C44.9321 166.36 44.9829 166.234 45.0185 166.154C45.0541 166.074 45.1338 165.937 45.1931 165.846C45.254 165.756 45.331 165.65 45.3679 165.607C45.4029 165.566 45.4875 165.478 45.5534 165.412C45.621 165.347 45.7451 165.245 45.8286 165.187C45.9105 165.129 46.0525 165.046 46.1444 165.001C46.2343 164.958 46.353 164.905 46.4073 164.884C46.4616 164.863 46.5743 164.828 46.6575 164.808C46.7407 164.788 46.883 164.76 46.9733 164.75Z" fill="#FBFEFC"/>
<path fill-rule="evenodd" clip-rule="evenodd" d="M41.1396 163.886C41.2209 163.879 41.355 163.873 41.4403 163.874C41.5481 163.872 41.711 163.891 41.9862 163.936C42.3017 163.985 42.4092 164.01 42.5321 164.057C42.6164 164.088 42.74 164.142 42.8049 164.177C42.8701 164.21 42.9719 164.273 43.0325 164.314C43.0928 164.357 43.1877 164.432 43.2466 164.485C43.3041 164.536 43.391 164.631 43.4382 164.694C43.4853 164.757 43.5579 164.881 43.5985 164.965C43.6389 165.051 43.687 165.178 43.7045 165.245C43.722 165.313 43.7434 165.435 43.752 165.517C43.7623 165.599 43.7732 165.723 43.7783 165.794C43.7844 165.904 43.7524 166.159 43.3229 169.177L42.2026 169.014L42.2465 168.713C42.2733 168.529 42.2841 168.408 42.2748 168.401C42.2672 168.395 42.2325 168.422 42.1991 168.464C42.1661 168.503 42.0801 168.578 42.0077 168.629C41.9371 168.68 41.8158 168.751 41.7409 168.784C41.6657 168.82 41.5485 168.862 41.4796 168.878C41.4105 168.895 41.274 168.918 41.1734 168.929C41.007 168.946 40.9645 168.945 40.6654 168.899C40.3945 168.86 40.3119 168.841 40.1775 168.791C40.0882 168.759 39.9581 168.702 39.8882 168.667C39.8183 168.631 39.7081 168.567 39.6446 168.522C39.5812 168.477 39.4825 168.392 39.4246 168.333C39.3667 168.273 39.2867 168.166 39.2441 168.095C39.2015 168.023 39.1519 167.931 39.1326 167.887C39.1148 167.845 39.0871 167.742 39.0723 167.656C39.0549 167.565 39.0467 167.434 39.0517 167.329C39.0559 167.206 39.0705 167.106 39.1014 166.988C39.1253 166.894 39.1721 166.761 39.2079 166.691C39.242 166.62 39.3137 166.515 39.3665 166.458C39.4192 166.4 39.5076 166.321 39.5627 166.283C39.6194 166.245 39.7221 166.185 39.7939 166.149C39.8659 166.112 39.9858 166.063 40.0631 166.036C40.1384 166.012 40.2907 165.974 40.3998 165.952C40.5069 165.932 40.6862 165.909 40.7952 165.899C40.9039 165.891 41.0738 165.885 41.173 165.884C41.2719 165.885 41.486 165.892 41.6485 165.902C41.811 165.912 42.0943 165.936 42.6123 165.991L42.6312 165.815C42.6474 165.656 42.6453 165.624 42.6096 165.506C42.5819 165.415 42.5476 165.345 42.4912 165.275C42.4481 165.219 42.3675 165.139 42.3122 165.097C42.2567 165.056 42.1483 164.991 42.0684 164.954C41.9374 164.892 41.9011 164.883 41.6569 164.848C41.4195 164.813 41.3703 164.811 41.2156 164.83C41.1202 164.84 40.9703 164.872 40.8811 164.899C40.7917 164.927 40.6579 164.977 40.5828 165.012C40.5079 165.046 40.4057 165.103 40.2656 165.197L40.225 165.136C40.2171 165.123 40.1953 165.089 40.1647 165.04C40.1151 164.961 40.0423 164.845 39.9687 164.727C39.8498 164.535 39.7553 164.374 39.7577 164.37C39.7621 164.363 39.815 164.328 39.877 164.29C39.9387 164.253 40.0591 164.188 40.1455 164.146C40.2316 164.106 40.3819 164.047 40.4804 164.016C40.5787 163.985 40.7346 163.947 40.826 163.929C40.9171 163.914 41.0584 163.893 41.1396 163.886ZM41.5901 166.713C41.4697 166.708 41.3232 166.705 41.2663 166.709C41.2095 166.712 41.1002 166.724 41.0232 166.736C40.9462 166.749 40.8185 166.782 40.741 166.81C40.6621 166.836 40.5573 166.887 40.5077 166.923C40.4582 166.958 40.392 167.025 40.3613 167.072C40.3152 167.142 40.3008 167.183 40.2837 167.3C40.2718 167.382 40.2684 167.475 40.2771 167.521C40.2849 167.573 40.3155 167.632 40.3658 167.698C40.4075 167.752 40.4699 167.815 40.504 167.839C40.5379 167.865 40.6059 167.902 40.6538 167.924C40.7018 167.946 40.8042 167.982 40.8816 168.002C40.9606 168.022 41.0944 168.041 41.1909 168.047C41.2841 168.052 41.4105 168.051 41.4729 168.045C41.5353 168.039 41.6465 168.014 41.7197 167.992C41.8216 167.961 41.8903 167.923 42.009 167.835C42.1278 167.746 42.1836 167.691 42.2427 167.602C42.2844 167.538 42.3394 167.442 42.3625 167.389C42.3875 167.335 42.4254 167.192 42.4504 167.055L42.4967 166.82C41.9645 166.746 41.7106 166.719 41.5901 166.713Z" fill="#FBFEFC"/>
<path d="M164.773 78.2334L172.269 78.8919L180.948 71.2496L193.175 67.4083L198.607 89.0354L209.923 108.404L210.057 121.547L213.227 129.531L213.469 136.154L220.631 142.552L222.87 151.086L226.716 152.197L227.806 159.767L235.105 169.178L234.893 173.072L244.753 179.617L228.876 178.753L215.738 182.785L211.105 179.59L209.962 184.035L190.934 186.845L189.26 179.543L179.843 180.832L182.567 174.971L180.413 170.349L185.499 165.218L184.943 158.878L190.595 154.98L190.938 148.675L175.841 143.961L164.012 146.021L166.086 141.71L158.168 142.999L148.453 124.444L139.821 121.27L142.564 113.317L134.641 117.083L120.665 107.928L132.989 102.29L142.718 95.0652L150.464 87.4819L153.89 88.616L154.617 83.9105L164.773 78.2334Z" fill="black" stroke="#FBFEFC" stroke-width="1.2" stroke-linecap="round"/>
<path d="M160.621 96.724L179.811 94.0978C182.166 93.747 182.783 93.846 184.34 94.8357L190.764 98.7872C191.826 99.4695 192.176 99.6516 192.227 100.463L193.71 124.24C193.802 125.73 193.316 126.646 191.43 126.898L169.127 129.65C167.71 129.806 167.02 129.645 166.217 128.743L161.317 123.132C160.437 122.099 160.049 121.308 159.99 120.359L158.672 99.2239C158.596 98.0055 159.074 96.9558 160.621 96.724Z" fill="black"/>
<path fill-rule="evenodd" clip-rule="evenodd" d="M167.885 101.591C166.065 101.828 165.652 101.881 164.561 101.102L161.79 99.1669C161.505 98.9119 161.619 98.5645 162.291 98.4547L180.739 95.9447C182.287 95.7118 183.132 96.2038 183.77 96.6396L187.092 98.7445C187.232 98.8046 187.595 99.1887 187.189 99.2141L168.121 101.56L167.885 101.591ZM167.248 125.686L165.99 105.502C165.935 104.62 166.18 104.197 166.986 104.078L188.889 101.42C189.63 101.306 189.997 101.759 190.051 102.639L191.302 122.689C191.357 123.571 191.267 124.325 190.055 124.468L169.094 126.999C167.882 127.142 167.316 126.771 167.249 125.686L167.248 125.686ZM186.823 105.289C186.995 105.89 186.899 106.508 186.293 106.616L185.292 106.88L186.221 121.783C185.37 122.312 184.577 122.633 183.899 122.675C182.817 122.743 182.525 122.421 181.651 121.456L174.371 111.438L175 121.53L177.127 121.875C177.127 121.875 177.203 123.094 175.511 123.199L170.862 123.761C170.71 123.498 170.803 122.812 171.268 122.648L172.465 122.234L171.633 108.89L169.933 108.858C169.759 108.257 170.043 107.356 170.986 107.228L175.971 106.579L183.528 116.715L182.945 107.367L181.174 107.275C180.992 106.537 181.499 105.961 182.171 105.852L186.823 105.289Z" fill="#FBFEFC"/>
<path fill-rule="evenodd" clip-rule="evenodd" d="M160.621 96.726L179.811 94.0999L179.811 94.0995C180.912 93.9355 181.634 93.8698 182.249 93.9475C182.249 93.9475 182.249 93.9476 182.25 93.9477C182.95 94.0363 183.512 94.3107 184.34 94.8374L190.925 98.8912L190.93 98.8942C191.862 99.4931 192.179 99.6967 192.227 100.465L193.71 124.242C193.803 125.732 193.315 126.647 191.431 126.9L169.127 129.652C167.71 129.808 167.02 129.647 166.217 128.744L161.317 123.134C160.437 122.1 160.049 121.309 159.99 120.36L158.672 99.2256C158.596 98.0076 159.074 96.9575 160.621 96.726ZM185.636 92.7656C184.791 92.2289 183.908 91.7393 182.767 91.5538C181.706 91.3812 180.617 91.5089 179.451 91.6825L179.436 91.6847L160.275 94.307L160.259 94.3093C158.955 94.5045 157.781 95.1143 157.021 96.2269C156.306 97.2722 156.175 98.4442 156.233 99.3777L157.551 120.512C157.656 122.188 158.391 123.467 159.457 124.718L159.467 124.73L164.384 130.361L164.392 130.37C164.99 131.041 165.729 131.636 166.747 131.938C167.678 132.214 168.604 132.168 169.395 132.081L169.411 132.079L191.743 129.324L191.756 129.322C193.007 129.154 194.341 128.698 195.244 127.531C196.128 126.389 196.21 125.062 196.149 124.09L194.666 100.313C194.617 99.5277 194.386 98.704 193.715 97.9686C193.285 97.4971 192.705 97.1281 192.342 96.8967C192.308 96.8749 192.275 96.8543 192.245 96.835L192.226 96.8224L185.636 92.7656Z" fill="#FBFEFC"/>
<path d="M19.8328 26.9611L21.5301 14.5051L49.4971 16.027L89.899 24.434L123.684 27.475L149.85 32.5032L145.444 41.6775L139.388 42.5509L143.262 46.7001L136.394 62.113L135.021 70.6994L122.748 72.2907L107.388 67.4527L102.264 73.2791L88.9365 75.2579L75.756 74.5406L64.1996 77.1057L55.812 76.6493L45.7311 85.2249L31.1894 87.438L28.1511 93.5819L10.128 101.915L14.1685 62.3799L13.0083 48.9854L18.6747 41.0856L16.6563 33.0576L19.8328 26.9611Z" fill="black" stroke="#FBFEFC" stroke-width="1.2" stroke-linecap="round"/>
<g clip-path="url(#clip1_4574_462)">
<path d="M41.2123 37.9568C40.8658 40.6559 40.2402 42.6791 36.1015 42.1478C32.0527 41.628 31.677 39.5678 32.0351 36.7786L32.8782 30.2106C33.063 28.771 32.4563 28.5102 31.3766 28.3716L31.4229 28.0117L36.5513 28.6701L36.5051 29.03C35.4254 28.8914 34.7725 28.9905 34.5877 30.43L33.7445 36.9981C33.4904 38.9775 33.6862 41.0146 36.2954 41.3496C39.0846 41.7077 39.7423 40.1459 40.0427 37.8066L40.8858 31.2386C41.0706 29.799 40.4639 29.5382 39.3842 29.3996L39.4305 29.0397L43.9291 29.6172L43.8829 29.9771C42.8032 29.8385 42.1503 29.9376 41.9655 31.3772L41.1223 37.9452L41.2123 37.9568Z" fill="#FBFEFC"/>
<path d="M51.5562 43.5831C50.5203 43.816 49.4176 43.8573 47.978 43.6725C44.0192 43.1643 42.5109 39.9526 43.0538 35.7239C43.5158 32.125 45.032 29.5759 49.2607 30.1188C50.7902 30.3152 52.1052 30.7583 52.9703 31.1438L52.7575 34.2259L52.3076 34.1682C52.1763 33.0539 51.5976 31.1505 49.1683 30.8386C46.0192 30.4343 45.3219 33.7287 45.0563 35.7981C44.7329 38.3173 44.7645 42.3454 49.0832 42.8998C50.4328 43.0731 51.0973 42.884 51.6602 42.7734L51.5562 43.5831Z" fill="#FBFEFC"/>
<path d="M63.3542 35.0375C63.3129 33.9347 62.6533 32.6611 60.5839 32.3954C59.2343 32.2222 57.9607 32.8818 57.7874 34.2314C57.568 35.9409 59.8264 36.871 61.4089 38.0801C62.8229 39.1762 63.7986 40.1246 63.5561 42.014C63.2327 44.5333 60.9231 45.4257 58.224 45.0792C56.8744 44.9059 55.3795 44.4397 54.8512 44.2804L55.0293 41.4681L55.4792 41.5259C55.5205 42.6287 56.2701 43.9138 58.3395 44.1795C60.0489 44.3989 61.3572 43.4694 61.542 42.0298C61.8192 39.8705 58.661 38.8249 56.9449 37.2327C56.126 36.4874 55.8585 35.7214 56.0202 34.4618C56.512 32.0556 58.5285 31.3085 61.0477 31.6319C62.3973 31.8051 63.184 32.089 64.0606 32.3845L63.8941 35.1068L63.3542 35.0375Z" fill="#FBFEFC"/>
<path d="M71.1254 46.4633C70.9339 46.5301 70.4725 46.5624 69.8427 46.4815C68.853 46.3545 68.5624 45.7684 68.6548 45.0486C68.011 45.7891 67.2335 46.1466 65.9739 45.9848C64.8158 45.7447 64.02 44.8195 64.1586 43.7398C64.482 41.2205 67.811 41.6479 69.0937 41.6297L69.1746 40.9998C69.3363 39.7402 69.498 38.4806 68.0584 38.2958C66.9788 38.1572 66.7411 38.584 66.6718 39.1238C66.5794 39.8436 66.0164 39.9542 65.7465 39.9196C65.2966 39.8618 64.9829 39.4557 65.0407 39.0059C65.1909 37.8362 66.9696 37.5158 68.1393 37.666C70.5686 37.9778 70.7783 39.1937 70.5704 40.8132L70.016 45.1319C69.9351 45.7617 70.092 45.9648 70.6318 46.0341C70.8118 46.0572 70.9017 46.0687 71.0932 46.0019L71.0355 46.4517L71.1254 46.4633ZM69.0244 42.1695C68.2147 42.0655 65.9423 41.9567 65.7344 43.5762C65.6188 44.476 66.1678 45.1866 66.7076 45.2559C67.8773 45.4061 68.7357 44.4188 68.8858 43.2492L69.0244 42.1695Z" fill="#FBFEFC"/>
<path d="M71.5314 46.1481C72.2512 46.2405 72.9041 46.1414 73.0427 45.0617L73.6549 40.2932C73.7935 39.2135 72.9837 39.1095 72.4554 38.9503L72.4901 38.6803L75.247 38.577L74.9467 40.9163C75.2975 40.3211 76.2367 38.704 78.0362 38.935C79.9256 39.1776 79.9785 40.1904 79.7706 41.8099L79.2509 45.8587C79.1007 47.0284 79.719 47.1992 80.4387 47.2916L80.4041 47.5615L76.3553 47.0417L76.39 46.7718C77.1097 46.8642 77.7627 46.7651 77.9013 45.6855L78.3633 42.0865C78.5596 40.557 78.6405 39.9272 77.4708 39.777C76.4811 39.65 74.9674 41.4677 74.7595 43.0872L74.4823 45.2465C74.3321 46.4162 74.9504 46.587 75.6702 46.6794L75.6355 46.9493L71.5867 46.4296L71.6214 46.1596L71.5314 46.1481Z" fill="#FBFEFC"/>
<path d="M82.429 47.4557C83.5087 47.5943 84.1616 47.4952 84.3464 46.0557L85.513 36.9684C85.6978 35.5288 85.0911 35.268 84.0114 35.1294L84.0576 34.7695L88.6462 35.3586C91.8853 35.7744 95.3018 36.9447 94.551 42.7929C93.8003 48.6412 90.1205 48.809 86.9714 48.4047L82.3828 47.8156L82.429 47.4557V47.4557ZM86.1021 45.9152C85.9173 47.3548 86.0741 47.5579 87.0638 47.6849C90.4828 48.1238 92.0634 46.4976 92.5716 42.5388C93.0337 38.9399 92.2312 36.6419 88.5423 36.1684C87.5526 36.0413 87.3611 36.1082 87.1647 37.6377L86.1021 45.9152Z" fill="#FBFEFC"/>
<path d="M94.4737 49.0947C95.1935 49.1871 95.8464 49.088 95.985 48.0083L96.5972 43.2397C96.7358 42.1601 95.926 42.0561 95.3977 41.8968L95.4324 41.6269L98.1893 41.5236L97.3346 48.1816C97.1844 49.3512 97.8027 49.522 98.5225 49.6144L98.4878 49.8844L94.439 49.3646L94.4737 49.0947ZM96.7248 38.6833C96.7941 38.1435 97.3017 37.7514 97.8416 37.8207C98.3814 37.89 98.7735 38.3976 98.7042 38.9374C98.6349 39.4773 98.1273 39.8694 97.5875 39.8001C97.0476 39.7308 96.644 39.3131 96.7248 38.6833Z" fill="#FBFEFC"/>
<path d="M104.798 50.6013C104.325 50.7235 103.763 50.8341 102.683 50.6955C99.9837 50.349 98.6505 48.6231 99.0201 45.744C99.3435 43.2247 100.518 41.9122 103.037 42.2356C104.567 42.432 105.891 43.5165 105.637 45.4959L105.591 45.8558L100.552 45.209C100.367 46.6486 100.694 49.8 103.573 50.1697C103.933 50.2159 104.485 50.1952 104.868 50.0614L104.798 50.6013ZM104.142 45.0296C104.257 44.1299 104.059 42.8241 102.8 42.6624C101.45 42.4891 100.725 43.8594 100.633 44.5792L104.142 45.0296Z" fill="#FBFEFC"/>
<path d="M110.808 50.0922C111.617 50.1961 113.597 50.4502 113.343 52.4297C113.089 54.4091 110.959 55.3246 108.62 55.0243C106.91 54.8048 105.192 53.944 105.4 52.3245C105.538 51.2448 106.406 50.8989 106.98 50.6983C106.733 50.4837 106.33 50.0661 106.422 49.3463C106.503 48.7165 107.135 48.066 107.338 47.9091C107.025 47.503 106.464 46.8823 106.649 45.4428C106.938 43.1934 108.615 42.9515 110.324 43.1709C111.134 43.2749 111.561 43.5126 112.066 43.8518C112.417 43.2567 113.028 42.0548 114.108 42.1934C114.558 42.2511 114.883 42.5673 114.814 43.1071C114.756 43.557 114.44 43.8822 113.9 43.8129C113.45 43.7552 113.395 43.4737 113.125 43.439C112.765 43.3928 112.516 43.9096 112.391 44.1679C112.537 44.461 113.086 45.1716 112.935 46.3413C112.704 48.1407 111.498 48.9918 109.428 48.7262C108.709 48.6338 108.27 48.486 107.843 48.2484C107.742 48.3268 107.437 48.562 107.391 48.9219C107.299 49.6417 108.198 49.7572 108.738 49.8265L110.808 50.0922V50.0922ZM107.677 50.9706C107.282 51.1944 106.798 51.4065 106.694 52.2163C106.567 53.206 107.351 54.2212 108.881 54.4176C110.5 54.6255 112.044 54.0005 112.205 52.7409C112.321 51.8412 111.636 51.4789 110.736 51.3634L107.677 50.9706V50.9706ZM109.509 48.0964C110.949 48.2812 111.279 47.1346 111.394 46.2349C111.568 44.8853 111.245 43.8378 109.985 43.6761C108.636 43.5029 108.239 44.4579 108.1 45.5376C108.028 46.8088 108.25 47.9347 109.509 48.0964Z" fill="#FBFEFC"/>
<path d="M113.931 47.842C114.266 45.2328 115.913 43.7981 118.163 44.0868C120.412 44.3756 121.655 46.09 121.309 48.7891C120.974 51.3984 119.326 52.8331 117.077 52.5443C114.839 52.1656 113.596 50.4512 113.931 47.842ZM117.158 51.9145C118.867 52.134 119.504 50.0208 119.689 48.5812C119.874 47.1417 119.791 44.9361 118.082 44.7167C116.372 44.4972 115.735 46.6104 115.55 48.0499C115.365 49.4895 115.358 51.6835 117.158 51.9145Z" fill="#FBFEFC"/>
<path d="M104.393 53.7502L29.3555 44.1172L29.2977 44.5671L104.695 54.2463C104.628 54.0548 104.46 53.9417 104.393 53.7502Z" fill="#FBFEFC"/>
<path d="M120.228 55.7829L113.3 54.8935C113.097 55.0504 112.905 55.1172 112.702 55.2741L120.08 56.2212L120.138 55.7714L120.228 55.7829Z" fill="#FBFEFC"/>
<path d="M31.6159 50.7214L30.2663 50.5482L30.3818 49.6484L34.1607 50.1336L34.0452 51.0333L32.6956 50.86L32.1758 54.9088L31.0962 54.7702L31.6159 50.7214Z" fill="#FBFEFC"/>
<path d="M35.9607 50.365L35.7181 52.2544L37.6075 52.497L37.8501 50.6076L38.9298 50.7462L38.2945 55.6947L37.2148 55.5561L37.4805 53.4867L35.5911 53.2441L35.3254 55.3135L34.1557 55.1634L34.791 50.2148L35.9607 50.365Z" fill="#FBFEFC"/>
<path d="M42.5194 54.1314L40.72 53.9004L40.5698 55.07L42.5492 55.3241L42.4337 56.2239L39.2847 55.8196L39.9199 50.8711L42.979 51.2638L42.8635 52.1635L40.8841 51.9094L40.757 52.8991L42.5565 53.1301L42.4294 54.1198L42.5194 54.1314Z" fill="#FBFEFC"/>
<path d="M45.4865 51.6798C45.9479 51.6476 46.4877 51.7169 47.0276 51.7862C47.9273 51.9017 48.534 52.1625 49.0277 52.5917C49.5213 53.0209 49.7104 53.6854 49.5949 54.5851C49.4678 55.5748 49.0271 56.1584 48.531 56.4605C47.9334 56.8411 47.1006 56.9171 46.2008 56.8016C45.661 56.7323 45.2111 56.6745 44.9527 56.5499L45.5765 51.6914L45.4865 51.6798ZM46.1364 55.8788C46.2264 55.8903 46.4063 55.9134 46.4963 55.925C47.486 56.052 48.2751 55.6046 48.4252 54.4349C48.5523 53.4452 48.0033 52.7346 47.1036 52.6191C46.8337 52.5844 46.6537 52.5613 46.5637 52.5498L46.1364 55.8788V55.8788Z" fill="#FBFEFC"/>
<path d="M53.3163 55.5181L51.5168 55.2871L51.3667 56.4568L53.3461 56.7109L53.2306 57.6106L50.0815 57.2063L50.7168 52.2578L53.7759 52.6505L53.6604 53.5503L51.681 53.2961L51.5539 54.2859L53.3534 54.5169L53.2263 55.5066L53.3163 55.5181Z" fill="#FBFEFC"/>
<path d="M54.1894 56.5442C54.4363 56.7588 54.9645 56.9181 55.4144 56.9759C55.9542 57.0452 56.2473 56.8999 56.2935 56.54C56.3281 56.2701 56.0813 56.0555 55.5761 55.7162C54.801 55.3424 54.3189 54.8232 54.4113 54.1034C54.5153 53.2937 55.3275 52.6663 56.4971 52.8164C57.037 52.8857 57.4753 53.0335 57.7221 53.2481L57.3367 54.1131C57.1683 54.0001 56.8315 53.7739 56.2916 53.7046C55.8418 53.6469 55.5488 53.7922 55.5141 54.0621C55.4679 54.422 55.7263 54.5466 56.3214 54.8974C57.175 55.3728 57.4771 55.8688 57.3962 56.4986C57.2923 57.3084 56.5701 57.9473 55.2205 57.7741C54.6806 57.7048 54.0739 57.444 53.8156 57.3194L54.1894 56.5442Z" fill="#FBFEFC"/>
<path d="M59.8034 53.4236L59.1682 58.3721L57.9985 58.222L58.6338 53.2734L59.8034 53.4236Z" fill="#FBFEFC"/>
<path d="M64.3208 58.8503C63.9493 58.8941 63.2964 58.9932 62.6666 58.9123C61.7669 58.7968 61.1717 58.4461 60.7681 58.0284C60.376 57.5208 60.1869 56.8563 60.2793 56.1366C60.4872 54.517 61.7839 53.6775 63.4934 53.897C64.1232 53.9778 64.6515 54.1371 64.8083 54.3401L64.4229 55.2052C64.1645 55.0806 63.8162 54.9444 63.2764 54.8751C62.3766 54.7596 61.5876 55.207 61.4489 56.2867C61.3219 57.2764 61.8709 57.9871 62.7706 58.1026C63.0405 58.1372 63.2204 58.1603 63.322 58.0819L63.4606 57.0022L62.6508 56.8983L62.7663 55.9986L64.6558 56.2411L64.3208 58.8503V58.8503Z" fill="#FBFEFC"/>
<path d="M65.2876 59.1595L65.9229 54.2109L67.2724 54.3842L68.0311 56.3107C68.2318 56.8852 68.5108 57.5612 68.6214 58.1242C68.6123 57.4828 68.7047 56.763 68.7971 56.0432L68.9819 54.6037L70.0616 54.7423L69.4263 59.6908L68.2567 59.5406L67.4196 57.5126C67.219 56.9381 66.9399 56.2621 66.7393 55.6876C66.6584 56.3174 66.566 57.0372 66.4621 57.8469L66.2657 59.3765L65.276 59.2494L65.2876 59.1595Z" fill="#FBFEFC"/>
<path d="M72.6709 55.0781L73.8405 55.2283L73.3208 59.2771L75.3002 59.5312L75.1847 60.4309L72.1256 60.0382L72.7609 55.0897L72.6709 55.0781Z" fill="#FBFEFC"/>
<path d="M77.2337 59.4126L76.7121 60.626L75.5425 60.4759L77.7073 55.7237L79.1468 55.9085L80.0411 61.0534L78.8715 60.9032L78.6733 59.5974L77.2337 59.4126ZM78.5973 58.7645L78.466 57.6502C78.4106 57.3687 78.3669 56.9973 78.3231 56.6259C78.1985 56.8842 78.0623 57.2326 77.9261 57.5809L77.5176 58.6259L78.5973 58.7645Z" fill="#FBFEFC"/>
<path d="M81.386 56.2851C81.6675 56.2298 82.2973 56.3106 82.8372 56.38C83.5569 56.4724 83.9053 56.6085 84.2421 56.8347C84.5789 57.0608 84.8026 57.4554 84.7448 57.9052C84.6871 58.3551 84.371 58.6803 83.7965 58.881C84.3132 59.1302 84.7169 59.5478 84.6245 60.2676C84.5667 60.7175 84.3406 61.0543 83.946 61.278C83.5515 61.5017 82.8986 61.6008 81.9089 61.4738C81.369 61.4045 80.9192 61.3467 80.6608 61.2221L81.2961 56.2736L81.386 56.2851ZM82.2232 58.3132L82.5831 58.3594C83.2129 58.4402 83.5174 58.2049 83.5636 57.8451C83.6098 57.4852 83.363 57.2706 82.8232 57.2013C82.5533 57.1666 82.4633 57.1551 82.3733 57.1435L82.2232 58.3132ZM81.9459 60.4725C82.0359 60.4841 82.2159 60.5072 82.3958 60.5303C82.9357 60.5996 83.4086 60.4774 83.4779 59.9375C83.5472 59.3977 83.1205 59.16 82.5806 59.0907L82.2207 59.0445L82.0359 60.4841L81.9459 60.4725Z" fill="#FBFEFC"/>
</g>
</g>
<defs>
<clipPath id="clip0_4574_462">
<rect width="257.956" height="207.57" fill="white" transform="translate(0.111328 0.199219)"/>
</clipPath>
<clipPath id="clip1_4574_462">
<rect width="91.7997" height="26.94" fill="white" transform="translate(31.4463 27.8359) rotate(7.3154)"/>
</clipPath>
</defs>
</svg>
