<svg width="175" height="186" viewBox="0 0 175 186" fill="none" xmlns="http://www.w3.org/2000/svg">
<path d="M0.846102 47.1289L20.9635 39.9601L31.0222 36.3757L36.0516 34.5834L39.4412 34.7683L41.081 32.7912L81.3158 18.4536L121.096 1.00051L137.799 49.4231L143.056 61.6762L145.684 67.8028L144.265 69.498L146.998 70.8661L148.312 73.9294L173.51 138.075L163.877 141.949L159.207 141.218L159.061 143.886L154.245 145.823L134.98 153.571L71.6202 176.128L53.3059 184.038L48.8087 172.946L46.5601 167.399L48.3913 163.717L44.3115 161.853L35.3171 139.667L11.5223 73.1263L0.846102 47.1289Z" fill="black" stroke="#FBFEFC" stroke-width="1.2"/>
<g clip-path="url(#clip0_4917_2203)">
<rect x="10.3398" y="50.6016" width="113.64" height="113.64" transform="rotate(-20.9257 10.3398 50.6016)" fill="black"/>
<rect x="10.3408" y="50.6021" width="113.64" height="113.64" transform="rotate(-20.9257 10.3408 50.6021)" fill="black"/>
<path d="M77.4598 105.507C69.4363 101.588 56.3624 96.7715 47.3654 93.9407C46.1072 93.5449 46.1444 91.4182 47.3521 90.888C52.2441 88.7408 55.5691 84.7849 53.7253 77.9096C53.3975 76.6875 54.9085 75.3484 56.0823 75.8206C62.686 78.4771 67.0119 75.6522 69.7309 71.054C70.4022 69.9187 72.518 70.1373 72.7598 71.4339C74.4893 80.7058 77.7004 94.2636 80.6268 102.7C81.0801 104.006 78.7026 106.114 77.4598 105.507Z" fill="#FBFEFC"/>
<path d="M122.919 135.11C117.531 127.99 108.042 117.788 101.294 111.198C100.35 110.277 101.344 108.396 102.661 108.469C107.995 108.763 112.749 106.735 114.209 99.7683C114.469 98.53 116.422 98.0177 117.256 98.9692C121.947 104.322 127.083 103.756 131.586 100.882C132.698 100.172 134.486 101.323 134.116 102.589C131.471 111.642 128.212 125.188 127.013 134.037C126.827 135.407 123.754 136.213 122.919 135.11Z" fill="#FBFEFC"/>
<path d="M87.3734 65.857C84.5947 57.371 78.9416 44.6365 74.7042 36.2101C74.1116 35.0318 75.6632 33.5767 76.8849 34.0738C81.8334 36.0872 86.9878 35.7165 90.6354 29.6039C91.2837 28.5174 93.2971 28.6683 93.7761 29.8394C96.471 36.4274 101.511 37.5626 106.704 36.3097C107.986 36.0004 109.304 37.6705 108.542 38.7473C103.095 46.4475 95.6066 58.1967 91.5935 66.1734C90.9718 67.4089 87.8039 67.1714 87.3734 65.857Z" fill="#FBFEFC"/>
</g>
<rect x="10.3398" y="50.6016" width="113.64" height="113.64" transform="rotate(-20.9257 10.3398 50.6016)" stroke="#FBFEFC" stroke-width="1.2"/>
<defs>
<clipPath id="clip0_4917_2203">
<rect x="10.3398" y="50.6016" width="113.64" height="113.64" transform="rotate(-20.9257 10.3398 50.6016)" fill="white"/>
</clipPath>
</defs>
</svg>
