<svg width="132" height="150" viewBox="0 0 132 150" fill="none" xmlns="http://www.w3.org/2000/svg">
<path d="M1.91167 1.42706L23.2626 1.91614L33.9381 2.16068L39.2759 2.28295L42.3759 3.66625L44.6136 2.40522L87.3155 3.38337L130.705 1.28906L129.012 52.4836L129.546 65.8061L129.813 72.4673L127.882 73.5437L129.946 75.7979L130.08 79.1285L130.705 148.043L120.324 148.221L116.223 145.87L115.134 148.31L109.943 148.399L89.1817 148.756L21.9449 147.195L2.01325 148.043L1.77458 136.076L1.65524 130.092L4.68087 127.306L1.53591 124.108L1.05857 100.173L2.59859 29.5228L1.91167 1.42706Z" fill="black" stroke="#FBFEFC" stroke-width="1.2"/>
<g clip-path="url(#clip0_4574_509)">
<rect x="9.53906" y="8.0625" width="113.64" height="113.64" fill="black"/>
<rect x="9.54004" y="8.0625" width="113.64" height="113.64" fill="black"/>
<path d="M52.6224 83.3191C46.5276 76.7933 36.0363 67.6249 28.6437 61.7676C27.6099 60.9485 28.4042 58.9753 29.7216 58.9115C35.0579 58.6531 39.5765 56.1456 40.3098 49.0653C40.4401 47.8068 42.3297 47.0956 43.2575 47.9559C48.4768 52.7958 53.5263 51.7022 57.7083 48.3784C58.7408 47.5577 60.6389 48.5175 60.4017 49.815C58.7056 59.093 56.8627 72.9035 56.583 81.8285C56.5397 83.2109 53.5664 84.3299 52.6224 83.3191Z" fill="#FBFEFC"/>
<path d="M84.5105 127.204C82.0206 118.629 76.8018 105.711 72.8521 97.1457C72.2997 95.948 73.8996 94.5463 75.1038 95.0844C79.9814 97.2642 85.1454 97.0682 88.9978 91.0825C89.6825 90.0186 91.6896 90.2376 92.1287 91.4242C94.5991 98.0997 99.5981 99.4049 104.83 98.3285C106.122 98.0627 107.382 99.7764 106.585 100.827C100.881 108.338 92.9982 119.827 88.7174 127.663C88.0543 128.877 84.8962 128.533 84.5105 127.204Z" fill="#FBFEFC"/>
<path d="M76.0435 49.8241C76.4789 40.9054 75.7469 26.9917 74.7985 17.6077C74.6659 16.2954 76.6347 15.4905 77.5983 16.3911C81.5014 20.0392 86.4482 21.5338 92.0384 17.1271C93.032 16.3438 94.8587 17.2039 94.8879 18.4688C95.0521 25.5849 99.3545 28.4454 104.652 29.1298C105.961 29.2988 106.594 31.3292 105.498 32.0629C97.6609 37.31 86.4696 45.6096 79.8722 51.6268C78.8503 52.5589 75.9761 51.2056 76.0435 49.8241Z" fill="#FBFEFC"/>
</g>
<rect x="9.53906" y="8.0625" width="113.64" height="113.64" stroke="#FBFEFC" stroke-width="1.2"/>
<defs>
<clipPath id="clip0_4574_509">
<rect x="9.53906" y="8.0625" width="113.64" height="113.64" fill="white"/>
</clipPath>
</defs>
</svg>
