<svg width="176" height="187" viewBox="0 0 176 187" fill="none" xmlns="http://www.w3.org/2000/svg">
<path d="M1.8461 48.1279L21.9635 40.9591L32.0222 37.3747L37.0516 35.5825L40.4412 35.7673L42.081 33.7903L82.3158 19.4526L122.096 1.99953L138.799 50.4221L144.056 62.6753L146.684 68.8018L145.265 70.497L147.998 71.8651L149.312 74.9284L174.51 139.074L164.877 142.948L160.207 142.217L160.061 144.885L155.245 146.822L135.98 154.571L72.6202 177.127L54.3059 185.037L49.8087 173.945L47.5601 168.398L49.3913 164.716L45.3115 162.852L36.3171 140.666L12.5223 74.1253L1.8461 48.1279Z" fill="black" stroke="#FBFEFC" stroke-width="2"/>
<g clip-path="url(#clip0_6317_8454)">
<rect x="11.3398" y="51.6006" width="113.64" height="113.64" transform="rotate(-20.9257 11.3398 51.6006)" fill="black"/>
<rect x="11.3408" y="51.6016" width="113.64" height="113.64" transform="rotate(-20.9257 11.3408 51.6016)" fill="black"/>
<path d="M78.4598 106.506C70.4363 102.587 57.3624 97.7705 48.3654 94.9398C47.1072 94.5439 47.1444 92.4172 48.3521 91.8871C53.2441 89.7398 56.5691 85.7839 54.7253 78.9086C54.3975 77.6866 55.9085 76.3474 57.0823 76.8196C63.686 79.4762 68.0119 76.6512 70.7309 72.053C71.4022 70.9177 73.518 71.1363 73.7598 72.4329C75.4893 81.7048 78.7004 95.2626 81.6268 103.699C82.0801 105.006 79.7026 107.113 78.4598 106.506Z" fill="#FBFEFC"/>
<path d="M123.919 136.109C118.531 128.989 109.042 118.786 102.294 112.197C101.35 111.275 102.344 109.395 103.661 109.467C108.995 109.761 113.749 107.734 115.209 100.767C115.469 99.5285 117.422 99.0163 118.256 99.9678C122.947 105.321 128.083 104.754 132.586 101.88C133.698 101.17 135.486 102.321 135.116 103.587C132.471 112.64 129.212 126.187 128.013 135.035C127.827 136.406 124.754 137.212 123.919 136.109Z" fill="#FBFEFC"/>
<path d="M88.3734 66.8555C85.5947 58.3696 79.9416 45.635 75.7042 37.2086C75.1116 36.0303 76.6632 34.5753 77.8849 35.0723C82.8334 37.0858 87.9878 36.715 91.6354 30.6024C92.2837 29.5159 94.2971 29.6669 94.7761 30.8379C97.471 37.426 102.511 38.5612 107.704 37.3083C108.986 36.9989 110.304 38.669 109.542 39.7458C104.095 47.446 96.6066 59.1952 92.5935 67.1719C91.9718 68.4075 88.8039 68.1699 88.3734 66.8555Z" fill="#FBFEFC"/>
</g>
<rect x="11.3398" y="51.6006" width="113.64" height="113.64" transform="rotate(-20.9257 11.3398 51.6006)" stroke="#FBFEFC" stroke-width="2"/>
<defs>
<clipPath id="clip0_6317_8454">
<rect x="11.3398" y="51.6006" width="113.64" height="113.64" transform="rotate(-20.9257 11.3398 51.6006)" fill="white"/>
</clipPath>
</defs>
</svg>
