<svg width="744" height="174" viewBox="0 0 744 174" fill="none" xmlns="http://www.w3.org/2000/svg">
<path d="M1 173V1H743V173H1Z" fill="black" stroke="#FBFEFC" stroke-width="2"/>
<path fill-rule="evenodd" clip-rule="evenodd" d="M371.998 127.998C377.521 127.998 381.998 123.521 381.998 117.998C381.998 112.475 377.521 107.998 371.998 107.998C366.475 107.998 361.998 112.475 361.998 117.998C361.998 123.521 366.475 127.998 371.998 127.998ZM371.998 124.665C375.68 124.665 378.664 121.681 378.664 117.999C378.664 114.317 375.68 111.332 371.998 111.332C368.316 111.332 365.331 114.317 365.331 117.999C365.331 121.681 368.316 124.665 371.998 124.665Z" fill="#FBFEFC"/>
<path fill-rule="evenodd" clip-rule="evenodd" d="M372 146C387.464 146 400 133.464 400 118C400 102.536 387.464 90 372 90C356.536 90 344 102.536 344 118C344 133.464 356.536 146 372 146ZM372 128C377.523 128 382 123.523 382 118C382 112.477 377.523 108 372 108C366.477 108 362 112.477 362 118C362 123.523 366.477 128 372 128Z" fill="#FBFEFC"/>
<path d="M399 118C399 132.912 386.912 145 372 145V147C388.016 147 401 134.016 401 118H399ZM372 91C386.912 91 399 103.088 399 118H401C401 101.984 388.016 89 372 89V91ZM345 118C345 103.088 357.088 91 372 91V89C355.984 89 343 101.984 343 118H345ZM372 145C357.088 145 345 132.912 345 118H343C343 134.016 355.984 147 372 147V145ZM381 118C381 122.971 376.971 127 372 127V129C378.075 129 383 124.075 383 118H381ZM372 109C376.971 109 381 113.029 381 118H383C383 111.925 378.075 107 372 107V109ZM363 118C363 113.029 367.029 109 372 109V107C365.925 107 361 111.925 361 118H363ZM372 127C367.029 127 363 122.971 363 118H361C361 124.075 365.925 129 372 129V127Z" fill="black"/>
</svg>
