<svg width="754" height="365" viewBox="0 0 754 365" fill="none" xmlns="http://www.w3.org/2000/svg">
<path d="M1 357.5V1H753V357.5H748V363.5H6V357.5H1Z" fill="black" stroke="#FBFEFC" stroke-width="2"/>
<path fill-rule="evenodd" clip-rule="evenodd" d="M377 67.5C382.523 67.5 387 63.0228 387 57.5C387 51.9772 382.523 47.5 377 47.5C371.477 47.5 367 51.9772 367 57.5C367 63.0228 371.477 67.5 377 67.5ZM377 64.1673C380.682 64.1673 383.666 61.1825 383.666 57.5007C383.666 53.8188 380.682 50.834 377 50.834C373.318 50.834 370.333 53.8188 370.333 57.5007C370.333 61.1825 373.318 64.1673 377 64.1673Z" fill="#FBFEFC"/>
<path fill-rule="evenodd" clip-rule="evenodd" d="M377 85.5C392.464 85.5 405 72.964 405 57.5C405 42.036 392.464 29.5 377 29.5C361.536 29.5 349 42.036 349 57.5C349 72.964 361.536 85.5 377 85.5ZM376.999 67.5C382.522 67.5 386.999 63.0228 386.999 57.5C386.999 51.9772 382.522 47.5 376.999 47.5C371.476 47.5 366.999 51.9772 366.999 57.5C366.999 63.0228 371.476 67.5 376.999 67.5Z" fill="#FBFEFC"/>
<path d="M404 57.5C404 72.4117 391.912 84.5 377 84.5V86.5C393.016 86.5 406 73.5163 406 57.5H404ZM377 30.5C391.912 30.5 404 42.5883 404 57.5H406C406 41.4837 393.016 28.5 377 28.5V30.5ZM350 57.5C350 42.5883 362.088 30.5 377 30.5V28.5C360.984 28.5 348 41.4837 348 57.5H350ZM377 84.5C362.088 84.5 350 72.4117 350 57.5H348C348 73.5163 360.984 86.5 377 86.5V84.5ZM385.999 57.5C385.999 62.4706 381.97 66.5 376.999 66.5V68.5C383.074 68.5 387.999 63.5751 387.999 57.5H385.999ZM376.999 48.5C381.97 48.5 385.999 52.5294 385.999 57.5H387.999C387.999 51.4249 383.074 46.5 376.999 46.5V48.5ZM367.999 57.5C367.999 52.5294 372.028 48.5 376.999 48.5V46.5C370.924 46.5 365.999 51.4249 365.999 57.5H367.999ZM376.999 66.5C372.028 66.5 367.999 62.4706 367.999 57.5H365.999C365.999 63.5751 370.924 68.5 376.999 68.5V66.5Z" fill="black"/>
<path d="M707.676 292.106C707.676 293.714 707.561 295.293 707.332 296.843C707.16 298.393 706.815 299.886 706.298 301.321C705.724 302.756 705.007 304.106 704.145 305.369C703.227 306.574 702.107 307.579 700.787 308.383C699.466 309.129 698.031 309.617 696.481 309.847C694.931 310.077 693.352 310.048 691.744 309.761L690.883 309.589V300.374L691.313 300.46C692.577 300.689 693.811 300.632 695.017 300.288C696.165 299.886 697.112 299.225 697.859 298.307C698.548 297.388 699.036 296.326 699.323 295.12C699.61 293.915 699.753 292.68 699.753 291.417C699.753 290.154 699.61 288.92 699.323 287.714C699.036 286.451 698.548 285.274 697.859 284.183C697.112 283.092 696.165 282.202 695.017 281.513C693.868 280.767 692.691 280.279 691.486 280.049C689.936 279.82 688.443 279.963 687.007 280.48C685.572 280.997 684.338 281.772 683.304 282.805C682.271 283.839 681.438 285.016 680.807 286.336C680.118 287.657 679.458 288.977 678.826 290.298C678.194 291.561 677.506 292.824 676.759 294.087C675.955 295.35 675.065 296.498 674.089 297.532C673.056 298.565 671.936 299.512 670.731 300.374C669.525 301.177 668.262 301.838 666.941 302.354C665.564 302.871 664.099 303.216 662.549 303.388C660.999 303.56 659.449 303.531 657.899 303.302C656.463 303.072 655.028 302.642 653.593 302.01C652.157 301.378 650.837 300.546 649.631 299.512C648.426 298.479 647.392 297.302 646.531 295.982C645.612 294.604 644.895 293.197 644.378 291.762C643.861 290.269 643.517 288.805 643.344 287.37C643.115 285.877 643 284.384 643 282.891C643 281.284 643.115 279.705 643.344 278.155C643.517 276.604 643.89 275.169 644.464 273.849C644.981 272.471 645.727 271.208 646.703 270.059C647.622 268.854 648.741 267.906 650.062 267.217C651.325 266.528 652.732 266.069 654.282 265.839C655.832 265.61 657.382 265.639 658.932 265.926L659.793 266.098V275.313L659.363 275.227C658.1 274.997 656.923 275.054 655.832 275.399C654.684 275.686 653.736 276.26 652.99 277.121C652.186 277.925 651.641 278.901 651.354 280.049C651.067 281.198 650.923 282.375 650.923 283.58C650.923 284.786 651.095 285.992 651.44 287.197C651.727 288.346 652.244 289.436 652.99 290.47C653.736 291.503 654.655 292.336 655.746 292.967C656.837 293.599 657.985 294.001 659.191 294.173C660.741 294.46 662.234 294.345 663.669 293.829C665.104 293.312 666.339 292.565 667.372 291.589C668.348 290.556 669.181 289.379 669.87 288.058C670.501 286.738 671.161 285.417 671.85 284.097C672.482 282.776 673.199 281.485 674.003 280.222C674.75 278.958 675.64 277.81 676.673 276.777C677.649 275.743 678.74 274.825 679.946 274.021C681.094 273.16 682.357 272.471 683.735 271.954C685.113 271.437 686.577 271.093 688.127 270.921C689.62 270.691 691.141 270.72 692.691 271.007C694.242 271.236 695.734 271.696 697.17 272.385C698.605 273.074 699.925 273.963 701.131 275.054C702.337 276.145 703.399 277.38 704.318 278.757C705.179 280.135 705.868 281.571 706.384 283.063C706.844 284.499 707.16 285.992 707.332 287.542C707.561 289.092 707.676 290.613 707.676 292.106Z" fill="#FBFEFC"/>
<path d="M707.676 243.568C707.676 245.233 707.475 246.841 707.073 248.391C706.672 249.941 706.011 251.347 705.093 252.611C704.174 253.816 703.026 254.821 701.648 255.625C700.27 256.371 698.806 256.917 697.256 257.261C695.648 257.548 694.041 257.663 692.433 257.606C690.768 257.548 689.103 257.376 687.438 257.089L670.128 254.161V262.428H662.205V252.869L643.689 249.855V240.64L662.205 243.654V227.808H670.128V244.946L688.73 248.046C689.534 248.218 690.337 248.333 691.141 248.391C691.945 248.391 692.749 248.362 693.553 248.305C694.356 248.247 695.131 248.104 695.878 247.874C696.624 247.644 697.313 247.329 697.945 246.927C698.519 246.467 698.978 245.864 699.323 245.118C699.61 244.372 699.753 243.597 699.753 242.793C699.753 242.104 699.61 241.415 699.323 240.726C699.036 239.98 698.634 239.319 698.117 238.745C697.6 238.171 697.026 237.654 696.395 237.195C695.706 236.736 695.017 236.334 694.328 235.989C693.639 235.645 692.95 235.358 692.261 235.128C691.572 234.841 690.854 234.611 690.108 234.439L692.605 226.172C693.868 226.459 695.131 226.918 696.395 227.55C697.658 228.124 698.863 228.813 700.012 229.616C701.16 230.363 702.251 231.253 703.284 232.286C704.26 233.32 705.093 234.468 705.782 235.731C706.471 236.937 706.959 238.228 707.246 239.606C707.533 240.927 707.676 242.247 707.676 243.568Z" fill="#FBFEFC"/>
<path d="M706.987 222.933L662.205 215.526V206.225L670.128 207.517C668.865 206.828 667.688 205.996 666.597 205.02C665.506 204.044 664.559 202.953 663.755 201.747C662.951 200.541 662.377 199.278 662.033 197.958C661.688 196.58 661.516 195.231 661.516 193.91C661.516 192.647 661.688 191.47 662.033 190.379C662.377 189.231 662.951 188.255 663.755 187.451C664.501 186.647 665.42 186.016 666.511 185.557C667.544 185.097 668.664 184.81 669.87 184.695C671.018 184.58 672.195 184.58 673.4 184.695C674.606 184.753 675.841 184.896 677.104 185.126V194.427C676.529 194.312 675.955 194.226 675.381 194.169C674.807 194.111 674.262 194.111 673.745 194.169C673.171 194.226 672.625 194.312 672.109 194.427C671.592 194.542 671.133 194.771 670.731 195.116C670.271 195.403 669.956 195.805 669.783 196.322C669.554 196.781 669.439 197.298 669.439 197.872C669.439 198.848 669.582 199.852 669.87 200.886C670.099 201.862 670.501 202.781 671.075 203.642C671.649 204.503 672.338 205.278 673.142 205.967C673.946 206.656 674.807 207.23 675.726 207.689C676.587 208.149 677.506 208.522 678.482 208.809C679.458 209.039 680.405 209.24 681.324 209.412L706.987 213.632V222.933Z" fill="#FBFEFC"/>
<path d="M707.676 123.833C707.676 125.498 707.447 127.105 706.987 128.655C706.585 130.205 705.896 131.583 704.92 132.789C703.944 133.937 702.767 134.885 701.39 135.631C699.954 136.32 698.461 136.808 696.911 137.095C695.304 137.382 693.667 137.497 692.002 137.44C690.337 137.382 688.672 137.21 687.007 136.923L678.395 135.459C677.017 135.229 675.64 134.913 674.262 134.511C672.884 134.11 671.535 133.564 670.214 132.875C668.893 132.186 667.688 131.325 666.597 130.292C665.449 129.258 664.473 128.11 663.669 126.847C662.865 125.584 662.32 124.234 662.033 122.799C661.688 121.364 661.516 119.957 661.516 118.579C661.516 117.029 661.717 115.508 662.119 114.015C662.463 112.522 663.066 111.202 663.927 110.053C664.788 108.905 665.851 107.958 667.114 107.211C668.377 106.408 669.726 105.833 671.161 105.489L643.689 101.011V91.7097L706.987 102.13V111.431L700.356 110.398C701.504 111.144 702.567 112.005 703.543 112.981C704.519 113.957 705.322 115.048 705.954 116.254C706.585 117.46 707.016 118.723 707.246 120.043C707.533 121.306 707.676 122.569 707.676 123.833ZM699.753 120.043C699.753 118.78 699.581 117.488 699.237 116.168C698.892 114.847 698.289 113.642 697.428 112.551C696.567 111.46 695.533 110.599 694.328 109.967C693.065 109.336 691.801 108.934 690.538 108.761L681.926 107.297C680.95 107.125 679.974 107.039 678.998 107.039C677.965 106.982 676.989 107.039 676.07 107.211C675.152 107.326 674.262 107.585 673.4 107.986C672.539 108.331 671.822 108.876 671.247 109.623C670.616 110.312 670.157 111.115 669.87 112.034C669.582 112.895 669.439 113.843 669.439 114.876C669.439 116.197 669.669 117.574 670.128 119.01C670.53 120.388 671.219 121.622 672.195 122.713C673.171 123.746 674.348 124.579 675.726 125.21C677.046 125.785 678.367 126.186 679.687 126.416L688.299 127.794C689.218 127.966 690.165 128.081 691.141 128.139C692.06 128.139 692.978 128.052 693.897 127.88C694.758 127.708 695.591 127.392 696.395 126.933C697.141 126.474 697.772 125.899 698.289 125.21C698.806 124.521 699.179 123.746 699.409 122.885C699.638 121.967 699.753 121.019 699.753 120.043Z" fill="#FBFEFC"/>
<path d="M707.676 76.1555C707.676 77.9928 707.504 79.8013 707.16 81.5811C706.873 83.3035 706.298 84.9111 705.437 86.4039C704.576 87.8966 703.485 89.1884 702.165 90.2793C700.844 91.3127 699.351 92.1165 697.686 92.6906C696.021 93.2074 694.299 93.4657 692.519 93.4657C690.682 93.4657 688.845 93.3222 687.007 93.0351L678.395 91.5711C676.845 91.3414 675.295 90.9395 673.745 90.3654C672.195 89.7912 670.731 89.0162 669.353 88.0401C667.975 87.0067 666.769 85.8297 665.736 84.5092C664.702 83.1313 663.87 81.6673 663.238 80.1171C662.549 78.5669 662.09 76.988 661.86 75.3805C661.631 73.7729 661.516 72.194 661.516 70.6439C661.516 68.8066 661.688 66.9981 662.033 65.2183C662.32 63.4384 662.894 61.8022 663.755 60.3094C664.559 58.7592 665.65 57.4388 667.028 56.3479C668.348 55.257 669.841 54.4532 671.506 53.9365C673.113 53.3624 674.836 53.0753 676.673 53.0753C678.51 53.0179 680.347 53.1614 682.185 53.5059L688.558 54.5394V83.9925C689.993 84.2221 691.428 84.2509 692.864 84.0786C694.299 83.9064 695.562 83.4471 696.653 82.7007C697.686 81.8969 698.461 80.8634 698.978 79.6004C699.495 78.2798 699.753 76.9019 699.753 75.4666C699.753 74.4331 699.696 73.3997 699.581 72.3662C699.409 71.2754 699.093 70.2133 698.634 69.1798C698.174 68.1464 697.543 67.2278 696.739 66.424C695.935 65.5628 694.988 65.0173 693.897 64.7877V55.5728C695.332 55.8599 696.739 56.3766 698.117 57.123C699.437 57.8119 700.672 58.7018 701.82 59.7927C702.911 60.8261 703.858 62.0318 704.662 63.4097C705.408 64.7303 706.011 66.1082 706.471 67.5435C706.93 68.9789 707.246 70.4142 707.418 71.8495C707.59 73.2849 707.676 74.7202 707.676 76.1555ZM680.635 62.5485C679.199 62.2615 677.793 62.2041 676.415 62.3763C675.037 62.5485 673.802 62.9792 672.711 63.6681C671.621 64.3571 670.817 65.3331 670.3 66.5962C669.726 67.8593 669.439 69.2085 669.439 70.6439C669.439 71.5625 669.525 72.4811 669.697 73.3997C669.87 74.3183 670.157 75.2369 670.558 76.1555C670.96 77.0168 671.506 77.8205 672.195 78.5669C672.826 79.3133 673.573 79.9735 674.434 80.5477C675.238 81.1218 676.099 81.5524 677.017 81.8395C677.879 82.1265 678.769 82.3562 679.687 82.5284L680.635 82.7007V62.5485Z" fill="#FBFEFC"/>
<path d="M707.676 37.9518C707.676 38.7556 707.59 39.5881 707.418 40.4493C707.246 41.2531 706.959 41.9995 706.557 42.6884C706.097 43.3199 705.552 43.8654 704.92 44.3247C704.289 44.784 703.6 45.1572 702.854 45.4442C702.05 45.6739 701.217 45.8174 700.356 45.8749C699.495 45.8749 698.662 45.8174 697.859 45.7026C696.997 45.5304 696.165 45.2146 695.361 44.7553C694.5 44.296 693.811 43.6931 693.294 42.9468C692.72 42.2004 692.347 41.3966 692.175 40.5354C691.945 39.6742 691.83 38.7843 691.83 37.8657C691.83 37.0619 691.916 36.2581 692.089 35.4543C692.261 34.5931 692.577 33.8467 693.036 33.2151C693.438 32.5262 693.954 31.9521 694.586 31.4928C695.218 30.9761 695.935 30.6029 696.739 30.3732C697.485 30.1436 698.289 30.0287 699.15 30.0287C700.012 29.9713 700.844 30 701.648 30.1149C702.509 30.2871 703.37 30.6029 704.231 31.0622C705.035 31.4641 705.724 32.0382 706.298 32.7846C706.815 33.531 707.16 34.3634 707.332 35.2821C707.561 36.1433 707.676 37.0332 707.676 37.9518Z" fill="#FBFEFC"/>
<path d="M658.545 158.749C658.545 159.725 658.372 160.701 658.028 161.677C657.626 162.653 657.052 163.428 656.306 164.002C655.502 164.519 654.612 164.863 653.636 165.036C652.602 165.208 651.569 165.208 650.536 165.036C649.789 164.921 649.1 164.691 648.469 164.347C647.78 163.945 647.234 163.457 646.832 162.883C646.373 162.251 646.057 161.591 645.885 160.902C645.713 160.156 645.627 159.409 645.627 158.663C645.627 157.687 645.828 156.711 646.23 155.735C646.574 154.759 647.148 154.012 647.952 153.496C648.698 152.921 649.588 152.548 650.622 152.376C651.598 152.146 652.602 152.118 653.636 152.29C654.382 152.462 655.1 152.72 655.789 153.065C656.42 153.409 656.966 153.897 657.425 154.529C657.827 155.161 658.114 155.85 658.286 156.596C658.459 157.285 658.545 158.003 658.545 158.749Z" fill="#FBFEFC"/>
<path d="M664.013 155.003L678.568 157.156V160.041C678.568 164.691 679.486 168.107 681.324 170.289C683.161 172.528 685.744 173.648 689.074 173.648C692.29 173.648 694.787 172.614 696.567 170.547C698.347 168.538 699.237 165.868 699.237 162.538C699.237 160.242 698.835 158.261 698.031 156.596C697.227 154.988 696.108 153.754 694.672 152.893C693.294 152.032 691.715 151.601 689.936 151.601V142.042C691.658 141.984 693.38 142.214 695.103 142.731C696.825 143.305 698.462 144.137 700.012 145.228C701.562 146.376 702.911 147.783 704.059 149.448C705.208 151.113 706.098 153.065 706.729 155.304C707.418 157.543 707.763 160.069 707.763 162.883C707.763 166.27 707.303 169.227 706.385 171.753C705.466 174.337 704.174 176.49 702.509 178.212C700.844 179.934 698.892 181.226 696.653 182.088C694.414 183.006 691.945 183.465 689.247 183.465C685.63 183.465 682.529 182.662 679.946 181.054C677.419 179.446 675.467 177.293 674.089 174.595C672.712 171.897 671.879 168.882 671.592 165.552L664.013 164.476L664.013 155.003Z" fill="#FBFEFC"/>
</svg>
