<svg width="754" height="365" viewBox="0 0 754 365" fill="none" xmlns="http://www.w3.org/2000/svg">
<path d="M1 357.5V1H753V357.5H748V363.5H6V357.5H1Z" fill="black" stroke="#FBFEFC" stroke-width="2"/>
<path fill-rule="evenodd" clip-rule="evenodd" d="M377 67.5C382.523 67.5 387 63.0228 387 57.5C387 51.9772 382.523 47.5 377 47.5C371.477 47.5 367 51.9772 367 57.5C367 63.0228 371.477 67.5 377 67.5ZM377 64.1673C380.682 64.1673 383.666 61.1825 383.666 57.5007C383.666 53.8188 380.682 50.834 377 50.834C373.318 50.834 370.333 53.8188 370.333 57.5007C370.333 61.1825 373.318 64.1673 377 64.1673Z" fill="#FBFEFC"/>
<path fill-rule="evenodd" clip-rule="evenodd" d="M377 85.5C392.464 85.5 405 72.964 405 57.5C405 42.036 392.464 29.5 377 29.5C361.536 29.5 349 42.036 349 57.5C349 72.964 361.536 85.5 377 85.5ZM376.999 67.5C382.522 67.5 386.999 63.0228 386.999 57.5C386.999 51.9772 382.522 47.5 376.999 47.5C371.476 47.5 366.999 51.9772 366.999 57.5C366.999 63.0228 371.476 67.5 376.999 67.5Z" fill="#FBFEFC"/>
<path d="M404 57.5C404 72.4117 391.912 84.5 377 84.5V86.5C393.016 86.5 406 73.5163 406 57.5H404ZM377 30.5C391.912 30.5 404 42.5883 404 57.5H406C406 41.4837 393.016 28.5 377 28.5V30.5ZM350 57.5C350 42.5883 362.088 30.5 377 30.5V28.5C360.984 28.5 348 41.4837 348 57.5H350ZM377 84.5C362.088 84.5 350 72.4117 350 57.5H348C348 73.5163 360.984 86.5 377 86.5V84.5ZM385.999 57.5C385.999 62.4706 381.97 66.5 376.999 66.5V68.5C383.074 68.5 387.999 63.5751 387.999 57.5H385.999ZM376.999 48.5C381.97 48.5 385.999 52.5294 385.999 57.5H387.999C387.999 51.4249 383.074 46.5 376.999 46.5V48.5ZM367.999 57.5C367.999 52.5294 372.028 48.5 376.999 48.5V46.5C370.924 46.5 365.999 51.4249 365.999 57.5H367.999ZM376.999 66.5C372.028 66.5 367.999 62.4706 367.999 57.5H365.999C365.999 63.5751 370.924 68.5 376.999 68.5V66.5Z" fill="black"/>
<path d="M707.688 306.414C707.688 308.019 707.573 309.596 707.344 311.144C707.172 312.692 706.828 314.183 706.312 315.616C705.739 317.049 705.022 318.397 704.162 319.658C703.245 320.862 702.127 321.865 700.808 322.668C699.489 323.413 698.056 323.901 696.508 324.13C694.96 324.359 693.383 324.331 691.778 324.044L690.918 323.872V314.67L691.348 314.756C692.609 314.985 693.842 314.928 695.046 314.584C696.193 314.183 697.139 313.523 697.884 312.606C698.572 311.689 699.059 310.628 699.346 309.424C699.633 308.22 699.776 306.987 699.776 305.726C699.776 304.465 699.633 303.232 699.346 302.028C699.059 300.767 698.572 299.591 697.884 298.502C697.139 297.413 696.193 296.524 695.046 295.836C693.899 295.091 692.724 294.603 691.52 294.374C689.972 294.145 688.481 294.288 687.048 294.804C685.615 295.32 684.382 296.094 683.35 297.126C682.318 298.158 681.487 299.333 680.856 300.652C680.168 301.971 679.509 303.289 678.878 304.608C678.247 305.869 677.559 307.131 676.814 308.392C676.011 309.653 675.123 310.8 674.148 311.832C673.116 312.864 671.998 313.81 670.794 314.67C669.59 315.473 668.329 316.132 667.01 316.648C665.634 317.164 664.172 317.508 662.624 317.68C661.076 317.852 659.528 317.823 657.98 317.594C656.547 317.365 655.113 316.935 653.68 316.304C652.247 315.673 650.928 314.842 649.724 313.81C648.52 312.778 647.488 311.603 646.628 310.284C645.711 308.908 644.994 307.503 644.478 306.07C643.962 304.579 643.618 303.117 643.446 301.684C643.217 300.193 643.102 298.703 643.102 297.212C643.102 295.607 643.217 294.03 643.446 292.482C643.618 290.934 643.991 289.501 644.564 288.182C645.08 286.806 645.825 285.545 646.8 284.398C647.717 283.194 648.835 282.248 650.154 281.56C651.415 280.872 652.82 280.413 654.368 280.184C655.916 279.955 657.464 279.983 659.012 280.27L659.872 280.442V289.644L659.442 289.558C658.181 289.329 657.005 289.386 655.916 289.73C654.769 290.017 653.823 290.59 653.078 291.45C652.275 292.253 651.731 293.227 651.444 294.374C651.157 295.521 651.014 296.696 651.014 297.9C651.014 299.104 651.186 300.308 651.53 301.512C651.817 302.659 652.333 303.748 653.078 304.78C653.823 305.812 654.741 306.643 655.83 307.274C656.919 307.905 658.066 308.306 659.27 308.478C660.818 308.765 662.309 308.65 663.742 308.134C665.175 307.618 666.408 306.873 667.44 305.898C668.415 304.866 669.246 303.691 669.934 302.372C670.565 301.053 671.224 299.735 671.912 298.416C672.543 297.097 673.259 295.807 674.062 294.546C674.807 293.285 675.696 292.138 676.728 291.106C677.703 290.074 678.792 289.157 679.996 288.354C681.143 287.494 682.404 286.806 683.78 286.29C685.156 285.774 686.618 285.43 688.166 285.258C689.657 285.029 691.176 285.057 692.724 285.344C694.272 285.573 695.763 286.032 697.196 286.72C698.629 287.408 699.948 288.297 701.152 289.386C702.356 290.475 703.417 291.708 704.334 293.084C705.194 294.46 705.882 295.893 706.398 297.384C706.857 298.817 707.172 300.308 707.344 301.856C707.573 303.404 707.688 304.923 707.688 306.414ZM707.688 257.944C707.688 259.606 707.487 261.212 707.086 262.76C706.685 264.308 706.025 265.712 705.108 266.974C704.191 268.178 703.044 269.181 701.668 269.984C700.292 270.729 698.83 271.274 697.282 271.618C695.677 271.904 694.071 272.019 692.466 271.962C690.803 271.904 689.141 271.732 687.478 271.446L670.192 268.522V276.778H662.28V267.232L643.79 264.222V255.02L662.28 258.03V242.206H670.192V259.32L688.768 262.416C689.571 262.588 690.373 262.702 691.176 262.76C691.979 262.76 692.781 262.731 693.584 262.674C694.387 262.616 695.161 262.473 695.906 262.244C696.651 262.014 697.339 261.699 697.97 261.298C698.543 260.839 699.002 260.237 699.346 259.492C699.633 258.746 699.776 257.972 699.776 257.17C699.776 256.482 699.633 255.794 699.346 255.106C699.059 254.36 698.658 253.701 698.142 253.128C697.626 252.554 697.053 252.038 696.422 251.58C695.734 251.121 695.046 250.72 694.358 250.376C693.67 250.032 692.982 249.745 692.294 249.516C691.606 249.229 690.889 249 690.144 248.828L692.638 240.572C693.899 240.858 695.161 241.317 696.422 241.948C697.683 242.521 698.887 243.209 700.034 244.012C701.181 244.757 702.27 245.646 703.302 246.678C704.277 247.71 705.108 248.856 705.796 250.118C706.484 251.322 706.971 252.612 707.258 253.988C707.545 255.306 707.688 256.625 707.688 257.944ZM707 237.337L662.28 229.941V220.653L670.192 221.943C668.931 221.255 667.755 220.424 666.666 219.449C665.577 218.475 664.631 217.385 663.828 216.181C663.025 214.977 662.452 213.716 662.108 212.397C661.764 211.021 661.592 209.674 661.592 208.355C661.592 207.094 661.764 205.919 662.108 204.829C662.452 203.683 663.025 202.708 663.828 201.905C664.573 201.103 665.491 200.472 666.58 200.013C667.612 199.555 668.73 199.268 669.934 199.153C671.081 199.039 672.256 199.039 673.46 199.153C674.664 199.211 675.897 199.354 677.158 199.583V208.871C676.585 208.757 676.011 208.671 675.438 208.613C674.865 208.556 674.32 208.556 673.804 208.613C673.231 208.671 672.686 208.757 672.17 208.871C671.654 208.986 671.195 209.215 670.794 209.559C670.335 209.846 670.02 210.247 669.848 210.763C669.619 211.222 669.504 211.738 669.504 212.311C669.504 213.286 669.647 214.289 669.934 215.321C670.163 216.296 670.565 217.213 671.138 218.073C671.711 218.933 672.399 219.707 673.202 220.395C674.005 221.083 674.865 221.657 675.782 222.115C676.642 222.574 677.559 222.947 678.534 223.233C679.509 223.463 680.455 223.663 681.372 223.835L707 228.049V237.337ZM707.688 172.097C707.688 173.53 707.545 174.963 707.258 176.397C707.029 177.773 706.57 179.063 705.882 180.267C705.137 181.413 704.248 182.417 703.216 183.277C702.127 184.079 700.923 184.681 699.604 185.083C698.285 185.484 696.909 185.685 695.476 185.685C693.985 185.685 692.495 185.541 691.004 185.255L670.192 181.815V194.027H662.28V171.237L692.294 176.225C693.211 176.397 694.129 176.483 695.046 176.483C695.963 176.425 696.795 176.196 697.54 175.795C698.228 175.336 698.773 174.705 699.174 173.903C699.575 173.1 699.776 172.269 699.776 171.409C699.776 170.491 699.547 169.603 699.088 168.743C698.572 167.883 697.941 167.166 697.196 166.593C696.393 165.962 695.562 165.475 694.702 165.131C693.785 164.787 692.867 164.5 691.95 164.271L692.982 155.327C694.301 155.613 695.591 156.015 696.852 156.531C698.056 156.989 699.231 157.62 700.378 158.423C701.525 159.168 702.585 160.057 703.56 161.089C704.535 162.063 705.337 163.181 705.968 164.443C706.599 165.647 707.029 166.908 707.258 168.227C707.545 169.545 707.688 170.835 707.688 172.097ZM655.83 173.387C655.83 174.361 655.658 175.336 655.314 176.311C654.913 177.285 654.339 178.059 653.594 178.633C652.791 179.149 651.903 179.493 650.928 179.665C649.896 179.837 648.864 179.837 647.832 179.665C647.087 179.55 646.399 179.321 645.768 178.977C645.08 178.575 644.535 178.088 644.134 177.515C643.675 176.884 643.36 176.225 643.188 175.537C643.016 174.791 642.93 174.046 642.93 173.301C642.93 172.326 643.131 171.351 643.532 170.377C643.876 169.402 644.449 168.657 645.252 168.141C645.997 167.567 646.886 167.195 647.918 167.023C648.893 166.793 649.896 166.765 650.928 166.937C651.673 167.109 652.39 167.367 653.078 167.711C653.709 168.055 654.253 168.542 654.712 169.173C655.113 169.803 655.4 170.491 655.572 171.237C655.744 171.925 655.83 172.641 655.83 173.387ZM707.688 137.3C707.688 138.963 707.459 140.568 707 142.116C706.599 143.664 705.911 145.04 704.936 146.244C703.961 147.391 702.786 148.337 701.41 149.082C699.977 149.77 698.486 150.258 696.938 150.544C695.333 150.831 693.699 150.946 692.036 150.888C690.373 150.831 688.711 150.659 687.048 150.372L678.448 148.91C677.072 148.681 675.696 148.366 674.32 147.964C672.944 147.563 671.597 147.018 670.278 146.33C668.959 145.642 667.755 144.782 666.666 143.75C665.519 142.718 664.545 141.572 663.742 140.31C662.939 139.049 662.395 137.702 662.108 136.268C661.764 134.835 661.592 133.43 661.592 132.054C661.592 130.506 661.793 128.987 662.194 127.496C662.538 126.006 663.14 124.687 664 123.54C664.86 122.394 665.921 121.448 667.182 120.702C668.443 119.9 669.791 119.326 671.224 118.982L643.79 114.51V105.222L707 115.628V124.916L700.378 123.884C701.525 124.63 702.585 125.49 703.56 126.464C704.535 127.439 705.337 128.528 705.968 129.732C706.599 130.936 707.029 132.198 707.258 133.516C707.545 134.778 707.688 136.039 707.688 137.3ZM699.776 133.516C699.776 132.255 699.604 130.965 699.26 129.646C698.916 128.328 698.314 127.124 697.454 126.034C696.594 124.945 695.562 124.085 694.358 123.454C693.097 122.824 691.835 122.422 690.574 122.25L681.974 120.788C680.999 120.616 680.025 120.53 679.05 120.53C678.018 120.473 677.043 120.53 676.126 120.702C675.209 120.817 674.32 121.075 673.46 121.476C672.6 121.82 671.883 122.365 671.31 123.11C670.679 123.798 670.221 124.601 669.934 125.518C669.647 126.378 669.504 127.324 669.504 128.356C669.504 129.675 669.733 131.051 670.192 132.484C670.593 133.86 671.281 135.093 672.256 136.182C673.231 137.214 674.406 138.046 675.782 138.676C677.101 139.25 678.419 139.651 679.738 139.88L688.338 141.256C689.255 141.428 690.201 141.543 691.176 141.6C692.093 141.6 693.011 141.514 693.928 141.342C694.788 141.17 695.619 140.855 696.422 140.396C697.167 139.938 697.798 139.364 698.314 138.676C698.83 137.988 699.203 137.214 699.432 136.354C699.661 135.437 699.776 134.491 699.776 133.516ZM707.688 89.69C707.688 91.5246 707.516 93.3306 707.172 95.108C706.885 96.828 706.312 98.4333 705.452 99.924C704.592 101.415 703.503 102.705 702.184 103.794C700.865 104.826 699.375 105.629 697.712 106.202C696.049 106.718 694.329 106.976 692.552 106.976C690.717 106.976 688.883 106.833 687.048 106.546L678.448 105.084C676.9 104.855 675.352 104.453 673.804 103.88C672.256 103.307 670.794 102.533 669.418 101.558C668.042 100.526 666.838 99.3506 665.806 98.032C664.774 96.656 663.943 95.194 663.312 93.646C662.624 92.098 662.165 90.5213 661.936 88.916C661.707 87.3106 661.592 85.734 661.592 84.186C661.592 82.3513 661.764 80.5453 662.108 78.768C662.395 76.9906 662.968 75.3566 663.828 73.866C664.631 72.318 665.72 70.9993 667.096 69.91C668.415 68.8206 669.905 68.018 671.568 67.502C673.173 66.9286 674.893 66.642 676.728 66.642C678.563 66.5846 680.397 66.728 682.232 67.072L688.596 68.104V97.516C690.029 97.7453 691.463 97.774 692.896 97.602C694.329 97.43 695.591 96.9713 696.68 96.226C697.712 95.4233 698.486 94.3913 699.002 93.13C699.518 91.8113 699.776 90.4353 699.776 89.002C699.776 87.97 699.719 86.938 699.604 85.906C699.432 84.8166 699.117 83.756 698.658 82.724C698.199 81.692 697.569 80.7746 696.766 79.972C695.963 79.112 695.017 78.5673 693.928 78.338V69.136C695.361 69.4226 696.766 69.9386 698.142 70.684C699.461 71.372 700.693 72.2606 701.84 73.35C702.929 74.382 703.875 75.586 704.678 76.962C705.423 78.2806 706.025 79.6566 706.484 81.09C706.943 82.5233 707.258 83.9566 707.43 85.39C707.602 86.8233 707.688 88.2566 707.688 89.69ZM680.684 76.102C679.251 75.8153 677.846 75.758 676.47 75.93C675.094 76.102 673.861 76.532 672.772 77.22C671.683 77.908 670.88 78.8826 670.364 80.144C669.791 81.4053 669.504 82.7526 669.504 84.186C669.504 85.1033 669.59 86.0206 669.762 86.938C669.934 87.8553 670.221 88.7726 670.622 89.69C671.023 90.55 671.568 91.3526 672.256 92.098C672.887 92.8433 673.632 93.5026 674.492 94.076C675.295 94.6493 676.155 95.0793 677.072 95.366C677.932 95.6526 678.821 95.882 679.738 96.054L680.684 96.226V76.102ZM707.688 51.5396C707.688 52.3422 707.602 53.1736 707.43 54.0336C707.258 54.8362 706.971 55.5816 706.57 56.2696C706.111 56.9002 705.567 57.4449 704.936 57.9036C704.305 58.3622 703.617 58.7349 702.872 59.0216C702.069 59.2509 701.238 59.3942 700.378 59.4516C699.518 59.4516 698.687 59.3942 697.884 59.2796C697.024 59.1076 696.193 58.7922 695.39 58.3336C694.53 57.8749 693.842 57.2729 693.326 56.5276C692.753 55.7822 692.38 54.9796 692.208 54.1196C691.979 53.2596 691.864 52.3709 691.864 51.4536C691.864 50.6509 691.95 49.8482 692.122 49.0456C692.294 48.1856 692.609 47.4402 693.068 46.8096C693.469 46.1216 693.985 45.5482 694.616 45.0896C695.247 44.5736 695.963 44.2009 696.766 43.9716C697.511 43.7422 698.314 43.6276 699.174 43.6276C700.034 43.5702 700.865 43.5989 701.668 43.7136C702.528 43.8856 703.388 44.2009 704.248 44.6596C705.051 45.0609 705.739 45.6342 706.312 46.3796C706.828 47.1249 707.172 47.9562 707.344 48.8736C707.573 49.7336 707.688 50.6222 707.688 51.5396Z" fill="#FBFEFC"/>
</svg>
