<svg width="49" height="48" viewBox="0 0 49 48" fill="none" xmlns="http://www.w3.org/2000/svg">
<path d="M20.501 19.9995H28.501V27.9995H20.501V19.9995Z" stroke="#FBFEFC" stroke-width="3" stroke-linecap="round" stroke-linejoin="round"/>
<path d="M20.502 19.9995C18.102 16.9995 13.702 13.9995 8.50195 13.9995C6.30195 13.9995 4.50195 18.3995 4.50195 23.9995C4.50195 29.5995 6.30195 33.9995 8.50195 33.9995C13.702 33.9995 18.102 30.9995 20.502 27.9995M28.502 27.9995C30.902 30.9995 35.302 33.9995 40.502 33.9995C42.702 33.9995 44.502 29.5995 44.502 23.9995C44.502 18.3995 42.702 13.9995 40.502 13.9995C35.302 13.9995 30.902 16.9995 28.502 19.9995" stroke="#FBFEFC" stroke-width="3" stroke-linecap="round" stroke-linejoin="round"/>
</svg>
