<svg width="49" height="48" viewBox="0 0 49 48" fill="none" xmlns="http://www.w3.org/2000/svg">
<path d="M21.5 21C21.5 20.2044 21.8161 19.4413 22.3787 18.8787C22.9413 18.3161 23.7044 18 24.5 18C25.2956 18 26.0587 18.3161 26.6213 18.8787C27.1839 19.4413 27.5 20.2044 27.5 21M42.5 18H44M42.5 18C42.5 27 41 30 35 30C29 30 27.5 27 27.5 18C27.5 18 29 16.5 35 16.5C41 16.5 42.5 18 42.5 18ZM6.5 18H5M6.5 18C6.5 27 8 30 14 30C20 30 21.5 27 21.5 18C21.5 18 20 16.5 14 16.5C8 16.5 6.5 18 6.5 18Z" stroke="#FBFEFC" stroke-width="3" stroke-linecap="round" stroke-linejoin="round"/>
</svg>
