<svg width="49" height="48" viewBox="0 0 49 48" fill="none" xmlns="http://www.w3.org/2000/svg">
<path d="M20.6591 15.9998L17.3391 30.2878C16.6191 33.3878 16.2611 34.9358 16.6731 36.3918L16.6971 36.4778C17.1291 37.9278 18.2611 39.0338 20.5211 41.2478C22.3871 43.0738 23.3211 43.9878 24.4671 43.9998H24.5311C25.6791 43.9858 26.6111 43.0738 28.4771 41.2478C30.7371 39.0338 31.8691 37.9278 32.3011 36.4778L32.3251 36.3918C32.7371 34.9358 32.3771 33.3858 31.6571 30.2878L28.3411 15.9998M17.9411 11.2198C16.8231 9.23976 16.2651 8.24776 16.5931 7.34776C16.9211 6.44776 17.9771 6.07176 20.0891 5.32376L21.8891 4.68576C23.1811 4.22776 23.8291 3.99976 24.4991 3.99976C25.1691 3.99976 25.8171 4.22776 27.1091 4.68576L28.9091 5.32576C31.0211 6.07176 32.0771 6.44576 32.4051 7.34576C32.7351 8.24576 32.1751 9.23776 31.0571 11.2178L30.0251 13.0478C29.4951 13.9858 29.2311 14.4538 28.7651 14.8218C28.3051 15.1898 27.8751 15.3118 27.0151 15.5578C26.1931 15.7938 25.2551 15.9998 24.4991 15.9998C23.7431 15.9998 22.8051 15.7938 21.9831 15.5578C21.1231 15.3118 20.6951 15.1898 20.2311 14.8218C19.7671 14.4538 19.5031 13.9858 18.9731 13.0478L17.9411 11.2198Z" stroke="#FBFEFC" stroke-width="3" stroke-linecap="round" stroke-linejoin="round"/>
</svg>
