<svg width="48" height="48" viewBox="0 0 48 48" fill="none" xmlns="http://www.w3.org/2000/svg">
<path fill-rule="evenodd" clip-rule="evenodd" d="M35.5583 14.5607C36.1441 13.9749 36.1441 13.0251 35.5583 12.4393C34.9726 11.8536 34.0229 11.8536 33.4371 12.4393L23.9993 21.8775L14.5616 12.4393C13.9758 11.8536 13.0261 11.8536 12.4403 12.4393C11.8546 13.0251 11.8546 13.9749 12.4403 14.5607L21.8781 23.9988L12.4401 33.4373C11.8543 34.0231 11.8543 34.9728 12.4401 35.5586C13.0258 36.1444 13.9755 36.1444 14.5613 35.5586L23.9993 26.1202L33.4374 35.5586C34.0231 36.1444 34.9728 36.1444 35.5586 35.5586C36.1444 34.9728 36.1444 34.0231 35.5586 33.4373L26.1206 23.9988L35.5583 14.5607Z" fill="#FBFEFC"/>
</svg>
