<svg width="46" height="48" viewBox="0 0 46 48" fill="none" xmlns="http://www.w3.org/2000/svg">
<g clip-path="url(#clip0_6428_9511)">
<path d="M34.6138 35.6975C36.6133 34.2975 37.5922 33.3452 38.0266 32.2924C38.2271 31.8066 38.0873 31.2631 37.7921 30.8284L37.118 29.8357C35.8766 28.0139 36.5239 26.6907 35.3016 24.945L31.634 19.7072C31.101 18.9459 30.0517 18.7609 29.2905 19.2939C28.5292 19.827 28.3442 20.8762 28.8772 21.6375L27.7191 19.9834C27.186 19.2221 26.1368 19.0371 25.3755 19.5702C24.6143 20.1032 24.4293 21.1525 24.9623 21.9137L24.1902 20.811C23.6571 20.0497 22.6079 19.8647 21.8466 20.3978C21.1251 20.903 20.9212 21.8721 21.3559 22.6201L17.7708 17.5C17.2378 16.7387 16.1885 16.5537 15.4273 17.0868C14.666 17.6198 14.481 18.669 15.014 19.4303L22.7214 30.4375L19.3429 29.8418C18.3797 29.672 17.4613 30.3151 17.2914 31.2782C17.134 32.1709 17.6761 33.0382 18.5473 33.288L28.2727 36.0292L28.9511 36.9982C29.2583 37.4369 29.7286 37.7643 30.2636 37.7392C31.3969 37.6859 32.6242 37.0907 34.6138 35.6975Z" fill="black"/>
<path d="M21.3559 22.6201L17.7708 17.5C17.2378 16.7387 16.1885 16.5537 15.4273 17.0868C14.666 17.6198 14.481 18.669 15.014 19.4303L22.7214 30.4375L19.3429 29.8418C18.3797 29.672 17.4613 30.3151 17.2914 31.2782C17.134 32.1709 17.6761 33.0382 18.5473 33.288L28.2727 36.0292L28.9511 36.9982C29.2583 37.4369 29.7286 37.7643 30.2636 37.7392C31.3969 37.6859 32.6242 37.0907 34.6138 35.6975C36.6133 34.2975 37.5922 33.3452 38.0266 32.2924C38.2271 31.8066 38.0873 31.2631 37.7921 30.8284L37.118 29.8357C35.8766 28.0139 36.5239 26.6907 35.3016 24.945L31.634 19.7072C31.101 18.9459 30.0517 18.7609 29.2905 19.2939C28.5292 19.827 28.3442 20.8762 28.8772 21.6375M21.3559 22.6201L23.5617 25.7703M21.3559 22.6201C20.9212 21.8721 21.1251 20.903 21.8466 20.3978C22.6079 19.8647 23.6571 20.0497 24.1902 20.811L24.9623 21.9137M21.3559 22.6201C21.3798 22.6612 21.4056 22.7016 21.4334 22.7413M30.0354 23.2915L28.8772 21.6375M28.8772 21.6375L27.7191 19.9834C27.186 19.2221 26.1368 19.0371 25.3755 19.5702C24.6143 20.1032 24.4293 21.1525 24.9623 21.9137M24.9623 21.9137L26.6996 24.3948" stroke="#FBFEFC" stroke-width="1.25" stroke-linecap="round" stroke-linejoin="round"/>
<path d="M29.127 32.5552L26.8106 29.2471" stroke="#FBFEFC" stroke-width="1.25" stroke-linecap="round"/>
<path d="M31.3323 31.011L29.0159 27.7029" stroke="#FBFEFC" stroke-width="1.25" stroke-linecap="round"/>
<path d="M33.5376 29.4668L31.2212 26.1587" stroke="#FBFEFC" stroke-width="1.25" stroke-linecap="round"/>
</g>
<path d="M13.829 22.1947C12.5585 21.8866 11.4474 21.0812 10.8244 19.8721C9.6395 17.5724 10.6689 14.6828 13.1237 13.418C15.5784 12.1532 18.529 12.9922 19.7139 15.292C19.8991 15.6514 20.0302 16.0253 20.1102 16.4051" stroke="#FBFEFC" stroke-width="1.25" stroke-linecap="round"/>
<path d="M13.9352 26.1288C11.8931 25.8109 9.9587 24.7582 8.56362 23.0183C5.6004 19.3227 6.19244 13.926 9.88597 10.9645C13.5795 8.00295 18.9759 8.59811 21.9391 12.2938C22.6442 13.1732 23.148 14.1489 23.4566 15.1652" stroke="#FBFEFC" stroke-width="1.25" stroke-linecap="round"/>
<defs>
<clipPath id="clip0_6428_9511">
<rect width="30" height="30" fill="white" transform="translate(3.94336 22.8389) rotate(-35)"/>
</clipPath>
</defs>
</svg>
