<svg width="100%" viewBox="0 0 25 25" fill="none" xmlns="http://www.w3.org/2000/svg">
<g clip-path="url(#clip0_6146_7023)">
<path d="M12.4995 24.2188C18.9719 24.2188 24.2188 18.9719 24.2188 12.4995C24.2188 6.02716 18.9719 0.780273 12.4995 0.780273C6.02716 0.780273 0.780273 6.02716 0.780273 12.4995C0.780273 18.9719 6.02716 24.2188 12.4995 24.2188Z" stroke="#FBFEFC" stroke-width="1.5625"/>
<path fill-rule="evenodd" clip-rule="evenodd" d="M16.9594 9.14618C17.2645 8.84108 17.2645 8.34642 16.9594 8.04132C16.6543 7.73623 16.1596 7.73623 15.8545 8.04132L12.5005 11.3953L9.14648 8.04132C8.84138 7.73623 8.34672 7.73623 8.04162 8.04132C7.73653 8.34642 7.73653 8.84108 8.04162 9.14618L11.3956 12.5002L8.04132 15.8545C7.73623 16.1596 7.73623 16.6543 8.04132 16.9594C8.34642 17.2645 8.84108 17.2645 9.14618 16.9594L12.5005 13.605L15.8548 16.9594C16.1599 17.2645 16.6546 17.2645 16.9597 16.9594C17.2648 16.6543 17.2648 16.1596 16.9597 15.8545L13.6053 12.5002L16.9594 9.14618Z" fill="#FBFEFC"/>
</g>
<defs>
<clipPath id="clip0_6146_7023">
<rect width="25" height="25" fill="white"/>
</clipPath>
</defs>
</svg>

