<svg width="120" height="120" viewBox="0 0 120 120" fill="none" xmlns="http://www.w3.org/2000/svg">
<path fill-rule="evenodd" clip-rule="evenodd" d="M3.66772 51.1453C-1.22257 56.0356 -1.22258 63.9644 3.66772 68.8547L51.1453 116.332C56.0356 121.223 63.9644 121.223 68.8547 116.332L116.332 68.8547C121.223 63.9644 121.223 56.0356 116.332 51.1453L68.8547 3.66772C63.9644 -1.22257 56.0356 -1.22258 51.1453 3.66772L3.66772 51.1453ZM10.3914 53.6246C6.8704 57.1457 6.87041 62.8544 10.3914 66.3754L53.6246 109.609C57.1456 113.13 62.8543 113.13 66.3753 109.609L109.608 66.3754C113.129 62.8543 113.129 57.1456 109.608 53.6246L66.3753 10.3915C62.8543 6.87046 57.1456 6.87047 53.6246 10.3915L10.3914 53.6246Z" fill="white"/>
<path d="M71.6663 52.6922C71.4815 52.7282 71.1478 52.8206 70.922 52.8976C70.6961 52.9695 70.3624 53.1132 70.1776 53.2159C69.9928 53.3135 69.7515 53.4675 69.6385 53.5548C69.5256 53.642 69.2843 53.8525 69.1098 54.022C68.9301 54.1965 68.694 54.4635 68.5913 54.6175C68.4835 54.7715 68.3449 54.9974 68.2833 55.1206C68.2268 55.2387 68.1498 55.3363 68.1241 55.3363C68.0933 55.3363 68.0728 54.9153 68.0728 54.1811V53.026H64.5819V67.812H68.2781C68.2781 59.8594 68.2884 59.0893 68.3551 58.7093C68.3962 58.4629 68.504 58.0727 68.5861 57.8417C68.6734 57.6055 68.8223 57.2872 68.9198 57.1332C69.0122 56.9792 69.2022 56.7379 69.3408 56.5993C69.4743 56.4606 69.7258 56.2553 69.8952 56.1475C70.0646 56.0396 70.3316 55.901 70.4856 55.8394C70.6858 55.7624 70.9322 55.7265 71.3326 55.7059C71.6561 55.6957 72.0154 55.7059 72.1797 55.7419C72.3337 55.7727 72.6007 55.8651 72.7701 55.9421C72.9497 56.0294 73.191 56.2039 73.3502 56.3682C73.5247 56.5428 73.7044 56.7995 73.8276 57.0562C73.9405 57.2821 74.0689 57.5953 74.1151 57.7493C74.1972 58.006 74.2075 58.5143 74.2178 62.9244L74.2332 67.812H77.9294C77.9294 61.2404 77.9499 59.3511 77.9807 59.1098C78.0064 58.8839 78.0783 58.5143 78.1347 58.2884C78.1912 58.0625 78.3349 57.6825 78.453 57.4412C78.6276 57.0973 78.761 56.9124 79.1101 56.5633C79.4233 56.2501 79.6389 56.0807 79.8802 55.9678C80.065 55.8805 80.3525 55.7778 80.5219 55.747C80.6964 55.7111 81.0712 55.6957 81.3946 55.7059C81.9028 55.7265 81.9952 55.7419 82.3187 55.8959C82.5548 56.0088 82.7909 56.1731 83.0014 56.3836C83.2324 56.6044 83.3813 56.8149 83.5251 57.1075C83.638 57.3334 83.7612 57.6671 83.8023 57.852C83.8433 58.0368 83.9049 58.4629 83.9306 58.8018C83.9666 59.1663 83.9871 61.1429 83.9871 63.6175V67.812H87.6833C87.6833 60.0083 87.6628 58.1395 87.6268 57.7749C87.596 57.4669 87.5088 56.9535 87.4266 56.6455C87.3496 56.3374 87.211 55.8959 87.1135 55.67C87.0211 55.4441 86.8311 55.0847 86.6874 54.8742C86.5488 54.6637 86.2408 54.2889 85.9943 54.0476C85.712 53.7653 85.404 53.5188 85.1422 53.3648C84.9163 53.2365 84.5672 53.0619 84.3721 52.9798C84.177 52.8976 83.7766 52.7795 83.484 52.723C83.1092 52.646 82.7653 52.6152 82.2519 52.6152C81.8566 52.6152 81.3535 52.646 81.0968 52.6922C80.8504 52.7333 80.5065 52.8155 80.3268 52.8771C80.1523 52.9335 79.8699 53.0516 79.7005 53.1286C79.5311 53.2108 79.2436 53.3751 79.0588 53.4932C78.874 53.6164 78.53 53.909 78.2887 54.1503C78.0475 54.3916 77.7343 54.7715 77.5957 54.9923L77.339 55.3876C77.1388 55.0077 77.0002 54.7869 76.9027 54.6432C76.8051 54.5046 76.5741 54.2273 76.3893 54.0322C76.2045 53.8423 75.8605 53.5496 75.6192 53.3905C75.378 53.2262 74.9878 53.026 74.7465 52.9387C74.5052 52.8514 74.1151 52.7436 73.8738 52.6974C73.5914 52.6409 73.1859 52.6152 72.7187 52.6204C72.3234 52.6204 71.8511 52.6563 71.6663 52.6922Z" fill="#FBFEFC"/>
<path d="M54.2633 52.9027C54.5302 52.8309 54.9563 52.7385 55.213 52.6974C55.4697 52.6563 56.06 52.6255 56.5323 52.6204C57.1843 52.6152 57.5437 52.6409 57.9954 52.7179C58.3291 52.7744 58.8681 52.913 59.1916 53.0208C59.515 53.1286 60.0027 53.3289 60.2696 53.4624C60.5366 53.5958 60.9216 53.8166 61.1167 53.9552C61.3118 54.0887 61.6301 54.3608 62.1691 54.8999L59.6485 57.1075L59.3045 56.7687C59.0273 56.4966 58.8425 56.3734 58.3702 56.1423C58.0057 55.9678 57.6258 55.824 57.3691 55.7675C57.056 55.7008 56.8096 55.6854 56.3424 55.7059C55.8444 55.7316 55.6545 55.7624 55.3413 55.8754C55.1309 55.9524 54.792 56.1115 54.597 56.2245C54.3865 56.3426 54.0682 56.6044 53.8269 56.8457C53.4676 57.2051 53.37 57.3437 53.1236 57.852C52.9337 58.237 52.7796 58.6426 52.6872 59.0071C52.5589 59.5154 52.5435 59.6591 52.5486 60.419C52.5486 61.1121 52.5692 61.3585 52.6616 61.7538C52.7283 62.0208 52.8669 62.4264 52.9747 62.6523C53.0774 62.8782 53.2468 63.1914 53.3443 63.3454C53.447 63.4994 53.6524 63.7664 53.8115 63.9358C53.9655 64.1052 54.2633 64.3619 54.4737 64.5108C54.6842 64.6546 54.9666 64.8189 55.1103 64.8753C55.2489 64.9318 55.5621 65.0191 55.8034 65.0653C56.137 65.1372 56.3937 65.1474 56.9071 65.132C57.4461 65.1064 57.6617 65.0756 58.0108 64.9626C58.2521 64.8856 58.6217 64.7367 58.8322 64.6238C59.0427 64.516 59.3558 64.2952 59.8333 63.8485L62.1434 66.1691L61.9381 66.3745C61.8251 66.4926 61.5376 66.7236 61.2964 66.893C61.0551 67.0676 60.6855 67.2935 60.475 67.4013C60.2645 67.5091 59.8487 67.6785 59.5509 67.7812C59.2532 67.8839 58.7552 68.0225 58.4472 68.0841C57.9595 68.1817 57.7182 68.1971 56.6761 68.1971C55.6134 68.1971 55.3978 68.1817 54.8793 68.079C54.5559 68.0122 54.0579 67.8787 53.7756 67.7863C53.4932 67.6939 53.0415 67.5091 52.7745 67.3756C52.5076 67.2421 52.0917 67.0008 51.8505 66.8417C51.6092 66.6825 51.2087 66.3591 50.9572 66.1178C50.7108 65.8765 50.372 65.5068 50.218 65.2963C50.0588 65.0858 49.8073 64.7059 49.6533 64.4492C49.5044 64.1925 49.3144 63.8023 49.2272 63.5764C49.1399 63.3505 49.0013 62.909 48.9243 62.601C48.8421 62.2929 48.7497 61.759 48.7189 61.4201C48.6779 61.0505 48.6676 60.5063 48.683 60.0596C48.6984 59.6489 48.7446 59.1201 48.7908 58.8788C48.8319 58.6375 48.9294 58.237 49.0013 57.9803C49.0731 57.7236 49.2528 57.2769 49.3914 56.9792C49.5352 56.6814 49.72 56.3271 49.8124 56.1834C49.8997 56.0448 50.1153 55.7419 50.2847 55.516C50.4592 55.2901 50.7878 54.9307 51.0137 54.7202C51.2344 54.5097 51.6246 54.1965 51.8813 54.022C52.1328 53.8525 52.4665 53.642 52.6205 53.5548C52.7745 53.4675 53.0979 53.3135 53.3392 53.2159C53.5805 53.1184 53.9963 52.9746 54.2633 52.9027Z" fill="#FBFEFC"/>
<path fill-rule="evenodd" clip-rule="evenodd" d="M36.3468 52.8617C36.5881 52.8052 36.9885 52.7282 37.2452 52.6922C37.5686 52.6409 38.0666 52.6255 38.9137 52.6409C39.8839 52.6512 40.2176 52.6768 40.6078 52.7641C40.8747 52.8206 41.27 52.9284 41.4805 53.0054C41.691 53.0773 42.0246 53.2211 42.2249 53.3186C42.4251 53.4213 42.7434 53.6061 42.9436 53.7396C43.1387 53.8679 43.4415 54.1144 43.6109 54.2838C43.7804 54.4532 44.0524 54.7921 44.2116 55.0282C44.3707 55.2695 44.5709 55.6289 44.6531 55.824C44.7352 56.0191 44.8533 56.3785 44.9149 56.6198C44.9816 56.8611 45.0689 57.2307 45.1151 57.4412C45.1818 57.7698 45.1972 58.5502 45.228 67.812H41.7885V66.8879C41.7885 66.3231 41.768 65.9535 41.7372 65.9381C41.7115 65.9227 41.6191 66.0202 41.537 66.1588C41.4548 66.2923 41.2289 66.5542 41.0339 66.739C40.8439 66.9238 40.5102 67.1908 40.2997 67.3243C40.0893 67.4629 39.7556 67.6426 39.5554 67.7196C39.3552 67.8017 38.9547 67.9301 38.657 68.0071C38.1641 68.1303 38.0358 68.1457 37.1169 68.1406C36.2852 68.1406 36.0285 68.1201 35.6025 68.0276C35.3201 67.9712 34.9043 67.8582 34.6784 67.7812C34.4525 67.7042 34.0932 67.5604 33.8827 67.4526C33.6722 67.3448 33.3385 67.1343 33.1383 66.9803C32.9381 66.8263 32.6506 66.5388 32.4915 66.3437C32.3323 66.1486 32.1424 65.8919 32.0654 65.7687C31.9935 65.6506 31.8652 65.3528 31.783 65.1012C31.6906 64.8343 31.6085 64.4441 31.5777 64.1258C31.5366 63.7561 31.5366 63.4481 31.5777 63.0784C31.6085 62.7858 31.6906 62.3648 31.7676 62.1389C31.8395 61.913 32.0089 61.5639 32.1424 61.3688C32.2759 61.1737 32.5069 60.8964 32.6557 60.7578C32.8098 60.6192 33.0921 60.3933 33.2923 60.2547C33.4925 60.1109 33.8313 59.9107 34.0521 59.7978C34.2677 59.6899 34.7092 59.5103 35.0275 59.3973C35.3406 59.2895 35.8694 59.1406 36.1928 59.0636C36.5162 58.9917 37.0245 58.8993 37.3222 58.8531C37.62 58.812 38.2668 58.7401 38.7597 58.6991C39.2525 58.658 40.1149 58.6067 41.6961 58.5451L41.6756 58.006C41.655 57.5234 41.6345 57.4258 41.4753 57.087C41.3521 56.8252 41.2187 56.6301 41.0185 56.4452C40.8644 56.2963 40.5872 56.091 40.4024 55.9883C40.2176 55.8908 39.8634 55.7419 39.6067 55.6649C39.1857 55.5365 39.0728 55.5262 38.3233 55.5262C37.5943 55.5262 37.4454 55.5416 36.9885 55.6649C36.7062 55.7367 36.2698 55.901 36.0131 56.0191C35.7565 56.1423 35.3766 56.3528 35.1661 56.4914C34.9556 56.6249 34.6733 56.8406 34.2934 57.1845L34.1445 57.0202C34.1152 56.985 34.0344 56.8902 33.9213 56.7574C33.7375 56.5415 33.468 56.2251 33.1948 55.901C32.7533 55.3774 32.3991 54.9358 32.4042 54.9204C32.4145 54.8999 32.5582 54.7715 32.7276 54.6278C32.897 54.4892 33.2307 54.2427 33.472 54.0784C33.7133 53.9193 34.1394 53.678 34.4217 53.5394C34.7041 53.4059 35.1558 53.2211 35.4228 53.1286C35.6897 53.0414 36.1056 52.9181 36.3468 52.8617ZM38.9394 61.1634C38.5749 61.1994 38.1334 61.2558 37.964 61.2918C37.7946 61.3277 37.4712 61.4099 37.2453 61.4817C37.0194 61.5536 36.6498 61.7076 36.4291 61.8257C36.2032 61.9386 35.9106 62.1388 35.7771 62.2672C35.6436 62.3955 35.4742 62.6265 35.4023 62.7805C35.2945 63.0116 35.2689 63.1399 35.2689 63.4993C35.2689 63.7508 35.2997 64.0331 35.3459 64.1666C35.3921 64.3206 35.5101 64.4849 35.6898 64.6595C35.8387 64.8032 36.0543 64.9675 36.1673 65.0239C36.2802 65.0855 36.5009 65.1677 36.6549 65.2139C36.809 65.2601 37.1324 65.3217 37.3737 65.3474C37.6201 65.373 38.0308 65.373 38.3234 65.3474C38.6057 65.3217 38.9856 65.2652 39.1704 65.219C39.3552 65.1728 39.6787 65.0496 39.8891 64.9521C40.1818 64.8135 40.3717 64.6697 40.69 64.3514C41.0083 64.0331 41.152 63.8432 41.2906 63.5506C41.3882 63.3401 41.5114 63.027 41.5576 62.8575C41.6089 62.683 41.6603 62.2364 41.6757 61.8154L41.7116 61.0864C40.0791 61.0967 39.3039 61.1275 38.9394 61.1634Z" fill="#FBFEFC"/>
</svg>
