<svg width="194" height="64" viewBox="0 0 194 64" fill="none" xmlns="http://www.w3.org/2000/svg">
<path d="M27.8345 0L19.3262 4.89577L27.8345 9.80142L36.3231 4.89577L27.8345 0Z" fill="white"/>
<path d="M18.3791 5.4375L9.90039 10.3431L18.3791 15.2389L26.8677 10.3431L18.3791 5.4375Z" fill="white"/>
<path d="M37.262 5.4375L28.7734 10.3431L37.262 15.2389L45.7506 10.3431L37.262 5.4375Z" fill="white"/>
<path d="M46.6878 10.8867L38.1992 15.7825L46.6878 20.6783L55.1764 15.7825L46.6878 10.8867Z" fill="white"/>
<path d="M8.95333 10.8867L0.474609 15.7825L8.95333 20.6783L17.4419 15.7825L8.95333 10.8867Z" fill="white"/>
<path d="M0 48.1979L8.48859 53.0937V43.2923L0 38.3965V48.1979Z" fill="white"/>
<path d="M9.42578 53.6353L17.9144 58.5607V48.7395L9.42578 43.8438V53.6353Z" fill="white"/>
<path d="M0 37.3092L8.48859 42.205V32.4135L0 27.5078V37.3092Z" fill="white"/>
<path d="M0 26.4227L8.48859 31.3185V21.4973L0 16.6016V26.4227Z" fill="white"/>
<path d="M18.8516 59.1044L27.3599 64.0001V54.179L18.8516 49.2832V59.1044Z" fill="white"/>
<path d="M55.6686 48.1979L47.1504 53.0937V43.2923L55.6686 38.3965V48.1979Z" fill="white"/>
<path d="M46.2131 53.6353L37.7344 58.5607V48.7395L46.2131 43.8438V53.6353Z" fill="white"/>
<path d="M55.6686 37.3092L47.1504 42.205V32.4135L55.6686 27.5078V37.3092Z" fill="white"/>
<path d="M55.6686 26.4227L47.1504 31.3185V21.4973L55.6686 16.6016V26.4227Z" fill="white"/>
<path d="M36.7873 59.1044L28.3086 64.0001V54.179L36.7873 49.2832V59.1044Z" fill="white"/>
<path d="M27.8345 53.3698L36.3231 48.4641L27.8345 43.5684L19.3262 48.4641L27.8345 53.3698Z" fill="white"/>
<path d="M37.262 47.9224L45.7506 43.0266L37.262 38.1309L28.7734 43.0266L37.262 47.9224Z" fill="white"/>
<path d="M18.3791 47.9224L26.8677 43.0266L18.3791 38.1309L9.90039 43.0266L18.3791 47.9224Z" fill="white"/>
<path d="M46.2131 21.4973L37.7344 16.6016V26.4227L46.2131 31.3185V21.4973Z" fill="white"/>
<path d="M36.7873 16.0599L28.3086 11.1543V20.9557L36.7873 25.8811V16.0599Z" fill="white"/>
<path d="M46.2131 32.4135L37.7344 27.5078V37.3092L46.2131 42.205V32.4135Z" fill="white"/>
<path d="M9.42578 21.4973L17.9144 16.6016V26.4227L9.42578 31.3185V21.4973Z" fill="white"/>
<path d="M18.8516 16.0599L27.3599 11.1543V20.9557L18.8516 25.8811V16.0599Z" fill="white"/>
<path d="M9.42578 32.4135L17.9144 27.5078V37.3092L9.42578 42.205V32.4135Z" fill="white"/>
<path d="M36.7873 37.3092V27.5078L28.3086 32.4135V42.205L36.7873 37.3092Z" fill="white"/>
<path d="M18.8516 37.3092L27.3402 42.205V32.4135L18.8516 27.5078V37.3092Z" fill="white"/>
<path d="M27.8345 21.7754L19.3262 26.7008L27.8345 31.5965L36.3231 26.7008L27.8345 21.7754Z" fill="white"/>
<path d="M94.6286 51.3266L92.8322 45.5721H80.9383L79.0432 51.3266H69.0938L83.169 12.6836H90.4929L104.558 51.3266H94.6286ZM87.0777 27.3413L83.6033 37.6461H90.335L87.0777 27.3413Z" fill="white"/>
<path d="M126.983 47.9111C124.45 50.3088 121.094 51.645 117.606 51.645C114.118 51.645 110.763 50.3088 108.229 47.9111C105.791 45.2559 105.021 42.4823 105.021 36.7278C105.021 30.9733 105.782 28.2095 108.229 25.5445C110.763 23.1468 114.118 21.8105 117.606 21.8105C121.094 21.8105 124.45 23.1468 126.983 25.5445C129.421 28.1997 130.181 31.0226 130.181 36.7278C130.181 42.433 129.421 45.246 126.983 47.9111ZM119.985 30.6476C119.298 30.1256 118.459 29.843 117.596 29.843C116.734 29.843 115.895 30.1256 115.208 30.6476C114.063 31.7827 113.905 33.8456 113.905 36.7278C113.905 39.61 114.073 41.6631 115.208 42.808C115.895 43.33 116.734 43.6126 117.596 43.6126C118.459 43.6126 119.298 43.33 119.985 42.808C121.13 41.6729 121.288 39.61 121.288 36.7278C121.288 33.8456 121.12 31.7827 119.975 30.6476H119.985Z" fill="white"/>
<path d="M149.676 37.5079H143.872V51.3266H134.377V12.6836H149.686C158.244 12.6836 162.863 18.754 162.863 25.1106C162.863 31.4672 158.244 37.5079 149.676 37.5079ZM149.242 21.1722H143.872V29.0193H149.242C149.802 29.0991 150.372 29.0576 150.915 28.8978C151.457 28.7379 151.959 28.4634 152.386 28.0928C152.813 27.7222 153.156 27.2641 153.391 26.7496C153.625 26.2351 153.747 25.6761 153.747 25.1106C153.747 24.545 153.625 23.9861 153.391 23.4716C153.156 22.957 152.813 22.499 152.386 22.1283C151.959 21.7577 151.457 21.4832 150.915 21.3233C150.372 21.1635 149.802 21.1221 149.242 21.2018V21.1722Z" fill="white"/>
<path d="M178.714 51.6534C172.792 51.6534 167.965 50.5676 164.057 46.5503L170.137 40.4701C172.111 42.4442 175.674 43.1845 178.764 43.1845C182.505 43.1845 184.301 41.9408 184.301 39.71C184.351 38.8805 184.078 38.0638 183.541 37.4299C182.821 36.8338 181.928 36.4874 180.994 36.4429L176.326 35.7914C172.91 35.2979 170.305 34.1628 168.567 32.3762C166.83 30.5897 165.912 27.9246 165.912 24.618C165.912 17.5606 171.232 12.4082 180.027 12.4082C185.564 12.4082 189.74 13.7111 193.056 17.0177L187.134 22.94C184.696 20.502 181.488 20.66 179.81 20.66C176.503 20.66 175.141 22.5551 175.141 24.2429C175.149 24.9155 175.422 25.5577 175.901 26.0295C176.634 26.701 177.574 27.1016 178.566 27.1646L183.235 27.8161C186.709 28.3096 189.157 29.3954 190.835 31.0141C192.898 32.9882 193.717 35.9 193.717 39.483C193.638 47.3794 186.857 51.6534 178.714 51.6534Z" fill="white"/>
</svg>
