<svg width="162" height="30" viewBox="0 0 162 30" fill="none" xmlns="http://www.w3.org/2000/svg">
<path d="M60.4803 10.6952C58.7147 8.13658 55.8006 6.62877 52.7069 6.66783C47.3788 6.66783 43.5428 10.867 43.5428 16.6249C43.5428 22.3827 47.3788 26.5819 52.7069 26.5819C55.7733 26.617 58.66 25.121 60.41 22.5936L62.8905 24.8085C60.5858 28.1561 56.7538 30.1053 52.7069 29.992C45.0038 29.992 39.7108 24.3631 39.7108 16.6561C39.4139 9.59752 44.867 3.63267 51.8944 3.33189C52.1639 3.32408 52.4374 3.32017 52.7069 3.32408C56.7967 3.22252 60.6717 5.17955 63.0233 8.54674L60.4803 10.6952Z" fill="#FBFEFC"/>
<path d="M64.793 20.6484C64.7852 15.4805 68.9492 11.2813 74.0938 11.2734C79.2383 11.2656 83.418 15.4492 83.4258 20.6172C83.4336 25.7891 79.2695 29.9844 74.125 29.9961H74.0938C69.1133 30.1484 64.9492 26.2188 64.793 21.2149C64.7852 21.0274 64.7852 20.8359 64.793 20.6484ZM79.6875 20.6172C79.9375 17.5117 77.6328 14.7891 74.5391 14.543C71.4492 14.293 68.7422 16.6094 68.4922 19.7188C68.4688 20.0156 68.4688 20.3164 68.4922 20.6172C68.2461 23.7227 70.5508 26.4453 73.6445 26.6914C76.7344 26.9414 79.4414 24.625 79.6875 21.5195C79.7148 21.2188 79.7148 20.918 79.6875 20.6172Z" fill="#FBFEFC"/>
<path d="M103.379 29.4492L91.2305 10.5234H91.0938V29.4492H87.4609V3.875H91.4297L103.512 22.8008H103.648V3.875H107.277V29.4492H103.379Z" fill="#FBFEFC"/>
<path d="M111.051 20.6484C111.039 15.4805 115.203 11.2813 120.348 11.2734C125.492 11.2656 129.672 15.4492 129.68 20.6172C129.691 25.7891 125.527 29.9844 120.383 29.9961H120.348C115.367 30.1484 111.203 26.2188 111.051 21.2149C111.043 21.0274 111.043 20.8359 111.051 20.6484ZM125.949 20.6172C126.195 17.5117 123.891 14.7891 120.801 14.543C117.707 14.293 115 16.6094 114.754 19.7188C114.73 20.0156 114.73 20.3164 114.754 20.6172C114.508 23.7227 116.812 26.4453 119.902 26.6914C122.996 26.9414 125.703 24.625 125.949 21.5195C125.973 21.2188 125.973 20.918 125.949 20.6172Z" fill="#FBFEFC"/>
<path d="M133.887 15.0547H132.023V11.8398H133.887V7.28125H137.555V11.8516H142.305V15.0586H137.555V26.2109H141.797V29.4492H133.883V15.0508L133.887 15.0547Z" fill="#FBFEFC"/>
<path d="M153.403 29.9971C148.418 30.165 144.239 26.2432 144.071 21.2314C144.067 21.04 144.063 20.8447 144.071 20.6494C143.887 15.6729 147.758 11.4893 152.711 11.3096C152.918 11.2979 153.125 11.2979 153.332 11.3096C158.457 11.3096 161.954 15.2627 161.954 20.6533C161.957 21.0986 161.922 21.5439 161.852 21.9814H147.903C148.223 24.7744 150.645 26.833 153.438 26.6924C155.391 26.7783 157.258 25.8838 158.422 24.3057L160.571 26.5205C158.895 28.7939 156.215 30.0947 153.403 29.9971ZM147.903 19.3213H158.329C158.215 16.6143 155.969 14.4932 153.274 14.5439C150.516 14.4775 148.172 16.5596 147.907 19.3213H147.903Z" fill="#FBFEFC"/>
<path d="M29.25 28.5352C29.2656 28.4883 29.2812 28.4414 29.293 28.3906C29.3086 28.3438 29.3242 28.3047 29.3359 28.2539C29.3516 28.168 29.3633 28.082 29.3594 27.9922V14.6875C29.3633 14.6016 29.3516 14.5156 29.3359 14.4297V14.418C29.3164 14.3398 29.293 14.2578 29.2617 14.1836C29.25 14.1562 29.2383 14.1328 29.2305 14.1133C29.207 14.0547 29.1758 13.9961 29.1445 13.9414C29.1289 13.918 29.1172 13.8945 29.1016 13.8789C29.0547 13.8047 29 13.7383 28.9375 13.6719L15.7461 0.425781C15.6836 0.363281 15.6133 0.308594 15.543 0.257812C15.5195 0.242188 15.4961 0.234375 15.4805 0.21875C15.4258 0.183594 15.3672 0.15625 15.3086 0.128906C15.2852 0.117188 15.2617 0.109375 15.2383 0.0976562C15.1602 0.0703125 15.0781 0.0429688 15 0.0273438C14.9141 0.0078125 14.8281 0 14.7422 0H1.49219C1.40234 0 1.31641 0.0078125 1.23438 0.0273438C1.18359 0.03125 1.13672 0.046875 1.09375 0.0625C1.04688 0.0742188 1 0.0859375 0.957031 0.105469C0.902344 0.125 0.855469 0.15625 0.808594 0.183594C0.773438 0.199219 0.738281 0.21875 0.703125 0.242188C0.542969 0.347656 0.402344 0.488281 0.292969 0.652344C0.273438 0.683594 0.257812 0.722656 0.234375 0.753906C0.210938 0.789062 0.179688 0.851562 0.15625 0.90625C0.140625 0.949219 0.128906 1 0.117188 1.04688C0.0976562 1.08984 0.0859375 1.13672 0.0742188 1.18359C0.0585938 1.26953 0.046875 1.35547 0.046875 1.44141V27.9922C0.046875 28.0781 0.0546875 28.168 0.0703125 28.2539C0.0820312 28.3008 0.0976562 28.3477 0.113281 28.3906C0.128906 28.4336 0.136719 28.4844 0.15625 28.5312C0.175781 28.5781 0.210938 28.6328 0.234375 28.6797C0.261719 28.7305 0.265625 28.75 0.289062 28.7852C0.398438 28.9453 0.539062 29.0859 0.699219 29.1953C0.734375 29.2188 0.773438 29.2344 0.808594 29.2539C0.855469 29.2852 0.90625 29.3086 0.957031 29.3281C1.00781 29.3477 1.05859 29.3594 1.10938 29.375C1.14844 29.3906 1.19141 29.4023 1.23438 29.4102C1.32812 29.4297 1.42578 29.4414 1.51953 29.4414H27.8867C27.9844 29.4414 28.082 29.4297 28.1758 29.4102C28.2227 29.4102 28.2617 29.3867 28.3047 29.375C28.3477 29.3633 28.4023 29.3477 28.4531 29.3281C28.5039 29.3086 28.5469 29.2773 28.6016 29.25C28.6406 29.2344 28.6758 29.2148 28.7109 29.1914C28.8711 29.082 29.0117 28.9414 29.1172 28.7812C29.1406 28.7461 29.1562 28.7109 29.1797 28.6719C29.207 28.6289 29.2305 28.582 29.25 28.5352ZM2.99219 5.03906L12.625 14.7188L2.99219 24.3984V5.03906ZM16.1758 5.03906L24.3359 13.2383H16.1758V5.03906ZM13.2344 11.1484L5.07031 2.94922H13.2305V11.1484H13.2344ZM14.7031 16.8125L24.3359 26.4922H5.07031L14.7031 16.8125ZM18.2578 16.1992H26.418V24.3984L18.2578 16.1992Z" fill="#FBFEFC"/>
</svg>
