<svg width="257" height="48" viewBox="0 0 257 48" fill="none" xmlns="http://www.w3.org/2000/svg">
<path d="M243.127 41.1972C243.127 37.4405 246.177 34.3926 249.931 34.3926C253.688 34.3926 256.734 37.4405 256.734 41.1972C256.734 44.9538 253.688 47.9997 249.931 47.9997C246.177 47.9997 243.127 44.9538 243.127 41.1972Z" fill="#FBFEFC"/>
<path d="M26.1158 23.1764C26.1158 18.8664 25.2831 15.6689 23.6174 13.5858C21.9496 11.5047 19.4233 10.4651 16.027 10.4651H12.4142V36.821H15.1783C18.9508 36.821 21.7153 35.7027 23.4755 33.4581C25.2336 31.2175 26.1158 27.7896 26.1158 23.1764ZM39.0003 22.7275C39.0003 30.5796 36.8896 36.63 32.6682 40.8769C28.4469 45.1258 22.5127 47.2503 14.8634 47.2503H0V0.199219H15.9009C23.2765 0.199219 28.9705 2.13071 32.9832 5.99175C36.9939 9.85476 39.0003 15.4307 39.0003 22.7275Z" fill="#FBFEFC"/>
<path d="M80.1719 47.2519H91.9992V0.00390625H80.1719V47.2519Z" fill="#FBFEFC"/>
<path d="M108.614 29.6275C108.614 32.64 109.008 34.9377 109.793 36.5167C110.581 38.0978 111.9 38.8873 113.755 38.8873C115.59 38.8873 116.887 38.0978 117.643 36.5167C118.399 34.9377 118.775 32.64 118.775 29.6275C118.775 26.6308 118.393 24.3705 117.627 22.8446C116.86 21.3147 115.55 20.5488 113.694 20.5488C111.879 20.5488 110.581 21.3108 109.793 22.8269C109.008 24.3449 108.614 26.6112 108.614 29.6275ZM130.813 29.6275C130.813 35.3669 129.309 39.8442 126.293 43.0536C123.278 46.2649 119.059 47.8714 113.635 47.8714C108.433 47.8714 104.292 46.2294 101.219 42.9452C98.1412 39.6611 96.6035 35.2232 96.6035 29.6275C96.6035 23.9059 98.1099 19.46 101.126 16.2901C104.142 13.1201 108.372 11.5352 113.818 11.5352C117.183 11.5352 120.16 12.2696 122.739 13.7364C125.32 15.2033 127.313 17.3041 128.713 20.0409C130.114 22.7738 130.813 25.9713 130.813 29.6275Z" fill="#FBFEFC"/>
<path d="M135.512 47.2522H147.341V29.1697V12.1562H135.512V47.2522Z" fill="#FBFEFC"/>
<path d="M135.51 7.90911H147.339V0H135.51V7.90911Z" fill="#FBFEFC"/>
<path d="M171.305 38.3002C172.902 38.3002 174.803 37.8946 177.022 37.0893V45.9198C175.428 46.6207 173.912 47.1228 172.47 47.4201C171.029 47.7214 169.338 47.871 167.402 47.871C163.431 47.871 160.568 46.8728 158.81 44.8802C157.06 42.8877 156.181 39.828 156.181 35.6992V21.2316H152.039V12.1589H156.181V3.19637L168.101 1.12305V12.1589H175.648V21.2316H168.101V34.892C168.101 37.1641 169.171 38.3002 171.305 38.3002Z" fill="#FBFEFC"/>
<path d="M198.682 38.3002C200.279 38.3002 202.181 37.8946 204.4 37.0893V45.9198C202.807 46.6207 201.289 47.1228 199.847 47.4201C198.404 47.7214 196.719 47.871 194.779 47.871C190.808 47.871 187.945 46.8728 186.191 44.8802C184.437 42.8877 183.559 39.828 183.559 35.6992V21.2316H179.414V12.1589H183.559V3.06052L195.476 1.12305V12.1589H203.027V21.2316H195.476V34.892C195.476 37.1641 196.546 38.3002 198.682 38.3002Z" fill="#FBFEFC"/>
<path d="M219.326 25.351C219.488 23.4294 220.037 22.0216 220.974 21.1218C221.916 20.224 223.077 19.7751 224.467 19.7751C225.983 19.7751 227.188 20.2791 228.082 21.295C228.982 22.3051 229.451 23.6577 229.488 25.351H219.326ZM236.007 15.6719C233.195 12.9154 229.206 11.5352 224.046 11.5352C218.621 11.5352 214.448 13.1201 211.522 16.2901C208.598 19.46 207.135 24.0083 207.135 29.9347C207.135 35.6741 208.716 40.1001 211.87 43.2071C215.026 46.314 219.458 47.8695 225.166 47.8695C227.907 47.8695 230.266 47.6825 232.243 47.3104C234.208 46.9422 236.109 46.2766 237.954 45.3158L236.137 37.4067C234.796 37.954 233.52 38.3754 232.315 38.653C230.575 39.0566 228.665 39.2595 226.586 39.2595C224.306 39.2595 222.506 38.7022 221.187 37.5878C219.868 36.4714 219.165 34.9318 219.084 32.9708H240.226V27.5818C240.226 22.3977 238.821 18.4264 236.007 15.6719Z" fill="#FBFEFC"/>
<path d="M54.6993 25.351C54.8608 23.4294 55.4101 22.0216 56.3471 21.1218C57.2864 20.224 58.4502 19.7751 59.8423 19.7751C61.3545 19.7751 62.5593 20.2791 63.4552 21.295C64.3549 22.3051 64.8216 23.6577 64.8631 25.351H54.6993ZM71.382 15.6719C68.5685 12.9154 64.5813 11.5352 59.4189 11.5352C53.9925 11.5352 49.8203 13.1201 46.8963 16.2901C43.9726 19.46 42.5078 24.0083 42.5078 29.9347C42.5078 35.6741 44.087 40.1001 47.2451 43.2071C50.3993 46.314 54.8312 47.8695 60.5391 47.8695C63.2799 47.8695 65.6385 47.6825 67.6153 47.3104C69.5803 46.9422 71.4826 46.2766 73.3294 45.3158L71.5101 37.4067C70.1692 37.954 68.8932 38.3754 67.6903 38.653C65.9458 39.0566 64.0379 39.2595 61.9585 39.2595C59.6806 39.2595 57.8793 38.7022 56.5602 37.5878C55.2389 36.4714 54.5381 34.9318 54.4574 32.9708H75.5994V27.5818C75.5994 22.3977 74.1936 18.4264 71.382 15.6719Z" fill="#FBFEFC"/>
</svg>
