<svg width="176" height="52" viewBox="0 0 176 52" fill="none" xmlns="http://www.w3.org/2000/svg">
<path d="M21.7159 17.3075C21.7159 22.5022 21.0232 26.4849 13.0579 26.4849C5.2658 26.4849 4.05369 22.6754 4.05369 17.3075V4.66691C4.05369 1.89637 2.84158 1.55006 0.763672 1.55006V0.857422H10.6337V1.55006C8.55581 1.55006 7.3437 1.89637 7.3437 4.66691V17.3075C7.3437 21.117 8.20949 24.9265 13.2311 24.9265C18.599 24.9265 19.4648 21.8096 19.4648 17.3075V4.66691C19.4648 1.89637 18.2527 1.55006 16.1748 1.55006V0.857422H24.8327V1.55006C22.7548 1.55006 21.5427 1.89637 21.5427 4.66691V17.3075H21.7159Z" fill="#FBFEFC"/>
<path d="M42.6687 25.4466C40.7639 26.1392 38.686 26.4855 35.9155 26.4855C28.2965 26.4855 24.6602 20.7713 24.6602 12.6328C24.6602 5.70648 26.9112 0.511719 35.0497 0.511719C37.9934 0.511719 40.5908 1.03119 42.3223 1.55067L42.6687 7.43806H41.8029C41.2834 5.36016 39.725 1.89699 35.0497 1.89699C28.9891 1.89699 28.4696 8.30386 28.4696 12.2865C28.4696 17.1349 29.5086 24.7539 37.8202 24.7539C40.4176 24.7539 41.6297 24.2344 42.6687 23.8881V25.4466Z" fill="#FBFEFC"/>
<path d="M62.9275 6.39911C62.5812 4.32121 61.0228 2.07015 57.0401 2.07015C54.4427 2.07015 52.1917 3.62857 52.1917 6.22595C52.1917 9.51597 56.6938 10.7281 59.9838 12.6328C62.9275 14.3644 65.0054 15.9228 65.0054 19.5592C65.0054 24.4076 60.8496 26.6587 55.6549 26.6587C53.0575 26.6587 50.1138 26.1392 49.0748 25.966L48.7285 20.5981H49.5943C49.9406 22.676 51.6722 24.9271 55.6549 24.9271C58.9449 24.9271 61.1959 22.8492 61.1959 20.0786C61.1959 15.9228 54.9622 14.7107 51.3259 12.1133C49.5943 10.9012 48.9017 9.51597 48.9017 7.09175C49.248 2.41646 52.8843 0.511719 57.7328 0.511719C60.3301 0.511719 61.8886 0.858036 63.6202 1.20435L63.9665 6.39911H62.9275Z" fill="#FBFEFC"/>
<path d="M80.4171 26.1396C80.0708 26.3127 79.205 26.4859 77.9929 26.4859C76.0882 26.4859 75.3955 25.4469 75.3955 24.0617C74.3566 25.6201 72.9713 26.4859 70.5471 26.4859C68.296 26.3127 66.5645 24.7543 66.5645 22.6764C66.5645 17.828 72.9713 17.828 75.3955 17.4816V16.2695C75.3955 13.8453 75.3955 11.4211 72.625 11.4211C70.5471 11.4211 70.2008 12.2869 70.2008 13.3258C70.2008 14.7111 69.1618 15.0574 68.6424 15.0574C67.7766 15.0574 67.0839 14.3648 67.0839 13.499C67.0839 11.2479 70.3739 10.209 72.625 10.209C77.3003 10.209 77.9929 12.46 77.9929 15.5769V23.8885C77.9929 25.1006 78.3392 25.4469 79.3782 25.4469C79.7245 25.4469 79.8977 25.4469 80.244 25.2738V26.1396H80.4171ZM75.3955 18.5206C73.8371 18.5206 69.5082 18.8669 69.5082 21.9838C69.5082 23.7154 70.7203 24.9275 71.7592 24.9275C74.0103 24.9275 75.3955 22.8496 75.3955 20.5985V18.5206Z" fill="#FBFEFC"/>
<path d="M81.1094 25.4469C82.4946 25.4469 83.7068 25.1006 83.7068 23.0227V13.8453C83.7068 11.7674 82.1483 11.7674 81.1094 11.5943V11.0748L86.3041 10.209V14.7111C86.8236 13.499 88.2089 10.209 91.672 10.209C95.3084 10.209 95.6547 12.1137 95.6547 15.2306V23.0227C95.6547 25.2738 96.8668 25.4469 98.2521 25.4469V25.9664H90.4599V25.4469C91.8452 25.4469 93.0573 25.1006 93.0573 23.0227V16.0964C93.0573 13.1527 93.0573 11.9406 90.8063 11.9406C88.9015 11.9406 86.4773 15.7501 86.4773 18.8669V23.0227C86.4773 25.2738 87.6894 25.4469 89.0747 25.4469V25.9664H81.2825V25.4469H81.1094Z" fill="#FBFEFC"/>
<path d="M102.062 25.2728C104.14 25.2728 105.353 24.9265 105.353 22.1559V4.66691C105.353 1.89637 104.14 1.55006 102.062 1.55006V0.857422H110.894C117.127 0.857422 123.88 2.24269 123.88 13.498C123.88 24.7533 116.954 25.9654 110.894 25.9654H102.062V25.2728ZM108.643 21.4633C108.643 24.2338 108.989 24.5802 110.894 24.5802C117.474 24.5802 120.071 21.117 120.071 13.498C120.071 6.57166 117.993 2.41585 110.894 2.41585C108.989 2.41585 108.643 2.58901 108.643 5.5327V21.4633Z" fill="#FBFEFC"/>
<path d="M125.264 25.4456C126.649 25.4456 127.861 25.0992 127.861 23.0213V13.8439C127.861 11.766 126.303 11.766 125.264 11.5929V11.0734L130.458 10.2076V23.0213C130.458 25.2724 131.671 25.4456 133.056 25.4456V25.965H125.264V25.4456ZM126.995 5.18599C126.995 4.14704 127.861 3.28125 128.9 3.28125C129.939 3.28125 130.805 4.14704 130.805 5.18599C130.805 6.22495 129.939 7.09074 128.9 7.09074C127.861 7.09074 126.995 6.3981 126.995 5.18599Z" fill="#FBFEFC"/>
<path d="M145.178 25.792C144.312 26.1383 143.273 26.4846 141.195 26.4846C136 26.4846 133.057 23.5409 133.057 17.9998C133.057 13.1514 134.961 10.3809 139.81 10.3809C142.754 10.3809 145.524 12.1124 145.524 15.9219V16.6146H135.827C135.827 19.3851 137.212 25.2725 142.754 25.2725C143.446 25.2725 144.485 25.0993 145.178 24.753V25.792ZM142.58 15.4025C142.58 13.6709 141.888 11.2467 139.464 11.2467C136.866 11.2467 135.827 14.0172 135.827 15.4025H142.58Z" fill="#FBFEFC"/>
<path d="M156.433 23.3688C157.992 23.3688 161.801 23.3688 161.801 27.1782C161.801 30.9877 157.992 33.2388 153.49 33.2388C150.199 33.2388 146.736 32.0267 146.736 28.9098C146.736 26.8319 148.295 25.9661 149.334 25.4467C148.814 25.1003 147.948 24.4077 147.948 23.0224C147.948 21.8103 148.987 20.4251 149.334 20.0787C148.641 19.3861 147.429 18.3472 147.429 15.5766C147.429 11.2477 150.546 10.3819 153.836 10.3819C155.394 10.3819 156.26 10.7282 157.299 11.2477C157.818 10.0355 158.684 7.61133 160.762 7.61133C161.628 7.61133 162.321 8.1308 162.321 9.16976C162.321 10.0355 161.801 10.7282 160.762 10.7282C159.896 10.7282 159.723 10.2087 159.204 10.2087C158.511 10.2087 158.165 11.2477 157.992 11.7671C158.338 12.2866 159.55 13.4987 159.55 15.7498C159.55 19.213 157.472 21.1177 153.49 21.1177C152.104 21.1177 151.238 20.9445 150.373 20.5982C150.199 20.7714 149.68 21.2909 149.68 21.9835C149.68 23.3688 151.412 23.3688 152.451 23.3688H156.433ZM150.719 25.793C150.026 26.3125 149.161 26.8319 149.161 28.3904C149.161 30.2951 150.892 32.0267 153.836 32.0267C156.953 32.0267 159.723 30.4683 159.723 28.044C159.723 26.3125 158.338 25.793 156.606 25.793H150.719ZM153.49 19.9056C156.26 19.9056 156.606 17.6545 156.606 15.9229C156.606 13.3256 155.741 11.4208 153.316 11.4208C150.719 11.4208 150.2 13.3256 150.2 15.4035C150.373 17.8277 151.065 19.9056 153.49 19.9056Z" fill="#FBFEFC"/>
<path d="M161.801 18.3474C161.801 13.3258 164.571 10.209 168.9 10.209C173.229 10.209 176 13.1527 176 18.3474C176 23.369 173.229 26.4859 168.9 26.4859C164.571 26.3127 161.801 23.369 161.801 18.3474ZM168.9 25.2738C172.19 25.2738 172.883 21.118 172.883 18.3474C172.883 15.5769 172.19 11.4211 168.9 11.4211C165.61 11.4211 164.918 15.5769 164.918 18.3474C164.918 21.118 165.437 25.2738 168.9 25.2738Z" fill="#FBFEFC"/>
<path d="M145.178 31.8535H0.763672V32.7193H145.871C145.697 32.373 145.351 32.1998 145.178 31.8535Z" fill="#FBFEFC"/>
<path d="M175.653 31.8535H162.32C161.974 32.1998 161.628 32.373 161.281 32.7193H175.48V31.8535H175.653Z" fill="#FBFEFC"/>
<path d="M6.65011 43.7999H4.05273V42.0684H11.3254V43.7999H8.72802V51.5921H6.65011V43.7999Z" fill="#FBFEFC"/>
<path d="M14.7882 42.0684V45.7047H18.4245V42.0684H20.5024V51.5921H18.4245V47.6094H14.7882V51.5921H12.5371V42.0684H14.7882Z" fill="#FBFEFC"/>
<path d="M28.1224 47.6094H24.6593V49.8605H28.4688V51.5921H22.4082V42.0684H28.2956V43.7999H24.4861V45.7047H27.9493V47.6094H28.1224Z" fill="#FBFEFC"/>
<path d="M33.1426 42.2415C34.0084 42.0684 35.0473 42.0684 36.0863 42.0684C37.8179 42.0684 39.03 42.4147 40.0689 43.1073C41.1079 43.7999 41.6273 45.0121 41.6273 46.7436C41.6273 48.6484 40.9347 49.8605 40.0689 50.5531C39.03 51.4189 37.4715 51.7652 35.74 51.7652C34.701 51.7652 33.8352 51.7652 33.3157 51.5921V42.2415H33.1426ZM35.3936 50.0337C35.5668 50.0337 35.9131 50.0337 36.0863 50.0337C37.991 50.0337 39.3763 48.9947 39.3763 46.7436C39.3763 44.8389 38.1642 43.6268 36.4326 43.6268C35.9131 43.6268 35.5668 43.6268 35.3936 43.6268V50.0337Z" fill="#FBFEFC"/>
<path d="M48.9017 47.6094H45.4386V49.8605H49.2481V51.5921H43.1875V42.0684H49.0749V43.7999H45.2654V45.7047H48.7286V47.6094H48.9017Z" fill="#FBFEFC"/>
<path d="M50.8046 49.3416C51.3241 49.688 52.3631 49.8611 53.2289 49.8611C54.2678 49.8611 54.7873 49.5148 54.7873 48.8222C54.7873 48.3027 54.2678 47.9564 53.2289 47.4369C51.6704 46.9174 50.6315 46.0516 50.6315 44.6664C50.6315 43.1079 52.0167 41.7227 54.2678 41.7227C55.3068 41.7227 56.1725 41.8958 56.692 42.2421L56.1725 43.9737C55.8262 43.8006 55.1336 43.4542 54.0946 43.4542C53.2289 43.4542 52.7094 43.8006 52.7094 44.32C52.7094 45.0127 53.2289 45.1858 54.441 45.7053C56.1725 46.3979 56.8652 47.2637 56.8652 48.4758C56.8652 50.0343 55.6531 51.4195 53.0557 51.4195C52.0167 51.4195 50.8046 51.0732 50.2852 50.9001L50.8046 49.3416Z" fill="#FBFEFC"/>
<path d="M60.6749 42.0684V51.5921H58.4238V42.0684H60.6749Z" fill="#FBFEFC"/>
<path d="M70.546 51.2458C69.8534 51.4189 68.6412 51.7652 67.4291 51.7652C65.6975 51.7652 64.4854 51.2458 63.6196 50.5531C62.7538 49.6873 62.2344 48.4752 62.2344 47.09C62.2344 43.9731 64.4854 42.0684 67.7755 42.0684C68.9876 42.0684 70.0265 42.2415 70.3728 42.5878L69.8534 44.3194C69.3339 44.1463 68.6412 43.9731 67.6023 43.9731C65.8707 43.9731 64.4854 45.0121 64.4854 47.09C64.4854 48.9947 65.6975 50.2068 67.4291 50.2068C67.9486 50.2068 68.2949 50.2068 68.4681 50.0337V47.9558H66.9097V46.2242H70.546V51.2458Z" fill="#FBFEFC"/>
<path d="M72.4512 51.5921V42.0684H75.0486L76.9533 45.5315C77.4728 46.5705 78.1654 47.7826 78.5117 48.8215C78.3386 47.6094 78.3386 46.2242 78.3386 44.8389V42.0684H80.4165V51.5921H78.1654L76.0875 47.9558C75.568 46.9168 74.8754 45.7047 74.3559 44.6657C74.3559 45.8778 74.3559 47.2631 74.3559 48.8215V51.7652H72.4512V51.5921Z" fill="#FBFEFC"/>
<path d="M85.4375 42.0684H87.6886V49.8605H91.4981V51.5921H85.6107V42.0684H85.4375Z" fill="#FBFEFC"/>
<path d="M95.1332 49.1679L94.4405 51.5921H92.1895L95.1332 42.0684H97.9037L100.847 51.5921H98.5963L97.9037 49.1679H95.1332ZM97.5574 47.6094L97.0379 45.5315C96.8647 45.0121 96.6916 44.3194 96.5184 43.6268C96.3453 44.1463 96.1721 44.8389 95.9989 45.5315L95.4795 47.6094H97.5574Z" fill="#FBFEFC"/>
<path d="M102.234 42.2415C102.753 42.0684 103.965 42.0684 105.004 42.0684C106.39 42.0684 107.082 42.2415 107.775 42.5878C108.467 42.9342 108.987 43.6268 108.987 44.4926C108.987 45.3584 108.467 46.051 107.428 46.5705C108.467 46.9168 109.333 47.6094 109.333 48.9947C109.333 49.8605 108.987 50.5531 108.294 51.0726C107.602 51.5921 106.39 51.9384 104.485 51.9384C103.446 51.9384 102.58 51.9384 102.061 51.7652V42.2415H102.234ZM104.312 45.8779H105.004C106.216 45.8779 106.736 45.3584 106.736 44.6657C106.736 43.9731 106.216 43.6268 105.177 43.6268C104.658 43.6268 104.485 43.6268 104.312 43.6268V45.8779ZM104.312 50.0337C104.485 50.0337 104.831 50.0337 105.177 50.0337C106.216 50.0337 107.082 49.6873 107.082 48.6484C107.082 47.6094 106.216 47.2631 105.177 47.2631H104.485V50.0337H104.312Z" fill="#FBFEFC"/>
</svg>
