<svg width="272" height="92" viewBox="0 0 272 92" fill="none" xmlns="http://www.w3.org/2000/svg">
<path d="M115.75 47.18C115.75 59.95 105.76 69.36 93.5 69.36C81.24 69.36 71.25 59.95 71.25 47.18C71.25 34.32 81.24 25 93.5 25C105.76 25 115.75 34.32 115.75 47.18ZM106.01 47.18C106.01 39.2 100.22 33.74 93.5 33.74C86.78 33.74 80.99 39.2 80.99 47.18C80.99 55.08 86.78 60.62 93.5 60.62C100.22 60.62 106.01 55.07 106.01 47.18Z" fill="white"/>
<path d="M163.75 47.18C163.75 59.95 153.76 69.36 141.5 69.36C129.24 69.36 119.25 59.95 119.25 47.18C119.25 34.33 129.24 25 141.5 25C153.76 25 163.75 34.32 163.75 47.18ZM154.01 47.18C154.01 39.2 148.22 33.74 141.5 33.74C134.78 33.74 128.99 39.2 128.99 47.18C128.99 55.08 134.78 60.62 141.5 60.62C148.22 60.62 154.01 55.07 154.01 47.18Z" fill="white"/>
<path d="M209.75 26.34V66.16C209.75 82.54 200.09 89.23 188.67 89.23C177.92 89.23 171.45 82.04 169.01 76.16L177.49 72.63C179 76.24 182.7 80.5 188.66 80.5C195.97 80.5 200.5 75.99 200.5 67.5V64.31H200.16C197.98 67 193.78 69.35 188.48 69.35C177.39 69.35 167.23 59.69 167.23 47.26C167.23 34.74 177.39 25 188.48 25C193.77 25 197.97 27.35 200.16 29.96H200.5V26.35H209.75V26.34ZM201.19 47.26C201.19 39.45 195.98 33.74 189.35 33.74C182.63 33.74 177 39.45 177 47.26C177 54.99 182.63 60.62 189.35 60.62C195.98 60.62 201.19 54.99 201.19 47.26Z" fill="white"/>
<path d="M225 3V68H215.5V3H225Z" fill="white"/>
<path d="M262.02 54.48L269.58 59.52C267.14 63.13 261.26 69.35 251.1 69.35C238.5 69.35 229.09 59.61 229.09 47.17C229.09 33.98 238.58 24.99 250.01 24.99C261.52 24.99 267.15 34.15 268.99 39.1L270 41.62L240.35 53.9C242.62 58.35 246.15 60.62 251.1 60.62C256.06 60.62 259.5 58.18 262.02 54.48ZM238.75 46.5L258.57 38.27C257.48 35.5 254.2 33.57 250.34 33.57C245.39 33.57 238.5 37.94 238.75 46.5Z" fill="white"/>
<path d="M35.2904 41.41V32H67.0004C67.3103 33.64 67.4704 35.58 67.4704 37.68C67.4704 44.74 65.5404 53.47 59.3204 59.69C53.2704 65.99 45.5404 69.35 35.3004 69.35C16.3204 69.35 0.360352 53.89 0.360352 34.91C0.360352 15.93 16.3204 0.469971 35.3004 0.469971C45.8004 0.469971 53.2804 4.58997 58.9004 9.95997L52.2603 16.6C48.2304 12.82 42.7704 9.87997 35.2904 9.87997C21.4304 9.87997 10.5904 21.05 10.5904 34.91C10.5904 48.77 21.4304 59.94 35.2904 59.94C44.2803 59.94 49.4004 56.33 52.6804 53.05C55.3404 50.39 57.0904 46.59 57.7803 41.4L35.2904 41.41Z" fill="white"/>
</svg>
