<svg width="215" height="51" viewBox="0 0 215 51" fill="none" xmlns="http://www.w3.org/2000/svg">
<path d="M1.09961 18.6992H6.9997V49.9992H1.09961V18.6992Z" fill="#FBFEFC"/>
<path d="M16.9004 0H22.9005V50.0001H17.0004L16.9004 0Z" fill="#FBFEFC"/>
<path d="M33.0996 0H39.0996V50.0001H33.1996L33.0996 0Z" fill="#FBFEFC"/>
<path d="M75.2997 49.9996H69.3997V45.1996H69.2996C67.7996 48.4995 63.7997 50.7995 58.9997 50.7995C52.8997 50.7995 47.5996 47.1996 47.5996 38.7996V18.5996H53.5996V37.0996C53.5996 42.9995 56.9996 45.1996 60.6996 45.1996C65.6996 45.1996 69.3996 41.9996 69.3996 34.7996V18.6996H75.3996V49.9996H75.2997Z" fill="#FBFEFC"/>
<path d="M82.9004 18.7004H88.5004V23.6004H88.6005C89.2005 21.7004 93.0005 17.9004 98.6005 17.9004C103.201 17.9004 106.4 19.9004 108.4 23.7004C110.5 19.9004 114.6 17.9004 118.3 17.9004C127.9 17.9004 130.201 24.8004 130.201 31.8004V50.0004H124.3V32.6004C124.3 27.8004 123.3 23.5004 117.5 23.5004C111.7 23.5004 109.5 27.4004 109.5 33.0004V50.1003H103.5V33.7004C103.5 27.8004 102.601 23.5004 96.9005 23.5004C92.6005 23.5004 88.8005 26.7004 88.8005 33.8004V50.1003H83.0005L82.9004 18.7004Z" fill="#FBFEFC"/>
<path d="M138.4 18.6992H144.4V49.9992H138.4V18.6992Z" fill="#FBFEFC"/>
<path d="M153.1 18.7004H159V23.5004H159.1C160.6 20.2003 164.6 17.9004 169.4 17.9004C175.5 17.9004 180.8 21.5003 180.8 29.9003V50.1003H174.8V31.6004C174.8 25.7004 171.4 23.5004 167.7 23.5004C162.7 23.5004 159 26.7004 159 33.9004V50.0004H153V18.7004H153.1Z" fill="#FBFEFC"/>
<path d="M208.7 34.9008V36.9007C208.7 41.1007 206.4 46.0008 199.8 46.0008C195.7 46.0008 193.1 44.5008 193.1 40.9008C193.1 35.9008 200 34.9008 205.6 34.9008H208.7ZM192.2 26.2008C194.4 24.5008 196.6 22.6007 201.1 22.6007C206.2 22.6007 208.6 26.0008 208.6 29.2007V30.5007H204.2C194.7 30.5007 187 33.3008 187 41.3008C187 47.4008 192 50.7007 197.8 50.7007C202.6 50.7007 206.1 49.2007 208.8 45.1007H208.9C208.9 46.7007 209 48.3008 209.1 49.9008H214.4C214.2 48.2008 214.1 46.4007 214.1 44.2007V28.2008C214.1 22.8008 210.3 17.8008 201 17.8008C196.6 17.8008 191.9 19.3007 188.6 22.4007L192.2 26.2008Z" fill="#FBFEFC"/>
<path d="M3.99995 3.69922C1.79996 3.69922 0 5.49918 0 7.69916C0 9.89915 1.79996 11.6992 3.99995 11.6992C6.19997 11.6992 8.00001 9.89915 8.00001 7.69916C8.00001 5.49918 6.19997 3.69922 3.99995 3.69922Z" fill="#FBFEFC"/>
</svg>
