<svg width="110" height="114" viewBox="0 0 110 114" fill="none" xmlns="http://www.w3.org/2000/svg">
<path d="M13.017 11.3122L68.35 7.22524C75.147 6.64224 76.893 7.03524 81.167 10.1422L98.83 22.5852C101.743 24.7252 102.713 25.3082 102.713 27.6382V95.8812C102.713 100.158 101.16 102.688 95.723 103.074L31.467 106.966C27.387 107.159 25.444 106.576 23.307 103.853L10.3 86.9392C7.967 83.8262 7 81.4962 7 78.7722V18.1122C7 14.6152 8.553 11.6992 13.017 11.3122Z" fill="black"/>
<path fill-rule="evenodd" clip-rule="evenodd" d="M32.9186 26.5223C27.6716 26.8753 26.4816 26.9553 23.5016 24.5323L15.9256 18.5063C15.1556 17.7263 15.5426 16.7533 17.4826 16.5593L70.6755 12.6723C75.1425 12.2823 77.4686 13.8393 79.2156 15.1993L88.3385 21.8093C88.7285 22.0063 89.6985 23.1693 88.5315 23.1693L33.5986 26.4763L32.9186 26.5223ZM26.8016 95.2993V37.3663C26.8016 34.8363 27.5786 33.6693 29.9046 33.4733L92.9986 29.7793C95.1385 29.5863 96.1056 30.9463 96.1056 33.4723V91.0193C96.1056 93.5493 95.7155 95.6893 92.2225 95.8823L31.8456 99.3823C28.3526 99.5753 26.8026 98.4123 26.8026 95.2993H26.8016ZM86.4016 40.4723C86.7886 42.2223 86.4016 43.9723 84.6516 44.1723L81.7415 44.7493V87.5223C79.2145 88.8823 76.8885 89.6593 74.9445 89.6593C71.8376 89.6593 71.0616 88.6863 68.7346 85.7723L49.7046 55.8323V84.7993L55.7246 86.1623C55.7246 86.1623 55.7245 89.6623 50.8675 89.6623L37.4776 90.4393C37.0876 89.6593 37.4776 87.7163 38.8346 87.3293L42.3316 86.3593V48.0593L37.4786 47.6663C37.0886 45.9163 38.0586 43.3893 40.7786 43.1933L55.1455 42.2263L74.9455 72.5533V45.7233L69.8986 45.1433C69.5086 43.0003 71.0616 41.4433 73.0015 41.2533L86.4016 40.4723Z" fill="#FBFEFC"/>
<path fill-rule="evenodd" clip-rule="evenodd" d="M13.017 11.3134L68.35 7.22638V7.22538C71.5281 6.95279 73.6021 6.89357 75.3465 7.22538C75.3477 7.2256 75.3488 7.22582 75.35 7.22604C77.3347 7.60426 78.8932 8.48908 81.167 10.1424L99.271 22.9064L99.2837 22.9157C101.844 24.7945 102.714 25.433 102.714 27.6394V95.8824C102.714 100.158 101.157 102.688 95.724 103.075L31.467 106.965C27.387 107.159 25.444 106.575 23.307 103.852L10.3 86.9394C7.967 83.8254 7 81.4954 7 78.7724V18.1124C7 14.6164 8.553 11.6994 13.017 11.3134ZM85.2414 4.45013C82.9203 2.76494 80.4843 1.20783 77.2563 0.474197C74.2521 -0.208587 71.1168 -0.0376412 67.7518 0.250985L67.7091 0.254649L12.4576 4.33562L12.414 4.3394C8.64865 4.66499 5.1852 6.19926 2.81265 9.2444C0.583418 12.1056 0 15.4333 0 18.1124V78.7724C0 83.5822 1.87517 87.3689 4.69784 91.1365L4.72428 91.1718L17.7791 108.147L17.8003 108.174C19.39 110.2 21.3981 112.032 24.2528 113.076C26.8675 114.033 29.5224 114.066 31.7995 113.957L31.8447 113.955L96.1842 110.06L96.2214 110.058C99.8281 109.801 103.723 108.734 106.514 105.559C109.245 102.452 109.714 98.6718 109.714 95.8824V27.6394C109.714 25.3846 109.198 22.9881 107.412 20.7661C106.267 19.3414 104.676 18.1831 103.678 17.4567C103.584 17.3882 103.495 17.3236 103.412 17.2629L103.359 17.2236L85.2414 4.45013Z" fill="#FBFEFC"/>
</svg>
