<svg width="249" height="120" viewBox="0 0 249 120" fill="none" xmlns="http://www.w3.org/2000/svg">
<g clip-path="url(#clip0_5006_23435)">
<path d="M58.8899 120C58.612 119.94 58.3357 119.837 58.0562 119.828C53.9552 119.7 49.9389 119.031 45.9844 117.97C39.4054 116.204 33.3188 113.357 27.7112 109.512C18.1887 102.982 10.8267 94.5648 5.71152 84.2152C3.18917 79.1123 1.46406 73.748 0.559943 68.127C0.0350474 64.8683 -0.0749986 61.5851 0.0429644 58.2932C0.371519 49.1346 2.60094 40.4524 6.91015 32.3656C14.7432 17.6658 26.602 7.69535 42.5342 2.62957C45.9543 1.54201 49.4623 0.843831 53.0329 0.444191C55.7864 0.136169 58.5463 -0.0620713 61.3148 0.0176986C69.4392 0.25227 77.2549 1.90374 84.6644 5.27777C96.5248 10.6784 105.727 19.025 112.239 30.2979C115.693 36.2767 117.993 42.6828 119.178 49.4861C119.581 51.7931 119.901 54.108 119.969 56.4506C120.026 58.3958 120.147 60.3459 120.066 62.2872C119.766 69.4949 118.302 76.4649 115.472 83.1174C110.118 95.7029 101.508 105.436 89.6244 112.252C84.0025 115.477 77.9824 117.655 71.6085 118.859C68.6531 119.417 65.6763 119.774 62.667 119.843C62.3037 119.852 61.9426 119.947 61.58 120.001H58.8891L58.8899 120ZM20.1655 42.6709C21.1441 42.9908 22.334 43.8951 23.1827 44.9384C24.7234 46.8324 25.3488 49.0154 25.1263 51.4195C25.0495 52.2512 25.344 52.7519 25.9964 53.1887C27.4745 54.1775 29.0666 54.9262 30.7371 55.5162C33.1359 56.3629 35.5894 56.9221 38.1561 56.885C38.5614 56.8794 38.8559 56.7973 39.0547 56.404C39.7973 54.9357 40.1124 53.3798 39.9904 51.7489C39.9271 50.899 39.7609 50.0563 39.6318 49.1386C40.4393 49.5414 41.1424 50.0074 41.733 50.6037C42.3236 51.2 42.8944 51.8302 43.3742 52.5158C43.8476 53.1926 44.1959 53.9564 44.6187 54.7177C44.7731 54.6301 44.9124 54.5929 44.9869 54.5021C45.484 53.8932 46.0461 53.3182 46.4396 52.6469C47.6984 50.4994 47.7562 48.1308 47.4894 45.7503C47.2638 43.734 46.7325 41.7776 46.0279 39.8718C45.9614 39.6918 45.9313 39.4991 45.8688 39.2503C46.0857 39.3095 46.2179 39.3285 46.3367 39.3798C48.1418 40.1593 49.7964 41.1766 51.2365 42.5216C54.7889 45.8396 56.8069 50.0003 57.8717 54.6656C58.0317 55.3662 58.3301 55.7129 59.0292 55.9301C61.7162 56.7665 63.929 58.3271 65.7452 60.4738C66.1664 60.9722 66.2487 61.4295 66.0674 62.0471C65.2789 64.7364 64.2021 67.3008 62.8206 69.7366C58.9176 76.615 53.3583 81.65 46.0271 84.6946C43.5135 85.7388 40.9112 86.4946 38.225 86.9408C37.5964 87.0451 37.1277 87.267 36.967 87.9281C36.9424 88.0292 36.8838 88.1208 36.8458 88.2187C35.1191 92.6345 34.1841 97.1743 34.6037 101.945C34.7842 104.002 35.2308 105.99 35.9148 107.934C36.0739 108.386 36.3415 108.689 36.7888 108.881C37.5631 109.212 38.3113 109.606 39.0863 109.937C42.5658 111.424 46.2092 112.36 49.9073 113.107C50.4132 113.209 50.9206 113.299 51.6292 113.432C50.8755 110.239 50.3063 107.178 50.3126 104.043C50.3189 100.888 50.7124 97.7824 51.3798 94.6548C51.4637 94.7512 51.5191 94.7843 51.5255 94.8254C51.873 97.0921 52.4565 99.302 53.1651 101.478C54.5585 105.76 56.4902 109.776 59.1535 113.427C59.4773 113.871 59.8264 114.078 60.3949 114.074C62.4256 114.063 64.4484 114.008 66.4704 113.766C69.3806 113.417 72.2387 112.842 75.0452 112.008C75.2843 111.937 75.5147 111.839 75.8409 111.718C75.6137 111.335 75.4498 111.042 75.2717 110.76C71.9956 105.545 69.2682 100.072 67.4133 94.1865C66.5226 91.3614 65.8489 88.4881 65.5029 85.535C65.6407 85.6993 65.7373 85.8801 65.8354 86.0602C68.7821 91.4624 72.1579 96.574 76.2217 101.213C78.4337 103.737 80.8468 106.045 83.5789 108.014C84.046 108.35 84.4205 108.381 84.9359 108.101C89.6679 105.534 93.9565 102.36 97.9142 98.7286C98.0987 98.5588 98.2499 98.3535 98.4019 98.1813C98.3227 98.0644 98.3029 98.0083 98.2634 97.9807C98.1114 97.8772 97.957 97.7761 97.7963 97.6877C92.5513 94.7851 87.9689 91.0683 84.0706 86.5214C81.6084 83.6497 79.5001 80.5395 77.8589 77.1244C77.7813 76.9625 77.7386 76.784 77.6792 76.6126C78.5279 77.3108 79.2492 78.0769 80.0203 78.7901C84.4918 82.9294 89.5602 86.1566 95.1441 88.5868C97.4408 89.5867 99.8 90.4175 102.209 91.1062C103.126 91.3685 103.131 91.3669 103.566 90.4697C103.785 90.0203 104.001 89.5685 104.199 89.1096C106.212 84.4498 107.683 79.6454 108.211 74.5725C108.463 72.1526 108.464 69.7453 108.145 67.3364C108.12 67.1453 108.006 66.9652 107.936 66.7859C100.285 68.5124 92.7389 68.5148 85.1243 66.455C87.1899 66.2038 89.1454 66.0079 91.0874 65.7212C94.8068 65.1715 98.3964 64.1527 101.812 62.5636C103.85 61.6151 105.811 60.5417 107.442 58.955C108.792 57.6416 109.811 56.1425 110.167 54.2518C110.286 53.6215 110.178 53.1911 109.586 52.7914C107.97 51.7023 106.409 50.5302 104.83 49.3858C104.561 49.1907 104.312 48.9696 103.985 48.7042C104.173 48.6916 104.253 48.6694 104.325 48.6829C106.288 49.0651 108.251 49.449 110.213 49.8376C111.193 50.0318 111.3 49.986 111.776 49.1101C112.09 48.5312 112.11 48.483 111.643 48.0147C110.619 46.9895 109.608 45.947 108.525 44.989C103.802 40.8141 98.4692 37.6067 92.6668 35.1638C86.2256 32.4517 79.5112 30.8421 72.5364 30.4487C69.8857 30.2995 67.213 30.4456 64.5537 30.5427C61.7313 30.6462 58.9587 31.1667 56.2013 31.7535C55.5156 31.8996 54.8284 32.041 54.0882 32.1958C54.1428 31.9494 54.1618 31.793 54.2117 31.6469C55.6502 27.4254 59.064 24.4842 63.9361 24.0134C65.0952 23.9013 65.0889 23.9297 65.4356 22.8351C67.5281 16.2315 72.7992 11.6104 80.2427 10.8854C80.827 10.8285 81.4081 10.7471 81.9908 10.6769C82.0019 10.6216 82.0138 10.5663 82.0248 10.511C81.8341 10.3996 81.6527 10.2701 81.4524 10.1809C75.4815 7.51923 69.1875 6.25476 62.6892 5.9104C61.2974 5.83695 59.8969 5.85354 58.5027 5.90251C56.8987 5.95858 55.2948 6.06757 53.6947 6.20658C50.4298 6.48933 47.2424 7.17961 44.1081 8.11948C40.2272 9.28364 36.5466 10.9027 33.0766 12.9933C32.8264 13.1442 32.4757 13.2161 32.4147 13.5446C34.4454 14.3573 36.4674 15.0989 38.4324 15.9709C40.4195 16.8531 42.2579 18.0078 43.9299 19.4184C43.8048 19.4555 43.7043 19.446 43.6085 19.4192C41.5168 18.8458 39.3785 18.552 37.2211 18.4185C35.0289 18.2826 32.8478 18.4524 30.6912 18.8655C26.3661 19.6948 22.5676 21.5745 19.3406 24.5845C16.785 26.9689 14.9609 29.8982 13.144 32.8331C13.0688 32.9548 13.0506 33.1119 12.9738 33.3544C14.5872 32.9485 16.0946 32.5109 17.6274 32.1989C19.1728 31.8846 20.7364 31.6184 22.3055 31.4731C23.9031 31.3254 25.5198 31.2725 27.1238 31.3223C28.6993 31.3712 30.2708 31.5908 31.8423 31.7543C33.4708 31.9233 35.7691 32.4564 36.2806 32.7336C34.5246 32.89 32.6839 33.0053 30.8558 33.2265C27.3557 33.6498 23.9902 34.5904 20.7704 36.0287C15.1137 38.5552 10.647 42.4308 7.48176 47.7643C7.23158 48.1853 7.02653 48.6615 6.92757 49.1386C6.43988 51.4811 6.11845 53.8458 5.93715 56.2357C5.73527 58.895 5.77406 61.5448 5.9902 64.1969C6.00366 64.3596 6.09945 64.516 6.18575 64.7561C7.28146 63.569 8.27108 62.412 9.35333 61.3489C10.4419 60.2803 11.5828 59.2544 12.775 58.3034C13.9681 57.3525 15.2246 56.4727 16.5079 55.6465C17.7794 54.8283 19.1189 54.1167 20.6303 53.2416C20.2867 52.9928 20.031 52.8459 19.8227 52.6508C18.5172 51.4227 17.8878 49.8834 17.9828 48.1182C18.0818 46.2669 18.7896 44.5933 19.8196 43.0587C19.9185 42.911 20.0587 42.7917 20.1671 42.6717L20.1655 42.6709ZM41.505 64.4039C41.5097 63.0825 40.927 62.0581 39.8202 61.3521C38.468 60.4888 37.0715 60.5204 35.7501 61.4121C34.6932 62.1253 34.1224 63.1339 34.1683 64.4315C34.9046 64.659 40.8067 64.6376 41.505 64.4046V64.4039ZM74.7579 21.009V21.0122C75.6248 21.0122 76.4917 21.0225 77.3586 21.009C78.0125 20.9988 78.0806 20.8992 77.9619 20.2516C77.6856 18.7541 76.2898 17.605 74.7634 17.6192C73.2172 17.6334 71.7834 18.86 71.557 20.3622C71.485 20.84 71.5871 20.9932 72.0788 21.0035C72.9718 21.0232 73.8648 21.009 74.7579 21.009Z" fill="#FBFEFC"/>
<path d="M136.583 56.4999C136.583 51.8148 136.582 47.1305 136.583 42.4454C136.583 41.2923 136.62 41.2559 137.788 41.2551C141.348 41.2528 144.909 41.233 148.469 41.2607C151.363 41.2828 154.197 41.6619 156.846 42.9327C161.509 45.1702 164.2 48.8522 164.912 53.9591C165.298 56.7313 165.149 59.4766 164.194 62.128C162.721 66.2184 159.852 68.9519 155.827 70.5228C153.666 71.3663 151.41 71.7336 149.104 71.7525C145.253 71.7841 141.403 71.762 137.552 71.762C137.394 71.762 137.235 71.758 137.077 71.7588C136.745 71.7588 136.603 71.574 136.594 71.2644C136.586 71.0014 136.582 70.7384 136.582 70.4754C136.582 65.8172 136.582 61.1581 136.582 56.4999H136.583ZM144.503 56.5078H144.505C144.505 59.058 144.5 61.6083 144.508 64.1586C144.51 64.931 144.6 65.0313 145.375 65.025C146.875 65.0131 148.381 65.0463 149.872 64.9184C152.31 64.7083 154.215 63.518 155.474 61.4195C156.655 59.4522 156.911 57.2992 156.633 55.0364C156.054 50.3189 152.471 48.1864 148.883 48.0711C147.725 48.034 146.565 48.0522 145.406 48.0537C144.549 48.0545 144.523 48.0869 144.505 48.936C144.501 49.0671 144.503 49.199 144.503 49.3301C144.503 51.7224 144.503 54.1155 144.503 56.5078Z" fill="#FBFEFC"/>
<path d="M223.589 49C224.11 51.5929 224.04 53.9023 221.977 55.7109C221.473 56.1524 221.305 56.6263 221.296 57.285C221.258 59.9348 220.007 61.888 217.708 63.1793C216.354 63.9399 214.878 64.2763 213.342 64.4469C211.861 64.6112 210.397 64.563 208.937 64.3008C208.546 64.2305 208.339 64.4003 208.22 64.7423C208.046 65.2438 208.22 65.7825 208.727 66.0107C209.074 66.1679 209.482 66.2572 209.865 66.2619C212.132 66.2887 214.401 66.2564 216.668 66.299C217.585 66.3164 218.514 66.4017 219.413 66.5786C221.9 67.0683 224.164 68.8595 224.142 72.4042C224.125 75.1408 222.928 77.1935 220.564 78.5662C218.868 79.5503 217.003 80.0155 215.078 80.194C213.638 80.3275 212.183 80.3906 210.738 80.3472C208.739 80.2872 206.736 80.1308 204.829 79.4389C204.263 79.2336 203.705 78.9824 203.184 78.6815C200.446 77.1011 200.245 73.3812 202.792 71.3656C203.076 71.1413 203.369 70.9304 203.736 70.654C202.492 69.4756 201.761 68.1432 201.918 66.4285C202.076 64.7052 203.02 63.5221 204.528 62.6083C204.312 62.3532 204.168 62.1462 203.989 61.9756C201.086 59.2011 201.079 52.8653 206.03 50.5891C207.292 50.0086 208.614 49.6492 209.981 49.5489C212.171 49.3886 214.349 49.4676 216.457 50.2234C217.813 50.7099 219.216 50.8774 220.655 50.6254C221.484 50.4801 222.198 50.1136 222.848 49.5995C223.067 49.4265 223.282 49.2488 223.589 49ZM212.172 72.326V72.3149C211.039 72.3149 209.906 72.3165 208.774 72.3149C207.986 72.3133 207.627 72.6972 207.724 73.4807C207.788 74.0043 208.03 74.4521 208.523 74.6725C208.95 74.8628 209.407 75.0224 209.866 75.0982C211.594 75.3817 213.331 75.3335 215.055 75.0745C215.611 74.9908 216.17 74.7641 216.668 74.494C217.107 74.2563 217.295 73.7895 217.192 73.2714C217.094 72.7738 216.746 72.5076 216.271 72.4144C215.989 72.3592 215.698 72.3331 215.411 72.3307C214.331 72.3212 213.251 72.326 212.172 72.326ZM211.773 59.6339C211.846 59.6307 212.005 59.6339 212.162 59.6149C213.494 59.4546 214.426 58.4981 214.552 57.1713C214.661 56.0261 213.94 54.9448 212.8 54.5499C211.968 54.2617 211.138 54.279 210.332 54.6305C209.379 55.0459 208.837 55.7765 208.788 56.8253C208.71 58.4966 209.899 59.6394 211.773 59.6339Z" fill="#FBFEFC"/>
<path d="M136.517 25.1327C136.855 25.4123 137.056 25.571 137.249 25.7385C139.639 27.8156 142.404 29.0912 145.543 29.4932C146.605 29.629 147.702 29.7009 148.759 29.3644C149.773 29.0414 150.268 28.4032 150.321 27.4207C150.363 26.6436 150.082 26.0244 149.41 25.6224C149.028 25.3941 148.624 25.1927 148.21 25.03C146.421 24.3287 144.626 23.6415 142.829 22.9584C141.203 22.3399 139.735 21.4838 138.614 20.1285C137.015 18.1959 136.439 15.9583 136.763 13.495C137.259 9.71813 139.529 7.35979 142.944 5.96816C144.52 5.32605 146.17 5.04883 147.877 5.02513C149.922 4.99591 151.943 5.13018 153.861 5.86785C154.936 6.28092 155.947 6.85905 156.983 7.37084C157.319 7.5367 157.468 7.80286 157.466 8.19697C157.451 10.5127 157.458 12.8276 157.454 15.1433C157.454 15.2128 157.413 15.2823 157.373 15.4086C157.197 15.2902 157.047 15.1986 156.907 15.0935C154.617 13.3781 152.036 12.4082 149.2 12.0994C148.454 12.018 147.728 12.142 147.044 12.4572C145.757 13.0503 145.746 14.6757 146.695 15.3873C147.006 15.6211 147.36 15.8154 147.721 15.9631C149.524 16.7008 151.351 17.3816 153.138 18.1564C154.026 18.541 154.903 19.003 155.682 19.5701C157.751 21.077 158.749 23.1906 158.883 25.7179C158.958 27.1419 158.883 28.5525 158.42 29.9244C157.442 32.8214 155.425 34.6877 152.625 35.7792C151.041 36.3968 149.389 36.6519 147.691 36.7546C145.286 36.9007 142.966 36.5714 140.721 35.7247C139.356 35.2098 138.105 34.4808 137.003 33.5156C136.745 33.2897 136.509 33.067 136.512 32.6658C136.524 30.2206 136.518 27.7754 136.518 25.1303L136.517 25.1327Z" fill="#FBFEFC"/>
<path d="M162.33 100.632V107.635C161.723 107.808 136.854 107.871 135.473 107.702C135.659 107.382 135.819 107.095 135.989 106.814C140.295 99.6988 144.603 92.5843 148.908 85.4682C149.08 85.1839 149.224 84.8845 149.459 84.4485C149.015 84.428 148.716 84.402 148.417 84.402C144.831 84.3988 141.243 84.4004 137.657 84.3996C136.943 84.3996 136.585 84.0321 136.583 83.297C136.581 81.6914 136.58 80.0865 136.583 78.4808C136.584 77.3087 136.618 77.2716 137.767 77.2708C141.327 77.2685 144.888 77.27 148.448 77.27C152.747 77.27 157.045 77.27 161.344 77.27H162.356C159.976 81.2578 157.687 85.0875 155.403 88.9212C153.12 92.7525 150.819 96.5744 148.452 100.582C149.538 100.67 150.423 100.622 151.303 100.63C152.227 100.639 153.15 100.632 154.073 100.632H159.532C160.425 100.632 161.318 100.632 162.329 100.632L162.33 100.632Z" fill="#FBFEFC"/>
<path d="M174.846 85.4269C178.362 85.4459 181.069 86.1662 183.41 87.9788C185.734 89.7787 186.996 92.1829 187.389 95.0799C187.63 96.8522 187.528 98.5905 187.063 100.312C186.344 102.971 184.807 105.036 182.481 106.506C178.224 109.195 172.006 109.072 167.891 106.178C165.112 104.224 163.66 101.491 163.398 98.1245C163.272 96.5181 163.318 94.9148 163.792 93.3573C164.924 89.6437 167.435 87.2908 171.081 86.0864C172.491 85.6204 173.945 85.3985 174.845 85.4261L174.846 85.4269ZM171.285 96.7898C171.319 97.6641 171.465 98.4855 171.853 99.2524C172.584 100.7 173.754 101.431 175.396 101.442C177.068 101.453 178.296 100.744 179.016 99.2508C179.659 97.9184 179.714 96.526 179.261 95.1107C178.826 93.753 177.723 92.3969 175.438 92.3764C173.423 92.3582 172.159 93.4742 171.654 95.0317C171.47 95.598 171.406 96.2022 171.286 96.789L171.285 96.7898Z" fill="#FBFEFC"/>
<path d="M248.995 60.8599C249.037 62.5493 248.732 64.1652 248.065 65.7085C246.75 68.7477 244.429 70.6953 241.321 71.7094C238.355 72.6777 235.352 72.6967 232.4 71.6612C228.15 70.1701 225.609 67.2123 224.953 62.7152C224.691 60.9231 224.787 59.1532 225.274 57.4077C226.024 54.7232 227.62 52.6728 229.989 51.2204C234.171 48.6567 240.348 48.802 244.395 51.5798C246.841 53.2589 248.301 55.5912 248.786 58.5118C248.914 59.2851 248.929 60.0772 248.996 60.8599H248.995ZM241.099 60.9073C240.963 60.2352 240.903 59.5733 240.693 58.962C240.085 57.1834 238.702 56.3612 236.957 56.3454C235.066 56.328 233.738 57.3027 233.141 58.977C232.692 60.2312 232.71 61.5044 233.147 62.7633C233.709 64.3809 235.056 65.3776 236.7 65.4092C238.646 65.4463 240.025 64.5981 240.65 62.8897C240.88 62.2595 240.954 61.5715 241.099 60.9073Z" fill="#FBFEFC"/>
<path d="M188.965 96.8534C188.954 93.6516 189.954 90.8557 192.311 88.6229C194.004 87.0196 196.052 86.0798 198.328 85.6754C201.189 85.1667 204.009 85.3579 206.681 86.5765C210.437 88.2904 212.545 91.2174 213.048 95.3252C213.31 97.4639 213.082 99.5301 212.293 101.515C211.164 104.356 209.103 106.329 206.274 107.436C202.713 108.828 199.1 108.853 195.584 107.314C191.562 105.555 189.383 102.414 189.027 98.0358C188.995 97.6432 188.986 97.2483 188.965 96.8542V96.8534ZM200.892 101.436C202.921 101.525 204.321 100.107 204.76 98.5665C205.055 97.5303 205.115 96.4972 204.83 95.4594C204.274 93.4328 202.915 92.3816 200.873 92.38C198.643 92.3784 197.407 93.755 196.989 95.4357C196.788 96.2429 196.766 97.0548 196.887 97.8581C197.229 100.109 198.879 101.528 200.892 101.436Z" fill="#FBFEFC"/>
<path d="M184.444 30.2643C184.899 32.2064 183.68 34.9984 181.961 36.0377C180.693 36.8046 179.305 36.8102 177.899 36.7012C176.691 36.6072 176.01 36.217 174.318 34.688C174.198 34.763 174.053 34.8278 173.94 34.9281C172.643 36.0843 171.081 36.5772 169.39 36.7004C167.86 36.811 166.335 36.8141 164.867 36.2447C162.77 35.4312 161.245 34.0569 160.754 31.8107C160.133 28.9611 161.361 26.542 163.624 25.0856C164.996 24.2034 166.511 23.6884 168.101 23.3859C169.599 23.1008 171.105 22.8504 172.606 22.5772C172.809 22.54 173.004 22.4642 173.231 22.3979C173.297 21.7384 172.907 21.3396 172.502 20.9739C171.855 20.3902 171.054 20.0782 170.209 19.9953C167.506 19.7291 164.953 20.1801 162.69 21.7795C162.202 22.1246 161.764 22.5393 161.194 23.0116C161.263 22.3197 161.292 21.7289 161.383 21.1492C161.986 17.3155 164.473 14.7866 168.329 14.0442C170.675 13.5924 172.998 13.6611 175.277 14.3782C178.222 15.3055 180.019 17.3353 180.689 20.3175C180.911 21.3087 180.982 22.345 181.016 23.3646C181.068 24.9418 181.029 26.5222 181.03 28.101C181.03 28.3111 181.023 28.5228 181.039 28.7321C181.132 29.9902 182.056 30.7358 183.312 30.5463C183.695 30.4886 184.068 30.3607 184.444 30.2643ZM173.372 27.0008C172.01 27.2291 170.798 27.4273 169.655 27.9131C169.512 27.9739 169.39 28.0821 169.264 28.1776C168.694 28.6152 168.576 29.2202 168.7 29.8741C168.819 30.5028 169.257 30.9064 169.858 31.0375C171.061 31.2989 172.16 31.0581 173.06 30.1711C173.202 30.0313 173.35 29.8204 173.358 29.6372C173.389 28.8055 173.372 27.9715 173.372 27.0008Z" fill="#FBFEFC"/>
<path d="M194.009 14.3887C194.048 15.233 194.079 15.9264 194.12 16.8134C194.418 16.5346 194.568 16.4106 194.699 16.27C196.587 14.2433 198.944 13.5538 201.646 13.8295C202.733 13.9408 203.77 14.2149 204.721 14.763C206.719 15.9161 207.719 17.7358 208.088 19.937C208.213 20.6842 208.259 21.4526 208.261 22.2109C208.277 26.4742 208.269 30.7375 208.269 35.0009V35.9052C207.645 36.1556 201.649 36.2093 200.668 35.9834C200.653 35.7022 200.623 35.3958 200.622 35.0901C200.619 31.5376 200.622 27.9843 200.617 24.4318C200.617 24.0645 200.623 23.6878 200.547 23.3324C200.154 21.4929 198.498 20.572 196.611 21.1225C195.25 21.519 193.991 22.9864 194.031 24.5171C194.119 27.9622 194.059 31.4112 194.058 34.8587C194.058 35.0696 194.066 35.2805 194.052 35.4906C194.019 36.0126 193.96 36.1027 193.448 36.105C191.312 36.1177 189.176 36.1074 187.04 36.1098C186.649 36.1098 186.454 35.9297 186.451 35.5387C186.45 35.3279 186.443 35.1178 186.443 34.9069C186.443 28.459 186.443 22.0118 186.443 15.5639C186.443 14.7799 186.83 14.3876 187.604 14.3871C189.423 14.3871 191.243 14.3871 193.063 14.3871C193.345 14.3871 193.628 14.3871 194.009 14.3871V14.3887Z" fill="#FBFEFC"/>
<path d="M200.194 61.71C199.842 61.71 199.503 61.71 199.164 61.71C195.313 61.71 191.462 61.7077 187.611 61.714C187.254 61.714 186.898 61.7677 186.521 61.7985C186.456 62.3308 186.628 62.7075 186.834 63.0716C187.279 63.8559 187.958 64.3811 188.749 64.7847C189.773 65.3076 190.876 65.5943 192.006 65.6772C194.065 65.828 196.12 65.7696 198.099 65.0762C198.716 64.8605 199.307 64.5738 199.958 64.299C200.148 64.9522 199.93 65.5832 199.79 66.1969C199.155 69.0078 197.399 70.8535 194.685 71.7223C191.447 72.7585 188.182 72.6938 184.995 71.502C181.666 70.2565 179.558 67.8452 178.76 64.3922C178.057 61.3459 178.197 58.3194 179.513 55.4382C181.044 52.0887 183.71 50.186 187.326 49.5968C189.27 49.2801 191.209 49.3141 193.116 49.878C195.771 50.6631 197.678 52.3311 198.908 54.7858C199.856 56.6782 200.207 58.7167 200.338 60.8041C200.35 60.9874 200.341 61.173 200.326 61.3562C200.321 61.4296 200.275 61.5007 200.195 61.71H200.194ZM186.529 57.5004C188.486 57.5106 190.464 57.5146 192.42 57.4964C192.664 56.3733 192.254 55.3103 191.411 54.7211C190.429 54.0347 188.819 54.0332 187.753 54.7171C186.834 55.3063 186.332 56.3828 186.529 57.4996V57.5004Z" fill="#FBFEFC"/>
<path d="M175.531 71.7237H168.201C168.143 71.666 168.123 71.6487 168.106 71.6289C168.09 71.6092 168.068 71.5871 168.065 71.5642C168.045 71.3296 168.014 71.0958 168.014 70.8612C168.015 64.0445 168.019 57.2277 168.027 50.4109C168.027 50.339 168.077 50.2664 168.101 50.2016C168.688 50.0405 174.598 50.001 175.494 50.1479C175.519 50.17 175.54 50.1866 175.558 50.2064C175.574 50.2261 175.597 50.2482 175.599 50.2711C175.62 50.5057 175.651 50.7403 175.651 50.9748C175.65 57.7916 175.645 64.6084 175.637 71.4244C175.637 71.4962 175.588 71.5689 175.532 71.7237H175.531Z" fill="#FBFEFC"/>
<path d="M175.842 43.6254C175.976 45.4103 174.472 47.4046 171.841 47.3682C169.497 47.3358 167.901 45.791 167.928 43.5385C167.956 41.2773 169.568 39.7474 171.889 39.7364C174.38 39.7245 175.971 41.624 175.842 43.6254Z" fill="#FBFEFC"/>
<path d="M82.2681 42.037H72.7266C72.7432 41.6737 72.7028 41.3356 72.782 41.0284C73.3306 38.8809 75.3123 37.3148 77.6288 37.404C79.8431 37.4893 81.7305 38.997 82.2032 41.1714C82.257 41.4194 82.2436 41.6816 82.2681 42.0378V42.037Z" fill="#FBFEFC"/>
</g>
<defs>
<clipPath id="clip0_5006_23435">
<rect width="249" height="120" fill="white"/>
</clipPath>
</defs>
</svg>
