<svg width="175" height="52" viewBox="0 0 175 52" fill="none" xmlns="http://www.w3.org/2000/svg">
<path d="M21.2872 16.7676C21.2872 21.9292 20.529 25.8514 12.699 25.8514C4.86907 25.8514 3.70259 22.0896 3.70259 16.7676V4.21363C3.70259 1.39956 2.49237 1.12252 0.421875 1.12252V0.378906H10.3369V1.1371C8.2956 1.1371 7.05621 1.39955 7.05621 4.22821V16.7676C7.05621 20.6169 7.96023 24.3787 12.8594 24.3787C18.2836 24.3787 19.1584 21.2439 19.1584 16.7676V4.21363C19.1584 1.38497 17.919 1.12252 15.8777 1.12252V0.378906H24.5825V1.1371C22.512 1.1371 21.3018 1.39955 21.3018 4.22821V16.7676H21.2872Z" fill="#FBFEFC"/>
<path d="M42.1233 24.832C40.2715 25.5173 38.1718 25.8526 35.3869 25.8526C27.8485 25.8526 24.2324 20.1224 24.2324 12.103C24.2324 5.13345 26.4925 0.015625 34.5557 0.015625C37.574 0.015625 40.1257 0.613433 41.7879 1.06543L42.1233 6.9852H41.1755C40.6797 4.871 39.1779 1.48828 34.512 1.48828C28.4463 1.48828 27.9506 7.93294 27.9506 11.8114C27.9506 16.6668 29.0004 24.1613 37.2532 24.1613C39.7757 24.1613 41.1318 23.5926 42.1087 23.2135V24.832H42.1233Z" fill="#FBFEFC"/>
<path d="M62.3632 5.80312C62.0279 3.80556 60.5115 1.47265 56.4871 1.47265C53.9646 1.47265 51.7337 3.09111 51.7337 5.58441C51.7337 8.93797 56.2101 10.0315 59.4908 11.9562C62.4653 13.6913 64.4629 15.2368 64.4629 18.8091C64.4629 23.5916 60.3219 25.8516 55.1602 25.8516C52.594 25.8516 49.6195 25.2829 48.6863 25.1371L48.4238 19.8297H49.3716C49.6778 21.8273 51.4421 24.1602 55.481 24.1602C58.7909 24.1602 60.9489 22.0168 60.9489 19.4215C60.9489 15.3535 54.6936 14.1141 51.1942 11.4313C49.532 10.1482 48.7446 8.79216 48.7446 6.38634C48.73 1.85175 52.4628 0 57.2016 0C59.7241 0 61.3426 0.306195 63.0485 0.641551L63.311 5.80312H62.3632Z" fill="#FBFEFC"/>
<path d="M79.8746 25.5C79.4663 25.6021 78.6352 25.8062 77.425 25.8062C75.4857 25.8062 74.9171 24.8001 74.9171 23.3566H74.8441C73.8089 24.873 72.3654 25.8062 70.0908 25.8062C67.8161 25.8062 66.0664 24.2023 66.0664 22.0152C66.0664 17.1599 72.3654 17.1599 74.9171 16.9266V15.658C74.9171 13.3106 74.8879 10.8318 72.0738 10.8318C69.9887 10.8318 69.7262 11.7067 69.7262 12.7711C69.7262 14.1417 68.7201 14.5207 68.1515 14.5207C67.2475 14.5207 66.5476 13.9229 66.5476 13.0189C66.5476 10.8464 69.7991 9.73828 72.1029 9.73828C76.6959 9.73828 77.527 11.9545 77.527 15.0602V23.3712C77.527 24.5377 77.9353 24.9459 78.9706 24.9459C79.2768 24.9459 79.5684 24.873 79.8746 24.8147V25.5146V25.5ZM74.9171 18.0201C73.3423 18.0493 69.0555 18.3555 69.0555 21.4757C69.0555 23.2254 70.1928 24.3919 71.3301 24.3919C73.5027 24.3919 74.9171 22.2777 74.9171 20.0031V18.0201Z" fill="#FBFEFC"/>
<path d="M80.6035 24.9051C82.0179 24.9051 83.1552 24.5989 83.1552 22.4263V13.2697C83.1552 11.2575 81.5804 11.1555 80.6035 11.0971V10.5285L85.7652 9.72656V14.1445H85.8381C86.3047 12.9052 87.8211 9.72656 91.131 9.72656C94.6887 9.72656 95.0241 11.6658 95.0241 14.7861V22.4263C95.0241 24.5989 96.1614 24.9051 97.5758 24.9051V25.4737H89.8624V24.9051C91.2768 24.9051 92.4141 24.5989 92.4141 22.4263V15.5297C92.4141 12.6427 92.3849 11.345 90.1686 11.345C88.1856 11.345 85.7798 15.136 85.7798 18.3146V22.4409C85.7798 24.6135 86.9171 24.9196 88.3314 24.9196V25.4883H80.6181V24.9196L80.6035 24.9051Z" fill="#FBFEFC"/>
<path d="M101.396 24.7141C103.438 24.7141 104.677 24.4516 104.677 21.623V4.21363C104.677 1.38497 103.438 1.12252 101.396 1.12252V0.378906H110.203C116.459 0.378906 123.093 1.73491 123.093 12.962C123.093 24.1892 116.123 25.4723 110.203 25.4723H101.396V24.7141ZM108.031 20.8356C108.031 23.5914 108.337 23.9996 110.218 23.9996C116.706 23.9996 119.375 20.5294 119.375 12.962C119.375 6.03621 117.377 1.85156 110.218 1.85156C108.337 1.85156 108.031 2.07027 108.031 5.01557V20.8356Z" fill="#FBFEFC"/>
<path d="M124.479 24.9023C125.878 24.9023 127.03 24.5961 127.03 22.4235V13.2814C127.03 11.2693 125.485 11.1672 124.479 11.1089V10.5403L129.64 9.73833V22.4381C129.64 24.6106 130.777 24.9168 132.192 24.9168V25.4855H124.479V24.9168V24.9023ZM126.316 4.72257C126.316 3.65818 127.147 2.8125 128.226 2.8125C129.305 2.8125 130.136 3.65818 130.136 4.72257C130.136 5.78696 129.29 6.63264 128.226 6.63264C127.161 6.63264 126.316 5.80154 126.316 4.72257Z" fill="#FBFEFC"/>
<path d="M144.308 25.1946C143.506 25.5008 142.369 25.7924 140.328 25.7924C135.137 25.7924 132.221 22.9492 132.221 17.3064C132.221 12.4219 134.204 9.69531 139.03 9.69531C142.048 9.69531 144.76 11.3721 144.76 15.2651V16.0088H135.006C135.006 18.8228 136.376 24.553 141.975 24.553C142.748 24.553 143.652 24.451 144.323 24.1156V25.1946H144.308ZM141.757 14.9152C141.757 13.1364 141.159 10.8326 138.578 10.8326C135.997 10.8326 134.991 13.6758 134.991 14.9152H141.757Z" fill="#FBFEFC"/>
<path d="M155.637 22.7908C157.241 22.7908 160.959 22.8637 160.959 26.5817C160.959 30.2998 157.212 32.5452 152.75 32.5452C149.469 32.5452 146.043 31.3059 146.043 28.2877C146.043 26.2026 147.589 25.2986 148.653 24.7737C148.084 24.4384 147.209 23.7968 147.209 22.3971C147.209 21.1577 148.274 19.8892 148.653 19.4809C147.88 18.8394 146.714 17.8333 146.714 14.9901C146.714 10.6596 149.863 9.72645 153.042 9.72645C154.587 9.72645 155.419 9.98891 156.498 10.5576C157.037 9.28903 157.839 6.9707 159.88 6.9707C160.813 6.9707 161.484 7.56851 161.484 8.57458C161.484 9.47858 160.916 10.0764 159.909 10.0764C159.035 10.0764 158.83 9.60981 158.393 9.60981C157.664 9.60981 157.358 10.5867 157.183 11.1116C157.591 11.549 158.685 12.7884 158.685 15.1359C158.685 18.5186 156.57 20.4287 152.546 20.4287C151.205 20.4287 150.228 20.2683 149.499 19.9329C149.295 20.1954 148.901 20.7057 148.901 21.4348C148.901 22.7762 150.578 22.7762 151.642 22.7762H155.593L155.637 22.7908ZM149.834 25.1674C149.163 25.6777 148.23 26.2464 148.23 27.7482C148.23 29.7166 150.009 31.4371 152.925 31.4371C155.841 31.4371 158.787 29.8624 158.787 27.4566C158.787 25.7506 157.372 25.182 155.71 25.182H149.849L149.834 25.1674ZM152.75 19.3351C155.564 19.3351 155.929 17.1189 155.929 15.3546C155.929 12.8467 155.054 10.8346 152.648 10.8346C149.994 10.8346 149.499 12.7738 149.499 14.7276C149.499 17.2793 150.33 19.3497 152.75 19.3497" fill="#FBFEFC"/>
<path d="M161.002 17.7595C161.002 12.7291 163.714 9.71094 168.001 9.71094C172.288 9.71094 175 12.7291 175 17.7595C175 22.7898 172.288 25.808 168.001 25.808C163.714 25.808 161.002 22.7898 161.002 17.7595ZM168.001 24.6999C171.354 24.6999 172.025 20.5444 172.025 17.7595C172.025 14.9746 171.354 10.8191 168.001 10.8191C164.647 10.8191 163.976 14.9746 163.976 17.7595C163.976 20.5444 164.647 24.6999 168.001 24.6999Z" fill="#FBFEFC"/>
<path d="M145.037 31.2598H0V32.1054H145.839C145.533 31.843 145.256 31.5514 145.022 31.2598" fill="#FBFEFC"/>
<path d="M174.316 31.2598H159.997C159.691 31.566 159.37 31.8576 159.006 32.1054H174.33V31.2598H174.316Z" fill="#FBFEFC"/>
<path d="M5.17773 41.541H7.00036V49.5458H11.083V50.9893H5.17773V41.541Z" fill="#FBFEFC"/>
<path d="M14.2612 41.541H12.4531V50.9893H14.2612V41.541Z" fill="#FBFEFC"/>
<path d="M16.3457 41.6729C16.9144 41.5562 17.9642 41.4688 18.9849 41.4688C20.3263 41.4688 21.1574 41.6291 21.8281 42.0666C22.4405 42.4165 22.8634 43.0289 22.8634 43.8308C22.8634 44.6911 22.2947 45.493 21.2157 45.8721V45.9013C22.2656 46.1492 23.2279 46.9365 23.2279 48.2342C23.2279 49.0799 22.8488 49.736 22.2656 50.1734C21.5657 50.7566 20.3992 51.0628 18.5766 51.0628C17.5705 51.0628 16.8123 50.9899 16.3457 50.9316V41.6437V41.6729ZM18.1392 45.391H19.0723C20.3263 45.391 21.0262 44.8223 21.0262 44.035C21.0262 43.1455 20.3263 42.7373 19.1744 42.7373C18.6495 42.7373 18.3287 42.7664 18.1392 42.8102V45.391ZM18.1392 49.736C18.3725 49.7652 18.6932 49.7797 19.1015 49.7797C20.268 49.7797 21.3032 49.3569 21.3032 48.1904C21.3032 47.0969 20.2971 46.6449 19.0432 46.6449H18.1392V49.7214V49.736Z" fill="#FBFEFC"/>
<path d="M24.832 41.6729C25.5028 41.5562 26.5234 41.4688 27.5733 41.4688C29.0022 41.4688 29.9791 41.6875 30.6353 42.2269C31.1748 42.6644 31.4955 43.3205 31.4955 44.1224C31.4955 45.3472 30.6353 46.1637 29.7021 46.4845V46.5282C30.402 46.7761 30.8394 47.4323 31.0873 48.3508C31.3935 49.5319 31.6559 50.6254 31.8746 50.9899H30.0083C29.8625 50.7129 29.6292 49.9401 29.3376 48.7591C29.0605 47.5197 28.5793 47.1261 27.5587 47.1115H26.6401V50.9899H24.8466V41.6729H24.832ZM26.6255 45.843H27.7045C28.9293 45.843 29.6875 45.2306 29.6875 44.2828C29.6875 43.2476 28.9147 42.7664 27.7336 42.7664C27.165 42.7664 26.7859 42.8102 26.6109 42.8539V45.843H26.6255Z" fill="#FBFEFC"/>
<path d="M35.3145 48.3065L34.4543 50.9893H32.5879L35.7665 41.541H38.0849L41.3073 50.9893H39.3535L38.4494 48.3065H35.2999H35.3145ZM38.1578 47.0088L37.3704 44.6904C37.1809 44.1218 37.0205 43.4657 36.8747 42.9262H36.8455C36.6997 43.4802 36.5539 44.1364 36.3789 44.6904L35.6061 47.0088H38.1578Z" fill="#FBFEFC"/>
<path d="M42.6934 41.6729C43.3641 41.5562 44.3848 41.4688 45.4346 41.4688C46.8635 41.4688 47.8404 41.6875 48.4966 42.2269C49.0361 42.6644 49.3569 43.3205 49.3569 44.1224C49.3569 45.3472 48.4966 46.1637 47.5634 46.4845V46.5282C48.2633 46.7761 48.7007 47.4323 48.9486 48.3508C49.2548 49.5319 49.5173 50.6254 49.736 50.9899H47.8696C47.7238 50.7129 47.4905 49.9401 47.1989 48.7591C46.9218 47.5197 46.4407 47.1261 45.42 47.1115H44.5014V50.9899H42.7079V41.6729H42.6934ZM44.4868 45.843H45.5658C46.7906 45.843 47.5488 45.2306 47.5488 44.2828C47.5488 43.2476 46.776 42.7664 45.595 42.7664C45.0263 42.7664 44.6472 42.8102 44.4722 42.8539V45.843H44.4868Z" fill="#FBFEFC"/>
<path d="M53.1056 50.9893V47.0525L49.9707 41.541H52.0412L53.2368 43.9614C53.5722 44.6613 53.8201 45.1862 54.0971 45.8423H54.1263C54.3742 45.2445 54.6512 44.6467 55.0011 43.9614L56.1968 41.541H58.2381L54.9428 47.0088V50.9893H53.1348H53.1056Z" fill="#FBFEFC"/>
</svg>
