<svg width="382" height="348" viewBox="0 0 382 348" fill="none" xmlns="http://www.w3.org/2000/svg">
<path d="M73.6827 155.922L133.939 140.196L172.79 189.914L173.992 206.329L181.077 217.271L180.92 229.02L196.443 236.716L208.106 253.013L211.082 281.591L226.217 298.968L226.961 320.672L256.583 345.86L264.986 374.252L241.675 447.029L219.011 461.707L185.806 511.496L126.022 559.64L111.214 556.472L116.633 537.433L53.607 586.567L-75.1075 632.758L-104.179 604.995L-147.107 599.515L-151.803 583.699L-178.482 560.487L-224.355 485.366L-207.37 470.484L-242.143 444.194L-264.918 409.025L-262.9 393.298L-284.329 392.754L-293.007 365.649L-257.056 342.369L-252.883 310.27L-192.347 244.446L-141.889 217.872L-50.4975 152.587L10.1045 139.966L35.1137 123.77L73.6827 155.922Z" fill="black" stroke="#FBFEFC" stroke-width="1.8622"/>
<path fill-rule="evenodd" clip-rule="evenodd" d="M133.938 140.198L73.6824 155.923L35.1133 123.771L10.1041 139.967L-50.4978 152.588L-141.89 217.873L-190.305 243.371L-185.496 238.142L-135.038 211.568L-43.6464 146.284L16.9555 133.662L41.9647 117.466L80.5338 149.618L140.79 133.893L179.641 183.61L180.843 200.026L187.928 210.967L187.771 222.716L203.294 230.413L214.957 246.71L217.933 275.287L233.068 292.664L233.812 314.368L263.434 339.556L271.837 367.948L248.527 440.726L242.43 444.673L264.985 374.253L256.583 345.861L226.96 320.673L226.217 298.969L211.082 281.592L208.105 253.014L196.442 236.718L180.92 229.021L181.077 217.272L173.991 206.33L172.79 189.915L133.938 140.198ZM223.669 458.691L219.011 461.708L186.94 509.796L192.657 505.192L223.669 458.691ZM-217.384 479.259L-207.37 470.485L-207.555 470.345L-217.504 479.062L-217.384 479.259ZM-285.66 360.893L-257.056 342.37L-256.791 340.33L-286.156 359.346L-285.66 360.893Z" fill="#FBFEFC"/>
<path d="M73.6824 155.923L73.0862 156.638L73.4541 156.945L73.9175 156.824L73.6824 155.923ZM133.938 140.198L134.672 139.624L134.295 139.142L133.703 139.297L133.938 140.198ZM35.1133 123.771L35.7095 123.056L35.1828 122.617L34.6072 122.99L35.1133 123.771ZM10.1041 139.967L10.294 140.878L10.4642 140.843L10.6102 140.748L10.1041 139.967ZM-50.4978 152.588L-50.6876 151.677L-50.8795 151.717L-51.039 151.831L-50.4978 152.588ZM-141.89 217.873L-141.456 218.697L-141.4 218.667L-141.348 218.63L-141.89 217.873ZM-190.305 243.371L-190.99 242.741L-189.871 244.195L-190.305 243.371ZM-185.496 238.142L-185.93 237.318L-186.072 237.393L-186.181 237.511L-185.496 238.142ZM-135.038 211.568L-134.604 212.392L-134.548 212.362L-134.497 212.325L-135.038 211.568ZM-43.6464 146.284L-43.8363 145.372L-44.0281 145.412L-44.1876 145.526L-43.6464 146.284ZM16.9555 133.662L17.1454 134.573L17.3156 134.538L17.4616 134.443L16.9555 133.662ZM41.9647 117.466L42.5609 116.751L42.0342 116.312L41.4586 116.685L41.9647 117.466ZM80.5338 149.618L79.9376 150.333L80.3055 150.64L80.7689 150.519L80.5338 149.618ZM140.79 133.893L141.523 133.319L141.147 132.837L140.555 132.992L140.79 133.893ZM179.641 183.61L180.57 183.542L180.549 183.26L180.375 183.036L179.641 183.61ZM180.843 200.026L179.914 200.094L179.931 200.331L180.061 200.532L180.843 200.026ZM187.928 210.967L188.859 210.979L188.863 210.698L188.71 210.461L187.928 210.967ZM187.771 222.716L186.84 222.704L186.833 223.29L187.358 223.55L187.771 222.716ZM203.294 230.413L204.051 229.871L203.916 229.682L203.707 229.578L203.294 230.413ZM214.957 246.71L215.883 246.613L215.857 246.368L215.714 246.168L214.957 246.71ZM217.933 275.287L217.007 275.384L217.037 275.677L217.231 275.899L217.933 275.287ZM233.068 292.664L233.999 292.632L233.987 292.301L233.77 292.052L233.068 292.664ZM233.812 314.368L232.881 314.4L232.895 314.811L233.208 315.077L233.812 314.368ZM263.434 339.556L264.327 339.292L264.249 339.026L264.037 338.847L263.434 339.556ZM271.837 367.948L272.723 368.232L272.811 367.959L272.73 367.684L271.837 367.948ZM248.527 440.726L249.033 441.507L249.312 441.326L249.413 441.01L248.527 440.726ZM242.43 444.673L241.543 444.389L240.748 446.872L242.936 445.455L242.43 444.673ZM264.985 374.253L265.872 374.537L265.96 374.264L265.878 373.989L264.985 374.253ZM256.583 345.861L257.476 345.597L257.397 345.331L257.186 345.152L256.583 345.861ZM226.96 320.673L226.03 320.705L226.044 321.116L226.357 321.382L226.96 320.673ZM226.217 298.969L227.147 298.937L227.136 298.606L226.919 298.357L226.217 298.969ZM211.082 281.592L210.155 281.689L210.186 281.982L210.379 282.204L211.082 281.592ZM208.105 253.014L209.031 252.918L209.006 252.673L208.862 252.473L208.105 253.014ZM196.442 236.718L197.2 236.176L197.064 235.987L196.856 235.883L196.442 236.718ZM180.92 229.021L179.989 229.008L179.981 229.595L180.506 229.855L180.92 229.021ZM181.077 217.272L182.008 217.284L182.012 217.003L181.858 216.766L181.077 217.272ZM173.991 206.33L173.063 206.398L173.08 206.636L173.21 206.837L173.991 206.33ZM172.79 189.915L173.718 189.847L173.698 189.564L173.523 189.341L172.79 189.915ZM223.669 458.691L224.444 459.207L223.163 457.909L223.669 458.691ZM219.011 461.708L218.504 460.926L218.343 461.031L218.236 461.191L219.011 461.708ZM186.94 509.796L186.165 509.279L187.524 510.521L186.94 509.796ZM192.657 505.192L193.241 505.917L193.352 505.828L193.431 505.709L192.657 505.192ZM-217.384 479.259L-218.179 479.744L-217.603 480.688L-216.771 479.959L-217.384 479.259ZM-207.37 470.485L-206.757 471.185L-205.897 470.432L-206.809 469.742L-207.37 470.485ZM-207.555 470.345L-206.994 469.602L-207.599 469.145L-208.169 469.645L-207.555 470.345ZM-217.504 479.062L-218.118 478.362L-218.708 478.878L-218.299 479.547L-217.504 479.062ZM-285.66 360.893L-286.547 361.177L-286.176 362.336L-285.154 361.674L-285.66 360.893ZM-257.056 342.37L-256.55 343.151L-256.189 342.917L-256.133 342.49L-257.056 342.37ZM-256.791 340.33L-255.868 340.45L-255.608 338.455L-257.297 339.548L-256.791 340.33ZM-286.156 359.346L-286.662 358.564L-287.26 358.951L-287.043 359.629L-286.156 359.346ZM73.9175 156.824L134.173 141.098L133.703 139.297L73.4473 155.022L73.9175 156.824ZM34.5172 124.487L73.0862 156.638L74.2786 155.208L35.7095 123.056L34.5172 124.487ZM10.6102 140.748L35.6195 124.553L34.6072 122.99L9.59801 139.185L10.6102 140.748ZM-50.3079 153.5L10.294 140.878L9.91427 139.055L-50.6876 151.677L-50.3079 153.5ZM-141.348 218.63L-49.9566 153.346L-51.039 151.831L-142.431 217.115L-141.348 218.63ZM-189.871 244.195L-141.456 218.697L-142.324 217.049L-190.739 242.547L-189.871 244.195ZM-189.62 244.001L-184.81 238.772L-186.181 237.511L-190.99 242.741L-189.62 244.001ZM-185.062 238.966L-134.604 212.392L-135.472 210.744L-185.93 237.318L-185.062 238.966ZM-134.497 212.325L-43.1052 147.041L-44.1876 145.526L-135.579 210.81L-134.497 212.325ZM-43.4566 147.195L17.1454 134.573L16.7657 132.75L-43.8363 145.372L-43.4566 147.195ZM17.4616 134.443L42.4708 118.248L41.4586 116.685L16.4494 132.88L17.4616 134.443ZM41.3685 118.182L79.9376 150.333L81.13 148.903L42.5609 116.751L41.3685 118.182ZM80.7689 150.519L141.025 134.794L140.555 132.992L80.2987 148.717L80.7689 150.519ZM140.056 134.466L178.907 184.183L180.375 183.036L141.523 133.319L140.056 134.466ZM178.712 183.678L179.914 200.094L181.771 199.958L180.57 183.542L178.712 183.678ZM180.061 200.532L187.147 211.473L188.71 210.461L181.624 199.519L180.061 200.532ZM186.997 210.955L186.84 222.704L188.703 222.728L188.859 210.979L186.997 210.955ZM187.358 223.55L202.88 231.247L203.707 229.578L188.185 221.882L187.358 223.55ZM202.537 230.954L214.199 247.251L215.714 246.168L204.051 229.871L202.537 230.954ZM214.031 246.806L217.007 275.384L218.859 275.191L215.883 246.613L214.031 246.806ZM217.231 275.899L232.366 293.275L233.77 292.052L218.635 274.676L217.231 275.899ZM232.137 292.696L232.881 314.4L234.742 314.336L233.999 292.632L232.137 292.696ZM233.208 315.077L262.831 340.265L264.037 338.847L234.415 313.658L233.208 315.077ZM262.541 339.82L270.944 368.212L272.73 367.684L264.327 339.292L262.541 339.82ZM270.95 367.664L247.64 440.442L249.413 441.01L272.723 368.232L270.95 367.664ZM248.02 439.944L241.924 443.892L242.936 445.455L249.033 441.507L248.02 439.944ZM264.099 373.969L241.543 444.389L243.317 444.958L265.872 374.537L264.099 373.969ZM255.69 346.125L264.092 374.517L265.878 373.989L257.476 345.597L255.69 346.125ZM226.357 321.382L255.98 346.57L257.186 345.152L227.563 319.963L226.357 321.382ZM225.286 299L226.03 320.705L227.891 320.641L227.147 298.937L225.286 299ZM210.379 282.204L225.514 299.58L226.919 298.357L211.784 280.981L210.379 282.204ZM207.179 253.111L210.155 281.689L212.008 281.496L209.031 252.918L207.179 253.111ZM195.685 237.259L207.348 253.556L208.862 252.473L197.2 236.176L195.685 237.259ZM180.506 229.855L196.029 237.552L196.856 235.883L181.334 228.187L180.506 229.855ZM180.146 217.26L179.989 229.008L181.851 229.033L182.008 217.284L180.146 217.26ZM173.21 206.837L180.295 217.778L181.858 216.766L174.773 205.824L173.21 206.837ZM171.861 189.983L173.063 206.398L174.92 206.263L173.718 189.847L171.861 189.983ZM133.205 140.771L172.056 190.488L173.523 189.341L134.672 139.624L133.205 140.771ZM223.163 457.909L218.504 460.926L219.517 462.489L224.175 459.472L223.163 457.909ZM218.236 461.191L186.165 509.279L187.715 510.312L219.785 462.224L218.236 461.191ZM192.073 504.467L186.356 509.071L187.524 510.521L193.241 505.917L192.073 504.467ZM222.894 458.174L191.882 504.676L193.431 505.709L224.444 459.207L222.894 458.174ZM-216.771 479.959L-206.757 471.185L-207.984 469.785L-217.998 478.559L-216.771 479.959ZM-206.809 469.742L-206.994 469.602L-208.117 471.088L-207.932 471.228L-206.809 469.742ZM-216.891 479.762L-206.942 471.045L-208.169 469.645L-218.118 478.362L-216.891 479.762ZM-216.59 478.774L-216.71 478.577L-218.299 479.547L-218.179 479.744L-216.59 478.774ZM-285.154 361.674L-256.55 343.151L-257.563 341.588L-286.166 360.111L-285.154 361.674ZM-256.133 342.49L-255.868 340.45L-257.715 340.21L-257.98 342.25L-256.133 342.49ZM-285.65 360.127L-256.285 341.111L-257.297 339.548L-286.662 358.564L-285.65 360.127ZM-284.774 360.609L-285.269 359.062L-287.043 359.629L-286.547 361.177L-284.774 360.609Z" fill="#FBFEFC"/>
</svg>
