<svg width="778" height="303" viewBox="0 0 778 303" fill="none" xmlns="http://www.w3.org/2000/svg">
<path d="M46.0215 408.059L32.415 414.678L11.1053 277.638L473.521 205.732L492.153 325.55L482.871 321.364L476.031 328.057L452.092 326.151L421.069 336.604L407.389 333.102L396.388 346.821L371.106 350.753L354.86 364.537L340.57 366.759L315.865 379.232L283.254 384.303L271.318 377.528L258.493 379.522L219.864 394.161L201.455 377.134L181.872 383.931L130.371 388.187L108.223 395.384L79.2759 399.885L54.1562 400.039L46.0215 408.059Z" fill="black" stroke="#FBFEFC" stroke-width="1.35364"/>
<path d="M31.8372 415.781L21.5776 417.376L0.000137202 278.615L10.2598 277.02L31.8372 415.781Z" fill="#FBFEFC"/>
<rect x="111.298" y="274.753" width="16.4457" height="16.4457" transform="rotate(81.1613 111.298 274.753)" stroke="#FBFEFC" stroke-width="1.35364"/>
<rect x="76.1215" y="280.223" width="16.4457" height="16.4457" transform="rotate(81.1613 76.1215 280.223)" stroke="#FBFEFC" stroke-width="1.35364"/>
<rect x="40.9451" y="285.693" width="16.4457" height="16.4457" transform="rotate(81.1613 40.9451 285.693)" stroke="#FBFEFC" stroke-width="1.35364"/>
<rect x="146.474" y="269.284" width="16.4457" height="16.4457" transform="rotate(81.1613 146.474 269.284)" stroke="#FBFEFC" stroke-width="1.35364"/>
<rect x="181.649" y="263.814" width="16.4457" height="16.4457" transform="rotate(81.1613 181.649 263.814)" stroke="#FBFEFC" stroke-width="1.35364"/>
<rect x="216.824" y="258.344" width="16.4457" height="16.4457" transform="rotate(81.1613 216.824 258.344)" stroke="#FBFEFC" stroke-width="1.35364"/>
<rect x="252.002" y="252.873" width="16.4457" height="16.4457" transform="rotate(81.1613 252.002 252.873)" stroke="#FBFEFC" stroke-width="1.35364"/>
<rect x="287.177" y="247.405" width="16.4457" height="16.4457" transform="rotate(81.1613 287.177 247.405)" stroke="#FBFEFC" stroke-width="1.35364"/>
<rect x="322.352" y="241.934" width="16.4457" height="16.4457" transform="rotate(81.1613 322.352 241.934)" stroke="#FBFEFC" stroke-width="1.35364"/>
<rect x="357.528" y="236.464" width="16.4457" height="16.4457" transform="rotate(81.1613 357.528 236.464)" stroke="#FBFEFC" stroke-width="1.35364"/>
<rect x="392.704" y="230.994" width="16.4457" height="16.4457" transform="rotate(81.1613 392.704 230.994)" stroke="#FBFEFC" stroke-width="1.35364"/>
<rect x="427.882" y="225.525" width="16.4457" height="16.4457" transform="rotate(81.1613 427.882 225.525)" stroke="#FBFEFC" stroke-width="1.35364"/>
<rect x="463.056" y="220.054" width="16.4457" height="16.4457" transform="rotate(81.1613 463.056 220.054)" stroke="#FBFEFC" stroke-width="1.35364"/>
<mask id="path-16-inside-1_1_4" fill="white">
<path d="M569.334 291.486L949.446 170.529L895.181 3.68669e-05L515.069 120.957L569.334 291.486Z"/>
</mask>
<path d="M569.334 291.486L949.446 170.529L895.181 3.68669e-05L515.069 120.957L569.334 291.486Z" fill="black"/>
<path d="M569.334 291.486L569.748 292.788L568.447 293.202L568.032 291.901L569.334 291.486ZM949.446 170.529L950.747 170.115L951.162 171.417L949.86 171.831L949.446 170.529ZM895.181 3.68669e-05L891.867 -10.414L893.168 -10.8282L896.482 -0.414196L895.181 3.68669e-05ZM515.069 120.957L513.768 121.371L510.454 110.957L511.755 110.543L515.069 120.957ZM568.92 290.185L949.031 169.228L949.86 171.831L569.748 292.788L568.92 290.185ZM948.144 170.944L893.879 0.414269L896.482 -0.414196L950.747 170.115L948.144 170.944ZM898.495 10.414L518.383 131.371L511.755 110.543L891.867 -10.414L898.495 10.414ZM516.371 120.543L570.636 291.072L568.032 291.901L513.768 121.371L516.371 120.543Z" fill="#FBFEFC" mask="url(#path-16-inside-1_1_4)"/>
<mask id="path-18-inside-2_1_4" fill="white">
<path d="M493.689 385.441L917.701 265.623L863.947 75.398L439.935 195.217L493.689 385.441Z"/>
</mask>
<path d="M493.689 385.441L917.701 265.623L863.947 75.398L439.935 195.217L493.689 385.441Z" fill="black"/>
<path d="M493.689 385.441L494.06 386.756L492.746 387.127L492.374 385.813L493.689 385.441ZM917.701 265.623L919.016 265.251L919.388 266.566L918.073 266.937L917.701 265.623ZM863.947 75.398L862.461 70.1396L863.776 69.7681L865.262 75.0265L863.947 75.398ZM439.935 195.217L438.62 195.588L437.134 190.33L438.449 189.958L439.935 195.217ZM493.317 384.127L917.33 264.308L918.073 266.937L494.06 386.756L493.317 384.127ZM916.387 265.994L862.633 75.7694L865.262 75.0265L919.016 265.251L916.387 265.994ZM865.433 80.6563L441.42 200.475L438.449 189.958L862.461 70.1396L865.433 80.6563ZM441.249 194.845L495.003 385.07L492.374 385.813L438.62 195.588L441.249 194.845Z" fill="#FBFEFC" mask="url(#path-18-inside-2_1_4)"/>
</svg>
