<svg xmlns="http://www.w3.org/2000/svg" width="352" height="147" fill="none" xmlns:v="https://vecta.io/nano"><path d="M333.079 173.134c4.896 4.336 15.874 12.955 17.75 13.374.337-.43-1.57-7.897-1.57-7.897l-12.199-14.789-6.658-4.033-1.872 2.069-1.34-3.975-17.734-10.451-6.667-1.629-2.918-2.235s-6.135-2.742-9.984-4.668c-28.305-28.666-35.508-58.089-88.08-79.446 0 0 7.349 8.412 11.623 18.915-17.851-20.588-41.672-32.616-61.062-39.502l-3.696 1.196-.26-2.552c-17.512-5.788-30.521-7.286-30.521-7.286s10.518 5.798 14.522 13.656C118.97 32.339 96.406 26.666 72.57 27.539l-2.747 3.012-1.051-2.818C47.423 29.131 25.393 35.76 8.243 48.098l5.24 2.711-11.597 2.329s53.29 39.608 86.694 28.814c-6.235 6.12-19.824 7.75-19.824 7.75s26.545 16.944 45.505 23.74l.173.062c9.196 3.297 16.794 6.02 25.585 6.344l.383-3.733 4.193 3.683c8.178-.476 17.65-3.057 30.332-8.996-11.525 9.639-21.37 10.717-25.499 12.315 0 0 19.427 11.936 38.589 15.534s34.733-7.821 46.789-17.018c-7.857 10.253-18.379 16.688-34.58 21.187 10.961 4.261 22.605 4.999 33.402 3.983l4.84-4.943 1.192 4.189c5.692-.884 11.045-2.191 15.81-3.635l13.371-3.654c4.169-1.037 20.447 8.423 20.447 8.423l11.361 4.127 15.004 10.2 2.893-.65 1.53 3.476 13.003 8.799z" fill="#000"/><g fill="#fbfefc"><path d="M350.829 186.508l.514.404-.657.234.143-.638zm-17.75-13.374l.367-.542.067.052-.434.49zm-43.791-25.952l-.224.615-.105-.049.329-.566zm-20.447-8.423l-.158-.635.158.635zm-13.371 3.654l-.189-.626.008-.002.181.628zm93.789 36.198l.505-.416.129.254-.634.162zm-12.199-14.789l.339-.559.166.143-.505.416zm-37.189-20.254l.267-.598.131.078-.398.52zm-9.984-4.668l-.292.585-.173-.125.465-.46zm30.189 25.435l-.366.541-.232-.278.598-.263zm-1.53-3.476l-.143-.639.742.375-.599.264zm-2.893.65l.143.638-.511-.097.368-.541zm14.749-1.72l-.485-.439.824-.121-.339.56zm-1.872 2.069l.485.439-1.105-.23.62-.209zm-1.34-3.975l.332-.563.288.354-.62.209zm-17.734-10.451l.155-.635.177.072-.332.563zm-6.667-1.629l-.155.635-.243-.116.398-.519zm-2.14 5.506l.223-.614.144.073-.367.541zM188.017 138.65l-.121.643.121-.643zm-38.589-15.534l-.343.557.107-1.167.236.61zM68.756 89.701l-.352.551.274-1.201.078.65zm19.824-7.75l-.201-.623.659 1.089-.458-.467zm25.682 31.49l.22-.615-.22.615zm120.545 8.191l-.397-.52.916.917-.519-.397zm-34.58 21.187l-.237.61.062-1.24.175.63zm-25.299-32.018l-.277-.592.697 1.094-.42-.502zM1.886 53.138l-.39.525.261-1.166.129.641zm130.527-9.255l.583-.297-1.009.793.426-.496zm-14.522-13.656l-.316.573.391-1.223-.075.65zm95.539 48.143l.606-.247-1.1.675.494-.428zm-11.623-18.915l-.493.43.739-1.037-.246.606zm-53.395-21.942l.205-.621.403.133.043.422-.651.066zm3.956 1.356l-.201-.622.211-.068.209.074-.219.616zm-3.696 1.196l.202.622-.77.249-.082-.805.65-.066zM72.57 27.539l-.483-.441.185-.203.274-.01.024.654zm-3.798.194l-.043-.653.486-.032.17.456-.613.229zm1.051 2.818l.483.441-.722.792-.374-1.004.613-.229zm74.772 89.246l.038.653-.268.016-.202-.177.432-.492zm-4.576.05l.651.067-.063.61-.612-.023.024-.654zm-25.585-6.344l-.221.616.221-.616zm25.968 2.611l-.651-.067.129-1.262.953.837-.431.492zM8.243 48.098l-.301.581-.946-.49.865-.622.382.531zm5.24 2.711l.301-.581 1.654.856-1.826.367-.129-.641zm220.146 95.993l.468.457-.168.172-.238.022-.062-.651zm6.032-.754l.1.646-.571.089-.159-.556.63-.179zm-1.192-4.189l-.467-.458.788-.805.309 1.084-.63.179zm112.218 45.287c-.346-.077-.803-.309-1.286-.59l-1.816-1.165-4.895-3.582c-3.6-2.756-7.581-6.005-10.044-8.186l.868-.979c2.433 2.155 6.389 5.383 9.971 8.126 1.791 1.371 3.482 2.615 4.837 3.541.679.463 1.266.841 1.736 1.114.495.288.791.417.914.445l-.285 1.276zm-61.398-39.964l-.329.565c-.019-.01-.03-.017-.045-.026-.031-.017-.076-.043-.136-.078l-.52-.296-1.893-1.053c-1.585-.868-3.741-2.013-6.024-3.124s-4.685-2.186-6.763-2.915c-1.039-.365-1.983-.638-2.783-.789-.816-.154-1.414-.168-1.797-.073l-.315-1.269c.66-.164 1.482-.109 2.355.056.888.168 1.9.464 2.973.84 2.147.754 4.599 1.851 6.903 2.974s4.482 2.278 6.079 3.152l1.909 1.062.527.301.139.079c.016.01.028.016.036.021s.012.007-.316.573zm-20.29-7.789c-4.157 1.034-10.628 2.863-13.346 3.649l-.363-1.257 13.394-3.661.315 1.269zm81.316 46.711c-.074.095-.094.181-.097.193-.005.023-.004.031-.003.013.002-.034.001-.102-.008-.212-.017-.216-.06-.52-.125-.894-.128-.743-.332-1.704-.549-2.661l-.616-2.603-.21-.848-.06-.236-.016-.062c-.004-.018-.004-.019-.005-.02s0-.001.634-.163l.634-.162c.002.009.004.015.005.022.004.014.009.036.016.063l.061.239.212.855.621 2.626c.218.963.428 1.95.562 2.727a11.82 11.82 0 0 1 .14 1.012c.011.135.017.272.01.394a1.3 1.3 0 0 1-.03.211c-.015.065-.051.192-.147.314l-1.029-.808zm-1.56-7.077l-12.198-14.788 1.009-.833 12.199 14.789-1.01.832zm-48.883-35.459l-.267.597a1.8 1.8 0 0 1-.07-.032l-.202-.09-.749-.338-2.534-1.154-6.454-3.066.585-1.17c1.914.958 4.402 2.121 6.416 3.047l2.526 1.151.746.336.201.09.052.024c.017.007.017.007-.25.605zm32.841 30.108l-13.002-8.8.733-1.083 13.003 8.799-.734 1.084zm-13.234-9.078l-1.531-3.476 1.198-.527 1.53 3.476-1.197.527zm-.789-3.101l-2.893.65-.287-1.276 2.894-.651.286 1.277zm18.032 2.885l-6.658-4.034.678-1.119 6.658 4.034-.678 1.119zm-5.834-4.154l-1.872 2.069-.97-.878 1.872-2.069.97.878zm-2.977 1.839l-1.34-3.975 1.24-.418 1.34 3.975-1.24.418zm-1.052-3.62l-17.735-10.451.665-1.127 17.734 10.451-.664 1.127zM309.3 148.068l-6.666-1.63.31-1.271 6.667 1.63-.311 1.271zm-6.909-1.746l-2.918-2.235.796-1.039 2.918 2.235-.796 1.039zm12.894 15.728l-15.004-10.2.735-1.082 15.004 10.2-.735 1.082zm-14.86-10.126l-11.361-4.127.447-1.23 11.361 4.128-.447 1.229zm-112.529-12.631c-9.66-1.814-19.365-5.723-26.639-9.168-3.641-1.724-6.681-3.335-8.811-4.516l-2.477-1.409-.655-.389-.17-.102c-.019-.011-.033-.02-.043-.026s-.016-.01.327-.567l.342-.558c.022.014.036.022.054.033l.164.099.643.381 2.449 1.394c2.111 1.17 5.125 2.768 8.737 4.478 7.229 3.423 16.819 7.28 26.321 9.064l-.242 1.286zM68.756 89.701l-.078-.65.035-.004.111-.014.433-.061a49.77 49.77 0 0 0 1.603-.265c1.356-.246 3.229-.636 5.293-1.216 4.156-1.167 8.975-3.069 11.969-6.007l.916.934c-3.242 3.182-8.334 5.155-12.531 6.333a59.61 59.61 0 0 1-5.413 1.243c-.694.126-1.256.214-1.646.272l-.451.064-.119.015-.031.004c-.012.001-.012.001-.09-.648zm45.284 24.356c-9.535-3.418-20.951-9.376-29.963-14.465-4.511-2.547-8.428-4.881-11.217-6.579l-3.273-2.016-.878-.551-.227-.144-.058-.037-.019-.012c-.001-.001-.001-.001.351-.552l.352-.551.018.012.057.036.225.142.872.548 3.26 2.008a402.58 402.58 0 0 0 11.18 6.557c9 5.082 20.336 10.994 29.761 14.373l-.441 1.231zm121.162 8.095c-12.024 9.173-27.82 20.8-47.306 17.141l.242-1.286c18.838 3.538 34.183-7.674 46.271-16.895l.793 1.04zm-35.151 20.037c16.106-4.473 26.489-10.845 34.235-20.955l1.039.795c-7.966 10.397-18.628 16.895-34.924 21.421l-.35-1.261zm-50.859-19.683c4.274-1.655 13.901-2.66 25.315-12.206l.84 1.003c-11.636 9.731-21.7 10.881-25.683 12.423l-.472-1.22zM88.781 82.574c-8.506 2.749-18.23 2.276-27.984.067-9.76-2.21-19.603-6.172-28.378-10.461s-16.506-8.918-22.038-12.472a207.51 207.51 0 0 1-6.514-4.353L2.109 54.11l-.457-.332-.117-.086-.03-.022c-.01-.008-.011-.008.38-.533l.391-.525.037.027.113.083.449.326 1.74 1.233c1.516 1.058 3.722 2.558 6.473 4.325 5.503 3.535 13.186 8.135 21.905 12.397s18.466 8.18 28.092 10.36c9.633 2.182 19.096 2.612 27.293-.036l.402 1.245zm43.05-38.394c-1.936-3.8-5.476-7.143-8.581-9.556a52.33 52.33 0 0 0-4.003-2.817 41.62 41.62 0 0 0-1.227-.753l-.332-.193-.085-.048c-.009-.005-.016-.009-.021-.012s-.006-.003.31-.576l.316-.573c.015.008.024.013.034.019l.093.052.349.202c.301.177.734.438 1.265.776a53.85 53.85 0 0 1 4.104 2.888c3.155 2.451 6.876 5.936 8.944 9.995l-1.166.594zm80.994 34.437c-2.113-5.192-4.99-9.877-7.346-13.27-1.176-1.695-2.22-3.063-2.968-4.007l-.881-1.084-.236-.279-.06-.07c-.006-.008-.011-.013-.014-.017s-.005-.005.488-.435l.493-.43.023.027.065.075.245.291.902 1.109c.763.962 1.823 2.353 3.018 4.074 2.387 3.439 5.321 8.211 7.483 13.523l-1.212.493zm-10.771-19.768c26.39 10.721 41.416 23.48 53.386 37.157 5.973 6.825 11.189 13.883 16.656 20.993 5.473 7.118 11.21 14.306 18.258 21.443l-.931.919c-7.106-7.196-12.883-14.436-18.364-21.565-5.488-7.136-10.666-14.144-16.603-20.928-11.85-13.54-26.712-26.171-52.894-36.807l.492-1.212zm-84.162-28.622l.075-.65.041.005.115.014.449.058 1.726.251a143.64 143.64 0 0 1 6.417 1.153c5.462 1.102 13.118 2.93 21.903 5.834l-.41 1.242c-8.727-2.885-16.331-4.7-21.752-5.794-2.71-.547-4.873-.913-6.357-1.143l-1.7-.247-.437-.057-.11-.013-.026-.003c-.009-.001-.009-.001.066-.651zm34.696 8.025c19.447 6.905 43.384 18.984 61.337 39.689l-.988.857c-17.749-20.47-41.454-32.449-60.787-39.314l.438-1.233zm-3.524-.806l.26 2.552-1.301.133-.261-2.552 1.302-.133zm-.592 1.996l3.696-1.196.402 1.245-3.695 1.196-.403-1.245zM72.546 26.885c23.923-.876 46.677 4.809 60.293 16.501l-.852.993c-13.27-11.394-35.644-17.056-59.393-16.186l-.048-1.307zm-3.161.619l1.051 2.818-1.226.457-1.051-2.818 1.226-.457zm-.045 2.606l2.747-3.012.967.881-2.747 3.012-.967-.881zm105.864 81.283c-12.726 5.959-22.282 8.574-30.571 9.056l-.076-1.306c8.067-.469 17.455-3.017 30.093-8.935l.554 1.185zm-35.209 9.107c-8.909-.328-16.601-3.091-25.782-6.382l.441-1.232c9.213 3.303 16.716 5.987 25.389 6.307l-.048 1.307zm-25.782-6.382l-.173-.062.441-1.231.173.061-.441 1.232zm29.95 6.17l-4.193-3.684.863-.983 4.194 3.684-.864.983zm-3.111-4.108l-.382 3.733-1.302-.133.383-3.734 1.301.134zM7.861 47.567c17.27-12.424 39.424-19.082 60.869-20.487l.086 1.305c-21.254 1.392-43.159 7.991-60.19 20.243l-.764-1.062zm5.321 3.823l-5.239-2.711.601-1.162 5.24 2.711-.601 1.162zM1.757 52.496l11.597-2.329.258 1.283-11.597 2.329-.258-1.283zm231.933 94.957c-10.866 1.023-22.618.283-33.701-4.024l.474-1.219c10.84 4.213 22.376 4.951 33.104 3.941l.123 1.302zm21.97-4.414c-4.79 1.451-10.173 2.766-15.9 3.655l-.201-1.293c5.658-.878 10.981-2.178 15.722-3.614l.379 1.252zm-16.63 3.188l-1.191-4.189 1.259-.358 1.191 4.189-1.259.358zm-.094-3.91l-4.84 4.942-.935-.915 4.84-4.943.935.916z"/><path d="M90.327 59.675c76.072 13.319 132.981 43.599 199.05 79.768l-1.401-2.509C221.383 91.2 126.117 61.042 90.911 58.174l-.584 1.501z"/></g></svg>