<svg width="185" height="543" viewBox="0 0 185 543" fill="none" xmlns="http://www.w3.org/2000/svg">
<path d="M236.557 486.364L244.21 499.417L109.233 531.278L1.72168 75.8223L119.736 47.9647L116.282 57.5432L123.485 63.8443L123.438 87.8589L136.263 117.979L133.831 131.889L148.362 141.794L154.24 166.696L169.242 181.825L172.564 195.9L186.913 219.564L194.495 251.684L188.665 264.11L191.647 276.741L209.233 314.12L193.684 333.793L201.978 352.791L210.211 403.808L219.102 425.332L225.832 453.843L227.931 478.875L236.557 486.364Z" fill="black" stroke="#FBFEFC" stroke-width="1.35364"/>
<path d="M245.355 499.907L247.74 510.012L111.067 542.274L108.682 532.169L245.355 499.907Z" fill="#FBFEFC"/>
<rect x="98.595" y="431.61" width="16.4457" height="16.4457" transform="rotate(-13.2817 98.595 431.61)" stroke="#FBFEFC" stroke-width="1.35364"/>
<rect x="106.773" y="466.257" width="16.4457" height="16.4457" transform="rotate(-13.2817 106.773 466.257)" stroke="#FBFEFC" stroke-width="1.35364"/>
<rect x="114.951" y="500.904" width="16.4457" height="16.4457" transform="rotate(-13.2817 114.951 500.904)" stroke="#FBFEFC" stroke-width="1.35364"/>
<rect x="90.4163" y="396.962" width="16.4457" height="16.4457" transform="rotate(-13.2817 90.4163 396.962)" stroke="#FBFEFC" stroke-width="1.35364"/>
<rect x="82.2378" y="362.318" width="16.4457" height="16.4457" transform="rotate(-13.2817 82.2378 362.318)" stroke="#FBFEFC" stroke-width="1.35364"/>
<rect x="74.0601" y="327.672" width="16.4457" height="16.4457" transform="rotate(-13.2817 74.0601 327.672)" stroke="#FBFEFC" stroke-width="1.35364"/>
<rect x="65.8809" y="293.023" width="16.4457" height="16.4457" transform="rotate(-13.2817 65.8809 293.023)" stroke="#FBFEFC" stroke-width="1.35364"/>
<rect x="57.7031" y="258.377" width="16.4457" height="16.4457" transform="rotate(-13.2817 57.7031 258.377)" stroke="#FBFEFC" stroke-width="1.35364"/>
<rect x="49.5247" y="223.733" width="16.4457" height="16.4457" transform="rotate(-13.2817 49.5247 223.733)" stroke="#FBFEFC" stroke-width="1.35364"/>
<rect x="41.3462" y="189.085" width="16.4457" height="16.4457" transform="rotate(-13.2817 41.3462 189.085)" stroke="#FBFEFC" stroke-width="1.35364"/>
<rect x="33.1677" y="154.44" width="16.4457" height="16.4457" transform="rotate(-13.2817 33.1677 154.44)" stroke="#FBFEFC" stroke-width="1.35364"/>
<rect x="24.9893" y="119.791" width="16.4457" height="16.4457" transform="rotate(-13.2817 24.9893 119.791)" stroke="#FBFEFC" stroke-width="1.35364"/>
<rect x="16.8108" y="85.1458" width="16.4457" height="16.4457" transform="rotate(-13.2817 16.8108 85.1458)" stroke="#FBFEFC" stroke-width="1.35364"/>
<path d="M234.016 453.668L239.04 467.94L100.465 473.489L81.741 5.89062L202.902 1.03892L197.685 9.78348L203.554 17.3419L198.931 40.9073L205.78 72.9202L200.741 86.111L213.117 98.6045L214.141 124.171L225.984 141.881L226.563 156.331L236.138 182.297L237.458 215.274L229.367 226.36L229.886 239.328L240.025 279.374L221.011 295.722L225.532 315.952L223.889 367.603L228.514 390.427L229.686 419.699L226.975 444.672L234.016 453.668Z" fill="black" stroke="#FBFEFC" stroke-width="1.35364"/>
<path d="M240.071 468.64L240.486 479.015L100.169 484.633L99.7539 474.259L240.071 468.64Z" fill="#FBFEFC"/>
<rect x="109.02" y="373.621" width="16.4457" height="16.4457" transform="rotate(-2.2931 109.02 373.621)" stroke="#FBFEFC" stroke-width="1.35364"/>
<rect x="110.444" y="409.191" width="16.4457" height="16.4457" transform="rotate(-2.2931 110.444 409.191)" stroke="#FBFEFC" stroke-width="1.35364"/>
<rect x="111.868" y="444.762" width="16.4457" height="16.4457" transform="rotate(-2.2931 111.868 444.762)" stroke="#FBFEFC" stroke-width="1.35364"/>
<rect x="107.595" y="338.05" width="16.4457" height="16.4457" transform="rotate(-2.2931 107.595 338.05)" stroke="#FBFEFC" stroke-width="1.35364"/>
<rect x="106.171" y="302.48" width="16.4457" height="16.4457" transform="rotate(-2.2931 106.171 302.48)" stroke="#FBFEFC" stroke-width="1.35364"/>
<rect x="104.747" y="266.912" width="16.4457" height="16.4457" transform="rotate(-2.2931 104.747 266.912)" stroke="#FBFEFC" stroke-width="1.35364"/>
<rect x="103.322" y="231.34" width="16.4457" height="16.4457" transform="rotate(-2.2931 103.322 231.34)" stroke="#FBFEFC" stroke-width="1.35364"/>
<rect x="101.898" y="195.77" width="16.4457" height="16.4457" transform="rotate(-2.2931 101.898 195.77)" stroke="#FBFEFC" stroke-width="1.35364"/>
<rect x="100.473" y="160.201" width="16.4457" height="16.4457" transform="rotate(-2.2931 100.473 160.201)" stroke="#FBFEFC" stroke-width="1.35364"/>
<rect x="99.0491" y="124.631" width="16.4457" height="16.4457" transform="rotate(-2.2931 99.0491 124.631)" stroke="#FBFEFC" stroke-width="1.35364"/>
<rect x="97.6245" y="89.0613" width="16.4457" height="16.4457" transform="rotate(-2.2931 97.6245 89.0613)" stroke="#FBFEFC" stroke-width="1.35364"/>
<rect x="96.2004" y="53.489" width="16.4457" height="16.4457" transform="rotate(-2.2931 96.2004 53.489)" stroke="#FBFEFC" stroke-width="1.35364"/>
<rect x="94.7759" y="17.9197" width="16.4457" height="16.4457" transform="rotate(-2.2931 94.7759 17.9197)" stroke="#FBFEFC" stroke-width="1.35364"/>
</svg>
