<svg width="377" height="391" viewBox="0 0 377 391" fill="none" xmlns="http://www.w3.org/2000/svg">
<path d="M208.839 276.537C203.58 283.308 188.925 290.225 180.396 289.36" stroke="#FBFEFC" stroke-width="3.03956" stroke-linecap="round"/>
<path d="M220.489 264.689C219.571 266.457 217.549 268.981 216.3 269.848" stroke="#FBFEFC" stroke-width="3.03956" stroke-linecap="round"/>
<path fill-rule="evenodd" clip-rule="evenodd" d="M238.719 188.416C217.011 146.381 165.336 129.904 123.301 151.612C81.2665 173.321 64.7889 224.996 86.4976 267.03C108.206 309.065 159.881 325.543 201.915 303.834C243.95 282.126 260.428 230.451 238.719 188.416ZM231.208 192.094C211.588 154.104 164.886 139.211 126.896 158.831C88.9056 178.451 74.0135 225.153 93.6333 263.144C113.253 301.134 159.955 316.026 197.945 296.406C235.936 276.786 250.828 230.084 231.208 192.094Z" fill="black"/>
<ellipse cx="162.652" cy="227.688" rx="85.6616" ry="85.6616" transform="rotate(-117.314 162.652 227.688)" stroke="#FBFEFC" stroke-width="3.03956"/>
<ellipse cx="162.466" cy="227.584" rx="77.4191" ry="77.4191" transform="rotate(-117.314 162.466 227.584)" stroke="#FBFEFC" stroke-width="1.51978"/>
<path d="M245.334 200.252L232.802 175.987L257.216 160.423L272.398 189.821L245.334 200.252Z" fill="black" stroke="#FBFEFC" stroke-width="1.51978"/>
<path d="M257.992 194.888L244.713 169.177L251.424 164.922L265.346 191.88L257.992 194.888Z" fill="#FBFEFC" stroke="#FBFEFC" stroke-width="1.51978"/>
<path d="M272.593 189.622L257.46 160.32L401.24 86.0651C403.612 84.8401 406.528 85.7699 407.753 88.1418L418.45 108.855C419.675 111.227 418.745 114.143 416.373 115.368L272.593 189.622Z" fill="black" stroke="#FBFEFC" stroke-width="1.51978"/>
<rect x="273.439" y="194.134" width="41.774" height="4.83699" rx="2.41849" transform="rotate(-117.314 273.439 194.134)" fill="#FBFEFC" stroke="#FBFEFC" stroke-width="1.51978"/>
</svg>
