<svg width="232" height="259" viewBox="0 0 232 259" fill="none" xmlns="http://www.w3.org/2000/svg">
<path d="M-7.32709 55.0181L22.3156 46.935L37.137 42.8934L44.5477 40.8726L49.3899 41.5086L51.9584 38.8518L111.244 22.6855L170.217 2.00035L188.881 73.2899L195.082 91.4421L198.182 100.518L195.961 102.795L199.732 105.056L201.282 109.594L230.412 204.368L216.17 208.872L209.55 207.312L209.049 211.124L201.928 213.376L173.445 222.383L80.088 247.81L52.9508 257.154L47.7129 240.749L45.094 232.547L48.1237 227.465L42.4751 224.344L31.9994 191.535L5.14424 93.4793L-7.32709 55.0181Z" fill="black" stroke="#FBFEFC" stroke-width="1.7264"/>
<g clip-path="url(#clip0_5916_5634)">
<rect x="5.91199" y="61.0371" width="163.491" height="163.491" transform="rotate(-16.5651 5.91199 61.0371)" fill="black"/>
<rect x="5.91333" y="61.0391" width="163.491" height="163.491" transform="rotate(-16.5651 5.91333 61.0391)" fill="black"/>
<path d="M96.1899 147.141C85.1088 140.642 66.881 132.303 54.2845 127.258C52.5229 126.552 52.8088 123.506 54.5993 122.877C61.8518 120.332 67.0542 115.021 65.1613 104.957C64.8248 103.168 67.1388 101.412 68.771 102.218C77.9534 106.751 84.4679 103.172 88.8714 96.8733C89.9586 95.3181 92.9697 95.8631 93.1748 97.7495C94.6415 111.239 97.7649 131.039 101.04 143.461C101.547 145.385 97.9063 148.148 96.1899 147.141Z" fill="#FBFEFC"/>
<path d="M158.164 194.578C151.213 183.774 138.718 168.101 129.758 157.91C128.505 156.485 130.137 153.896 132.018 154.144C139.638 155.149 146.678 152.761 149.536 142.927C150.043 141.179 152.901 140.657 153.993 142.113C160.138 150.305 167.567 150.055 174.34 146.424C176.013 145.528 178.453 147.374 177.784 149.15C172.999 161.848 166.842 180.923 164.153 193.485C163.737 195.431 159.241 196.251 158.164 194.578Z" fill="#FBFEFC"/>
<path d="M114.749 91.3455C111.691 78.8684 104.974 59.9822 99.8177 47.4311C99.0965 45.6759 101.481 43.7584 103.18 44.6051C110.058 48.0347 117.493 48.0666 123.394 39.697C124.443 38.2094 127.314 38.6462 127.873 40.3784C131.019 50.1238 138.125 52.3036 145.711 51.0744C147.584 50.7708 149.291 53.3107 148.081 54.772C139.425 65.2223 127.397 81.2574 120.768 92.261C119.741 93.9654 115.222 93.2781 114.749 91.3455Z" fill="#FBFEFC"/>
</g>
<rect x="5.91199" y="61.0371" width="163.491" height="163.491" transform="rotate(-16.5651 5.91199 61.0371)" stroke="#FBFEFC" stroke-width="1.7264"/>
<defs>
<clipPath id="clip0_5916_5634">
<rect x="5.91199" y="61.0371" width="163.491" height="163.491" transform="rotate(-16.5651 5.91199 61.0371)" fill="white"/>
</clipPath>
</defs>
</svg>
