<svg width="153" height="473" viewBox="0 0 153 473" fill="none" xmlns="http://www.w3.org/2000/svg">
<path d="M-83.3967 383.817L-82.9667 370.9L-76.6477 341.193L-77.2261 299.598L-72.7073 297.612L-76.5344 289.922L-74.6092 262.895L-61.8126 264.917L-58.9075 191.664L-41.9293 127.633L-25.7452 54.7821L-24.421 39.1396L-20.6869 36.6707L-24.1427 34.0412L-23.6086 27.1275L-16.0105 10.1883L20.7066 14.1214L67.8687 23.3595L73.5944 27.8471L77.0089 25.3989L143.522 37.9336L138.325 68.1964L130.184 93.1408L133.128 98.4593L122.734 158.985L110.834 222.77L103.775 240.809L105.894 253.967L93.2744 319.521L87.635 323.628L91.8721 326.805L83.4589 370.508L72.0132 410.287L9.9834 400.684L-38.2779 387.608L-61.8297 390.042L-83.3967 383.817Z" fill="#FBFEFC"/>
<path d="M-86.5378 382.597L-86.1162 369.722L-79.8174 340.114L-80.423 298.652L-75.9061 296.675L-79.7377 289.007L-77.8304 262.067L-65.0342 264.092L-62.1772 191.075L-45.243 127.259L-29.1086 54.6525L-27.7948 39.0609L-24.0628 36.6023L-27.5199 33.979L-26.9903 27.0878L-19.4043 10.2077L17.3105 14.1522L64.4723 23.3915L70.2002 27.8685L73.6127 25.4303L140.125 37.9683L134.949 68.131L126.825 92.9902L129.772 98.2936L119.419 158.619L107.562 222.192L100.516 240.169L102.643 253.286L90.0678 318.622L84.4319 322.712L88.6706 325.882L80.2869 369.439L68.8687 409.084L6.84089 399.472L-41.4225 386.406L-64.9696 388.816L-86.5378 382.597Z" fill="black" stroke="#FBFEFC" stroke-width="1.59428" stroke-linecap="round"/>
<path d="M-91.9986 451.416L-94.5818 438.753L-95.3389 408.391L-105.567 368.069L-101.633 365.088L-107.143 358.497L-111.551 331.762L-98.6345 330.755L-112.831 258.833L-111.197 192.609L-112.384 117.992L-114.731 102.47L-111.673 99.2005L-115.645 97.446L-116.732 90.5975L-113.278 72.3564L-76.6522 67.6498L-28.6344 65.6758L-22.0227 68.7101L-19.2705 65.5354L48.3347 62.2712L50.3122 92.9133L48.1905 119.067L52.2897 123.555L56.2447 184.84L59.4924 249.643L56.819 268.83L61.9371 281.134L64.8957 347.827L60.365 353.132L65.2245 355.237L67.1969 399.699L65.3082 441.049L2.74493 446.123L-47.2339 444.619L-69.5754 452.459L-91.9986 451.416Z" fill="#FBFEFC"/>
<path d="M-95.337 450.96L-97.9188 438.34L-98.6726 408.079L-108.896 367.892L-104.962 364.92L-110.471 358.352L-114.876 331.707L-101.96 330.702L-116.148 259.02L-114.506 193.016L-115.685 118.648L-118.031 103.177L-114.972 99.919L-118.944 98.1708L-120.03 91.3452L-116.574 73.1644L-79.9481 68.4694L-31.9303 66.4966L-25.3189 69.5201L-22.5664 66.3557L45.0389 63.0948L47.013 93.6347L44.8884 119.701L48.9871 124.175L52.9353 185.254L56.1758 249.842L53.5003 268.965L58.617 281.228L61.5682 347.698L57.037 352.986L61.8962 355.084L63.8636 399.397L61.9703 440.61L-0.593259 445.674L-50.5717 444.181L-72.914 451.997L-95.337 450.96Z" fill="black" stroke="#FBFEFC" stroke-width="1.59428" stroke-linecap="round"/>
</svg>
